<svg width="637" height="637" viewBox="0 0 637 637" fill="none" xmlns="http://www.w3.org/2000/svg">
<path d="M573.173 507.677H530.978V507.995H573.173V507.677Z" fill="#EBEBEB"/>
<path d="M421.974 511.142H410.903V511.46H421.974V511.142Z" fill="#EBEBEB"/>
<path d="M529.704 495.854H505.256V496.172H529.704V495.854Z" fill="#EBEBEB"/>
<path d="M121.858 497.994H66.834V498.313H121.858V497.994Z" fill="#EBEBEB"/>
<path d="M141.274 497.994H133.209V498.313H141.274V497.994Z" fill="#EBEBEB"/>
<path d="M286.841 503.37H167.493V503.689H286.841V503.37Z" fill="#EBEBEB"/>
<path d="M301.938 430.357H55.9541C54.0248 430.357 52.1745 429.591 50.8102 428.227C49.446 426.863 48.6796 425.012 48.6796 423.083V77.2812C48.6964 75.3629 49.4702 73.5289 50.8326 72.1784C52.195 70.8279 54.0358 70.0702 55.9541 70.0703H301.938C303.867 70.0703 305.718 70.8367 307.082 72.201C308.446 73.5652 309.213 75.4155 309.213 77.3449V423.083C309.213 425.012 308.446 426.863 307.082 428.227C305.718 429.591 303.867 430.357 301.938 430.357ZM55.9541 70.3251C54.1103 70.3285 52.3429 71.0624 51.0392 72.3662C49.7354 73.67 49.0014 75.4373 48.9981 77.2812V423.083C49.0014 424.927 49.7354 426.694 51.0392 427.998C52.3429 429.302 54.1103 430.036 55.9541 430.039H301.938C303.782 430.036 305.549 429.302 306.853 427.998C308.157 426.694 308.891 424.927 308.894 423.083V77.2812C308.891 75.4373 308.157 73.67 306.853 72.3662C305.549 71.0624 303.782 70.3285 301.938 70.3251H55.9541Z" fill="#EBEBEB"/>
<path d="M577.517 430.357H331.508C329.579 430.354 327.731 429.587 326.367 428.223C325.004 426.86 324.236 425.011 324.233 423.083V77.2812C324.253 75.3639 325.028 73.5319 326.39 72.1821C327.751 70.8323 329.59 70.0736 331.508 70.0703H577.517C579.431 70.0769 581.265 70.8376 582.622 72.1874C583.979 73.5371 584.749 75.3673 584.766 77.2812V423.083C584.766 425.008 584.003 426.854 582.644 428.218C581.286 429.581 579.442 430.351 577.517 430.357ZM331.508 70.3251C329.664 70.3285 327.896 71.0624 326.593 72.3662C325.289 73.67 324.555 75.4373 324.552 77.2812V423.083C324.555 424.927 325.289 426.694 326.593 427.998C327.896 429.302 329.664 430.036 331.508 430.039H577.517C579.361 430.036 581.128 429.302 582.432 427.998C583.736 426.694 584.47 424.927 584.473 423.083V77.2812C584.47 75.4373 583.736 73.67 582.432 72.3662C581.128 71.0624 579.361 70.3285 577.517 70.3251H331.508Z" fill="#EBEBEB"/>
<path d="M637 487.178H0V487.496H637V487.178Z" fill="#EBEBEB"/>
<path d="M146.051 131.948C140.45 131.948 134.974 133.609 130.317 136.721C125.66 139.833 122.03 144.256 119.886 149.431C117.743 154.606 117.182 160.301 118.275 165.794C119.367 171.288 122.065 176.334 126.025 180.295C129.986 184.256 135.032 186.953 140.526 188.046C146.02 189.139 151.714 188.578 156.889 186.434C162.064 184.291 166.487 180.661 169.599 176.004C172.711 171.346 174.372 165.871 174.372 160.269C174.372 152.758 171.389 145.554 166.077 140.243C160.766 134.932 153.563 131.948 146.051 131.948ZM162.499 180.36V174.627C162.499 165.544 155.135 164.55 146.051 164.55C136.968 164.55 129.604 165.544 129.604 174.627V180.36C125.456 176.967 122.459 172.375 121.024 167.212C119.588 162.049 119.785 156.569 121.586 151.522C123.387 146.475 126.705 142.109 131.085 139.021C135.465 135.934 140.693 134.277 146.051 134.277C151.41 134.277 156.638 135.934 161.018 139.021C165.398 142.109 168.715 146.475 170.517 151.522C172.318 156.569 172.514 162.049 171.079 167.212C169.643 172.375 166.646 176.967 162.499 180.36Z" fill="#F0F0F0"/>
<path d="M146.051 162.524C150.062 162.524 153.313 158.703 153.313 153.989C153.313 149.274 150.062 145.453 146.051 145.453C142.041 145.453 138.79 149.274 138.79 153.989C138.79 158.703 142.041 162.524 146.051 162.524Z" fill="#F0F0F0"/>
<path d="M122.928 218.517C118.501 218.517 114.173 219.83 110.492 222.289C106.811 224.749 103.942 228.245 102.248 232.335C100.554 236.425 100.11 240.926 100.974 245.268C101.838 249.61 103.97 253.599 107.1 256.729C110.231 259.86 114.219 261.991 118.561 262.855C122.903 263.719 127.404 263.276 131.494 261.581C135.584 259.887 139.08 257.018 141.54 253.337C144 249.656 145.312 245.328 145.312 240.901C145.314 237.961 144.736 235.05 143.612 232.333C142.488 229.616 140.839 227.148 138.76 225.069C136.681 222.99 134.213 221.342 131.496 220.217C128.78 219.093 125.868 218.515 122.928 218.517ZM135.923 256.737V252.252C135.923 245.08 130.101 244.29 122.928 244.29C115.756 244.29 109.921 245.08 109.921 252.252V256.788C106.641 254.106 104.271 250.475 103.136 246.393C102.001 242.311 102.156 237.978 103.58 233.988C105.003 229.998 107.627 226.546 111.089 224.105C114.552 221.664 118.685 220.353 122.922 220.353C127.159 220.353 131.292 221.664 134.754 224.105C138.217 226.546 140.84 229.998 142.264 233.988C143.688 237.978 143.843 242.311 142.708 246.393C141.573 250.475 139.203 254.106 135.923 256.788V256.737Z" fill="#F0F0F0"/>
<path d="M122.928 229.193C119.195 229.193 117.182 232.213 117.182 235.933C117.182 239.653 119.195 242.685 122.928 242.685C126.661 242.685 128.661 239.666 128.661 235.933C128.661 232.2 126.648 229.193 122.928 229.193Z" fill="#F0F0F0"/>
<path d="M216.453 89.0402C212.953 89.0402 209.531 90.078 206.621 92.0225C203.711 93.9669 201.443 96.7306 200.104 99.9641C198.764 103.198 198.414 106.756 199.097 110.188C199.78 113.621 201.465 116.774 203.94 119.249C206.415 121.724 209.568 123.409 213 124.092C216.433 124.775 219.991 124.424 223.224 123.085C226.458 121.746 229.222 119.477 231.166 116.567C233.111 113.657 234.148 110.236 234.148 106.736C234.148 102.043 232.284 97.5418 228.965 94.2232C225.647 90.9045 221.146 89.0402 216.453 89.0402ZM226.772 119.285V115.705C226.772 110.023 222.173 109.411 216.504 109.411C210.834 109.411 206.235 110.023 206.235 115.705V119.285C203.646 117.167 201.774 114.299 200.878 111.076C199.982 107.853 200.105 104.431 201.229 101.28C202.354 98.1294 204.425 95.4034 207.16 93.4759C209.894 91.5483 213.158 90.5137 216.504 90.5137C219.849 90.5137 223.113 91.5483 225.847 93.4759C228.582 95.4034 230.653 98.1294 231.778 101.28C232.902 104.431 233.025 107.853 232.129 111.076C231.233 114.299 229.362 117.167 226.772 119.285Z" fill="#F0F0F0"/>
<path d="M216.453 97.4863C213.51 97.4863 211.917 99.8687 211.917 102.812C211.917 105.755 213.51 108.15 216.453 108.15C219.396 108.15 220.988 105.755 220.988 102.812C220.988 99.8687 219.396 97.4863 216.453 97.4863Z" fill="#F0F0F0"/>
<path d="M513.804 226.021C510.304 226.021 506.883 227.058 503.973 229.003C501.063 230.947 498.795 233.711 497.455 236.945C496.116 240.178 495.766 243.736 496.448 247.169C497.131 250.601 498.817 253.755 501.291 256.229C503.766 258.704 506.919 260.39 510.352 261.072C513.785 261.755 517.343 261.405 520.576 260.065C523.81 258.726 526.573 256.458 528.518 253.548C530.462 250.638 531.5 247.216 531.5 243.716C531.5 239.023 529.636 234.522 526.317 231.204C522.998 227.885 518.497 226.021 513.804 226.021ZM524.085 256.265V252.685C524.085 247.003 519.486 246.392 513.804 246.392C508.122 246.392 503.536 247.003 503.536 252.685V256.265C500.944 254.146 499.071 251.276 498.173 248.05C497.276 244.824 497.399 241.4 498.524 238.246C499.649 235.093 501.722 232.364 504.459 230.435C507.196 228.506 510.462 227.47 513.811 227.47C517.159 227.47 520.425 228.506 523.162 230.435C525.899 232.364 527.972 235.093 529.097 238.246C530.223 241.4 530.345 244.824 529.448 248.05C528.55 251.276 526.677 254.146 524.085 256.265Z" fill="#F0F0F0"/>
<path d="M513.804 234.416C510.861 234.416 509.269 236.798 509.269 239.741C509.269 242.684 510.861 245.079 513.804 245.079C516.747 245.079 518.352 242.684 518.352 239.741C518.352 236.798 516.76 234.416 513.804 234.416Z" fill="#F0F0F0"/>
<path d="M441.658 92.1484C437.142 92.1459 432.726 93.4827 428.97 95.9898C425.214 98.4969 422.286 102.062 420.556 106.233C418.826 110.404 418.372 114.995 419.252 119.425C420.131 123.854 422.305 127.923 425.497 131.117C428.689 134.311 432.757 136.487 437.186 137.369C441.615 138.251 446.206 137.8 450.379 136.072C454.551 134.344 458.117 131.418 460.626 127.664C463.136 123.909 464.475 119.494 464.475 114.979C464.475 108.926 462.071 103.121 457.793 98.8397C453.514 94.5586 447.71 92.1518 441.658 92.1484ZM454.907 131.222V126.546C454.907 119.221 448.97 118.418 441.658 118.418C434.345 118.418 428.408 119.221 428.408 126.546V131.222C425.069 128.489 422.657 124.791 421.502 120.633C420.347 116.476 420.506 112.063 421.957 107.999C423.408 103.936 426.08 100.42 429.607 97.9347C433.133 95.4491 437.343 94.1148 441.658 94.1148C445.972 94.1148 450.182 95.4491 453.709 97.9347C457.235 100.42 459.907 103.936 461.358 107.999C462.809 112.063 462.968 116.476 461.813 120.633C460.658 124.791 458.246 128.489 454.907 131.222Z" fill="#F0F0F0"/>
<path d="M441.658 103.041C437.836 103.041 435.797 106.124 435.797 109.921C435.797 113.717 437.861 116.8 441.658 116.8C445.454 116.8 447.505 113.717 447.505 109.921C447.505 106.124 445.454 103.041 441.658 103.041Z" fill="#F0F0F0"/>
<path d="M489.471 142.038C483.423 142.038 477.512 143.831 472.484 147.191C467.455 150.551 463.536 155.326 461.222 160.913C458.908 166.5 458.303 172.648 459.482 178.579C460.662 184.51 463.574 189.958 467.85 194.235C472.126 198.511 477.575 201.423 483.506 202.603C489.437 203.782 495.585 203.177 501.172 200.863C506.759 198.548 511.534 194.629 514.894 189.601C518.254 184.573 520.047 178.661 520.047 172.614C520.047 168.599 519.256 164.623 517.719 160.913C516.183 157.204 513.931 153.833 511.091 150.994C508.252 148.154 504.881 145.902 501.172 144.366C497.462 142.829 493.486 142.038 489.471 142.038ZM507.23 194.272V188.08C507.23 178.271 499.281 177.2 489.471 177.2C479.661 177.2 471.711 178.271 471.711 188.08V194.272C467.239 190.609 464.009 185.654 462.464 180.084C460.918 174.514 461.132 168.603 463.077 163.159C465.021 157.716 468.601 153.007 473.326 149.677C478.052 146.348 483.69 144.561 489.471 144.561C495.251 144.561 500.89 146.348 505.615 149.677C510.34 153.007 513.92 157.716 515.865 163.159C517.81 168.603 518.024 174.514 516.478 180.084C514.932 185.654 511.702 190.609 507.23 194.272Z" fill="#F0F0F0"/>
<path d="M489.471 156.626C484.375 156.626 481.623 160.754 481.623 165.85C481.623 170.946 484.375 175.073 489.471 175.073C494.567 175.073 497.319 170.933 497.319 165.85C497.319 160.766 494.567 156.626 489.471 156.626Z" fill="#F0F0F0"/>
<path d="M121.68 302.537H120.151V334.897H121.68V302.537Z" fill="#E0E0E0"/>
<path d="M120.915 305.913C120.666 305.913 120.419 305.864 120.189 305.769C119.959 305.673 119.749 305.533 119.573 305.357C119.397 305.181 119.257 304.972 119.162 304.741C119.066 304.511 119.017 304.264 119.017 304.015V297.492C119.014 297.241 119.06 296.991 119.154 296.758C119.248 296.525 119.387 296.312 119.564 296.133C119.741 295.954 119.951 295.812 120.183 295.715C120.415 295.618 120.664 295.568 120.915 295.568C121.165 295.567 121.413 295.615 121.644 295.709C121.875 295.804 122.085 295.944 122.261 296.12C122.438 296.297 122.578 296.507 122.672 296.738C122.767 296.969 122.815 297.217 122.814 297.467V303.989C122.817 304.241 122.77 304.49 122.676 304.724C122.583 304.957 122.443 305.169 122.267 305.348C122.09 305.527 121.88 305.669 121.648 305.766C121.416 305.863 121.167 305.913 120.915 305.913Z" fill="#E0E0E0"/>
<path d="M102.277 308.309C101.919 308.663 101.436 308.861 100.933 308.861C100.429 308.861 99.9464 308.663 99.5886 308.309L94.9767 303.697C94.6228 303.339 94.4242 302.856 94.4242 302.353C94.4242 301.849 94.6228 301.366 94.9767 301.009C95.3345 300.655 95.8175 300.456 96.3208 300.456C96.8241 300.456 97.3071 300.655 97.6649 301.009L102.277 305.62C102.631 305.978 102.829 306.461 102.829 306.965C102.829 307.468 102.631 307.951 102.277 308.309Z" fill="#E0E0E0"/>
<path d="M115.119 334.897H113.59V326.54C113.604 324.71 113.255 322.895 112.564 321.2C111.873 319.506 110.854 317.965 109.564 316.666L98.098 305.2L99.1809 304.117L110.647 315.583C112.09 317.018 113.235 318.726 114.013 320.607C114.792 322.487 115.189 324.504 115.182 326.54L115.119 334.897Z" fill="#E0E0E0"/>
<path d="M139.095 308.309C139.453 308.663 139.936 308.861 140.439 308.861C140.943 308.861 141.426 308.663 141.783 308.309L146.395 303.697C146.749 303.339 146.948 302.856 146.948 302.353C146.948 301.849 146.749 301.366 146.395 301.009C146.038 300.655 145.555 300.456 145.051 300.456C144.548 300.456 144.065 300.655 143.707 301.009L139.095 305.62C138.741 305.978 138.543 306.461 138.543 306.965C138.543 307.468 138.741 307.951 139.095 308.309Z" fill="#E0E0E0"/>
<path d="M127.769 334.897H126.241V326.54C126.237 324.504 126.635 322.489 127.414 320.608C128.192 318.728 129.335 317.02 130.776 315.583L142.242 304.117L143.325 305.2L131.859 316.666C130.558 317.959 129.526 319.498 128.824 321.193C128.122 322.888 127.764 324.705 127.769 326.54V334.897Z" fill="#E0E0E0"/>
<path d="M153.797 361.358H88.0461L83.4597 332.527H158.384L153.797 361.358Z" fill="#E0E0E0"/>
<path d="M158.384 327.508H83.4597V332.527H158.384V327.508Z" fill="#F0F0F0"/>
<path d="M135.477 338.91H106.354V483.84H135.477V338.91Z" fill="#F0F0F0"/>
<path d="M149.593 479.814H92.2504V487.968H149.593V479.814Z" fill="#EBEBEB"/>
<path d="M514.569 302.537H513.04V334.897H514.569V302.537Z" fill="#E0E0E0"/>
<path d="M513.804 305.913C513.555 305.913 513.308 305.864 513.078 305.769C512.847 305.673 512.638 305.533 512.462 305.357C512.286 305.181 512.146 304.972 512.05 304.741C511.955 304.511 511.906 304.264 511.906 304.015V297.492C511.903 297.241 511.949 296.991 512.043 296.758C512.137 296.524 512.276 296.312 512.453 296.133C512.629 295.954 512.84 295.812 513.072 295.715C513.304 295.618 513.553 295.568 513.804 295.568C514.055 295.567 514.303 295.614 514.535 295.709C514.766 295.804 514.977 295.943 515.155 296.12C515.332 296.296 515.473 296.506 515.569 296.737C515.666 296.968 515.715 297.216 515.715 297.467V303.989C515.717 304.241 515.669 304.491 515.573 304.725C515.478 304.958 515.338 305.17 515.16 305.349C514.982 305.528 514.771 305.67 514.538 305.766C514.306 305.863 514.056 305.913 513.804 305.913Z" fill="#E0E0E0"/>
<path d="M495.166 308.309C494.808 308.663 494.325 308.861 493.821 308.861C493.318 308.861 492.835 308.663 492.477 308.309L487.866 303.697C487.512 303.339 487.313 302.856 487.313 302.353C487.313 301.849 487.512 301.366 487.866 301.009C488.223 300.655 488.706 300.456 489.21 300.456C489.713 300.456 490.196 300.655 490.554 301.009L495.166 305.62C495.52 305.978 495.718 306.461 495.718 306.965C495.718 307.468 495.52 307.951 495.166 308.309Z" fill="#E0E0E0"/>
<path d="M508.02 334.897H506.492V326.54C506.497 324.705 506.139 322.888 505.437 321.193C504.735 319.498 503.703 317.959 502.402 316.666L490.936 305.2L492.019 304.117L503.485 315.583C504.93 317.018 506.076 318.725 506.857 320.606C507.638 322.486 508.038 324.503 508.033 326.54L508.02 334.897Z" fill="#E0E0E0"/>
<path d="M531.984 308.309C532.342 308.663 532.825 308.861 533.328 308.861C533.832 308.861 534.315 308.663 534.672 308.309L539.284 303.697C539.638 303.339 539.837 302.856 539.837 302.353C539.837 301.849 539.638 301.366 539.284 301.009C538.926 300.655 538.443 300.456 537.94 300.456C537.437 300.456 536.954 300.655 536.596 301.009L531.984 305.62C531.63 305.978 531.432 306.461 531.432 306.965C531.432 307.468 531.63 307.951 531.984 308.309Z" fill="#E0E0E0"/>
<path d="M520.658 334.897H519.129V326.54C519.125 324.504 519.524 322.489 520.302 320.608C521.081 318.728 522.224 317.02 523.665 315.583L535.131 304.117L536.214 305.2L524.748 316.666C523.447 317.959 522.415 319.498 521.713 321.193C521.011 322.888 520.653 324.705 520.658 326.54V334.897Z" fill="#E0E0E0"/>
<path d="M546.686 361.358H480.935L476.349 332.527H551.273L546.686 361.358Z" fill="#E0E0E0"/>
<path d="M551.273 327.508H476.349V332.527H551.273V327.508Z" fill="#F0F0F0"/>
<path d="M528.366 338.91H499.242V483.84H528.366V338.91Z" fill="#F0F0F0"/>
<path d="M542.482 479.814H485.139V487.968H542.482V479.814Z" fill="#F0F0F0"/>
<path d="M171.608 397.029C171.608 397.029 154.778 423.516 155.428 456.194C155.428 456.194 164.461 416.751 171.608 397.029Z" fill="#F0F0F0"/>
<path d="M140.535 383.194C140.535 383.194 161.645 414.165 157.097 453.073C157.084 453.073 149.606 403.922 140.535 383.194Z" fill="#F0F0F0"/>
<path d="M156.766 462.462C156.766 462.462 162.244 422.229 137.541 410.088C137.592 410.126 150.638 420.229 156.766 462.462Z" fill="#F5F5F5"/>
<path d="M159.25 474.119C159.186 473.648 152.88 426.752 162.371 386.392L163.645 386.71C154.192 426.816 160.486 473.457 160.549 473.928L159.25 474.119Z" fill="#E0E0E0"/>
<path d="M159.033 387.105L158.588 387.207C158.265 387.294 157.989 387.504 157.82 387.793C157.65 388.081 157.601 388.424 157.683 388.749L158.32 390.749C158.382 390.949 158.495 391.129 158.647 391.271C158.8 391.414 158.988 391.514 159.191 391.562C159.395 391.609 159.607 391.603 159.808 391.543C160.008 391.483 160.189 391.372 160.333 391.22L161.059 390.481C161.206 390.351 161.381 390.257 161.57 390.206C161.76 390.155 161.958 390.149 162.151 390.187C162.343 390.225 162.524 390.307 162.679 390.427C162.835 390.546 162.96 390.7 163.047 390.876L164.142 393.615C164.217 393.772 164.324 393.912 164.456 394.026C164.587 394.14 164.74 394.226 164.906 394.279C165.072 394.331 165.247 394.349 165.42 394.332C165.594 394.314 165.761 394.261 165.913 394.176L168.181 392.724C168.334 392.626 168.463 392.496 168.558 392.342C168.654 392.188 168.713 392.014 168.731 391.834C168.75 391.653 168.727 391.471 168.665 391.301C168.602 391.131 168.502 390.977 168.372 390.851L167.99 390.469C167.848 390.296 167.755 390.089 167.718 389.868C167.682 389.648 167.704 389.422 167.783 389.213C167.862 389.003 167.994 388.819 168.167 388.677C168.34 388.535 168.546 388.441 168.767 388.405L170.78 388.29C171.114 388.252 171.419 388.083 171.629 387.82C171.839 387.558 171.937 387.223 171.901 386.889L171.621 385.194C171.578 385.011 171.496 384.84 171.38 384.692C171.264 384.544 171.117 384.424 170.949 384.34C170.781 384.256 170.596 384.21 170.408 384.206C170.221 384.202 170.034 384.239 169.862 384.315L169.722 384.392C169.502 384.475 169.263 384.496 169.032 384.453C168.801 384.409 168.586 384.302 168.412 384.144C168.238 383.985 168.111 383.782 168.045 383.556C167.98 383.33 167.978 383.09 168.041 382.863L168.652 381.334C168.722 381.161 168.751 380.974 168.737 380.788C168.722 380.602 168.664 380.422 168.568 380.263C168.471 380.103 168.339 379.968 168.181 379.869C168.023 379.77 167.844 379.708 167.658 379.69L165.505 379.474C165.342 379.463 165.178 379.487 165.024 379.542C164.869 379.598 164.728 379.684 164.609 379.796C164.489 379.909 164.394 380.044 164.329 380.195C164.264 380.345 164.231 380.508 164.231 380.671C164.195 380.915 164.089 381.143 163.926 381.327C163.763 381.512 163.55 381.645 163.313 381.712C163.076 381.778 162.824 381.773 162.589 381.7C162.355 381.626 162.146 381.486 161.989 381.296L161.683 380.812C161.59 380.654 161.461 380.519 161.308 380.419C161.154 380.318 160.979 380.255 160.797 380.232C160.615 380.21 160.43 380.23 160.257 380.291C160.083 380.352 159.926 380.451 159.798 380.582L158.256 382.111C158.027 382.349 157.898 382.666 157.898 382.997C157.898 383.327 158.027 383.644 158.256 383.882L159.53 385.016C159.679 385.17 159.787 385.358 159.844 385.565C159.9 385.771 159.904 385.988 159.854 386.197C159.805 386.405 159.704 386.597 159.56 386.756C159.417 386.915 159.236 387.035 159.033 387.105Z" fill="#E0E0E0"/>
<path d="M161.798 451.709L163.467 438.256H148.179L149.912 451.722C146.371 452.946 143.301 455.243 141.127 458.294C138.953 461.344 137.784 464.997 137.783 468.743C138.083 475.276 140.373 481.561 144.344 486.757H167.276C171.243 481.558 173.531 475.275 173.837 468.743C173.843 465.006 172.688 461.359 170.531 458.308C168.375 455.256 165.323 452.951 161.798 451.709Z" fill="#F0F0F0"/>
<path d="M312.359 539.806C448.782 539.806 559.375 533.349 559.375 525.385C559.375 517.42 448.782 510.963 312.359 510.963C175.936 510.963 65.3435 517.42 65.3435 525.385C65.3435 533.349 175.936 539.806 312.359 539.806Z" fill="#E3E3E3"/>
<path d="M318.5 112.176C288.115 112.176 258.411 121.186 233.147 138.067C207.882 154.949 188.191 178.943 176.563 207.015C164.935 235.088 161.892 265.978 167.82 295.779C173.748 325.581 188.38 352.956 209.866 374.441C231.352 395.927 258.726 410.559 288.528 416.487C318.33 422.415 349.22 419.372 377.292 407.744C405.365 396.116 429.359 376.425 446.24 351.16C463.121 325.896 472.132 296.193 472.132 265.807C472.132 225.062 455.946 185.985 427.134 157.173C398.323 128.362 359.246 112.176 318.5 112.176ZM318.5 406.661C296.937 406.645 275.665 401.683 256.321 392.155C236.977 382.628 220.076 368.791 206.919 351.707C193.762 334.623 184.699 314.749 180.428 293.613C176.158 272.477 176.792 250.643 182.284 229.791C182.855 229.576 183.37 229.236 183.791 228.795C184.212 228.354 184.529 227.823 184.717 227.243C184.908 226.109 187.265 224.695 189.89 224.122C192.514 223.549 195.47 224.046 196.349 225.192C197.328 226.735 197.776 228.556 197.623 230.377C197.586 231.126 197.357 231.852 196.957 232.486C196.558 233.119 196.002 233.639 195.342 233.996C194.285 234.301 193.126 237.703 192.794 241.538C192.794 241.958 192.794 242.162 192.705 242.582C192.349 246.404 193.546 250.736 195.368 252.316C197.19 253.895 198.222 256.329 197.648 257.628C197.075 258.928 199.432 260.571 202.935 261.45C206.439 262.329 209.305 263.45 209.305 263.998C209.305 264.546 210.427 265.272 211.853 265.705C212.592 265.994 213.244 266.468 213.746 267.081C214.248 267.695 214.584 268.428 214.72 269.209C214.911 270.699 215.892 271.426 216.873 270.814C217.295 270.504 217.808 270.343 218.332 270.356C218.856 270.37 219.36 270.558 219.765 270.891C220.084 271.424 220.283 272.021 220.347 272.64C220.411 273.258 220.338 273.883 220.134 274.471C219.99 275.047 219.72 275.585 219.343 276.045C218.966 276.506 218.493 276.877 217.956 277.133C217.166 277.299 216.516 278.93 216.516 280.764C216.516 282.599 218.058 285.707 219.943 287.733C221.829 289.759 222.899 292.969 222.3 294.765C221.702 296.562 222.925 299.326 225.027 300.957C227.129 302.588 228.849 307.658 228.849 312.194V321.112C228.849 325.647 229.677 330.195 230.683 331.227C231.237 331.979 231.635 332.834 231.854 333.742C232.073 334.65 232.108 335.593 231.957 336.514C231.651 338.374 233.384 341.61 235.779 343.763C238.174 345.916 240.697 346.146 241.308 344.286C241.615 343.405 241.673 342.456 241.478 341.544C241.282 340.632 240.84 339.791 240.2 339.113C238.99 338.132 238.072 334.119 238.174 330.195C238.581 325.668 240.651 321.451 243.984 318.36C245.844 316.78 246.774 315.977 248.647 314.334C251.755 311.582 253.985 306.907 253.577 304.066C253.235 300.97 254.102 297.861 255.998 295.39C257.756 293.44 257.667 288.688 255.819 284.93C253.972 281.172 250.519 277.796 248.175 277.363C245.831 276.929 243.907 275.502 243.907 274.19C243.875 273.537 243.592 272.921 243.117 272.47C242.643 272.02 242.014 271.769 241.359 271.77C239.545 271.512 237.896 270.573 236.747 269.145C235.639 267.731 231.409 266.597 227.384 266.597H225.498C221.485 266.597 218.134 265.565 218.045 264.38C217.878 263.677 217.519 263.033 217.009 262.52C216.498 262.008 215.856 261.646 215.153 261.476C214.473 261.329 213.853 260.98 213.373 260.476C212.894 259.971 212.577 259.334 212.465 258.647C212.393 257.984 212.136 257.354 211.724 256.83C211.312 256.305 210.761 255.906 210.134 255.679C208.86 255.22 208.375 253.564 209.063 251.959C210.188 249.971 211.959 248.429 214.083 247.589C216.147 246.774 218.593 247.105 219.485 248.354C220.377 249.602 221.6 250.596 222.198 250.558C222.797 250.519 223.294 249.284 223.294 247.678C223.294 246.073 226.059 242.722 229.486 240.034L229.855 239.741C233.269 237.015 235.843 233.206 235.537 231.397C235.231 229.588 238.276 228.122 242.34 228.237H243.487C247.551 228.364 250.902 225.855 250.902 222.593C250.902 219.332 250.15 216.746 249.22 216.86C248.29 216.975 246.876 215.586 246.06 213.79C245.245 211.994 242.417 211.369 239.767 212.376C237.117 213.382 234.569 214.86 234.059 215.637C233.55 216.414 231.906 216.58 230.403 216.058C228.9 215.535 229.295 213.701 231.307 211.955C233.54 209.868 235.188 207.233 236.085 204.311C236.696 201.878 233.868 200.235 229.842 200.795L226.925 201.203C222.912 201.802 218.848 203.751 217.854 205.42C216.86 207.089 212.822 208.796 208.936 209.369C201.788 210.339 194.702 211.717 187.711 213.497C198.367 186.893 216.881 164.171 240.783 148.361C264.686 132.55 292.841 124.404 321.493 125.007C350.144 125.611 377.931 134.936 401.147 151.738C424.362 168.541 441.903 192.023 451.429 219.052C448.053 218.16 444.728 216.504 443.696 214.987C442.664 213.471 438.485 210.274 434.651 208.363L430.612 206.286C426.149 204.195 421.354 202.902 416.445 202.464L414.763 202.4C410.84 202.286 405.845 200.069 403.756 197.304C400.765 193.964 396.828 191.614 392.468 190.565C387.602 189.546 385.156 189.074 380.238 188.233C376.11 187.52 371.32 187.928 369.702 189.074C368.084 190.221 366.683 192.119 366.683 193.253C366.683 194.387 364.899 195.725 362.721 196.247C360.542 196.769 358.491 196.591 358.185 195.788C357.879 194.986 355.229 194.119 352.299 193.877C349.369 193.635 346.133 193.419 345.088 193.355C342.122 192.554 339.249 191.444 336.514 190.043C332.845 188.323 327.698 188.17 325.048 189.699C322.017 191.762 319.738 194.752 318.551 198.222C317.608 201.356 317.443 205.331 318.169 207.025C318.534 207.868 319.114 208.599 319.853 209.145C320.591 209.691 321.46 210.032 322.373 210.134C323.121 210.158 323.857 209.944 324.475 209.523C325.094 209.101 325.562 208.494 325.813 207.789C326.011 207.091 326.349 206.441 326.807 205.878C327.265 205.315 327.832 204.851 328.475 204.515C329.635 204.006 330.756 206.286 330.96 209.547C331.008 211.251 330.567 212.933 329.688 214.394C328.81 215.855 327.531 217.034 326.004 217.79C323.061 219.064 320.398 218.631 320.08 216.797C319.97 215.94 319.627 215.13 319.088 214.456C318.548 213.782 317.834 213.269 317.022 212.975C315.659 212.72 314.551 214.249 314.551 216.312C314.531 217.371 314.217 218.402 313.643 219.291C313.069 220.181 312.258 220.892 311.302 221.345C309.409 222.104 307.804 223.441 306.716 225.167C305.977 226.727 305.841 228.506 306.333 230.161C306.868 231.435 305.926 232.543 304.244 232.569C302.562 232.594 301.53 234.849 301.951 237.588C302.371 240.327 304.091 242.531 305.773 242.519C306.577 242.515 307.359 242.259 308.008 241.785C308.658 241.312 309.142 240.646 309.391 239.881C309.593 239.142 310.048 238.496 310.676 238.057C311.304 237.617 312.067 237.411 312.831 237.474C314.504 237.572 316.167 237.154 317.595 236.276C318.653 235.486 320.373 236.123 321.417 237.703C322.478 239.318 322.888 241.276 322.564 243.181C322.144 244.621 322.921 245.156 324.284 244.379C325.647 243.602 326.246 241.143 325.622 238.913C324.997 236.684 324.985 234.543 325.622 234.148C326.259 233.753 327.966 235.422 329.444 237.754C330.922 240.085 333.406 241.423 334.973 240.659C336.54 239.894 338.948 240.799 340.311 242.633C341.667 244.471 342.343 246.723 342.222 249.003C341.903 250.685 338.82 252.825 335.355 253.908C331.89 254.991 327.431 254.915 325.443 253.908C323.366 252.78 321.696 251.029 320.666 248.901C320.042 247.207 317.111 245.704 314.181 245.576C311.251 245.449 306.142 248.124 302.855 251.36L299.556 254.66C296.269 257.947 293.326 263.055 293.02 266.037C292.714 269.018 291.924 271.872 291.3 272.407C290.676 272.942 290.166 275.668 290.166 278.509C290.166 281.35 292.217 285.835 294.727 288.472C297.861 291.395 301.916 293.134 306.193 293.389C310.015 293.389 314.168 294.307 315.544 295.364C316.92 296.422 318.092 299.415 318.207 302.04C318.322 304.664 319.685 307.544 321.265 308.41C322.844 309.276 323.736 314.334 323.239 319.557C323.239 320.156 323.163 320.449 323.099 321.048C322.615 326.271 323.099 332.259 324.373 334.336C325.792 337.476 326.633 340.847 326.857 344.286C327.061 347.675 329.546 350.936 332.387 351.484C335.228 352.032 339.852 349.522 342.668 345.967C345.483 342.413 347.764 336.221 347.624 332.221C347.484 328.221 349.051 323.303 351.038 321.214C353.025 319.124 354.733 313.57 354.86 308.856C354.987 304.142 356.669 298.065 358.682 295.428C360.695 292.791 362.02 289.058 361.714 287.211C361.408 285.363 359.013 283.108 356.414 282.267C353.815 281.427 351.586 279.057 351.484 276.993C351.319 274.751 350.601 272.584 349.395 270.687C348.203 268.781 347.609 266.563 347.687 264.317C347.789 262.24 348.477 260.558 349.203 260.558C349.93 260.558 351.981 263.005 353.764 265.947C355.548 268.89 356.898 272.649 356.796 274.305C356.695 275.961 357.37 277.63 358.313 278C359.255 278.369 362.389 276.84 365.307 274.649C368.224 272.458 368.798 267.438 366.581 263.412C364.364 259.386 364.147 255.947 366.02 255.845C366.892 255.773 367.764 255.981 368.509 256.439C369.253 256.898 369.832 257.582 370.161 258.393C371.231 260.78 372.84 262.886 374.862 264.546C376.934 266.344 379.199 267.907 381.614 269.209C383.156 269.935 384.238 272.598 384.035 275.158C383.831 277.719 386.098 282.42 389.067 285.491C392.035 288.561 395.59 287.249 397.004 282.752L398.533 277.859C399.934 273.4 402.355 270.088 404.024 270.394C405.693 270.699 407.846 273.732 408.967 277.057C409.847 279.957 411.203 282.691 412.98 285.147C414.076 286.268 414.891 285.389 414.789 283.197C414.687 281.006 415.018 279.172 415.515 279.146C416.317 279.298 417.03 279.755 417.503 280.42C418.101 281.146 419.974 280.739 421.656 279.554C423.337 278.369 424.624 274.241 424.535 270.343C424.446 266.444 425.554 262.903 427.083 262.508C427.966 262.126 428.749 261.544 429.368 260.808C429.987 260.072 430.426 259.201 430.65 258.265C430.827 257.066 430.761 255.843 430.454 254.669C430.148 253.496 429.608 252.396 428.867 251.437C427.402 249.589 426.917 246.71 427.797 245.13C428.676 243.551 430.051 242.366 430.829 242.468C431.606 242.57 433.606 239.754 435.249 236.378C436.523 233.741 437.173 232.454 438.447 229.919C440.091 226.696 442.205 224.823 443.161 225.651C444.26 226.782 444.884 228.291 444.906 229.868C444.906 230.61 445.06 231.344 445.358 232.024C445.656 232.704 446.093 233.315 446.639 233.817C447.594 234.492 449.314 233.257 450.461 231.18C451.414 229.668 452.727 228.416 454.283 227.536C460.182 248.499 461.144 270.544 457.092 291.941C453.04 313.339 444.085 333.506 430.93 350.86C417.774 368.215 400.776 382.285 381.269 391.967C361.762 401.648 340.277 406.678 318.5 406.661Z" fill="#407BFF"/>
<path d="M267.018 181.761L266.648 181.532C263.119 179.404 257.004 179.506 253.042 181.659C250.596 182.933 249.36 183.672 246.927 185.035C242.99 187.227 239.78 190.131 239.78 191.405C239.988 193.438 240.553 195.417 241.448 197.253C242.376 199.276 242.694 201.524 242.366 203.725C241.958 205.33 243.296 206.732 245.334 206.884C247.896 207.328 250.209 208.686 251.844 210.706C253.173 212.513 254.922 213.97 256.94 214.949C258.214 215.306 260.444 212.745 262.036 209.229C263.842 205.389 266.633 202.096 270.126 199.686C271.57 198.809 272.742 197.547 273.509 196.042C274.277 194.537 274.609 192.847 274.471 191.163C273.91 188.195 270.547 183.901 267.018 181.761Z" fill="#407BFF"/>
<path d="M364.16 316.831C363.482 316.399 362.707 316.145 361.905 316.092C361.383 316.092 360.185 317.684 359.255 319.531C358.183 321.99 357.603 324.634 357.548 327.316C357.456 329.441 357.894 331.555 358.822 333.469C359.089 333.905 359.517 334.218 360.013 334.34C360.51 334.462 361.034 334.382 361.472 334.119C362.198 333.545 363.383 329.583 364.109 325.341C364.835 321.098 364.899 317.226 364.16 316.831Z" fill="#407BFF"/>
<path d="M303.441 218.401C304.801 218.593 306.187 218.399 307.442 217.841C308.601 217.293 309.544 214.821 309.544 212.337C309.544 209.853 308.856 207.827 308.015 207.853C307.174 207.878 306.231 208.961 305.926 210.273C305.788 210.899 305.484 211.476 305.047 211.944C304.61 212.412 304.056 212.755 303.441 212.936C302.87 213.101 302.372 213.453 302.025 213.936C301.678 214.419 301.504 215.005 301.53 215.599C301.511 216.208 301.686 216.808 302.029 217.311C302.373 217.815 302.867 218.197 303.441 218.401Z" fill="#407BFF"/>
<path d="M438.256 319.074C439.572 316.934 440.354 314.509 440.537 312.003C440.301 309.246 439.526 306.562 438.256 304.104C436.982 301.645 435.415 299.441 434.727 299.276C434.039 299.11 433.453 299.862 433.453 300.97C433.48 301.205 433.459 301.442 433.393 301.668C433.328 301.895 433.217 302.106 433.069 302.29C432.921 302.474 432.738 302.626 432.531 302.738C432.323 302.851 432.095 302.921 431.861 302.945C430.923 302.915 430.023 302.564 429.313 301.951C428.829 301.429 427.058 301.492 425.389 302.117C423.503 302.89 421.88 304.191 420.713 305.862C419.432 307.719 417.847 309.347 416.025 310.678C414.33 311.876 413.107 315.468 413.298 318.64C413.49 321.813 414.967 324.08 416.56 323.736L421.974 322.361C423.338 321.989 424.785 322.065 426.102 322.577C427.942 323.174 429.889 323.365 431.81 323.138C433.104 322.933 434.343 322.467 435.451 321.768C436.559 321.07 437.513 320.153 438.256 319.074Z" fill="#407BFF"/>
<path d="M439.11 258.864C439.887 258.864 441.543 257.131 442.791 255.042C444.143 252.372 444.688 249.366 444.358 246.391C443.976 243.703 442.957 240.989 442.091 240.378C441.665 240.073 441.173 239.872 440.655 239.793C440.137 239.713 439.608 239.756 439.11 239.919C438.332 240.289 438.103 241.703 438.575 243.041C439.046 244.378 438.575 247.5 437.53 250.06C436.485 252.621 436.065 255.704 436.651 256.825C436.883 257.327 437.224 257.77 437.649 258.123C438.075 258.475 438.574 258.729 439.11 258.864Z" fill="#407BFF"/>
<path d="M445.403 314.461C444.83 315.493 443.887 317.29 443.314 318.436C442.031 320.533 440.565 322.511 438.931 324.348C437.097 326.463 435.899 328.934 436.294 329.788C436.689 330.641 438.269 330.832 439.81 330.208C441.352 329.584 443.161 327.138 443.836 324.794C444.575 322.295 445.753 319.948 447.314 317.863C448.588 316.398 448.856 314.64 448.002 313.926C447.809 313.755 447.58 313.632 447.331 313.565C447.082 313.498 446.821 313.491 446.569 313.543C446.316 313.595 446.079 313.705 445.877 313.864C445.675 314.024 445.513 314.228 445.403 314.461Z" fill="#407BFF"/>
<g opacity="0.7">
<path d="M318.5 112.176C288.115 112.176 258.411 121.186 233.147 138.067C207.882 154.949 188.191 178.943 176.563 207.015C164.935 235.088 161.892 265.978 167.82 295.779C173.748 325.581 188.38 352.956 209.866 374.441C231.352 395.927 258.726 410.559 288.528 416.487C318.33 422.415 349.22 419.372 377.292 407.744C405.365 396.116 429.359 376.425 446.24 351.16C463.121 325.896 472.132 296.193 472.132 265.807C472.132 225.062 455.946 185.985 427.134 157.173C398.323 128.362 359.246 112.176 318.5 112.176ZM318.5 406.661C296.937 406.645 275.665 401.683 256.321 392.155C236.977 382.628 220.076 368.791 206.919 351.707C193.762 334.623 184.699 314.749 180.428 293.613C176.158 272.477 176.792 250.643 182.284 229.791C182.855 229.576 183.37 229.236 183.791 228.795C184.212 228.354 184.529 227.823 184.717 227.243C184.908 226.109 187.265 224.695 189.89 224.122C192.514 223.549 195.47 224.046 196.349 225.192C197.328 226.735 197.776 228.556 197.623 230.377C197.586 231.126 197.357 231.852 196.957 232.486C196.558 233.119 196.002 233.639 195.342 233.996C194.285 234.301 193.126 237.703 192.794 241.538C192.794 241.958 192.794 242.162 192.705 242.582C192.349 246.404 193.546 250.736 195.368 252.316C197.19 253.895 198.222 256.329 197.648 257.628C197.075 258.928 199.432 260.571 202.935 261.45C206.439 262.329 209.305 263.45 209.305 263.998C209.305 264.546 210.427 265.272 211.853 265.705C212.592 265.994 213.244 266.468 213.746 267.081C214.248 267.695 214.584 268.428 214.72 269.209C214.911 270.699 215.892 271.426 216.873 270.814C217.295 270.504 217.808 270.343 218.332 270.356C218.856 270.37 219.36 270.558 219.765 270.891C220.084 271.424 220.283 272.021 220.347 272.64C220.411 273.258 220.338 273.883 220.134 274.471C219.99 275.047 219.72 275.585 219.343 276.045C218.966 276.506 218.493 276.877 217.956 277.133C217.166 277.299 216.516 278.93 216.516 280.764C216.516 282.599 218.058 285.707 219.943 287.733C221.829 289.759 222.899 292.969 222.3 294.765C221.702 296.562 222.925 299.326 225.027 300.957C227.129 302.588 228.849 307.658 228.849 312.194V321.112C228.849 325.647 229.677 330.195 230.683 331.227C231.237 331.979 231.635 332.834 231.854 333.742C232.073 334.65 232.108 335.593 231.957 336.514C231.651 338.374 233.384 341.61 235.779 343.763C238.174 345.916 240.697 346.146 241.308 344.286C241.615 343.405 241.673 342.456 241.478 341.544C241.282 340.632 240.84 339.791 240.2 339.113C238.99 338.132 238.072 334.119 238.174 330.195C238.581 325.668 240.651 321.451 243.984 318.36C245.844 316.78 246.774 315.977 248.647 314.334C251.755 311.582 253.985 306.907 253.577 304.066C253.235 300.97 254.102 297.861 255.998 295.39C257.756 293.44 257.667 288.688 255.819 284.93C253.972 281.172 250.519 277.796 248.175 277.363C245.831 276.929 243.907 275.502 243.907 274.19C243.875 273.537 243.592 272.921 243.117 272.47C242.643 272.02 242.014 271.769 241.359 271.77C239.545 271.512 237.896 270.573 236.747 269.145C235.639 267.731 231.409 266.597 227.384 266.597H225.498C221.485 266.597 218.134 265.565 218.045 264.38C217.878 263.677 217.519 263.033 217.009 262.52C216.498 262.008 215.856 261.646 215.153 261.476C214.473 261.329 213.853 260.98 213.373 260.476C212.894 259.971 212.577 259.334 212.465 258.647C212.393 257.984 212.136 257.354 211.724 256.83C211.312 256.305 210.761 255.906 210.134 255.679C208.86 255.22 208.375 253.564 209.063 251.959C210.188 249.971 211.959 248.429 214.083 247.589C216.147 246.774 218.593 247.105 219.485 248.354C220.377 249.602 221.6 250.596 222.198 250.558C222.797 250.519 223.294 249.284 223.294 247.678C223.294 246.073 226.059 242.722 229.486 240.034L229.855 239.741C233.269 237.015 235.843 233.206 235.537 231.397C235.231 229.588 238.276 228.122 242.34 228.237H243.487C247.551 228.364 250.902 225.855 250.902 222.593C250.902 219.332 250.15 216.746 249.22 216.86C248.29 216.975 246.876 215.586 246.06 213.79C245.245 211.994 242.417 211.369 239.767 212.376C237.117 213.382 234.569 214.86 234.059 215.637C233.55 216.414 231.906 216.58 230.403 216.058C228.9 215.535 229.295 213.701 231.307 211.955C233.54 209.868 235.188 207.233 236.085 204.311C236.696 201.878 233.868 200.235 229.842 200.795L226.925 201.203C222.912 201.802 218.848 203.751 217.854 205.42C216.86 207.089 212.822 208.796 208.936 209.369C201.788 210.339 194.702 211.717 187.711 213.497C198.367 186.893 216.881 164.171 240.783 148.361C264.686 132.55 292.841 124.404 321.493 125.007C350.144 125.611 377.931 134.936 401.147 151.738C424.362 168.541 441.903 192.023 451.429 219.052C448.053 218.16 444.728 216.504 443.696 214.987C442.664 213.471 438.485 210.274 434.651 208.363L430.612 206.286C426.149 204.195 421.354 202.902 416.445 202.464L414.763 202.4C410.84 202.286 405.845 200.069 403.756 197.304C400.765 193.964 396.828 191.614 392.468 190.565C387.602 189.546 385.156 189.074 380.238 188.233C376.11 187.52 371.32 187.928 369.702 189.074C368.084 190.221 366.683 192.119 366.683 193.253C366.683 194.387 364.899 195.725 362.721 196.247C360.542 196.769 358.491 196.591 358.185 195.788C357.879 194.986 355.229 194.119 352.299 193.877C349.369 193.635 346.133 193.419 345.088 193.355C342.122 192.554 339.249 191.444 336.514 190.043C332.845 188.323 327.698 188.17 325.048 189.699C322.017 191.762 319.738 194.752 318.551 198.222C317.608 201.356 317.443 205.331 318.169 207.025C318.534 207.868 319.114 208.599 319.853 209.145C320.591 209.691 321.46 210.032 322.373 210.134C323.121 210.158 323.857 209.944 324.475 209.523C325.094 209.101 325.562 208.494 325.813 207.789C326.011 207.091 326.349 206.441 326.807 205.878C327.265 205.315 327.832 204.851 328.475 204.515C329.635 204.006 330.756 206.286 330.96 209.547C331.008 211.251 330.567 212.933 329.688 214.394C328.81 215.855 327.531 217.034 326.004 217.79C323.061 219.064 320.398 218.631 320.08 216.797C319.97 215.94 319.627 215.13 319.088 214.456C318.548 213.782 317.834 213.269 317.022 212.975C315.659 212.72 314.551 214.249 314.551 216.312C314.531 217.371 314.217 218.402 313.643 219.291C313.069 220.181 312.258 220.892 311.302 221.345C309.409 222.104 307.804 223.441 306.716 225.167C305.977 226.727 305.841 228.506 306.333 230.161C306.868 231.435 305.926 232.543 304.244 232.569C302.562 232.594 301.53 234.849 301.951 237.588C302.371 240.327 304.091 242.531 305.773 242.519C306.577 242.515 307.359 242.259 308.008 241.785C308.658 241.312 309.142 240.646 309.391 239.881C309.593 239.142 310.048 238.496 310.676 238.057C311.304 237.617 312.067 237.411 312.831 237.474C314.504 237.572 316.167 237.154 317.595 236.276C318.653 235.486 320.373 236.123 321.417 237.703C322.478 239.318 322.888 241.276 322.564 243.181C322.144 244.621 322.921 245.156 324.284 244.379C325.647 243.602 326.246 241.143 325.622 238.913C324.997 236.684 324.985 234.543 325.622 234.148C326.259 233.753 327.966 235.422 329.444 237.754C330.922 240.085 333.406 241.423 334.973 240.659C336.54 239.894 338.948 240.799 340.311 242.633C341.667 244.471 342.343 246.723 342.222 249.003C341.903 250.685 338.82 252.825 335.355 253.908C331.89 254.991 327.431 254.915 325.443 253.908C323.366 252.78 321.696 251.029 320.666 248.901C320.042 247.207 317.111 245.704 314.181 245.576C311.251 245.449 306.142 248.124 302.855 251.36L299.556 254.66C296.269 257.947 293.326 263.055 293.02 266.037C292.714 269.018 291.924 271.872 291.3 272.407C290.676 272.942 290.166 275.668 290.166 278.509C290.166 281.35 292.217 285.835 294.727 288.472C297.861 291.395 301.916 293.134 306.193 293.389C310.015 293.389 314.168 294.307 315.544 295.364C316.92 296.422 318.092 299.415 318.207 302.04C318.322 304.664 319.685 307.544 321.265 308.41C322.844 309.276 323.736 314.334 323.239 319.557C323.239 320.156 323.163 320.449 323.099 321.048C322.615 326.271 323.099 332.259 324.373 334.336C325.792 337.476 326.633 340.847 326.857 344.286C327.061 347.675 329.546 350.936 332.387 351.484C335.228 352.032 339.852 349.522 342.668 345.967C345.483 342.413 347.764 336.221 347.624 332.221C347.484 328.221 349.051 323.303 351.038 321.214C353.025 319.124 354.733 313.57 354.86 308.856C354.987 304.142 356.669 298.065 358.682 295.428C360.695 292.791 362.02 289.058 361.714 287.211C361.408 285.363 359.013 283.108 356.414 282.267C353.815 281.427 351.586 279.057 351.484 276.993C351.319 274.751 350.601 272.584 349.395 270.687C348.203 268.781 347.609 266.563 347.687 264.317C347.789 262.24 348.477 260.558 349.203 260.558C349.93 260.558 351.981 263.005 353.764 265.947C355.548 268.89 356.898 272.649 356.796 274.305C356.695 275.961 357.37 277.63 358.313 278C359.255 278.369 362.389 276.84 365.307 274.649C368.224 272.458 368.798 267.438 366.581 263.412C364.364 259.386 364.147 255.947 366.02 255.845C366.892 255.773 367.764 255.981 368.509 256.439C369.253 256.898 369.832 257.582 370.161 258.393C371.231 260.78 372.84 262.886 374.862 264.546C376.934 266.344 379.199 267.907 381.614 269.209C383.156 269.935 384.238 272.598 384.035 275.158C383.831 277.719 386.098 282.42 389.067 285.491C392.035 288.561 395.59 287.249 397.004 282.752L398.533 277.859C399.934 273.4 402.355 270.088 404.024 270.394C405.693 270.699 407.846 273.732 408.967 277.057C409.847 279.957 411.203 282.691 412.98 285.147C414.076 286.268 414.891 285.389 414.789 283.197C414.687 281.006 415.018 279.172 415.515 279.146C416.317 279.298 417.03 279.755 417.503 280.42C418.101 281.146 419.974 280.739 421.656 279.554C423.337 278.369 424.624 274.241 424.535 270.343C424.446 266.444 425.554 262.903 427.083 262.508C427.966 262.126 428.749 261.544 429.368 260.808C429.987 260.072 430.426 259.201 430.65 258.265C430.827 257.066 430.761 255.843 430.454 254.669C430.148 253.496 429.608 252.396 428.867 251.437C427.402 249.589 426.917 246.71 427.797 245.13C428.676 243.551 430.051 242.366 430.829 242.468C431.606 242.57 433.606 239.754 435.249 236.378C436.523 233.741 437.173 232.454 438.447 229.919C440.091 226.696 442.205 224.823 443.161 225.651C444.26 226.782 444.884 228.291 444.906 229.868C444.906 230.61 445.06 231.344 445.358 232.024C445.656 232.704 446.093 233.315 446.639 233.817C447.594 234.492 449.314 233.257 450.461 231.18C451.414 229.668 452.727 228.416 454.283 227.536C460.182 248.499 461.144 270.544 457.092 291.941C453.04 313.339 444.085 333.506 430.93 350.86C417.774 368.215 400.776 382.285 381.269 391.967C361.762 401.648 340.277 406.678 318.5 406.661Z" fill="#C4FFBB"/>
<path d="M267.018 181.761L266.648 181.532C263.119 179.404 257.004 179.506 253.042 181.659C250.596 182.933 249.36 183.672 246.927 185.035C242.99 187.227 239.78 190.131 239.78 191.405C239.988 193.438 240.553 195.417 241.448 197.253C242.376 199.276 242.694 201.524 242.366 203.725C241.958 205.33 243.296 206.732 245.334 206.884C247.896 207.328 250.209 208.686 251.844 210.706C253.173 212.513 254.922 213.97 256.94 214.949C258.214 215.306 260.444 212.745 262.036 209.229C263.842 205.389 266.633 202.096 270.126 199.686C271.57 198.809 272.742 197.547 273.509 196.042C274.277 194.537 274.609 192.847 274.471 191.163C273.91 188.195 270.547 183.901 267.018 181.761Z" fill="white"/>
<path d="M364.16 316.831C363.482 316.399 362.707 316.145 361.905 316.092C361.383 316.092 360.185 317.684 359.255 319.531C358.183 321.99 357.603 324.634 357.548 327.316C357.456 329.441 357.894 331.555 358.822 333.469C359.089 333.905 359.517 334.218 360.013 334.34C360.51 334.462 361.034 334.382 361.472 334.119C362.198 333.545 363.383 329.583 364.109 325.341C364.835 321.098 364.899 317.226 364.16 316.831Z" fill="white"/>
<path d="M303.441 218.401C304.801 218.593 306.187 218.399 307.442 217.841C308.601 217.293 309.544 214.821 309.544 212.337C309.544 209.853 308.856 207.827 308.015 207.853C307.174 207.878 306.231 208.961 305.926 210.273C305.788 210.899 305.484 211.476 305.047 211.944C304.61 212.412 304.056 212.755 303.441 212.936C302.87 213.101 302.372 213.453 302.025 213.936C301.678 214.419 301.504 215.005 301.53 215.599C301.511 216.208 301.686 216.808 302.029 217.311C302.373 217.815 302.867 218.197 303.441 218.401Z" fill="white"/>
<path d="M438.256 319.074C439.572 316.934 440.354 314.509 440.537 312.003C440.301 309.246 439.526 306.562 438.256 304.104C436.982 301.645 435.415 299.441 434.727 299.276C434.039 299.11 433.453 299.862 433.453 300.97C433.48 301.205 433.459 301.442 433.393 301.668C433.328 301.895 433.217 302.106 433.069 302.29C432.921 302.474 432.738 302.626 432.531 302.738C432.323 302.851 432.095 302.921 431.861 302.945C430.923 302.915 430.023 302.564 429.313 301.951C428.829 301.429 427.058 301.492 425.389 302.117C423.503 302.89 421.88 304.191 420.713 305.862C419.432 307.719 417.847 309.347 416.025 310.678C414.33 311.876 413.107 315.468 413.298 318.64C413.49 321.813 414.967 324.08 416.56 323.736L421.974 322.361C423.338 321.989 424.785 322.065 426.102 322.577C427.942 323.174 429.889 323.365 431.81 323.138C433.104 322.933 434.343 322.467 435.451 321.768C436.559 321.07 437.513 320.153 438.256 319.074Z" fill="white"/>
<path d="M439.11 258.864C439.887 258.864 441.543 257.131 442.791 255.042C444.143 252.372 444.688 249.366 444.358 246.391C443.976 243.703 442.957 240.989 442.091 240.378C441.665 240.073 441.173 239.872 440.655 239.793C440.137 239.713 439.608 239.756 439.11 239.919C438.332 240.289 438.103 241.703 438.575 243.041C439.046 244.378 438.575 247.5 437.53 250.06C436.485 252.621 436.065 255.704 436.651 256.825C436.883 257.327 437.224 257.77 437.649 258.123C438.075 258.475 438.574 258.729 439.11 258.864Z" fill="white"/>
<path d="M445.403 314.461C444.83 315.493 443.887 317.29 443.314 318.436C442.031 320.533 440.565 322.511 438.931 324.348C437.097 326.463 435.899 328.934 436.294 329.788C436.689 330.641 438.269 330.832 439.81 330.208C441.352 329.584 443.161 327.138 443.836 324.794C444.575 322.295 445.753 319.948 447.314 317.863C448.588 316.398 448.856 314.64 448.002 313.926C447.809 313.755 447.58 313.632 447.331 313.565C447.082 313.498 446.821 313.491 446.569 313.543C446.316 313.595 446.079 313.705 445.877 313.864C445.675 314.024 445.513 314.228 445.403 314.461Z" fill="white"/>
</g>
<path d="M343.458 497.65L344.795 515.499H336.871L332.973 498.287L343.458 497.65Z" fill="#B55B52"/>
<path d="M345.139 514.518H335.406C335.311 514.516 335.216 514.534 335.127 514.568C335.038 514.603 334.957 514.656 334.889 514.722C334.82 514.788 334.765 514.867 334.727 514.955C334.689 515.042 334.669 515.136 334.667 515.232L332.973 524.595C332.981 525.013 333.13 525.415 333.396 525.736C333.662 526.058 334.029 526.28 334.438 526.366H334.756C338.769 526.226 342.311 525.946 347.331 525.857C353.242 525.768 351.879 526.494 358.797 526.481C363.001 526.481 362.848 521.665 361.026 521.461C352.694 520.582 351.369 518.136 347.675 515.27C346.933 514.752 346.043 514.489 345.139 514.518Z" fill="#263238"/>
<path d="M332.514 333.139L346.248 511.741L334.514 512.327C334.514 512.327 322.691 470.285 320.5 444.677C320.347 442.907 320.245 441.225 320.194 439.581C320.003 432.119 319.151 424.688 317.646 417.376L317.099 414.828L309.455 378.952C309.455 378.952 297.823 359.472 304.422 332.285L332.514 333.139Z" fill="#263238"/>
<path opacity="0.4" d="M313.404 397.947C317.29 378.391 315.34 355.179 315.34 355.179L309.582 357.485L305.76 368.288C305.76 368.288 305.76 369.155 305.76 370.594C306.69 373.502 307.897 376.313 309.365 378.99L313.404 397.947Z" fill="black"/>
<path d="M289.771 497.65L287.16 515.499H279.235L279.273 498.287L289.771 497.65Z" fill="#B55B52"/>
<path d="M287.822 514.518H278.101C278.006 514.516 277.911 514.533 277.823 514.568C277.734 514.603 277.653 514.655 277.584 514.722C277.516 514.788 277.461 514.867 277.423 514.955C277.385 515.042 277.364 515.136 277.363 515.231L275.655 524.595C275.664 525.014 275.815 525.418 276.084 525.74C276.353 526.062 276.723 526.283 277.133 526.366C277.239 526.379 277.346 526.379 277.452 526.366C281.465 526.226 285.007 525.946 290.013 525.857C295.937 525.767 294.574 526.494 301.543 526.481C305.747 526.481 305.582 521.665 303.76 521.461C295.428 520.582 294.116 518.136 290.408 515.27C289.653 514.74 288.744 514.475 287.822 514.518Z" fill="#263238"/>
<path d="M321.481 333.139L309.149 391.539L289.669 512.034L277.987 511.524C277.987 511.524 275.439 472.68 278.917 446.818C279.197 444.779 279.516 442.817 279.872 440.957C281.592 432.337 282.446 423.567 282.42 414.777V412.229L282.064 378.977C282.064 378.977 279.643 353.752 286.357 332.311L321.481 333.139Z" fill="#263238"/>
<path opacity="0.4" d="M332.514 333.139L304.346 332.323C304.346 332.464 304.282 332.604 304.257 332.744L286.319 332.323C284.256 339.191 282.903 346.252 282.28 353.395L308.079 357.064C309.496 357.268 310.938 356.949 312.137 356.165C313.335 355.382 314.207 354.189 314.589 352.809L317.137 343.471L319.685 352.771C320.062 354.124 320.939 355.284 322.137 356.017C323.336 356.749 324.767 357.001 326.144 356.72L334.183 355.077L332.514 333.139Z" fill="black"/>
<path d="M367.855 292.842L375.142 293.212C376.644 292.482 378.194 291.852 379.779 291.326C381.053 291.046 383.882 290.358 384.977 291.059C385.671 291.738 386.215 292.555 386.575 293.456C386.935 294.358 387.102 295.325 387.067 296.295C386.697 298.091 383.703 301.174 381.894 301.544C380.085 301.913 374.645 298.601 374.645 298.601L367.192 298.525L367.855 292.842Z" fill="#B55B52"/>
<path d="M366.428 291.771L372.645 292.523L370.938 299.301L364.721 299.224L366.428 291.771Z" fill="#407BFF"/>
<path opacity="0.8" d="M366.428 291.771L372.645 292.523L370.938 299.301L364.721 299.224L366.428 291.771Z" fill="white"/>
<path d="M326.042 241.945C326.042 241.945 331.482 244.493 339.712 267.706C346.936 288.09 369.269 291.427 369.269 291.427L367.358 300.001C367.358 300.001 336.782 300.524 331.176 277.299C325.571 254.074 326.042 241.945 326.042 241.945Z" fill="#263238"/>
<path opacity="0.4" d="M331.24 277.299C332.147 281.232 333.987 284.89 336.604 287.963C336.227 277.73 334.81 267.562 332.374 257.616L328.31 258.686L328.03 261.731C328.692 266.19 329.749 271.362 331.24 277.299Z" fill="black"/>
<path d="M282.038 305.76L279.337 349.293L308.053 353.37C309.47 353.574 310.913 353.254 312.111 352.471C313.31 351.687 314.181 350.494 314.563 349.115L317.111 339.776L319.659 349.076C320.029 350.439 320.905 351.608 322.107 352.347C323.31 353.086 324.749 353.337 326.131 353.051L337.037 350.835L335.062 305.76C335.062 305.76 336.642 264.789 330.501 247.449C329.905 245.754 328.893 244.236 327.557 243.034C326.222 241.832 324.605 240.985 322.857 240.57C307.812 237.139 292.08 238.343 277.732 244.022C276.84 244.374 276.09 245.01 275.599 245.833C275.108 246.656 274.904 247.619 275.018 248.571L282.038 305.76Z" fill="#263238"/>
<path opacity="0.4" d="M280.841 296.078C283.037 281.52 282.908 266.706 280.458 252.188L277.757 252.724L276.458 260.176L280.841 296.078Z" fill="black"/>
<path d="M277.12 332.132L278.904 340.591C280.326 342.107 281.646 343.715 282.853 345.407C283.631 346.783 285.401 349.853 284.828 351.306C284.255 352.758 280.446 355.051 278.522 355.128C275.974 355.204 270.993 352.58 269.935 350.618C268.878 348.656 271.591 341.496 271.591 341.496L269.362 332.934L277.12 332.132Z" fill="#B55B52"/>
<path d="M277.91 327.75L279.439 337.381L269.413 339.038L267.018 329.279L277.91 327.75Z" fill="#407BFF"/>
<path opacity="0.8" d="M277.91 327.75L279.439 337.381L269.413 339.038L267.018 329.279L277.91 327.75Z" fill="white"/>
<path d="M267.54 336.133C267.54 336.133 261.718 319.775 262.941 293.021C264.164 266.267 272.394 239.844 280.777 244.966C289.16 250.087 279.006 280.281 278.127 294.015C277.248 307.748 279.401 334.26 279.401 334.26L267.54 336.133Z" fill="#263238"/>
<path d="M312.678 286.689C313.339 286.689 313.875 286.153 313.875 285.492C313.875 284.83 313.339 284.294 312.678 284.294C312.016 284.294 311.48 284.83 311.48 285.492C311.48 286.153 312.016 286.689 312.678 286.689Z" fill="#407BFF"/>
<path d="M317.048 311.06C317.017 311.358 316.877 311.634 316.654 311.834C316.432 312.035 316.143 312.146 315.844 312.146C315.544 312.146 315.255 312.035 315.033 311.834C314.81 311.634 314.67 311.358 314.64 311.06C314.622 310.891 314.641 310.721 314.693 310.56C314.746 310.399 314.832 310.251 314.945 310.125C315.058 309.999 315.197 309.899 315.352 309.83C315.507 309.761 315.674 309.726 315.844 309.726C316.013 309.726 316.181 309.761 316.335 309.83C316.49 309.899 316.629 309.999 316.742 310.125C316.856 310.251 316.941 310.399 316.994 310.56C317.047 310.721 317.065 310.891 317.048 311.06Z" fill="#407BFF"/>
<path d="M317.048 335.687C317.709 335.687 318.245 335.151 318.245 334.49C318.245 333.828 317.709 333.292 317.048 333.292C316.386 333.292 315.85 333.828 315.85 334.49C315.85 335.151 316.386 335.687 317.048 335.687Z" fill="#407BFF"/>
<path d="M329.316 267.234H319.952V272.891H329.316V267.234Z" fill="#407BFF"/>
<path opacity="0.4" d="M329.316 269.082H319.952V272.891H329.316V269.082Z" fill="white"/>
<path opacity="0.4" d="M329.316 270.827H319.952V272.891H329.316V270.827Z" fill="white"/>
<path d="M294.549 238.162C299.147 236.448 304.143 236.103 308.932 237.168L311.888 238.837L312.92 242.124L309.187 245.054L300.358 245.959L293.02 242.939L293.428 239.704L294.549 238.162Z" fill="#263238"/>
<path d="M310.397 239.857C309.418 238.724 308.713 237.381 308.337 235.931C307.961 234.482 307.925 232.965 308.232 231.499L295.02 220.798C296.536 232.264 296.664 235.602 294.001 240.736C294.001 240.736 298.778 245.832 305.467 244.647C312.155 243.462 310.397 239.857 310.397 239.857Z" fill="#B55B52"/>
<path opacity="0.2" d="M308.232 231.499L295.02 220.798C295.364 223.346 295.632 225.55 295.81 227.423C296.906 229.836 298.66 231.892 300.87 233.354C303.081 234.816 305.658 235.626 308.308 235.691C307.952 234.319 307.926 232.883 308.232 231.499Z" fill="black"/>
<path d="M303.429 198.146C303.429 198.146 308.13 193.738 311.187 195.088C314.245 196.439 308.244 197.33 308.244 197.33C308.244 197.33 318.92 196.349 315.137 205.981L303.429 198.146Z" fill="#263238"/>
<path d="M292.803 212.351C294.663 220.886 295.351 225.97 300.371 229.703C307.951 235.346 317.965 229.703 318.678 220.785C319.315 212.72 316.13 200.159 307.212 198.044C305.238 197.563 303.173 197.596 301.215 198.141C299.257 198.685 297.471 199.723 296.029 201.154C294.586 202.585 293.534 204.363 292.974 206.316C292.414 208.27 292.364 210.334 292.829 212.312L292.803 212.351Z" fill="#B55B52"/>
<path d="M306.664 212.758C306.779 213.459 307.238 213.969 307.696 213.892C308.155 213.816 308.435 213.204 308.321 212.491C308.206 211.777 307.747 211.293 307.289 211.357C306.83 211.421 306.55 212.045 306.664 212.758Z" fill="#263238"/>
<path d="M314.589 211.484C314.703 212.185 315.149 212.695 315.621 212.618C316.092 212.542 316.36 211.918 316.245 211.23C316.13 210.542 315.672 209.956 315.213 210.083C314.754 210.21 314.474 210.809 314.589 211.484Z" fill="#263238"/>
<path d="M311.684 212.236C312.859 214.245 314.303 216.084 315.977 217.702C315.549 218.118 315.036 218.437 314.473 218.637C313.91 218.837 313.311 218.914 312.716 218.861L311.684 212.236Z" fill="#A02724"/>
<path d="M303.429 209.88C303.357 209.892 303.284 209.892 303.212 209.88C303.119 209.824 303.051 209.735 303.02 209.632C302.99 209.528 302.999 209.416 303.046 209.319C303.347 208.73 303.784 208.221 304.32 207.833C304.856 207.446 305.476 207.191 306.13 207.09C306.185 207.085 306.24 207.091 306.293 207.107C306.346 207.123 306.395 207.15 306.438 207.186C306.481 207.221 306.516 207.265 306.542 207.314C306.567 207.363 306.583 207.417 306.588 207.472C306.593 207.527 306.587 207.583 306.571 207.636C306.554 207.689 306.528 207.738 306.492 207.78C306.457 207.823 306.413 207.858 306.364 207.884C306.315 207.91 306.261 207.925 306.206 207.93C305.689 208.013 305.2 208.218 304.779 208.528C304.358 208.838 304.017 209.245 303.785 209.714C303.743 209.768 303.689 209.811 303.627 209.84C303.565 209.868 303.497 209.882 303.429 209.88Z" fill="#263238"/>
<path d="M317.226 207.828C317.156 207.833 317.086 207.819 317.023 207.787C316.961 207.756 316.908 207.708 316.869 207.65C316.589 207.22 316.213 206.861 315.771 206.6C315.329 206.34 314.833 206.184 314.321 206.146C314.267 206.15 314.212 206.142 314.16 206.124C314.109 206.106 314.061 206.078 314.021 206.041C313.98 206.004 313.948 205.959 313.925 205.91C313.902 205.86 313.89 205.806 313.888 205.751C313.888 205.641 313.93 205.534 314.006 205.454C314.082 205.373 314.185 205.325 314.296 205.318C314.958 205.34 315.606 205.521 316.184 205.844C316.763 206.168 317.255 206.625 317.621 207.178C317.683 207.267 317.708 207.376 317.691 207.483C317.674 207.59 317.617 207.686 317.532 207.752C317.492 207.79 317.443 207.817 317.389 207.83C317.335 207.844 317.279 207.843 317.226 207.828Z" fill="#263238"/>
<path d="M320.755 220.797C320.003 220.53 319.608 222.505 317.608 220.441C316.991 219.862 316.213 219.483 315.376 219.353C314.54 219.224 313.684 219.349 312.92 219.714C311.136 218.517 308.639 219.893 306.55 220.428C304.461 220.963 303.531 220.81 302.639 220.428C299.148 218.912 299.008 218.784 298.524 217.638C297.25 214.644 294.969 207.93 296.778 204.783C296.778 204.783 310.716 199.917 303.148 194.018C301.237 192.54 288.803 187.329 295.568 196.031C295.568 196.031 284.459 196.655 290.65 199.738C290.65 199.738 282.331 202.923 287.72 205.879C287.72 205.879 283.401 210.019 292.459 217.6L295.937 218.084L296.715 218.275L295.441 223.04C295.976 226.976 300.537 230.416 300.537 230.416C301.811 232.9 303.199 231.97 303.199 231.97C303.39 232.285 303.647 232.554 303.952 232.76C304.257 232.966 304.603 233.103 304.967 233.163C305.33 233.222 305.701 233.202 306.056 233.104C306.411 233.006 306.74 232.832 307.021 232.595C308.601 235.678 311.136 231.97 311.136 231.97C311.735 234.302 315.29 229.333 315.29 229.333C316.296 231.206 318.627 223.409 318.627 223.409C320.564 223.04 321.532 221.078 320.755 220.797Z" fill="#263238"/>
<path d="M289.848 221.039C291.291 222.692 293.328 223.708 295.517 223.867C298.422 224.033 299.275 221.319 297.95 218.873C296.765 216.695 293.835 213.968 291.16 214.924C290.578 215.144 290.06 215.506 289.654 215.978C289.248 216.449 288.967 217.015 288.836 217.624C288.706 218.232 288.73 218.864 288.907 219.46C289.083 220.057 289.407 220.6 289.848 221.039Z" fill="#B55B52"/>
<path d="M315.43 221.677C312.609 221.361 309.766 221.284 306.932 221.447C307.76 223.129 309.213 224.467 312.41 224.352C315.608 224.237 315.43 221.677 315.43 221.677Z" fill="#263238"/>
<path d="M310.856 223.065C312.078 222.962 313.303 223.215 314.385 223.791C313.8 224.166 313.118 224.361 312.423 224.352C311.201 224.454 309.976 224.202 308.894 223.626C309.48 223.252 310.161 223.058 310.856 223.065Z" fill="#FF5652"/>
<path d="M315.137 221.676C315.084 221.894 314.969 222.091 314.806 222.245C314.643 222.399 314.44 222.502 314.219 222.542C312.368 222.594 310.515 222.504 308.677 222.275C308.388 222.269 308.104 222.194 307.849 222.057C307.595 221.92 307.376 221.724 307.212 221.485C309.855 221.37 312.503 221.434 315.137 221.676Z" fill="white"/>
<path d="M293.81 249.297L297.313 260.725L305.48 272.522L312.181 279.491L314.691 269.273L313.875 247.959L313.748 243.373L311.875 240.735L308.894 243.347L306.359 244.328L302.651 244.354L292.893 241.385L293.81 249.297Z" fill="#407BFF"/>
<path opacity="0.8" d="M293.81 249.297L297.313 260.725L305.48 272.522L312.181 279.491L314.691 269.273L313.875 247.959L313.748 243.373L311.875 240.735L308.894 243.347L306.359 244.328L302.651 244.354L292.893 241.385L293.81 249.297Z" fill="white"/>
<path d="M301.683 247.959C302.622 249.819 303.921 251.473 305.505 252.826C305.505 252.826 303.874 264.483 306.384 272.65L312.206 279.491L313.901 271.032C313.901 271.032 311.353 257.476 307.811 252.355C308.708 250.592 309.36 248.714 309.748 246.775L307.658 245.055C307.658 245.055 304.753 247.131 303.021 245.692L301.683 247.959Z" fill="#407BFF"/>
<path d="M293.581 239.219C293.581 239.219 298.957 243.806 304.371 243.806C309.786 243.806 310.372 238.162 310.372 238.162L312.652 240.621C312.77 243.48 312.129 246.32 310.792 248.851L305.148 245.029L301.326 250.533C301.326 250.533 295.339 247.653 292.408 242.494L293.581 239.219Z" fill="#407BFF"/>
<path opacity="0.5" d="M293.581 239.219C293.581 239.219 298.957 243.806 304.371 243.806C309.786 243.806 310.372 238.162 310.372 238.162L312.652 240.621C312.77 243.48 312.129 246.32 310.792 248.851L305.148 245.029L301.326 250.533C301.326 250.533 295.339 247.653 292.408 242.494L293.581 239.219Z" fill="white"/>
<path d="M294.549 238.162C294.549 238.162 290.141 251.768 311.875 277.732C311.875 277.732 315.774 245.882 308.932 237.168L313.684 239.041L318.64 246.519L315.009 248.851L319.494 250.851C319.494 250.851 318.857 261.157 312.55 280.981C312.55 280.981 298.256 269.935 288.918 255.017L293.262 251.551L287.453 250.634L290.001 240.302L294.549 238.162Z" fill="#263238"/>
<path opacity="0.3" d="M294.549 238.162C294.549 238.162 290.141 251.768 311.875 277.732C311.875 277.732 315.774 245.882 308.932 237.168L313.684 239.041L318.64 246.519L315.009 248.851L319.494 250.851C319.494 250.851 318.857 261.157 312.55 280.981C312.55 280.981 298.256 269.935 288.918 255.017L293.262 251.551L287.453 250.634L290.001 240.302L294.549 238.162Z" fill="black"/>
<path d="M417.324 200.018C417.324 200.018 409.413 191.61 414.203 189.826C418.993 188.042 421.388 182.743 422.993 186.348C424.599 189.953 423.197 195.967 424.433 196.234C425.669 196.502 423.631 184.437 426.981 185.125C430.332 185.813 430.612 187.01 435.517 188.081C440.422 189.151 429.606 197.355 430.803 198.464C432.001 199.572 439.721 190.488 440.282 194.489C440.842 198.489 445.097 200.502 443.225 202.247C441.352 203.993 431.606 204.464 431.606 204.464L420.42 199.61L417.324 200.018Z" fill="#407BFF"/>
<path opacity="0.1" d="M417.337 196.947C415.744 197.457 413.808 194.82 413.018 193.609C414.103 195.95 415.557 198.1 417.324 199.979L420.42 199.61L431.542 204.477C434.103 204.336 436.655 204.055 439.186 203.636C435.683 203.967 432.612 202.196 435.899 201.789C439.186 201.381 438.982 200.12 438.027 198.209C437.071 196.298 434.128 200.489 433.377 199.483C432.625 198.476 436.281 195.062 436.345 195.011C434.026 196.693 431.427 199.1 430.778 198.502C430.128 197.903 433.682 194.59 435.619 191.89C433.899 194.31 430.357 196.463 429.325 195.622C428.293 194.782 430.536 193.202 431.389 191.507C432.243 189.813 430.446 189.189 428.319 188.361C426.191 187.533 428.395 194.501 426.535 194.221C424.675 193.941 425.261 187.456 425.261 187.418C424.701 190.743 425.401 196.4 424.561 196.221C423.49 195.992 424.395 191.456 423.618 187.902C423.618 188.017 424.013 195.062 421.872 195.622C419.732 196.183 419.414 189.851 416.866 191.992C414.318 194.132 419.388 196.298 417.337 196.947Z" fill="black"/>
<path d="M432.523 240.353C432.366 240.419 432.196 240.448 432.026 240.44C431.856 240.432 431.69 240.386 431.54 240.305C431.39 240.225 431.259 240.112 431.158 239.975C431.057 239.838 430.988 239.68 430.956 239.512C429.338 233.588 431.338 224.67 432.65 219.523L418.076 229.715C418.853 233.142 419.108 237.359 417.133 240.239C416.828 240.658 416.433 241.003 415.976 241.247C415.52 241.492 415.014 241.631 414.496 241.653L413.056 241.793C413.056 241.793 412.674 248.303 421.235 248.303C429.797 248.303 432.523 240.353 432.523 240.353Z" fill="#71403E"/>
<path opacity="0.2" d="M418.547 236.06C428.548 237.907 431.504 224.428 431.504 224.428L431.313 223.154L429.567 224.212L418.267 230.773C418.622 232.511 418.716 234.293 418.547 236.06Z" fill="black"/>
<path d="M434.587 213.459C432.638 221.651 431.899 226.543 426.943 230.021C419.528 235.257 409.973 229.575 409.451 220.95C408.967 213.178 412.254 201.088 420.917 199.292C422.842 198.888 424.839 198.981 426.719 199.561C428.599 200.142 430.3 201.192 431.662 202.611C433.024 204.031 434.003 205.774 434.506 207.676C435.009 209.578 435.019 211.577 434.536 213.484L434.587 213.459Z" fill="#71403E"/>
<path d="M416.738 211.242C415.576 213.155 414.152 214.896 412.509 216.414C412.908 216.829 413.393 217.151 413.93 217.358C414.467 217.565 415.043 217.652 415.617 217.612L416.738 211.242Z" fill="#561616"/>
<path d="M424.573 210.21C424.604 210.223 424.636 210.23 424.669 210.23C424.702 210.23 424.734 210.223 424.764 210.21C424.808 210.19 424.846 210.161 424.878 210.125C424.91 210.09 424.934 210.048 424.95 210.003C424.965 209.958 424.971 209.91 424.968 209.862C424.964 209.815 424.952 209.768 424.93 209.726C424.667 209.192 424.275 208.731 423.791 208.384C423.306 208.037 422.743 207.815 422.153 207.738C422.105 207.733 422.056 207.738 422.01 207.752C421.964 207.766 421.921 207.789 421.884 207.82C421.848 207.851 421.817 207.889 421.796 207.932C421.774 207.975 421.761 208.022 421.758 208.07C421.752 208.118 421.757 208.166 421.771 208.212C421.785 208.258 421.808 208.301 421.839 208.338C421.87 208.375 421.908 208.405 421.951 208.427C421.994 208.449 422.041 208.462 422.089 208.465C422.548 208.531 422.985 208.707 423.362 208.977C423.739 209.248 424.045 209.605 424.255 210.019C424.285 210.077 424.331 210.125 424.387 210.159C424.443 210.193 424.508 210.21 424.573 210.21Z" fill="#2E353A"/>
<path d="M412.152 208.363C412.214 208.362 412.276 208.347 412.331 208.318C412.386 208.289 412.434 208.248 412.47 208.197C412.735 207.795 413.089 207.46 413.504 207.217C413.92 206.974 414.385 206.83 414.865 206.796C414.915 206.79 414.963 206.774 415.006 206.748C415.049 206.722 415.086 206.688 415.115 206.647C415.144 206.606 415.163 206.56 415.173 206.511C415.183 206.462 415.182 206.411 415.171 206.363C415.157 206.287 415.12 206.217 415.066 206.162C415.011 206.108 414.941 206.071 414.865 206.057C414.266 206.088 413.683 206.261 413.163 206.559C412.643 206.858 412.201 207.275 411.872 207.777C411.842 207.815 411.821 207.858 411.808 207.905C411.796 207.952 411.794 208 411.801 208.048C411.808 208.095 411.825 208.141 411.85 208.182C411.875 208.223 411.909 208.258 411.948 208.286C411.975 208.312 412.007 208.332 412.042 208.345C412.077 208.358 412.114 208.364 412.152 208.363Z" fill="#2E353A"/>
<path d="M437.097 222.287C436.446 223.109 435.639 223.794 434.723 224.303C433.807 224.812 432.8 225.136 431.759 225.256C428.969 225.549 428.013 222.937 429.211 220.542C430.243 218.376 432.943 215.637 435.581 216.453C436.147 216.644 436.657 216.974 437.064 217.412C437.471 217.85 437.763 218.382 437.914 218.961C438.064 219.54 438.068 220.147 437.926 220.727C437.783 221.308 437.498 221.844 437.097 222.287Z" fill="#71403E"/>
<path d="M419.77 198.744C420.259 198.332 420.854 198.066 421.487 197.976C422.12 197.886 422.766 197.975 423.35 198.234C423.35 198.234 424.102 197.164 427.007 198.744C429.911 200.323 435.861 203.916 435.925 206.082C435.925 206.082 437.657 208.286 435.861 209.751C435.861 209.751 429.363 207.407 426.943 205.356C424.522 203.305 420.904 199.291 420.904 199.291L419.77 198.744Z" fill="#407BFF"/>
<path opacity="0.2" d="M419.77 198.744C420.259 198.332 420.854 198.066 421.487 197.976C422.12 197.886 422.766 197.975 423.35 198.234C423.35 198.234 424.102 197.164 427.007 198.744C429.911 200.323 435.861 203.916 435.925 206.082C435.925 206.082 437.657 208.286 435.861 209.751C435.861 209.751 429.363 207.407 426.943 205.356C424.522 203.305 420.904 199.291 420.904 199.291L419.77 198.744Z" fill="black"/>
<path d="M433.606 217.624C433.606 217.624 423.669 209.305 421.032 200.986C421.032 200.986 417.923 199.368 412.292 206.782C412.292 206.782 411.604 202.718 414.063 201.61C414.331 200.717 414.856 199.922 415.571 199.324C416.287 198.727 417.162 198.352 418.089 198.247C419.657 198 421.263 198.273 422.662 199.024L435.899 209.725C436.357 210.323 436.605 211.055 436.605 211.808C436.605 212.561 436.357 213.293 435.899 213.891C435.899 213.891 437.53 216.58 433.606 217.624Z" fill="#407BFF"/>
<path opacity="0.1" d="M422.548 201.547C422.548 201.547 429.185 211.089 434.587 213.459C434.587 213.459 427.007 203.967 422.548 201.547Z" fill="black"/>
<path d="M415.592 219.268C416.556 218.709 417.646 218.403 418.76 218.381C419.874 218.359 420.976 218.62 421.962 219.141C422.863 219.687 423.908 219.949 424.96 219.893C426.013 219.836 427.023 219.463 427.86 218.822C427.86 218.822 427.045 221.816 424.369 221.561C424.369 221.561 424.369 230.365 422.14 227.817C422.14 227.817 420.993 233.282 419.235 230.123C419.235 230.123 418.611 234.403 416.687 229.282C416.687 229.282 415.502 232.212 414.572 226.734C414.572 226.734 413.235 230.912 412.61 222.249C412.61 222.249 411.158 222.835 410.598 220.797C411.08 220.92 411.592 220.858 412.031 220.622C412.47 220.386 412.804 219.994 412.967 219.523C413.591 217.854 415.592 219.268 415.592 219.268Z" fill="#263238"/>
<path opacity="0.4" d="M415.592 219.268C416.556 218.709 417.646 218.403 418.76 218.381C419.874 218.359 420.976 218.62 421.962 219.141C422.863 219.687 423.908 219.949 424.96 219.893C426.013 219.836 427.023 219.463 427.86 218.822C427.86 218.822 427.045 221.816 424.369 221.561C424.369 221.561 424.369 230.365 422.14 227.817C422.14 227.817 420.993 233.282 419.235 230.123C419.235 230.123 418.611 234.403 416.687 229.282C416.687 229.282 415.502 232.212 414.572 226.734C414.572 226.734 413.235 230.912 412.61 222.249C412.61 222.249 411.158 222.835 410.598 220.797C411.08 220.92 411.592 220.858 412.031 220.622C412.47 220.386 412.804 219.994 412.967 219.523C413.591 217.854 415.592 219.268 415.592 219.268Z" fill="white"/>
<path d="M413.884 221.842C416.799 221.517 419.735 221.441 422.662 221.613C421.809 223.345 420.318 224.721 417.006 224.619C413.693 224.517 413.884 221.842 413.884 221.842Z" fill="#263238"/>
<path d="M418.624 223.281C417.359 223.172 416.09 223.429 414.967 224.02C415.574 224.413 416.283 224.617 417.006 224.606C418.267 224.711 419.532 224.45 420.649 223.855C420.045 223.47 419.34 223.27 418.624 223.281Z" fill="#FF5652"/>
<path d="M414.19 221.803C414.252 222.027 414.374 222.229 414.542 222.388C414.711 222.548 414.919 222.658 415.146 222.708C417.057 222.757 418.97 222.659 420.866 222.415C421.164 222.41 421.456 222.333 421.718 222.191C421.979 222.049 422.203 221.846 422.369 221.599C419.641 221.482 416.909 221.55 414.19 221.803Z" fill="white"/>
<path d="M421.974 212.185C421.872 212.809 421.439 213.268 421.032 213.178C420.624 213.089 420.369 212.58 420.471 211.904C420.573 211.229 421.006 210.809 421.426 210.911C421.847 211.013 422.076 211.56 421.974 212.185Z" fill="#2E353A"/>
<path d="M414.814 211.229C414.713 211.853 414.292 212.312 413.872 212.223C413.451 212.134 413.209 211.611 413.311 210.949C413.413 210.286 413.846 209.866 414.267 209.955C414.687 210.044 414.916 210.592 414.814 211.229Z" fill="#2E353A"/>
<path d="M418.05 209.7C417.834 209.484 417.56 209.333 417.26 209.267C416.96 209.222 416.653 209.271 416.381 209.407L409.833 208.248L409.413 210.605C409.307 211.047 409.294 211.506 409.372 211.953C409.45 212.401 409.619 212.828 409.868 213.208C410.117 213.587 410.441 213.913 410.82 214.163C411.199 214.413 411.626 214.584 412.073 214.664C412.52 214.743 412.979 214.731 413.421 214.628C413.864 214.524 414.28 214.331 414.645 214.061C415.01 213.791 415.317 213.449 415.545 213.056C415.773 212.663 415.919 212.228 415.974 211.777L416.178 210.669C416.218 210.455 416.341 210.265 416.519 210.142C416.698 210.018 416.919 209.969 417.133 210.006C417.349 210.044 417.542 210.165 417.668 210.344C417.795 210.523 417.845 210.745 417.808 210.962L417.617 212.057C417.512 212.499 417.498 212.958 417.576 213.406C417.655 213.853 417.824 214.28 418.073 214.66C418.322 215.04 418.646 215.365 419.025 215.615C419.404 215.866 419.83 216.036 420.277 216.116C420.725 216.196 421.183 216.184 421.626 216.08C422.068 215.976 422.485 215.783 422.85 215.513C423.215 215.243 423.521 214.901 423.75 214.508C423.978 214.116 424.124 213.68 424.178 213.229L424.599 210.86L418.05 209.7ZM415.248 211.637C415.189 211.971 415.065 212.291 414.883 212.578C414.701 212.865 414.464 213.113 414.186 213.308C413.908 213.503 413.594 213.642 413.263 213.716C412.931 213.79 412.588 213.798 412.254 213.739C411.919 213.68 411.599 213.557 411.313 213.374C411.026 213.192 410.778 212.955 410.583 212.677C410.387 212.399 410.249 212.086 410.175 211.754C410.101 211.423 410.093 211.08 410.152 210.745L410.445 209.102L415.541 210.006L415.248 211.637ZM423.452 213.089C423.394 213.424 423.27 213.744 423.087 214.03C422.905 214.317 422.669 214.565 422.39 214.76C422.112 214.956 421.799 215.094 421.467 215.168C421.136 215.242 420.793 215.25 420.458 215.191C420.124 215.133 419.804 215.009 419.517 214.827C419.23 214.645 418.982 214.408 418.787 214.13C418.592 213.852 418.453 213.538 418.379 213.206C418.305 212.875 418.298 212.532 418.356 212.197L418.649 210.554L423.745 211.459L423.452 213.089Z" fill="#407BFF"/>
<path opacity="0.6" d="M418.05 209.7C417.834 209.484 417.56 209.333 417.26 209.267C416.96 209.222 416.653 209.271 416.381 209.407L409.833 208.248L409.413 210.605C409.307 211.047 409.294 211.506 409.372 211.953C409.45 212.401 409.619 212.828 409.868 213.208C410.117 213.587 410.441 213.913 410.82 214.163C411.199 214.413 411.626 214.584 412.073 214.664C412.52 214.743 412.979 214.731 413.421 214.628C413.864 214.524 414.28 214.331 414.645 214.061C415.01 213.791 415.317 213.449 415.545 213.056C415.773 212.663 415.919 212.228 415.974 211.777L416.178 210.669C416.218 210.455 416.341 210.265 416.519 210.142C416.698 210.018 416.919 209.969 417.133 210.006C417.349 210.044 417.542 210.165 417.668 210.344C417.795 210.523 417.845 210.745 417.808 210.962L417.617 212.057C417.512 212.499 417.498 212.958 417.576 213.406C417.655 213.853 417.824 214.28 418.073 214.66C418.322 215.04 418.646 215.365 419.025 215.615C419.404 215.866 419.83 216.036 420.277 216.116C420.725 216.196 421.183 216.184 421.626 216.08C422.068 215.976 422.485 215.783 422.85 215.513C423.215 215.243 423.521 214.901 423.75 214.508C423.978 214.116 424.124 213.68 424.178 213.229L424.599 210.86L418.05 209.7ZM415.248 211.637C415.189 211.971 415.065 212.291 414.883 212.578C414.701 212.865 414.464 213.113 414.186 213.308C413.908 213.503 413.594 213.642 413.263 213.716C412.931 213.79 412.588 213.798 412.254 213.739C411.919 213.68 411.599 213.557 411.313 213.374C411.026 213.192 410.778 212.955 410.583 212.677C410.387 212.399 410.249 212.086 410.175 211.754C410.101 211.423 410.093 211.08 410.152 210.745L410.445 209.102L415.541 210.006L415.248 211.637ZM423.452 213.089C423.394 213.424 423.27 213.744 423.087 214.03C422.905 214.317 422.669 214.565 422.39 214.76C422.112 214.956 421.799 215.094 421.467 215.168C421.136 215.242 420.793 215.25 420.458 215.191C420.124 215.133 419.804 215.009 419.517 214.827C419.23 214.645 418.982 214.408 418.787 214.13C418.592 213.852 418.453 213.538 418.379 213.206C418.305 212.875 418.298 212.532 418.356 212.197L418.649 210.554L423.745 211.459L423.452 213.089Z" fill="white"/>
<path d="M429.771 214.032L424.433 210.987L424.064 211.637L431.822 216.058C431.236 215.446 430.536 214.771 429.771 214.032Z" fill="#407BFF"/>
<path opacity="0.6" d="M429.771 214.032L424.433 210.987L424.064 211.637L431.822 216.058C431.236 215.446 430.536 214.771 429.771 214.032Z" fill="white"/>
<path d="M380.544 320.628L377.321 327.507C375.902 328.534 374.553 329.653 373.282 330.858C372.403 331.89 370.377 334.17 370.492 335.521C370.782 336.493 371.272 337.394 371.93 338.166C372.589 338.938 373.4 339.564 374.314 340.005C376.161 340.54 380.455 339.279 381.678 337.801C382.901 336.323 382.506 329.686 382.506 329.686L386.073 322.794L380.544 320.628Z" fill="#71403E"/>
<path d="M380.913 316.729L377.614 324.679L384.646 328.042L388.608 320.156L380.913 316.729Z" fill="#407BFF"/>
<path opacity="0.8" d="M380.913 316.729L377.614 324.679L384.646 328.042L388.608 320.156L380.913 316.729Z" fill="white"/>
<path d="M386.532 325.468C393.463 313.233 398.51 300.021 401.501 286.28C406.597 263.093 412.7 239.537 405.043 241.091C391.029 243.932 390.825 278.037 388.417 290.013C386.009 301.989 378.225 321.557 378.225 321.557L386.532 325.468Z" fill="#263238"/>
<path opacity="0.2" d="M386.532 325.469C393.463 313.233 398.51 300.022 401.501 286.281C406.597 263.094 413.973 239.945 406.202 240.735C391.054 242.264 390.825 278.076 388.366 290.014C385.907 301.951 378.174 321.558 378.174 321.558L386.532 325.469Z" fill="black"/>
<path d="M386.098 497.65L385.398 515.499H393.322L396.609 498.287L386.098 497.65Z" fill="#71403E"/>
<path d="M385.016 514.518H394.749C394.944 514.514 395.133 514.586 395.276 514.72C395.418 514.853 395.503 515.036 395.513 515.231L397.526 524.595C397.538 525.008 397.404 525.411 397.147 525.735C396.891 526.059 396.529 526.282 396.125 526.366C396.019 526.378 395.912 526.378 395.806 526.366C391.78 526.226 388.239 525.945 383.219 525.856C377.308 525.767 378.697 526.493 371.753 526.48C367.549 526.48 367.549 521.665 369.358 521.461C377.665 520.582 378.888 518.136 382.493 515.269C383.228 514.747 384.115 514.482 385.016 514.518Z" fill="#263238"/>
<path d="M391.335 333.139L384.124 510.11L395.87 510.683C395.87 510.683 405.947 470.247 407.234 444.677C407.323 442.906 407.374 441.225 407.362 439.581C407.303 432.14 407.913 424.708 409.183 417.375L409.642 414.827L416.012 378.952C416.012 378.952 426.968 359.472 419.414 332.285L391.335 333.139Z" fill="#7A7A7A"/>
<path opacity="0.2" d="M412.661 397.947C408.088 378.391 409.234 355.178 409.234 355.178L415.069 357.484L419.337 368.288C419.337 368.288 419.337 369.154 419.337 370.594C418.514 373.495 417.404 376.308 416.025 378.99L412.661 397.947Z" fill="black"/>
<path d="M383.652 507.46L383.538 511.6L395.997 512.352L397.119 508.262L383.652 507.46Z" fill="#407BFF"/>
<path opacity="0.4" d="M383.652 507.46L383.538 511.6L395.997 512.352L397.119 508.262L383.652 507.46Z" fill="white"/>
<path d="M435.925 497.65L438.523 515.499H446.448L446.41 498.287L435.925 497.65Z" fill="#71403E"/>
<path d="M437.861 514.518H447.595C447.69 514.516 447.785 514.533 447.873 514.568C447.962 514.603 448.043 514.655 448.112 514.722C448.18 514.788 448.235 514.867 448.273 514.955C448.311 515.042 448.332 515.136 448.333 515.231L450.028 524.595C450.02 525.013 449.87 525.415 449.604 525.736C449.338 526.058 448.971 526.28 448.563 526.366C448.453 526.379 448.342 526.379 448.232 526.366C444.218 526.226 440.689 525.946 435.67 525.857C429.759 525.767 431.122 526.494 424.204 526.481C420 526.481 420.153 521.665 421.974 521.461C430.306 520.582 431.631 518.136 435.326 515.27C436.067 514.75 436.957 514.487 437.861 514.518Z" fill="#263238"/>
<path d="M404.215 333.139C404.215 333.139 413.795 376.875 416.534 391.539C422.064 421.07 435.925 510.135 435.925 510.135L447.607 509.626C447.607 509.626 450.283 472.68 446.766 446.818C446.499 444.779 446.18 442.817 445.824 440.957C444.091 432.339 443.237 423.567 443.276 414.776C443.276 414.776 443.276 412.878 443.276 412.228C443.276 403.922 443.186 387.284 443.62 378.977C444.244 367.282 446.053 353.752 439.326 332.31L404.215 333.139Z" fill="#7A7A7A"/>
<path d="M434.956 508.275L435.606 512.39L448.015 511.651L448.244 507.485L434.956 508.275Z" fill="#407BFF"/>
<path opacity="0.4" d="M434.956 508.275L435.606 512.39L448.015 511.651L448.244 507.485L434.956 508.275Z" fill="white"/>
<path d="M392.698 331.456C392.698 331.456 399.221 338.476 409.107 333.291C409.107 333.291 414.445 337.291 430.217 333.291L438.498 242.48V240.9H432.306L421.312 243.168L415.592 240.531L412.012 239.817L399.768 257.347L393.156 318.843L392.698 331.456Z" fill="#407BFF"/>
<path opacity="0.8" d="M392.698 331.456C392.698 331.456 399.221 338.476 409.107 333.291C409.107 333.291 414.445 337.291 430.217 333.291L438.498 242.48V240.9H432.306L421.312 243.168L415.592 240.531L412.012 239.817L399.768 257.347L393.156 318.843L392.698 331.456Z" fill="white"/>
<path d="M416.84 245.373L417.655 248.889L418.611 251.832C418.611 251.832 407.387 274.025 406.674 316.806L409.999 320.195L416.037 316.373C416.037 316.373 415.592 291.912 421.223 252.24L422.739 250.482L425.198 246.965L424.497 244.914C424.101 245.239 423.644 245.481 423.153 245.625C422.662 245.77 422.147 245.814 421.638 245.756C421.13 245.698 420.638 245.538 420.192 245.286C419.747 245.034 419.356 244.696 419.044 244.29L416.84 245.373Z" fill="#407BFF"/>
<path opacity="0.8" d="M411.324 274.815C411.26 275.082 411.209 275.35 411.145 275.617L418.28 276.509C418.28 276.241 418.343 275.961 418.369 275.694L411.324 274.815Z" fill="white"/>
<path d="M386.71 353.191C386.71 353.191 401.871 367.956 400.405 319.583C398.456 255.64 414.636 239.193 414.636 239.193C414.636 239.193 386.391 234.479 389.258 301.262C389.844 314.678 391.335 333.138 386.71 353.191Z" fill="#263238"/>
<path d="M434.065 238.812C434.065 238.812 425.312 263.973 426.421 304.983C427.376 338.999 425.045 355.574 449.442 353.459C446.114 338.706 444.853 323.562 445.696 308.461C446.996 282.433 466.857 235.69 434.065 238.812Z" fill="#263238"/>
<path opacity="0.2" d="M448.448 246.977C447.021 245.053 443.938 245.436 442.537 247.563C439.581 252.048 434.778 257.844 431.491 283.821L426.663 284.089C426.573 287.911 426.408 300.345 426.446 302.129C430.211 301.665 433.949 301.001 437.644 300.141C446.754 297.542 455.468 256.392 448.448 246.977Z" fill="black"/>
<path d="M389.08 323.52H395.704C395.704 323.52 396.609 327.915 387.793 327.405L389.08 323.52Z" fill="#263238"/>
<path d="M430.217 323.519L441.39 322.182C441.39 322.182 443.199 326.004 436.676 326.59C430.153 327.176 430.217 323.519 430.217 323.519Z" fill="#263238"/>
<g opacity="0.1">
<path d="M389.08 323.519H395.704C395.704 323.519 396.609 327.915 387.793 327.405L389.08 323.519Z" fill="white"/>
<path d="M430.217 323.519L441.39 322.182C441.39 322.182 443.199 326.004 436.676 326.59C430.153 327.176 430.217 323.519 430.217 323.519Z" fill="white"/>
</g>
<path d="M414.636 239.193L416.432 238.709L421.248 241.945L432.574 238.645L434.064 238.811L435.02 241.945L424.497 249.232L421.248 244.519L416.432 247.512L412.827 240.034L414.636 239.193Z" fill="#407BFF"/>
<path opacity="0.5" d="M414.636 239.193L416.432 238.709L421.248 241.945L432.574 238.645L434.064 238.811L435.02 241.945L424.497 249.232L421.248 244.519L416.432 247.512L412.827 240.034L414.636 239.193Z" fill="white"/>
<path d="M434.065 238.811C434.065 238.811 427.504 257.692 426.497 289.363C431.389 266.966 438.498 256.953 438.498 256.953L433.466 253.857L438.498 250.251C436.829 246.621 436.957 240.913 437.084 238.671C436.129 238.671 435.135 238.709 434.065 238.811Z" fill="#263238"/>
<path opacity="0.1" d="M434.065 238.811C434.065 238.811 427.504 257.692 426.497 289.363C431.389 266.966 438.498 256.953 438.498 256.953L433.466 253.857L438.498 250.251C436.829 246.621 436.957 240.913 437.084 238.671C436.129 238.671 435.135 238.709 434.065 238.811Z" fill="white"/>
<path d="M399.361 292.548L392.099 292.918C390.604 292.195 389.063 291.569 387.487 291.045C386.213 290.765 383.385 290.077 382.302 290.777C381.611 291.452 381.069 292.265 380.711 293.162C380.353 294.06 380.188 295.023 380.225 295.988C380.673 297.162 381.356 298.233 382.232 299.133C383.108 300.034 384.16 300.745 385.321 301.224C387.22 301.619 392.545 298.294 392.545 298.294L399.972 298.218L399.361 292.548Z" fill="#71403E"/>
<path d="M405.45 290.421L396.329 291.491L397.628 298.995H406.189L405.45 290.421Z" fill="#407BFF"/>
<path opacity="0.8" d="M405.45 290.421L396.329 291.491L397.628 298.995H406.189L405.45 290.421Z" fill="white"/>
<path d="M443.441 244.022C440.613 248.328 436.001 261.056 432.854 285.95L400.864 289.861L401.437 299.951C401.437 299.951 427.198 300.575 437.109 297.721C445.785 295.173 455.786 252.494 449.098 243.462C447.747 241.627 444.792 241.984 443.441 244.022Z" fill="#263238"/>
<path d="M400.418 262.699H391.054V268.356H400.418V262.699Z" fill="#407BFF"/>
<path opacity="0.4" d="M400.418 264.533H391.054V268.342H400.418V264.533Z" fill="white"/>
<path opacity="0.4" d="M400.418 266.292H391.054V268.356H400.418V266.292Z" fill="#263238"/>
<path opacity="0.4" d="M396.494 265.527C396.494 265.678 396.449 265.826 396.365 265.952C396.281 266.077 396.162 266.175 396.022 266.233C395.883 266.291 395.729 266.306 395.581 266.277C395.432 266.247 395.296 266.175 395.189 266.068C395.082 265.961 395.01 265.824 394.98 265.676C394.951 265.528 394.966 265.374 395.024 265.235C395.082 265.095 395.179 264.975 395.305 264.892C395.431 264.808 395.579 264.763 395.73 264.763C395.933 264.763 396.127 264.843 396.27 264.987C396.414 265.13 396.494 265.324 396.494 265.527Z" fill="white"/>
<path d="M411.336 239.269C408.788 240.658 405.858 243.512 403.094 247.933L404.712 251.984L398.966 253.971C398.398 265.599 399.073 277.254 400.979 288.739C403.896 250.124 414.636 239.193 414.636 239.193C413.537 239.079 412.429 239.104 411.336 239.269Z" fill="#263238"/>
<path opacity="0.1" d="M411.336 239.269C408.788 240.658 405.858 243.512 403.094 247.933L404.712 251.984L398.966 253.971C398.398 265.599 399.073 277.254 400.979 288.739C403.896 250.124 414.636 239.193 414.636 239.193C413.537 239.079 412.429 239.104 411.336 239.269Z" fill="white"/>
<path d="M205.114 255.692C208.961 254.861 212.963 255.104 216.682 256.392C216.682 256.392 218.899 261.756 214.134 261.998C209.369 262.24 205.089 257.386 205.089 257.386L205.114 255.692Z" fill="#407BFF"/>
<path d="M198.859 223.472C198.859 223.472 212.044 208.311 222.224 218.249C222.224 218.249 230.135 225.536 228.53 233.065C226.925 240.595 219.395 237.664 224.53 251.105C224.53 251.105 221.128 257.87 205.216 252.71L201.075 246.073L203.267 252.71C203.267 252.71 193.648 251.576 193.724 241.996C193.801 232.416 189.609 223.37 198.859 223.472Z" fill="#263238"/>
<path d="M203.929 258.8C203.929 258.8 206.987 258.685 206.961 254.902C206.895 252.102 206.678 249.308 206.312 246.531L215.382 247.334C215.382 247.334 214.172 258.494 218.325 259.055C218.325 259.055 214.694 264.622 203.929 258.8Z" fill="#FFB573"/>
<path opacity="0.1" d="M215.382 247.334L206.312 246.531C206.312 246.531 206.541 248.213 206.719 250.353C208.925 253.109 212.13 254.881 215.637 255.284C215.211 252.656 215.125 249.984 215.382 247.334Z" fill="black"/>
<path d="M200.489 234.339C201.7 242.48 202.031 245.945 206.528 249.793C213.28 255.564 223.001 252.341 224.249 243.983C225.383 236.48 223.218 224.44 214.937 221.88C212.108 221 209.047 221.276 206.421 222.646C203.796 224.016 201.819 226.369 200.923 229.192C200.385 230.852 200.237 232.613 200.489 234.339Z" fill="#FFB573"/>
<path d="M199.113 240.976C199.701 242.456 200.851 243.643 202.311 244.276C204.248 245.091 205.483 243.423 205.165 241.461C204.846 239.499 203.534 237.116 201.483 237.129C201.126 237.14 200.775 237.223 200.45 237.371C200.125 237.519 199.833 237.73 199.59 237.992C199.347 238.254 199.158 238.561 199.035 238.896C198.912 239.231 198.856 239.588 198.871 239.944C198.882 240.301 198.964 240.652 199.113 240.976Z" fill="#FFB573"/>
<path d="M218.708 236.225C219.433 237.693 220.355 239.056 221.447 240.276C221.128 240.546 220.755 240.745 220.353 240.86C219.951 240.974 219.529 241.001 219.115 240.939L218.708 236.225Z" fill="#ED893E"/>
<path d="M209.764 232.517C209.71 232.535 209.652 232.535 209.598 232.517C209.531 232.466 209.486 232.391 209.474 232.307C209.462 232.224 209.484 232.139 209.535 232.071C209.893 231.577 210.364 231.175 210.91 230.9C211.455 230.625 212.058 230.485 212.669 230.491C212.754 230.504 212.832 230.547 212.889 230.612C212.945 230.678 212.975 230.762 212.974 230.848C212.965 230.931 212.924 231.008 212.86 231.062C212.796 231.117 212.714 231.145 212.63 231.141C212.136 231.142 211.649 231.258 211.207 231.479C210.765 231.7 210.38 232.02 210.082 232.415C210.043 232.459 209.993 232.491 209.937 232.509C209.881 232.527 209.821 232.53 209.764 232.517Z" fill="#263238"/>
<path d="M223.88 231.422L223.727 231.358C223.324 231.056 222.856 230.853 222.361 230.764C221.865 230.676 221.356 230.705 220.873 230.849C220.834 230.865 220.792 230.873 220.749 230.873C220.707 230.873 220.665 230.865 220.625 230.848C220.586 230.832 220.551 230.807 220.521 230.777C220.492 230.746 220.468 230.71 220.453 230.67C220.437 230.63 220.429 230.587 220.43 230.544C220.431 230.501 220.44 230.458 220.458 230.419C220.476 230.38 220.502 230.344 220.534 230.315C220.566 230.286 220.603 230.264 220.644 230.25C221.225 230.061 221.843 230.015 222.446 230.115C223.049 230.214 223.62 230.457 224.109 230.823C224.182 230.872 224.232 230.948 224.249 231.034C224.265 231.12 224.247 231.209 224.198 231.282C224.164 231.332 224.115 231.372 224.059 231.397C224.003 231.422 223.941 231.43 223.88 231.422Z" fill="#263238"/>
<path d="M213.905 235.537C213.905 236.199 214.363 236.696 214.809 236.671C215.255 236.645 215.548 236.059 215.484 235.397C215.421 234.734 215.026 234.225 214.593 234.263C214.159 234.301 213.854 234.862 213.905 235.537Z" fill="#263238"/>
<path d="M221.434 234.887C221.498 235.55 221.893 236.059 222.326 236.021C222.759 235.983 223.065 235.422 223.014 234.747C222.963 234.072 222.555 233.575 222.122 233.613C221.689 233.652 221.37 234.212 221.434 234.887Z" fill="#263238"/>
<path d="M221.931 233.664L223.498 233.065C223.498 233.065 222.772 234.416 221.931 233.664Z" fill="#263238"/>
<path d="M214.401 234.314L215.968 233.715C215.968 233.715 215.306 235.027 214.401 234.314Z" fill="#263238"/>
<path d="M217.535 244.812C217.92 244.816 218.304 244.781 218.682 244.71C218.734 244.7 218.78 244.671 218.811 244.628C218.842 244.586 218.855 244.532 218.848 244.48C218.838 244.428 218.809 244.382 218.766 244.351C218.724 244.32 218.671 244.307 218.618 244.315C217.786 244.486 216.924 244.461 216.104 244.239C215.283 244.018 214.525 243.608 213.892 243.041C213.855 243 213.803 242.976 213.748 242.974C213.693 242.971 213.639 242.991 213.599 243.028C213.558 243.065 213.534 243.117 213.532 243.172C213.529 243.227 213.549 243.28 213.586 243.321C214.662 244.307 216.076 244.84 217.535 244.812Z" fill="#263238"/>
<path d="M203.267 222.657C203.267 222.657 209.165 225.205 208.222 231.142C208.222 231.142 214.083 227.447 220.427 229.511C219.788 227.235 218.451 225.217 216.605 223.74C216.605 223.74 223.753 229.065 224.81 232.518C225.867 235.97 224.555 220.555 214.618 220.122C212.689 219.359 210.577 219.194 208.553 219.646C206.529 220.098 204.687 221.147 203.267 222.657Z" fill="#263238"/>
<path d="M206.91 224.007C206.91 224.007 207.968 226.733 206.541 231.982C205.114 237.231 203.445 238.352 206.541 243.601C209.637 248.85 206.044 249.691 206.044 249.691C206.044 249.691 207.649 247.856 203.649 243.321C202.501 242.13 201.624 240.705 201.079 239.144C200.534 237.583 200.332 235.922 200.489 234.276C200.489 234.276 198.515 230.262 202.502 224.453C206.49 218.644 206.91 224.007 206.91 224.007Z" fill="#263238"/>
<path d="M202.311 244.276C203.693 244.942 204.853 245.992 205.653 247.301C206.452 248.609 206.858 250.12 206.821 251.653L203.904 248.672L201.075 246.124L202.311 244.276Z" fill="#263238"/>
<path d="M242.761 391.22C242.646 422.878 236.391 518.123 236.391 518.123H227.371C227.371 518.123 220.058 436.281 226.734 409.616L215.523 358.134L241.436 361.472C241.436 361.472 242.786 383.754 242.761 391.22Z" fill="#FFB573"/>
<path d="M235.868 515.728H227.116C226.927 515.736 226.746 515.803 226.598 515.92C226.449 516.036 226.341 516.196 226.288 516.377L222.695 524.786C222.647 524.951 222.634 525.125 222.655 525.296C222.676 525.467 222.732 525.632 222.819 525.781C222.906 525.93 223.022 526.06 223.161 526.162C223.299 526.265 223.457 526.339 223.625 526.378C223.718 526.391 223.812 526.391 223.905 526.378C227.549 526.251 230.785 525.996 235.371 525.92C240.709 525.83 239.321 526.493 245.563 526.48C249.385 526.48 250.264 522.161 248.672 521.97C241.385 521.168 240.735 518.976 238.047 516.39C237.431 515.902 236.652 515.665 235.868 515.728Z" fill="#263238"/>
<path opacity="0.1" d="M241.882 420.802H225.014C224.199 428.968 223.931 438.982 223.982 449.454C229.642 449.141 235.241 448.118 240.646 446.409C241.105 437.606 241.538 428.879 241.882 420.802Z" fill="black"/>
<path d="M209.649 393.487L193.903 518.517H185.074C185.074 518.517 183.392 435.325 191.444 409.463L192.196 357.675L214.401 361.497L209.649 393.487Z" fill="#FFB573"/>
<path d="M193.648 515.728H184.857C184.674 515.732 184.497 515.799 184.356 515.917C184.215 516.035 184.118 516.197 184.08 516.377L181.074 524.786C181.036 524.958 181.033 525.136 181.065 525.31C181.097 525.483 181.162 525.649 181.258 525.797C181.354 525.945 181.478 526.072 181.624 526.172C181.769 526.272 181.933 526.342 182.106 526.378C182.203 526.391 182.301 526.391 182.399 526.378C186.017 526.251 189.253 525.996 193.763 525.92C199.101 525.83 197.763 526.493 204.031 526.48C207.853 526.48 208.426 522.161 206.821 521.97C199.47 521.168 198.68 518.976 195.801 516.39C195.185 515.921 194.422 515.686 193.648 515.728Z" fill="#263238"/>
<path opacity="0.1" d="M190.221 414.126C188.425 422.203 187.227 433.491 186.399 445.696C191.688 447.325 197.185 448.184 202.719 448.244L206.541 417.668L190.221 414.126Z" fill="black"/>
<path d="M249.946 332.259C250.489 334.402 251.266 336.478 252.265 338.451L256.533 342.451L257.182 347.955L249.87 349.509L246.825 344.413L246.519 340.158C245.554 338.27 244.703 336.326 243.971 334.336L249.946 332.259Z" fill="#FFB573"/>
<path d="M243.5 335.724C240.786 329.965 236.964 314.423 234.9 300.88C231.473 278.636 227.536 262.214 232.263 263.857C236.932 270.86 240.099 278.756 241.563 287.044C243.729 298.752 246.659 321.684 250.583 332.755L243.5 335.724Z" fill="#407BFF"/>
<path opacity="0.1" d="M243.5 335.724C240.786 329.965 236.964 314.423 234.9 300.88C231.473 278.636 227.536 262.214 232.263 263.857C236.932 270.86 240.099 278.756 241.563 287.044C243.729 298.752 246.659 321.684 250.583 332.755L243.5 335.724Z" fill="black"/>
<path opacity="0.1" d="M230.989 276.802C231.932 283.172 233.46 291.516 234.9 300.88C235.486 304.702 236.174 308.601 237.002 312.448C237.458 307.075 238.224 301.732 239.295 296.447C241.843 283.49 233.703 268.228 233.703 268.228H232.518L231.116 270.992L230.989 276.802Z" fill="black"/>
<path d="M202.477 258.201L205.012 257.386L211.637 261.998H214.057L216.096 261.093L218.466 258.724L220.835 259.692L222.517 266.202V268.189L223.243 270.585L225.332 278.636L226.899 289.032V296.854L226.313 305.263L224.097 300.88L217.854 289.21L212.656 274.496L211.14 269.361L207.165 265.183L204.069 259.896L202.477 258.201Z" fill="#407BFF"/>
<path opacity="0.8" d="M202.477 258.201L205.012 257.386L211.637 261.998H214.057L216.096 261.093L218.466 258.724L220.835 259.692L222.517 266.202V268.189L223.243 270.585L225.332 278.636L226.899 289.032V296.854L226.313 305.263L224.097 300.88L217.854 289.21L212.656 274.496L211.14 269.361L207.165 265.183L204.069 259.896L202.477 258.201Z" fill="white"/>
<path d="M192.374 341.547C192.374 341.547 188.552 352.936 187.176 384.952C185.8 416.967 182.717 442.078 182.717 442.078C182.717 442.078 220.58 451.888 243.423 442.078C243.423 442.078 247.997 385.385 239.741 341.572L223.179 335.75L192.374 341.547Z" fill="#263238"/>
<path d="M191.1 264.686L199.024 320.321C199.024 320.321 194.119 328.73 189.915 346.069C189.915 346.069 214.312 354.184 221.434 350.63C223.714 349.483 226.339 341.712 226.339 341.712C226.339 341.712 230.441 349.955 233.18 350.63C235.422 351.19 241.589 346.808 241.589 346.808C241.589 346.808 239.041 332.17 235.499 319.442L237.206 294.969C237.206 294.969 240.71 288.051 234.136 269.489L232.288 263.858C232.049 263.11 231.528 262.484 230.836 262.112C227.121 260.208 223.165 258.815 219.077 257.972C219.077 257.972 227.995 282.917 225.906 303.772C225.906 303.772 217.153 269.183 203.152 257.386C199.647 257.738 196.25 258.796 193.164 260.494C192.44 260.907 191.857 261.526 191.489 262.274C191.121 263.021 190.986 263.861 191.1 264.686Z" fill="#F7841E"/>
<path d="M211.93 263.221C211.93 263.221 213.879 260.482 218.032 261.819C218.434 263.698 218.579 265.622 218.466 267.54C218.466 267.54 222.351 272.967 226.899 293.466V297.441L226.313 305.263L224.097 300.88L221.88 293.466C221.88 293.466 218.784 274.432 215.981 268.368L211.93 263.221Z" fill="#263238"/>
<path d="M203.127 257.348L205.114 255.692C205.114 255.692 210.376 261.45 213.879 261.259C217.383 261.068 216.682 256.392 216.682 256.392L219.103 257.972L220.185 258.966L219.918 265.183C219.918 265.183 216.848 261.59 215.038 262.112C213.229 262.635 211.675 266.495 211.675 266.495C211.675 266.495 207.56 264.227 203.127 257.348Z" fill="#407BFF"/>
<path opacity="0.5" d="M203.127 257.348L205.114 255.692C205.114 255.692 210.376 261.45 213.879 261.259C217.383 261.068 216.682 256.392 216.682 256.392L219.103 257.972L220.185 258.966L219.918 265.183C219.918 265.183 216.848 261.59 215.038 262.112C213.229 262.635 211.675 266.495 211.675 266.495C211.675 266.495 207.56 264.227 203.127 257.348Z" fill="white"/>
<path d="M226.492 306.371C226.492 306.371 228.301 295.516 227.957 271.578L223.243 269.03L226.199 268.215C224.726 264.857 223.023 261.605 221.103 258.481C220.44 258.303 219.829 258.15 219.064 257.997C219.064 257.997 227.982 282.942 225.893 303.797C225.893 303.797 217.141 269.208 203.139 257.411C203.139 257.411 202.49 257.411 201.432 257.64C204.745 261.131 206.631 265.735 206.719 270.546H210.478L207.42 273.349L226.492 306.371Z" fill="#407BFF"/>
<path opacity="0.2" d="M226.492 306.371C226.492 306.371 228.301 295.516 227.957 271.578L223.243 269.03L226.199 268.215C224.726 264.857 223.023 261.605 221.103 258.481C220.44 258.303 219.829 258.15 219.064 257.997C219.064 257.997 227.982 282.942 225.893 303.797C225.893 303.797 217.141 269.208 203.139 257.411C203.139 257.411 202.49 257.411 201.432 257.64C204.745 261.131 206.631 265.735 206.719 270.546H210.478L207.42 273.349L226.492 306.371Z" fill="black"/>
<path opacity="0.2" d="M193.737 283.363C195.505 277.245 196.804 271.001 197.623 264.686L192.82 262.584L191.113 263.361C191.041 263.783 191.041 264.213 191.113 264.635L193.737 283.363Z" fill="black"/>
<path d="M209.13 277.456L200.442 278.877L201.302 284.132L209.99 282.711L209.13 277.456Z" fill="#407BFF"/>
<path opacity="0.7" d="M209.13 277.456L200.442 278.877L201.302 284.132L209.99 282.711L209.13 277.456Z" fill="white"/>
<path d="M206.465 280.573C206.51 280.823 206.48 281.082 206.378 281.315C206.276 281.548 206.107 281.745 205.892 281.881C205.677 282.016 205.426 282.085 205.171 282.077C204.917 282.069 204.671 281.985 204.465 281.836C204.259 281.687 204.102 281.479 204.015 281.24C203.928 281.001 203.914 280.742 203.975 280.495C204.037 280.248 204.171 280.025 204.36 279.855C204.55 279.685 204.786 279.576 205.038 279.541C205.363 279.496 205.692 279.579 205.958 279.771C206.224 279.963 206.405 280.251 206.465 280.573Z" fill="#407BFF"/>
<path opacity="0.2" d="M224.224 315.786C225.141 314.728 224.224 308.97 224.224 308.97L197.546 310.244L198.476 316.792C203.568 317.228 208.696 316.893 213.688 315.798C213.688 315.798 223.307 316.843 224.224 315.786Z" fill="black"/>
<path d="M209.165 314.678C211.574 314.537 213.97 314.235 216.338 313.773L220.873 314.27H227.613V306.167L220.631 304.69L215.535 307.403C213.466 307.729 211.375 307.899 209.28 307.913L209.165 314.678Z" fill="#FFB573"/>
<path d="M209.904 315.2C199.457 315.862 181.277 314.295 181.303 295.287C181.303 285.503 184.819 259.08 195.126 260.137C205.432 261.195 190.59 271.858 190.59 293.937C190.59 306.587 202.4 307.033 209.993 306.957L209.904 315.2Z" fill="#407BFF"/>
<path opacity="0.1" d="M209.904 315.2C199.457 315.862 181.277 314.295 181.303 295.287C181.303 285.503 184.819 259.08 195.126 260.137C205.432 261.195 190.59 271.858 190.59 293.937C190.59 306.587 202.4 307.033 209.993 306.957L209.904 315.2Z" fill="black"/>
</svg>
