<svg width="666" height="412" viewBox="0 0 666 412" fill="none" xmlns="http://www.w3.org/2000/svg">
<path d="M85.2132 87.7275C85.2132 88.1276 82.2717 88.4629 78.6273 88.4629C74.9829 88.4629 72.0414 88.1276 72.0414 87.7275C72.0414 87.3274 74.9937 87.0029 78.6273 87.0029C82.2609 87.0029 85.2132 87.3274 85.2132 87.7275Z" fill="#263238"/>
<path d="M92.21 69.8186C92.6102 69.8186 92.9346 72.8033 92.9346 76.5018C92.9346 80.2003 92.6102 83.1851 92.21 83.1851C91.8099 83.1851 91.4855 80.1895 91.4855 76.5018C91.4855 72.8142 91.8099 69.8186 92.21 69.8186Z" fill="#263238"/>
<path d="M99.6609 87.3059C99.6609 86.895 102.602 86.5706 106.236 86.5706C109.87 86.5706 112.822 86.895 112.822 87.3059C112.822 87.7169 109.88 88.0305 106.236 88.0305C102.592 88.0305 99.6609 87.7061 99.6609 87.3059Z" fill="#263238"/>
<path d="M92.6644 105.214C92.2642 105.214 91.9398 102.218 91.9398 98.5304C91.9398 94.8427 92.2642 91.8472 92.6644 91.8472C93.0645 91.8472 93.3889 94.8427 93.3889 98.5304C93.3889 102.218 93.0645 105.214 92.6644 105.214Z" fill="#263238"/>
<path d="M103.305 97.5471C103.003 97.7958 101.705 96.7576 100.407 95.2004C99.1094 93.6431 98.3199 92.194 98.6227 91.9561C98.9255 91.7182 100.234 92.7455 101.521 94.292C102.808 95.8384 103.619 97.2767 103.305 97.5471Z" fill="#263238"/>
<path d="M102.689 77.2168C102.981 77.498 102.116 78.8281 100.775 80.1799C99.4339 81.5317 98.1146 82.4077 97.8334 82.1265C97.5523 81.8453 98.4066 80.5152 99.7476 79.1526C101.089 77.79 102.408 76.9356 102.689 77.2168Z" fill="#263238"/>
<path d="M87.5921 82.4046C87.3434 82.7074 86.0998 82.1018 84.8129 81.0312C83.5259 79.9606 82.7149 78.8683 82.9636 78.5439C83.2123 78.2195 84.4668 78.8467 85.7537 79.9173C87.0406 80.9879 87.83 82.0802 87.5921 82.4046Z" fill="#263238"/>
<path d="M87.0085 91.3399C87.3005 91.6211 86.5543 92.9188 85.3323 94.2598C84.1102 95.6008 82.8882 96.4227 82.5962 96.1847C82.3042 95.9468 83.0396 94.6167 84.2616 93.2757C85.4836 91.9347 86.7489 91.0587 87.0085 91.3399Z" fill="#263238"/>
<path d="M456.793 53.0684C456.793 53.2955 455.117 53.4794 453.052 53.4794C450.986 53.4794 449.31 53.2955 449.31 53.0684C449.31 52.8413 450.986 52.6575 453.052 52.6575C455.117 52.6575 456.793 52.8413 456.793 53.0684Z" fill="#263238"/>
<path d="M460.762 42.9019C460.989 42.9019 461.173 44.5997 461.173 46.6869C461.173 48.774 460.989 50.4827 460.762 50.4827C460.535 50.4827 460.351 48.7848 460.351 46.6869C460.351 44.5889 460.535 42.9019 460.762 42.9019Z" fill="#263238"/>
<path d="M464.99 52.8184C464.99 52.5913 466.666 52.4075 468.732 52.4075C470.797 52.4075 472.463 52.5913 472.463 52.8184C472.463 53.0455 470.797 53.2402 468.732 53.2402C466.666 53.2402 464.99 53.0563 464.99 52.8184Z" fill="#263238"/>
<path d="M461.021 62.9942C460.794 62.9942 460.61 61.2964 460.61 59.1984C460.61 57.1004 460.794 55.4026 461.021 55.4026C461.249 55.4026 461.432 57.1004 461.432 59.1984C461.432 61.2964 461.249 62.9942 461.021 62.9942Z" fill="#263238"/>
<path d="M467.067 58.6151C466.883 58.7556 466.147 58.1609 465.412 57.2849C464.677 56.4089 464.233 55.5762 464.406 55.4248C464.579 55.2734 465.315 55.879 466.05 56.755C466.786 57.6309 467.24 58.4853 467.067 58.6151Z" fill="#263238"/>
<path d="M466.71 47.0998C466.873 47.262 466.386 48.019 465.629 48.7868C464.872 49.5546 464.115 50.0413 463.953 49.8682C463.79 49.6952 464.277 48.9598 465.034 48.192C465.791 47.4242 466.548 46.9376 466.71 47.0998Z" fill="#263238"/>
<path d="M458.145 50.0417C457.993 50.2147 457.29 49.8687 456.566 49.2631C455.841 48.6575 455.365 48.0302 455.484 47.8572C455.603 47.6842 456.339 48.0194 457.063 48.625C457.788 49.2306 458.285 49.8687 458.145 50.0417Z" fill="#263238"/>
<path d="M457.809 55.1211C457.972 55.2725 457.55 56.0078 456.858 56.7757C456.166 57.5435 455.474 58.0193 455.3 57.8571C455.127 57.6949 455.56 56.9595 456.252 56.2025C456.944 55.4455 457.68 54.9697 457.809 55.1211Z" fill="#263238"/>
<path d="M286.954 138.134C285.067 138.553 283.11 138.553 281.223 138.134C283.109 137.702 285.068 137.702 286.954 138.134Z" fill="#263238"/>
<path d="M290.058 130.333C290.476 132.246 290.476 134.227 290.058 136.141C289.625 134.229 289.625 132.245 290.058 130.333Z" fill="#263238"/>
<path d="M293.237 137.939C295.125 137.521 297.081 137.521 298.969 137.939C297.083 138.372 295.123 138.372 293.237 137.939Z" fill="#263238"/>
<path d="M290.198 145.736C289.78 143.82 289.78 141.835 290.198 139.918C290.616 141.835 290.616 143.82 290.198 145.736Z" fill="#263238"/>
<path d="M294.827 142.394C294.697 142.502 294.135 142.047 293.572 141.377C293.01 140.706 292.653 140.068 292.794 139.95C292.934 139.831 293.497 140.296 294.059 140.966C294.621 141.637 294.967 142.285 294.827 142.394Z" fill="#263238"/>
<path d="M294.567 133.547C294.686 133.677 294.319 134.25 293.735 134.845C293.151 135.44 292.567 135.807 292.448 135.688C292.329 135.569 292.696 134.985 293.28 134.401C293.864 133.817 294.438 133.428 294.567 133.547Z" fill="#263238"/>
<path d="M287.992 135.81C287.884 135.939 287.343 135.68 286.781 135.215C286.219 134.75 285.862 134.263 285.981 134.133C286.1 134.004 286.629 134.263 287.192 134.728C287.754 135.193 288.1 135.669 287.992 135.81Z" fill="#263238"/>
<path d="M287.733 139.723C287.863 139.842 287.538 140.404 287.008 140.988C286.478 141.572 285.927 141.951 285.819 141.832C285.711 141.713 286.013 141.15 286.543 140.566C287.073 139.982 287.603 139.582 287.733 139.723Z" fill="#263238"/>
<path d="M439.209 150.255C439.209 150.482 437.533 150.666 435.467 150.666C433.402 150.666 431.725 150.536 431.725 150.255C431.725 149.974 433.391 149.833 435.456 149.833C437.522 149.833 439.209 150.028 439.209 150.255Z" fill="#E0E0E0"/>
<path d="M443.178 140.08C443.405 140.08 443.589 141.778 443.589 143.876C443.589 145.974 443.405 147.672 443.178 147.672C442.951 147.672 442.767 145.974 442.767 143.876C442.767 141.778 442.951 140.08 443.178 140.08Z" fill="#E0E0E0"/>
<path d="M447.407 150.007C447.407 149.78 449.083 149.596 451.148 149.596C453.214 149.596 454.879 149.78 454.879 150.007C454.879 150.234 453.214 150.418 451.148 150.418C449.083 150.418 447.407 150.234 447.407 150.007Z" fill="#E0E0E0"/>
<path d="M443.437 160.182C443.21 160.182 443.027 158.474 443.027 156.387C443.027 154.299 443.21 152.591 443.437 152.591C443.665 152.591 443.848 154.289 443.848 156.387C443.848 158.485 443.621 160.182 443.437 160.182Z" fill="#E0E0E0"/>
<path d="M449.483 155.816C449.299 155.967 448.563 155.372 447.828 154.496C447.093 153.62 446.649 152.777 446.822 152.636C446.995 152.496 447.731 153.08 448.466 153.956C449.201 154.832 449.656 155.675 449.483 155.816Z" fill="#E0E0E0"/>
<path d="M449.125 144.287C449.288 144.449 448.801 145.195 448.044 145.963C447.287 146.731 446.53 147.228 446.368 147.045C446.206 146.861 446.692 146.136 447.449 145.357C448.206 144.579 448.963 144.125 449.125 144.287Z" fill="#E0E0E0"/>
<path d="M440.561 147.217C440.409 147.4 439.706 147.054 438.982 146.449C438.257 145.843 437.781 145.205 437.9 145.032C438.019 144.859 438.755 145.205 439.479 145.811C440.204 146.416 440.701 147.044 440.561 147.217Z" fill="#E0E0E0"/>
<path d="M440.225 152.3C440.388 152.462 439.966 153.197 439.274 153.954C438.582 154.711 437.89 155.209 437.716 155.036C437.543 154.863 437.976 154.138 438.668 153.381C439.36 152.624 440.052 152.148 440.225 152.3Z" fill="#E0E0E0"/>
<path d="M242.129 53.7258L242.615 54.8938C243.038 55.9005 243.654 56.8141 244.43 57.5824C245.205 58.3506 246.125 58.9584 247.136 59.3709L248.412 59.89L247.19 60.3766C246.163 60.7946 245.23 61.415 244.448 62.2009C243.666 62.9868 243.05 63.9221 242.637 64.9511L242.291 65.7946L241.772 64.7132C240.843 62.7653 239.184 61.2618 237.154 60.528L236.073 60.1171L237.522 59.425C239.348 58.5256 240.78 56.986 241.545 55.0993L242.129 53.7258Z" fill="#E0E0E0"/>
<path d="M52.1967 141.235L52.5211 142.013C52.8004 142.683 53.21 143.291 53.7261 143.802C54.2422 144.312 54.8545 144.715 55.5275 144.987L56.371 145.333L55.56 145.658C54.8782 145.937 54.259 146.349 53.739 146.871C53.219 147.393 52.8086 148.014 52.5319 148.697L52.3048 149.259L51.9588 148.556C51.3417 147.262 50.2434 146.261 48.8983 145.766L48.163 145.506L49.1254 145.041C50.3266 144.447 51.2745 143.442 51.7966 142.208L52.1967 141.235Z" fill="#E0E0E0"/>
<path d="M530.785 65.7952L531.099 66.5738C531.668 67.9259 532.749 68.9985 534.105 69.5585L534.948 69.8938L534.148 70.229C533.464 70.5041 532.843 70.914 532.321 71.4342C531.799 71.9544 531.387 72.5743 531.109 73.257L530.882 73.8302L530.547 73.1165C529.924 71.8255 528.822 70.8284 527.476 70.3372L526.74 70.0668L527.703 69.6018C528.914 69.0219 529.866 68.0119 530.374 66.7684L530.785 65.7952Z" fill="#E0E0E0"/>
<path d="M532.223 98.6301L532.709 99.7981C533.129 100.807 533.745 101.724 534.521 102.494C535.297 103.264 536.217 103.873 537.23 104.286L538.506 104.794L537.284 105.292C536.257 105.709 535.324 106.328 534.54 107.112C533.756 107.895 533.137 108.828 532.72 109.855L532.385 110.71L531.866 109.628C530.937 107.68 529.278 106.177 527.248 105.443L526.167 105.043L527.616 104.34C529.432 103.458 530.862 101.943 531.639 100.079L532.223 98.6301Z" fill="#263238"/>
<path d="M332.407 46.6448L332.634 47.1963C332.836 47.6725 333.132 48.1034 333.503 48.4637C333.875 48.824 334.314 49.1064 334.797 49.2943L335.391 49.543L334.818 49.7701C334.33 49.9648 333.886 50.257 333.514 50.6289C333.142 51.0008 332.85 51.4445 332.655 51.933L332.493 52.3331L332.244 51.8357C331.812 50.9192 331.034 50.2115 330.081 49.8675L329.562 49.6836L330.244 49.3484C331.098 48.9351 331.771 48.2235 332.136 47.3477L332.407 46.6448Z" fill="#263238"/>
<path d="M181.655 136.294L181.947 136.997C182.199 137.606 182.569 138.159 183.037 138.624C183.505 139.088 184.061 139.454 184.672 139.701L185.44 140.014L184.705 140.306C184.085 140.557 183.521 140.93 183.049 141.404C182.577 141.878 182.206 142.443 181.958 143.064L181.753 143.583L181.439 142.934C180.872 141.763 179.871 140.859 178.649 140.414L177.978 140.166L178.854 139.744C179.95 139.209 180.815 138.294 181.288 137.17L181.655 136.294Z" fill="#263238"/>
<path d="M619.16 108.998C609.958 109.003 600.97 111.771 593.359 116.943C585.749 122.115 579.866 129.452 576.473 138.005C573.08 146.559 572.333 155.934 574.329 164.916C576.325 173.899 580.972 182.075 587.668 188.386L581.461 210.123L603.414 198.119C609.722 200.418 616.457 201.308 623.145 200.725C629.833 200.142 636.313 198.102 642.128 194.747C647.943 191.392 652.953 186.805 656.806 181.306C660.658 175.808 663.26 169.533 664.427 162.921C665.595 156.31 665.3 149.523 663.564 143.038C661.828 136.553 658.692 130.526 654.377 125.383C650.063 120.239 644.674 116.103 638.59 113.265C632.505 110.427 625.873 108.956 619.16 108.955V108.998Z" fill="#007BFF"/>
<path d="M619.16 109C619.16 109 619.43 109 619.982 109L622.382 109.098C622.912 109.098 623.464 109.098 624.156 109.195L626.319 109.509C627.087 109.638 627.919 109.714 628.795 109.909L631.553 110.601C642.679 113.605 652.247 120.726 658.318 130.521L659.746 132.868C660.157 133.689 660.568 134.533 660.979 135.387C663.595 140.838 665.067 146.767 665.304 152.809C665.415 154.972 665.379 157.14 665.196 159.298C665.121 160.379 664.893 161.461 664.742 162.542C664.656 163.094 664.58 163.623 664.493 164.197L664.072 165.84C663.016 170.381 661.238 174.722 658.805 178.699C653.629 187.35 645.763 194.069 636.409 197.829C626.331 201.81 615.189 202.192 604.863 198.911L603.371 198.391H603.598C596.114 202.49 588.772 206.513 581.645 210.395L581.072 210.72L581.245 210.082C583.408 202.587 585.473 195.32 587.463 188.345L587.539 188.615C584.682 185.897 582.169 182.839 580.055 179.51C578.053 176.295 576.441 172.854 575.254 169.258C574.145 165.812 573.444 162.247 573.166 158.638C573.08 157.762 573.048 156.886 573.037 156.021C572.988 155.157 572.988 154.29 573.037 153.426C573.063 151.734 573.212 150.046 573.48 148.375C574.394 142.166 576.573 136.21 579.882 130.878C582.71 126.309 586.298 122.256 590.491 118.895L593.346 116.733L596.233 114.981C597.131 114.425 598.067 113.934 599.034 113.51C599.964 113.088 600.83 112.602 601.738 112.277C604.754 111.077 607.885 110.189 611.081 109.628L614.564 109.119L617.116 109.011H618.684L617.127 109.119L614.575 109.271L611.114 109.811C607.938 110.402 604.829 111.311 601.835 112.526C600.938 112.85 600.083 113.348 599.164 113.769C598.203 114.201 597.27 114.696 596.374 115.251L593.476 117.014L590.696 119.177C586.554 122.515 583.013 126.539 580.228 131.072C576.982 136.374 574.858 142.285 573.988 148.44C573.729 150.097 573.584 151.77 573.556 153.447C573.507 154.301 573.507 155.157 573.556 156.01C573.556 156.865 573.556 157.73 573.686 158.606C573.974 162.171 574.675 165.691 575.773 169.096C578.173 176.388 582.359 182.965 587.95 188.226L588.069 188.334L588.015 188.496C586.036 195.461 583.959 202.728 581.829 210.233L581.429 209.909L603.371 197.905L603.479 197.84H603.609L605.09 198.348C615.289 201.593 626.297 201.211 636.246 197.267C645.495 193.554 653.276 186.919 658.405 178.374C660.817 174.445 662.584 170.155 663.639 165.667C663.78 165.127 663.92 164.586 664.05 164.045L664.31 162.401C664.45 161.32 664.677 160.239 664.764 159.157C664.943 157.028 664.983 154.889 664.883 152.755C664.674 146.759 663.234 140.869 660.654 135.452L659.443 132.954L658.037 130.629C654.645 125.126 650.118 120.41 644.757 116.797C640.707 114.079 636.25 112.024 631.553 110.709L628.806 109.984C627.941 109.79 627.108 109.703 626.351 109.563L624.188 109.227C623.54 109.13 622.945 109.141 622.426 109.098L620.025 108.946C619.43 109.033 619.16 109 619.16 109Z" fill="#263238"/>
<path d="M609.081 148.68H612.326L619.42 138.785V132.296C619.42 132.296 624.448 131.993 623.854 140.494C623.259 148.994 623.854 146.82 623.854 146.82C623.854 146.82 634.517 146.82 635.403 147.793C636.052 148.464 636.344 159.062 636.485 164.815C636.554 166.2 636.159 167.569 635.361 168.703C634.564 169.838 633.41 170.673 632.083 171.076C631.705 171.174 631.317 171.225 630.926 171.228C628.266 171.228 614.705 169.065 614.705 169.065H609.081V148.68Z" fill="white"/>
<path d="M599.813 146.892L601.814 169.126H607.383V147.335L599.813 146.892Z" fill="white"/>
<path d="M152.889 156.019C152.705 159.491 148.185 164.119 149.58 167.299C152.154 173.16 150.662 180.179 147.331 185.683C144 191.188 139.015 195.416 134.116 199.504C134.363 190.957 133.619 182.411 131.899 174.036C131.358 171.419 130.471 168.499 128.081 167.31C124.978 165.774 121.041 167.991 117.862 166.628C114.477 165.158 113.796 160.529 110.941 158.193C108.356 156.084 104.56 156.311 101.392 157.371C98.2229 158.431 95.3139 160.215 92.0588 160.94C88.8037 161.664 84.8781 161.016 83.0721 158.204C81.9907 156.474 82.7585 157.533 81.6987 155.771C81.6987 155.771 75.3507 155.987 73.1662 148.601C73.1662 148.601 70.1814 140.393 76.789 136.77C76.789 136.77 78.2922 121.933 93.2051 128.605C97.5308 130.53 102.57 124.344 106.755 126.442C110.238 128.205 111.265 133.05 114.747 134.823C118.749 136.856 123.399 133.828 127.876 133.645C130.744 133.645 133.495 134.784 135.523 136.812C137.551 138.84 138.69 141.591 138.69 144.459C138.69 144.459 139.393 141.496 144.249 142.794C149.104 144.091 153.235 149.25 152.889 156.019Z" fill="#263238"/>
<path d="M146.563 179.896C146.657 178.217 146.345 176.541 145.655 175.008C145.028 173.743 142.681 170.866 140.107 170.682L140.486 155.402C140.514 153.885 139.975 152.413 138.975 151.273C137.975 150.133 136.586 149.407 135.078 149.237L105.134 146.08C102.686 145.821 100.211 146.06 97.8586 146.783C95.5058 147.506 93.3237 148.697 91.4434 150.285C89.5632 151.874 88.0238 153.826 86.9178 156.025C85.8119 158.223 85.1623 160.623 85.0082 163.08C84.2836 174.597 83.851 188.688 85.2136 197.275C87.9605 214.577 101.197 216.74 101.197 216.74L100.873 228.809C100.364 241.667 109.989 249.41 119.917 249.41C129.844 249.41 139.015 240.835 138.723 228.106L139.696 189.175C141.373 189.02 142.934 188.249 144.076 187.012C145.722 185.01 146.604 182.488 146.563 179.896Z" fill="#FFBE9D"/>
<path d="M91.6477 172.457C91.6447 173.039 91.8692 173.599 92.2734 174.017C92.6775 174.435 93.2292 174.679 93.8106 174.696C94.3774 174.729 94.9344 174.537 95.3613 174.163C95.7882 173.789 96.0508 173.262 96.0924 172.695C96.1026 172.405 96.0542 172.116 95.95 171.844C95.8459 171.573 95.6882 171.326 95.4863 171.117C95.2845 170.908 95.0426 170.742 94.7751 170.628C94.5076 170.515 94.2201 170.457 93.9296 170.457C93.3627 170.424 92.8058 170.615 92.3789 170.99C91.952 171.364 91.6894 171.891 91.6477 172.457Z" fill="#263238"/>
<path d="M88.0143 170.411C88.2846 170.703 89.9609 169.459 92.34 169.459C94.7192 169.459 96.4711 170.659 96.7306 170.368C96.8496 170.238 96.5684 169.719 95.8114 169.167C94.7803 168.451 93.5521 168.073 92.2968 168.086C91.0605 168.066 89.8508 168.445 88.847 169.167C88.1224 169.762 87.8304 170.281 88.0143 170.411Z" fill="#263238"/>
<path d="M114.661 172.899C114.655 173.481 114.878 174.043 115.283 174.461C115.688 174.88 116.241 175.123 116.823 175.137C117.39 175.17 117.947 174.979 118.374 174.604C118.801 174.23 119.064 173.703 119.105 173.137C119.111 172.554 118.888 171.993 118.483 171.574C118.078 171.155 117.525 170.912 116.942 170.898C116.376 170.865 115.819 171.057 115.392 171.431C114.965 171.805 114.702 172.333 114.661 172.899Z" fill="#263238"/>
<path d="M111.449 170.859C111.72 171.151 113.396 169.907 115.775 169.918C118.154 169.929 119.906 171.107 120.166 170.815C120.284 170.686 120.014 170.167 119.246 169.615C118.215 168.899 116.987 168.521 115.732 168.534C114.496 168.519 113.288 168.898 112.282 169.615C111.557 170.21 111.309 170.729 111.449 170.859Z" fill="#263238"/>
<path d="M102.787 188.54C101.529 188.151 100.229 187.915 98.9152 187.837C98.3096 187.783 97.7364 187.653 97.6283 187.242C97.5823 186.613 97.7254 185.984 98.0392 185.436L99.8344 180.819C102.343 174.211 104.16 168.782 103.879 168.685C103.598 168.588 101.37 173.854 98.8719 180.462C98.2663 182.084 97.6932 183.641 97.1524 185.123C96.7676 185.857 96.6528 186.703 96.828 187.513C96.9177 187.727 97.0548 187.918 97.229 188.072C97.4032 188.225 97.61 188.337 97.8338 188.4C98.1864 188.496 98.5498 188.546 98.9152 188.551C100.201 188.715 101.502 188.712 102.787 188.54Z" fill="#263238"/>
<path d="M101.143 216.751C109.279 216.873 117.291 214.735 124.285 210.576C124.285 210.576 118.294 223.553 101.002 221.964L101.143 216.751Z" fill="#EB996E"/>
<path d="M110.367 166.68C110.605 167.328 112.984 167.026 115.774 167.361C118.564 167.696 120.835 168.442 121.181 167.88C121.343 167.599 120.954 166.993 120.046 166.366C118.832 165.582 117.449 165.097 116.012 164.949C114.583 164.778 113.134 164.948 111.784 165.447C110.789 165.868 110.27 166.377 110.367 166.68Z" fill="#263238"/>
<path d="M87.6249 164.866C88.0467 165.407 89.6797 164.866 91.6587 164.866C93.6377 164.866 95.3031 165.223 95.6924 164.66C95.8655 164.379 95.5951 163.838 94.8705 163.33C93.8895 162.72 92.7499 162.414 91.5951 162.45C90.4404 162.487 89.3224 162.865 88.3819 163.536C87.6682 164.044 87.4411 164.595 87.6249 164.866Z" fill="#263238"/>
<path d="M103.316 202.036C103.316 201.982 103.479 201.69 103.965 201.387C104.62 200.999 105.367 200.798 106.128 200.803C106.886 200.794 107.633 200.988 108.291 201.365C108.778 201.668 108.994 201.949 108.951 202.003C108.054 201.668 107.115 201.457 106.161 201.376C105.184 201.45 104.225 201.672 103.316 202.036Z" fill="#EB996E"/>
<path d="M138.517 184.492C139.082 184.261 139.631 183.994 140.161 183.691C140.754 183.303 141.244 182.778 141.593 182.161C141.941 181.544 142.136 180.852 142.162 180.144C142.173 179.432 142.017 178.726 141.705 178.086C141.393 177.445 140.934 176.887 140.366 176.457C139.876 176.118 139.313 175.899 138.723 175.819C138.668 175.754 139.523 175.462 140.593 176.121C141.267 176.551 141.82 177.147 142.199 177.851C142.577 178.555 142.769 179.345 142.756 180.144C142.743 181.031 142.464 181.894 141.956 182.621C141.553 183.207 141.02 183.691 140.399 184.037C139.85 184.417 139.179 184.579 138.517 184.492Z" fill="#EB996E"/>
<path d="M81.6985 141.96C78.9084 149.421 85.5376 154.829 90.7069 156.018C97.9308 157.705 105.609 153.142 110.551 155.077C114.239 156.526 117.721 159.403 121.636 158.808C123.539 158.527 125.421 157.435 127.27 157.932C129.638 158.581 130.601 161.458 130.514 163.913C130.449 166.941 129.433 169.947 129.811 172.953C130.19 175.96 132.872 179.063 135.803 178.263C137.18 177.803 138.385 176.937 139.261 175.779C140.138 174.621 140.643 173.225 140.712 171.775C141.058 167.611 140.291 162.658 140.496 158.484C140.68 154.807 140.691 150.762 138.333 147.918C135.976 145.074 131.996 144.306 128.33 143.809C112.868 141.68 97.2551 140.855 81.6553 141.343" fill="#263238"/>
<path d="M72.6033 143.549C72.51 143.299 72.4588 143.036 72.4519 142.77C72.412 141.997 72.5683 141.227 72.9061 140.531C73.4408 139.414 74.3687 138.532 75.5123 138.055C76.2357 137.779 77.0175 137.694 77.7834 137.806C78.5944 137.882 79.4055 138.098 80.2598 138.141C81.146 138.191 82.0287 137.996 82.812 137.579C83.6672 137.102 84.4622 136.525 85.1804 135.86C85.959 135.189 86.7484 134.454 87.6568 133.794C88.6026 133.104 89.6876 132.628 90.8362 132.399C93.3176 132.026 95.8533 132.458 98.071 133.632C100.375 134.904 102.523 136.439 104.473 138.206C106.367 139.97 108.523 141.429 110.864 142.532C111.974 142.997 113.181 143.182 114.379 143.073C115.514 142.901 116.612 142.535 117.623 141.991C119.521 140.853 121.537 139.925 123.636 139.223C125.523 138.684 127.515 138.621 129.433 139.039C131.014 139.397 132.468 140.179 133.639 141.299C134.514 142.147 135.196 143.172 135.64 144.306C135.916 145.021 136.066 145.778 136.083 146.544C136.098 146.742 136.098 146.941 136.083 147.139C136.083 147.269 136.083 147.334 136.083 147.334C136.07 146.326 135.872 145.329 135.499 144.392C135.038 143.306 134.352 142.33 133.488 141.526C132.342 140.473 130.934 139.748 129.411 139.428C127.559 139.053 125.644 139.134 123.831 139.666C121.765 140.382 119.782 141.318 117.915 142.456C116.836 143.021 115.664 143.387 114.455 143.538C113.17 143.667 111.874 143.478 110.681 142.986C108.287 141.868 106.08 140.387 104.138 138.596C102.22 136.856 100.108 135.343 97.8439 134.086C95.7352 132.959 93.3229 132.531 90.9552 132.864C88.695 133.243 87.062 134.832 85.548 136.173C84.7951 136.851 83.9636 137.435 83.0716 137.914C82.2148 138.356 81.2544 138.558 80.2923 138.498C79.3947 138.433 78.5836 138.206 77.805 138.109C77.079 137.993 76.3357 138.06 75.6421 138.304C74.5563 138.738 73.6622 139.548 73.1224 140.586C72.7714 141.253 72.586 141.995 72.5817 142.748C72.56 143.278 72.6898 143.538 72.6033 143.549Z" fill="#455A64"/>
<path d="M80.9635 155.577C80.7159 155.646 80.4541 155.646 80.2065 155.577C79.842 155.505 79.497 155.356 79.1949 155.139C78.8927 154.923 78.6403 154.644 78.4546 154.322C77.9329 153.271 77.7878 152.072 78.0437 150.927C78.2986 149.412 78.9061 147.978 79.8172 146.742C80.9205 145.223 82.4537 144.071 84.2186 143.432C86.244 142.68 88.4621 142.623 90.5234 143.27C92.715 144.088 94.7628 145.249 96.5902 146.709C98.491 148.258 100.646 149.466 102.96 150.278C105.323 150.878 107.813 150.742 110.097 149.889C112.257 149.115 114.333 148.126 116.294 146.936C118.094 145.855 119.953 144.877 121.863 144.006C123.543 143.241 125.344 142.776 127.184 142.632C128.523 142.522 129.87 142.685 131.144 143.113C132.418 143.54 133.591 144.223 134.592 145.119C135.111 145.629 135.542 146.221 135.868 146.871C135.984 147.098 136.071 147.337 136.127 147.585C135.71 146.724 135.142 145.944 134.451 145.282C133.454 144.446 132.301 143.817 131.06 143.429C129.818 143.041 128.512 142.903 127.216 143.022C125.424 143.189 123.675 143.669 122.047 144.438C120.161 145.316 118.327 146.302 116.553 147.39C114.566 148.606 112.461 149.617 110.27 150.408C107.88 151.304 105.272 151.447 102.798 150.819C100.441 149.981 98.2467 148.744 96.309 147.163C94.5342 145.73 92.5454 144.584 90.4152 143.768C88.4579 143.142 86.3494 143.177 84.4133 143.865C82.7261 144.466 81.2522 145.549 80.1741 146.98C79.2776 148.156 78.6701 149.527 78.4005 150.981C78.1241 152.064 78.2271 153.209 78.6925 154.225C78.8521 154.535 79.0735 154.81 79.3432 155.031C79.6129 155.252 79.9251 155.416 80.2606 155.512C80.4926 155.554 80.7278 155.575 80.9635 155.577Z" fill="#455A64"/>
<path d="M147.19 184.397C147.19 184.397 147.58 183.877 148.153 182.883C148.939 181.462 149.38 179.876 149.44 178.254C149.489 177.157 149.35 176.06 149.029 175.01C148.632 173.795 148.048 172.649 147.298 171.614C146.541 170.533 145.644 169.343 144.854 168.045C143.957 166.714 143.465 165.152 143.438 163.547C143.592 161.964 144.086 160.433 144.887 159.059C145.578 157.837 145.992 156.478 146.098 155.079C146.128 153.897 145.849 152.729 145.29 151.688C144.73 150.646 143.909 149.769 142.908 149.142C141.511 148.316 139.873 147.995 138.268 148.233C137.684 148.338 137.106 148.479 136.538 148.655C136.66 148.558 136.795 148.478 136.938 148.417C137.355 148.237 137.79 148.103 138.236 148.017C139.899 147.683 141.627 147.959 143.102 148.796C144.192 149.441 145.091 150.363 145.708 151.469C146.326 152.574 146.639 153.824 146.617 155.09C146.519 156.565 146.098 158.002 145.384 159.297C144.624 160.602 144.152 162.055 144 163.557C144.027 165.059 144.489 166.52 145.33 167.764C146.087 169.019 146.974 170.165 147.731 171.322C148.496 172.41 149.087 173.61 149.483 174.88C149.803 175.996 149.923 177.161 149.84 178.319C149.747 179.968 149.249 181.569 148.391 182.98C148.155 183.365 147.884 183.728 147.58 184.061C147.309 184.299 147.201 184.407 147.19 184.397Z" fill="#455A64"/>
<path d="M101.889 171.775C101.789 170.87 101.637 169.971 101.435 169.082C101.052 167.602 100.364 166.217 99.4148 165.018C98.4656 163.819 97.2763 162.831 95.9231 162.118C94.5699 161.406 93.0827 160.984 91.5569 160.879C90.0311 160.775 88.5002 160.99 87.0626 161.512C85.0542 162.264 83.3073 163.583 82.034 165.308C80.668 167.165 79.9313 169.41 79.9313 171.716C79.9313 174.021 80.668 176.266 82.034 178.123C82.6654 179.016 83.44 179.798 84.3266 180.437C85.1562 181.07 86.0793 181.57 87.0626 181.919C88.7718 182.549 90.6116 182.74 92.4138 182.475C94.216 182.211 95.9233 181.499 97.3795 180.405C99.3622 178.912 100.789 176.8 101.435 174.403C101.636 173.518 101.787 172.623 101.889 171.721C101.957 172.64 101.877 173.564 101.651 174.457C101.076 176.99 99.6289 179.241 97.5633 180.816C96.0616 181.977 94.2911 182.74 92.4158 183.035C90.5405 183.33 88.6212 183.147 86.8355 182.503C85.7986 182.145 84.8243 181.627 83.9481 180.967C83.0217 180.296 82.2077 179.482 81.5365 178.556C80.0897 176.607 79.3086 174.245 79.3086 171.818C79.3086 169.392 80.0897 167.029 81.5365 165.081C82.8737 163.268 84.7174 161.891 86.8355 161.123C88.7484 160.439 90.8093 160.278 92.805 160.658C94.9226 161.07 96.8771 162.083 98.4358 163.574C99.9945 165.066 101.092 166.974 101.597 169.071C101.836 169.952 101.935 170.864 101.889 171.775Z" fill="#263238"/>
<path d="M127.238 171.775C127.144 170.869 126.993 169.969 126.784 169.082C126.402 167.602 125.715 166.218 124.767 165.019C123.819 163.819 122.631 162.832 121.278 162.119C119.926 161.406 118.439 160.984 116.914 160.879C115.389 160.775 113.859 160.99 112.422 161.512C110.409 162.26 108.657 163.579 107.383 165.308C106.017 167.165 105.28 169.41 105.28 171.716C105.28 174.021 106.017 176.266 107.383 178.123C108.017 179.013 108.791 179.795 109.675 180.437C110.51 181.068 111.436 181.568 112.422 181.919C113.851 182.437 115.371 182.653 116.887 182.552C118.404 182.452 119.883 182.038 121.231 181.337C122.579 180.635 123.766 179.662 124.718 178.478C125.671 177.293 126.366 175.924 126.762 174.457C126.969 173.573 127.121 172.678 127.216 171.775C127.291 172.694 127.211 173.619 126.978 174.511C126.416 177.013 125.002 179.242 122.977 180.816C121.475 181.977 119.705 182.74 117.829 183.035C115.954 183.33 114.035 183.147 112.249 182.503C111.212 182.145 110.238 181.627 109.362 180.967C108.432 180.296 107.615 179.482 106.939 178.556C105.499 176.605 104.722 174.243 104.722 171.818C104.722 169.393 105.499 167.032 106.939 165.081C108.284 163.271 110.13 161.895 112.249 161.123C114.162 160.439 116.223 160.278 118.219 160.658C120.334 161.074 122.285 162.087 123.842 163.578C125.398 165.07 126.494 166.976 127 169.071C127.227 169.953 127.308 170.867 127.238 171.775Z" fill="#263238"/>
<path d="M105.61 169.914V170.022V169.828V170.044C105.013 170.177 104.403 170.235 103.793 170.217C102.711 170.217 101.814 170.087 101.814 169.936C101.814 169.784 102.7 169.655 103.793 169.655C104.403 169.631 105.014 169.689 105.61 169.828V170.044V169.849V169.957V169.914Z" fill="#263238"/>
<path d="M140.594 172.363C138.321 172.487 136.042 172.418 133.781 172.157C131.507 172.091 129.242 171.835 127.011 171.39C129.284 171.278 131.562 171.347 133.824 171.595C136.098 171.667 138.362 171.924 140.594 172.363Z" fill="#263238"/>
<path d="M112.704 187.944C112.905 188.503 112.931 189.111 112.779 189.685C112.548 191.124 111.797 192.428 110.669 193.351C109.541 194.273 108.114 194.751 106.658 194.692C106.063 194.729 105.47 194.581 104.961 194.271C104.961 194.184 105.631 194.357 106.658 194.271C107.994 194.225 109.279 193.742 110.314 192.896C111.349 192.05 112.078 190.888 112.39 189.588C112.704 188.604 112.639 187.944 112.704 187.944Z" fill="#263238"/>
<path d="M69.8678 265.578C69.8816 265.693 69.8816 265.809 69.8678 265.924V266.941C69.8678 267.871 69.8678 269.19 69.9219 270.856C69.9219 274.284 69.9218 279.183 69.9975 285.228C69.9975 297.361 69.6299 314.124 68.689 332.616C67.7482 351.109 66.7749 367.817 66.1152 379.972C65.8124 385.996 65.5637 390.894 65.3906 394.323C65.3041 395.988 65.2393 397.286 65.196 398.216C65.196 398.637 65.1419 398.973 65.1311 399.232C65.1424 399.347 65.1424 399.463 65.1311 399.578C65.1148 399.464 65.1148 399.347 65.1311 399.232C65.1311 398.973 65.1311 398.637 65.1311 398.216C65.1311 397.286 65.1852 395.977 65.2284 394.312C65.3258 390.916 65.4988 386.006 65.7692 379.95C66.2774 367.828 67.2615 351.087 68.1807 332.594C69.1 314.102 69.5974 297.351 69.6623 285.217C69.6623 279.183 69.738 274.284 69.7596 270.856C69.7596 269.19 69.7596 267.871 69.8137 266.941V265.924C69.8177 265.807 69.8358 265.691 69.8678 265.578Z" fill="#263238"/>
<path d="M174.345 246.956C168.527 240.24 157.161 239.256 152.121 242.901C147.082 246.545 144.281 252.731 143.773 258.927C143.265 265.124 144.854 271.342 147.212 277.085C151.008 286.298 156.62 293.76 165.001 303.255L186.63 331.61L144.941 372.316L162.244 399.578L197.682 371.029L226.989 339.97" fill="#FF725E"/>
<path d="M23.6042 334.377C24.2808 333.881 25.0435 333.514 25.8536 333.296C27.7703 332.649 29.7926 332.374 31.8123 332.485C33.8363 332.595 35.8213 333.087 37.6629 333.934C38.4609 334.233 39.1948 334.68 39.8257 335.253C39.8257 335.329 38.9606 334.853 37.5547 334.302C35.7268 333.581 33.7955 333.158 31.8339 333.047C29.8737 332.951 27.9105 333.163 26.0158 333.674C24.5126 334.074 23.6475 334.464 23.6042 334.377Z" fill="#263238"/>
<path d="M179.958 253.328C165.412 234.036 149.753 235.625 141.772 235.398V226.931C135.878 226.931 127.822 232.24 123.658 236.036L119.538 241.692C118.479 238.595 116.712 235.788 114.376 233.496C112.04 231.203 109.201 229.488 106.085 228.488C103.837 227.774 101.532 227.253 99.1962 226.931V234.501C79.6439 235.052 69.1864 240.394 56.1227 255.513C55.4523 256.291 54.1221 257.622 52.5973 259.125L13.9469 304.545C6.05247 313.283 -1.19313 325.308 0.504723 336.988C2.35397 350.138 10.0213 358.789 24.6964 368.706L65.3582 395.061L65.1635 399.592H162.2C162.2 399.592 228.006 351.046 229.617 333.062C230.871 318.852 208.205 288.734 179.958 253.328ZM66.9911 356.4L38.5387 335.171L69.273 303.366L66.9911 356.4ZM160.167 358.087L159.399 342.373L163.531 301.095C171.641 310.395 186.652 328.855 186.652 331.613L160.167 358.087Z" fill="#FFBA6B"/>
<path d="M141.75 235.441C141.544 235.892 141.298 236.322 141.015 236.728C140.496 237.529 139.75 238.686 138.766 240.081C136.232 243.739 133.384 247.169 130.255 250.333C129.336 251.263 128.406 252.139 127.497 252.971L127.043 253.393V252.777C126.991 249.223 125.565 245.828 123.063 243.303C122.405 242.513 121.551 241.909 120.587 241.551C120.216 241.479 119.831 241.544 119.505 241.735C119.632 241.577 119.801 241.458 119.992 241.391C120.183 241.324 120.389 241.312 120.587 241.357C121.628 241.649 122.563 242.234 123.28 243.044C124.451 244.157 125.417 245.468 126.135 246.915C127.031 248.738 127.519 250.735 127.562 252.766L127.108 252.56C127.995 251.728 128.925 250.863 129.833 249.933C132.935 246.782 135.808 243.414 138.43 239.854L140.81 236.609C141.083 236.189 141.398 235.798 141.75 235.441Z" fill="#263238"/>
<path d="M99.1743 234.544C99.4905 234.848 99.7733 235.185 100.018 235.55L102.181 238.394C103.987 240.816 106.431 244.19 109.113 247.932L110.865 250.376L110.378 250.452C110.901 248.704 111.627 247.024 112.541 245.445C113.296 244.163 114.374 243.1 115.666 242.363C116.518 241.869 117.482 241.601 118.467 241.584C118.834 241.547 119.205 241.599 119.548 241.735C119.548 241.735 119.181 241.735 118.467 241.735C117.534 241.83 116.635 242.137 115.839 242.633C114.639 243.39 113.644 244.429 112.941 245.661C112.071 247.22 111.375 248.87 110.865 250.582L110.692 251.09L110.378 250.657L108.626 248.213C105.944 244.472 103.543 241.065 101.824 238.589C101.034 237.41 100.364 236.426 99.8232 235.636C99.5678 235.297 99.3502 234.931 99.1743 234.544Z" fill="#263238"/>
<g opacity="0.1">
<path d="M119.516 241.734C121.137 243.509 122.354 245.615 123.084 247.905C123.814 250.196 124.039 252.617 123.745 255.003C123.539 256.582 123.355 258.691 124.826 259.275C125.853 259.675 126.989 258.972 127.822 258.28C134.131 253.196 139.322 246.863 143.07 239.679C143.432 239.114 143.627 238.458 143.632 237.787C143.624 237.454 143.488 237.137 143.252 236.901C143.017 236.666 142.7 236.53 142.367 236.521C141.923 236.645 141.538 236.925 141.285 237.311C136.787 242.502 131.812 247.898 127.313 253.078C127.516 250.195 126.624 247.341 124.815 245.086C123.031 242.924 121.084 240.685 119.549 241.734" fill="black"/>
</g>
<path d="M161.011 397.774C160.884 397.635 160.771 397.483 160.676 397.32C160.438 396.974 160.146 396.52 159.767 395.957L156.447 390.81C153.625 386.333 149.677 380.093 145.081 372.836L144.973 372.653L145.125 372.512L155.268 362.39L177.34 340.545C180.152 337.798 182.445 335.57 184.067 333.97L185.927 332.207C186.135 331.992 186.359 331.793 186.597 331.612C186.42 331.853 186.221 332.078 186.003 332.283C185.559 332.748 184.921 333.364 184.229 334.132L177.589 340.869L155.625 362.833C152.057 366.391 148.618 369.798 145.471 372.923V372.599C149.991 379.898 153.884 386.171 156.663 390.68C158.004 392.843 159.086 394.638 159.854 395.914C160.2 396.487 160.47 396.996 160.686 397.32C160.811 397.459 160.92 397.611 161.011 397.774Z" fill="#263238"/>
<path d="M149.082 246.404L148.92 246.609L148.423 247.193C147.958 247.691 147.341 248.469 146.563 249.486C144.423 252.404 143.003 255.788 142.421 259.359C141.731 264.684 142.568 270.096 144.832 274.964C146.063 277.871 147.662 280.608 149.591 283.108C151.634 285.714 153.797 288.32 156.014 291.121C164.741 302.119 172.236 312.36 177.751 319.714L184.24 328.441C184.986 329.436 185.57 330.236 186.002 330.82L186.446 331.448L186.586 331.664C186.586 331.664 186.511 331.61 186.403 331.48L185.916 330.885L184.077 328.517C182.488 326.495 180.217 323.553 177.427 319.865C171.846 312.577 164.287 302.368 155.582 291.391C153.419 288.634 151.256 285.984 149.158 283.421C147.209 280.877 145.595 278.093 144.356 275.137C142.077 270.178 141.27 264.667 142.031 259.262C142.868 254.662 145.086 250.426 148.39 247.118L148.931 246.577C149.007 246.458 149.071 246.393 149.082 246.404Z" fill="#263238"/>
<path d="M185.559 260.368C185.559 260.422 184.965 260.628 183.948 261.169C182.527 261.953 181.232 262.948 180.109 264.121C178.453 265.875 177.002 267.813 175.783 269.896C174.301 272.499 172.688 275.026 170.949 277.466C169.317 279.687 167.206 281.513 164.772 282.809C162.339 284.104 159.645 284.836 156.891 284.949C155.237 285.032 153.579 284.876 151.97 284.484C151.534 284.385 151.104 284.259 150.683 284.106C150.534 284.057 150.39 283.995 150.251 283.922C152.416 284.443 154.644 284.654 156.869 284.549C159.27 284.385 161.617 283.757 163.779 282.7C166.422 281.402 168.714 279.488 170.463 277.12C172.377 274.632 173.826 271.972 175.297 269.658C176.555 267.556 178.061 265.613 179.785 263.872C180.958 262.698 182.317 261.726 183.808 260.996C184.214 260.805 184.633 260.643 185.062 260.509C185.221 260.44 185.388 260.392 185.559 260.368Z" fill="#FAFAFA"/>
<path d="M159.767 355.456H159.508L158.783 355.283C158.459 355.197 158.059 355.143 157.583 355.067C157.039 354.976 156.49 354.915 155.939 354.883C152.409 354.721 148.878 355.175 145.503 356.224C143.159 356.899 140.864 357.737 138.636 358.733C136.236 359.814 133.748 361.134 131.066 362.399C128.265 363.775 125.339 364.883 122.328 365.708C120.72 366.123 119.076 366.384 117.419 366.487C115.705 366.569 113.988 366.445 112.303 366.119C109.014 365.374 105.873 364.08 103.014 362.291C100.224 360.626 97.7257 358.733 95.3358 356.981C90.6099 353.434 86.0895 350.493 81.7962 349.216C79.8786 348.621 77.888 348.294 75.8808 348.243C74.3676 348.214 72.8576 348.392 71.3929 348.773C70.1482 349.123 68.9446 349.605 67.8025 350.211L68.008 350.06L68.6568 349.671C69.5071 349.21 70.4069 348.847 71.3388 348.589C72.8198 348.169 74.3522 347.958 75.8916 347.962C77.928 347.979 79.9519 348.281 81.9044 348.86C86.295 350.103 90.8911 353.066 95.6386 356.592C98.0393 358.344 100.537 360.204 103.295 361.848C106.101 363.602 109.183 364.871 112.412 365.6C114.049 365.923 115.72 366.043 117.386 365.957C119.007 365.864 120.615 365.614 122.188 365.211C125.166 364.401 128.063 363.315 130.839 361.967C133.521 360.712 136.019 359.393 138.409 358.344C140.661 357.355 142.981 356.531 145.352 355.878C148.77 354.851 152.346 354.452 155.907 354.699C157.223 354.771 158.522 355.025 159.767 355.456Z" fill="#FAFAFA"/>
<path d="M52.8675 345.853C52.8675 345.853 52.9215 345.982 52.954 346.231C53.0218 346.588 53.0652 346.949 53.0837 347.312C53.1917 348.652 53.1336 349.999 52.9107 351.325C52.591 353.317 51.8218 355.211 50.6613 356.862C49.1748 358.824 47.2825 360.444 45.1136 361.609C42.9507 362.939 40.7122 364.053 38.9278 365.351C37.315 366.446 35.9029 367.81 34.7535 369.385C33.994 370.449 33.5618 371.712 33.5098 373.018C33.5098 373.948 33.6504 374.456 33.5855 374.467C33.5216 374.357 33.4776 374.236 33.4558 374.11C33.363 373.756 33.305 373.394 33.2827 373.029C33.2389 371.662 33.6164 370.314 34.3642 369.168C35.4979 367.512 36.9233 366.075 38.5709 364.929C40.3877 363.577 42.583 362.442 44.7675 361.133C46.8661 359.997 48.707 358.44 50.1747 356.559C51.3111 354.979 52.0897 353.171 52.4565 351.26C52.704 349.963 52.8199 348.644 52.8026 347.323C52.7893 346.832 52.8109 346.341 52.8675 345.853Z" fill="#FAFAFA"/>
<path d="M216.067 301.094C213.847 301.467 211.689 302.144 209.654 303.105C207.476 304.169 205.519 305.637 203.89 307.431C202.937 308.496 202.116 309.673 201.446 310.935C200.732 312.244 200.245 313.725 199.542 315.185C198.899 316.655 197.926 317.958 196.698 318.992C195.544 319.933 194.234 320.665 192.827 321.155C190.459 321.939 187.96 322.247 185.473 322.063C183.812 321.963 182.158 321.768 180.52 321.479C179.916 321.4 179.32 321.273 178.736 321.1C179.345 321.103 179.953 321.157 180.552 321.263C181.72 321.382 183.397 321.609 185.484 321.663C187.916 321.786 190.349 321.445 192.654 320.657C194.055 320.203 195.346 319.462 196.445 318.481C197.544 317.499 198.426 316.3 199.034 314.958C199.715 313.53 200.213 312.038 200.959 310.686C201.669 309.397 202.537 308.202 203.544 307.128C205.229 305.286 207.261 303.794 209.524 302.738C211.033 302.021 212.634 301.519 214.282 301.245C214.73 301.172 215.181 301.121 215.634 301.094C215.777 301.07 215.923 301.07 216.067 301.094Z" fill="#FAFAFA"/>
<path d="M162.319 310.221L162.071 310.297L161.335 310.459C160.686 310.599 159.724 310.772 158.47 310.967C154.938 311.512 151.368 311.765 147.796 311.724C142.478 311.687 137.202 310.792 132.169 309.075C129.221 308.004 126.376 306.668 123.669 305.084C120.8 303.384 117.799 301.919 114.693 300.704C113.114 300.146 111.472 299.783 109.805 299.623C108.183 299.5 106.552 299.58 104.949 299.861C101.928 300.479 99.0135 301.535 96.298 302.997C91.0531 305.776 86.6408 308.869 82.6503 311.021C79.5646 312.853 76.2002 314.168 72.6903 314.914C71.7413 315.118 70.7736 315.223 69.8029 315.228H69.0459C68.9598 315.24 68.8725 315.24 68.7864 315.228H69.0459L69.7921 315.141C70.7543 315.085 71.7097 314.944 72.6471 314.72C76.1048 313.899 79.4139 312.545 82.4557 310.708C86.3813 308.545 90.7719 305.398 96.0493 302.564C98.8171 301.051 101.795 299.957 104.885 299.32C106.533 299.027 108.211 298.94 109.881 299.061C111.597 299.23 113.287 299.611 114.909 300.196C118.044 301.42 121.072 302.903 123.961 304.63C126.646 306.195 129.461 307.527 132.375 308.61C137.349 310.331 142.565 311.255 147.828 311.346C151.381 311.424 154.935 311.233 158.459 310.772C159.713 310.61 160.676 310.47 161.335 310.362L162.082 310.264C162.159 310.24 162.239 310.225 162.319 310.221Z" fill="#FAFAFA"/>
<path d="M56.6092 316.468C56.7146 315.915 56.6924 315.346 56.5444 314.803C56.2407 314.103 55.7741 313.485 55.1834 313.002C54.5928 312.518 53.8951 312.183 53.1486 312.024C52.2078 311.742 51.1372 311.58 49.9909 311.321C48.7201 311.086 47.5275 310.54 46.5195 309.731C45.4628 308.778 44.641 307.594 44.1187 306.27C43.5866 304.865 43.1707 303.418 42.8751 301.945C42.5944 300.511 42.1817 299.106 41.6422 297.749C41.1229 296.498 40.4431 295.32 39.6199 294.245C38.2311 292.404 36.4459 290.9 34.3966 289.843C33.0344 289.13 31.5781 288.613 30.0709 288.308C28.9895 288.092 28.373 288.048 28.373 287.994C28.523 287.964 28.6773 287.964 28.8273 287.994C29.2547 288.008 29.6808 288.047 30.1033 288.113C31.6788 288.332 33.2088 288.803 34.6345 289.508C36.7546 290.554 38.6049 292.075 40.0417 293.953C40.9206 295.051 41.648 296.262 42.2046 297.554C42.7644 298.953 43.1917 300.401 43.4807 301.88C43.7673 303.312 44.1687 304.719 44.681 306.087C45.1696 307.322 45.9312 308.431 46.9088 309.331C47.847 310.102 48.9616 310.63 50.1531 310.866C51.2345 311.148 52.316 311.332 53.3217 311.645C54.1128 311.835 54.8451 312.216 55.4542 312.756C56.0633 313.295 56.5305 313.976 56.8147 314.738C56.9246 315.167 56.9246 315.617 56.8147 316.047C56.7779 316.2 56.7078 316.344 56.6092 316.468Z" fill="#FAFAFA"/>
<path d="M142.021 261.003C141.016 260.449 139.948 260.017 138.841 259.716C137.528 259.446 136.174 259.446 134.862 259.716C133.112 260.06 131.414 260.631 129.811 261.414C128.005 262.225 126.102 263.284 124.026 264.377C121.826 265.601 119.493 266.57 117.072 267.264C114.349 267.93 111.517 268.022 108.756 267.534C105.814 266.997 102.961 266.054 100.277 264.734C94.7513 262.041 90.1552 258.429 85.7214 255.617C81.9002 252.958 77.6331 251.006 73.1227 249.853C70.0754 249.105 66.897 249.068 63.8332 249.745C62.7337 250.049 61.6508 250.41 60.5889 250.826C61.6071 250.252 62.6985 249.82 63.8332 249.539C66.9265 248.767 70.1596 248.745 73.2633 249.475C77.8398 250.583 82.1753 252.518 86.0566 255.184C90.5337 257.985 95.1298 261.587 100.569 264.236C103.206 265.534 106.007 266.466 108.896 267.005C111.584 267.482 114.341 267.401 116.996 266.767C119.385 266.103 121.689 265.167 123.863 263.977C125.94 262.895 127.865 261.814 129.703 261.057C131.346 260.291 133.079 259.739 134.862 259.413C136.22 259.182 137.612 259.233 138.949 259.564C139.781 259.795 140.58 260.129 141.329 260.559C141.567 260.694 141.798 260.842 142.021 261.003Z" fill="#FAFAFA"/>
<path d="M135.911 398.302L138.917 399.805H156.22L159.713 396.95L147.125 376.122C145.579 376.803 138.787 377.863 136.592 378.631C134.698 379.296 132.705 379.632 130.698 379.626C128.461 379.675 126.225 379.491 124.026 379.074L123.55 378.923C123.256 378.796 122.94 378.73 122.62 378.728C120.749 378.566 119.268 380.523 120.317 382.07C121.366 383.616 126.481 385.682 133.013 385.498H133.326C139.058 385.498 133.802 390.3 130.395 393.155C129.794 393.64 129.327 394.272 129.039 394.99C128.751 395.707 128.652 396.487 128.752 397.253C128.771 397.529 128.85 397.797 128.982 398.04C129.115 398.282 129.298 398.494 129.52 398.659C130.969 399.578 135.911 398.302 135.911 398.302Z" fill="#FFBE9D"/>
<path d="M65.3042 395.721C65.2927 395.62 65.2927 395.519 65.3042 395.418C65.3042 395.18 65.3042 394.888 65.3042 394.521C65.3042 393.688 65.3691 392.531 65.4231 391.071C65.5529 388.043 65.7259 383.728 65.953 378.407C66.3964 367.68 67.0345 352.929 67.6941 336.632C68.3538 320.334 68.7756 305.53 69.0784 294.834C69.1973 289.514 69.2839 285.199 69.3487 282.16C69.3487 280.7 69.4028 279.543 69.4244 278.71C69.4244 278.342 69.4244 278.05 69.4244 277.823C69.4107 277.719 69.4107 277.614 69.4244 277.51C69.4407 277.614 69.4407 277.719 69.4244 277.823C69.4244 278.05 69.4244 278.353 69.4244 278.71C69.4244 279.543 69.4244 280.7 69.4244 282.16C69.4244 285.155 69.4244 289.481 69.3379 294.834C69.1865 305.54 68.754 320.324 68.1159 336.653C67.4779 352.983 66.7749 367.744 66.2126 378.429C65.9098 383.739 65.6719 388.054 65.4988 391.082C65.4015 392.542 65.3258 393.699 65.2717 394.521L65.196 395.418C65.2433 395.515 65.2796 395.616 65.3042 395.721Z" fill="#263238"/>
<path d="M112.379 397.775C112.362 397.643 112.362 397.508 112.379 397.375C112.379 397.083 112.325 396.694 112.281 396.197L111.968 391.644C111.838 389.675 111.676 387.253 111.589 384.441C111.503 381.63 111.297 378.439 111.276 374.903C111.254 371.367 111.124 367.484 111.178 363.321C111.178 361.245 111.178 359.093 111.178 356.832C111.178 354.572 111.276 352.334 111.33 349.998C111.6 340.643 112.087 330.37 112.844 319.599C114.358 298.046 116.283 278.591 117.516 264.5C118.121 257.47 118.597 251.782 118.965 247.802C119.127 245.867 119.267 244.342 119.354 243.271C119.408 242.774 119.44 242.384 119.473 242.093C119.505 241.801 119.527 241.692 119.527 241.692C119.542 241.825 119.542 241.96 119.527 242.093L119.473 243.282C119.397 244.364 119.3 245.878 119.181 247.824C118.932 251.771 118.489 257.481 117.916 264.532C116.78 278.591 114.92 298.057 113.406 319.631C112.649 330.445 112.152 340.665 111.849 350.009C111.849 352.344 111.73 354.626 111.676 356.843C111.622 359.06 111.676 361.169 111.6 363.332C111.535 367.484 111.6 371.356 111.6 374.892C111.6 378.429 111.762 381.63 111.827 384.431C111.892 387.231 112.011 389.665 112.108 391.633C112.206 393.601 112.271 395.115 112.325 396.186V397.375C112.357 397.506 112.375 397.64 112.379 397.775Z" fill="#263238"/>
<path d="M120.338 291.229C120.284 291.175 120.89 290.926 121.56 291.499C121.752 291.669 121.9 291.883 121.992 292.122C122.085 292.361 122.118 292.618 122.09 292.873C122.021 293.187 121.859 293.474 121.625 293.695C121.391 293.917 121.096 294.063 120.779 294.115C120.461 294.168 120.135 294.124 119.842 293.989C119.55 293.854 119.304 293.635 119.138 293.359C119.029 293.129 118.978 292.877 118.987 292.623C118.997 292.369 119.067 292.121 119.192 291.899C119.635 291.132 120.273 291.175 120.273 291.251C120.273 291.326 119.808 291.434 119.56 292.073C119.48 292.242 119.439 292.426 119.439 292.613C119.439 292.8 119.48 292.985 119.56 293.154C119.687 293.317 119.855 293.443 120.048 293.518C120.241 293.593 120.451 293.615 120.655 293.58C120.858 293.546 121.049 293.457 121.207 293.323C121.364 293.189 121.483 293.015 121.549 292.819C121.572 292.639 121.556 292.457 121.504 292.284C121.452 292.111 121.364 291.95 121.247 291.813C120.836 291.261 120.338 291.326 120.338 291.229Z" fill="#263238"/>
<path d="M117.299 339.786C117.245 339.731 117.862 339.472 118.532 340.056C118.721 340.225 118.867 340.437 118.957 340.674C119.047 340.911 119.08 341.166 119.051 341.418C118.996 341.739 118.838 342.033 118.603 342.257C118.367 342.481 118.065 342.623 117.743 342.662C117.425 342.726 117.096 342.688 116.801 342.554C116.506 342.42 116.26 342.197 116.099 341.916C115.994 341.683 115.945 341.428 115.956 341.173C115.967 340.917 116.039 340.668 116.164 340.445C116.607 339.677 117.245 339.731 117.245 339.796C117.245 339.861 116.78 339.991 116.531 340.618C116.449 340.787 116.407 340.972 116.407 341.159C116.407 341.346 116.449 341.531 116.531 341.7C116.644 341.884 116.81 342.03 117.006 342.119C117.203 342.209 117.421 342.237 117.634 342.201C117.847 342.165 118.044 342.066 118.201 341.917C118.357 341.768 118.465 341.575 118.51 341.364C118.536 341.187 118.521 341.005 118.469 340.833C118.417 340.662 118.328 340.503 118.208 340.369C117.808 339.786 117.299 339.861 117.299 339.786Z" fill="#263238"/>
<path d="M194.893 373.151C194.405 373.139 193.919 373.078 193.444 372.967C192.137 372.689 190.861 372.28 189.637 371.745C185.561 369.935 182.156 366.89 179.904 363.04C178.766 360.898 177.863 358.639 177.211 356.302C176.677 354.429 175.872 352.644 174.821 351.003C174.097 349.915 173.163 348.981 172.075 348.257C171.285 347.77 170.788 347.608 170.809 347.554C170.936 347.563 171.06 347.592 171.177 347.64C171.525 347.753 171.862 347.898 172.183 348.073C173.36 348.742 174.372 349.666 175.146 350.776C176.271 352.437 177.135 354.261 177.709 356.183C178.372 358.476 179.271 360.694 180.391 362.802C182.591 366.566 185.873 369.58 189.81 371.453C191.458 372.151 193.157 372.718 194.893 373.151Z" fill="#FAFAFA"/>
<path d="M305.674 399.772L287.29 346.414L295.79 295.219C298.266 281.409 299.65 269.265 295.941 262.311C286.024 243.786 274.053 242.121 257.702 237.871C254.327 236.995 228.665 236.13 225.843 236.789C203.576 239.287 189.323 251.097 181.504 270.314L173.025 304.487L161.378 340.174C160.404 342.248 158.976 344.076 157.199 345.523C155.423 346.97 153.344 347.999 151.116 348.534L106.215 363.879L106.593 372.671L106.215 384.567L166.018 373.309C178 371.06 190.188 366.637 193.627 355.076L200.061 336.021C203.208 344.089 206.636 351.486 206.636 351.486L202.311 399.534L305.674 399.772Z" fill="#71D1FF"/>
<path d="M290.274 304.976L273.188 362.108C271.884 366.464 269.523 370.43 266.315 373.652C263.108 376.875 259.153 379.255 254.803 380.579L183.689 399.526L174.258 374.977L238.539 351.078L254.317 293.87C254.317 293.87 257.961 261.881 286.89 263.525" fill="#55C8FF"/>
<path d="M286.879 263.526H286.014C285.441 263.526 284.597 263.461 283.484 263.526C280.227 263.618 277.011 264.273 273.978 265.462C271.785 266.32 269.722 267.477 267.846 268.901C265.623 270.611 263.653 272.628 261.995 274.892C258.031 280.528 255.462 287.026 254.501 293.849C250.175 309.768 244.768 329.255 238.788 351.089V351.219H238.669L174.345 375.238L174.508 374.881L176.184 379.207C178.833 386.128 181.45 392.941 183.927 399.397L183.592 399.224L244.693 383.002L251.581 381.164C252.663 380.861 253.842 380.58 254.945 380.256C256.027 379.915 257.089 379.51 258.124 379.044C264.052 376.362 268.822 371.642 271.566 365.743C272.383 363.917 273.056 362.029 273.578 360.098C274.717 356.32 275.798 352.715 276.822 349.283C280.985 335.506 284.327 324.41 286.631 316.84L289.302 308.081L290.005 305.821C290.167 305.312 290.264 305.053 290.264 305.053C290.264 305.053 290.199 305.323 290.059 305.831C289.918 306.34 289.691 307.118 289.399 308.113C288.804 310.136 287.939 313.088 286.825 316.905L277.179 349.424C276.162 352.877 275.081 356.482 273.935 360.238C273.416 362.192 272.743 364.101 271.923 365.948C271.052 367.869 269.963 369.683 268.679 371.355C265.931 374.877 262.378 377.688 258.319 379.553C257.261 380.027 256.178 380.442 255.074 380.796C253.993 381.121 252.836 381.402 251.7 381.716L244.812 383.554L183.721 399.862L183.484 399.927L183.397 399.7C180.921 393.211 178.293 386.42 175.643 379.509L173.967 375.184L173.87 374.924L174.129 374.827L238.42 350.949L238.258 351.122C244.303 329.309 249.7 309.822 254.101 293.925C255.083 287.044 257.702 280.498 261.736 274.838C263.414 272.554 265.414 270.525 267.673 268.814C269.574 267.39 271.663 266.236 273.88 265.386C276.938 264.201 280.183 263.575 283.462 263.537C284.305 263.49 285.15 263.49 285.992 263.537L286.879 263.526Z" fill="#71D1FF"/>
<path d="M242.076 338.239C241.796 338.301 241.508 338.323 241.221 338.304C240.446 338.298 239.674 338.208 238.918 338.033C236.4 337.447 234.076 336.222 232.17 334.475C230.238 332.768 228.734 330.631 227.779 328.235C227.606 327.825 227.465 327.402 227.357 326.97C227.259 326.652 227.187 326.327 227.141 325.997C227.055 325.456 227.022 325.153 227.065 325.153C227.109 325.153 227.357 326.321 228.147 328.073C229.176 330.352 230.672 332.389 232.538 334.054C234.392 335.738 236.614 336.968 239.026 337.644C240.865 338.141 242.076 338.12 242.076 338.239Z" fill="#263238"/>
<path d="M199.845 294.789C199.699 295.365 199.5 295.926 199.25 296.465C198.828 297.547 198.169 299.072 197.487 300.996C196.082 304.814 194.102 310.232 193.897 316.461C193.795 319.391 194.193 322.317 195.076 325.112C195.8 327.381 196.783 329.558 198.006 331.601C198.83 332.987 199.729 334.326 200.699 335.613C201.092 336.071 201.453 336.556 201.781 337.062C201.781 337.062 201.651 336.965 201.435 336.738C201.218 336.511 200.926 336.197 200.559 335.754C199.504 334.511 198.542 333.191 197.682 331.806C196.4 329.747 195.365 327.544 194.6 325.242C193.683 322.405 193.263 319.43 193.356 316.45C193.696 311.074 194.965 305.798 197.109 300.856C197.877 298.953 198.569 297.439 199.045 296.39C199.269 295.836 199.537 295.301 199.845 294.789Z" fill="#263238"/>
<path d="M244.79 358.699C244.1 357.12 243.222 355.631 242.173 354.265C240.981 353.023 239.641 351.934 238.182 351.021C238.707 351.064 239.213 351.239 239.653 351.529C241.909 352.738 243.635 354.742 244.498 357.152C244.72 357.636 244.821 358.167 244.79 358.699Z" fill="#263238"/>
<path d="M175.567 378.394C175.567 378.394 155.225 380.21 155.506 393.425L180.833 392.139L175.567 378.394Z" fill="#FFDACE"/>
<path d="M208.356 156.95C206.496 165.948 204.722 174.96 203.035 183.986C200.872 195.427 198.926 207.388 202.159 218.592C203.933 224.734 207.199 230.314 210.432 235.83C212.249 238.923 214.239 242.189 217.462 243.789C221.841 245.952 227.378 244.243 230.871 240.815C234.364 237.387 236.127 232.607 237.36 227.838C239.707 218.603 240.226 209.01 240.604 199.483C240.983 189.955 241.177 180.071 238.441 170.836C235.705 161.6 229.714 152.862 220.792 149.207" fill="#263238"/>
<path d="M209.826 149.723C212.372 147.744 215.463 146.593 218.683 146.425C221.279 141.169 227.432 138.757 233.185 137.644C241.664 135.989 240.755 135.762 248.639 139.244C256.523 142.726 267.748 152.567 269.186 161.089C270.493 168.564 272.887 175.807 276.291 182.588C278.454 187.076 282.672 190.158 285.17 194.484C286.517 196.829 287.31 199.452 287.488 202.151C287.666 204.85 287.225 207.554 286.197 210.056C284.164 214.934 279.849 219.238 280.26 224.493C280.487 227.554 280.379 229.738 281.59 232.561C285.689 242.121 283.753 254.86 274.95 260.375C266.147 265.891 253.408 263.966 246.606 256.05C240.701 249.215 239.566 239.46 240.117 230.441C240.669 221.422 242.745 212.457 242.161 203.405" fill="#263238"/>
<path d="M219.927 399.523L219.797 396.409L173.945 391.575L153.852 333.816L67.802 331.869L93.8321 399.523C136.376 399.848 178.407 399.848 219.927 399.523Z" fill="#263238"/>
<path d="M115.548 366.625C115.992 367.397 116.654 368.019 117.452 368.414C118.249 368.808 119.146 368.958 120.028 368.843C120.91 368.728 121.739 368.354 122.409 367.768C123.078 367.182 123.559 366.411 123.791 365.552C124.022 364.692 123.994 363.784 123.709 362.941C123.424 362.098 122.895 361.359 122.19 360.816C121.485 360.273 120.635 359.952 119.747 359.893C118.859 359.834 117.973 360.039 117.202 360.483C116.168 361.078 115.413 362.06 115.103 363.211C114.793 364.363 114.953 365.591 115.548 366.625Z" fill="white"/>
<path d="M240.809 260.212C251.126 260.212 260.405 251.42 260.102 238.356L261.962 163.737C261.995 162.175 261.44 160.658 260.406 159.486C259.372 158.314 257.936 157.573 256.382 157.411L225.637 154.167C223.124 153.902 220.585 154.148 218.17 154.891C215.755 155.634 213.516 156.857 211.586 158.488C209.656 160.118 208.076 162.122 206.941 164.379C205.806 166.636 205.14 169.1 204.982 171.621C204.246 183.43 203.803 197.889 205.198 206.703C208.01 224.427 221.603 226.687 221.603 226.687L221.268 239.07C220.749 252.263 230.622 260.201 240.809 260.201V260.212Z" fill="#FFDACE"/>
<path d="M211.86 181.25C211.853 181.838 212.075 182.405 212.479 182.833C212.882 183.26 213.435 183.515 214.023 183.543C214.311 183.566 214.601 183.532 214.876 183.441C215.151 183.35 215.405 183.206 215.623 183.015C215.841 182.824 216.018 182.592 216.144 182.332C216.271 182.071 216.344 181.788 216.359 181.499C216.367 180.91 216.147 180.342 215.743 179.914C215.339 179.485 214.784 179.232 214.196 179.206C213.907 179.183 213.617 179.217 213.342 179.308C213.067 179.399 212.813 179.544 212.595 179.734C212.378 179.925 212.2 180.157 212.074 180.418C211.948 180.678 211.875 180.961 211.86 181.25Z" fill="#263238"/>
<path d="M208.118 179.151C208.399 179.443 210.129 178.178 212.573 178.178C215.017 178.178 216.813 179.411 217.072 179.108C217.202 178.978 216.921 178.448 216.142 177.875C215.077 177.153 213.816 176.776 212.53 176.794C211.26 176.791 210.021 177.192 208.994 177.94C208.237 178.481 207.988 179.021 208.118 179.151Z" fill="#263238"/>
<path d="M235.478 181.701C235.469 182.289 235.69 182.858 236.094 183.286C236.498 183.714 237.053 183.968 237.641 183.993C237.93 184.018 238.222 183.985 238.498 183.895C238.774 183.805 239.029 183.66 239.248 183.469C239.467 183.279 239.646 183.046 239.773 182.785C239.9 182.523 239.973 182.239 239.988 181.949C239.994 181.362 239.772 180.794 239.369 180.367C238.966 179.939 238.412 179.685 237.825 179.657C237.536 179.632 237.244 179.665 236.968 179.755C236.692 179.845 236.437 179.99 236.218 180.18C235.999 180.371 235.82 180.604 235.693 180.865C235.566 181.126 235.493 181.411 235.478 181.701Z" fill="#263238"/>
<path d="M232.169 179.607C232.45 179.91 234.17 178.634 236.614 178.634C239.058 178.634 240.853 179.866 241.123 179.564C241.253 179.434 240.972 178.904 240.183 178.331C239.12 177.612 237.864 177.235 236.581 177.249C235.308 177.247 234.066 177.648 233.034 178.396C232.288 178.936 232.029 179.477 232.169 179.607Z" fill="#263238"/>
<path d="M223.291 197.753C222.003 197.35 220.669 197.111 219.322 197.039C218.695 196.974 218.1 196.844 217.992 196.422C217.943 195.774 218.09 195.126 218.413 194.562C218.997 193.059 219.614 191.469 220.263 189.815C222.826 183.034 224.686 177.465 224.405 177.368C224.123 177.27 221.831 182.677 219.268 189.447C218.651 191.123 218.057 192.691 217.494 194.238C217.108 194.991 216.993 195.854 217.17 196.682C217.261 196.902 217.401 197.1 217.579 197.259C217.757 197.418 217.968 197.535 218.197 197.601C218.55 197.697 218.913 197.744 219.279 197.742C220.61 197.918 221.958 197.922 223.291 197.753Z" fill="#263238"/>
<path d="M221.603 226.703C229.95 226.829 238.167 224.635 245.34 220.366C245.34 220.366 239.576 232.543 221.841 230.889L221.603 226.703Z" fill="#FFDACE"/>
<path d="M224.329 203.645C224.789 203.055 225.395 202.594 226.087 202.308C226.779 202.022 227.533 201.92 228.276 202.013C228.815 202.061 229.338 202.217 229.816 202.472C230.293 202.726 230.715 203.074 231.055 203.494C231.383 203.902 231.578 204.401 231.613 204.923C231.648 205.446 231.521 205.966 231.25 206.414C230.855 206.861 230.333 207.178 229.754 207.323C229.175 207.468 228.565 207.434 228.006 207.225C226.853 206.814 225.791 206.182 224.88 205.365C224.607 205.168 224.373 204.922 224.188 204.64C224.095 204.505 224.045 204.345 224.045 204.181C224.045 204.017 224.095 203.856 224.188 203.721" fill="#FFDACE"/>
<path d="M230.493 199.44C230.093 199.44 230.082 202.079 227.811 203.96C225.54 205.842 222.717 205.55 222.696 205.928C222.696 206.091 223.323 206.437 224.523 206.469C226.095 206.504 227.628 205.979 228.849 204.988C230.005 204.039 230.745 202.677 230.914 201.192C230.969 200.089 230.666 199.429 230.493 199.44Z" fill="#263238"/>
<path d="M231.066 175.325C231.304 175.996 233.748 175.682 236.624 176.028C239.501 176.374 241.815 177.11 242.194 176.558C242.367 176.266 241.956 175.65 241.026 175.001C239.784 174.196 238.367 173.699 236.895 173.552C235.433 173.381 233.951 173.555 232.569 174.06C231.498 174.493 230.968 175.012 231.066 175.325Z" fill="#263238"/>
<path d="M209.015 172.066C209.448 172.629 211.178 172.066 213.168 172.066C215.158 172.066 216.91 172.434 217.299 171.861C217.472 171.58 217.202 171.017 216.456 170.498C215.45 169.863 214.277 169.542 213.088 169.579C211.899 169.616 210.748 170.007 209.783 170.704C209.069 171.223 208.832 171.796 209.015 172.066Z" fill="#263238"/>
<path d="M205.35 168.686C212.022 164.815 218.522 161.235 222.653 154.746C224.956 161.235 229.455 164.479 235.424 167.929C241.394 171.379 248.066 173.401 254.674 175.38C251.332 178.624 250.889 183.869 251.657 188.465C252.425 193.062 254.187 197.485 254.479 202.135C254.858 208.342 252.587 214.431 252.446 220.649C252.252 229.181 256.015 237.238 259.703 244.927L275.719 235.594L273.415 194.013L273.61 164.587L248.64 141.38L217.018 144.84L205.35 168.686Z" fill="#263238"/>
<g opacity="0.3">
<path d="M286.878 242.75C280.39 246.275 275.902 251.52 270.657 256.689C265.412 261.859 259.475 266.866 252.273 268.726C245.07 270.586 236.408 268.369 232.807 261.891C253.105 265.352 276.67 249.141 283.634 229.751C283.218 231.436 283.196 233.193 283.569 234.888C284.509 237.574 285.614 240.2 286.878 242.75Z" fill="black"/>
</g>
<g opacity="0.3">
<path d="M206.171 237.394C206.876 240.019 208.11 242.472 209.796 244.603C211.483 246.734 213.587 248.498 215.98 249.787C217.091 250.25 218.132 250.865 219.073 251.614C219.537 251.999 219.874 252.514 220.042 253.092C220.21 253.67 220.2 254.286 220.014 254.859C219.671 255.442 219.136 255.888 218.501 256.121C217.866 256.353 217.17 256.358 216.531 256.135C215.287 255.633 214.176 254.848 213.287 253.842C209.751 250.425 206.106 246.964 205.112 242.163C205.687 241.463 206.087 240.636 206.28 239.751C206.329 238.964 206.293 238.173 206.171 237.394Z" fill="black"/>
</g>
<path d="M282.023 233.59C281.949 233.811 281.847 234.022 281.72 234.217C281.493 234.617 281.201 235.234 280.736 235.969C279.464 238.079 278.063 240.109 276.54 242.047C274.301 244.942 271.823 247.644 269.132 250.125C265.854 253.206 262.137 255.782 258.102 257.771C255.973 258.7 253.783 259.484 251.548 260.117C249.468 260.722 247.352 261.192 245.211 261.523C241.591 262.114 237.911 262.252 234.256 261.934C231.798 261.71 229.368 261.246 227 260.55C226.156 260.323 225.529 260.063 225.096 259.912C224.869 259.85 224.651 259.759 224.448 259.642C224.448 259.642 225.378 259.901 227.065 260.334C229.435 260.952 231.856 261.353 234.299 261.534C237.912 261.792 241.542 261.618 245.114 261.015C247.225 260.672 249.313 260.195 251.364 259.587C253.576 258.957 255.744 258.18 257.853 257.262C261.836 255.279 265.512 252.729 268.765 249.692C271.451 247.248 273.939 244.594 276.205 241.755C277.75 239.849 279.194 237.864 280.531 235.807C281.017 235.093 281.342 234.498 281.612 234.12C281.736 233.933 281.873 233.756 282.023 233.59Z" fill="#263238"/>
<path d="M232.245 253.653C231.833 253.821 231.4 253.934 230.958 253.989C229.766 254.205 228.558 254.313 227.346 254.313C223.302 254.327 219.331 253.235 215.862 251.155C212.393 249.076 209.558 246.088 207.664 242.515C207.091 241.443 206.616 240.32 206.248 239.162C206.09 238.745 205.989 238.308 205.945 237.864C206.558 239.385 207.251 240.872 208.021 242.32C209.954 245.765 212.752 248.647 216.14 250.68C219.527 252.713 223.386 253.827 227.335 253.913C230.374 253.999 232.234 253.534 232.245 253.653Z" fill="#00547E"/>
<path d="M228.038 280.446C228.238 280.363 228.449 280.309 228.665 280.284C229.076 280.187 229.746 280.1 230.482 279.906C232.704 279.427 234.896 278.817 237.046 278.078C244.124 275.567 250.785 272.005 256.804 267.512C262.812 263.003 268.503 258.085 273.836 252.794L278.746 248.036C279.287 247.506 279.741 247.084 280.087 246.749C280.237 246.591 280.404 246.45 280.584 246.327C280.464 246.506 280.327 246.673 280.173 246.825L278.897 248.187C277.816 249.355 276.161 251.031 274.117 253.075C268.847 258.469 263.171 263.451 257.139 267.977C251.079 272.501 244.341 276.038 237.176 278.457C235 279.166 232.778 279.723 230.525 280.122C229.735 280.284 229.097 280.338 228.676 280.392C228.466 280.437 228.252 280.455 228.038 280.446Z" fill="#00547E"/>
<path d="M608.874 303.136L570.721 258.148L570.635 258.235C569.132 256.753 567.812 255.434 567.142 254.666C553.927 239.353 543.426 234.119 523.192 233.838L483.871 234.681C476.561 235.287 459.972 232.162 444.626 252.503C416.671 287.531 394.253 317.324 395.519 331.383C397.108 349.173 464.957 399.892 464.957 399.892L558.22 399.816L558.025 392.711L598.265 366.594C612.778 356.786 620.359 348.21 622.197 335.233C623.809 323.683 616.65 311.787 608.874 303.136ZM438.008 329.912C438.008 327.176 452.715 309.927 460.718 300.714L464.882 340.543L464.168 356.105L438.008 329.912ZM556.327 354.428L554.111 301.936L584.52 333.394L556.327 354.428Z" fill="#336076"/>
<path d="M498.048 325.118L429.107 359.19C427.276 360.095 426.525 362.313 427.431 364.145L449.716 409.235C450.621 411.067 452.839 411.817 454.67 410.912L523.611 376.84C525.442 375.935 526.192 373.717 525.287 371.886L503.002 326.795C502.097 324.964 499.879 324.213 498.048 325.118Z" fill="#E0E0E0"/>
<path d="M476.064 363.786C476.785 363.346 477.62 363.129 478.464 363.163C479.309 363.197 480.124 363.48 480.807 363.978C481.49 364.475 482.01 365.164 482.301 365.957C482.593 366.75 482.643 367.611 482.445 368.433C482.247 369.254 481.809 369.998 481.188 370.571C480.567 371.144 479.79 371.519 478.956 371.651C478.121 371.782 477.266 371.663 476.499 371.308C475.732 370.953 475.088 370.379 474.647 369.659C474.057 368.692 473.874 367.53 474.14 366.429C474.405 365.328 475.097 364.377 476.064 363.786Z" fill="white"/>
<path d="M553.526 264.582C553.54 264.697 553.54 264.813 553.526 264.928C553.526 265.188 553.526 265.512 553.526 265.934C553.526 266.853 553.526 268.151 553.526 269.794C553.526 273.19 553.591 278.035 553.635 284.015C553.699 296.019 554.164 312.587 555.095 330.884C556.025 349.182 556.976 365.739 557.484 377.732C557.744 383.723 557.917 388.546 558.014 391.942C558.014 393.586 558.079 394.884 558.101 395.803C558.101 396.225 558.101 396.549 558.101 396.809C558.113 396.924 558.113 397.04 558.101 397.155C558.09 397.04 558.09 396.924 558.101 396.809C558.101 396.549 558.101 396.225 558.036 395.803C558.036 394.884 557.917 393.64 557.841 391.942C557.668 388.557 557.42 383.712 557.128 377.754C556.468 365.728 555.57 349.182 554.575 330.906C553.58 312.63 553.234 296.019 553.278 284.015C553.278 278.046 553.278 273.201 553.353 269.794C553.353 268.151 553.353 266.853 553.407 265.934C553.407 265.512 553.407 265.188 553.407 264.928C553.437 264.809 553.477 264.694 553.526 264.582Z" fill="#263238"/>
<path d="M456.425 241.062C461.4 237.439 467.185 238.531 472.171 242.143C477.156 245.755 479.924 251.876 480.422 258.008C480.919 264.14 479.34 270.282 477.015 275.97C473.263 285.087 467.715 292.462 459.42 301.849L438.051 329.912L479.308 370.185L462.211 397.156L427.67 369.352C415.871 359.392 405.836 349.205 398.471 338.672" fill="#455A64"/>
<path d="M398.46 338.704L398.708 339.028L399.433 340.002C400.071 340.856 401.023 342.164 402.31 343.743C406.012 348.368 409.984 352.77 414.205 356.926C416.909 359.619 419.991 362.506 423.43 365.577C426.869 368.649 430.74 371.687 434.85 374.986L462.318 397.025L461.94 397.09C467.25 388.709 473.014 379.604 479.016 370.109V370.455L457.733 349.691L437.77 330.225L437.597 330.063L437.737 329.869C445.307 319.973 452.466 310.565 459.128 301.816C463.198 297.336 466.973 292.597 470.429 287.628C473.515 283.1 476.011 278.198 477.858 273.039C479.611 268.46 480.434 263.578 480.281 258.678C480.101 254.555 478.844 250.55 476.636 247.063C474.82 244.259 472.289 241.989 469.304 240.488C467.117 239.323 464.653 238.777 462.178 238.909C460.643 239.03 459.151 239.472 457.798 240.207C456.868 240.704 456.435 241.04 456.424 241.018L456.749 240.769C457.068 240.532 457.404 240.319 457.755 240.131C459.11 239.362 460.615 238.89 462.167 238.747C464.677 238.582 467.185 239.114 469.412 240.283C472.453 241.772 475.035 244.055 476.885 246.89C479.152 250.421 480.45 254.487 480.648 258.678C480.83 263.565 480.051 268.441 478.356 273.028C476.513 278.232 474.013 283.178 470.916 287.747C467.46 292.737 463.685 297.498 459.615 302C452.953 310.749 445.783 320.168 438.256 330.117V329.75L458.23 349.215L479.502 369.99L479.664 370.152L479.545 370.336C473.533 379.831 467.758 388.926 462.437 397.296L462.286 397.545L462.059 397.361L434.644 375.245C430.546 371.936 426.653 368.865 423.246 365.794C419.84 362.722 416.757 359.835 414.043 357.142C409.828 352.95 405.873 348.505 402.201 343.83C400.936 342.208 400.039 340.91 399.39 340.034C399.087 339.612 398.86 339.277 398.698 339.039C398.535 338.801 398.46 338.704 398.46 338.704Z" fill="#263238"/>
<path d="M599.347 332.647C598.611 332.475 597.888 332.251 597.184 331.976C593.726 330.878 589.986 331.074 586.662 332.528C585.986 332.872 585.289 333.172 584.574 333.425C585.131 332.891 585.779 332.462 586.489 332.16C588.152 331.317 589.974 330.832 591.836 330.735C593.699 330.638 595.561 330.932 597.303 331.598C598.041 331.825 598.732 332.18 599.347 332.647Z" fill="#263238"/>
<path d="M487.754 395.887L480.249 399.618C478.427 400.524 476.383 400.886 474.362 400.66C472.34 400.433 470.426 399.629 468.85 398.342L464.168 394.525L477.145 374.118C478.67 374.778 484.942 375.665 487.105 376.432C488.978 377.089 490.949 377.418 492.934 377.406C495.149 377.453 497.363 377.272 499.542 376.865C499.682 376.811 499.877 376.768 500.007 376.714C500.301 376.592 500.618 376.536 500.937 376.551C502.786 376.378 504.257 378.325 503.218 379.796C502.18 381.266 497.119 383.364 490.652 383.181H490.349C484.672 383.181 489.884 387.928 493.248 390.751C493.843 391.23 494.306 391.856 494.59 392.566C494.874 393.276 494.97 394.048 494.87 394.806C494.853 395.08 494.776 395.346 494.645 395.587C494.515 395.828 494.333 396.038 494.113 396.201C492.642 397.153 487.754 395.887 487.754 395.887Z" fill="#A36853"/>
<path d="M505.121 252.621C495.172 252.621 486.229 244.142 486.315 231.511L484.52 159.585H484.725C484.696 158.075 485.236 156.61 486.238 155.479C487.24 154.349 488.63 153.638 490.133 153.486L519.785 150.35C522.207 150.094 524.656 150.331 526.984 151.047C529.312 151.763 531.471 152.942 533.331 154.514C535.192 156.086 536.714 158.019 537.808 160.195C538.901 162.371 539.543 164.746 539.695 167.177C540.408 178.564 540.841 192.504 539.489 201.004C536.742 218.123 523.646 220.308 523.646 220.308L523.96 232.203C524.468 244.921 514.941 252.577 505.121 252.577V252.621Z" fill="#A36853"/>
<path d="M533.033 176.488C533.034 177.053 532.813 177.595 532.419 177.999C532.025 178.403 531.489 178.637 530.925 178.651C530.645 178.675 530.364 178.642 530.098 178.554C529.831 178.467 529.585 178.326 529.374 178.142C529.163 177.957 528.992 177.732 528.87 177.479C528.748 177.227 528.678 176.952 528.664 176.672C528.664 176.099 528.892 175.548 529.298 175.143C529.704 174.737 530.254 174.509 530.827 174.509C531.378 174.496 531.913 174.694 532.323 175.062C532.733 175.429 532.987 175.94 533.033 176.488Z" fill="#263238"/>
<path d="M536.624 174.459C536.354 174.751 534.699 173.518 532.298 173.529C529.897 173.539 528.221 174.707 527.973 174.426C527.724 174.145 528.124 173.777 528.881 173.226C529.9 172.519 531.112 172.142 532.352 172.144C533.577 172.136 534.773 172.515 535.77 173.226C536.527 173.821 536.775 174.329 536.624 174.459Z" fill="#263238"/>
<path d="M510.27 176.92C510.277 177.208 510.226 177.496 510.121 177.764C510.016 178.033 509.857 178.278 509.656 178.484C509.454 178.691 509.213 178.855 508.947 178.967C508.681 179.079 508.396 179.137 508.107 179.137C507.547 179.164 506.999 178.973 506.577 178.604C506.156 178.235 505.894 177.716 505.847 177.158C505.84 176.869 505.89 176.582 505.996 176.314C506.101 176.045 506.259 175.8 506.461 175.593C506.662 175.387 506.903 175.223 507.169 175.111C507.435 174.998 507.721 174.941 508.01 174.941C508.569 174.914 509.118 175.105 509.539 175.474C509.961 175.843 510.223 176.362 510.27 176.92Z" fill="#263238"/>
<path d="M513.448 174.899C513.178 175.191 511.513 173.959 509.123 173.959C506.733 173.959 505.035 175.148 504.797 174.856C504.667 174.737 504.948 174.218 505.705 173.667C506.722 172.955 507.935 172.577 509.177 172.585C510.401 172.577 511.597 172.956 512.594 173.667C513.34 174.251 513.589 174.77 513.448 174.899Z" fill="#263238"/>
<path d="M522.014 192.397C523.255 192.002 524.541 191.769 525.842 191.705C526.448 191.64 527.021 191.521 527.118 191.11C527.169 190.489 527.029 189.866 526.718 189.326C526.145 187.866 525.561 186.341 524.934 184.741C522.457 178.252 520.673 172.845 520.932 172.737C521.192 172.629 523.42 177.852 525.885 184.384C526.491 185.995 527.053 187.531 527.594 189.001C527.976 189.729 528.087 190.568 527.908 191.37C527.819 191.58 527.684 191.767 527.514 191.919C527.344 192.07 527.142 192.182 526.923 192.246C526.588 192.335 526.243 192.382 525.896 192.386C524.607 192.55 523.303 192.554 522.014 192.397Z" fill="#263238"/>
<path d="M523.646 220.306C515.597 220.425 507.672 218.31 500.752 214.196C500.752 214.196 506.679 227.054 523.776 225.454L523.646 220.306Z" fill="#8F5039"/>
<path d="M514.509 170.767C514.282 171.416 511.924 171.102 509.156 171.437C506.387 171.773 504.149 172.519 503.748 171.956C503.575 171.675 503.965 171.07 504.83 170.453C506.034 169.691 507.397 169.213 508.814 169.058C510.231 168.902 511.664 169.072 513.005 169.556C514.098 169.999 514.617 170.464 514.509 170.767Z" fill="#263238"/>
<path d="M535.77 167.633C535.359 168.173 533.726 167.633 531.779 167.633C529.832 167.633 528.167 167.989 527.789 167.427C527.616 167.157 527.886 166.627 528.6 166.119C529.563 165.495 530.698 165.188 531.844 165.243C532.992 165.256 534.105 165.635 535.023 166.324C535.726 166.821 535.953 167.373 535.77 167.633Z" fill="#263238"/>
<path d="M484.715 175.926C487.624 175.407 489.949 176.305 490.771 179.17C491.993 183.442 491.161 185.551 491.366 188.492L495.692 187.195C494.61 177.343 497.065 170.054 495.994 160.159C502.007 162.105 510.269 158.385 512.832 152.156C515.384 154.031 518.414 155.144 521.573 155.366C524.731 155.589 527.888 154.91 530.676 153.411C531.378 154.688 532.467 155.709 533.787 156.327C535.107 156.945 536.588 157.128 538.019 156.85C541.263 155.93 544.702 151.313 545.643 148.036C547.33 142.142 546.508 133.685 541.728 129.846C536.948 126.007 527.367 126.926 523.647 131.804C522.176 133.729 522.003 137.287 519.635 137.773C517.526 138.206 515.612 136.692 513.687 135.697C507.685 132.723 499.39 136.67 497.909 143.202C492.891 140.206 486.813 138.249 481.2 139.86C475.588 141.472 471.111 147.701 473.025 153.216C473.814 155.53 475.599 157.542 475.793 159.953C476.172 164.658 470.527 168.918 472.333 173.277C473.338 175.721 476.291 176.802 477.621 179.084C479.113 181.636 478.183 184.859 478.313 187.811C478.508 192.742 481.038 200.042 485.764 201.448" fill="#263238"/>
<path d="M485.158 175.872C484.433 175.975 483.75 176.272 483.179 176.73C482.608 177.189 482.171 177.793 481.914 178.478C481.285 179.789 480.984 181.233 481.038 182.685C480.942 184.956 481.672 187.184 483.093 188.957C483.821 189.819 484.801 190.432 485.894 190.709C486.988 190.986 488.141 190.915 489.192 190.504" fill="#A36853"/>
<path d="M488.111 186.794C488.111 186.848 487.473 187.086 486.467 186.729C485.886 186.506 485.375 186.133 484.985 185.648C484.517 185.019 484.243 184.267 484.196 183.485C484.142 182.737 484.295 181.988 484.639 181.322C484.929 180.775 485.344 180.304 485.85 179.948C486.737 179.364 487.429 179.397 487.418 179.462C486.958 179.697 486.517 179.968 486.099 180.273C485.63 180.665 485.262 181.164 485.028 181.73C484.795 182.295 484.702 182.908 484.758 183.517C484.788 184.118 484.977 184.699 485.306 185.203C485.635 185.707 486.091 186.114 486.629 186.383C487.112 186.558 487.607 186.695 488.111 186.794Z" fill="#8F5039"/>
<path d="M514.508 200.745C516.671 202.226 520.759 201.448 522.295 199.252C518.995 197.453 515.954 195.216 513.254 192.601C513.254 192.601 510.183 197.706 514.508 200.745Z" fill="#FAFAFA"/>
<path d="M521.484 205.743C520.605 205.393 519.68 205.174 518.737 205.094C517.798 205.173 516.873 205.38 515.99 205.711C515.99 205.711 516.152 205.376 516.639 205.084C517.279 204.715 518.004 204.522 518.743 204.522C519.481 204.522 520.206 204.715 520.846 205.084C521.332 205.397 521.549 205.689 521.484 205.743Z" fill="#AA6550"/>
<path d="M495.173 274.986C499.738 268.252 503.887 261.245 507.599 254.006C512.065 245.484 511.308 245.052 510.237 244.673C507.361 243.646 501.813 259.348 501.078 255.239C500.342 251.129 510.053 236.854 507.004 235.946C503.024 234.713 497.52 251.27 496.957 252.633C496.395 253.995 494.416 253.162 495 251.962C495.833 250.243 504.116 231.869 500.213 230.625C498.05 229.944 497.271 233.989 497.271 233.989C497.271 233.989 490.782 251.778 488.955 251.129C487.127 250.48 490.577 239.893 491.994 236.411C493.41 232.929 492.35 230.863 490.328 231.469C488.944 231.88 484.348 242.435 483.029 245.906C481.709 249.377 478.249 258.991 476.151 252.773C476.151 252.676 476.075 252.589 476.032 252.492C474.139 246.306 470.625 242.175 468.797 241.678C466.969 241.18 465.639 243.192 466.396 244.922C466.493 245.224 466.656 245.501 466.872 245.733C466.969 245.841 467.067 246.003 467.164 246.122C468.249 248.053 469.133 250.089 469.803 252.2C470.443 254.08 470.761 256.054 470.743 258.04C470.743 260.343 471.825 267.048 471.738 268.703" fill="#FFAD9D"/>
<path d="M470.657 266.25L444.497 318.159C444.497 318.159 429.703 275.366 421.722 258.345C418.683 251.856 412.584 247.357 406.733 244.373V244.254L405.511 243.767C401.313 241.76 396.902 240.233 392.361 239.214C364.763 231.309 338.765 234.066 308.669 244.621C308.669 244.621 293.042 248.817 285.462 269.202C278.649 287.587 271.003 315.704 269.694 320.678C260.318 352.235 273.706 369.808 292.34 367.645C300.018 366.434 306.55 360.075 309.437 357.609L319.289 348.352L319.505 355.522L308.442 399.807L421.711 399.569L401.272 347.13L405.814 323.09L413.59 341.561C416.032 347.369 420.117 352.338 425.342 355.858C430.568 359.378 436.707 361.297 443.007 361.378C449.307 361.46 455.494 359.701 460.809 356.317C466.124 352.933 470.336 348.072 472.928 342.329L499.412 275.648L470.657 266.25Z" fill="#FF8B7B"/>
<path d="M334.256 330.962C333.956 331.475 333.617 331.963 333.239 332.422C332.558 333.331 331.531 334.639 330.222 336.207C327.616 339.354 323.863 343.582 319.505 348.049C315.147 352.515 310.994 356.354 307.88 359.004C306.333 360.345 305.046 361.383 304.138 362.075C303.691 362.481 303.206 362.844 302.689 363.156C303.092 362.722 303.53 362.32 303.997 361.956C304.863 361.21 306.106 360.118 307.62 358.712C310.648 355.976 314.747 352.104 319.094 347.649C323.442 343.193 327.248 338.997 329.908 335.948C331.26 334.412 332.32 333.147 333.055 332.282C333.417 331.808 333.818 331.366 334.256 330.962Z" fill="#263238"/>
<path d="M401.639 345.444C401.631 345.241 401.649 345.037 401.694 344.839C401.78 344.385 401.867 343.822 401.986 343.13L403.164 336.836C404.159 331.526 405.522 324.194 406.603 316.029C406.877 313.989 407.122 312.003 407.339 310.071C407.605 308.234 407.71 306.378 407.652 304.523C407.452 301.378 406.985 298.256 406.257 295.19C405.673 292.552 405.176 290.432 404.841 288.95C404.689 288.204 404.603 287.62 404.559 287.231C404.533 287.026 404.533 286.819 404.559 286.615C404.628 286.806 404.672 287.006 404.689 287.209C404.765 287.599 404.895 288.172 405.078 288.907C405.435 290.367 406.03 292.465 406.668 295.104C407.46 298.184 407.97 301.329 408.193 304.501C408.258 306.38 408.164 308.262 407.912 310.125C407.706 312.061 407.458 314.061 407.187 316.105C406.106 324.292 404.667 331.624 403.575 336.912C403.013 339.497 402.559 341.616 402.223 343.173C402.061 343.855 401.931 344.417 401.834 344.871C401.788 345.068 401.723 345.26 401.639 345.444Z" fill="#263238"/>
<path d="M442.193 330.852C442.605 326.588 443.391 322.369 444.54 318.242C444.421 320.399 444.113 322.541 443.621 324.645C443.321 326.75 442.844 328.827 442.193 330.852Z" fill="#263238"/>
<path d="M446.184 332.389C445.641 329.986 445.28 327.546 445.102 325.089C444.724 322.653 444.532 320.191 444.529 317.725C445.072 320.128 445.434 322.568 445.611 325.025C445.99 327.461 446.181 329.923 446.184 332.389Z" fill="#263238"/>
<path d="M362.633 399.567C362.482 399.567 362.352 382.178 362.352 360.744C362.352 339.31 362.482 321.909 362.633 321.909C362.784 321.909 362.914 339.288 362.914 360.744C362.914 382.199 362.784 399.567 362.633 399.567Z" fill="#263238"/>
<g opacity="0.2">
<path d="M405.133 289.749C410.443 299.926 415.06 310.048 415.482 321.522C415.807 330.444 412.238 337.884 415.926 346.016C415.742 346.157 412.595 339.149 411.2 335.861C408.334 329.092 405.792 323.047 405.792 323.047C405.792 323.047 407.761 307.766 407.955 305.16C408.15 302.553 405.133 289.749 405.133 289.749Z" fill="black"/>
</g>
<g opacity="0.2">
<path d="M273.706 341.453C273.706 346.557 270.538 329.709 273.501 325.567C275.588 322.658 279.157 321.241 282.617 320.387C286.078 319.532 289.701 318.959 292.772 317.142C296.741 314.796 299.261 310.654 302.04 307.02C304.819 303.387 308.528 287.825 313.114 287.49V310.2C302.133 317.308 290.711 323.712 278.919 329.373C277.24 330.9 275.906 332.767 275.007 334.85C274.108 336.933 273.665 339.185 273.706 341.453Z" fill="black"/>
</g>
<g opacity="0.2">
<path d="M319.255 348.358C326.663 344.195 332.07 338.625 340.441 337.187C348.497 335.759 356.792 337.187 364.946 336.625C364.506 332.508 364.055 328.384 363.594 324.253L340.268 323.993L319.255 348.358Z" fill="black"/>
</g>
<path d="M313.114 287.227C313.265 287.227 313.395 292.277 313.395 298.506C313.395 304.735 313.265 309.796 313.114 309.796C312.829 306.04 312.735 302.272 312.833 298.506C312.735 294.744 312.829 290.979 313.114 287.227Z" fill="#263238"/>
<path d="M273.685 341.335C273.509 340.679 273.465 339.996 273.555 339.323C273.664 337.694 274.052 336.096 274.701 334.598C275.342 333.099 276.238 331.723 277.351 330.531C277.777 330.007 278.298 329.566 278.886 329.234C277.429 330.932 276.197 332.811 275.22 334.825C274.413 336.914 273.897 339.105 273.685 341.335Z" fill="#263238"/>
<path d="M278.346 329.579C278.929 329.424 279.497 329.218 280.044 328.962C281.125 328.53 282.682 327.881 284.575 326.983C288.36 325.253 293.518 322.658 298.99 319.413C304.462 316.169 309.231 312.979 312.573 310.535C314.249 309.302 315.59 308.285 316.488 307.561C316.974 307.207 317.43 306.812 317.85 306.382C317.319 306.671 316.813 307.004 316.336 307.377L312.324 310.189C308.918 312.546 304.138 315.693 298.677 318.905C293.215 322.117 288.111 324.734 284.38 326.562L279.946 328.724C279.388 328.961 278.853 329.247 278.346 329.579Z" fill="#263238"/>
<path d="M420.446 190.355C418.586 187.922 415.633 186.029 415.038 183.055C414.292 179.065 418.283 175.323 417.558 171.322C417.082 168.586 414.563 166.661 411.989 165.601C409.415 164.541 406.582 164.033 404.224 162.616C401.394 160.801 399.222 158.124 398.028 154.981C397.675 154.122 397.368 153.245 397.108 152.353C396.867 150.442 396.429 148.562 395.8 146.741C395.702 146.265 395.616 145.789 395.529 145.313L395.648 146.395C395.29 145.495 394.817 144.644 394.243 143.864C392.264 141.226 388.305 139.755 385.591 141.604L386.889 140.739C385.248 136.77 382.611 133.292 379.234 130.64C375.856 127.988 371.851 126.251 367.607 125.599C365.988 125.372 364.349 125.317 362.719 125.437C356.89 125.134 348.466 126.832 344.908 129.092C340.366 131.968 335.715 135.916 333.434 140.793C332.212 143.421 331.379 146.46 329.108 148.212C326.015 150.547 321.678 149.639 317.818 150.072C311.459 150.796 305.922 155.673 303.759 161.697C302.752 164.746 302.39 167.971 302.695 171.167C303.001 174.364 303.967 177.462 305.533 180.265C306.203 181.509 306.993 182.947 306.463 184.256C305.915 185.227 305.058 185.988 304.03 186.419C301.437 187.756 299.366 189.922 298.147 192.572C297.065 195.265 297.476 198.671 299.661 200.574C300.577 201.305 301.671 201.777 302.831 201.942C303.991 202.108 305.174 201.96 306.257 201.515C305.613 203.145 305.272 204.878 305.252 206.631C305.205 208.545 305.674 210.437 306.608 212.109C307.542 213.781 308.907 215.172 310.561 216.136C313.946 217.899 318.683 216.969 320.673 213.714C320.66 216.114 321.297 218.473 322.516 220.54C323.735 222.608 325.491 224.307 327.597 225.457C329.703 226.608 332.082 227.167 334.48 227.076C336.878 226.985 339.207 226.247 341.22 224.939C342.82 223.858 344.464 222.43 346.357 222.776C348.249 223.122 349.32 224.939 350.618 226.258C354.078 229.86 359.983 230.271 364.536 228.227C369.088 226.183 372.441 222.095 374.852 217.726C375.693 218.984 376.872 219.98 378.252 220.598C379.633 221.217 381.161 221.434 382.659 221.224C384.157 221.014 385.566 220.385 386.724 219.411C387.881 218.436 388.741 217.155 389.203 215.715C390.889 217.895 393.204 219.505 395.834 220.327C398.465 221.149 401.285 221.144 403.912 220.311C406.539 219.478 408.847 217.858 410.524 215.67C412.201 213.483 413.165 210.833 413.287 208.08C415.189 207.798 416.984 207.026 418.496 205.838C420.009 204.651 421.185 203.089 421.909 201.308C422.633 199.527 422.88 197.588 422.625 195.682C422.37 193.776 421.623 191.97 420.456 190.441L420.446 190.355ZM311.686 193.697C311.686 193.697 311.686 193.697 311.686 193.632L311.794 193.578L311.686 193.697Z" fill="#263238"/>
<path d="M380.292 220.83C380.292 220.83 394.145 218.537 397.011 200.467C398.439 191.48 397.984 176.751 397.227 164.715C397.066 162.145 396.387 159.635 395.231 157.335C394.075 155.035 392.466 152.993 390.5 151.331C388.534 149.669 386.252 148.422 383.791 147.665C381.331 146.908 378.743 146.656 376.183 146.925L344.821 150.245C343.231 150.413 341.762 151.174 340.708 152.377C339.654 153.579 339.091 155.135 339.133 156.734L342.431 235.224C340.149 235.711 334.969 236.835 332.428 237.571C332.428 237.571 356.674 291.761 362.611 291.134C368.548 290.507 392.274 239.225 392.274 239.225C388.142 237.98 383.948 236.951 379.708 236.143C379.641 231.032 379.836 225.921 380.292 220.83Z" fill="#FFAD9D"/>
<path d="M390.219 174.552C390.225 175.155 389.996 175.737 389.58 176.173C389.164 176.609 388.594 176.866 387.992 176.888C387.695 176.92 387.396 176.89 387.112 176.8C386.828 176.71 386.565 176.563 386.341 176.367C386.117 176.171 385.935 175.93 385.808 175.661C385.681 175.392 385.61 175.099 385.602 174.801C385.596 174.198 385.825 173.617 386.241 173.181C386.657 172.744 387.227 172.488 387.829 172.465C388.124 172.442 388.421 172.477 388.701 172.57C388.982 172.663 389.241 172.811 389.464 173.005C389.687 173.2 389.868 173.437 389.998 173.703C390.128 173.968 390.203 174.257 390.219 174.552Z" fill="#263238"/>
<path d="M394.037 172.412C393.745 172.715 391.993 171.417 389.495 171.428C386.997 171.439 385.169 172.682 384.91 172.38C384.769 172.239 385.061 171.698 385.862 171.114C386.95 170.378 388.236 169.99 389.549 170C390.846 169.999 392.111 170.407 393.161 171.168C393.875 171.731 394.178 172.282 394.037 172.412Z" fill="#263238"/>
<path d="M366.158 175.019C366.164 175.624 365.933 176.207 365.514 176.643C365.096 177.08 364.523 177.335 363.919 177.355C363.623 177.386 363.323 177.356 363.039 177.266C362.755 177.177 362.493 177.029 362.268 176.833C362.044 176.637 361.862 176.397 361.735 176.128C361.608 175.858 361.538 175.565 361.529 175.268C361.523 174.663 361.754 174.08 362.172 173.644C362.591 173.207 363.163 172.952 363.768 172.932C364.062 172.908 364.359 172.944 364.64 173.037C364.92 173.129 365.18 173.277 365.402 173.472C365.625 173.666 365.807 173.903 365.936 174.169C366.066 174.435 366.141 174.724 366.158 175.019Z" fill="#263238"/>
<path d="M369.521 172.881C369.24 173.184 367.477 171.886 364.99 171.897C362.503 171.908 360.664 173.151 360.394 172.848C360.264 172.708 360.556 172.167 361.356 171.583C362.437 170.838 363.72 170.441 365.033 170.448C366.33 170.447 367.594 170.856 368.645 171.616C369.402 172.167 369.662 172.751 369.521 172.881Z" fill="#263238"/>
<path d="M378.573 191.373C379.889 190.961 381.252 190.717 382.629 190.648C383.256 190.583 383.862 190.453 383.97 190.021C384.025 189.362 383.878 188.701 383.548 188.128C382.942 186.593 382.326 184.971 381.666 183.284C379.049 176.384 377.157 170.707 377.438 170.598C377.719 170.49 380.055 176.006 382.672 182.916L384.478 187.793C384.881 188.561 384.996 189.446 384.803 190.291C384.708 190.52 384.561 190.724 384.373 190.885C384.185 191.047 383.962 191.162 383.721 191.221C383.368 191.313 383.005 191.364 382.64 191.373C381.289 191.54 379.924 191.54 378.573 191.373Z" fill="#263238"/>
<path d="M380.292 220.832C371.783 220.951 363.408 218.705 356.101 214.343C356.101 214.343 361.973 226.747 380.055 225.06L380.292 220.832Z" fill="#ED9482"/>
<path d="M371.554 195.277C372.103 194.892 372.725 194.623 373.382 194.488C373.713 194.427 374.055 194.471 374.359 194.615C374.664 194.759 374.916 194.994 375.08 195.288C375.148 195.504 375.235 195.714 375.339 195.915C375.707 196.413 376.475 196.229 377.059 196.402C377.279 196.495 377.479 196.631 377.647 196.801C377.815 196.972 377.947 197.174 378.037 197.397C378.126 197.619 378.171 197.856 378.168 198.096C378.165 198.335 378.115 198.572 378.021 198.792C377.804 199.231 377.5 199.622 377.129 199.941C376.757 200.261 376.325 200.503 375.858 200.652C374.634 201.156 373.301 201.338 371.987 201.182C371.527 201.164 371.076 201.049 370.664 200.844C370.252 200.639 369.888 200.349 369.597 199.992C369.324 199.514 369.196 198.967 369.228 198.418C369.261 197.869 369.453 197.341 369.781 196.899C370.453 196.019 371.295 195.284 372.257 194.736" fill="#ED9482"/>
<path d="M371.241 193.103C371.641 193.103 371.652 195.785 373.966 197.699C376.28 199.613 379.157 199.321 379.178 199.7C379.178 199.873 378.54 200.23 377.318 200.262C375.744 200.278 374.214 199.742 372.993 198.748C371.798 197.79 371.023 196.406 370.83 194.888C370.754 193.795 371.057 193.082 371.241 193.103Z" fill="#263238"/>
<path d="M370.645 168.522C370.397 169.192 367.909 168.879 364.99 169.225C362.07 169.571 359.691 170.382 359.312 169.765C359.139 169.484 359.55 168.846 360.502 168.186C361.777 167.382 363.219 166.878 364.718 166.713C366.217 166.548 367.733 166.727 369.153 167.235C370.213 167.667 370.754 168.197 370.645 168.522Z" fill="#263238"/>
<path d="M393.118 166.76C392.675 167.333 390.955 166.76 388.89 166.76C386.824 166.76 385.083 167.138 384.683 166.544C384.499 166.263 384.78 165.689 385.537 165.159C386.564 164.517 387.759 164.193 388.97 164.23C390.181 164.266 391.353 164.661 392.34 165.365C393.075 165.927 393.313 166.511 393.118 166.76Z" fill="#263238"/>
<path d="M386.662 144.286C385.987 147.487 384.678 150.521 382.812 153.208C380.946 155.895 378.561 158.182 375.797 159.933C373.034 161.683 369.947 162.863 366.72 163.402C363.494 163.941 360.192 163.828 357.009 163.071C356.486 167.04 354.948 170.807 352.544 174.008C350.14 177.21 346.951 179.737 343.286 181.347C348.286 190.412 350.324 200.815 349.114 211.097C348.585 215.423 347.319 220.04 344.032 222.993C339.014 227.491 330.557 226.399 325.734 221.706C321.105 217.196 319.472 210.145 320.781 203.819C322.089 197.493 326.058 191.923 331.044 187.857C328.944 187.497 326.985 186.559 325.389 185.147C323.793 183.736 322.623 181.907 322.009 179.866C321.396 177.826 321.363 175.655 321.916 173.597C322.469 171.539 323.585 169.676 325.139 168.218C326.556 166.877 328.383 165.882 329.465 164.249C330.546 162.616 330.719 160.8 331.336 159.058C332.947 154.506 337.013 151.359 340.885 148.46C344.129 146.016 347.763 143.464 351.851 143.475C354.013 143.475 356.176 144.232 358.339 143.94C361.313 143.54 363.638 141.28 366.093 139.614C369.508 137.073 373.756 135.914 377.989 136.37C382.174 137.03 386.078 140.155 386.867 144.308" fill="#263238"/>
<path d="M385.051 146.071C384.413 149.564 386.132 153.143 388.749 155.587C391.366 158.031 394.6 159.545 397.833 160.994C396.706 157.559 395.132 154.286 393.151 151.262C392.151 149.742 390.861 148.436 389.353 147.419C387.846 146.402 386.152 145.694 384.369 145.335" fill="#263238"/>
<path d="M305.587 187.726C305.463 187.361 305.43 186.971 305.489 186.59C305.65 185.486 306.231 184.486 307.112 183.8C308.535 182.763 310.29 182.286 312.043 182.459C314.065 182.459 316.304 183.13 318.78 182.978C320.12 182.866 321.414 182.437 322.557 181.729C323.7 181.02 324.659 180.051 325.355 178.901C326.128 177.615 326.553 176.151 326.588 174.651C326.696 173.105 326.588 171.483 326.642 169.796C326.659 168.027 327.209 166.304 328.221 164.853C329.347 163.405 330.841 162.284 332.547 161.609C335.953 160.063 339.836 160.041 343.556 159.349C345.402 159.048 347.181 158.426 348.812 157.51C350.34 156.537 351.665 155.278 352.716 153.801C354.824 150.903 356.241 147.669 358.177 144.912C360.503 141.449 363.926 138.868 367.895 137.583C371.865 136.299 376.151 136.385 380.065 137.828C381.688 138.415 383.221 139.226 384.618 140.24C385.829 141.073 386.905 142.087 387.808 143.246C387.729 143.19 387.657 143.124 387.592 143.052L386.997 142.457C386.219 141.715 385.383 141.035 384.499 140.424C381.219 138.163 377.31 136.993 373.328 137.082C370.404 137.182 367.545 137.97 364.984 139.383C362.422 140.796 360.231 142.794 358.588 145.215C356.695 147.918 355.289 151.152 353.181 154.136C352.09 155.673 350.708 156.981 349.114 157.986C347.44 158.94 345.609 159.589 343.707 159.9C339.901 160.603 336.137 160.625 332.806 162.063C331.19 162.707 329.772 163.767 328.697 165.135C327.739 166.497 327.218 168.119 327.205 169.785C327.107 171.418 327.205 173.029 327.129 174.64C327.075 176.218 326.617 177.756 325.799 179.107C325.06 180.311 324.045 181.321 322.837 182.055C321.63 182.788 320.265 183.223 318.856 183.324C316.271 183.454 314.044 182.784 312.065 182.729C310.378 182.532 308.678 182.959 307.285 183.93C306.429 184.575 305.843 185.516 305.641 186.569C305.574 186.95 305.556 187.339 305.587 187.726Z" fill="#FAFAFA"/>
<path d="M332.45 271.202L333.596 300.011L336.494 327.587L367.131 326.279L364.925 271.829L332.45 271.202Z" fill="#263238"/>
<path d="M327.951 271.107L329.097 300.013L331.996 327.59L362.633 326.281L360.427 271.745L327.951 271.107Z" fill="#455A64"/>
<path d="M325.074 330.961C333.205 330.59 341.306 329.723 349.331 328.365C358.826 326.84 358.728 325.986 358.393 324.894C357.485 321.974 341.588 326.927 344.443 323.877C347.298 320.827 364.525 320.092 363.443 317.086C362.048 313.16 345.492 318.654 344.064 319.011C342.637 319.368 342.118 317.302 343.426 317.042C345.308 316.675 364.979 312.327 363.638 308.456C362.903 306.293 359.193 308.11 359.193 308.11C359.193 308.11 341.047 313.517 340.474 311.711C339.901 309.905 350.455 306.304 354.089 305.331C357.723 304.357 358.75 302.292 357.052 301.005C355.895 300.151 344.691 302.778 341.123 303.806C337.554 304.833 327.778 307.796 331.498 302.389C331.563 302.303 331.606 302.216 331.66 302.13C335.478 296.917 336.678 291.629 335.986 289.855C335.294 288.082 332.882 288.244 331.963 289.855C331.782 290.115 331.657 290.41 331.595 290.72C331.595 290.861 331.498 291.045 331.455 291.196C330.571 293.216 329.484 295.14 328.21 296.939C327.091 298.581 325.697 300.019 324.09 301.189C322.241 302.54 317.602 307.493 316.142 308.369" fill="#FFAD9D"/>
<path d="M318.056 306.782L334.256 330.963L307.555 358.194L308.464 314.028L318.056 306.782Z" fill="#FF725E"/>
</svg>
