<svg width="195" height="173" viewBox="0 0 195 173" fill="none" xmlns="http://www.w3.org/2000/svg">
<path d="M69.2299 4.06017C69.7919 1.6908 75.6706 -0.56038 80.7288 2.93458C82.9711 4.45499 84.6529 6.67048 85.5159 9.24075C86.3789 11.811 86.3754 14.5939 85.506 17.162C82.7914 25.21 96.96 24.9117 100.242 38.4807C102.833 49.1738 100.433 64.3186 85.9725 63.497C63.9019 62.2419 65.8071 40.6418 64.8404 29.2903C63.8738 17.9387 51.8296 5.20827 69.2299 4.06017Z" fill="#263238"/>
<path d="M61.9403 34.3668C61.8448 36.0101 61.6537 37.5128 61.4401 39.0717C61.2266 40.6307 60.9287 42.1558 60.5971 43.6866C60.2655 45.2174 59.8889 46.7482 59.4112 48.2565C58.9498 49.7872 58.4019 51.2904 57.7701 52.7589L57.2755 53.8845C57.2025 54.0477 57.0676 54.2953 56.9664 54.5036C56.8653 54.7118 56.7304 54.9031 56.6124 55.1058C56.1501 55.8274 55.6354 56.514 55.0724 57.16C54.0253 58.3601 52.8987 59.4882 51.7003 60.5367C49.377 62.593 46.9049 64.4741 44.3041 66.1647L42.8091 64.1611C43.8657 63.1368 44.9448 62.0788 45.9845 61.0207C47.0243 59.9627 48.0528 58.8877 49.0307 57.7959C49.9942 56.7374 50.9039 55.631 51.7565 54.4811C52.1461 53.9426 52.4991 53.3786 52.8131 52.7927C52.8749 52.6632 52.9536 52.5282 53.0042 52.4043C53.0548 52.2805 53.111 52.1792 53.1728 51.9935L53.5549 51.003C54.5193 48.2835 55.2709 45.493 55.803 42.6567C56.0897 41.2272 56.2976 39.7752 56.5112 38.3288C56.7248 36.8825 56.8877 35.391 57.0114 34.0178L61.9403 34.3668Z" fill="#FFB573"/>
<path d="M58.5682 28.4574C56.573 28.9639 55.196 37.192 55.196 37.192L62.8339 42.3922C62.8339 42.3922 65.9756 32.6389 64.4357 30.4384C62.8171 28.1422 61.4795 27.7145 58.5682 28.4574Z" fill="#3F3F3F"/>
<path opacity="0.2" d="M58.7482 30.2921L57.2139 38.5877L60.305 40.6869L58.7482 30.2921Z" fill="black"/>
<path d="M43.7197 63.4745L38.5771 64.2962L41.5109 67.5491C41.5109 67.5491 44.5402 66.8569 45.0741 64.9152L43.7197 63.4745Z" fill="#FFB573"/>
<path d="M36.1436 64.9434L39.0773 68.1231L41.5109 67.5491L38.5771 64.2961L36.1436 64.9434Z" fill="#FFB573"/>
<path d="M69.3703 166.927H64.5257L64.1997 155.694H69.0443L69.3703 166.927Z" fill="#FFB573"/>
<path d="M102.867 152.632L98.382 154.467L92.7 144.658L97.1849 142.823L102.867 152.632Z" fill="#FFB573"/>
<path d="M97.5387 153.792L102.215 151.012C102.295 150.962 102.39 150.943 102.484 150.958C102.577 150.974 102.661 151.023 102.721 151.096L105.452 154.473C105.515 154.56 105.559 154.66 105.581 154.766C105.604 154.871 105.604 154.98 105.583 155.086C105.561 155.192 105.518 155.292 105.456 155.38C105.393 155.468 105.314 155.543 105.222 155.598C103.575 156.538 102.732 156.91 100.675 158.137C99.4103 158.891 96.4316 161.468 94.6837 162.51C92.9358 163.551 91.8174 161.874 92.4356 161.283C94.4967 159.417 96.058 157.064 96.9767 154.439C97.0856 154.166 97.2837 153.938 97.5387 153.792Z" fill="#263238"/>
<path d="M64.357 166.37H69.803C69.8956 166.368 69.9859 166.4 70.0564 166.46C70.1269 166.521 70.1727 166.605 70.1852 166.697L70.809 171.013C70.82 171.122 70.8081 171.232 70.7742 171.336C70.7402 171.439 70.6849 171.535 70.6119 171.616C70.5388 171.697 70.4496 171.762 70.35 171.807C70.2503 171.851 70.1425 171.874 70.0334 171.874C68.1338 171.841 67.2233 171.728 64.8235 171.728C63.351 171.728 60.3273 171.88 58.2759 171.88C56.2245 171.88 56.1346 169.871 56.9776 169.685C60.7769 168.869 62.2719 167.743 63.5477 166.669C63.7737 166.476 64.0605 166.371 64.357 166.37Z" fill="#263238"/>
<g opacity="0.2">
<path d="M64.2053 155.7L64.3683 161.491H69.2129L69.05 155.7H64.2053Z" fill="black"/>
<path d="M97.1905 142.823L92.7 144.658L95.6337 149.717L100.119 147.882L97.1905 142.823Z" fill="black"/>
</g>
<path d="M58.4029 28.4523C58.4029 28.4523 56.093 29.2627 60.7185 57.7176H80.3893C80.0577 49.6978 80.052 44.7733 83.8794 28.3003C81.1247 27.7219 78.3316 27.3457 75.5221 27.1747C72.5491 26.9606 69.5646 26.9606 66.5916 27.1747C62.753 27.5743 58.4029 28.4523 58.4029 28.4523Z" fill="#3F3F3F"/>
<path opacity="0.2" d="M82.4205 34.8282C80.6389 35.2729 78.9922 37.2201 79.1889 40.8051C79.2997 42.4311 79.8687 43.9923 80.83 45.3075C81.1447 42.5498 81.673 39.3475 82.516 35.2503L82.4205 34.8282Z" fill="black"/>
<path d="M67.791 35.0815C67.791 35.0815 70.3482 36.6629 71.017 39.0211C73.7934 36.9837 77.5646 31.3164 77.7163 27.9227C77.7171 27.824 77.6983 27.726 77.6611 27.6346C77.6238 27.5431 77.5689 27.4599 77.4994 27.3898C77.4299 27.3197 77.3473 27.2641 77.2562 27.2261C77.1651 27.1881 77.0675 27.1686 76.9688 27.1686C76.5409 27.1576 76.1127 27.1764 75.6874 27.2249L67.791 35.0815Z" fill="#FAFAFA"/>
<path d="M67.791 35.0814C67.791 35.0814 65.2338 36.6629 64.565 39.021C61.5807 36.8317 63.2386 29.6054 64.9472 27.2023C65.5487 27.1388 66.1553 27.1388 66.7569 27.2023L67.791 35.0814Z" fill="#FAFAFA"/>
<path d="M74.8107 17.1395C74.2487 20.0154 73.6867 25.2888 75.6931 27.2136C73.8291 30.5129 71.0981 33.2379 67.7967 35.0927C63.8119 31.9073 66.7626 27.2136 66.7626 27.2136C69.9661 26.4482 69.8818 24.0619 69.3254 21.8276L74.8107 17.1395Z" fill="#FFB573"/>
<path opacity="0.2" d="M72.5625 19.0531L69.314 21.8277C69.4542 22.3471 69.5464 22.8784 69.5894 23.4148C70.8146 23.2347 72.7423 22.1935 73.0064 20.8597C73.1245 20.2293 72.6749 19.3514 72.5625 19.0531Z" fill="black"/>
<path d="M79.6216 12.5133C78.2952 17.1395 77.8287 19.1262 74.9287 21.0115C70.5674 23.8255 65.1832 21.1916 65.1046 16.2615C65.0315 11.8211 67.2178 5.00562 72.2198 4.1558C73.3212 3.96321 74.4535 4.05601 75.509 4.42537C76.5644 4.79474 77.508 5.42839 78.2499 6.26604C78.9917 7.10369 79.5072 8.11748 79.7473 9.21098C79.9874 10.3045 79.9441 11.4413 79.6216 12.5133Z" fill="#FFB573"/>
<path d="M69.6458 4.56669C69.8649 6.13126 78.4189 11.1626 80.0432 8.54002C81.6674 5.9174 79.3294 3.94199 75.6875 3.4411C73.6043 3.11362 71.4719 3.51088 69.6458 4.56669Z" fill="#263238"/>
<path d="M75.2208 5.4165C74.1698 6.80098 76.3955 16.7737 79.5821 15.8338C82.7688 14.894 82.6227 11.7029 80.4083 8.7595C79.1553 7.03706 77.3054 5.84493 75.2208 5.4165Z" fill="#263238"/>
<path d="M60.8837 57.7339C60.8837 57.7339 57.0619 95.1147 57.3879 109.888C57.7195 125.275 63.3509 160.371 63.3509 160.371H69.8985C69.8985 160.371 68.8644 126.175 69.4433 111.064C70.0727 94.5913 75.2995 57.7339 75.2995 57.7339H60.8837Z" fill="#3F3F3F"/>
<path opacity="0.4" d="M60.8837 57.7339C60.8837 57.7339 57.0619 95.1147 57.3879 109.888C57.7195 125.275 63.3509 160.371 63.3509 160.371H69.8985C69.8985 160.371 68.8644 126.175 69.4433 111.064C70.0727 94.5913 75.2995 57.7339 75.2995 57.7339H60.8837Z" fill="black"/>
<path d="M70.4551 160.602H62.7722L62.2102 158.148L70.8148 157.85L70.4551 160.602Z" fill="#263238"/>
<path opacity="0.2" d="M69.3702 67.0313C64.5368 76.7621 68.3979 94.5182 70.1065 101.125C70.9832 91.2034 72.4613 79.0751 73.6135 70.1717C72.8772 65.1291 71.5958 62.5402 69.3702 67.0313Z" fill="black"/>
<path d="M66.0769 57.734C66.0769 57.734 70.5337 96.5668 73.9003 109.05C77.8962 123.857 94.1331 149.121 94.1331 149.121L100.248 146.622C100.248 146.622 89.7661 117.857 86.7087 110.04C80.1893 93.387 85.7702 68.579 80.5602 57.7002L66.0769 57.734Z" fill="#3F3F3F"/>
<path opacity="0.4" d="M66.0769 57.734C66.0769 57.734 70.5337 96.5668 73.9003 109.05C77.8962 123.857 94.1331 149.121 94.1331 149.121L100.248 146.622C100.248 146.622 89.7661 117.857 86.7087 110.04C80.1893 93.387 85.7702 68.579 80.5602 57.7002L66.0769 57.734Z" fill="black"/>
<path d="M101.08 146.65L93.4923 149.751L91.7107 147.697L100.473 143.645L101.08 146.65Z" fill="#263238"/>
<path d="M11.645 8.30929C6.75047 12.6471 3.25045 18.3408 1.58749 24.6706C-0.0754583 31.0003 0.173355 37.6817 2.30247 43.8698C4.43158 50.0579 8.34537 55.4748 13.5489 59.4355C18.7524 63.3962 25.012 65.7228 31.536 66.1211C38.06 66.5194 44.5554 64.9715 50.2009 61.673C55.8464 58.3746 60.3883 53.4739 63.2523 47.5906C66.1163 41.7073 67.1738 35.1057 66.291 28.6206C65.4083 22.1354 62.6249 16.0581 58.2928 11.157C52.4831 4.58649 44.3054 0.595414 35.5577 0.0613895C26.8101 -0.472635 18.2087 2.49411 11.645 8.30929ZM51.9813 53.952C47.8613 57.6023 42.7528 59.9472 37.302 60.6902C31.8511 61.4332 26.3026 60.541 21.3581 58.1263C16.4136 55.7116 12.2952 51.8829 9.52369 47.1244C6.75218 42.3658 5.45202 36.8912 5.78764 31.3928C6.12326 25.8943 8.07957 20.619 11.4092 16.2339C14.7388 11.8488 19.2922 8.55086 24.4936 6.75715C29.6949 4.96345 35.3106 4.75451 40.6306 6.15677C45.9505 7.55904 50.7358 10.5095 54.3811 14.6351C56.8017 17.3745 58.6596 20.5644 59.849 24.0228C61.0384 27.4812 61.5358 31.1403 61.313 34.7912C61.0901 38.4422 60.1514 42.0134 58.5502 45.301C56.9491 48.5886 54.717 51.5282 51.9813 53.952Z" fill="#263238"/>
<path opacity="0.3" d="M31.9958 58.5725C26.9617 58.2691 22.1306 56.4775 18.1136 53.4242C14.0966 50.3709 11.0742 46.1931 9.4288 41.4194C7.78335 36.6457 7.5888 31.4905 8.86975 26.606C10.1507 21.7216 12.8496 17.3273 16.625 13.9791C20.4004 10.6309 25.0827 8.47922 30.0795 7.79629C35.0763 7.11336 40.1632 7.92985 44.6965 10.1425C49.2299 12.3551 53.006 15.8644 55.5472 20.2265C58.0885 24.5885 59.2806 29.6074 58.9729 34.648C58.5591 41.4012 55.4856 47.7138 50.4275 52.1995C45.3694 56.6853 38.7402 58.9774 31.9958 58.5725Z" fill="#B8B8B8"/>
<g opacity="0.5">
<path d="M35.0981 7.61145H34.6203L8.13785 31.08L8.10412 31.5584C7.76054 37.0919 9.23288 42.5862 12.2968 47.2041L50.0816 13.6784C45.8803 10.0759 40.6191 7.94562 35.0981 7.61145Z" fill="#FAFAFA"/>
<path d="M52.5488 16.0759L14.3706 49.9055C15.6456 51.3799 17.0865 52.7019 18.6645 53.8451L55.9041 20.8259C54.9701 19.1197 53.8444 17.526 52.5488 16.0759Z" fill="#FAFAFA"/>
</g>
<path d="M59.5517 58.1222L55.2017 61.9774C54.8852 62.2571 54.4711 62.3999 54.0498 62.3746C53.6285 62.3493 53.2343 62.1579 52.9536 61.8423C52.677 61.5242 52.5363 61.1101 52.5615 60.6891C52.5867 60.2681 52.7759 59.8738 53.0885 59.5911L57.4385 55.736C57.7556 55.457 58.1702 55.3151 58.5916 55.3415C59.0129 55.3679 59.4066 55.5603 59.6866 55.8767C59.9656 56.1926 60.1081 56.6064 60.0828 57.0274C60.0575 57.4483 59.8665 57.8421 59.5517 58.1222Z" fill="#263238"/>
<path d="M57.95 57.4076C61.2266 60.2947 64.3627 63.3113 67.4595 66.3673C70.5562 69.4233 73.5799 72.558 76.5698 75.6759C79.5598 78.7938 82.4936 82.013 85.4048 85.2434C88.1363 88.6202 91.8569 91.119 92.4133 96.4205C92.4568 96.8445 92.3989 97.2728 92.2444 97.67C92.0898 98.0671 91.8431 98.4217 91.5245 98.7044C91.206 98.9871 90.8248 99.1897 90.4125 99.2956C90.0002 99.4015 89.5686 99.4076 89.1535 99.3133C83.9604 98.1145 81.9428 94.1131 78.9303 90.9839C76.0903 87.701 73.2914 84.388 70.5337 81.045C67.7761 77.702 65.069 74.3046 62.4125 70.8528C59.7598 67.4084 57.152 63.9247 54.6847 60.3172C54.368 59.8754 54.226 59.3319 54.2859 58.7914C54.3458 58.2509 54.6035 57.7517 55.0092 57.3902C55.4149 57.0287 55.9399 56.8305 56.4829 56.8337C57.026 56.8369 57.5486 57.0413 57.95 57.4076Z" fill="#263238"/>
<path d="M71.8768 12.0969C71.7925 12.4796 71.5228 12.7441 71.2699 12.6597C71.0169 12.5753 70.8877 12.2488 70.972 11.8718C71.0563 11.4947 71.3261 11.2246 71.579 11.309C71.8319 11.3934 71.9611 11.7142 71.8768 12.0969Z" fill="#263238"/>
<path d="M67.5662 11.1402C67.4819 11.5229 67.2065 11.7874 66.9592 11.7311C66.7119 11.6749 66.5771 11.3203 66.6614 10.9376C66.7457 10.5549 67.0154 10.2904 67.2684 10.3467C67.5213 10.4029 67.6505 10.7575 67.5662 11.1402Z" fill="#263238"/>
<path d="M67.375 10.3917L66.5151 9.92456C66.5151 9.92456 66.8242 10.7462 67.375 10.3917Z" fill="#263238"/>
<path d="M68.7409 12.125C68.2078 12.9194 67.5687 13.6371 66.8413 14.258C67.0047 14.4411 67.206 14.5863 67.4312 14.6835C67.6564 14.7807 67.9001 14.8276 68.1452 14.8208L68.7409 12.125Z" fill="#ED893E"/>
<path d="M69.8929 16.7738C69.7036 16.7604 69.5157 16.7322 69.3308 16.6893C69.3164 16.686 69.3028 16.6799 69.2908 16.6713C69.2788 16.6627 69.2686 16.6518 69.2607 16.6393C69.2529 16.6267 69.2476 16.6128 69.2452 16.5982C69.2428 16.5836 69.2432 16.5687 69.2465 16.5543C69.2499 16.5399 69.256 16.5262 69.2646 16.5142C69.2731 16.5022 69.284 16.4919 69.2965 16.4841C69.309 16.4763 69.323 16.471 69.3375 16.4685C69.3521 16.4661 69.367 16.4665 69.3814 16.4699C69.8538 16.5847 70.3465 16.587 70.8199 16.4765C71.2933 16.3661 71.7342 16.146 72.1072 15.8339C72.1167 15.819 72.1295 15.8064 72.1445 15.7971C72.1595 15.7877 72.1764 15.7819 72.1939 15.78C72.2115 15.7781 72.2292 15.7801 72.2459 15.786C72.2625 15.7919 72.2777 15.8014 72.2902 15.8139C72.3027 15.8264 72.3122 15.8416 72.318 15.8583C72.3239 15.8749 72.326 15.8927 72.324 15.9103C72.3221 15.9279 72.3163 15.9448 72.307 15.9598C72.2977 15.9749 72.2851 15.9876 72.2702 15.9971C71.945 16.2777 71.5674 16.4908 71.1593 16.6241C70.7512 16.7575 70.3207 16.8083 69.8929 16.7738Z" fill="#263238"/>
<path d="M79.9307 17.1283C79.6718 17.511 79.3399 17.8388 78.9541 18.0928C78.5683 18.3468 78.1362 18.522 77.6826 18.6084C76.4687 18.8335 75.9966 17.7192 76.4069 16.633C76.789 15.6538 77.8906 14.3818 79.0596 14.6295C79.3142 14.6928 79.5489 14.8186 79.7428 14.9956C79.9366 15.1725 80.0834 15.395 80.1698 15.643C80.2563 15.891 80.2797 16.1566 80.2379 16.4159C80.1962 16.6752 80.0906 16.9201 79.9307 17.1283Z" fill="#FFB573"/>
<path d="M73.6866 10.4142C73.6409 10.4281 73.592 10.4274 73.5467 10.4123C73.5014 10.3972 73.4619 10.3683 73.4337 10.3297C72.8098 9.46867 71.4385 9.47992 71.4273 9.47992C71.3662 9.47992 71.3075 9.45562 71.2643 9.41234C71.2211 9.36907 71.1968 9.31038 71.1968 9.24918C71.1961 9.21915 71.2014 9.18927 71.2123 9.1613C71.2233 9.13334 71.2397 9.10785 71.2607 9.08635C71.2816 9.06484 71.3067 9.04776 71.3343 9.03609C71.3619 9.02443 71.3917 9.01842 71.4217 9.01843C71.4891 9.01843 73.0403 9.01844 73.8046 10.0596C73.8401 10.109 73.8547 10.1703 73.8452 10.2304C73.8358 10.2905 73.803 10.3444 73.754 10.3804L73.6866 10.4142Z" fill="#263238"/>
<path d="M66.6669 7.97725C66.6273 7.97441 66.5889 7.96157 66.5555 7.93993C66.5221 7.91828 66.4947 7.88853 66.4759 7.85343C66.4484 7.79893 66.4436 7.73576 66.4626 7.67774C66.4816 7.61973 66.5227 7.5716 66.577 7.5439C66.8983 7.37133 67.2559 7.27776 67.6205 7.27091C67.985 7.26406 68.3459 7.34413 68.6734 7.5045C68.7252 7.53612 68.7628 7.5865 68.7785 7.64519C68.7942 7.70387 68.7868 7.76635 68.7577 7.81967C68.7271 7.87265 68.6768 7.91131 68.6178 7.92714C68.5587 7.94297 68.4959 7.93468 68.4429 7.90409C68.1822 7.78091 67.896 7.72128 67.6079 7.73009C67.3197 7.73889 67.0377 7.81587 66.785 7.95474C66.7476 7.97035 66.7074 7.97801 66.6669 7.97725Z" fill="#263238"/>
<path d="M95.6786 155.632H95.6055C95.4968 155.607 95.3964 155.555 95.3138 155.48C95.2311 155.405 95.169 155.31 95.1334 155.204C95.1019 155.142 95.0878 155.073 95.0928 155.004C95.0977 154.934 95.1215 154.867 95.1615 154.81C95.5156 154.304 97.2691 154.366 97.4658 154.377C97.4884 154.376 97.5106 154.383 97.529 154.396C97.5473 154.409 97.5607 154.428 97.5669 154.45C97.5745 154.471 97.5759 154.494 97.5709 154.516C97.5659 154.538 97.5548 154.558 97.5388 154.574C97.1061 155.002 96.2799 155.705 95.6786 155.632ZM97.196 154.591C96.4935 154.591 95.5549 154.67 95.3694 154.934C95.3541 154.961 95.3461 154.991 95.3461 155.021C95.3461 155.052 95.3541 155.082 95.3694 155.109C95.3924 155.18 95.4327 155.243 95.4867 155.295C95.5407 155.346 95.6067 155.382 95.6786 155.401C95.9989 155.475 96.5553 155.165 97.196 154.591Z" fill="#3F3F3F"/>
<path d="M97.2915 154.591C96.6902 154.518 95.6055 154.107 95.4593 153.634C95.4293 153.548 95.4296 153.454 95.4603 153.368C95.4909 153.282 95.5501 153.209 95.6279 153.161C95.6968 153.107 95.7767 153.068 95.8622 153.047C95.9476 153.027 96.0365 153.026 96.1225 153.043C96.8138 153.178 97.5332 154.377 97.5669 154.428C97.5754 154.445 97.5798 154.465 97.5798 154.484C97.5798 154.504 97.5754 154.523 97.5669 154.54C97.5563 154.558 97.5414 154.572 97.5237 154.582C97.506 154.592 97.486 154.597 97.4658 154.597C97.4076 154.6 97.3493 154.598 97.2915 154.591ZM96.0495 153.263C95.9491 153.251 95.8483 153.28 95.7685 153.342C95.6504 153.432 95.6561 153.505 95.6785 153.555C95.7909 153.876 96.6621 154.276 97.2466 154.355C96.988 153.966 96.4935 153.347 96.0832 153.268L96.0495 153.263Z" fill="#3F3F3F"/>
<path d="M62.5417 167.214C62.1275 167.254 61.7126 167.148 61.3671 166.916C61.2884 166.847 61.2283 166.759 61.1919 166.661C61.1556 166.563 61.1444 166.457 61.1591 166.353C61.1617 166.29 61.1806 166.229 61.2142 166.176C61.2477 166.123 61.2946 166.079 61.3502 166.049C61.946 165.717 63.8793 166.708 64.0929 166.82C64.1139 166.832 64.131 166.849 64.1421 166.87C64.1531 166.891 64.1575 166.915 64.1547 166.939C64.1525 166.962 64.1424 166.985 64.1262 167.002C64.1099 167.019 64.0883 167.031 64.0648 167.034C63.564 167.143 63.054 167.203 62.5417 167.214ZM61.6762 166.213C61.6029 166.208 61.5296 166.222 61.4626 166.252C61.4405 166.265 61.4217 166.283 61.408 166.304C61.3943 166.326 61.386 166.35 61.3839 166.376C61.3754 166.444 61.3832 166.513 61.4066 166.578C61.4301 166.642 61.4686 166.701 61.5188 166.747C61.8111 167.012 62.6092 167.057 63.6826 166.877C63.0559 166.544 62.3776 166.319 61.6762 166.213Z" fill="#3F3F3F"/>
<path d="M64.0423 167.046H63.9974C63.4353 166.787 62.2776 165.74 62.3675 165.188C62.3675 165.059 62.4799 164.896 62.7946 164.862C62.9087 164.85 63.0241 164.861 63.1335 164.896C63.2428 164.931 63.3437 164.989 63.4297 165.065C64.0423 165.571 64.1547 166.877 64.1547 166.933C64.1579 166.953 64.1553 166.972 64.1473 166.99C64.1393 167.008 64.1263 167.024 64.1098 167.034C64.0891 167.045 64.0654 167.049 64.0423 167.046ZM62.8902 165.076H62.8171C62.6092 165.076 62.5979 165.183 62.5923 165.211C62.5361 165.537 63.3117 166.365 63.9018 166.719C63.8564 166.168 63.6403 165.645 63.2836 165.222C63.1762 165.124 63.0353 165.072 62.8902 165.076Z" fill="#3F3F3F"/>
<path d="M71.6858 11.354L70.8259 10.8812C70.8259 10.8812 71.135 11.7029 71.6858 11.354Z" fill="#263238"/>
<path d="M80.8525 56.5746L81.3527 58.3361C81.4202 58.4768 81.2628 58.6175 81.0324 58.6175H60.7602C60.586 58.6175 60.4399 58.5275 60.4286 58.4149L60.2488 56.6534C60.2488 56.5296 60.3893 56.4282 60.586 56.4282H80.5097C80.5748 56.4183 80.6413 56.4267 80.7019 56.4526C80.7625 56.4784 80.8146 56.5207 80.8525 56.5746Z" fill="#3F3F3F"/>
<path opacity="0.2" d="M80.8525 56.5746L81.3527 58.3361C81.4202 58.4768 81.2628 58.6175 81.0324 58.6175H60.7602C60.586 58.6175 60.4399 58.5275 60.4286 58.4149L60.2488 56.6534C60.2488 56.5296 60.3893 56.4282 60.586 56.4282H80.5097C80.5748 56.4183 80.6413 56.4267 80.7019 56.4526C80.7625 56.4784 80.8146 56.5207 80.8525 56.5746Z" fill="black"/>
<path d="M78.1098 58.8032H78.6438C78.7505 58.8032 78.8292 58.7526 78.8236 58.685L78.5707 56.3944C78.5707 56.3269 78.4695 56.2706 78.3684 56.2706H77.8063C77.6996 56.2706 77.6153 56.3269 77.6265 56.3944L77.8738 58.685C77.9075 58.7526 78.0031 58.8032 78.1098 58.8032Z" fill="#3F3F3F"/>
<path opacity="0.4" d="M78.1098 58.8032H78.6438C78.7505 58.8032 78.8292 58.7526 78.8236 58.685L78.5707 56.3944C78.5707 56.3269 78.4695 56.2706 78.3684 56.2706H77.8063C77.6996 56.2706 77.6153 56.3269 77.6265 56.3944L77.8738 58.685C77.9075 58.7526 78.0031 58.8032 78.1098 58.8032Z" fill="white"/>
<path d="M62.2832 58.8032H62.8171C62.9239 58.8032 63.0025 58.7526 62.9969 58.685L62.7496 56.3944C62.7496 56.3269 62.6485 56.2706 62.5417 56.2706H62.0078C61.901 56.2706 61.8223 56.3269 61.8279 56.3944L62.0752 58.685C62.0865 58.7526 62.1764 58.8032 62.2832 58.8032Z" fill="#3F3F3F"/>
<path opacity="0.4" d="M62.2832 58.8032H62.8171C62.9239 58.8032 63.0025 58.7526 62.9969 58.685L62.7496 56.3944C62.7496 56.3269 62.6485 56.2706 62.5417 56.2706H62.0078C61.901 56.2706 61.8223 56.3269 61.8279 56.3944L62.0752 58.685C62.0865 58.7526 62.1764 58.8032 62.2832 58.8032Z" fill="white"/>
<path d="M70.1628 58.8032H70.7248C70.8316 58.8032 70.9103 58.7526 70.9046 58.685L70.6574 56.3944C70.6574 56.3269 70.5562 56.2706 70.4494 56.2706H69.9155C69.8087 56.2706 69.73 56.3269 69.7356 56.3944L69.9829 58.685C69.9661 58.7526 70.056 58.8032 70.1628 58.8032Z" fill="#3F3F3F"/>
<path opacity="0.4" d="M70.1628 58.8032H70.7248C70.8316 58.8032 70.9103 58.7526 70.9046 58.685L70.6574 56.3944C70.6574 56.3269 70.5562 56.2706 70.4494 56.2706H69.9155C69.8087 56.2706 69.73 56.3269 69.7356 56.3944L69.9829 58.685C69.9661 58.7526 70.056 58.8032 70.1628 58.8032Z" fill="white"/>
<path d="M68.7352 61.6623L63.958 59.5237L65.3181 64.268C65.3181 64.268 68.353 64.9547 69.6738 63.4295L68.7352 61.6623Z" fill="#FFB573"/>
<path d="M86.3378 34.1584C86.557 35.8187 86.7313 37.4902 86.928 39.1504L87.4338 44.1593C87.6136 45.8477 87.7485 47.4967 87.9059 49.1682L88.1138 51.6726L88.17 52.303C88.17 52.3649 88.17 52.6238 88.17 52.8039C88.17 52.9839 88.17 53.1922 88.17 53.3666C88.0862 54.0821 87.8587 54.7732 87.5012 55.3983C86.9226 56.3612 86.1584 57.1992 85.2532 57.8634C84.4941 58.4365 83.6896 58.9466 82.8477 59.3885C81.2734 60.2032 79.6364 60.8901 77.9525 61.4427C76.3057 62.0055 74.6534 62.4727 72.9954 62.8891C71.3375 63.3056 69.6795 63.6489 67.9653 63.9134L67.4033 61.5215C68.9489 61.0094 70.5282 60.486 72.0625 59.8951C73.5968 59.3041 75.1311 58.7244 76.6036 58.0547C78.0531 57.4195 79.4576 56.6862 80.8076 55.8598C81.43 55.4834 82.0202 55.0561 82.5723 54.5823C83.0052 54.2311 83.366 53.7992 83.6345 53.3104C83.6931 53.2034 83.724 53.0834 83.7244 52.9614C83.7244 52.9614 83.7244 52.9614 83.7244 52.9164C83.7244 52.8714 83.7244 52.9164 83.7244 52.7926L83.6345 52.1735L83.2748 49.6803C83.0556 47.992 82.8083 46.3542 82.606 44.6883L81.9709 39.6963C81.7911 38.008 81.5831 36.3646 81.4089 34.6931L86.3378 34.1584Z" fill="#FFB573"/>
<path d="M84.0447 28.3167C86.0118 28.9132 88.3835 35.7118 88.3835 35.7118L81.4875 42.8199C81.4875 42.8199 77.9467 35.5036 78.7729 32.9597C79.6384 30.3033 81.7966 27.6301 84.0447 28.3167Z" fill="#3F3F3F"/>
<path d="M60.0071 60.5086L61.3559 64.4144L65.3182 64.268L63.9581 59.5237L60.0071 60.5086Z" fill="#FFB573"/>
<path d="M126.821 46.585C128.113 37.3326 121.661 29.8306 112.422 29.8306H179.932C189.177 29.8306 195.623 37.3326 194.336 46.585H126.821Z" fill="#263238"/>
<path opacity="0.7" d="M126.821 46.585C128.113 37.3326 121.661 29.8306 112.422 29.8306H179.932C189.177 29.8306 195.623 37.3326 194.336 46.585H126.821Z" fill="#3F3F3F"/>
<path d="M112.422 29.8306H179.932C170.692 29.8306 162.155 37.3326 160.868 46.585L145.603 156.24C144.316 165.498 135.779 173 126.54 173H92.4923C83.2527 173 76.8063 165.498 78.0933 156.24L93.3522 46.585C94.6449 37.3326 103.176 29.8306 112.422 29.8306Z" fill="#F0F0F0"/>
<path d="M112.135 156.24C110.848 165.498 117.294 173 126.54 173H59.0238C49.7842 173 43.3378 165.498 44.6248 156.24H112.135Z" fill="#263238"/>
<path opacity="0.7" d="M112.135 156.24C110.848 165.498 117.294 173 126.54 173H59.0238C49.7842 173 43.3378 165.498 44.6248 156.24H112.135Z" fill="#3F3F3F"/>
<path opacity="0.4" d="M122.96 63.9416H149.099C149.48 63.9235 149.843 63.7768 150.13 63.5254C150.417 63.274 150.61 62.9326 150.678 62.5571C150.708 62.3846 150.7 62.2076 150.653 62.0389C150.607 61.8701 150.524 61.7137 150.41 61.5808C150.296 61.448 150.154 61.342 149.995 61.2705C149.835 61.1989 149.662 61.1636 149.487 61.167H123.347C122.964 61.179 122.597 61.3244 122.308 61.578C122.02 61.8317 121.829 62.1778 121.768 62.5571C121.738 62.7293 121.747 62.906 121.793 63.0745C121.84 63.2431 121.923 63.3992 122.037 63.5316C122.151 63.664 122.293 63.7695 122.452 63.8404C122.612 63.9113 122.785 63.9458 122.96 63.9416Z" fill="#A8ADAF"/>
<path opacity="0.4" d="M122.24 69.1024H141.456C141.838 69.0906 142.205 68.9461 142.493 68.6936C142.781 68.441 142.973 68.0962 143.035 67.718C143.065 67.5457 143.056 67.369 143.01 67.2005C142.963 67.032 142.88 66.8759 142.766 66.7435C142.652 66.611 142.51 66.5056 142.351 66.4347C142.191 66.3638 142.018 66.3292 141.843 66.3335H122.628C122.245 66.3443 121.878 66.4884 121.589 66.7411C121.301 66.9938 121.11 67.3392 121.049 67.718C121.019 67.8902 121.027 68.0669 121.074 68.2354C121.12 68.4039 121.203 68.56 121.317 68.6925C121.431 68.8249 121.573 68.9303 121.733 69.0012C121.892 69.0721 122.065 69.1067 122.24 69.1024Z" fill="#A8ADAF"/>
<path opacity="0.4" d="M111.401 69.9184C115.017 66.5409 115.569 61.2492 112.635 58.099C109.7 54.9488 104.39 55.1331 100.774 58.5106C97.1586 61.8881 96.6065 67.1798 99.541 70.33C102.476 73.4801 107.786 73.2959 111.401 69.9184Z" fill="white"/>
<path d="M98.6352 64.2455C98.4544 65.4461 98.594 66.6732 99.0398 67.8024C99.5248 68.9902 100.361 70.0014 101.435 70.7004C102.51 71.3995 103.773 71.753 105.053 71.7138C106.463 71.6803 107.844 71.3073 109.08 70.6265C110.315 69.9457 111.369 68.977 112.152 67.8024C112.884 66.7402 113.361 65.5229 113.546 64.2455C114.108 60.1258 111.247 56.7828 107.127 56.7828C105.066 56.842 103.089 57.6199 101.539 58.9822C99.9884 60.3446 98.9615 62.2061 98.6352 64.2455Z" fill="white"/>
<path opacity="0.4" d="M100.664 67.0594C101.036 67.9699 101.676 68.7451 102.5 69.2812C103.323 69.8172 104.291 70.0887 105.273 70.0591C106.355 70.034 107.416 69.7483 108.364 69.2262C109.313 68.7041 110.123 67.9609 110.724 67.0594C109.324 66.0469 107.635 65.5122 105.908 65.5342C104.053 65.55 102.239 66.0777 100.664 67.0594Z" fill="#263238"/>
<path opacity="0.4" d="M103.795 62.3882C103.738 62.7062 103.752 63.0329 103.837 63.3444C103.922 63.656 104.076 63.9447 104.286 64.1895C104.497 64.4343 104.759 64.6289 105.054 64.7593C105.349 64.8897 105.67 64.9526 105.992 64.9433C106.697 64.9231 107.373 64.6566 107.903 64.19C108.432 63.7234 108.782 63.086 108.892 62.3882C108.949 62.0711 108.935 61.7451 108.85 61.4342C108.765 61.1233 108.612 60.8352 108.402 60.591C108.192 60.3467 107.931 60.1525 107.636 60.0223C107.342 59.8922 107.022 59.8295 106.7 59.8388C105.995 59.8586 105.319 60.1241 104.789 60.5895C104.258 61.0549 103.907 61.691 103.795 62.3882Z" fill="#263238"/>
<path opacity="0.4" d="M119.823 86.4928H128.641C129.024 86.481 129.391 86.3365 129.679 86.0839C129.967 85.8314 130.158 85.4866 130.221 85.1084C130.251 84.9361 130.242 84.7594 130.196 84.5909C130.149 84.4224 130.066 84.2663 129.952 84.1338C129.838 84.0014 129.696 83.896 129.537 83.8251C129.377 83.7542 129.204 83.7196 129.029 83.7239H120.205C119.823 83.7348 119.457 83.8792 119.169 84.132C118.882 84.3848 118.692 84.7301 118.632 85.1084C118.602 85.2806 118.61 85.4573 118.657 85.6258C118.703 85.7943 118.786 85.9504 118.9 86.0829C119.014 86.2153 119.156 86.3207 119.316 86.3916C119.475 86.4625 119.649 86.4971 119.823 86.4928Z" fill="#A8ADAF"/>
<path opacity="0.4" d="M133.964 86.4928H146.564C146.947 86.4809 147.314 86.3364 147.602 86.0839C147.89 85.8314 148.081 85.4865 148.144 85.1083C148.175 84.9359 148.167 84.7588 148.121 84.5898C148.075 84.4209 147.992 84.2643 147.878 84.1316C147.763 83.999 147.621 83.8935 147.461 83.8229C147.301 83.7524 147.127 83.7185 146.952 83.7238H134.352C133.969 83.7346 133.601 83.8787 133.313 84.1314C133.025 84.3841 132.834 84.7296 132.772 85.1083C132.742 85.2805 132.751 85.4572 132.797 85.6258C132.844 85.7943 132.927 85.9504 133.041 86.0828C133.155 86.2152 133.297 86.3207 133.457 86.3916C133.616 86.4625 133.789 86.497 133.964 86.4928Z" fill="#A8ADAF"/>
<path opacity="0.4" d="M119.104 91.6592H140.703C141.086 91.6471 141.453 91.5018 141.742 91.2482C142.03 90.9945 142.221 90.6484 142.282 90.2691C142.312 90.0969 142.303 89.9201 142.257 89.7516C142.21 89.5831 142.127 89.427 142.013 89.2946C141.899 89.1622 141.757 89.0567 141.598 88.9858C141.438 88.9149 141.265 88.8804 141.09 88.8846H119.486C119.105 88.8977 118.739 89.0428 118.452 89.2953C118.165 89.5477 117.975 89.8918 117.913 90.2691C117.882 90.4417 117.889 90.6191 117.936 90.7883C117.982 90.9575 118.065 91.1144 118.179 91.2475C118.293 91.3806 118.435 91.4866 118.595 91.5578C118.755 91.629 118.929 91.6636 119.104 91.6592Z" fill="#A8ADAF"/>
<path opacity="0.4" d="M108.265 92.4718C111.881 89.0944 112.433 83.8027 109.498 80.6525C106.564 77.5023 101.253 77.6866 97.6378 81.0641C94.0221 84.4416 93.47 89.7333 96.4046 92.8835C99.3392 96.0336 104.649 95.8493 108.265 92.4718Z" fill="white"/>
<path d="M95.4934 86.7573C95.3141 87.9584 95.4557 89.1856 95.9037 90.3142C96.3843 91.5006 97.2147 92.5122 98.2841 93.214C99.3534 93.9158 100.611 94.2746 101.889 94.2425C103.299 94.2099 104.681 93.8373 105.916 93.1564C107.152 92.4756 108.205 91.5064 108.988 90.3311C109.725 89.271 110.204 88.0529 110.387 86.7742C110.949 82.6545 108.088 79.3115 103.969 79.3115C101.912 79.3738 99.9417 80.151 98.3952 81.5097C96.8487 82.8683 95.8227 84.7237 95.4934 86.7573Z" fill="white"/>
<path opacity="0.4" d="M97.5225 89.6276C97.8951 90.5385 98.5366 91.3139 99.3611 91.8499C100.186 92.386 101.154 92.6572 102.137 92.6272C103.218 92.6013 104.277 92.3152 105.225 91.7931C106.173 91.271 106.982 90.5283 107.583 89.6276C106.182 88.6143 104.494 88.0796 102.766 88.1024C100.912 88.1199 99.0977 88.6475 97.5225 89.6276Z" fill="#263238"/>
<path opacity="0.4" d="M100.658 84.9394C100.601 85.2569 100.616 85.583 100.701 85.8942C100.785 86.2054 100.938 86.4937 101.148 86.7384C101.358 86.9831 101.62 87.1778 101.914 87.3086C102.208 87.4394 102.528 87.5029 102.85 87.4945C103.556 87.4744 104.233 87.2081 104.763 86.7416C105.294 86.2751 105.645 85.6376 105.756 84.9394C105.813 84.6222 105.798 84.2963 105.714 83.9853C105.629 83.6744 105.476 83.3864 105.266 83.1421C105.056 82.8979 104.794 82.7036 104.5 82.5735C104.205 82.4434 103.886 82.3807 103.564 82.3899C102.859 82.4098 102.183 82.6753 101.653 83.1407C101.122 83.6061 100.771 84.2422 100.658 84.9394Z" fill="#263238"/>
<path opacity="0.4" d="M116.682 109.05H132.042C132.425 109.038 132.793 108.892 133.081 108.639C133.369 108.385 133.56 108.039 133.621 107.659C133.651 107.487 133.643 107.311 133.596 107.142C133.55 106.974 133.466 106.817 133.352 106.685C133.238 106.553 133.097 106.447 132.937 106.376C132.777 106.305 132.604 106.271 132.43 106.275H117.064C116.681 106.287 116.315 106.431 116.027 106.684C115.738 106.936 115.547 107.281 115.485 107.659C115.454 107.833 115.462 108.01 115.508 108.18C115.554 108.35 115.638 108.507 115.752 108.64C115.867 108.773 116.01 108.879 116.171 108.95C116.332 109.021 116.506 109.055 116.682 109.05Z" fill="#A8ADAF"/>
<path opacity="0.4" d="M115.94 114.21H139.888C140.269 114.192 140.633 114.045 140.92 113.792C141.207 113.54 141.4 113.197 141.467 112.82C141.496 112.648 141.486 112.471 141.439 112.302C141.392 112.134 141.308 111.978 141.194 111.846C141.08 111.713 140.937 111.608 140.778 111.537C140.618 111.466 140.444 111.432 140.27 111.436H116.328C115.945 111.448 115.578 111.592 115.29 111.845C115.002 112.097 114.811 112.442 114.748 112.82C114.717 112.993 114.725 113.17 114.771 113.34C114.817 113.509 114.9 113.666 115.014 113.799C115.128 113.932 115.271 114.038 115.431 114.109C115.591 114.18 115.765 114.215 115.94 114.21Z" fill="#A8ADAF"/>
<path opacity="0.2" d="M89.7439 136.182H126.41C126.947 136.164 127.462 135.96 127.866 135.605C128.27 135.25 128.538 134.766 128.625 134.235C128.668 133.992 128.656 133.742 128.59 133.505C128.524 133.267 128.406 133.047 128.244 132.861C128.083 132.675 127.882 132.527 127.656 132.429C127.43 132.331 127.185 132.284 126.939 132.293H90.2835C89.7472 132.309 89.2331 132.511 88.8298 132.865C88.4266 133.22 88.1596 133.704 88.0747 134.235C88.0312 134.477 88.0421 134.725 88.1065 134.962C88.1709 135.199 88.2873 135.419 88.4471 135.606C88.607 135.792 88.8063 135.941 89.0306 136.04C89.2549 136.14 89.4986 136.188 89.7439 136.182Z" fill="#A8ADAF"/>
<path opacity="0.2" d="M88.738 143.42H115.681C116.218 143.403 116.732 143.199 117.135 142.844C117.539 142.488 117.805 142.003 117.89 141.472C117.933 141.229 117.921 140.98 117.855 140.742C117.79 140.505 117.671 140.285 117.51 140.098C117.348 139.912 117.147 139.765 116.921 139.666C116.695 139.568 116.45 139.522 116.204 139.531H89.2775C88.7409 139.547 88.2266 139.75 87.8226 140.104C87.4187 140.458 87.1502 140.942 87.0632 141.472C87.0257 141.714 87.0411 141.96 87.1082 142.195C87.1753 142.43 87.2925 142.648 87.4517 142.833C87.611 143.018 87.8085 143.166 88.0305 143.268C88.2526 143.369 88.494 143.421 88.738 143.42Z" fill="#A8ADAF"/>
<path opacity="0.2" d="M102.491 47.5924H146.21C146.485 47.5801 146.747 47.4731 146.952 47.2895C147.157 47.1059 147.292 46.857 147.334 46.585C147.356 46.4601 147.35 46.3319 147.316 46.2098C147.282 46.0876 147.222 45.9745 147.139 45.8786C147.056 45.7828 146.953 45.7065 146.837 45.6554C146.721 45.6043 146.595 45.5797 146.469 45.5832H102.772C102.498 45.5973 102.238 45.7042 102.034 45.8863C101.829 46.0685 101.693 46.3149 101.648 46.585C101.626 46.7083 101.632 46.8347 101.665 46.9555C101.697 47.0763 101.756 47.1885 101.836 47.2844C101.916 47.3803 102.016 47.4575 102.129 47.5107C102.242 47.5639 102.366 47.5918 102.491 47.5924Z" fill="#A8ADAF"/>
<path opacity="0.4" d="M105.126 115.025C108.742 111.648 109.294 106.356 106.359 103.206C103.425 100.056 98.1146 100.24 94.4989 103.617C90.8832 106.995 90.3311 112.286 93.2657 115.437C96.2002 118.587 101.51 118.403 105.126 115.025Z" fill="white"/>
<path d="M92.335 109.331C92.1545 110.532 92.2941 111.759 92.7396 112.888C93.2262 114.074 94.0625 115.084 95.137 115.782C96.2116 116.479 97.4731 116.833 98.7533 116.794C100.162 116.76 101.543 116.388 102.778 115.708C104.014 115.028 105.068 114.061 105.852 112.888C106.583 111.825 107.06 110.608 107.245 109.331C107.807 105.206 104.947 101.863 100.827 101.863C98.7645 101.922 96.7873 102.701 95.2369 104.064C93.6865 105.428 92.6601 107.29 92.335 109.331Z" fill="white"/>
<path opacity="0.4" d="M94.3862 112.184C94.7589 113.095 95.4004 113.871 96.2249 114.407C97.0495 114.943 98.0178 115.214 99.0004 115.184C100.082 115.158 101.141 114.872 102.089 114.35C103.037 113.828 103.845 113.085 104.446 112.184C103.047 111.169 101.358 110.634 99.6299 110.659C97.7748 110.672 95.9597 111.2 94.3862 112.184Z" fill="#263238"/>
<path opacity="0.4" d="M97.5167 107.496C97.4607 107.814 97.476 108.14 97.5614 108.451C97.6469 108.762 97.8004 109.05 98.0108 109.294C98.2212 109.538 98.4832 109.732 98.7779 109.862C99.0725 109.992 99.3924 110.055 99.7142 110.046C100.419 110.026 101.094 109.76 101.623 109.294C102.153 108.829 102.503 108.193 102.614 107.496C102.671 107.179 102.657 106.853 102.572 106.541C102.487 106.23 102.334 105.942 102.125 105.697C101.915 105.453 101.653 105.258 101.359 105.127C101.064 104.996 100.744 104.933 100.422 104.941C99.7166 104.961 99.04 105.228 98.5095 105.694C97.9789 106.161 97.6278 106.798 97.5167 107.496Z" fill="#263238"/>
</svg>
