<svg width="211" height="186" viewBox="0 0 211 186" fill="none" xmlns="http://www.w3.org/2000/svg">
<path d="M105.805 180.583C104.695 180.923 73.1246 180.536 71.9345 179.802C71.4745 179.528 71.2645 175.195 71.1745 169.948V169.793C71.1745 168.71 71.1345 167.598 71.1345 166.468C71.1345 166.312 71.1345 166.157 71.1345 165.997L72.6646 150.567L93.785 150.769L91.7 166.053V166.656L91.57 169.821V170.146C91.57 170.146 103.57 175.388 104.805 176.326C106.04 177.263 106.915 180.254 105.805 180.583Z" fill="#D3766A"/>
<path d="M105.805 180.584C104.695 180.923 73.1246 180.536 71.9345 179.802C71.4745 179.528 71.2645 175.195 71.1745 169.948V169.793C71.1745 168.71 71.1345 167.598 71.1345 166.468C71.1345 166.312 71.1345 166.157 71.1345 165.997L91.7 166.053V166.656L91.57 169.821V170.146C91.57 170.146 103.57 175.388 104.805 176.326C106.04 177.263 106.915 180.254 105.805 180.584Z" fill="#EBEBEB"/>
<path d="M106.016 180.664C104.891 181.003 72.8898 180.598 71.6798 179.858C71.2148 179.58 71.0048 175.186 70.9148 169.868L91.5452 170.071C91.5452 170.071 103.731 175.388 104.961 176.335C106.191 177.282 107.136 180.324 106.016 180.664Z" fill="#455A64"/>
<path d="M86.5951 180.626C79.12 180.466 72.2248 180.197 71.6798 179.858C71.2198 179.576 71.0048 175.186 70.9148 169.868L75.5749 169.915L86.5951 180.626Z" fill="#37474F"/>
<path d="M105.57 179.448C100.21 179.26 78.5696 178.977 73.2444 179.161C73.1994 179.161 73.1994 179.189 73.2444 179.189C78.5596 179.491 100.21 179.618 105.575 179.533C105.685 179.533 105.685 179.453 105.57 179.448Z" fill="#263238"/>
<path d="M102.921 175.224C102.324 175.201 101.728 175.295 101.172 175.501C100.616 175.707 100.111 176.02 99.6906 176.42C98.9284 177.13 98.4861 178.09 98.4556 179.1C98.4556 179.133 98.5156 179.133 98.5206 179.1C98.7206 178.103 99.2569 177.194 100.05 176.507C100.843 175.821 101.849 175.394 102.921 175.289C102.93 175.289 102.939 175.286 102.945 175.28C102.952 175.274 102.956 175.265 102.956 175.256C102.956 175.248 102.952 175.239 102.945 175.233C102.939 175.227 102.93 175.224 102.921 175.224Z" fill="#263238"/>
<path d="M93.6203 170.598C91.4753 170.546 88.9752 171.229 87.6202 172.864C87.5702 172.93 87.6652 172.996 87.7302 172.967C89.6212 172.064 91.6092 171.354 93.6603 170.848C93.6921 170.839 93.7195 170.821 93.7374 170.794C93.7554 170.768 93.7625 170.737 93.7576 170.706C93.7527 170.676 93.736 170.648 93.7107 170.628C93.6854 170.608 93.6533 170.597 93.6203 170.598Z" fill="#263238"/>
<path d="M95.2702 171.229C93.1252 171.173 90.6251 171.856 89.2701 173.495C89.2201 173.556 89.3151 173.627 89.3801 173.599C91.2712 172.695 93.2591 171.985 95.3102 171.479C95.342 171.471 95.3694 171.452 95.3873 171.426C95.4053 171.4 95.4124 171.368 95.4075 171.338C95.4026 171.307 95.3859 171.279 95.3606 171.259C95.3353 171.239 95.3032 171.229 95.2702 171.229Z" fill="#263238"/>
<path d="M96.9201 171.861C94.7701 171.804 92.275 172.487 90.92 174.126C90.87 174.187 90.965 174.258 91.03 174.225C92.9267 173.32 94.9217 172.611 96.9801 172.11C97.0153 172.103 97.0458 172.082 97.0651 172.054C97.0843 172.025 97.0906 171.99 97.0826 171.957C97.0747 171.924 97.0531 171.895 97.0226 171.877C96.9921 171.859 96.9553 171.853 96.9201 171.861Z" fill="#263238"/>
<path d="M98.57 172.487C96.42 172.435 93.9199 173.118 92.5699 174.753C92.5149 174.818 92.6149 174.884 92.6749 174.856C94.566 173.953 96.5539 173.242 98.6051 172.737C98.6364 172.728 98.6635 172.71 98.6814 172.684C98.6993 172.659 98.7068 172.628 98.7025 172.597C98.6983 172.567 98.6825 172.539 98.6582 172.519C98.6339 172.499 98.6026 172.487 98.57 172.487Z" fill="#263238"/>
<path d="M74.6745 174.376C72.2695 174.352 72.2245 177.88 74.6395 177.903C77.0546 177.927 77.0896 174.399 74.6745 174.376Z" fill="#263238"/>
<path d="M92.9301 169.882H70.1946C70.1946 169.882 74.7697 119.853 74.5947 118.981C74.3647 117.86 73.0247 112.797 71.2347 106.184C70.6746 104.112 70.0696 101.893 69.4446 99.5901C67.7496 93.3681 65.8795 86.5669 64.2495 80.6464C61.8095 71.7774 59.8994 64.8914 59.8994 64.8914H79.1698C79.1698 64.8914 81.4149 71.5984 84.2449 80.3214C88.86 94.5032 95.0252 114.022 95.6302 118.769C96.6152 126.428 92.9301 169.882 92.9301 169.882Z" fill="#172932"/>
<path d="M91.9251 166.227C88.45 166.161 89.45 166.133 85.9749 166.1C84.2749 166.1 73.1047 165.997 71.5196 166.241C71.5103 166.241 71.5014 166.245 71.4949 166.251C71.4883 166.257 71.4846 166.266 71.4846 166.274C71.4846 166.283 71.4883 166.292 71.4949 166.298C71.5014 166.304 71.5103 166.307 71.5196 166.307C73.1047 166.557 84.2749 166.468 85.9749 166.449C89.45 166.42 88.45 166.392 91.9251 166.322C91.9383 166.322 91.951 166.317 91.9604 166.308C91.9698 166.299 91.9751 166.287 91.9751 166.274C91.9751 166.262 91.9698 166.25 91.9604 166.241C91.951 166.232 91.9383 166.227 91.9251 166.227Z" fill="#37474F"/>
<path d="M78.8699 115.924C78.1249 112.825 77.0099 109.801 76.0399 106.754C74.0698 100.578 72.0881 94.4059 70.0947 88.2389C69.0947 85.1554 68.0947 82.0719 67.0947 78.9884C66.5947 77.4294 66.0947 75.8751 65.5597 74.3208C65.0246 72.7665 64.4796 71.2923 64.0196 69.7568C63.8346 69.1351 63.7346 69.4789 63.9746 70.2702C64.4496 71.8669 64.9246 73.4683 65.4197 75.0603C66.3997 78.2003 67.3847 81.3544 68.3747 84.5227C70.3514 90.8027 72.3398 97.0733 74.3398 103.334C75.3399 106.475 76.3399 109.615 77.3399 112.755C77.85 114.249 78.2608 115.771 78.5699 117.314C78.839 118.926 78.9061 120.562 78.7699 122.189C78.5549 125.486 78.1499 128.74 77.8299 132.009C77.5099 135.278 77.1849 138.561 76.8649 141.839C76.2249 148.358 75.5899 154.878 74.9599 161.4C74.8799 162.229 74.8048 163.053 74.7348 163.882C74.7348 164.16 75.1599 164.136 75.1899 163.882C75.9399 157.434 76.5099 150.962 77.1549 144.505C77.7999 138.047 78.4349 131.656 79.0699 125.231C79.2299 123.616 79.4149 122 79.4149 120.38C79.4115 118.88 79.2287 117.386 78.8699 115.924Z" fill="#37474F"/>
<path d="M76.9799 64.8914C75.6399 74.6411 73.0898 92.9207 71.2298 106.184C66.8847 90.1135 59.8945 64.8914 59.8945 64.8914H76.9799Z" fill="#37474F"/>
<path d="M81.715 180.871C80.61 181.215 49.0343 180.937 47.8443 180.207C47.3843 179.934 47.1593 175.6 47.0443 170.353V170.188C47.0443 169.105 46.9993 167.994 46.9943 166.863C46.9943 166.708 46.9943 166.552 46.9943 166.392C46.9193 158.823 47.4943 150.967 47.4943 150.967L68.1348 151.089L67.5597 166.378L67.5297 166.967L67.4147 170.132V170.457C67.4147 170.457 79.45 175.638 80.675 176.58C81.9001 177.522 82.8251 180.536 81.715 180.871Z" fill="#D3766A"/>
<path d="M81.7146 180.871C80.6096 181.215 49.0339 180.937 47.8439 180.207C47.3839 179.934 47.1589 175.6 47.0439 170.353V170.188C47.0439 169.105 46.9989 167.994 46.9939 166.863C46.9939 166.708 46.9939 166.552 46.9939 166.392H67.5643L67.5293 166.967L67.4143 170.132V170.457C67.4143 170.457 79.4496 175.638 80.6746 176.58C81.8997 177.522 82.8247 180.536 81.7146 180.871Z" fill="#EBEBEB"/>
<path d="M82.0849 180.974C80.9599 181.313 48.9592 180.913 47.7491 180.174C47.2891 179.891 47.0791 175.497 46.9841 170.184L67.6196 170.386C67.6196 170.386 79.7998 175.699 81.0349 176.651C82.2699 177.602 83.2099 180.626 82.0849 180.974Z" fill="#455A64"/>
<path d="M81.645 179.764C76.2799 179.571 54.6444 179.293 49.3143 179.472C49.2693 179.472 49.2693 179.505 49.3143 179.505C54.6244 179.802 76.2749 179.933 81.64 179.849C81.755 179.844 81.755 179.769 81.645 179.764Z" fill="#263238"/>
<path d="M78.9797 175.539C78.3839 175.517 77.7898 175.611 77.2347 175.817C76.6796 176.022 76.1757 176.333 75.7547 176.731C74.9921 177.443 74.5483 178.404 74.5146 179.415C74.5146 179.444 74.5746 179.448 74.5796 179.415C74.7787 178.418 75.3146 177.507 76.1075 176.82C76.9004 176.132 77.9078 175.705 78.9797 175.6C78.9851 175.602 78.9908 175.603 78.9965 175.602C79.0022 175.602 79.0076 175.6 79.0124 175.597C79.0171 175.594 79.021 175.59 79.0236 175.585C79.0263 175.58 79.0277 175.575 79.0277 175.57C79.0277 175.564 79.0263 175.559 79.0236 175.554C79.021 175.549 79.0171 175.545 79.0124 175.542C79.0076 175.539 79.0022 175.537 78.9965 175.537C78.9908 175.536 78.9851 175.537 78.9797 175.539Z" fill="#263238"/>
<path d="M69.6946 170.914C67.5445 170.857 65.0445 171.54 63.6944 173.179C63.6394 173.24 63.7394 173.311 63.7994 173.283C65.6895 172.378 67.6777 171.667 69.7296 171.163C69.7609 171.155 69.788 171.137 69.8059 171.111C69.8238 171.085 69.8313 171.055 69.827 171.024C69.8228 170.994 69.807 170.966 69.7827 170.946C69.7584 170.925 69.7271 170.914 69.6946 170.914Z" fill="#263238"/>
<path d="M71.3396 171.545C69.1946 171.488 66.6945 172.171 65.3395 173.81C65.2845 173.872 65.3795 173.942 65.4445 173.909C67.3348 173.006 69.323 172.297 71.3746 171.795C71.4059 171.786 71.433 171.768 71.4509 171.742C71.4688 171.717 71.4763 171.686 71.4721 171.655C71.4678 171.625 71.4521 171.597 71.4277 171.577C71.4034 171.557 71.3721 171.545 71.3396 171.545Z" fill="#263238"/>
<path d="M72.9797 172.171C70.8347 172.119 68.3346 172.802 66.9796 174.437C66.9296 174.503 67.0246 174.569 67.0896 174.54C68.9806 173.637 70.9686 172.927 73.0197 172.421C73.0515 172.413 73.0789 172.394 73.0968 172.368C73.1147 172.342 73.1219 172.31 73.117 172.279C73.1121 172.249 73.0954 172.221 73.0701 172.201C73.0448 172.181 73.0127 172.17 72.9797 172.171Z" fill="#263238"/>
<path d="M74.6399 172.803C72.4948 172.746 69.9948 173.429 68.6397 175.068C68.5897 175.129 68.6847 175.2 68.7497 175.172C70.6398 174.266 72.628 173.556 74.6799 173.052C74.7116 173.044 74.739 173.025 74.757 172.999C74.7749 172.973 74.7821 172.941 74.7771 172.911C74.7722 172.88 74.7555 172.852 74.7303 172.832C74.705 172.812 74.6728 172.802 74.6399 172.803Z" fill="#263238"/>
<path d="M78.5499 64.8913C78.5499 64.8913 78.1048 73.5765 75.9948 80.4343C75.8248 81.0042 75.6398 81.5647 75.4448 82.1017C73.5093 82.8355 71.6497 83.7358 69.8897 84.7911C69.8897 84.7911 69.6647 91.7761 69.4447 99.5711C69.1996 108.285 68.9446 118.001 68.9946 120.064C69.1897 127.775 67.9696 170.179 67.9696 170.179L45.2341 170.264C45.2341 170.264 49.3442 122.909 49.3192 120.088C49.2742 115.548 50.4192 95.4781 51.3193 80.8394C51.8593 71.8244 52.3193 64.8724 52.3193 64.8724L78.5499 64.8913Z" fill="#172932"/>
<path d="M67.1897 166.388C63.7196 166.331 64.7147 166.303 61.2446 166.284C59.5445 166.284 48.3743 166.227 46.7843 166.482C46.775 166.482 46.7661 166.485 46.7595 166.491C46.753 166.498 46.7493 166.506 46.7493 166.515C46.7493 166.523 46.753 166.532 46.7595 166.538C46.7661 166.544 46.775 166.548 46.7843 166.548C48.3693 166.793 59.5395 166.656 61.2396 166.632C64.7147 166.585 63.7146 166.567 67.1847 166.482C67.1913 166.482 67.1978 166.481 67.204 166.479C67.2102 166.477 67.2159 166.474 67.2208 166.47C67.2257 166.465 67.2296 166.46 67.2325 166.455C67.2353 166.449 67.2369 166.443 67.2372 166.437C67.2375 166.431 67.2366 166.425 67.2344 166.419C67.2322 166.413 67.2287 166.408 67.2243 166.403C67.2199 166.398 67.2146 166.395 67.2087 166.392C67.2027 166.389 67.1963 166.388 67.1897 166.388Z" fill="#37474F"/>
<path d="M54.1991 67.9952C53.7791 79.9398 53.3341 91.8891 52.7691 103.834C52.2041 115.778 51.434 127.794 50.369 139.748C49.774 146.426 49.214 155.823 48.449 162.488C48.449 162.53 48.514 162.549 48.524 162.488C50.179 150.637 51.099 135.98 51.914 124.054C52.7291 112.128 53.2791 100.183 53.7091 88.2577C53.9541 81.5035 54.1441 74.7446 54.3541 68.0046C54.3591 67.8916 54.1991 67.8963 54.1991 67.9952Z" fill="#37474F"/>
<path d="M76.3898 81.6025C74.1276 82.4904 71.9526 83.5637 69.8897 84.81C69.8727 84.8186 69.8599 84.8331 69.854 84.8504C69.848 84.8676 69.8494 84.8864 69.8578 84.9028C69.8661 84.9191 69.8809 84.9318 69.8989 84.9382C69.917 84.9446 69.9369 84.9443 69.9547 84.9372C72.1497 83.9292 74.3898 82.9637 76.5198 81.8474C76.5543 81.8311 76.5805 81.8027 76.5927 81.7682C76.6049 81.7338 76.602 81.6962 76.5848 81.6637C76.5676 81.6312 76.5373 81.6065 76.5008 81.595C76.4642 81.5836 76.4243 81.5862 76.3898 81.6025Z" fill="#37474F"/>
<path d="M76.5146 74.2313C76.3646 74.9943 76.1696 75.7479 76.0146 76.5062C75.8596 77.2645 75.7296 77.9192 75.5146 78.6398C75.3543 79.3201 74.9878 79.9419 74.4596 80.4297C74.1645 80.6887 73.8395 80.9007 73.5245 81.155C73.3545 81.2822 73.1695 81.4046 72.9945 81.5365L73.0545 81.2304C73.1095 80.943 73.1595 80.651 73.2095 80.3637C73.3245 79.7232 73.4345 79.0779 73.5395 78.4373C73.7445 77.175 73.9345 75.8986 74.2095 74.6693C74.2095 74.6222 74.1395 74.5986 74.1295 74.6693C73.7945 75.908 73.4245 77.1373 73.1295 78.3855C72.9845 78.9978 72.4795 82.0216 72.4545 82.2383C72.4295 82.455 72.4145 82.681 72.4045 82.9024C72.372 83.1275 72.372 83.3556 72.4045 83.5807C72.4092 83.5907 72.4169 83.5993 72.4266 83.6053C72.4364 83.6114 72.4478 83.6146 72.4595 83.6146C72.4712 83.6146 72.4826 83.6114 72.4924 83.6053C72.5021 83.5993 72.5098 83.5907 72.5145 83.5807C72.6129 83.3701 72.6818 83.1485 72.7195 82.9212C72.7795 82.7046 72.8295 82.4879 72.8745 82.2666C72.8745 82.1865 72.8995 82.1064 72.9095 82.0263C73.2295 81.8427 73.5195 81.6072 73.8195 81.4046C74.1195 81.2021 74.4596 80.976 74.7646 80.7358C75.3206 80.2908 75.7214 79.6982 75.9146 79.0355C76.1111 78.3241 76.2383 77.5973 76.2946 76.8642C76.3946 76.0022 76.4696 75.1403 76.5996 74.2831C76.6046 74.203 76.5246 74.1795 76.5146 74.2313Z" fill="#37474F"/>
<path d="M71.0048 42.1136C75.0049 53.705 79.825 64.6369 84.07 65.5224C84.8051 65.6731 88.9902 65.7391 90.6752 63.3087C93.5103 59.211 97.0203 50.7 98.0454 46.5458C98.5004 44.7042 85.5701 40.7242 84.8151 42.6176C83.76 45.2694 83.385 47.4124 83.08 47.3276C82.58 47.191 80.18 43.5596 75.6449 38.7083C69.4097 32.0531 69.6697 38.2703 71.0048 42.1136Z" fill="#EAB9B2"/>
<path d="M100.87 41.8405C100.065 44.4028 96.2401 49.0421 94.8701 49.824C93.5001 50.6059 84.9049 44.7513 84.8699 43.1923C84.8349 41.6333 88.235 33.2024 90.61 31.6433C92.9851 30.0843 101.7 39.1841 100.87 41.8405Z" fill="#EAB9B2"/>
<path d="M85.1651 41.6804C84.9482 39.5287 84.3991 37.4184 83.5351 35.4161C82.42 33.0611 80.48 29.6934 81.8 29.0811C84.5051 27.8235 89.3452 36.2309 89.3452 36.2309C89.3452 36.2309 90.8452 40.2674 88.2802 41.7369C87.8052 41.9971 87.2635 42.1294 86.7142 42.1194C86.1649 42.1095 85.6291 41.9576 85.1651 41.6804Z" fill="#EAB9B2"/>
<path d="M93.2251 40.6677L96.9452 39.4996L93.3401 29.3448L88.635 30.8285L93.2251 40.6677Z" fill="#FFC727"/>
<path d="M88.635 30.8285L90.385 34.5824L93.2251 40.6724L96.9452 39.4996L93.3401 29.3448L88.635 30.8285Z" fill="#FFC727"/>
<path opacity="0.1" d="M88.635 30.8285L90.385 34.5824L94.7151 33.2165L93.3401 29.3448L88.635 30.8285Z" fill="black"/>
<path d="M88.7202 32.4632L94.5813 30.6169L93.0923 26.4225L87.2312 28.2688L88.7202 32.4632Z" fill="#FFC727"/>
<path d="M82.7701 27.979L87.4752 26.9757L85.0651 20.1886L80.665 22.0491L82.7701 27.979Z" fill="#FFC727"/>
<path d="M86.9299 18.1067L90.485 28.1202L98.4252 26.5753L118.366 27.1358L109.83 3.09119L94.2601 14.8427L86.9299 18.1067Z" fill="#FFC727"/>
<path d="M118.8 27.0699C121.076 26.353 121.001 20.3622 118.632 13.689C116.263 7.01575 112.497 2.1872 110.221 2.9041C107.946 3.62099 108.021 9.61185 110.39 16.2851C112.759 22.9583 116.524 27.7868 118.8 27.0699Z" fill="#FFC727"/>
<path opacity="0.2" d="M111.276 15.7753C113.381 21.7005 116.596 26.029 118.461 25.4402C120.326 24.8515 120.131 19.5762 118.026 13.6652C115.921 7.75409 112.711 3.39733 110.846 4.00021C108.981 4.60309 109.176 9.85005 111.276 15.7753Z" fill="black"/>
<path d="M111.826 15.6009C112.106 16.3875 112.406 17.1505 112.721 17.8712C113.196 18.0437 113.714 18.0849 114.214 17.99C114.714 17.895 115.174 17.6679 115.541 17.3351C115.909 17.0024 116.168 16.5779 116.288 16.1114C116.409 15.6449 116.385 15.1558 116.221 14.7013L115.821 13.5662C115.661 13.1145 115.369 12.7146 114.978 12.4124C114.587 12.1103 114.114 11.9181 113.612 11.8581C113.111 11.798 112.602 11.8726 112.143 12.0731C111.685 12.2736 111.296 12.592 111.021 12.9916C111.244 13.8394 111.512 14.7092 111.826 15.6009Z" fill="#FFC727"/>
<path d="M86.5597 29.9713L95.6549 28.0308L90.9998 14.9087L82.4946 18.5119L86.5597 29.9713Z" fill="#FFC727"/>
<path opacity="0.2" d="M86.5597 29.9713L95.6549 28.0308L90.9998 14.9087L82.4946 18.5119L86.5597 29.9713Z" fill="black"/>
<path opacity="0.2" d="M109.22 5.11646C108.875 6.02248 108.705 6.97981 108.72 7.94247C108.712 8.89931 108.784 9.85527 108.935 10.8014C108.995 11.2724 109.1 11.7434 109.19 12.2144C109.28 12.6855 109.41 13.1565 109.535 13.6275C109.66 14.0985 109.79 14.5695 109.94 15.0075C110.09 15.4455 110.235 15.9495 110.4 16.3781C111.036 18.1937 111.847 19.9502 112.825 21.6251C113.323 22.4549 113.895 23.2429 114.536 23.9801C115.167 24.7316 115.959 25.3494 116.861 25.7934C115.994 25.3133 115.241 24.6723 114.646 23.9094C114.033 23.1582 113.489 22.3594 113.02 21.5214C112.076 19.8309 111.289 18.0657 110.67 16.2462C110.007 14.4554 109.505 12.6151 109.17 10.7449C108.994 9.81171 108.897 8.86669 108.88 7.91891C108.821 6.97328 108.936 6.02517 109.22 5.11646Z" fill="black"/>
<path d="M118.446 1.64526C117.946 2.11627 117.511 2.62966 117.061 3.13834C116.611 3.64702 116.176 4.1557 115.741 4.67852C115.306 5.20133 114.891 5.71943 114.486 6.25637L113.876 7.06649C113.681 7.33967 113.476 7.60815 113.291 7.89075C113.536 7.65054 113.761 7.41974 113.996 7.15598L114.676 6.39767C115.126 5.8937 115.561 5.3756 115.991 4.85749C116.421 4.33939 116.846 3.81187 117.251 3.27493C117.656 2.73799 118.066 2.18221 118.446 1.64526Z" fill="#263238"/>
<path d="M117.606 21.253C118.396 21.3283 119.181 21.3754 119.971 21.4178C120.761 21.4602 121.546 21.4838 122.336 21.5073C123.126 21.5309 123.916 21.5356 124.706 21.5073H125.891C126.286 21.5073 126.676 21.5073 127.076 21.4602C126.681 21.4178 126.286 21.3943 125.891 21.3613L124.711 21.2954C123.921 21.2483 123.131 21.2294 122.346 21.2059C121.561 21.1823 120.766 21.1776 119.976 21.2059C119.186 21.2341 118.396 21.2059 117.606 21.253Z" fill="#263238"/>
<path d="M131.576 16.6655C130.421 16.7409 129.266 16.8492 128.111 16.9623C126.956 17.0753 125.806 17.2072 124.651 17.3391C123.496 17.4709 122.351 17.6217 121.206 17.8101L119.481 18.0361C118.906 18.1256 118.336 18.2104 117.76 18.314C118.341 18.2764 118.921 18.2245 119.501 18.1774L121.231 18.0173C122.386 17.9043 123.536 17.7724 124.686 17.6358C125.836 17.4992 126.991 17.3532 128.136 17.1648C129.281 16.9764 130.436 16.8633 131.576 16.6655Z" fill="#263238"/>
<path d="M124.886 0.938721C124.001 1.67348 123.136 2.42708 122.276 3.1854C121.416 3.94371 120.571 4.71144 119.731 5.48389C118.891 6.25633 118.056 7.03819 117.231 7.8389L115.981 9.02582C115.581 9.43088 115.171 9.83123 114.776 10.241C115.221 9.87833 115.651 9.50153 116.091 9.12944L117.386 7.99903C118.246 7.24072 119.086 6.47299 119.931 5.69584C120.776 4.91868 121.606 4.14153 122.431 3.34083C123.256 2.54013 124.091 1.75826 124.886 0.938721Z" fill="#263238"/>
<path d="M116.646 14.2115C117.951 13.8488 119.246 13.4579 120.541 13.0623C121.836 12.6666 123.116 12.2474 124.401 11.8377C125.686 11.4279 126.966 10.9946 128.241 10.5518L130.151 9.88299C130.786 9.6522 131.426 9.41199 132.056 9.18591C131.401 9.36489 130.751 9.56271 130.101 9.7464L128.161 10.3352C126.871 10.7308 125.586 11.15 124.301 11.5598C123.016 11.9695 121.736 12.4029 120.461 12.8456C119.186 13.2883 117.911 13.7311 116.646 14.2115Z" fill="#263238"/>
<path d="M87.45 34.733C87.83 36.1037 89.325 34.8979 89.325 34.8979C89.325 34.8979 87.615 37.1257 88.59 38.3927C89.565 39.6597 91.285 38.096 91.41 37.9877C91.32 38.1054 89.81 40.192 90.91 41.3742C92.0101 42.5564 93.5551 40.7901 93.6501 40.6724C93.6001 40.809 93.0101 42.627 94.0801 43.343C95.9101 44.5723 97.5502 39.9565 99.2102 39.2594C99.2102 39.2594 100.79 41.7745 100.855 41.8405C100.92 41.9064 102.51 37.479 101.385 35.4207C101.226 35.1191 100.962 34.8776 100.638 34.7363C100.313 34.595 99.9472 34.5622 99.6002 34.6436C99.6002 34.6436 100.3 33.2918 99.4502 32.3404C99.0152 31.8694 97.7952 32.0719 97.7952 32.0719C97.9306 31.7616 97.9742 31.4226 97.9214 31.0908C97.8686 30.7591 97.7213 30.447 97.4952 30.1879C96.8502 29.5426 95.7251 29.8676 95.7251 29.8676C95.7251 29.8676 95.6951 28.5912 94.8101 28.1343C93.0401 27.1829 86.6349 31.7893 87.45 34.733Z" fill="#EAB9B2"/>
<path d="M97.8301 32.0343C97.8601 32.0343 97.8301 31.9778 97.8001 31.9919C94.9437 33.1941 92.638 35.3191 91.2999 37.983C91.2549 38.0772 91.2999 38.2044 91.3749 38.0961C92.37 36.3298 95.635 33.3578 97.8301 32.0343Z" fill="#263238"/>
<path d="M93.645 40.8938C94.98 38.2986 97.065 36.3722 99.5051 34.6813C99.5401 34.6813 99.5051 34.6201 99.4701 34.6295C98.0351 35.1523 96.6 36.3817 95.565 37.4273C94.5935 38.3835 93.904 39.5623 93.565 40.8467C93.535 40.8986 93.615 40.9457 93.645 40.8938Z" fill="#263238"/>
<path d="M89.2751 34.9026C89.2201 34.9874 89.4151 34.9685 89.3651 35.058C89.1451 35.4348 88.045 37.804 88.785 38.4115C89.3801 38.8826 90.4851 38.4728 90.8401 38.1572L91.7351 37.3612L91.1901 38.3833C90.9377 38.8435 90.7687 39.3402 90.6901 39.8528C90.6392 40.0869 90.6418 40.3286 90.6979 40.5617C90.7539 40.7948 90.8621 41.014 91.0151 41.2046C91.1584 41.3812 91.3617 41.5061 91.5911 41.5584C91.8205 41.6107 92.0619 41.5872 92.2751 41.4919C92.7446 41.2759 93.1487 40.9519 93.4501 40.5499L94.3152 39.4383L93.8852 40.7477C93.7653 41.1115 93.6947 41.4882 93.6752 41.8687C93.6433 42.2299 93.7251 42.5919 93.9102 42.9096C93.9996 43.0486 94.1284 43.1615 94.282 43.2355C94.4357 43.3096 94.6082 43.3419 94.7802 43.3288C95.1604 43.2445 95.5073 43.0599 95.7802 42.7966C96.3796 42.2336 96.9313 41.6273 97.4302 40.9832C97.6952 40.6676 97.9602 40.3521 98.2403 40.0412C98.5099 39.7157 98.851 39.449 99.2403 39.2594C98.89 39.4856 98.5895 39.7735 98.3553 40.1072C98.1053 40.4321 97.8552 40.7666 97.6302 41.101C97.1678 41.7904 96.6371 42.437 96.0452 43.0321C95.7322 43.3604 95.3236 43.5947 94.8702 43.7056C94.6166 43.7419 94.3572 43.7072 94.1244 43.6059C93.8915 43.5046 93.6953 43.3411 93.5602 43.1357C93.3166 42.7495 93.2033 42.3028 93.2351 41.8546C93.2449 41.4299 93.3155 41.0085 93.4451 40.6017L93.8802 40.7995C93.5379 41.2929 93.0636 41.6925 92.5051 41.9582C92.1926 42.0954 91.8395 42.127 91.5051 42.0477C91.179 41.9557 90.8886 41.7755 90.6701 41.5296C90.4772 41.2863 90.3409 41.0075 90.2702 40.7112C90.1996 40.415 90.1961 40.108 90.2601 39.8104C90.3548 39.2498 90.5457 38.7073 90.8251 38.2043L91.1751 38.4492C90.7101 38.8402 89.5301 39.4336 88.505 38.7931C87.28 37.771 88.935 35.3265 89.2751 34.9026Z" fill="#263238"/>
<path d="M89.3254 34.898C89.0556 35.0415 88.7638 35.1447 88.4604 35.2041C88.3394 35.231 88.2129 35.2269 88.0942 35.1921C87.9755 35.1573 87.8688 35.0931 87.7854 35.0063C87.6315 34.7931 87.5448 34.5433 87.5354 34.2857C87.5354 33.9983 87.5054 33.7016 87.5104 33.3907C87.3437 33.6638 87.2414 33.9674 87.2104 34.2809C87.1539 34.6279 87.2456 34.9818 87.4654 35.2653C87.5979 35.406 87.772 35.506 87.9654 35.5527C88.1552 35.5841 88.3506 35.5662 88.5304 35.5008C88.8582 35.387 89.1374 35.1753 89.3254 34.898Z" fill="#263238"/>
<path d="M99.5955 50.2621L84.8652 42.1514C84.8652 42.1514 83.2052 46.9556 83.0152 46.9556C82.8251 46.9556 79.0751 41.3036 74.285 37.1447C69.3549 32.8491 69.2849 37.6958 70.4599 41.8971C71.7349 46.4894 78.6351 63.7186 82.7951 65.5885C86.2952 67.171 90.1853 64.8255 91.2603 63.5019C92.7454 61.6792 99.5955 50.2621 99.5955 50.2621Z" fill="#FFC1D8"/>
<path d="M97.2399 51.7362C96.7399 51.3971 92.1498 48.9432 91.1348 48.4392L88.0897 46.9037C87.0347 46.3762 85.9947 45.7922 84.8997 45.3447C84.8904 45.3397 84.8794 45.3384 84.8691 45.3411C84.8588 45.3437 84.85 45.3501 84.8447 45.3589C84.8394 45.3676 84.838 45.378 84.8408 45.3877C84.8436 45.3974 84.8504 45.4057 84.8597 45.4107C85.8597 46.0418 86.9247 46.5599 87.9597 47.111C88.9948 47.6621 89.9998 48.2084 91.0248 48.7501C92.0498 49.2917 96.6699 51.6232 97.2099 51.8116C97.2599 51.821 97.2749 51.7598 97.2399 51.7362Z" fill="#263238"/>
<path d="M83.045 46.9791C82.795 47.761 82.595 48.557 82.415 49.3341C82.235 50.1113 82.07 50.9355 81.915 51.741C81.76 52.5464 81.665 53.3518 81.59 54.1666C81.5092 54.9807 81.4758 55.7983 81.49 56.6158C81.56 56.2108 81.6 55.8057 81.675 55.4053C81.75 55.005 81.795 54.5999 81.86 54.1996L82.26 51.7881L82.655 49.3812L82.85 48.1708C82.925 47.8034 82.98 47.3842 83.045 46.9791Z" fill="#263238"/>
<path opacity="0.1" d="M87.3751 65.805C85.8741 66.283 84.2361 66.2038 82.795 65.5837C78.6349 63.6996 71.7347 46.4845 70.4597 41.8923C69.5547 38.6282 69.3897 34.978 71.6697 35.5196C74.7498 41.4118 82.695 56.7524 87.3751 65.805Z" fill="black"/>
<path d="M50.7589 75.9928C50.8389 76.0776 82.9096 75.4088 83.2246 75.0508C83.6596 74.5798 77.2795 43.1499 73.1944 36.504C71.9494 34.4787 66.6943 32.4158 63.7242 36.4193C58.4341 43.5644 50.4789 75.6867 50.7589 75.9928Z" fill="#FFC1D8"/>
<path d="M70.3044 42.5282L71.4445 40.3851L73.2945 42.0713L72.7745 43.6209L71.0445 43.7434L70.3044 42.5282Z" fill="#263238"/>
<path d="M71.0446 43.7433L69.7146 61.8109L73.0647 67.6466L75.8747 61.712L72.7747 43.6208L71.0446 43.7433Z" fill="#263238"/>
<path d="M61.1594 38.2043C54.7492 45.0197 43.809 63.2286 46.349 66.097C52.1042 72.611 62.8494 78.7858 67.1845 80.4814C69.0595 81.2115 77.4097 68.6546 75.6847 67.3923C73.6396 65.8757 60.1843 59.3476 60.1843 58.7023C60.1843 58.057 63.8244 49.2163 65.4795 42.1513C67.4795 33.386 63.8294 35.3595 61.1594 38.2043Z" fill="#EAB9B2"/>
<path d="M68.7598 66.1724C68.7598 66.1724 74.7049 65.1315 78.63 64.6275C80.8151 64.3449 84.6301 64.1565 86.3252 64.6558C88.8802 65.367 99.0755 69.9404 97.9804 72.2954C96.9804 74.4244 88.7302 69.4694 88.7302 69.4694C88.7302 69.4694 97.5104 73.7979 95.7854 76.1529C94.0603 78.5079 85.5502 71.7161 85.5502 71.7161C85.5502 71.7161 94.4654 76.3555 92.2803 78.5174C90.6253 80.147 82.5551 74.4149 82.5551 74.4149C82.5551 74.4149 90.1853 78.4467 88.5552 80.1988C86.7602 82.1299 78.955 77.2739 78.955 77.2739C74.0399 81.0419 70.1098 81.2539 67.2248 80.5709C66.5348 80.4155 68.7598 66.1724 68.7598 66.1724Z" fill="#EAB9B2"/>
<path d="M86.1802 67.9859C92.9053 70.7083 95.3154 73.9817 95.2354 73.9064C93.2753 72.1401 89.7353 70.0865 88.7352 69.526C87.7352 68.9655 87.1702 68.584 86.1702 68.0188C86.1302 68.0047 86.1552 67.9717 86.1802 67.9859Z" fill="#263238"/>
<path d="M83.5601 71.1415C86.3318 72.1176 88.8956 73.5532 91.1302 75.3805C91.2152 75.4559 91.1602 75.4653 91.0652 75.4088C89.8102 74.6646 84.8301 71.8291 83.5651 71.1697L83.5601 71.1415Z" fill="#263238"/>
<path d="M81.1099 73.7085C83.2415 74.5156 85.1948 75.6895 86.8701 77.1704C86.9551 77.241 86.87 77.2598 86.775 77.2033C84.885 76.0164 83.41 75.0744 81.0799 73.7744C81.0399 73.7603 81.0699 73.7085 81.1099 73.7085Z" fill="#263238"/>
<path d="M71.8198 64.637L62.0146 79.0167C62.0146 79.0167 45.6443 68.2637 45.5493 64.5758C45.4093 59.3948 57.7245 41.2565 61.2846 37.7569C64.7597 34.3422 67.0447 34.8462 66.0997 39.8717C65.2397 44.4452 60.9446 58.1702 60.9696 58.368C60.9946 58.5658 71.8198 64.637 71.8198 64.637Z" fill="#FFC1D8"/>
<path d="M59.4791 76.1812C60.9792 74.1135 66.8643 65.433 67.9793 63.4642C68.0543 63.3276 67.9793 63.2475 67.8843 63.3794C63.1842 69.4742 60.7492 74.0099 59.3841 76.0965C59.3722 76.1083 59.3658 76.1242 59.3662 76.1405C59.3667 76.1568 59.374 76.1723 59.3866 76.1836C59.3992 76.1948 59.4161 76.2009 59.4334 76.2005C59.4508 76.2 59.4672 76.1931 59.4791 76.1812Z" fill="#263238"/>
<path d="M65.1745 43.7339C65.1745 43.6726 65.3045 43.6915 65.2945 43.7339C65.1595 44.3603 64.9295 45.2788 64.6445 46.3574L64.7345 46.1831C64.9485 45.7402 65.1388 45.2875 65.3045 44.8266C65.3045 44.7748 65.3995 44.803 65.3845 44.8501C65.2195 45.3211 65.0545 45.7922 64.8595 46.2632C64.7374 46.574 64.5955 46.8776 64.4345 47.1722C63.2194 51.6703 61.3194 58.1088 61.3394 58.269C61.3794 58.5375 70.1296 63.45 71.9046 64.5333C71.9696 64.571 71.6246 65.0043 71.5846 65.0608C71.5798 65.0717 71.5709 65.0805 71.5595 65.0855C71.5482 65.0905 71.5353 65.0913 71.5234 65.0877C71.5114 65.0842 71.5013 65.0765 71.4951 65.0663C71.4888 65.0561 71.4869 65.0441 71.4896 65.0326C71.5307 64.9064 71.5825 64.7835 71.6446 64.6652C69.9496 63.7938 61.0044 58.7259 60.8544 58.4574C60.7044 58.1889 64.5445 45.6509 65.1745 43.7339Z" fill="#263238"/>
<path d="M51.6394 71.5231C52.1394 71.8198 56.9595 75.5172 57.4745 75.861C57.5145 75.8893 57.4745 75.9411 57.4295 75.9175C55.3995 74.9473 52.0694 72.239 51.6094 71.556L51.6394 71.5231Z" fill="#263238"/>
<path d="M71.2349 40.1967C69.4649 40.3663 66.5148 37.2718 65.6348 35.1193C65.5748 34.9733 66.0048 33.5509 66.4398 31.8223C66.6998 30.7578 66.9398 29.5709 67.1148 28.4688L74.21 31.0687C73.5951 32.3914 73.1551 33.7803 72.8999 35.2041C72.8841 35.3607 72.8841 35.5184 72.8999 35.6751V35.7551C72.9149 36.5982 72.9499 40.0366 71.2349 40.1967Z" fill="#EAB9B2"/>
<path d="M72.1296 35.661C72.379 35.7008 72.6316 35.7213 72.8846 35.7222C72.8846 35.6892 72.8846 35.6657 72.8846 35.6421C72.8689 35.4855 72.8689 35.3278 72.8846 35.1711C73.1395 33.7463 73.5777 32.356 74.1896 31.031L67.3245 28.5159C67.4245 30.1408 68.0195 35.0581 72.1296 35.661Z" fill="#263238"/>
<path d="M65.6196 21.4272C64.8446 23.9047 66.2896 31.031 68.1696 32.6041C70.8947 34.8885 75.3248 35.0722 77.3748 31.9965C79.3749 29.0104 77.2998 19.7505 75.2048 18.3375C72.1197 16.2038 66.7696 17.7487 65.6196 21.4272Z" fill="#EAB9B2"/>
<path d="M72.0148 25.9019C72.0148 25.9019 71.9798 25.9348 71.9848 25.9537C72.0948 26.4247 72.1348 26.9946 71.7048 27.2348C71.7048 27.2348 71.7048 27.2678 71.7048 27.2631C72.2648 27.0794 72.1998 26.3399 72.0148 25.9019Z" fill="#263238"/>
<path d="M71.4796 25.4826C70.6445 25.5673 70.8895 27.1264 71.6596 27.0463C72.4296 26.9662 72.1546 25.4119 71.4796 25.4826Z" fill="#263238"/>
<path d="M75.1149 25.4827C75.1149 25.4827 75.1599 25.4827 75.1599 25.5203C75.2199 25.9913 75.3749 26.5518 75.8649 26.646V26.6743C75.2849 26.679 75.0899 25.949 75.1149 25.4827Z" fill="#263238"/>
<path d="M75.4801 24.9127C76.2951 24.7384 76.6051 26.2927 75.8451 26.4528C75.0851 26.613 74.8101 25.0587 75.4801 24.9127Z" fill="#263238"/>
<path d="M70.6948 24.8562C70.9026 24.7669 71.1046 24.6663 71.2999 24.5547C71.5294 24.4776 71.726 24.3321 71.8599 24.1402C71.8905 24.0712 71.8952 23.9945 71.8734 23.9226C71.8516 23.8507 71.8045 23.7879 71.7399 23.7446C71.602 23.6766 71.4474 23.6443 71.292 23.6509C71.1365 23.6575 70.9857 23.7028 70.8549 23.7823C70.5623 23.906 70.3289 24.1275 70.1998 24.404C70.1736 24.4686 70.168 24.539 70.1839 24.6065C70.1997 24.6741 70.2363 24.7357 70.289 24.7839C70.3417 24.832 70.4083 24.8646 70.4804 24.8774C70.5526 24.8902 70.6271 24.8829 70.6948 24.8562Z" fill="#263238"/>
<path d="M76.0148 24.0366C75.7853 24.0265 75.5566 24.0045 75.3297 23.9707C75.0848 23.9754 74.8447 23.9061 74.6447 23.7728C74.5917 23.7189 74.5591 23.6499 74.5518 23.5767C74.5446 23.5035 74.5632 23.43 74.6047 23.3678C74.7061 23.2557 74.8375 23.1713 74.9852 23.1233C75.1329 23.0752 75.2916 23.0653 75.4447 23.0946C75.7655 23.1061 76.0695 23.2324 76.2948 23.4478C76.3454 23.4979 76.3791 23.5611 76.3915 23.6293C76.4039 23.6975 76.3945 23.7676 76.3645 23.8307C76.3345 23.8939 76.2852 23.9472 76.2229 23.9838C76.1606 24.0205 76.0882 24.0389 76.0148 24.0366Z" fill="#263238"/>
<path d="M72.2148 30.3763C72.3548 30.4753 72.4998 30.6118 72.6898 30.6024C72.8813 30.5739 73.0638 30.5064 73.2248 30.4046C73.1659 30.5094 73.0782 30.5975 72.9709 30.6596C72.8637 30.7217 72.7407 30.7557 72.6148 30.7579C72.5065 30.7457 72.4043 30.704 72.3208 30.6379C72.2373 30.5718 72.1761 30.4842 72.1448 30.3858C72.1548 30.3763 72.1948 30.3763 72.2148 30.3763Z" fill="#263238"/>
<path d="M72.5295 28.8456C72.6893 29.0193 72.8855 29.16 73.1058 29.2589C73.3261 29.3578 73.5657 29.4127 73.8095 29.4202C74.0216 29.4281 74.2337 29.4075 74.4396 29.359C74.4808 29.3552 74.5213 29.3457 74.5596 29.3307L74.6696 29.2977C74.6968 29.2901 74.7204 29.2736 74.7359 29.2512C74.7515 29.2288 74.7581 29.2019 74.7546 29.1753C74.7546 29.1753 74.7546 29.147 74.7546 29.1282V29.0858C74.7096 28.7137 74.5796 28.1438 74.5796 28.1438C74.7346 28.1909 75.5196 28.4028 75.4796 28.2097C75.1656 26.534 74.6714 24.8927 74.0045 23.3113C74.0045 23.3001 73.9998 23.2893 73.9914 23.2813C73.9829 23.2734 73.9715 23.2689 73.9595 23.2689C73.9476 23.2689 73.9362 23.2734 73.9277 23.2813C73.9193 23.2893 73.9145 23.3001 73.9145 23.3113C74.1895 24.8609 74.7496 26.3493 75.0496 27.8989C74.7706 27.8195 74.481 27.7783 74.1895 27.7764C74.1345 27.7764 74.4546 28.855 74.4596 29.0246C74.1408 29.0995 73.8093 29.1135 73.4847 29.0658C73.1601 29.018 72.8489 28.9095 72.5695 28.7467C72.5295 28.7749 72.4795 28.8126 72.5295 28.8456Z" fill="#263238"/>
<path d="M74.1797 29.2035C74.005 29.4995 73.7517 29.7478 73.4447 29.9241C73.2747 30.0147 73.0788 30.0526 72.8847 30.0324C72.4547 29.99 72.3847 29.6368 72.4197 29.3212C72.4363 29.1607 72.4732 29.0025 72.5297 28.8502C73.0261 29.1296 73.6039 29.2533 74.1797 29.2035Z" fill="#263238"/>
<path d="M73.4447 29.9053C73.2747 29.9959 73.0788 30.0338 72.8847 30.0137C72.4547 29.9713 72.3847 29.618 72.4197 29.3024C72.637 29.2839 72.8547 29.3327 73.0398 29.4416C73.2249 29.5504 73.3671 29.7133 73.4447 29.9053Z" fill="#FF98B9"/>
<path d="M66.3499 27.5503C66.3499 27.5503 63.8798 23.4903 64.1798 21.1824C64.3148 20.1415 65.8449 19.4727 65.8449 19.4727C65.7396 19.0441 65.764 18.5963 65.9151 18.1801C66.0662 17.7638 66.3381 17.3958 66.6999 17.1177C68.0399 15.9825 71.2 16.317 71.2 16.317C71.2 16.317 73.33 13.5569 76.2001 14.7391C79.0701 15.9213 77.1101 18.9781 77.1101 18.9781C77.1101 18.9781 78.1451 20.4288 75.5001 21.4886C72.93 22.52 67.7549 21.3284 67.7549 21.3284C67.953 23.0197 67.8823 24.7294 67.5449 26.4011C67.4759 26.6771 67.3281 26.9301 67.1175 27.1327C66.9068 27.3353 66.6414 27.4797 66.3499 27.5503Z" fill="#263238"/>
<path d="M71.7148 16.364C71.0714 16.0995 70.3768 15.9632 69.6747 15.9637C69.047 15.941 68.4197 16.019 67.8197 16.1945C67.2808 16.3247 66.7899 16.5909 66.3996 16.9643C66.0093 17.3378 65.7345 17.8044 65.6047 18.314C65.5559 18.5795 65.5635 18.8515 65.627 19.1142C65.6905 19.377 65.8087 19.6253 65.9747 19.8447C65.9747 19.8447 66.0147 19.8447 65.9747 19.8447C65.3247 19.0393 65.7097 17.8241 66.4197 17.1836C67.2913 16.506 68.3952 16.151 69.5247 16.1851C70.2485 16.1904 70.9688 16.279 71.6698 16.4488C71.6817 16.4544 71.6955 16.4554 71.7082 16.4514C71.7209 16.4474 71.7313 16.4389 71.7373 16.4276C71.7433 16.4164 71.7442 16.4034 71.74 16.3914C71.7358 16.3795 71.7267 16.3697 71.7148 16.364Z" fill="#263238"/>
<path d="M78.2846 16.1097C78.1586 15.7421 77.9385 15.4093 77.6438 15.1407C77.3491 14.8722 76.9887 14.676 76.5945 14.5695C75.6948 14.2912 74.7226 14.3011 73.8295 14.5978C72.934 14.9052 72.1418 15.432 71.5344 16.1238C71.5344 16.1238 71.5344 16.1615 71.5644 16.1474C72.1108 15.5386 72.8214 15.0799 73.6213 14.8196C74.4211 14.5594 75.2808 14.5071 76.1095 14.6684C76.4955 14.7309 76.8614 14.8753 77.1793 15.0908C77.4972 15.3062 77.7589 15.587 77.9446 15.9119C78.0856 16.2389 78.1485 16.5912 78.1286 16.9437C78.1087 17.2962 78.0066 17.6402 77.8296 17.9513C77.373 18.6847 76.708 19.2834 75.9095 19.6799C75.9095 19.6799 75.9095 19.7129 75.9095 19.6799C76.663 19.3513 77.3177 18.8511 77.8146 18.2245C78.0467 17.9231 78.2085 17.5789 78.2895 17.2144C78.3705 16.85 78.3688 16.4735 78.2846 16.1097Z" fill="#263238"/>
<path d="M76.16 21.644C74.9863 22.0606 73.7314 22.2357 72.4799 22.1574C71.1781 22.0928 69.8873 21.897 68.6298 21.5733C67.8998 21.3896 67.1748 21.1777 66.4548 20.9563C66.4548 20.9563 66.4198 20.9563 66.4548 20.9893C67.7101 21.5302 69.0224 21.9454 70.3699 22.228C71.6242 22.4782 72.9184 22.4958 74.1799 22.2798C74.8717 22.1573 75.5439 21.9515 76.18 21.6675C76.18 21.6675 76.175 21.6345 76.16 21.644Z" fill="#263238"/>
<path d="M67.2897 27.2065C67.2897 27.2065 65.5096 24.9457 64.4146 25.5533C63.3196 26.1609 64.7096 29.4673 66.0296 29.8865C66.1946 29.9522 66.372 29.9857 66.5511 29.9847C66.7302 29.9838 66.9072 29.9486 67.0714 29.8812C67.2356 29.8138 67.3835 29.7156 67.5061 29.5926C67.6287 29.4696 67.7235 29.3244 67.7847 29.1659L67.2897 27.2065Z" fill="#EAB9B2"/>
<path d="M64.8396 26.4906V26.5236C65.7646 26.8486 66.2696 27.6351 66.6296 28.4547C66.5742 28.3697 66.4999 28.297 66.4117 28.2418C66.3235 28.1865 66.2236 28.15 66.119 28.1348C66.0143 28.1196 65.9074 28.126 65.8056 28.1535C65.7039 28.1811 65.6097 28.2292 65.5296 28.2945C65.5046 28.2945 65.5296 28.3463 65.5296 28.3416C65.6891 28.2883 65.8621 28.2828 66.0251 28.3258C66.188 28.3688 66.3328 28.4583 66.4396 28.5818C66.6139 28.7911 66.7647 29.0168 66.8896 29.2554C66.9346 29.3307 67.0796 29.2884 67.0446 29.1989C67.0496 28.0826 66.0946 26.566 64.8396 26.4906Z" fill="#263238"/>
<path d="M72.91 35.3029L71.225 39.4383L65.7249 34.3138L64.2249 36.0047C64.2249 36.0047 69.665 44.1955 69.695 43.8234L71.435 40.2532L74.0701 42.6788L73.7401 36.4993L72.91 35.3029Z" fill="#FAFAFA"/>
<path d="M74.08 39.6127C73.995 38.5907 73.935 37.5639 73.7999 36.5465C73.7999 36.5135 73.7299 36.4994 73.7249 36.5465C73.5249 37.5356 73.88 41.4308 73.89 42.3681C73.78 42.2645 71.4449 40.2344 71.4249 40.2674C71.0449 40.8326 69.7649 43.4325 69.6799 43.6728C68.8198 42.3681 65.1798 37.2436 64.1797 36.019C64.1733 36.0137 64.1653 36.0105 64.1568 36.0099C64.1483 36.0092 64.1398 36.0111 64.1326 36.0154C64.1253 36.0196 64.1197 36.0258 64.1165 36.0333C64.1133 36.0407 64.1127 36.0489 64.1147 36.0567C64.8798 37.432 69.5899 44.1956 69.6549 44.1767C70.3298 42.951 70.9372 41.6933 71.4749 40.4087C71.8749 40.8562 74.23 43.1499 74.235 42.9945C74.2492 41.8654 74.1974 40.7365 74.08 39.6127Z" fill="#263238"/>
<path d="M154.287 124.106H123.786L124.741 105.934H142.716L154.287 124.106ZM126.401 121.751H149.866L141.291 108.28H127.111L126.401 121.751Z" fill="#373B3D"/>
<path opacity="0.5" d="M154.287 124.106H123.786L124.741 105.934H142.716L154.287 124.106ZM126.401 121.751H149.866L141.291 108.28H127.111L126.401 121.751Z" fill="black"/>
<path d="M152.622 124.106H122.121L123.076 105.934H141.051L152.622 124.106ZM124.736 121.751H148.201L139.626 108.28H125.441L124.736 121.751Z" fill="#373B3D"/>
<path opacity="0.3" d="M152.622 124.106H122.121L123.076 105.934H141.051L152.622 124.106ZM124.736 121.751H148.201L139.626 108.28H125.441L124.736 121.751Z" fill="black"/>
<path d="M115.451 127.351H119.626V124.558H115.451V127.351Z" fill="#A6A6A6"/>
<path d="M113.766 152.403H121.316V127.351H113.766V152.403Z" fill="#C7C7C7"/>
<path d="M121.311 142.682H124.631V141.363H121.311V142.682Z" fill="#A6A6A6"/>
<path d="M124.626 143.379H131.376V140.666H124.626V143.379Z" fill="#C7C7C7"/>
<path d="M112.786 160.669H122.516V152.403H112.786V160.669Z" fill="#C7C7C7"/>
<path d="M116.551 179.712H118.581L119.716 156.021H115.416L116.551 179.712Z" fill="#A6A6A6"/>
<path d="M144.166 175.614L145.966 174.314L122.521 154.796V160.67L144.166 175.614Z" fill="#A6A6A6"/>
<path d="M91.1454 175.614L89.3403 174.314L112.791 154.796V160.67L91.1454 175.614Z" fill="#A6A6A6"/>
<path d="M113.766 152.399H121.316V150.232H113.766V152.399Z" fill="#A6A6A6"/>
<path d="M144.246 184.092C146.969 184.092 149.176 182.013 149.176 179.448C149.176 176.883 146.969 174.804 144.246 174.804C141.523 174.804 139.316 176.883 139.316 179.448C139.316 182.013 141.523 184.092 144.246 184.092Z" fill="#263238"/>
<path d="M141.927 179.448C141.927 179.881 142.063 180.303 142.318 180.663C142.572 181.022 142.935 181.302 143.359 181.467C143.783 181.633 144.249 181.676 144.699 181.592C145.149 181.508 145.563 181.299 145.887 180.994C146.212 180.688 146.433 180.299 146.522 179.875C146.612 179.451 146.566 179.011 146.39 178.612C146.214 178.213 145.917 177.871 145.536 177.631C145.154 177.391 144.705 177.263 144.247 177.263C143.942 177.262 143.64 177.318 143.358 177.428C143.076 177.538 142.82 177.699 142.605 177.902C142.389 178.105 142.218 178.346 142.102 178.611C141.985 178.877 141.926 179.161 141.927 179.448Z" fill="white"/>
<path d="M91.0405 184.092C93.7633 184.092 95.9706 182.013 95.9706 179.448C95.9706 176.883 93.7633 174.804 91.0405 174.804C88.3176 174.804 86.1104 176.883 86.1104 179.448C86.1104 182.013 88.3176 184.092 91.0405 184.092Z" fill="#263238"/>
<path d="M88.7202 179.448C88.7202 179.881 88.8563 180.303 89.1112 180.663C89.3662 181.022 89.7285 181.302 90.1524 181.467C90.5764 181.633 91.0428 181.676 91.4929 181.592C91.9429 181.508 92.3563 181.299 92.6808 180.994C93.0053 180.688 93.2262 180.299 93.3157 179.875C93.4053 179.451 93.3593 179.011 93.1837 178.612C93.0081 178.213 92.7108 177.871 92.3292 177.631C91.9477 177.391 91.4991 177.263 91.0403 177.263C90.7354 177.262 90.4334 177.318 90.1516 177.428C89.8699 177.538 89.6139 177.699 89.3983 177.902C89.1827 178.105 89.0118 178.346 88.8955 178.611C88.7791 178.877 88.7196 179.161 88.7202 179.448Z" fill="white"/>
<path d="M116.076 185.892H119.171V178.252H116.076V185.892Z" fill="#263238"/>
<path d="M86.5352 124.553H154.652V119.678H129.151L120.581 70.8259H89.1352L86.5352 124.553Z" fill="#373B3D"/>
<path opacity="0.1" d="M129.151 119.678H91.1802L93.4452 70.8259H120.581L129.151 119.678Z" fill="black"/>
<path opacity="0.3" d="M154.652 119.678H114.971V124.558H154.652V119.678Z" fill="white"/>
<path d="M117.826 124.106H87.3252L88.2752 105.934H106.276L117.826 124.106ZM89.9452 121.751H113.411L104.836 108.28H90.6503L89.9452 121.751Z" fill="#373B3D"/>
<path opacity="0.5" d="M117.826 124.106H87.3252L88.2752 105.934H106.276L117.826 124.106ZM89.9452 121.751H113.411L104.836 108.28H90.6503L89.9452 121.751Z" fill="black"/>
<path d="M116.161 124.106H85.6602L86.6102 105.934H104.611L116.161 124.106ZM88.2802 121.751H111.746L103.171 108.28H88.9802L88.2802 121.751Z" fill="#373B3D"/>
<path opacity="0.3" d="M116.161 124.106H85.6602L86.6102 105.934H104.611L116.161 124.106ZM88.2802 121.751H111.746L103.171 108.28H88.9802L88.2802 121.751Z" fill="black"/>
<path d="M126.12 83.3927L84.7217 90.86L87.4666 104.363L128.865 96.8959L126.12 83.3927Z" fill="#455A64"/>
<path d="M93.6651 98.7563C93.6449 98.7441 93.623 98.7346 93.6001 98.728C93.6001 98.728 93.6001 98.728 93.6001 98.7045C93.5813 98.6946 93.5644 98.6819 93.5501 98.6668C93.5375 98.6464 93.5205 98.6287 93.5001 98.615L90.615 94.522C90.5487 94.4283 90.5246 94.3136 90.5481 94.2032C90.5715 94.0928 90.6405 93.9957 90.74 93.9332C90.8395 93.8708 90.9612 93.8481 91.0784 93.8702C91.1956 93.8923 91.2987 93.9573 91.365 94.051L93.6601 97.2915L94.4801 93.4905C94.5092 93.3837 94.5808 93.2916 94.6802 93.2333C94.7795 93.175 94.8988 93.155 95.0134 93.1774C95.128 93.1999 95.229 93.263 95.2954 93.3538C95.3618 93.4445 95.3886 93.5559 95.3701 93.6648L94.2751 98.469C94.2796 98.4924 94.2796 98.5163 94.2751 98.5396C94.2751 98.5396 94.2751 98.5773 94.2451 98.5962C94.2474 98.6039 94.2474 98.612 94.2451 98.6197C94.2333 98.6365 94.2199 98.6523 94.2051 98.6668L94.1501 98.7186C94.1279 98.7231 94.1072 98.7329 94.0901 98.7469H94.0101H93.9301H93.8451L93.7601 98.7139L93.6651 98.7563Z" fill="white"/>
<path d="M99.44 96.4908L97.475 96.844L97.28 97.9085C97.2611 97.9925 97.2165 98.0694 97.1516 98.1297C97.0867 98.19 97.0044 98.231 96.915 98.2476C96.8621 98.2569 96.8079 98.2569 96.755 98.2476C96.6348 98.228 96.5276 98.1646 96.4565 98.0712C96.3854 97.9779 96.3561 97.8619 96.375 97.7484L97.25 92.9394C97.2686 92.8533 97.3144 92.7744 97.3813 92.7131C97.4482 92.6518 97.5331 92.6108 97.625 92.5956C97.7188 92.575 97.8171 92.582 97.9065 92.6156C97.9959 92.6493 98.0722 92.7081 98.125 92.784L100.82 96.9476C100.883 97.0465 100.902 97.1647 100.873 97.2767C100.844 97.3887 100.769 97.4854 100.665 97.5458C100.621 97.5723 100.572 97.5899 100.52 97.5976C100.43 97.615 100.337 97.6058 100.253 97.5713C100.168 97.5367 100.098 97.4784 100.05 97.4045L99.44 96.4908ZM98.94 95.7136L97.94 94.1923L97.615 95.9491L98.94 95.7136Z" fill="white"/>
<path d="M100.9 94.6868C100.761 93.9492 100.936 93.1896 101.387 92.5725C101.838 91.9555 102.529 91.5306 103.31 91.3898C103.989 91.2628 104.693 91.354 105.31 91.6488C105.414 91.7067 105.491 91.7998 105.525 91.9091C105.558 92.0183 105.547 92.1356 105.492 92.237C105.437 92.3384 105.343 92.4164 105.23 92.455C105.116 92.4936 104.991 92.49 104.88 92.4448C104.456 92.2318 103.965 92.1667 103.495 92.2612C102.954 92.3617 102.474 92.6511 102.15 93.0713C101.852 93.4851 101.738 93.992 101.83 94.4843C101.88 94.7314 101.981 94.9666 102.129 95.1762C102.277 95.3857 102.468 95.5652 102.69 95.7042C103.155 95.9815 103.714 96.0825 104.255 95.9868C104.726 95.9218 105.159 95.7055 105.48 95.3745C105.567 95.2943 105.682 95.2467 105.804 95.2406C105.925 95.2345 106.045 95.2704 106.14 95.3415C106.227 95.4222 106.279 95.5299 106.287 95.6444C106.296 95.7588 106.259 95.8722 106.185 95.9632C105.731 96.4512 105.117 96.7826 104.44 96.9052C104.053 96.9794 103.654 96.9807 103.266 96.9093C102.879 96.8378 102.51 96.6949 102.181 96.4888C101.852 96.2826 101.57 96.0173 101.35 95.7081C101.13 95.3989 100.977 95.0518 100.9 94.6868Z" fill="white"/>
<path d="M110.45 94.5032L108.485 94.8612L108.29 95.9209C108.272 96.0055 108.227 96.0832 108.162 96.1443C108.098 96.2054 108.015 96.2473 107.925 96.2648C107.872 96.2718 107.818 96.2718 107.765 96.2648C107.645 96.2441 107.538 96.1796 107.468 96.0853C107.398 95.9909 107.37 95.8744 107.39 95.7608L108.265 90.9566C108.286 90.8716 108.332 90.794 108.398 90.7334C108.464 90.6728 108.548 90.6317 108.639 90.6152C108.73 90.5987 108.823 90.6075 108.909 90.6405C108.995 90.6735 109.068 90.7294 109.12 90.8011L111.82 94.9648C111.882 95.0632 111.9 95.1804 111.871 95.2912C111.842 95.4021 111.768 95.4979 111.665 95.5583C111.619 95.5839 111.568 95.6015 111.515 95.6101C111.426 95.6279 111.333 95.6188 111.25 95.5841C111.166 95.5495 111.097 95.491 111.05 95.417L110.45 94.5032ZM109.95 93.7261L108.95 92.2094L108.63 93.9616L109.95 93.7261Z" fill="white"/>
<path d="M113.845 94.7622C113.871 94.8209 113.883 94.8844 113.879 94.9479C113.876 95.0114 113.857 95.0733 113.824 95.1291C113.792 95.1848 113.746 95.2329 113.691 95.2699C113.636 95.3068 113.573 95.3316 113.507 95.3425C113.44 95.3534 113.372 95.35 113.307 95.3326C113.242 95.3153 113.182 95.2844 113.132 95.2422C113.081 95.2 113.041 95.1477 113.015 95.0891C112.989 95.0304 112.977 94.967 112.98 94.9035L112.08 90.4808C112.063 90.414 112.063 90.3441 112.082 90.2775C112.1 90.2109 112.136 90.1497 112.185 90.0993C112.27 90.0213 112.384 89.9777 112.503 89.9777C112.622 89.9777 112.735 90.0213 112.82 90.0993L116.121 93.0336L115.48 89.8826C115.469 89.7774 115.5 89.672 115.567 89.5872C115.634 89.5024 115.733 89.4443 115.843 89.4242C115.953 89.4041 116.067 89.4236 116.163 89.4788C116.259 89.534 116.329 89.6209 116.361 89.7225L117.261 94.1452C117.283 94.2563 117.257 94.3711 117.19 94.4646C117.122 94.5581 117.018 94.6228 116.901 94.6445C116.837 94.6549 116.772 94.6523 116.71 94.6369C116.648 94.6214 116.59 94.5935 116.541 94.555C116.522 94.5433 116.505 94.529 116.491 94.5126L113.205 91.6065L113.845 94.7622Z" fill="white"/>
<path d="M121.746 89.1196L120.461 89.3504L121.286 93.4199C121.303 93.4772 121.308 93.5373 121.3 93.5964C121.291 93.6554 121.27 93.7122 121.237 93.7631C121.203 93.8139 121.159 93.8576 121.107 93.8915C121.055 93.9254 120.996 93.9487 120.934 93.9599C120.872 93.9711 120.808 93.9699 120.746 93.9565C120.685 93.9431 120.627 93.9177 120.576 93.8819C120.525 93.8462 120.483 93.8008 120.452 93.7489C120.421 93.6969 120.402 93.6394 120.396 93.58L119.571 89.5106L118.291 89.7413C118.232 89.7516 118.172 89.7508 118.113 89.739C118.055 89.7273 117.999 89.7048 117.95 89.6728C117.901 89.6409 117.859 89.6002 117.826 89.5529C117.794 89.5057 117.772 89.4529 117.761 89.3975C117.748 89.3424 117.748 89.2855 117.76 89.2302C117.771 89.1749 117.795 89.1224 117.828 89.0758C117.862 89.0292 117.905 88.9895 117.955 88.959C118.006 88.9285 118.062 88.9078 118.121 88.8982L121.571 88.2765C121.629 88.2649 121.69 88.2646 121.748 88.2755C121.807 88.2864 121.863 88.3084 121.912 88.34C121.962 88.3717 122.004 88.4124 122.036 88.4597C122.069 88.5071 122.091 88.5601 122.101 88.6156C122.123 88.7267 122.098 88.8415 122.032 88.9356C121.966 89.0298 121.863 89.0958 121.746 89.1196Z" fill="white"/>
<path d="M126.116 83.3923C123.783 82.4816 121.471 81.5255 119.181 80.5239C116.886 79.5347 114.611 78.5033 112.346 77.4623C110.081 76.4214 107.846 75.3475 105.591 74.2407C103.336 73.1338 101.131 72.0081 98.9355 70.8259C101.269 71.7365 103.582 72.6911 105.876 73.6896C108.171 74.6834 110.441 75.7149 112.711 76.7558C114.981 77.7968 117.211 78.8753 119.466 79.9775C121.721 81.0796 123.921 82.21 126.116 83.3923Z" fill="#263238"/>
<path d="M88.5449 82.9684C88.0449 84.3531 87.4449 85.6861 86.8149 87.0049C86.187 88.3229 85.486 89.6089 84.7148 90.8577C85.2205 89.4854 85.7996 88.1382 86.4499 86.8212C87.0781 85.5041 87.7773 84.2182 88.5449 82.9684Z" fill="#263238"/>
</svg>
