<svg width="231" height="193" viewBox="0 0 231 193" fill="none" xmlns="http://www.w3.org/2000/svg">
<line y1="188.5" x2="231" y2="188.5" stroke="#E3E3E3"/>
<path d="M163.253 0.657104C163.253 0.657104 170.147 0.751618 167.198 14.3797C164.249 28.0078 164.628 30.5822 164.628 35.983C164.587 37.7457 165.044 39.4843 165.946 41.0003C166.847 42.5164 168.158 43.7488 169.728 44.5569H160.376L153.5 12.7415V0.657104H163.253Z" fill="#E0E0E0"/>
<path d="M165.282 107.922H70.8662L71.7094 15.7254L160.638 11.0852L165.282 107.922Z" fill="#E0E0E0"/>
<path d="M162.04 105.541H67.624L68.4672 13.3445L160.142 11.5577L162.04 105.541Z" fill="#EBEBEB"/>
<path d="M160.083 102.971H65.8611V10.7746L160.142 10.5541L160.083 102.971Z" fill="#FAFAFA"/>
<path d="M160.083 102.971C160.083 102.112 160.083 65.9891 160.038 10.5541L160.142 10.6576L66.0098 10.8916H65.8609L65.9782 10.7746C65.9782 44.5028 65.9782 76.1292 65.9782 102.971L65.879 102.872L160.119 102.971L65.879 103.075H65.7798V102.971C65.7798 76.1292 65.7798 44.5028 65.7798 10.7746V10.6576H66.0413L160.178 10.4551H160.277V10.5541C160.146 65.9891 160.083 102.112 160.083 102.971Z" fill="#263238"/>
<path d="M160.142 10.3066C155.272 4.64927 160.922 0.463622 162.847 0.373608L73.1161 0.3241C72.0139 0.323061 70.9249 0.562679 69.9252 1.02615C68.9256 1.48963 68.0397 2.16574 67.3295 3.00708C66.6194 3.84842 66.1022 4.83463 65.8142 5.89657C65.5263 6.9585 65.4745 8.07045 65.6626 9.15446C65.7527 9.6287 65.8747 10.0963 66.0278 10.5542" fill="#F5F5F5"/>
<path d="M162.518 44.5569H162.644H163.005H164.412L169.728 44.5254V44.6649C168.923 44.4157 168.183 43.9932 167.559 43.4272C166.872 42.7749 166.323 41.9912 165.945 41.1228C165.523 40.1768 165.198 39.1907 164.975 38.1794C164.854 37.6528 164.745 37.1172 164.646 36.5681C164.588 36.29 164.545 36.0091 164.515 35.7265C164.476 35.4401 164.455 35.1515 164.452 34.8624C164.422 33.6609 164.461 32.4588 164.57 31.2618C164.66 30.0376 164.8 28.7819 164.948 27.4992C165.255 24.9384 165.638 22.2694 166.094 19.533C166.283 18.3673 166.517 17.2107 166.711 16.081C166.905 14.9513 167.05 13.8306 167.194 12.7145C167.338 11.5983 167.455 10.5181 167.586 9.45147C167.645 8.92039 167.717 8.39381 167.73 7.87623C167.743 7.36319 167.714 6.84997 167.645 6.34149C167.514 5.34877 167.223 4.3837 166.784 3.48355C166.391 2.63992 165.794 1.90687 165.048 1.35022C164.33 0.861823 163.452 0.666896 162.595 0.805637C161.799 0.90406 161.045 1.21505 160.412 1.70578C159.852 2.17032 159.392 2.74283 159.059 3.38903C158.758 3.96708 158.537 4.5833 158.401 5.22082C158.181 6.24942 158.306 7.32178 158.757 8.27229C159.033 8.87671 159.365 9.45385 159.749 9.99605L160.056 10.4146C160.124 10.5091 160.155 10.5631 160.155 10.5631C160.155 10.5631 160.11 10.5226 160.033 10.4326L159.713 10.0231C159.307 9.49021 158.959 8.91532 158.676 8.30829C158.2 7.34336 158.057 6.24822 158.27 5.19381C158.404 4.54285 158.625 3.913 158.929 3.32152C159.269 2.65083 159.743 2.0566 160.322 1.57526C160.975 1.06313 161.754 0.733812 162.577 0.621108C163.48 0.472775 164.406 0.675718 165.165 1.1882C165.941 1.76294 166.561 2.52266 166.968 3.39804C167.413 4.31248 167.705 5.29291 167.834 6.30098C167.907 6.8213 167.938 7.34648 167.929 7.87172C167.929 8.40731 167.843 8.93389 167.785 9.46947C167.667 10.5361 167.541 11.6253 167.397 12.737C167.252 13.8486 167.104 14.9873 166.919 16.1125C166.734 17.2377 166.49 18.3943 166.306 19.5645C165.855 22.2964 165.462 24.9654 165.151 27.5173C165.002 28.7954 164.863 30.0466 164.768 31.2708C164.658 32.4527 164.615 33.6397 164.637 34.8264C164.641 35.1093 164.66 35.3918 164.696 35.6725C164.718 35.9515 164.777 36.2306 164.822 36.5051C164.921 37.0497 165.025 37.5853 165.147 38.1074C165.36 39.1072 165.674 40.0828 166.085 41.0193C166.451 41.8656 166.983 42.6306 167.649 43.2697C168.251 43.8255 168.969 44.2419 169.751 44.4894L170.201 44.6334H169.751L164.434 44.6019H163.027H162.667L162.518 44.5569Z" fill="#263238"/>
<path d="M104.409 3.19095C104.445 3.21796 104.175 3.57351 103.909 4.23062C103.756 4.61266 103.643 5.00928 103.571 5.4143C103.491 5.91266 103.467 6.41833 103.498 6.92203C103.542 7.42408 103.643 7.91944 103.801 8.39826C103.932 8.79031 104.104 9.16746 104.315 9.52343C104.68 10.1265 105 10.4236 104.968 10.4731C104.937 10.5226 104.869 10.4101 104.725 10.2705C104.517 10.0719 104.332 9.84985 104.175 9.60894C103.937 9.25423 103.743 8.87185 103.598 8.47027C103.234 7.48128 103.151 6.41124 103.359 5.37829C103.442 4.95903 103.576 4.55114 103.755 4.1631C103.877 3.90055 104.028 3.65287 104.206 3.42499C104.319 3.26747 104.396 3.18195 104.409 3.19095Z" fill="#263238"/>
<path d="M102.168 0C101.724 0.443696 101.325 0.9307 100.978 1.45372C100.152 2.73132 99.8469 4.2762 100.126 5.77108C100.405 7.26597 101.247 8.5974 102.479 9.49196C102.99 9.85463 103.536 10.1667 104.107 10.4236C103.937 10.3989 103.77 10.3536 103.611 10.2886C103.171 10.1238 102.754 9.90295 102.371 9.63148C101.724 9.18983 101.17 8.62474 100.743 7.96876C100.315 7.31277 100.021 6.57883 99.8788 5.80916C99.7363 5.0395 99.7477 4.24931 99.9124 3.48406C100.077 2.71882 100.392 1.99362 100.838 1.35021C101.091 0.95974 101.394 0.604142 101.74 0.292546C101.869 0.175734 102.013 0.0772807 102.168 0Z" fill="#263238"/>
<path d="M152.877 71.9751H152.584H151.719L148.386 71.9976L136.122 72.0561L95.7157 72.0921H78.1753V71.9796C78.1753 60.4578 78.2069 50.5473 78.2204 43.5082C78.2204 39.9977 78.2429 37.2072 78.252 35.2809C78.252 34.3313 78.252 33.5932 78.252 33.0846C78.252 32.8416 78.252 32.657 78.252 32.522C78.252 32.387 78.252 32.3285 78.252 32.3285C78.252 32.3285 78.252 32.3915 78.252 32.522C78.252 32.6525 78.252 32.8416 78.252 33.0846C78.252 33.5932 78.252 34.3313 78.252 35.2809C78.252 37.2072 78.252 39.9977 78.2835 43.5082C78.2835 50.5473 78.3106 60.4578 78.3286 71.9796L78.2159 71.8671H95.6435L136.049 71.9031L148.296 71.9391L151.628 71.9616H152.494L152.877 71.9751Z" fill="#263238"/>
<path d="M91.9009 62.1771H84.3662V69.6978H91.9009V62.1771Z" fill="#FF725E"/>
<path d="M102.944 56.8032H95.4092V69.6977H102.944V56.8032Z" fill="#FF725E"/>
<path d="M114.032 50.6958H106.497V69.6977H114.032V50.6958Z" fill="#FF725E"/>
<path d="M124.781 43.8998H117.247V69.6978H124.781V43.8998Z" fill="#FF725E"/>
<path d="M135.779 35.2H128.244V69.6978H135.779V35.2Z" fill="#FF725E"/>
<path d="M146.696 28.5614H139.161V69.3422H146.696V28.5614Z" fill="#FF725E"/>
<path d="M84.3662 54.4584C84.3944 54.429 84.4262 54.4033 84.4609 54.3819L84.754 54.1794L85.9038 53.4143L90.219 50.5743L105.167 40.8213L105.343 40.7088V40.9158C105.343 41.9825 105.343 43.1212 105.343 44.2824L105.162 44.1878L111.051 40.2452L131.838 26.3831L138.151 22.202L139.873 21.0768L140.324 20.7887L140.482 20.6987C140.437 20.7391 140.389 20.7752 140.338 20.8067L139.887 21.1173L138.187 22.2785L131.937 26.5541L111.195 40.4748L105.302 44.4129L105.122 44.5344V40.9338L105.297 41.0284L90.3002 50.7094L85.9489 53.4953L84.7811 54.2289L84.4789 54.4179L84.3662 54.4584Z" fill="#263238"/>
<path d="M140.491 23.8942C140.426 23.5896 140.399 23.2783 140.41 22.9671C140.41 22.391 140.378 21.5899 140.374 20.7168L140.491 20.8338H140.202C139.237 20.8338 138.363 20.8338 137.731 20.7978C137.388 20.8079 137.045 20.7808 136.708 20.7168C137.045 20.6494 137.388 20.6207 137.731 20.6312C138.363 20.6312 139.237 20.5997 140.202 20.5997H140.608V20.7032C140.608 21.6034 140.608 22.4 140.572 22.9536C140.584 23.2693 140.556 23.5852 140.491 23.8942Z" fill="#263238"/>
<path d="M100.685 78.0375C100.685 78.1051 98.3581 78.1546 95.4858 78.1546C92.6136 78.1546 90.2869 78.1051 90.2869 78.0375C90.2869 77.97 92.6136 77.9205 95.4858 77.9205C98.3581 77.9205 100.685 77.9745 100.685 78.0375Z" fill="#263238"/>
<path d="M95.346 81.5931C95.1897 80.7905 95.1897 79.9653 95.346 79.1627C95.5023 79.9653 95.5023 80.7905 95.346 81.5931Z" fill="#263238"/>
<path d="M108.089 82.8128C108.089 82.8758 101.835 82.9298 94.1105 82.9298C86.3864 82.9298 80.1323 82.8758 80.1323 82.8128C80.1323 82.7498 86.3819 82.6958 94.1105 82.6958C101.839 82.6958 108.089 82.7453 108.089 82.8128Z" fill="#263238"/>
<path d="M80.3532 86.2693C80.1967 85.1526 80.1967 84.0196 80.3532 82.9028C80.5097 84.0196 80.5097 85.1526 80.3532 86.2693Z" fill="#263238"/>
<path d="M90.2867 85.8958C90.1304 84.9359 90.1304 83.9572 90.2867 82.9973C90.443 83.9572 90.443 84.9359 90.2867 85.8958Z" fill="#263238"/>
<path d="M100.5 86.0803C100.343 85.0269 100.343 83.9562 100.5 82.9028C100.656 83.9562 100.656 85.0269 100.5 86.0803Z" fill="#263238"/>
<path d="M108.273 86.0802C108.117 84.9951 108.117 83.8933 108.273 82.8082C108.43 83.8933 108.43 84.9951 108.273 86.0802Z" fill="#263238"/>
<path d="M83.8162 87.2054C82.6959 87.3212 81.569 87.3603 80.4433 87.3224C79.3177 87.3603 78.1908 87.3212 77.0706 87.2054C78.1906 87.0869 79.3177 87.0478 80.4433 87.0884C81.569 87.0478 82.6961 87.0869 83.8162 87.2054Z" fill="#263238"/>
<path d="M92.4422 87.2054C90.7278 87.3614 89.0027 87.3614 87.2883 87.2054C89.0027 87.0494 90.7278 87.0494 92.4422 87.2054Z" fill="#263238"/>
<path d="M103.404 87.4845C101.564 87.6405 99.7149 87.6405 97.8755 87.4845C99.7149 87.3284 101.564 87.3284 103.404 87.4845Z" fill="#263238"/>
<path d="M112.305 87.0164C110.34 87.1725 108.367 87.1725 106.402 87.0164C108.367 86.8604 110.34 86.8604 112.305 87.0164Z" fill="#263238"/>
<path d="M80.4478 90.4639C80.2915 89.8191 80.2915 89.1464 80.4478 88.5016C80.6041 89.1464 80.6041 89.8191 80.4478 90.4639Z" fill="#263238"/>
<path d="M86.8597 90.4639C86.8597 90.527 84.1317 90.581 80.7725 90.581C77.4132 90.581 74.6807 90.527 74.6807 90.4639C74.6807 90.4009 77.4087 90.3469 80.7725 90.3469C84.1362 90.3469 86.8597 90.4099 86.8597 90.4639Z" fill="#263238"/>
<path d="M86.8599 93.2814C86.7036 92.3532 86.7036 91.4055 86.8599 90.4774C87.0162 91.4055 87.0162 92.3532 86.8599 93.2814Z" fill="#263238"/>
<path d="M74.6807 93.4704C74.5244 92.4788 74.5244 91.469 74.6807 90.4774C74.837 91.469 74.837 92.4788 74.6807 93.4704Z" fill="#263238"/>
<path d="M100.748 90.4639C100.592 89.8191 100.592 89.1464 100.748 88.5016C100.904 89.1464 100.904 89.8191 100.748 90.4639Z" fill="#263238"/>
<path d="M115.556 90.4639C115.556 90.527 110.947 90.581 105.266 90.581C99.5845 90.581 94.9807 90.527 94.9807 90.4639C94.9807 90.4009 99.5845 90.3469 105.266 90.3469C110.947 90.3469 115.556 90.4099 115.556 90.4639Z" fill="#263238"/>
<path d="M107.16 93.2814C107.003 92.3532 107.003 91.4055 107.16 90.4774C107.316 91.4055 107.316 92.3532 107.16 93.2814Z" fill="#263238"/>
<path d="M115.975 93.2814C115.819 92.3532 115.819 91.4055 115.975 90.4774C116.131 91.4055 116.131 92.3532 115.975 93.2814Z" fill="#263238"/>
<path d="M94.9808 93.4704C94.8244 92.4788 94.8244 91.469 94.9808 90.4774C95.1371 91.469 95.1371 92.4788 94.9808 93.4704Z" fill="#263238"/>
<path d="M77.0796 95.1942C75.4842 95.3502 73.8774 95.3502 72.282 95.1942C73.8774 95.0381 75.4842 95.0381 77.0796 95.1942Z" fill="#263238"/>
<path d="M89.0108 94.8521C87.2843 95.0082 85.5473 95.0082 83.8208 94.8521C85.5473 94.6961 87.2843 94.6961 89.0108 94.8521Z" fill="#263238"/>
<path d="M97.6275 94.8521C96.109 95.0081 94.5784 95.0081 93.0598 94.8521C94.5784 94.6961 96.109 94.6961 97.6275 94.8521Z" fill="#263238"/>
<path d="M109.248 94.8521C107.598 95.0084 105.937 95.0084 104.288 94.8521C105.937 94.6958 107.598 94.6958 109.248 94.8521Z" fill="#263238"/>
<path d="M118.536 94.5416C116.863 94.6976 115.178 94.6976 113.504 94.5416C115.178 94.3855 116.863 94.3855 118.536 94.5416Z" fill="#263238"/>
<path d="M152.805 96.3643H121.003V76.7053H152.805V96.3643ZM121.021 96.3419H152.805V76.7278H121.025L121.021 96.3419Z" fill="#263238"/>
<path d="M145.14 90.914C142.935 90.0814 140.401 92.3858 138.236 91.4451C136.983 90.9005 136.41 89.4783 135.793 88.2586C135.175 87.0389 134.115 85.7427 132.753 85.8868C131.392 86.0308 130.264 87.6195 128.934 87.237C128.096 86.9939 127.681 86.0668 127.469 85.2207C127.257 84.3745 127.113 83.4429 126.472 82.8488C125.832 82.2547 124.506 82.3987 124.403 83.2989V93.709H149.261C149.261 93.709 145.888 91.2021 145.14 90.914Z" fill="#FF725E"/>
<path d="M149.911 93.6909C149.911 93.7134 143.886 93.7314 136.455 93.7314C129.024 93.7314 123 93.7314 123 93.6909C123 93.6504 129.024 93.6504 136.455 93.6504C143.886 93.6504 149.911 93.6684 149.911 93.6909Z" fill="#E0E0E0"/>
<path d="M149.911 89.1452C149.911 89.1677 143.886 89.1857 136.455 89.1857C129.024 89.1857 123 89.1857 123 89.1452C123 89.1047 129.024 89.1047 136.455 89.1047C143.886 89.1047 149.911 89.1137 149.911 89.1452Z" fill="#263238"/>
<path d="M149.911 84.613C149.911 84.613 143.886 84.649 136.455 84.649C129.024 84.649 123 84.649 123 84.613C123 84.577 129.024 84.5725 136.455 84.5725C143.886 84.5725 149.911 84.577 149.911 84.613Z" fill="#263238"/>
<path d="M149.911 80.2744C149.911 80.2744 143.886 80.3149 136.455 80.3149C129.024 80.3149 123 80.3149 123 80.2744C123 80.2339 129.024 80.2339 136.455 80.2339C143.886 80.2339 149.911 80.2519 149.911 80.2744Z" fill="#263238"/>
<path d="M78.3106 17.2331C78.3106 17.2331 78.3106 17.2331 78.3557 17.2331H78.4819C78.6483 17.2323 78.8144 17.2473 78.9779 17.2781C79.2393 17.3242 79.4918 17.4108 79.7264 17.5347C80.0394 17.7017 80.3118 17.9352 80.5245 18.2188C80.7879 18.5633 80.9684 18.9637 81.0521 19.389C81.123 19.8843 81.0591 20.3895 80.8672 20.8517C80.7682 21.1026 80.6459 21.3436 80.502 21.5718C80.3519 21.8072 80.2149 22.0506 80.0917 22.3009C79.8293 22.8284 79.6441 23.3907 79.5415 23.9707V24.0112H79.501L78.3241 23.9842L77.0886 23.9527H77.0525V23.9077C77.0219 23.3249 76.8469 22.7589 76.543 22.2604C76.4122 22.0084 76.2634 21.7743 76.1237 21.5358C75.9813 21.3108 75.8518 21.0779 75.7359 20.8382C75.5337 20.3795 75.4877 19.8672 75.6051 19.38C75.6913 18.9601 75.8649 18.563 76.1146 18.2143C76.323 17.9359 76.5931 17.7095 76.9037 17.5527C77.1386 17.434 77.3891 17.3492 77.6477 17.3007C77.8095 17.2657 77.9739 17.2446 78.1392 17.2376H78.2655C78.297 17.2376 78.3106 17.2376 78.3106 17.2376H78.2655H78.1392C77.9766 17.2504 77.8153 17.276 77.6567 17.3142C77.4028 17.3686 77.1572 17.4564 76.9263 17.5752C76.6196 17.7342 76.3529 17.9603 76.1462 18.2368C75.9073 18.5818 75.743 18.9726 75.6637 19.3845C75.5508 19.8556 75.5968 20.3508 75.7945 20.7932C75.9109 21.0297 76.0404 21.2596 76.1823 21.4818C76.3221 21.7158 76.4709 21.9544 76.6061 22.2064C76.9189 22.7179 77.0973 23.3 77.1247 23.8987L77.0841 23.8492L78.3196 23.8807L79.4965 23.9122L79.4514 23.9482C79.5577 23.3608 79.7459 22.7912 80.0105 22.2559C80.1366 22.0038 80.2766 21.7589 80.4298 21.5223C80.5722 21.2987 80.693 21.0621 80.7906 20.8157C80.9836 20.3665 81.0491 19.8729 80.9799 19.389C80.9008 18.9754 80.7298 18.5847 80.4794 18.2458C80.2725 17.9631 80.0082 17.7269 79.7039 17.5527C79.4748 17.4288 79.2287 17.3393 78.9734 17.2871C78.8113 17.2554 78.647 17.2359 78.4819 17.2286H78.3512L78.3106 17.2331Z" fill="#263238"/>
<path d="M78.6532 23.8536C78.6542 23.8402 78.6542 23.8266 78.6532 23.8131V23.7051C78.6532 23.6061 78.6261 23.4621 78.6036 23.2551C78.5675 22.8815 78.5089 22.3549 78.4818 21.6753C78.4818 21.5088 78.4818 21.3333 78.4818 21.1532C78.4818 20.9732 78.4818 20.7797 78.4818 20.5816C78.4954 20.3767 78.549 20.1764 78.6397 19.9921C78.7379 19.79 78.9061 19.6301 79.1131 19.542C79.2239 19.5026 79.3438 19.4961 79.4582 19.5232C79.5726 19.5504 79.6767 19.61 79.7579 19.695C79.8 19.7385 79.8328 19.79 79.8545 19.8465C79.8762 19.9029 79.8863 19.9631 79.8842 20.0236C79.8758 20.1475 79.8285 20.2656 79.7489 20.3611C79.667 20.4554 79.5654 20.5307 79.4513 20.5816C79.3369 20.6297 79.2174 20.6644 79.0951 20.6852C78.5933 20.7662 78.0818 20.7662 77.58 20.6852C77.4574 20.6646 77.3388 20.6251 77.2283 20.5681C77.1161 20.5141 77.0163 20.4375 76.9352 20.3431C76.8533 20.2514 76.7973 20.1395 76.7729 20.0191C76.7532 19.8988 76.7738 19.7754 76.8315 19.668C76.8868 19.5605 76.98 19.4772 77.093 19.434C77.1485 19.4157 77.2072 19.409 77.2654 19.4144C77.3236 19.4199 77.3801 19.4372 77.4312 19.4655C77.5314 19.5169 77.6156 19.5947 77.6747 19.6905C77.7313 19.7829 77.7695 19.8853 77.7874 19.9921C77.817 20.1932 77.8291 20.3965 77.8235 20.5996C77.8235 20.9912 77.8235 21.3603 77.8235 21.6933C77.8235 22.3594 77.8235 22.8995 77.8235 23.2731V23.8536C77.8246 23.8417 77.8246 23.8296 77.8235 23.8176V23.7051C77.8235 23.6061 77.8235 23.4561 77.8235 23.2551C77.8235 22.8815 77.8235 22.3549 77.7965 21.6753C77.7965 21.3423 77.7965 20.9777 77.7965 20.5816C77.8022 20.3799 77.7901 20.1781 77.7604 19.9785C77.7427 19.8766 77.7059 19.7789 77.6522 19.6905C77.5947 19.6 77.5137 19.5269 77.4177 19.479C77.3708 19.4524 77.3188 19.4362 77.2651 19.4315C77.2114 19.4269 77.1573 19.4338 77.1066 19.452C77.003 19.4921 76.9178 19.5691 76.8676 19.668C76.8135 19.7668 76.7944 19.881 76.8135 19.9921C76.8374 20.1068 76.8902 20.2137 76.9668 20.3026C77.1327 20.4794 77.3535 20.5952 77.5936 20.6311C77.8405 20.6763 78.091 20.6989 78.3421 20.6987C78.5929 20.7042 78.8436 20.6846 79.0906 20.6402C79.2119 20.6237 79.3302 20.5904 79.4423 20.5411C79.551 20.4937 79.648 20.423 79.7263 20.3341C79.8004 20.2449 79.8446 20.1347 79.8526 20.0191C79.8555 19.9627 79.8466 19.9064 79.8264 19.8537C79.8062 19.801 79.7752 19.7531 79.7354 19.713C79.6592 19.6335 79.5617 19.5777 79.4545 19.5521C79.3473 19.5266 79.2351 19.5324 79.1311 19.569C78.9342 19.6505 78.7739 19.8009 78.6802 19.9921C78.5887 20.1713 78.535 20.3674 78.5224 20.5681C78.5224 20.7617 78.5224 20.9507 78.4999 21.1352C78.4773 21.3198 78.4999 21.4908 78.4999 21.6573C78.5224 22.3234 78.5765 22.8635 78.6081 23.2326C78.6081 23.4171 78.6397 23.5611 78.6532 23.6826V23.7906V23.8536Z" fill="#263238"/>
<path d="M77.0841 23.8536C77.0841 23.8536 77.0841 24.0022 77.0841 24.2497C77.0841 24.4972 77.0841 24.8798 77.0841 25.2804L77.8506 26.2345H77.81H78.7389H78.7028L79.1853 25.6899L79.4288 25.4199V25.4559C79.4288 24.9113 79.4288 24.3982 79.4558 23.9301L79.5054 23.9797L77.7694 23.9257H77.2689H77.0841C77.1379 23.9184 77.1925 23.9184 77.2464 23.9257H77.7379H79.5415V23.9752C79.5415 24.4252 79.5415 24.9563 79.5415 25.5009L79.298 25.7754L78.8155 26.3155H78.793H77.8596L77.0525 25.3209C77.0525 24.9113 77.075 24.5602 77.0841 24.2632C77.0725 24.1269 77.0725 23.9899 77.0841 23.8536Z" fill="#263238"/>
<path d="M79.4242 25.3029L79.3341 25.2623C79.2585 25.2223 79.1801 25.1877 79.0996 25.1588C78.834 25.0536 78.5511 24.9986 78.2654 24.9968C77.9809 24.9936 77.6981 25.0424 77.4312 25.1408C77.3495 25.1688 77.2697 25.2018 77.1922 25.2398L77.1021 25.2803C77.1263 25.2585 77.1537 25.2403 77.1832 25.2263L77.4222 25.1138C77.6911 25.0099 77.977 24.9565 78.2654 24.9563C78.5551 24.961 78.8412 25.0205 79.1086 25.1318C79.189 25.1662 79.2673 25.2053 79.3431 25.2488C79.3726 25.2628 79.4 25.281 79.4242 25.3029Z" fill="#263238"/>
<path d="M79.4378 24.9338L79.3521 24.8888L79.1131 24.7853C78.8463 24.6843 78.5642 24.6295 78.279 24.6232C77.9943 24.6235 77.712 24.6738 77.4448 24.7718C77.3631 24.7997 77.2833 24.8328 77.2058 24.8708L77.1201 24.9068L77.2013 24.8573C77.2759 24.8128 77.3544 24.7751 77.4358 24.7448C77.7055 24.6383 77.9934 24.5848 78.2835 24.5872C78.5716 24.5923 78.8562 24.6519 79.1222 24.7628C79.2034 24.7953 79.2818 24.8344 79.3566 24.8798C79.3862 24.8937 79.4135 24.9119 79.4378 24.9338Z" fill="#263238"/>
<path d="M79.4288 24.5783C79.3988 24.568 79.37 24.5544 79.3431 24.5378C79.2658 24.4979 79.186 24.4634 79.1041 24.4342C78.5668 24.2301 77.9731 24.2301 77.4357 24.4342C77.3365 24.4703 77.2554 24.5063 77.1968 24.5333L77.1111 24.5738L77.1922 24.5198C77.2464 24.4928 77.3275 24.4522 77.4267 24.4117C77.6961 24.3039 77.9842 24.2504 78.2744 24.2542C78.564 24.2559 78.8504 24.314 79.1176 24.4252C79.2168 24.4703 79.298 24.5108 79.3521 24.5423L79.4288 24.5783Z" fill="#263238"/>
<path d="M88.0413 34.2683C88.0413 34.2683 87.1395 42.5721 88.2983 47.1178L99.4132 46.6317C99.4132 46.6317 97.0324 38.445 98.5114 34.8174L88.0413 34.2683Z" fill="#EBEBEB"/>
<path d="M88.0864 34.0027C88.0864 34.0027 88.1631 42.9681 88.6185 45.7045L99.8912 45.1734C99.8912 45.1734 98.8992 36.361 99.2825 34.0072L88.0864 34.0027Z" fill="#FF725E"/>
<path d="M97.5734 37.7698C97.5734 37.8103 95.887 37.9454 93.7993 38.0714C91.7115 38.1974 90.0206 38.2649 90.0161 38.2199C90.0116 38.1749 91.7025 38.0444 93.7902 37.9184C95.8779 37.7923 97.5734 37.7248 97.5734 37.7698Z" fill="white"/>
<path d="M97.578 39.6646C97.578 39.7096 95.8916 39.8446 93.8039 39.9661C91.7162 40.0876 90.0208 40.1596 90.0208 40.1191C90.0208 40.0786 91.7072 39.9436 93.7949 39.8176C95.8826 39.6916 97.5735 39.606 97.578 39.6646Z" fill="white"/>
<path d="M95.6616 41.5324C95.4569 41.5862 95.2466 41.6164 95.0349 41.6224C94.6471 41.6584 94.1105 41.6989 93.5153 41.7349C92.9201 41.7709 92.379 41.7934 91.9913 41.8024C91.7802 41.8303 91.5665 41.8303 91.3555 41.8024C91.5598 41.7464 91.7704 41.7162 91.9822 41.7124C92.3745 41.6764 92.9111 41.6359 93.5063 41.5999C94.1015 41.5639 94.6381 41.5369 95.0304 41.5279C95.2401 41.5025 95.4523 41.504 95.6616 41.5324Z" fill="white"/>
<path d="M113.766 19.4475C113.766 19.515 107.178 19.5645 99.0525 19.5645C90.9271 19.5645 84.3394 19.515 84.3394 19.4475C84.3394 19.38 90.9271 19.3304 99.0525 19.3304C107.178 19.3304 113.766 19.3845 113.766 19.4475Z" fill="#263238"/>
<path d="M95.1476 22.1254C95.1476 22.193 92.6767 22.2425 89.6285 22.2425C86.5804 22.2425 84.1094 22.193 84.1094 22.1254C84.1094 22.0579 86.5804 22.0084 89.6285 22.0084C92.6767 22.0084 95.1476 22.0534 95.1476 22.1254Z" fill="#263238"/>
<path d="M101.009 22.1254C99.5947 22.2813 98.1672 22.2813 96.7527 22.1254C98.1672 21.9694 99.5947 21.9694 101.009 22.1254Z" fill="#263238"/>
<path d="M162.518 50.3627C162.513 50.3284 162.513 50.2936 162.518 50.2592C162.518 50.1782 162.518 50.0792 162.491 49.9576C162.468 49.6741 162.437 49.287 162.396 48.801C162.328 47.7703 162.229 46.3211 162.107 44.5388C161.882 40.9158 161.571 35.9515 161.228 30.4651C160.886 24.9788 160.633 20.01 160.421 16.387C160.331 14.5867 160.259 13.151 160.205 12.1203C160.205 11.6342 160.169 11.2472 160.16 10.9591C160.16 10.8376 160.16 10.7386 160.16 10.6576C160.153 10.6234 160.153 10.5883 160.16 10.5541C160.161 10.5886 160.161 10.6231 160.16 10.6576L160.187 10.9591C160.209 11.2427 160.241 11.6297 160.277 12.1158C160.349 13.1465 160.448 14.5957 160.57 16.378C160.795 19.9785 161.106 24.9653 161.445 30.4516C161.783 35.938 162.044 40.9068 162.252 44.5253C162.346 46.3256 162.419 47.7658 162.473 48.7965C162.473 49.2825 162.509 49.6696 162.518 49.9576C162.518 50.0792 162.518 50.1782 162.518 50.2592C162.525 50.2934 162.525 50.3285 162.518 50.3627Z" fill="#263238"/>
<path d="M160.142 0.373499H159.88H159.113H156.16H145.316L109.518 0.377999L72.4758 0.260982C70.6344 0.713304 68.9855 1.73962 67.7683 3.19093C66.858 4.27964 66.2294 5.57473 65.9376 6.96251C65.7502 7.83292 65.6909 8.72595 65.7617 9.61342C65.7888 9.91497 65.8158 10.1445 65.8429 10.2975C65.8576 10.3749 65.8681 10.453 65.8744 10.5316C65.7986 10.236 65.7459 9.93509 65.7166 9.63142C65.6257 8.7386 65.6713 7.83715 65.8519 6.95801C66.1281 5.55259 66.7476 4.23697 67.6555 3.12792C68.8827 1.64228 70.5547 0.588538 72.4261 0.12146L109.473 0.166466L145.252 0.278984L156.101 0.341993L159.05 0.368998H159.817L160.142 0.373499Z" fill="#263238"/>
<path d="M170.522 174.037L169.787 183.277C169.787 183.277 160.642 186.212 160.588 187.922L178.48 188.156L179.008 174.019L170.522 174.037Z" fill="#FF725E"/>
<path d="M175.302 182.337C175.475 182.384 175.626 182.494 175.724 182.645C175.822 182.796 175.861 182.978 175.834 183.156C175.792 183.33 175.685 183.482 175.535 183.58C175.385 183.679 175.203 183.717 175.027 183.687C174.839 183.641 174.675 183.526 174.568 183.365C174.461 183.204 174.419 183.009 174.449 182.818C174.512 182.641 174.641 182.495 174.809 182.411C174.977 182.328 175.172 182.312 175.351 182.368" fill="#EBEBEB"/>
<path d="M178.48 188.156L178.444 186.725L161.499 186.828C161.499 186.828 160.53 187.404 160.557 187.963L178.48 188.156Z" fill="#EBEBEB"/>
<path d="M169.489 183.178C169.489 183.264 169.94 183.291 170.391 183.561C170.842 183.831 171.072 184.186 171.149 184.15C171.225 184.114 171.085 183.61 170.549 183.295C170.012 182.98 169.489 183.115 169.489 183.178Z" fill="#263238"/>
<path d="M167.641 184.029C167.641 184.114 168.006 184.249 168.312 184.609C168.619 184.97 168.718 185.357 168.808 185.352C168.899 185.348 168.935 184.848 168.542 184.407C168.15 183.966 167.641 183.943 167.641 184.029Z" fill="#263238"/>
<path d="M166.639 186.302C166.721 186.302 166.829 185.879 166.59 185.402C166.351 184.925 165.936 184.754 165.905 184.83C165.873 184.907 166.13 185.15 166.319 185.541C166.509 185.933 166.554 186.297 166.639 186.302Z" fill="#263238"/>
<path d="M169.588 181.085C169.629 181.162 170.039 181.031 170.522 181.049C171.004 181.067 171.424 181.211 171.451 181.135C171.478 181.058 171.112 180.757 170.549 180.743C169.985 180.73 169.543 181.018 169.588 181.085Z" fill="#263238"/>
<path d="M169.489 179.227C169.787 179.3 170.099 179.289 170.391 179.195C170.714 179.13 171.028 179.024 171.324 178.88C171.499 178.796 171.668 178.7 171.829 178.592C171.928 178.532 172.018 178.457 172.096 178.372C172.143 178.306 172.169 178.227 172.169 178.147C172.169 178.066 172.143 177.987 172.096 177.922C172.05 177.862 171.992 177.814 171.924 177.781C171.857 177.748 171.783 177.731 171.708 177.732C171.594 177.736 171.482 177.755 171.374 177.791C171.183 177.844 170.998 177.913 170.819 177.998C170.521 178.142 170.248 178.333 170.012 178.565C169.606 178.961 169.476 179.29 169.507 179.308C169.539 179.326 169.742 179.056 170.152 178.723C170.395 178.533 170.66 178.375 170.941 178.25C171.106 178.18 171.277 178.122 171.451 178.079C171.636 178.021 171.798 178.016 171.852 178.079C171.906 178.142 171.852 178.124 171.852 178.183C171.794 178.242 171.729 178.295 171.658 178.34C171.514 178.444 171.363 178.538 171.207 178.624C170.934 178.771 170.647 178.891 170.35 178.984C170.058 179.045 169.77 179.126 169.489 179.227Z" fill="#263238"/>
<path d="M169.62 179.348C169.781 179.087 169.854 178.781 169.827 178.475C169.834 178.143 169.784 177.813 169.679 177.498C169.612 177.313 169.529 177.134 169.431 176.963C169.381 176.843 169.301 176.738 169.198 176.659C169.095 176.58 168.973 176.529 168.844 176.513C168.765 176.516 168.688 176.543 168.623 176.589C168.558 176.635 168.508 176.699 168.479 176.774C168.437 176.879 168.41 176.99 168.398 177.102C168.366 177.302 168.366 177.506 168.398 177.705C168.46 178.034 168.601 178.343 168.808 178.606C169.173 179.056 169.539 179.15 169.548 179.123C169.557 179.096 169.264 178.916 168.984 178.479C168.821 178.228 168.714 177.944 168.673 177.647C168.65 177.475 168.65 177.301 168.673 177.129C168.673 176.94 168.763 176.783 168.835 176.801C168.907 176.819 169.079 176.936 169.16 177.084C169.251 177.237 169.329 177.396 169.394 177.561C169.503 177.851 169.571 178.154 169.597 178.461C169.656 179.006 169.57 179.335 169.62 179.348Z" fill="#263238"/>
<path d="M209.21 172.498L211.275 183.3L215.378 191.365C215.448 191.502 215.489 191.653 215.498 191.806C215.507 191.96 215.485 192.114 215.432 192.259C215.379 192.404 215.297 192.536 215.191 192.648C215.085 192.759 214.957 192.848 214.815 192.909C214.649 192.98 214.469 193.01 214.289 192.997C214.109 192.984 213.935 192.927 213.782 192.832C211.803 191.613 204.538 187.094 204.43 186.293C204.308 185.393 201.49 175.041 201.49 175.041L209.21 172.498Z" fill="#FF725E"/>
<path d="M214.815 192.9L204.272 185.559L204.372 186.009C204.455 186.403 204.678 186.755 204.998 186.999C205.855 187.656 208.258 189.412 213.751 192.828C213.909 192.926 214.088 192.983 214.274 192.995C214.46 193.007 214.646 192.972 214.815 192.895V192.9Z" fill="#EBEBEB"/>
<path d="M205.742 182.395C205.896 182.463 206.019 182.585 206.087 182.738C206.156 182.891 206.164 183.064 206.112 183.223C206.049 183.379 205.929 183.504 205.777 183.574C205.624 183.644 205.45 183.652 205.291 183.597C205.125 183.523 204.992 183.39 204.92 183.223C204.849 183.056 204.843 182.868 204.904 182.697C204.987 182.541 205.128 182.424 205.296 182.37C205.464 182.315 205.646 182.328 205.805 182.404" fill="#EBEBEB"/>
<path d="M211.343 188.737C211.529 188.345 211.787 187.992 212.105 187.697C212.468 187.459 212.871 187.288 213.295 187.193C213.295 187.166 213.142 187.112 212.885 187.13C212.545 187.164 212.223 187.295 211.956 187.508C211.686 187.717 211.484 188 211.374 188.323C211.298 188.579 211.316 188.732 211.343 188.737Z" fill="#263238"/>
<path d="M212.42 190.01C212.479 190.046 212.749 189.623 213.272 189.344C213.605 189.204 213.945 189.082 214.291 188.98C214.103 188.914 213.902 188.893 213.705 188.92C213.507 188.947 213.319 189.019 213.155 189.133C212.56 189.452 212.357 189.992 212.42 190.01Z" fill="#263238"/>
<path d="M209.516 187.197C209.905 186.795 210.322 186.422 210.765 186.081C211.252 185.805 211.758 185.566 212.28 185.366C211.693 185.376 211.12 185.554 210.63 185.878C210.14 186.203 209.754 186.661 209.516 187.197Z" fill="#263238"/>
<path d="M208.615 183.97C208.655 184.029 209.196 183.655 209.967 183.457C210.739 183.259 211.388 183.318 211.397 183.246C210.911 183.106 210.396 183.1 209.906 183.227C209.417 183.355 208.971 183.611 208.615 183.97Z" fill="#263238"/>
<path d="M207.929 180.82C208.363 180.566 208.831 180.373 209.318 180.248C209.82 180.199 210.326 180.215 210.824 180.298C210.824 180.275 210.689 180.163 210.409 180.073C210.041 179.964 209.653 179.942 209.276 180.01C208.898 180.078 208.542 180.234 208.236 180.464C208.006 180.644 207.907 180.797 207.929 180.82Z" fill="#263238"/>
<path d="M209.169 179.654C209.169 179.654 209.169 179.501 209.097 179.245C208.984 178.879 208.797 178.54 208.547 178.25C208.383 178.021 208.149 177.852 207.88 177.768C207.789 177.749 207.694 177.758 207.608 177.794C207.523 177.83 207.451 177.892 207.402 177.971C207.315 178.131 207.291 178.317 207.334 178.493C207.436 178.849 207.66 179.158 207.966 179.368C208.272 179.577 208.642 179.674 209.011 179.641C209.376 179.6 209.72 179.452 210 179.215C210.28 178.979 210.484 178.665 210.585 178.313C210.613 178.224 210.622 178.131 210.611 178.038C210.6 177.946 210.57 177.857 210.522 177.777C210.462 177.706 210.381 177.655 210.29 177.632C210.2 177.608 210.104 177.614 210.017 177.647C209.767 177.762 209.551 177.941 209.39 178.164C209.148 178.461 208.96 178.797 208.836 179.159C208.779 179.287 208.75 179.425 208.75 179.564C208.943 179.1 209.203 178.667 209.521 178.277C209.666 178.082 209.859 177.927 210.08 177.827C210.128 177.809 210.18 177.806 210.229 177.819C210.279 177.832 210.323 177.86 210.355 177.899C210.384 177.952 210.401 178.011 210.407 178.071C210.412 178.132 210.405 178.192 210.387 178.25C210.291 178.547 210.114 178.81 209.874 179.01C209.635 179.21 209.343 179.338 209.034 179.38C208.723 179.407 208.411 179.328 208.151 179.155C207.89 178.983 207.696 178.727 207.6 178.43C207.564 178.308 207.574 178.177 207.627 178.061C207.654 178.017 207.693 177.983 207.74 177.962C207.786 177.941 207.838 177.935 207.889 177.944C208.116 178.016 208.316 178.155 208.461 178.344C208.776 178.734 209.016 179.178 209.169 179.654Z" fill="#263238"/>
<path d="M170.391 89.1138C170.278 89.1138 168.907 179.645 168.907 179.645L179.869 179.267L183.661 134.755L184.563 102.08L192.035 132.32L201.337 179.753L212.28 177.012L198.347 88.5377L185.235 86.0083L170.391 89.1138Z" fill="#263238"/>
<path d="M194.222 33.1926C195.534 30.6092 195.944 25.9645 194.443 23.3946C192.941 20.8247 189.893 18.966 187.034 18.1198C186.564 17.9428 186.052 17.9114 185.564 18.0298C185.324 18.0975 185.119 18.2537 184.99 18.4668C184.861 18.6799 184.818 18.9339 184.87 19.1775C184.33 18.7372 183.72 18.3889 183.066 18.1468C182.74 18.0299 182.39 17.9942 182.046 18.0429C181.703 18.0915 181.377 18.223 181.096 18.4259C180.963 18.5332 180.852 18.6657 180.771 18.8158C180.689 18.9658 180.638 19.1305 180.621 19.3002C180.603 19.47 180.619 19.6416 180.668 19.8051C180.717 19.9687 180.798 20.1209 180.906 20.2531C180.509 20.0827 180.071 20.0297 179.645 20.1006C179.219 20.1715 178.822 20.3633 178.501 20.6531C178.181 20.9429 177.951 21.3185 177.839 21.7352C177.726 22.1518 177.736 22.5919 177.867 23.0031C178.203 23.8519 178.697 24.6293 179.324 25.2939C179.892 25.897 179.946 26.4821 179.775 27.2967" fill="#263238"/>
<path d="M183.413 54.4855C183.495 53.2433 183.697 42.0185 183.693 41.969C183.688 41.9195 179.518 41.4514 179.337 37.3063C179.252 35.3035 179.409 31.1674 179.594 27.4273C179.689 25.4891 180.512 23.6576 181.898 22.2968C183.284 20.936 185.132 20.1454 187.075 20.0822H187.476C191.805 20.1992 194.122 23.9347 193.884 28.2509L193.293 52.2711" fill="#FFBE9D"/>
<path d="M183.693 41.969C185.612 41.9044 187.473 41.2922 189.054 40.2047C189.054 40.2047 187.805 42.7971 183.643 42.5541L183.693 41.969Z" fill="#EB996E"/>
<path d="M180.311 30.2267C180.316 30.3808 180.38 30.5271 180.49 30.6353C180.6 30.7434 180.747 30.8051 180.902 30.8073C180.977 30.8109 181.053 30.7994 181.124 30.7734C181.196 30.7473 181.261 30.7073 181.316 30.6558C181.372 30.6042 181.416 30.542 181.447 30.473C181.478 30.4039 181.495 30.3294 181.497 30.2537C181.496 30.1769 181.481 30.1009 181.451 30.0302C181.421 29.9594 181.377 29.8952 181.322 29.8413C181.267 29.7874 181.202 29.7448 181.131 29.7159C181.06 29.6871 180.983 29.6725 180.906 29.6731C180.831 29.6695 180.755 29.6811 180.684 29.7071C180.612 29.7331 180.547 29.7731 180.492 29.8247C180.436 29.8763 180.392 29.9384 180.361 30.0075C180.33 30.0765 180.313 30.1511 180.311 30.2267Z" fill="#263238"/>
<path d="M180.55 29.43C180.627 29.502 181.064 29.1555 181.704 29.1375C182.345 29.1195 182.818 29.4255 182.886 29.3445C182.953 29.2635 182.841 29.1735 182.629 29.0294C182.347 28.8474 182.017 28.7563 181.682 28.7684C181.354 28.7812 181.039 28.8961 180.78 29.097C180.573 29.2545 180.514 29.394 180.55 29.43Z" fill="#263238"/>
<path d="M186.687 30.3167C186.691 30.4711 186.754 30.6181 186.864 30.7265C186.975 30.8349 187.123 30.8962 187.278 30.8973C187.354 30.9015 187.43 30.8904 187.501 30.8646C187.572 30.8388 187.638 30.7989 187.694 30.7472C187.749 30.6955 187.794 30.6331 187.825 30.5637C187.855 30.4944 187.872 30.4195 187.873 30.3437C187.869 30.1893 187.806 30.0423 187.695 29.9339C187.585 29.8255 187.437 29.7642 187.282 29.7631C187.13 29.7582 186.982 29.8137 186.87 29.9174C186.759 30.0211 186.693 30.1647 186.687 30.3167Z" fill="#263238"/>
<path d="M186.827 29.3536C186.903 29.4256 187.345 29.079 187.981 29.061C188.617 29.043 189.099 29.3491 189.162 29.2681C189.226 29.1871 189.117 29.097 188.91 28.953C188.627 28.7717 188.295 28.6807 187.959 28.692C187.631 28.7057 187.316 28.8205 187.057 29.0205C186.854 29.1781 186.791 29.3176 186.827 29.3536Z" fill="#263238"/>
<path d="M184.658 34.1513C184.319 34.0521 183.969 33.9992 183.616 33.9937C183.454 33.9937 183.296 33.9532 183.264 33.8452C183.247 33.6774 183.28 33.5083 183.359 33.3591L183.81 32.1079C184.428 30.3077 184.865 28.8539 184.793 28.8314C184.721 28.8089 184.166 30.2357 183.548 32.0179C183.404 32.468 183.26 32.8776 183.129 33.2781C183.031 33.4778 183.007 33.706 183.062 33.9217C183.087 33.9779 183.126 34.0276 183.173 34.0673C183.221 34.107 183.277 34.1357 183.337 34.1513C183.428 34.1724 183.522 34.1815 183.616 34.1783C183.963 34.2134 184.313 34.2044 184.658 34.1513Z" fill="#263238"/>
<path d="M186.552 34.5339C186.448 34.5339 186.466 35.2225 185.889 35.7311C185.312 36.2397 184.572 36.1812 184.568 36.2847C184.563 36.3882 184.739 36.4107 185.05 36.4107C185.461 36.4116 185.858 36.2682 186.173 36.0056C186.465 35.7487 186.648 35.3894 186.682 35.002C186.682 34.6959 186.597 34.5249 186.552 34.5339Z" fill="#263238"/>
<path d="M186.583 26.8602C186.655 27.0312 187.287 26.9277 188.04 26.9952C188.793 27.0627 189.392 27.2473 189.496 27.0898C189.541 27.0132 189.428 26.8557 189.18 26.6937C188.849 26.4961 188.475 26.3789 188.089 26.3516C187.706 26.3175 187.319 26.3746 186.962 26.5182C186.691 26.6397 186.556 26.7792 186.583 26.8602Z" fill="#263238"/>
<path d="M180.726 27.5758C180.843 27.7198 181.281 27.5758 181.808 27.5308C182.336 27.4857 182.787 27.5983 182.886 27.4452C182.926 27.3687 182.854 27.2247 182.651 27.0942C182.38 26.9317 182.065 26.8578 181.749 26.8827C181.439 26.8971 181.141 27.0089 180.897 27.2022C180.73 27.3552 180.676 27.5082 180.726 27.5758Z" fill="#263238"/>
<path d="M193.653 31.3204C193.726 31.2889 196.481 30.3888 196.481 33.2287C196.481 36.0686 193.626 35.479 193.617 35.398C193.608 35.317 193.653 31.3204 193.653 31.3204Z" fill="#FFBE9D"/>
<path d="M194.488 34.3223C194.488 34.3223 194.537 34.3583 194.623 34.3943C194.682 34.4186 194.744 34.4311 194.808 34.4311C194.871 34.4311 194.934 34.4186 194.993 34.3943C195.177 34.278 195.326 34.115 195.426 33.922C195.526 33.7291 195.572 33.513 195.561 33.2961C195.566 33.0533 195.518 32.8123 195.421 32.5895C195.395 32.5015 195.347 32.4211 195.283 32.3553C195.218 32.2895 195.139 32.2402 195.051 32.2115C194.994 32.1954 194.934 32.2001 194.88 32.2249C194.826 32.2496 194.783 32.2928 194.758 32.3465C194.718 32.423 194.758 32.4815 194.722 32.486C194.686 32.4905 194.664 32.4365 194.686 32.3195C194.701 32.2505 194.74 32.1887 194.794 32.144C194.873 32.0852 194.972 32.0594 195.069 32.072C195.188 32.0948 195.298 32.1484 195.389 32.2274C195.48 32.3065 195.549 32.4081 195.588 32.522C195.709 32.7665 195.768 33.037 195.759 33.3096C195.773 33.563 195.711 33.8146 195.582 34.0331C195.453 34.2516 195.262 34.4273 195.033 34.5383C194.957 34.5599 194.877 34.5641 194.799 34.5509C194.721 34.5377 194.647 34.5072 194.582 34.4618C194.492 34.3898 194.479 34.3268 194.488 34.3223Z" fill="#EB996E"/>
<path d="M177.782 22.0534C177.448 25.7305 181.989 27.2652 183.982 25.2039C184.883 24.2543 185.704 23.0661 186.958 22.6385C187.386 22.5101 187.836 22.4678 188.281 22.5142C188.726 22.5605 189.158 22.6946 189.55 22.9086C190.723 23.5162 191.413 24.8709 191.597 26.1761C191.85 27.9763 191.557 29.5966 192.048 31.2664C192.09 31.5141 192.214 31.7406 192.4 31.9099C192.591 32.0018 192.808 32.0237 193.013 31.9718C193.218 31.92 193.399 31.7977 193.523 31.6264C193.939 31.0852 194.186 30.4343 194.235 29.7541C194.486 28.2263 194.427 26.6639 194.064 25.1589C193.698 23.6474 192.895 22.2765 191.755 21.2163C190.277 19.9389 188.36 19.2838 186.407 19.389C184.464 19.5094 182.607 20.2368 181.1 21.4683C180.377 22.0059 179.8 22.7142 179.418 23.5297" fill="#263238"/>
<path d="M180.789 20.0416C180.66 20.011 180.526 20.011 180.397 20.0416C180.042 20.1256 179.717 20.3064 179.459 20.5637C179.069 20.9465 178.82 21.449 178.751 21.9904C178.697 22.6601 178.891 23.3263 179.297 23.8627C179.689 24.3951 180.221 24.8093 180.834 25.0599C181.329 25.2588 181.853 25.3744 182.385 25.402C182.74 25.4244 183.096 25.4138 183.449 25.3705C183.58 25.3646 183.71 25.3388 183.833 25.2939C183.833 25.2534 183.278 25.33 182.399 25.2489C181.888 25.1994 181.388 25.0735 180.915 24.8754C180.34 24.6306 179.842 24.2357 179.472 23.7322C179.109 23.2502 178.927 22.6559 178.958 22.0534C179.008 21.5482 179.224 21.0736 179.572 20.7032C179.805 20.4513 180.098 20.2624 180.424 20.1542C180.654 20.0686 180.794 20.0641 180.789 20.0416Z" fill="#455A64"/>
<path d="M182.692 18.7454C182.692 18.7454 182.588 18.7139 182.421 18.7904C182.307 18.853 182.207 18.9398 182.129 19.0447C182.051 19.1496 181.997 19.2702 181.97 19.398C181.914 19.7737 181.99 20.1574 182.187 20.4827C182.392 20.8792 182.654 21.2445 182.962 21.5674C183.524 22.1567 184.223 22.5988 184.996 22.8546C185.308 22.9812 185.643 23.038 185.979 23.0211C185.979 22.9806 185.609 22.9356 185.05 22.7105C184.322 22.424 183.665 21.9833 183.125 21.4188C182.828 21.1092 182.572 20.7629 182.363 20.3882C182.18 20.1018 182.094 19.7639 182.119 19.425C182.157 19.2017 182.278 19.0008 182.457 18.8625C182.597 18.7724 182.696 18.7634 182.692 18.7454Z" fill="#455A64"/>
<path d="M157.941 55.4891L138.377 53.6393L135.283 52.8967C135.283 52.8967 128.213 51.6365 127.55 51.425C126.784 51.1864 126.482 51.497 126.414 51.785C126.306 52.2351 126.752 52.7167 127.401 52.9417C127.627 53.0227 131.23 54.1119 131.23 54.1119C130.826 54.2152 130.43 54.346 130.044 54.5034C129.205 54.823 128.429 55.9527 128.073 57.2444C127.717 58.5361 127.731 58.9276 128.227 59.0896C128.321 59.1165 128.421 59.1215 128.518 59.1044C128.614 59.0872 128.706 59.0483 128.786 58.9906C129.063 58.8196 129.267 58.5517 129.358 58.239C129.963 56.1777 131.23 55.9662 131.23 55.9662L131.635 56.0652C131.635 56.0652 130.355 57.0328 130.422 58.14C130.435 58.2963 130.476 58.4489 130.544 58.5901C130.448 58.8729 130.429 59.1764 130.49 59.4689C130.55 59.7615 130.689 60.0325 130.89 60.2538C131.091 60.4752 131.347 60.6388 131.633 60.7277C131.919 60.8166 132.223 60.8275 132.515 60.7594C132.794 60.7009 133.087 60.5254 133.119 60.2418C133.121 60.0851 133.084 59.9303 133.011 59.7918C132.979 59.7191 132.953 59.6438 132.934 59.5667L134.106 59.6792C134.106 59.6792 136.753 59.7963 137.899 59.9763L156.327 64.7335C156.934 64.8907 157.566 64.9255 158.187 64.836C158.807 64.7465 159.403 64.5344 159.941 64.2122C160.478 63.8899 160.946 63.464 161.316 62.9592C161.687 62.4545 161.953 61.881 162.099 61.2725C162.255 60.6159 162.269 59.9334 162.138 59.2712C162.008 58.609 161.736 57.9825 161.342 57.4342C160.948 56.8858 160.44 56.4283 159.853 56.0928C159.267 55.7572 158.615 55.5513 157.941 55.4891Z" fill="#FFBE9D"/>
<path d="M137.962 54.1523C137.927 54.3535 137.831 54.539 137.686 54.6834C137.542 54.8277 137.356 54.9236 137.154 54.958C136.753 55.057 136.338 55.021 135.932 55.0885C134.729 55.3 133.831 56.4387 132.614 56.5917C132.447 56.5917 132.231 56.5917 132.163 56.4252C132.095 56.2587 132.231 56.1282 132.348 56.0201L135.274 53.2207" fill="#FFBE9D"/>
<path d="M135.288 53.2207C135.162 53.2974 135.046 53.388 134.94 53.4907C134.729 53.6753 134.426 53.9408 134.039 54.2919L132.74 55.4936C132.618 55.6106 132.497 55.7276 132.366 55.8446C132.235 55.9616 132.064 56.0741 132.037 56.3532C132.037 56.4219 132.058 56.4889 132.098 56.5452C132.137 56.6015 132.193 56.6444 132.258 56.6682C132.362 56.7079 132.475 56.7218 132.587 56.7087C132.785 56.6825 132.98 56.6358 133.168 56.5692C133.827 56.26 134.463 55.905 135.071 55.5071C135.339 55.3572 135.628 55.2494 135.928 55.1875C136.208 55.1335 136.483 55.129 136.74 55.102C136.949 55.1002 137.155 55.0525 137.343 54.9623C137.532 54.8721 137.698 54.7415 137.831 54.5799C137.883 54.5183 137.92 54.446 137.94 54.3681C137.961 54.2903 137.963 54.2088 137.948 54.1298C137.906 54.2641 137.842 54.3903 137.759 54.5034C137.625 54.6402 137.464 54.7477 137.286 54.8189C137.108 54.8902 136.918 54.9238 136.726 54.9175C136.449 54.9231 136.172 54.9427 135.896 54.976C135.581 55.0367 135.277 55.1444 134.995 55.2955C134.386 55.6768 133.755 56.021 133.105 56.3262C132.936 56.3886 132.761 56.4324 132.582 56.4567C132.415 56.4567 132.267 56.4207 132.28 56.3307C132.294 56.2407 132.411 56.1011 132.537 55.9841C132.663 55.8671 132.785 55.7411 132.907 55.6286L134.169 54.3864C134.526 54.0308 134.814 53.7383 135.008 53.5358C135.202 53.3332 135.301 53.2342 135.288 53.2207Z" fill="#EB996E"/>
<path d="M131.667 56.0202C131.413 55.9685 131.151 55.9762 130.901 56.0427C130.638 56.1296 130.41 56.2984 130.251 56.5243C130.053 56.8077 129.901 57.1206 129.8 57.4514C129.698 57.7925 129.562 58.1226 129.394 58.4371C129.248 58.6979 129.037 58.9165 128.781 59.0717C128.692 59.123 128.593 59.1529 128.49 59.1591C128.388 59.1654 128.285 59.1478 128.191 59.1077C128.06 59.0447 128.01 58.9817 128.015 58.9772C128.019 58.9727 128.082 59.0132 128.209 59.0537C128.296 59.08 128.388 59.0868 128.479 59.0736C128.569 59.0604 128.655 59.0275 128.732 58.9772C128.963 58.8227 129.15 58.6121 129.277 58.3651C129.432 58.0556 129.561 57.7333 129.661 57.4019C129.763 57.0566 129.923 56.731 130.134 56.4388C130.314 56.1952 130.572 56.0192 130.864 55.9392C131.058 55.8891 131.261 55.8891 131.455 55.9392C131.532 55.9477 131.604 55.9756 131.667 56.0202Z" fill="#EB996E"/>
<path d="M127.167 52.8517C127.411 52.902 127.651 52.9728 127.884 53.0632L129.597 53.6168L131.32 54.1434C131.563 54.2043 131.801 54.284 132.032 54.3819C131.781 54.3672 131.533 54.3218 131.293 54.2469C130.842 54.1389 130.229 53.9724 129.552 53.7608C128.876 53.5493 128.276 53.3333 127.848 53.1622C127.61 53.0834 127.382 52.9793 127.167 52.8517Z" fill="#EB996E"/>
<path d="M132.222 57.0823C132.222 57.0823 132.172 57.1543 132.077 57.2668C132.007 57.3369 131.952 57.4215 131.918 57.5149C131.884 57.6082 131.87 57.7079 131.879 57.8069C131.89 57.8703 131.919 57.9296 131.961 57.9786C132.003 58.0276 132.057 58.0647 132.118 58.0859C132.272 58.1433 132.432 58.1811 132.596 58.1984C132.799 58.2171 132.989 58.31 133.128 58.4595C133.196 58.5489 133.241 58.6528 133.262 58.7629C133.282 58.8731 133.276 58.9865 133.245 59.0941C133.212 59.1991 133.157 59.2963 133.085 59.3798C133.013 59.4633 132.925 59.5315 132.826 59.5802C132.646 59.675 132.441 59.7127 132.24 59.6882C131.925 59.6342 131.621 59.5325 131.338 59.3866C131.139 59.2971 130.958 59.1737 130.801 59.0221C130.74 58.9677 130.695 58.8977 130.67 58.8195C130.67 58.8195 130.729 58.8826 130.842 58.9816C131.005 59.11 131.186 59.2146 131.378 59.2921C131.666 59.4198 131.969 59.5076 132.28 59.5532C132.456 59.5731 132.634 59.535 132.786 59.4448C132.938 59.3546 133.057 59.2172 133.123 59.0536C133.149 58.9686 133.154 58.879 133.139 58.7916C133.124 58.7042 133.09 58.6214 133.038 58.5495C132.918 58.4255 132.758 58.3487 132.587 58.3335C132.414 58.3092 132.244 58.2639 132.082 58.1984C132.005 58.1665 131.939 58.1152 131.888 58.0498C131.837 57.9843 131.805 57.9068 131.793 57.8249C131.799 57.6732 131.844 57.5256 131.923 57.3957C132.002 57.2659 132.112 57.1581 132.244 57.0823H132.222Z" fill="#EB996E"/>
<path d="M132.736 59.4857C132.736 59.4857 132.817 59.4857 132.929 59.5712C133.009 59.6345 133.072 59.7157 133.113 59.808C133.155 59.9003 133.174 60.0012 133.168 60.1023C133.156 60.2523 133.105 60.3965 133.02 60.5205C132.934 60.6445 132.818 60.744 132.681 60.8089C132.351 60.964 131.972 60.985 131.626 60.8674C131.281 60.7603 130.978 60.5478 130.761 60.2598C130.587 60.027 130.48 59.7518 130.449 59.4632C130.427 59.2703 130.44 59.0749 130.49 58.8871C130.526 58.7566 130.562 58.6891 130.571 58.6936C130.533 58.9427 130.533 59.1961 130.571 59.4452C130.613 59.7131 130.723 59.9657 130.891 60.1788C131.096 60.4368 131.374 60.6267 131.689 60.7234C131.999 60.83 132.336 60.8171 132.636 60.6874C132.756 60.6342 132.859 60.5519 132.938 60.4481C133.017 60.3442 133.068 60.2222 133.087 60.0933C133.094 60.0055 133.082 59.9174 133.052 59.8345C133.023 59.7516 132.976 59.6757 132.916 59.6117C132.803 59.5217 132.731 59.4992 132.736 59.4857Z" fill="#EB996E"/>
<path d="M135.905 57.7619C135.913 57.6415 135.952 57.5251 136.018 57.4244C136.173 57.152 136.414 56.9384 136.704 56.8168V56.9473C136.549 56.8797 136.398 56.803 136.253 56.7178C135.725 56.443 135.286 56.0249 134.986 55.5116C135.395 55.9211 135.848 56.2834 136.338 56.5918C136.487 56.6773 136.636 56.7538 136.789 56.8168L136.943 56.8888L136.785 56.9473C136.519 57.0549 136.289 57.236 136.122 57.4694C135.969 57.6449 135.928 57.7709 135.905 57.7619Z" fill="#EB996E"/>
<path d="M129.769 55.9257C129.796 55.8987 130.012 56.1192 130.048 56.4748C130.084 56.8303 129.927 57.0914 129.89 57.0689C129.854 57.0464 129.936 56.8033 129.89 56.4928C129.845 56.1822 129.733 55.9527 129.769 55.9257Z" fill="#EB996E"/>
<path d="M158.289 65.0306L171.04 62.1096C171.04 62.1096 170.391 85.4232 170.391 85.6438C170.391 85.8643 169.341 86.2289 169.431 87.9256L170.333 89.9374L198.289 90.311L199.046 67.6545L201.599 50.1018L195.737 46.4787L193.672 43.6568L185.609 52.1451L183.603 44.899L183.661 42.7432L181.668 44.9035L170.914 48L156.706 54.6115L147.102 53.8779L144.608 62.2672L158.289 65.0306Z" fill="#5EAFFF"/>
<path d="M184.496 49.5437C184.234 49.6852 184.031 49.9126 183.918 50.1873C183.796 50.4996 183.736 50.833 183.743 51.1684C183.762 51.6262 183.697 52.0836 183.553 52.5186L183.454 52.7482L183.355 52.5186C183.086 51.8492 182.875 51.1581 182.724 50.4528C182.385 48.9946 182.164 47.6579 182.02 46.6947C181.921 46.1736 181.865 45.6453 181.853 45.115C181.997 45.6235 182.109 46.1406 182.187 46.6632C182.372 47.6219 182.638 48.9496 182.953 50.3988C183.1 51.0894 183.299 51.768 183.549 52.4286H183.355C183.494 52.0247 183.565 51.6002 183.562 51.1729C183.569 50.8185 183.649 50.4692 183.797 50.1468C183.893 49.9348 184.05 49.7562 184.248 49.6337C184.319 49.5797 184.406 49.5483 184.496 49.5437Z" fill="#263238"/>
<path d="M194.844 45.9881C194.77 46.1293 194.679 46.2608 194.573 46.3797C194.384 46.6182 194.122 46.9648 193.762 47.3878C193.067 48.234 192.102 49.3906 191.02 50.6643L189.298 52.6581L189.162 52.8112L189.117 52.6176C188.869 51.6365 188.666 50.8174 188.54 50.2323C188.486 49.9397 188.324 49.7822 188.166 49.7822C188.089 49.7754 188.012 49.7962 187.949 49.8407C187.949 49.8407 187.981 49.7237 188.166 49.7147C188.221 49.7131 188.276 49.7231 188.328 49.744C188.379 49.7649 188.425 49.7963 188.464 49.8362C188.559 49.9409 188.627 50.0677 188.662 50.2053C188.829 50.7814 189.059 51.6005 189.32 52.5726L189.135 52.5321L190.84 50.5113C191.922 49.2421 192.909 48.0989 193.635 47.2798C193.996 46.8703 194.294 46.5417 194.501 46.3167C194.709 46.0916 194.83 45.9746 194.844 45.9881Z" fill="#263238"/>
<path d="M182.954 83.2628C182.933 83.1637 182.924 83.0625 182.926 82.9613C182.926 82.7362 182.926 82.4527 182.926 82.0926C182.926 81.341 182.926 80.2518 182.926 78.9106C182.954 76.2102 183.084 72.5061 183.377 68.4105C183.67 64.3149 184.117 60.6243 184.487 57.9599C184.667 56.6097 184.834 55.552 184.938 54.8094L185.086 53.9543C185.1 53.8549 185.122 53.757 185.154 53.6617C185.164 53.762 185.164 53.863 185.154 53.9633C185.127 54.1838 185.091 54.4674 185.05 54.8229C184.951 55.597 184.816 56.6682 184.649 57.9734C184.324 60.6423 183.923 64.3329 183.612 68.424C183.301 72.5152 183.161 76.2237 183.08 78.9061C183.048 80.2293 183.026 81.3095 183.003 82.0926C183.003 82.4482 183.003 82.7317 182.981 82.9568C182.979 83.0593 182.969 83.1615 182.954 83.2628Z" fill="#263238"/>
<path d="M180.676 88.7222C180.479 88.074 180.407 87.3943 180.464 86.7194C180.451 86.0457 180.529 85.3733 180.699 84.7211C180.763 85.3872 180.763 86.0578 180.699 86.7239C180.667 87.822 180.762 88.7132 180.676 88.7222Z" fill="#263238"/>
<path d="M192.129 82.1737C191.897 82.2796 191.657 82.3698 191.412 82.4437C190.961 82.6058 190.258 82.8173 189.41 83.0648C187.193 83.698 184.945 84.2148 182.674 84.6131C180.4 85.0231 178.106 85.3115 175.802 85.4772C174.923 85.5357 174.206 85.5717 173.71 85.5807C173.455 85.602 173.198 85.602 172.943 85.5807C173.195 85.5347 173.449 85.5076 173.705 85.4997L175.788 85.3197C177.547 85.1577 179.973 84.8696 182.624 84.4196C185.275 83.9695 187.652 83.3799 189.356 82.9298L191.376 82.3762C191.621 82.2867 191.873 82.2189 192.129 82.1737Z" fill="#263238"/>
<path d="M170.901 67.0109C170.838 67.0109 170.797 63.7029 170.81 59.6162C170.824 55.5296 170.887 52.2216 170.955 52.2261C171.022 52.2306 171.058 55.5341 171.045 59.6207C171.031 63.7074 170.968 67.0109 170.901 67.0109Z" fill="#263238"/>
<path d="M201.08 49.7596C201.08 49.7596 204.602 52.7751 204.836 54.4854C205.012 55.8041 208.479 68.2035 210.04 73.7573C210.527 75.4865 210.422 77.3286 209.742 78.9916L205.233 90.1084L197.951 85.8057L201.594 75.3821L198.577 66.5337L201.08 49.7596Z" fill="#5EAFFF"/>
<path d="M205.242 90.1084C205.194 90.0921 205.148 90.0694 205.107 90.0409L204.719 89.8294L203.244 88.9878L197.897 85.8868L197.829 85.8463L197.856 85.7788C198.875 82.8398 200.11 79.2663 201.463 75.3417V75.4182C201.039 74.275 200.593 73.0823 200.138 71.8626C199.069 68.9957 198.054 66.2593 197.125 63.7614C196.201 61.8306 195.403 59.9628 195.182 58.1715C195.071 57.3344 195.095 56.485 195.254 55.6556C195.4 54.9508 195.646 54.2703 195.985 53.6348C196.465 52.7385 197.103 51.9365 197.869 51.2675C198.071 51.0883 198.281 50.92 198.501 50.7634C198.574 50.7063 198.652 50.6565 198.735 50.6149C198.671 50.6818 198.6 50.7421 198.523 50.7949C198.379 50.9074 198.172 51.0784 197.915 51.317C197.18 52.0008 196.57 52.8063 196.111 53.6978C195.783 54.3236 195.549 54.9938 195.417 55.6871C195.268 56.4998 195.251 57.331 195.367 58.149C195.597 59.8998 196.395 61.7496 197.328 63.6714L200.358 71.7726C200.809 72.9923 201.26 74.185 201.684 75.3327V75.3687V75.4092C200.304 79.3248 199.051 82.8938 198.018 85.8283L197.978 85.7203L203.267 88.8708L204.719 89.7709L205.093 90.0049C205.201 90.0724 205.246 90.1039 205.242 90.1084Z" fill="#263238"/>
<g opacity="0.3">
<path d="M186.47 51.3889C186.714 51.381 186.952 51.4547 187.149 51.5983C187.345 51.7419 187.487 51.9471 187.553 52.181C187.643 52.6671 187.575 53.1712 187.701 53.6483C187.828 54.1253 188.265 54.5934 188.748 54.4899C189.034 54.3962 189.278 54.205 189.437 53.9498C190.384 52.6702 191.143 51.2623 191.692 49.7687C191.692 49.8002 189.194 52.6311 189.194 52.6311C189.098 51.9154 188.91 51.215 188.635 50.5473C188.549 50.3313 188.454 49.9667 188.247 49.8677C187.909 49.7147 187.458 50.2097 187.232 50.5068C187.002 50.8117 186.74 51.0922 186.452 51.3439" fill="black"/>
</g>
<g opacity="0.3">
<path d="M182.399 48.8236C182.444 50.4046 182.749 51.9676 183.301 53.4503C183.348 53.6026 183.432 53.7415 183.544 53.8553C183.602 53.9132 183.678 53.9507 183.759 53.962C183.84 53.9734 183.923 53.9581 183.995 53.9184C184.176 53.614 184.327 53.293 184.446 52.9597C184.676 52.3161 185.614 52.2576 185.614 52.2576C185.457 51.5308 185.252 50.8152 185 50.1153C184.954 50.0007 184.873 49.9032 184.769 49.8364C184.665 49.7695 184.542 49.7364 184.419 49.7417C184.257 49.7967 184.112 49.8935 184 50.0224C183.887 50.1512 183.811 50.3075 183.778 50.4753C183.639 51.632 183.657 52.1586 183.485 52.5636C183.034 51.335 182.692 49.8632 182.403 48.7786" fill="black"/>
</g>
<g opacity="0.3">
<path d="M189.329 82.9163C189.436 82.8404 189.526 82.744 189.595 82.6328C189.664 82.5216 189.709 82.3978 189.73 82.2686C189.75 82.1395 189.744 82.0076 189.712 81.8808C189.681 81.754 189.624 81.6347 189.546 81.5301C189.378 81.3251 189.16 81.1676 188.912 81.0736C188.664 80.9796 188.396 80.9523 188.134 80.9945C187.613 81.085 187.123 81.3048 186.709 81.6336C186.281 81.9441 185.889 82.2997 185.438 82.5742C184.333 83.2493 182.989 83.4069 181.691 83.4249C180.394 83.3705 179.095 83.4292 177.808 83.6004C176.537 83.8434 175.265 84.5005 174.652 85.6392C174.634 85.6392 185.722 84.8381 189.329 82.9163Z" fill="black"/>
</g>
<path d="M196.544 99.1728C195.359 98.4118 194.366 97.3893 193.64 96.1843C193.647 96.1687 193.65 96.1518 193.65 96.1348C193.65 96.1178 193.647 96.1009 193.64 96.0853C193.612 96.0494 193.572 96.0253 193.527 96.0178C193.215 95.5399 192.932 95.044 192.679 94.5326C193.581 93.9475 194.767 93.0563 193.482 92.8763C191.899 92.6513 190.777 91.8816 190.605 91.4631C190.579 91.3631 190.584 91.2574 190.62 91.1604C190.656 91.0635 190.721 90.9801 190.807 90.9218C190.892 90.8635 190.994 90.8332 191.098 90.835C191.201 90.8369 191.302 90.8707 191.385 90.932C191.867 91.1756 192.38 91.3528 192.909 91.4586C193.333 91.5574 193.771 91.5848 194.203 91.5396C194.47 91.5081 195.412 90.8645 196.422 90.3919C196.562 90.3261 196.72 90.3041 196.873 90.3289L197.256 90.3019C197.461 90.2893 197.659 90.2237 197.83 90.1117C198.002 89.9996 198.141 89.8449 198.235 89.6628L199.7 86.8544L204.119 89.4648L200.62 94.3075C199.351 96.0019 197.99 97.626 196.544 99.1728Z" fill="#FFBE9D"/>
<path d="M197.473 99.6769C197.109 99.5742 196.765 99.4131 196.454 99.1998C195.674 98.7277 194.969 98.1421 194.361 97.4625C193.755 96.7895 193.251 96.0313 192.865 95.2122C192.689 94.8772 192.566 94.5175 192.499 94.1455C193.51 96.4803 195.25 98.4268 197.459 99.6949L197.473 99.6769Z" fill="#455A64"/>
<path d="M183.553 102.517C183.553 102.517 183.508 102.517 183.427 102.481C183.315 102.426 183.211 102.358 183.116 102.278C182.777 101.968 182.528 101.574 182.394 101.135C182.196 100.502 182.031 99.8594 181.903 99.2088C181.74 98.4797 181.574 97.6786 181.407 96.8325C181.073 95.1447 180.821 93.6055 180.658 92.4893C180.577 91.9312 180.518 91.4767 180.487 91.1661C180.457 91.0044 180.447 90.8397 180.455 90.6755C180.515 90.8197 180.556 90.971 180.577 91.1256L180.821 92.4398C181.028 93.547 181.303 95.0772 181.637 96.765C181.803 97.6066 181.966 98.4032 182.115 99.1413C182.263 99.8795 182.381 100.532 182.566 101.059C182.681 101.479 182.894 101.866 183.188 102.188C183.4 102.427 183.562 102.499 183.553 102.517Z" fill="#455A64"/>
<path d="M183.174 92.4128C183.174 92.4128 183.251 92.3858 183.373 92.4128C183.552 92.4786 183.7 92.6086 183.788 92.7774C183.859 92.905 183.892 93.05 183.884 93.1957C183.876 93.3414 183.827 93.4819 183.742 93.601C183.639 93.7488 183.493 93.8621 183.324 93.9263C183.156 93.9905 182.971 94.0026 182.796 93.9611C182.624 93.9088 182.471 93.8093 182.354 93.6739C182.236 93.5385 182.16 93.3729 182.133 93.196C182.115 93.0537 182.131 92.9092 182.181 92.7745C182.23 92.6399 182.311 92.5189 182.417 92.4218C182.791 92.1023 183.129 92.1968 183.111 92.2148C182.896 92.2762 182.698 92.3872 182.534 92.5388C182.456 92.6206 182.399 92.7194 182.367 92.8273C182.335 92.9352 182.329 93.0492 182.349 93.1599C182.374 93.2926 182.434 93.416 182.524 93.5168C182.614 93.6175 182.73 93.6918 182.859 93.7315C182.99 93.76 183.126 93.751 183.252 93.7056C183.378 93.6602 183.489 93.5803 183.571 93.475C183.637 93.386 183.678 93.2812 183.689 93.1713C183.701 93.0614 183.684 92.9503 183.639 92.8494C183.467 92.4848 183.156 92.4443 183.174 92.4128Z" fill="#455A64"/>
<path d="M173.588 90.6035C173.696 90.9373 173.736 91.2893 173.705 91.6387C173.674 92.4895 173.447 93.3219 173.043 94.0717C172.639 94.8215 172.068 95.4688 171.374 95.9638C171.096 96.1747 170.779 96.3278 170.441 96.4139C170.441 96.3779 170.779 96.2024 171.275 95.8108C171.914 95.2969 172.443 94.6598 172.83 93.9377C173.217 93.2155 173.455 92.423 173.529 91.6072C173.597 91.0041 173.547 90.608 173.588 90.6035Z" fill="#455A64"/>
<path d="M156.088 59.0267C156.11 58.2719 156.186 57.5198 156.318 56.7763C156.373 56.0284 156.482 55.2854 156.643 54.553C156.713 55.3039 156.681 56.0609 156.548 56.8033C156.494 57.5615 156.34 58.3092 156.088 59.0267Z" fill="#263238"/>
<path d="M147.102 53.8868C147.098 53.9405 147.088 53.9935 147.07 54.0444C147.043 54.1659 147.003 54.3144 146.953 54.4944C146.836 54.9085 146.678 55.4846 146.475 56.2047L144.689 62.3031L144.617 62.1771C147.165 62.8072 150.236 63.3203 153.514 63.9234C155.146 64.2294 156.72 64.558 158.172 64.918H158.122L167.266 62.8522L169.931 62.2761L170.644 62.1276C170.726 62.1042 170.811 62.0921 170.896 62.0916C170.817 62.1234 170.736 62.1489 170.653 62.1681L169.949 62.3481L167.316 63.0097L158.19 65.1566H158.135C156.688 64.801 155.119 64.477 153.487 64.1754C150.217 63.5723 147.138 63.0458 144.586 62.3751L144.482 62.3526L144.513 62.2491C145.271 59.7512 145.907 57.6674 146.362 56.1777C146.583 55.4666 146.764 54.8995 146.894 54.4854C146.951 54.3054 147.001 54.1554 147.043 54.0354C147.058 53.9843 147.078 53.9346 147.102 53.8868Z" fill="#263238"/>
<path d="M20.9687 157.853L19.6655 181.936L28.4087 184.042L30.1492 160.517L20.9687 157.853Z" fill="#AA6550"/>
<path d="M19.4087 181.734L17.9207 188.269H27.9759L28.4088 184.011L19.4087 181.734Z" fill="#FF725E"/>
<path d="M28.1833 187.319C27.6988 187.395 27.2078 187.422 26.7178 187.4C25.816 187.4 24.5625 187.4 23.1827 187.337L19.6521 187.188C19.1627 187.189 18.6741 187.15 18.1912 187.071C18.6754 186.993 19.1666 186.966 19.6566 186.99C20.5584 186.99 21.812 186.99 23.1917 187.058L26.7224 187.206C27.2117 187.2 27.7007 187.238 28.1833 187.319Z" fill="#263238"/>
<path d="M23.9223 183.007C23.9989 183.007 23.9944 183.957 23.9223 185.123C23.8501 186.288 23.7194 187.224 23.6427 187.22C23.566 187.215 23.566 186.266 23.6427 185.105C23.7194 183.943 23.8456 182.998 23.9223 183.007Z" fill="#263238"/>
<g opacity="0.6">
<path d="M17.9207 188.269H27.9759L28.0751 187.319L18.101 187.071L17.9207 188.156" fill="white"/>
</g>
<path d="M54.1555 169.564L56.2793 185.519L64.0124 184.983L62.3891 170.351L54.1555 169.564Z" fill="#AA6550"/>
<path d="M64.0936 183.25C64.0936 183.25 72.7871 186.18 72.9314 187.751L56.3109 188.246L56.1621 183.912L56.7753 184.033C59.2378 184.521 61.7906 184.248 64.0936 183.25Z" fill="#FF725E"/>
<g opacity="0.6">
<path d="M58.1146 184.668C57.9548 184.72 57.8202 184.829 57.7368 184.975C57.6535 185.121 57.6274 185.292 57.6637 185.456C57.7101 185.616 57.8166 185.752 57.961 185.836C58.1055 185.92 58.2768 185.945 58.4392 185.906C58.6036 185.846 58.7405 185.729 58.8236 185.575C58.9068 185.422 58.9304 185.243 58.8901 185.073C58.8238 184.911 58.6969 184.781 58.5362 184.71C58.3754 184.64 58.1935 184.634 58.0289 184.695" fill="white"/>
</g>
<g opacity="0.6">
<path d="M56.311 188.246V186.896L72.2462 186.936C72.2462 186.936 72.9947 187.238 72.927 187.76L56.311 188.246Z" fill="white"/>
</g>
<path d="M64.3597 183.178C64.3597 183.259 63.9583 183.304 63.566 183.579C63.1738 183.853 62.9709 184.195 62.8942 184.168C62.8175 184.141 62.9258 183.664 63.4082 183.345C63.8907 183.025 64.3777 183.084 64.3597 183.178Z" fill="#263238"/>
<path d="M66.1273 183.826C66.1273 183.903 65.7982 184.051 65.5322 184.402C65.2661 184.754 65.1985 185.118 65.1173 185.118C65.0362 185.118 64.973 184.668 65.3112 184.218C65.6494 183.768 66.1228 183.75 66.1273 183.826Z" fill="#263238"/>
<path d="M67.1778 185.879C67.1056 185.879 66.9794 185.496 67.1778 185.046C67.3762 184.596 67.7504 184.407 67.7865 184.474C67.8226 184.542 67.5926 184.785 67.4393 185.154C67.286 185.523 67.2589 185.879 67.1778 185.879Z" fill="#263238"/>
<path d="M64.1794 183.115C63.9089 183.2 63.6199 183.208 63.3452 183.138C63.0447 183.093 62.7509 183.011 62.4704 182.895C62.3021 182.828 62.1393 182.748 61.9834 182.656C61.889 182.606 61.8024 182.542 61.7264 182.467C61.6711 182.412 61.6361 182.34 61.6271 182.262C61.6181 182.184 61.6356 182.106 61.6768 182.04C61.716 181.982 61.7682 181.934 61.8292 181.899C61.8903 181.865 61.9585 181.845 62.0285 181.842C62.1335 181.836 62.2387 181.848 62.3397 181.878C62.5191 181.914 62.6943 181.968 62.8627 182.04C63.1456 182.158 63.4087 182.319 63.6428 182.517C64.0396 182.863 64.1794 183.165 64.1523 183.178C64.1253 183.192 63.9224 182.958 63.521 182.674C63.2874 182.512 63.0345 182.379 62.768 182.278C62.6111 182.221 62.4497 182.178 62.2855 182.148C62.1097 182.107 61.9564 182.107 61.9158 182.188C61.8752 182.269 61.9158 182.229 61.9158 182.283C61.9699 182.337 62.0323 182.383 62.1007 182.418C62.2467 182.505 62.3972 182.585 62.5516 182.656C62.8125 182.776 63.0842 182.871 63.3632 182.94C63.6385 182.982 63.9111 183.041 64.1794 183.115Z" fill="#263238"/>
<path d="M64.0756 183.237C63.914 183.003 63.8304 182.724 63.8366 182.44C63.8143 182.137 63.8433 181.833 63.9223 181.54C63.9686 181.363 64.0352 181.193 64.1207 181.031C64.1594 180.917 64.2278 180.815 64.3189 180.736C64.4101 180.657 64.5206 180.604 64.6393 180.581C64.7128 180.581 64.7849 180.602 64.8472 180.641C64.9095 180.68 64.9593 180.736 64.991 180.802C65.0363 180.898 65.0682 180.999 65.0857 181.104C65.1148 181.29 65.1148 181.48 65.0857 181.666C65.0477 181.978 64.9348 182.276 64.7565 182.535C64.4409 182.985 64.1072 183.079 64.0982 183.052C64.0892 183.025 64.3507 182.845 64.5852 182.427C64.7218 182.185 64.8034 181.916 64.8241 181.639C64.8374 181.478 64.8283 181.316 64.7971 181.158C64.7655 180.982 64.6934 180.842 64.6303 180.865C64.5671 180.887 64.4093 181 64.3462 181.144C64.2693 181.288 64.2045 181.439 64.1523 181.594C64.0683 181.865 64.0227 182.147 64.017 182.431C64.026 182.922 64.1207 183.223 64.0756 183.237Z" fill="#263238"/>
<path d="M27.4528 88.7808C27.4528 88.7808 21.2979 99.0153 21.2979 105.132L19.7874 179.663L29.4819 181.972L36.8768 109.133C36.8768 109.133 54.7869 182.161 55.3641 182.161C55.9413 182.161 64.7565 180.581 64.7565 180.581L51.3826 89.1138L27.4528 88.7808Z" fill="#263238"/>
<path d="M31.2494 107.117C31.2565 107.179 31.2565 107.243 31.2494 107.306C31.2494 107.441 31.2043 107.625 31.1728 107.855C31.0916 108.35 30.9789 109.056 30.8346 109.957C30.537 111.779 30.1221 114.417 29.6261 117.684C28.6432 124.201 27.4122 133.248 26.3796 143.289C25.347 153.33 24.7203 162.426 24.364 169.024C24.1837 172.323 24.0529 174.992 23.9763 176.837C23.9357 177.737 23.8996 178.462 23.8771 178.961C23.8771 179.195 23.85 179.375 23.8455 179.515C23.8444 179.578 23.8368 179.642 23.8229 179.704C23.8181 179.641 23.8181 179.578 23.8229 179.515C23.8229 179.375 23.8229 179.191 23.8229 178.961C23.8229 178.457 23.85 177.746 23.8725 176.832C23.9176 174.987 24.0168 172.332 24.1747 169.015C24.4858 162.412 25.0765 153.298 26.1136 143.262C27.1507 133.225 28.4042 124.183 29.4413 117.657C29.9598 114.394 30.4017 111.757 30.7354 109.939C30.8977 109.038 31.0285 108.336 31.1187 107.846C31.1637 107.616 31.1953 107.436 31.2224 107.301C31.227 107.239 31.2361 107.177 31.2494 107.117Z" fill="#455A64"/>
<path d="M46.5939 108.363C46.666 108.363 49.624 124.71 53.1997 144.895C56.7754 165.081 59.6161 181.464 59.544 181.477C59.4718 181.491 56.5139 165.135 52.9382 144.94C49.3625 124.746 46.5217 108.377 46.5939 108.363Z" fill="#455A64"/>
<path d="M36.534 109.007C36.534 109.007 36.4889 108.948 36.4303 108.822C36.3717 108.696 36.286 108.512 36.1823 108.269C35.903 107.582 35.6636 106.881 35.4653 106.167C34.8167 103.8 34.5817 101.34 34.7709 98.8937C34.8205 98.1736 34.9197 97.4805 35.0279 96.8144C35.1362 96.1483 35.321 95.5137 35.4789 94.9151C35.817 93.7224 36.1733 92.6648 36.4799 91.7646C36.7865 90.8645 37.048 90.1669 37.2374 89.6808L37.4629 89.1182C37.4873 89.0527 37.5174 88.9894 37.553 88.9292C37.5484 89.0005 37.5316 89.0705 37.5034 89.1362L37.3231 89.7123C37.1472 90.2434 36.9173 90.9545 36.6377 91.8141C36.3581 92.6738 36.0154 93.7674 35.6863 94.9646C35.5239 95.5587 35.3571 96.1888 35.2354 96.8414C35.1136 97.494 35.037 98.1916 34.9874 98.8982C34.8056 101.316 35.0142 103.747 35.6051 106.099C35.8351 106.999 36.0831 107.715 36.2499 108.21C36.3607 108.47 36.4555 108.736 36.534 109.007Z" fill="#455A64"/>
<path d="M39.2802 96.4904V96.63C39.2802 96.738 39.2802 96.8685 39.3028 97.026C39.3028 97.3906 39.3389 97.8857 39.3659 98.4978C39.411 99.7759 39.4741 101.554 39.5463 103.683L39.4831 103.593L43.2167 105.109H43.113L46.1431 103.268L46.3415 103.147L46.2829 103.237C46.5128 100.78 46.7338 98.4662 46.9141 96.4859L47.0133 96.5985L41.4311 96.5399L39.8394 96.5129H39.4155H39.2622C39.4402 96.4913 39.6195 96.4823 39.7988 96.4859L41.3634 96.4589L47.0088 96.4094H47.1216V96.5219C46.9457 98.5157 46.7428 100.829 46.5218 103.273V103.331L46.4722 103.363L46.2738 103.48L43.2347 105.316L43.1851 105.348L43.1355 105.325L39.411 103.782L39.3524 103.759V103.692C39.3208 101.536 39.2938 99.7354 39.2757 98.4392C39.2757 97.8361 39.2757 97.3501 39.2757 96.99C39.2645 96.8236 39.266 96.6566 39.2802 96.4904Z" fill="#455A64"/>
<path d="M25.2479 94.5146C25.2479 94.5146 25.2479 94.6992 25.1803 95.0187C25.1126 95.3383 25.0585 95.8153 24.9728 96.3689C24.779 97.5526 24.5219 99.1954 24.1973 101.162L24.1567 101.063L26.9749 103.147H26.8757L30.3026 102.197L30.4784 102.148L30.3973 102.229C31.0511 99.9785 31.6688 97.9037 32.2009 96.0944L32.2776 96.2249L27.2139 95.0187L25.771 94.6632C25.4373 94.5777 25.2524 94.5282 25.2479 94.5192C25.4134 94.5395 25.5775 94.5695 25.7394 94.6092L27.1688 94.9062L32.3227 96.0224L32.4264 96.0494L32.3993 96.1529L30.6092 102.292V102.355H30.5461L30.3702 102.404L26.9433 103.35H26.8892L26.8441 103.318L24.035 101.266L23.9854 101.225V101.167C24.3506 99.1819 24.6527 97.5211 24.8872 96.3284C24.9954 95.7748 25.0811 95.3293 25.1442 94.9782C25.1668 94.8213 25.2015 94.6663 25.2479 94.5146Z" fill="#455A64"/>
<path d="M44.8263 107.567C43.4724 107.98 42.0965 108.318 40.705 108.579C39.3285 108.916 37.9346 109.177 36.5295 109.362C37.8849 108.949 39.2623 108.61 40.6554 108.35C42.0303 108.013 43.4227 107.751 44.8263 107.567Z" fill="#455A64"/>
<path d="M32.7735 107.886C32.4234 107.933 32.0686 107.933 31.7184 107.886C30.8682 107.818 30.0242 107.687 29.1933 107.495C28.3625 107.307 27.547 107.058 26.7539 106.748C26.4168 106.644 26.0964 106.492 25.8025 106.297C26.1454 106.372 26.4817 106.475 26.808 106.604C27.4258 106.802 28.2825 107.054 29.2474 107.274C30.2124 107.495 31.0917 107.643 31.7365 107.724C32.0863 107.748 32.4333 107.802 32.7735 107.886Z" fill="#455A64"/>
<path d="M31.7004 30.2402C32.034 31.2034 30.8887 32.0405 29.8967 32.252C28.9047 32.4636 27.6963 32.6211 27.2409 33.5347C26.8441 34.3269 27.2409 35.335 26.8847 36.1406C26.1993 37.6754 23.4307 37.3558 22.8896 38.9491C22.4928 40.0562 23.5389 41.1679 23.3946 42.3066C23.2819 43.2922 22.3756 43.9673 21.591 44.5569C20.8064 45.1465 19.9587 45.9792 20.0804 46.9693C20.2247 48.108 21.6225 48.8956 21.4918 50.0388C21.361 51.182 19.8505 51.686 19.6295 52.7977C19.3725 54.1119 21.0228 54.958 21.5549 56.1912C21.9607 57.1319 21.7082 58.3471 22.3936 59.1122C23.079 59.8773 24.3415 59.7378 25.3696 59.5217L35.6368 57.3479C34.9424 55.7322 35.5917 53.8329 36.5837 52.3746C37.5757 50.9164 38.8879 49.6742 39.7401 48.144C40.5923 46.6138 40.8673 44.5434 39.7401 43.1662" fill="#263238"/>
<path d="M49.7502 38.4315C49.679 37.8836 49.566 37.342 49.412 36.8113C49.3323 36.5602 49.1913 36.3329 49.0017 36.1497C48.7988 35.9561 48.5508 36.0777 48.3704 36.3522C48.0689 37.0033 47.9128 37.712 47.9128 38.4293C47.9128 39.1465 48.0689 39.8552 48.3704 40.5063C48.5373 40.7854 48.8213 40.9069 49.0017 40.7134C49.1905 40.5278 49.3313 40.2992 49.412 40.0473C49.5657 39.518 49.6788 38.9779 49.7502 38.4315C49.7889 38.5782 49.8011 38.7306 49.7863 38.8816C49.7789 39.2981 49.7137 39.7116 49.5924 40.1103C49.5098 40.4021 49.3547 40.6684 49.1415 40.8844C49.0704 40.9527 48.9822 41.0004 48.8861 41.0226C48.7901 41.0448 48.6898 41.0406 48.5959 41.0104C48.4095 40.9418 48.2509 40.8136 48.145 40.6459C47.8069 39.9565 47.6311 39.1991 47.6311 38.4315C47.6311 37.664 47.8069 36.9066 48.145 36.2172C48.2509 36.0494 48.4095 35.9212 48.5959 35.8526C48.6898 35.8225 48.7901 35.8182 48.8861 35.8404C48.9822 35.8626 49.0704 35.9104 49.1415 35.9786C49.3547 36.1947 49.5098 36.4609 49.5924 36.7528C49.7133 37.15 49.7785 37.5619 49.7863 37.977C49.8009 38.1294 49.7887 38.2833 49.7502 38.4315Z" fill="#263238"/>
<path d="M33.0034 47.8649C31.1456 44.7144 30.6135 40.5603 30.1446 36.9552C29.9236 35.2539 29.5359 32.8371 30.7308 31.7749C32.0159 30.6362 32.1376 28.881 33.6121 28.0033C35.0866 27.1257 37.0841 27.0537 38.4729 28.0573" fill="#263238"/>
<path d="M38.1484 58.9592C38.8223 59.0112 39.4998 58.927 40.1404 58.7116C40.7809 58.4963 41.3714 58.1543 41.8765 57.706C42.3816 57.2577 42.791 56.7124 43.0801 56.1026C43.3693 55.4928 43.5323 54.831 43.5593 54.1569C43.6766 51.4205 43.7758 48.6571 43.7758 48.6571C43.7758 48.6571 47.9287 48.279 48.2443 44.1564C48.5599 40.0338 48.4472 30.5823 48.4472 30.5823C46.172 29.4324 43.6306 28.9096 41.0853 29.0678C38.54 29.2261 36.0831 30.0596 33.9685 31.4824L34.1804 45.9207L34.1579 53.6889C34.2165 56.3038 35.5692 58.7521 38.1484 58.9592Z" fill="#CE9D8E"/>
<path d="M44.177 39.1561C43.4736 38.2785 42.3192 37.9274 41.3723 38.5395C40.9059 38.8601 40.5687 39.3357 40.4209 39.8814C40.2731 40.4271 40.3242 41.0074 40.5652 41.519C40.7776 41.8983 41.0663 42.2296 41.4132 42.4922C41.76 42.7547 42.1576 42.9429 42.5808 43.0447C42.959 43.1287 43.2933 43.3483 43.5202 43.6618C43.7471 43.9754 43.8508 44.3611 43.8117 44.746C43.69 45.7721 41.972 46.1547 41.192 46.9963C39.9835 48.3195 37.3412 48.8731 35.5601 49.0756C33.779 49.2781 34.018 49.2962 33.0035 47.8559C32.3221 46.8814 31.9742 45.7132 32.0115 44.5254C31.9603 41.4979 31.9077 38.472 31.8536 35.4475C31.7854 34.3581 31.8582 33.2644 32.0701 32.1935C32.2804 31.1068 32.898 30.141 33.7971 29.4931C34.7981 28.836 36.0516 28.7865 37.2059 28.4219C38.6308 27.9719 39.8437 27.0267 41.1739 26.3516C42.5041 25.6765 44.1454 25.2715 45.4801 25.9466C46.436 26.4326 47.0763 27.3868 48.0097 27.9224C49.3354 28.6785 51.1661 28.512 51.7838 30.4653C52.0003 31.1461 51.9908 31.8785 51.7568 32.5536C50.8549 35.2045 47.5498 36.2621 45.1825 35.11C45.1374 35.56 45.5748 36.5592 45.0968 37.9814C44.9435 38.4315 44.8894 39.1246 44.195 39.1336" fill="#263238"/>
<path d="M43.433 41.717C43.433 41.717 43.433 41.7935 43.3789 41.8925C43.3244 41.9606 43.256 42.0163 43.1782 42.0559C43.1005 42.0955 43.0152 42.118 42.928 42.1221C42.6393 42.1048 42.3683 41.9774 42.1711 41.7663C41.9739 41.5552 41.8655 41.2765 41.8683 40.9879C41.8578 40.8303 41.8792 40.6722 41.9311 40.523C41.983 40.3737 42.0644 40.2365 42.1704 40.1192C42.3419 39.9326 42.5672 39.8037 42.8152 39.7502C43.2391 39.6647 43.4826 39.8222 43.4645 39.8447C43.4465 39.8672 43.212 39.8447 42.8738 39.9482C42.66 40.0148 42.4737 40.1494 42.3435 40.3314C42.2133 40.5133 42.1462 40.7328 42.1524 40.9564C42.152 41.1773 42.2281 41.3916 42.3678 41.563C42.5074 41.7344 42.7021 41.8524 42.9189 41.897C43.2661 41.9375 43.4059 41.69 43.433 41.717Z" fill="#995037"/>
<path d="M49.7593 38.256C48.8586 38.539 47.9331 38.7364 46.9952 38.8456C46.0706 39.0385 45.1303 39.147 44.186 39.1696C44.186 39.0931 45.4125 38.8321 46.9501 38.58C47.8743 38.3847 48.8148 38.2762 49.7593 38.256Z" fill="#263238"/>
<path d="M33.3146 51.8705C33.4471 52.1187 33.6632 52.3122 33.9247 52.4168C34.1863 52.5214 34.4764 52.5303 34.744 52.4421C35.2739 52.2478 35.7477 51.9263 36.1238 51.506C36.4951 51.0882 36.958 50.7617 37.4765 50.5518C38.5722 50.2188 39.9159 50.9479 40.8358 50.2683C41.6744 49.6517 41.5662 48.252 42.3914 47.6129C42.8423 47.2753 43.4375 47.2303 43.8839 46.9018C44.7181 46.2897 44.5783 44.917 43.8839 44.1518C43.1895 43.3867 42.1299 43.0807 41.1334 42.8016L32.3 46.5597L33.3146 51.8705Z" fill="#263238"/>
<path d="M43.8254 35.9381C43.8254 35.9381 43.8028 35.9606 43.7532 35.9921C43.6784 36.0413 43.6 36.0849 43.5188 36.1226C43.2106 36.2725 42.8871 36.3887 42.5538 36.4692C42.0258 36.5941 41.4893 36.6799 40.9486 36.7257C40.2396 36.7756 39.5347 36.8719 38.8383 37.0138C38.0033 37.1687 37.24 37.5867 36.6604 38.2065C36.0652 38.8951 35.8398 39.8852 35.3799 40.8484C35.1484 41.3565 34.7953 41.8001 34.3518 42.1401C33.8828 42.472 33.3637 42.7273 32.8142 42.8962C31.7275 43.2562 30.5326 43.4768 29.6308 44.2464C29.1854 44.6056 28.8936 45.1205 28.8146 45.6866C28.7649 46.2571 28.7649 46.8309 28.8146 47.4014C28.8638 47.9835 28.7498 48.5679 28.4855 49.0891C28.1987 49.5727 27.7857 49.9694 27.2906 50.2368C26.3887 50.7814 25.4012 51.0694 24.6302 51.56C24.2544 51.782 23.9301 52.0812 23.6788 52.4376C23.4634 52.7737 23.3391 53.1599 23.318 53.5583C23.3171 54.2626 23.4127 54.9637 23.6021 55.6421C23.7334 56.1716 23.7836 56.7179 23.7509 57.2624C23.7307 57.6091 23.6304 57.9465 23.4578 58.248C23.3971 58.3532 23.3211 58.4487 23.2324 58.5316C23.4868 58.1539 23.6305 57.7127 23.6472 57.2579C23.6616 56.7249 23.5978 56.1927 23.4578 55.6782C23.249 54.9874 23.1382 54.2708 23.1287 53.5493C23.1444 53.1157 23.2734 52.6937 23.5029 52.3251C23.7665 51.9407 24.1094 51.617 24.5084 51.3755C25.3111 50.8534 26.285 50.5564 27.1643 50.0253C27.6388 49.7844 28.0269 49.4029 28.2756 48.9332C28.5242 48.4634 28.6212 47.9283 28.5531 47.4014C28.5012 46.8159 28.5012 46.2271 28.5531 45.6416C28.6418 45.0136 28.9637 44.4417 29.4549 44.0394C30.4379 43.2157 31.6734 43.0042 32.7285 42.6486C33.2528 42.4898 33.7488 42.2499 34.1985 41.9375C34.6121 41.6212 34.9418 41.2086 35.1589 40.7358C35.6098 39.8357 35.8443 38.8006 36.4891 38.0624C37.1041 37.4129 37.9147 36.9815 38.7978 36.8337C39.5032 36.6979 40.2174 36.6121 40.9351 36.5772C41.4711 36.543 42.0043 36.4739 42.5313 36.3702C42.9759 36.2692 43.4094 36.1245 43.8254 35.9381Z" fill="#455A64"/>
<path d="M41.431 37.4098C41.431 37.4368 41.1109 37.4098 40.5698 37.5314C39.806 37.7164 39.116 38.1274 38.5903 38.7105C38.2274 39.1066 37.9578 39.5787 37.8012 40.0922C37.6525 40.6938 37.5977 41.3148 37.6389 41.933C37.6958 42.6492 37.591 43.369 37.3323 44.0394C37.1603 44.3931 36.8934 44.6922 36.5612 44.9035C36.2417 45.1073 35.9105 45.2921 35.5692 45.4571C35.2385 45.603 34.941 45.8142 34.6944 46.0782C34.4785 46.347 34.3566 46.6789 34.3472 47.0233C34.2976 47.7074 34.4464 48.468 34.1128 49.1251C33.7917 49.6961 33.3148 50.1644 32.7375 50.4753C32.2189 50.7814 31.7139 51.0109 31.2901 51.2675C30.8995 51.4802 30.5535 51.766 30.271 52.1091C30.0553 52.3718 29.9013 52.6794 29.8201 53.0092C29.7594 53.2895 29.7594 53.5796 29.8201 53.8599C29.774 53.7973 29.7431 53.7249 29.7299 53.6483C29.6741 53.4337 29.6649 53.2097 29.7029 52.9912C29.7679 52.6441 29.9113 52.3162 30.1222 52.0326C30.4094 51.6696 30.7628 51.3642 31.1638 51.1324C31.6147 50.8579 32.0972 50.6194 32.5932 50.3133C33.1282 50.0155 33.5676 49.5723 33.8603 49.0351C34.1533 48.468 34.0181 47.7659 34.0586 47.0233C34.0693 46.6235 34.2102 46.238 34.46 45.9251C34.7306 45.6317 35.0591 45.3972 35.4249 45.2365C36.1148 44.899 36.8137 44.5929 37.0978 43.9493C37.3404 43.3157 37.4405 42.6366 37.3909 41.96C37.359 41.3176 37.4259 40.674 37.5893 40.0517C37.7609 39.5117 38.0557 39.0187 38.4505 38.6115C39.0102 38.0155 39.7438 37.6107 40.5472 37.4548C40.7627 37.4147 40.9821 37.3996 41.2011 37.4098C41.2773 37.3982 41.3548 37.3982 41.431 37.4098Z" fill="#455A64"/>
<path d="M44.7993 52.4871L43.7307 50.2953L34.4464 49.9442L32.99 52.7932H44.6505" fill="#FF725E"/>
<path d="M76.7145 72.3127C76.6468 71.9796 79.1674 58.8916 79.8708 55.3001C79.8914 55.1903 79.8874 55.0774 79.8593 54.9693C79.8312 54.8612 79.7796 54.7607 79.7081 54.6748C79.6367 54.5888 79.5472 54.5197 79.4459 54.4722C79.3447 54.4247 79.2342 54.4 79.1223 54.3999H60.5268C60.3547 54.3985 60.1872 54.4557 60.0519 54.5621C59.9167 54.6685 59.8218 54.8176 59.7828 54.985L55.9772 71.003L46.5938 71.7006L46.9229 72.3172L76.7145 72.3127Z" fill="#455A64"/>
<path d="M75.8986 71.1516L78.9061 55.2866L60.6308 55.3946L56.6177 71.1741L75.8986 71.1516Z" fill="#EBEBEB"/>
<path d="M56.604 71.1831L60.6171 55.3991L78.906 55.2866L75.8939 71.1606L56.604 71.1831ZM60.6396 55.4306L56.6311 71.1831L75.8894 71.1606L78.8924 55.3181L60.6396 55.4306Z" fill="#263238"/>
<path d="M75.8805 71.2596C75.8805 71.3226 70.5327 71.3766 63.9404 71.3766C57.3481 71.3766 51.9958 71.3226 51.9958 71.2596C51.9958 71.1966 57.3391 71.1426 63.9404 71.1426C70.5417 71.1426 75.8805 71.1966 75.8805 71.2596Z" fill="#263238"/>
<path d="M74.6178 67.2539C74.5402 67.2663 74.461 67.2663 74.3834 67.2539L73.698 67.2764L71.1774 67.3124C69.0491 67.3124 66.1137 67.3484 62.8671 67.3484H60.0535L60.0895 67.2089C60.7388 64.711 61.3025 62.5282 61.7173 60.908C61.9202 60.1518 62.0871 59.5577 62.2133 59.0717C62.266 58.8493 62.3353 58.6311 62.4207 58.4191C62.3955 58.6473 62.3518 58.873 62.29 59.0942C62.1818 59.5442 62.0375 60.1788 61.8391 60.944C61.4468 62.5462 60.9102 64.7335 60.2924 67.2449L60.1842 67.1054H62.8491C66.0956 67.1054 69.0311 67.1054 71.1594 67.1414L73.6799 67.1774H74.3653C74.4534 67.1877 74.5389 67.2136 74.6178 67.2539Z" fill="#455A64"/>
<path d="M61.3838 66.6508L61.722 65.1206H64.0757L63.7736 66.6508H61.3838Z" fill="#FF725E"/>
<path d="M64.5806 66.6509L65.2885 63.6399H67.6422L66.9749 66.6509H64.5806Z" fill="#FF725E"/>
<path d="M67.7776 66.6508L68.1203 65.1206H70.474L70.1719 66.6508H67.7776Z" fill="#FF725E"/>
<path d="M70.9746 66.6508L72.3228 60.7999H74.6766L73.3689 66.6508H70.9746Z" fill="#FF725E"/>
<path d="M63.2279 68.3611C62.9241 68.473 62.5977 68.5101 62.2765 68.4691C61.7534 68.4691 61.3296 68.4106 61.3296 68.3431C61.9527 68.1871 62.6048 68.1871 63.2279 68.3431V68.3611Z" fill="#455A64"/>
<path d="M66.3256 68.3566C66.0228 68.4663 65.6984 68.5033 65.3787 68.4646C65.056 68.4971 64.7302 68.454 64.4272 68.3386C64.7314 68.228 65.0574 68.191 65.3787 68.2306C65.6999 68.1959 66.0247 68.2391 66.3256 68.3566Z" fill="#455A64"/>
<path d="M69.4279 68.352C69.1235 68.4615 68.7977 68.4984 68.4765 68.4601C68.1553 68.4928 67.8309 68.4497 67.5295 68.334C67.8335 68.223 68.1597 68.1859 68.481 68.226C68.8022 68.1913 69.127 68.2346 69.4279 68.352Z" fill="#455A64"/>
<path d="M72.5437 68.3476C71.9191 68.5037 71.2655 68.5037 70.6409 68.3476C71.2655 68.1916 71.9191 68.1916 72.5437 68.3476Z" fill="#455A64"/>
<path d="M67.967 57.7709C67.0958 57.8866 66.2162 57.9257 65.3381 57.8879C64.4586 57.9258 63.5775 57.8867 62.7048 57.7709C63.5775 57.6551 64.4586 57.616 65.3381 57.6539C66.2162 57.6161 67.0958 57.6552 67.967 57.7709Z" fill="#455A64"/>
<path d="M65.2029 57.1184C64.4328 57.2804 63.6373 57.2804 62.8672 57.1184C63.6379 56.962 64.4322 56.962 65.2029 57.1184Z" fill="#455A64"/>
<path d="M60.1616 81.9577L70.9203 74.185L70.519 73.5369C69.9308 72.5814 69.0479 71.8423 68.0029 71.4305L66.321 71.7321L56.3469 73.2488L60.1616 81.9577Z" fill="#FF725E"/>
<path d="M21.9112 80.171L30.8527 76.6244L28.8552 69.2388L21.573 71.7097L21.9112 80.171Z" fill="#FF725E"/>
<path d="M59.7875 82.1647C62.015 81.0621 62.5876 78.4112 61.5009 76.1788L52.2528 56.4208C52.0398 55.9325 51.7211 55.4975 51.3194 55.1471C50.2805 54.2234 49.0674 53.516 47.7512 53.0662C46.4349 52.6164 45.042 52.4333 43.6539 52.5277L33.9955 52.2756C33.9955 52.2756 26.4067 52.2756 23.5614 58.2436C23.354 58.6936 18.9441 67.4115 16.0357 73.1634C15.7185 73.7899 15.5377 74.4763 15.5053 75.1776C15.4729 75.8788 15.5896 76.579 15.8477 77.232C16.1058 77.885 16.4995 78.4761 17.0029 78.9663C17.5062 79.4566 18.1079 79.8349 18.7683 80.0764C19.9524 80.5172 21.2604 80.4901 22.4253 80.0008C23.5901 79.5115 24.5239 78.5968 25.0359 77.4435L28.1923 70.4134L30.1582 80.4815L27.295 88.7808L51.2427 89.1093L49.403 78.0061L48.8214 70.0939L53.6957 80.1124C53.9548 80.6518 54.3191 81.1342 54.7671 81.5314C55.2152 81.9287 55.7381 82.2328 56.3053 82.426C56.8725 82.6191 57.4726 82.6975 58.0705 82.6565C58.6684 82.6156 59.2521 82.456 59.7875 82.1872V82.1647Z" fill="#FFA033"/>
<g opacity="0.2">
<path d="M30.9833 80.2879C32.787 81.6381 35.4699 81.188 37.7019 80.8235C39.9668 80.4958 42.0429 79.38 43.5637 77.673C44.2717 76.9295 44.6615 75.9398 44.6504 74.9141C44.5602 73.9014 43.6629 72.9248 42.6529 73.0463C41.4985 73.1858 40.9394 74.482 40.3983 75.5037C39.4823 77.106 38.0926 78.3868 36.4194 79.1706C34.7462 79.9545 32.8712 80.2033 31.051 79.8828C31.051 79.8828 30.6632 80.0494 30.9833 80.2879Z" fill="black"/>
</g>
<g opacity="0.2">
<path d="M45.7732 64.7335C46.3368 69.2792 46.0843 68.9372 47.0357 73.4199C47.4866 75.6207 48.0683 77.9206 49.5924 79.5858L48.8394 70.0938L45.7732 64.7335Z" fill="black"/>
</g>
<path d="M27.3131 88.7807L26.6277 86.7869L28.4133 85.5987L50.3816 83.7894L51.9282 86.6969L51.2609 89.1092L27.3131 88.7807Z" fill="#FF725E"/>
<path d="M31.8492 51.1595C31.3906 51.3374 30.9781 51.6161 30.6424 51.975C30.3066 52.3339 30.0562 52.7637 29.9098 53.2324C29.7633 53.7012 29.7246 54.1969 29.7965 54.6827C29.8684 55.1684 30.0491 55.6318 30.3251 56.0382C30.5548 56.2878 30.7013 56.6023 30.7444 56.9384C30.6994 57.7485 29.3917 57.771 28.9769 58.4686C28.8679 58.7174 28.8433 58.9949 28.9068 59.2589C28.9703 59.5229 29.1184 59.759 29.3286 59.9313C29.7529 60.2694 30.2054 60.5706 30.6813 60.8315C30.9173 60.9666 31.1164 61.1575 31.2611 61.3874C31.4058 61.6174 31.4916 61.8793 31.511 62.1502C31.9619 62.1502 32.2415 61.5831 32.1738 61.133C32.0498 60.6915 31.8598 60.2712 31.6102 59.8863C31.4868 59.6938 31.4164 59.4722 31.4061 59.2438C31.3958 59.0155 31.446 58.7885 31.5516 58.5856C31.8492 58.1581 32.4534 58.1356 32.9494 57.951C33.4135 57.7495 33.7807 57.3757 33.9735 56.9086C34.1662 56.4415 34.1692 55.9179 33.982 55.4486C33.6844 54.7915 32.999 54.1254 33.3327 53.4863C33.5175 53.1308 33.9459 52.9958 34.2976 52.7977C34.6623 52.5975 34.9713 52.3099 35.197 51.9608C35.4227 51.6117 35.558 51.2122 35.5906 50.798C35.6232 50.3839 35.5522 49.9681 35.384 49.5881C35.2158 49.2081 34.9556 48.8758 34.6268 48.6211" fill="#263238"/>
<path d="M28.1292 71.3766C28.0064 71.7661 27.8432 72.1417 27.6422 72.4973C27.3085 73.1769 26.8215 74.0995 26.2353 75.0942C25.6492 76.0888 25.0675 76.9529 24.6301 77.574C24.4142 77.9197 24.1634 78.2425 23.8816 78.5372C24.0531 78.1666 24.2584 77.8126 24.4948 77.4795C24.8916 76.8404 25.4462 75.9583 26.0324 74.9726C26.6186 73.987 27.1236 73.0779 27.4934 72.4208C27.6724 72.0538 27.8852 71.7042 28.1292 71.3766Z" fill="#263238"/>
<path d="M26.0233 75.1616C26.0933 75.7173 26.0408 76.2816 25.8695 76.8149C25.6981 77.3482 25.4121 77.8377 25.0313 78.2491C24.9727 78.2086 25.3785 77.592 25.6446 76.7414C25.9106 75.8907 25.9512 75.1616 26.0233 75.1616Z" fill="#263238"/>
<path d="M61.1085 75.4677C61.0499 75.4947 59.1741 71.5791 56.9241 66.7273C54.6741 61.8756 52.893 57.915 52.9516 57.888C53.0102 57.861 54.886 61.7721 57.136 66.6283C59.3861 71.4845 61.1672 75.4407 61.1085 75.4677Z" fill="#263238"/>
<path d="M49.7005 55.2866C49.7005 55.3226 49.2947 55.4712 48.6995 55.8402C47.9214 56.3193 47.2581 56.963 46.7563 57.7259C46.2546 58.4888 45.9267 59.3522 45.7957 60.2554C45.6919 60.9485 45.7235 61.3896 45.6829 61.3941C45.5868 61.0146 45.5684 60.6196 45.6288 60.2329C45.7188 59.2913 46.0378 58.3859 46.558 57.5953C47.0782 56.8047 47.7839 56.1528 48.6138 55.6962C48.9443 55.4872 49.3141 55.3478 49.7005 55.2866Z" fill="#263238"/>
<path d="M30.1583 80.5624C30.0952 80.5624 29.0175 75.9987 27.7504 70.3324C26.4834 64.666 25.4959 60.0663 25.5725 60.0528C25.6492 60.0393 26.7133 64.6165 27.9804 70.2828C29.2474 75.9492 30.2124 80.5624 30.1583 80.5624Z" fill="#263238"/>
<path d="M70.9204 74.185L75.2852 72.3082H69.4685L70.7401 73.9555" fill="#AA6550"/>
<path d="M61.9473 74.6711C61.5629 74.3744 61.208 74.0413 60.8877 73.6764C60.5148 73.366 60.1707 73.0225 59.8596 72.6503C60.3174 72.8415 60.7248 73.1357 61.05 73.5099C61.4316 73.8258 61.7381 74.2224 61.9473 74.6711Z" fill="#263238"/>
<path d="M53.8986 80.4589C53.7564 80.2685 53.6326 80.065 53.5288 79.8513C53.3034 79.4552 52.9922 78.8747 52.627 78.1545C51.8695 76.7098 50.8594 74.698 49.7592 72.4747C48.659 70.2513 47.6444 68.2395 46.8914 66.7948C46.5352 66.1017 46.2331 65.5256 45.9896 65.0845C45.8722 64.8798 45.7712 64.6661 45.6875 64.4454C45.8324 64.6319 45.9606 64.8307 46.0708 65.0395C46.3052 65.4311 46.6344 66.0027 47.0267 66.7183C47.8158 68.145 48.8529 70.1433 49.9531 72.3712C51.0533 74.599 52.0273 76.5793 52.7623 78.078L53.61 79.8108C53.7241 80.0184 53.8207 80.2352 53.8986 80.4589Z" fill="#263238"/>
<path d="M45.2636 74.3425C45.2636 74.3425 45.2636 74.401 45.2636 74.5001C45.2466 74.6514 45.2211 74.8017 45.187 74.9501C45.0618 75.4963 44.8599 76.0221 44.5873 76.5119C43.6492 78.1095 42.2287 79.3699 40.5291 80.1124C38.848 80.8213 37.0666 81.2647 35.2489 81.4266C34.5591 81.5031 33.9954 81.5481 33.6076 81.5751C33.4069 81.5988 33.2041 81.5988 33.0034 81.5751C33.1986 81.5243 33.3977 81.4897 33.5986 81.4716L35.2264 81.2466C37.0162 81.0446 38.7682 80.59 40.4299 79.8964C42.0781 79.1716 43.4711 77.9709 44.4295 76.4489C44.8004 75.787 45.0809 75.0786 45.2636 74.3425Z" fill="#263238"/>
<path d="M40.448 85.9633C40.448 86.0263 37.481 86.2874 33.8106 86.5439C30.1402 86.8004 27.1642 86.958 27.1597 86.8905C27.1552 86.8229 30.1267 86.5664 33.7971 86.3099C37.4675 86.0533 40.4435 85.8733 40.448 85.9633Z" fill="#263238"/>
<path d="M44.2762 84.1631C44.7585 85.6238 44.9215 87.1708 44.7541 88.6998C44.6865 88.6998 44.6595 87.6781 44.5242 86.4494C44.3889 85.2207 44.2131 84.1631 44.2762 84.1631Z" fill="#263238"/>
<path d="M45.8184 82.7318C45.9295 83.0202 45.9964 83.3236 46.0168 83.632C46.2057 85.1187 46.1 86.6281 45.7057 88.0741C45.645 88.3792 45.5354 88.6725 45.381 88.9428C45.3089 88.9428 45.7327 87.5926 45.8319 85.8508C45.9311 84.109 45.7463 82.7408 45.8184 82.7318Z" fill="#263238"/>
<path d="M44.8262 52.6582C43.227 52.6896 41.6272 52.64 40.0331 52.5097C37.3907 52.3611 35.2534 52.1856 35.2534 52.1226C35.2534 52.0596 37.4043 52.1226 40.0466 52.2756C42.6889 52.4287 44.8262 52.5817 44.8262 52.6582Z" fill="#263238"/>
</svg>
