<svg width="224" height="154" viewBox="0 0 224 154" fill="none" xmlns="http://www.w3.org/2000/svg">
<path d="M113.795 154C174.383 154 223.5 149.781 223.5 144.576C223.5 139.371 174.383 135.152 113.795 135.152C53.2063 135.152 4.0896 139.371 4.0896 144.576C4.0896 149.781 53.2063 154 113.795 154Z" fill="#DEDEDE"/>
<path d="M56.9504 86.9337L58.1211 93.8213L66.0515 135.838H67.331L61.5657 93.8213L60.711 86.9337H56.9504Z" fill="#DBDBDB"/>
<path d="M60.711 86.9337H56.9504L58.1211 93.8213H61.5657L60.711 86.9337Z" fill="#A6A6A6"/>
<path d="M32.0559 135.838H33.3353L41.2606 93.8213L42.4313 86.9337H38.6706L37.8211 93.8213L32.0559 135.838Z" fill="#DBDBDB"/>
<path d="M38.6705 86.9337L37.821 93.8213H41.2605L42.4312 86.9337H38.6705Z" fill="#A6A6A6"/>
<path d="M8.2749 135.838H9.55434L17.4796 93.8213L18.6503 86.9337H14.8948L14.0401 93.8213L8.2749 135.838Z" fill="#DBDBDB"/>
<path d="M14.04 93.8213H17.4795L18.6502 86.9337H14.8947L14.04 93.8213Z" fill="#A6A6A6"/>
<path d="M10.3003 90.1666H68.3981V84.1634H46.6477L39.3389 42.4312H12.5173L10.3003 90.1666Z" fill="#DBDBDB"/>
<path d="M10.3003 90.1666H13.4704L15.532 42.4312H12.5173L10.3003 90.1666Z" fill="#A6A6A6"/>
<path d="M70.5839 143.198C69.4288 143.341 37.8987 136.123 36.8731 135.147C36.7488 135.04 38.2406 129.098 38.2406 129.098C38.7586 126.653 46.9428 106.697 46.9428 106.697L67.5589 111.688L58.8255 130.186C58.8255 130.186 62.7519 132.793 66.1292 135.269C67.62 136.301 69.0454 137.421 70.3974 138.624C71.4127 139.823 71.7339 143.066 70.5839 143.198Z" fill="#EB9481"/>
<path d="M70.5787 143.199C69.4288 143.341 37.8987 136.123 36.8731 135.147C36.7488 135.04 38.2406 129.098 38.2406 129.098C38.4063 128.295 39.4009 125.596 40.67 122.332L60.395 126.846L58.8411 130.186C58.8411 130.186 62.7726 132.798 66.1499 135.269C67.6444 136.298 69.0716 137.419 70.4233 138.624C71.4127 139.828 71.7339 143.066 70.5787 143.199Z" fill="#EBEBEB"/>
<path d="M70.6721 143.285C69.4807 143.407 37.6916 136.418 36.6556 135.396C36.2568 135.02 39.0746 124.971 39.0902 124.91L59.4317 129.322L59.3488 129.662C59.3488 129.662 69.5687 137.353 70.5892 138.588C71.6096 139.823 71.8634 143.168 70.6721 143.285Z" fill="#455A64"/>
<path d="M70.5892 141.979C65.2591 140.672 43.6537 135.879 38.2769 134.994C38.2303 134.994 38.2251 135.02 38.2769 135.03C43.5293 136.438 65.2124 141.048 70.5788 142.065C70.6824 142.106 70.7031 142.029 70.5892 141.979Z" fill="#263238"/>
<path d="M60.9857 129.561C58.9655 128.712 56.3238 128.463 54.3658 129.561C54.2932 129.601 54.3658 129.708 54.4279 129.703C56.5886 129.506 58.7647 129.539 60.9183 129.799C60.9444 129.795 60.9686 129.783 60.9882 129.766C61.0077 129.748 61.0219 129.726 61.0289 129.701C61.0359 129.676 61.0356 129.649 61.028 129.625C61.0203 129.6 61.0057 129.578 60.9857 129.561Z" fill="#263238"/>
<path d="M62.2962 130.796C60.2761 129.947 57.6343 129.698 55.6763 130.796C55.6038 130.836 55.6763 130.943 55.7385 130.938C57.8992 130.742 60.0752 130.774 62.2289 131.035C62.2549 131.03 62.2791 131.019 62.2987 131.001C62.3183 130.984 62.3324 130.961 62.3394 130.936C62.3465 130.911 62.3462 130.885 62.3385 130.86C62.3309 130.835 62.3162 130.813 62.2962 130.796Z" fill="#263238"/>
<path d="M63.6119 132.031C61.5917 131.182 58.95 130.928 56.992 132.031C56.9195 132.077 56.992 132.178 57.0541 132.173C59.2152 131.981 61.3909 132.015 63.5446 132.275C63.5718 132.271 63.5973 132.26 63.6179 132.242C63.6386 132.224 63.6534 132.201 63.6606 132.175C63.6678 132.149 63.667 132.121 63.6583 132.096C63.6497 132.07 63.6335 132.048 63.6119 132.031Z" fill="#263238"/>
<path d="M64.7566 125.657C64.1817 124.361 62.5241 124.523 61.4778 125.052C59.7004 125.997 58.2071 127.383 57.1474 129.073C57.142 129.08 57.1386 129.088 57.1373 129.097C57.136 129.106 57.1369 129.115 57.14 129.124C57.143 129.132 57.1481 129.14 57.1548 129.146C57.1615 129.152 57.1696 129.157 57.1784 129.159C57.1525 129.317 57.2561 129.515 57.453 129.489C59.3385 129.24 61.3845 129.205 63.1509 128.391C64.161 127.924 65.2954 126.887 64.7566 125.657ZM60.2294 128.539C59.3074 128.681 58.3802 128.783 57.4633 128.961C58.2854 128.153 59.1499 127.388 60.0533 126.668C60.4952 126.326 60.9589 126.012 61.4415 125.728C62.1978 125.306 64.9535 124.666 64.0625 126.851C63.5756 128.056 61.3327 128.366 60.2294 128.539Z" fill="#263238"/>
<path d="M51.9105 127.355C53.4644 128.463 55.4898 128.879 57.2976 129.449C57.3387 129.458 57.3814 129.457 57.4222 129.447C57.4631 129.436 57.5009 129.417 57.5326 129.39C57.5643 129.363 57.5891 129.328 57.605 129.29C57.6208 129.252 57.6273 129.21 57.6239 129.169C57.6331 129.169 57.6421 129.167 57.6501 129.162C57.6581 129.158 57.665 129.152 57.67 129.144C57.6751 129.137 57.6783 129.128 57.6793 129.119C57.6803 129.11 57.679 129.101 57.6757 129.093C56.9482 127.242 55.737 125.612 54.1637 124.366C53.2365 123.654 51.6359 123.202 50.8279 124.366C50.0198 125.53 50.9936 126.729 51.9105 127.355ZM51.2992 125.672C50.8279 123.364 53.4178 124.488 54.0809 125.037C54.5105 125.404 54.9137 125.799 55.2878 126.221C56.0387 127.09 56.7441 127.996 57.4012 128.935C56.531 128.595 55.64 128.33 54.7542 128.025C53.6872 127.649 51.5582 126.943 51.2992 125.672Z" fill="#263238"/>
<path d="M60.4365 129.489L38.4426 124.66C38.4426 124.66 56.5723 83.3705 54.9769 81.2813C54.174 80.2342 33.8014 79.9292 27.3214 74.5411C18.904 67.5468 24.5501 56.852 24.5501 56.852L47.3003 56.1912C47.3003 56.1912 47.0257 60.8575 47.9167 61.5589C48.502 62.0266 75.6084 64.2631 78.5869 73.25C82.2232 84.2194 60.4365 129.489 60.4365 129.489Z" fill="#263238"/>
<path d="M61.0634 125.586C60.4833 125.347 54.8061 123.766 53.5318 123.451C50.973 122.805 48.4089 122.175 45.8345 121.58C44.4929 121.27 41.618 120.599 41.4471 120.614C41.4318 120.618 41.4183 120.627 41.4086 120.64C41.399 120.652 41.3938 120.667 41.3938 120.683C41.3938 120.699 41.399 120.714 41.4086 120.726C41.4183 120.738 41.4318 120.747 41.4471 120.752C43.9542 121.519 46.4923 122.19 49.0253 122.866C51.5583 123.542 60.2709 125.631 61.0272 125.718C61.0893 125.713 61.1463 125.621 61.0634 125.586Z" fill="#37474F"/>
<path d="M58.867 79.4564C58.3482 79.1438 57.7557 78.9687 57.1473 78.9481L47.3054 77.3266C44.2338 76.8183 41.1465 76.371 38.0852 75.8017C35.5522 75.3239 32.9778 74.6783 30.7867 73.3313C28.6194 71.9986 27.0182 69.9397 26.2802 67.5366C25.5859 65.1479 25.3886 62.6464 25.7001 60.1813C25.7622 59.5815 25.871 58.9817 25.985 58.3921C25.985 58.3827 25.9811 58.3736 25.9743 58.3669C25.9675 58.3603 25.9583 58.3565 25.9487 58.3565C25.9391 58.3565 25.9299 58.3603 25.9231 58.3669C25.9163 58.3736 25.9124 58.3827 25.9124 58.3921C25.0836 62.9669 25.0059 68.2686 28.5024 71.9131C30.2066 73.6922 32.5427 74.7343 34.9306 75.4103C37.6602 76.0911 40.4274 76.6172 43.2185 76.9861L53.0603 78.6025C54.6143 78.8566 56.246 79.06 57.8155 79.3802C58.1303 79.4225 58.4265 79.5511 58.6702 79.7513C58.7842 79.9125 58.8565 80.0986 58.8808 80.2934C58.9052 80.4883 58.8809 80.686 58.81 80.8695C58.6494 81.632 58.4422 82.3945 58.2195 83.1264C56.4273 89.1245 44.327 117.768 43.9696 118.429C43.9333 118.495 44.0473 118.551 44.0835 118.484C47.0983 113.218 55.8627 91.0967 57.8569 85.4189C58.3818 83.9748 58.8126 82.4995 59.1467 81.0017C59.2814 80.4426 59.3487 79.8326 58.867 79.4564Z" fill="#37474F"/>
<path d="M113.525 143.529C112.422 143.895 80.8661 143.458 79.6644 142.705C79.1982 142.268 78.8253 138.309 78.5404 133.383L73.1118 112.258L93.4119 112.095L99.3584 133.073C99.3584 133.073 103.741 134.862 107.553 136.631C109.225 137.35 110.851 138.168 112.422 139.081C113.65 140.062 114.629 143.173 113.525 143.529Z" fill="#EB9481"/>
<path d="M114.173 143.554C113.033 143.925 80.4569 143.768 79.2189 142.99C78.7475 142.705 78.4937 138.049 78.3486 132.422V132.244L99.3635 132.112V132.463C99.3635 132.463 111.795 137.988 113.075 138.985C114.354 139.981 115.312 143.188 114.173 143.554Z" fill="#455A64"/>
<path d="M113.821 142.314C108.33 142.156 86.1702 142.024 80.7261 142.278C80.6847 142.278 80.6847 142.309 80.7261 142.314C86.165 142.583 108.33 142.538 113.821 142.4C113.924 142.4 113.924 142.314 113.821 142.314Z" fill="#263238"/>
<path d="M101.705 132.183C99.5449 131.777 96.9031 132.092 95.2404 133.591C95.1782 133.647 95.2403 133.739 95.3336 133.713C97.4027 133.073 99.5348 132.649 101.695 132.448C101.73 132.449 101.765 132.436 101.791 132.413C101.817 132.389 101.833 132.356 101.834 132.321C101.836 132.286 101.823 132.251 101.799 132.226C101.774 132.2 101.741 132.185 101.705 132.183Z" fill="#263238"/>
<path d="M103.259 133.109C101.099 132.707 98.4572 133.017 96.7996 134.517C96.7323 134.578 96.7996 134.664 96.8877 134.644C98.9561 134.001 101.088 133.577 103.249 133.378C103.281 133.373 103.31 133.357 103.332 133.334C103.354 133.31 103.366 133.279 103.367 133.247C103.368 133.216 103.358 133.184 103.339 133.159C103.319 133.134 103.291 133.116 103.259 133.109Z" fill="#263238"/>
<path d="M104.813 134.039C102.653 133.632 100.011 133.947 98.3536 135.447C98.2862 135.508 98.3536 135.594 98.4416 135.574C100.51 134.929 102.642 134.505 104.803 134.308C104.835 134.303 104.864 134.288 104.886 134.264C104.907 134.24 104.92 134.21 104.921 134.178C104.922 134.146 104.912 134.114 104.893 134.089C104.873 134.064 104.845 134.046 104.813 134.039Z" fill="#263238"/>
<path d="M104.538 127.578C103.694 126.429 102.109 126.933 101.202 127.675C99.6723 128.969 98.5165 130.637 97.8511 132.509C97.8477 132.517 97.8465 132.526 97.8475 132.535C97.8485 132.544 97.8517 132.553 97.8567 132.56C97.8618 132.568 97.8687 132.574 97.8767 132.578C97.8847 132.582 97.8937 132.585 97.9029 132.585C97.9004 132.626 97.9081 132.668 97.9252 132.706C97.9424 132.743 97.9686 132.777 98.0016 132.803C98.0345 132.828 98.0734 132.846 98.1148 132.854C98.1562 132.862 98.199 132.861 98.2396 132.849C100.027 132.214 102.021 131.746 103.554 130.587C104.45 129.911 105.336 128.666 104.538 127.578ZM100.747 131.34C99.8764 131.675 98.9958 131.965 98.1567 132.331C98.8145 131.39 99.4258 130.425 100.177 129.55C100.532 129.123 100.916 128.721 101.327 128.346C101.974 127.771 104.523 126.567 104.134 128.884C103.896 130.165 101.788 130.938 100.747 131.34Z" fill="#263238"/>
<path d="M92.3604 131.929C94.1423 132.682 96.1884 132.656 98.0583 132.844C98.2552 132.844 98.3536 132.661 98.3225 132.504C98.329 132.498 98.3343 132.492 98.3379 132.484C98.3415 132.477 98.3433 132.469 98.3433 132.46C98.3433 132.452 98.3415 132.444 98.3379 132.437C98.3343 132.429 98.329 132.423 98.3225 132.417C97.2097 130.762 95.6712 129.424 93.8626 128.539C92.8007 128.031 91.138 127.929 90.6096 129.245C90.0813 130.562 91.3245 131.492 92.3604 131.929ZM91.397 130.404C90.4335 128.249 93.2099 128.803 93.9869 129.205C94.48 129.469 94.9541 129.767 95.4062 130.094C96.3541 130.765 97.1881 131.548 98.0635 132.305C97.1363 132.158 96.2091 132.087 95.2819 131.97C94.163 131.843 91.9253 131.604 91.397 130.415V130.404Z" fill="#263238"/>
<path d="M101.348 132.321H77.6598C77.6598 132.321 67.5176 92.8454 65.746 90.5936C63.3529 87.5996 29.8752 87.6657 22.6958 77.8858C16.2468 69.1073 21.6909 56.6791 21.6909 56.6791L47 55.937C46.429 58.6018 45.6426 61.2177 44.6483 63.7599C44.6483 63.7599 75.2097 69.2903 83.7773 78.4399C89.5374 84.6565 101.348 132.321 101.348 132.321Z" fill="#263238"/>
<path d="M49.0718 62.057C48.3355 62.2168 47.6159 62.4431 46.9221 62.7331C46.1969 63.0025 45.4769 63.3126 44.7776 63.648C43.4017 64.3177 42.0634 65.0592 40.7684 65.8693C40.7269 65.8948 40.7684 65.9507 40.8098 65.9304C42.1773 65.2289 43.5966 64.6037 45.0159 64.0039L47.0879 63.1397C47.7944 62.8764 48.4861 62.5761 49.1598 62.24C49.2427 62.1739 49.1961 62.0367 49.0718 62.057Z" fill="#37474F"/>
<path d="M47.5747 55.9217C47.2847 57.0553 47.0257 58.199 46.6993 59.3223C46.5439 59.8306 46.3937 60.3644 46.1813 60.8473C46.0156 61.2692 45.7566 61.752 45.2593 61.8639C44.6844 61.9706 44.5238 61.4877 44.5704 61.0252C44.617 60.5626 44.7569 59.9831 44.8605 59.4748C44.9796 58.8852 45.1039 58.2955 45.2127 57.7059C45.2645 57.4111 45.3215 57.1163 45.3733 56.8214C45.3733 56.7452 45.4458 56.181 45.4872 56.0183C45.4872 56.0183 45.4872 56.0437 45.5183 56.0437C45.5266 56.0437 45.5345 56.0405 45.5403 56.0348C45.5461 56.0291 45.5494 56.0213 45.5494 56.0132C45.5494 55.9675 45.5494 55.9624 45.5494 55.9268C45.5417 55.9218 45.5327 55.9191 45.5235 55.9191C45.5143 55.9191 45.5053 55.9218 45.4976 55.9268C45.3836 55.9827 45.3785 56.1301 45.3422 56.242C45.249 56.5266 45.1557 56.8164 45.0677 57.1061C44.9071 57.6449 44.7517 58.1888 44.6118 58.7327C44.472 59.2766 44.3373 59.8255 44.1974 60.3745C44.0539 60.779 44.0148 61.2121 44.0835 61.6351C44.1351 61.8362 44.2519 62.0154 44.4164 62.1456C44.5808 62.2758 44.784 62.35 44.9951 62.3569C44.9951 62.3976 44.9485 62.4332 44.933 62.4688C44.8812 62.5806 44.8449 62.7026 44.8035 62.8144C44.7621 62.9262 44.7206 63.0482 44.6844 63.1702C44.6689 63.2268 44.6585 63.2847 44.6533 63.343C44.6533 63.4091 44.6533 63.4752 44.6533 63.5413C44.6511 63.563 44.6564 63.5848 44.6683 63.6031C44.6803 63.6214 44.6983 63.6353 44.7193 63.6423C44.7403 63.6494 44.7631 63.6493 44.784 63.642C44.805 63.6347 44.8228 63.6207 44.8346 63.6023C44.8657 63.5464 44.9071 63.5006 44.9434 63.4447C44.9762 63.3844 45.004 63.3215 45.0262 63.2566C45.0625 63.1397 45.0987 63.0279 45.1246 62.911C45.1505 62.7941 45.192 62.6822 45.2127 62.5653C45.2181 62.496 45.2181 62.4263 45.2127 62.3569C45.455 62.3379 45.6868 62.2515 45.8809 62.1079C46.2066 61.8411 46.4475 61.4883 46.575 61.0912C46.746 60.6185 46.8806 60.1305 47.0205 59.6476C47.3714 58.4522 47.6174 57.2295 47.756 55.9929C47.7923 55.8353 47.6058 55.7896 47.5747 55.9217Z" fill="#37474F"/>
<path d="M98.8973 128.173C98.2662 128.101 97.6316 128.062 96.9963 128.056C96.3332 128.025 95.665 128 94.9968 127.98C93.6863 127.944 92.3706 127.919 91.0601 127.914C88.4183 127.914 85.7714 127.914 83.1297 127.944C81.7518 127.97 78.7941 128.005 78.6335 128.056C78.6156 128.056 78.5985 128.063 78.5859 128.075C78.5733 128.088 78.5662 128.105 78.5662 128.122C78.5662 128.14 78.5733 128.156 78.5859 128.169C78.5985 128.181 78.6156 128.188 78.6335 128.188C81.2545 128.325 83.8807 128.366 86.5121 128.417C89.1435 128.468 91.7594 128.503 94.3804 128.458C95.1108 128.458 95.836 128.422 96.5612 128.402C97.3289 128.408 98.0966 128.375 98.861 128.305C98.9543 128.295 98.9854 128.183 98.8973 128.173Z" fill="#37474F"/>
<path d="M68.4862 90.9189C68.2668 90.2056 67.9328 89.5312 67.4969 88.9212C66.969 88.4041 66.29 88.0612 65.5544 87.9402C59.2401 86.2424 52.7238 85.48 46.3007 84.2905C43.1334 83.7321 40.0041 82.9834 36.9302 82.0489C33.8088 81.1401 30.8261 79.8236 28.0622 78.1349C26.7117 77.2855 25.5932 76.1251 24.8041 74.7546C24.0659 73.4361 23.5416 72.0127 23.2501 70.5357C22.556 67.1675 22.556 63.697 23.2501 60.3288C23.4213 59.4892 23.6392 58.6594 23.9028 57.8432C23.9028 57.7923 23.8354 57.772 23.8199 57.8432C22.6316 61.0895 22.1447 64.543 22.3902 67.9839C22.6233 70.9779 23.3589 74.1243 25.3272 76.4931C26.3435 77.647 27.574 78.6009 28.9532 79.304C30.3961 80.0828 31.8874 80.7721 33.4183 81.3678C36.4062 82.5062 39.4827 83.4071 42.6178 84.0618C49.0253 85.4546 55.5675 86.156 61.9699 87.5539C62.7572 87.7267 63.5239 87.9097 64.3319 88.1079C65.1409 88.2359 65.9252 88.4845 66.6577 88.845C67.414 89.3075 67.6937 90.2327 67.9682 91.0053C68.2946 91.8593 78.5922 126.079 78.846 126.917C78.8558 126.945 78.876 126.967 78.9023 126.98C78.9286 126.993 78.9591 126.996 78.9872 126.987C79.0153 126.978 79.039 126.96 79.0532 126.934C79.0675 126.909 79.0712 126.879 79.0636 126.851C78.2089 123.339 69.1544 92.5963 68.4862 90.9189Z" fill="#37474F"/>
<path d="M66.6161 91.8288C66.3727 91.0815 66.1655 90.3038 65.4559 89.826C64.7462 89.3482 54.6091 88.0418 53.4695 87.869C53.4177 87.869 53.397 87.9402 53.4695 87.9503C54.4485 88.1079 63.8294 89.7548 64.6478 90.0293C65.0038 90.1289 65.3213 90.3307 65.5594 90.6088C65.8041 90.9914 65.9794 91.4128 66.0774 91.8542C66.3675 92.7437 66.6524 93.6333 66.9425 94.5228C67.5175 96.3121 68.0976 98.081 68.6467 99.8906C69.2683 101.924 69.9779 104.059 70.5166 106.117C70.5581 106.275 70.786 106.199 70.7549 106.046C70.0401 102.183 66.9166 92.759 66.6161 91.8288Z" fill="#37474F"/>
<path d="M44.7932 63.8208C49.4734 64.3725 54.0992 65.3025 58.6235 66.6013C63.1824 67.8551 67.642 69.4333 71.967 71.3235C74.3911 72.3909 76.7428 73.5855 79.0686 74.841C79.1152 74.8664 79.0686 74.9325 79.0272 74.9071C74.8291 72.7792 70.4927 70.9249 66.0463 69.3563C61.6348 67.7771 57.1197 66.4915 52.5319 65.5084C49.942 64.9594 47.352 64.5325 44.7621 64.1055C44.5704 64.0953 44.617 63.8005 44.7932 63.8208Z" fill="#37474F"/>
<path d="M43.9749 34.9285C46.3732 40.1692 55.7644 57.0502 61.5193 58.0465C65.2954 58.6971 80.3741 56.669 82.8346 53.0498C83.9068 51.4791 81.5552 40.8504 79.5557 41.3587C77.5563 41.867 65.4871 43.9002 63.9797 43.5444C62.4724 43.1886 50.7917 31.0146 46.482 28.041C39.0799 22.9223 42.68 32.1023 43.9749 34.9285Z" fill="#EB9481"/>
<path d="M74.9714 40.7894L75.9401 56.8164C75.9401 56.8164 64.0263 59.4291 58.8464 57.6856C52.5217 55.571 43.2082 36.4128 41.9288 33.2613C39.8568 28.0918 40.3748 24.9555 43.3429 25.7078C44.4877 25.9925 45.995 26.8719 47.8442 28.4578C49.7815 30.1098 60.8976 40.8402 64.4199 42.8633C66.321 43.9968 74.9714 40.7894 74.9714 40.7894Z" fill="#FFC727"/>
<path opacity="0.6" d="M74.9714 40.7894L75.9401 56.8164C75.9401 56.8164 64.0263 59.4291 58.8464 57.6856C52.5217 55.571 43.2082 36.4128 41.9288 33.2613C39.8568 28.0918 40.3748 24.9555 43.3429 25.7078C44.4877 25.9925 45.995 26.8719 47.8442 28.4578C49.7815 30.1098 60.8976 40.8402 64.4199 42.8633C66.321 43.9968 74.9714 40.7894 74.9714 40.7894Z" fill="#00722D"/>
<path d="M72.8528 56.2572C72.6353 53.8935 72.1121 44.1848 72.1432 42.0804C72.1432 41.9381 72.2416 41.9025 72.2571 42.055C73.0807 49.1205 72.8528 53.9139 72.9461 56.2419C72.9461 56.3029 72.858 56.3182 72.8528 56.2572Z" fill="#263238"/>
<path opacity="0.6" d="M70.8637 57.7008C66.9788 58.2549 61.7885 58.6869 58.7997 57.7008C52.4802 55.5862 43.1667 36.428 41.8873 33.2765C39.8153 28.107 40.3333 24.9707 43.3014 25.7281C43.3942 25.7488 43.4858 25.7743 43.5759 25.8044L70.8637 57.7008Z" fill="black"/>
<path d="M51.9157 61.4978C51.2009 62.1841 20.4892 65.3203 20.3183 65.117C19.9142 64.5731 25.6536 36.2908 37.9299 26.5465C40.0951 24.8284 43.7107 25.5298 45.3476 26.582C46.166 27.0903 48.4555 31.1568 49.0771 34.7709C49.6987 38.385 52.3663 61.0658 51.9157 61.4978Z" fill="#EBEBEB"/>
<path d="M38.7691 25.84C38.7691 25.84 42.1205 42.9293 42.2293 43.6308C42.3381 44.3323 41.8512 63.3532 41.8512 63.3532L19.0596 66.1184C19.0596 66.1184 21.6495 56.6689 21.7738 56.2166C21.8982 55.7642 26.7414 40.0879 31.9316 33.058C36.692 26.5923 38.7691 25.84 38.7691 25.84Z" fill="#FFC727"/>
<path opacity="0.6" d="M38.7691 25.84C38.7691 25.84 42.1205 42.9293 42.2293 43.6308C42.3381 44.3323 41.8512 63.3532 41.8512 63.3532L19.0596 66.1184C19.0596 66.1184 21.6495 56.6689 21.7738 56.2166C21.8982 55.7642 26.7414 40.0879 31.9316 33.058C36.692 26.5923 38.7691 25.84 38.7691 25.84Z" fill="#00722D"/>
<path d="M45.8552 26.8363C45.8552 26.8363 48.1551 41.9941 48.2224 42.9497C48.2898 43.9053 50.0302 62.3417 50.0302 62.3417L52.8429 61.3251C52.8429 61.3251 51.2889 49.3239 51.0869 48.2819C50.8849 47.2399 49.5951 36.0825 49.103 33.9933C48.3209 30.6588 45.8552 26.8363 45.8552 26.8363Z" fill="#FFC727"/>
<path opacity="0.6" d="M45.8552 26.8363C45.8552 26.8363 48.1551 41.9941 48.2224 42.9497C48.2898 43.9053 50.0302 62.3417 50.0302 62.3417L52.8429 61.3251C52.8429 61.3251 51.2889 49.3239 51.0869 48.2819C50.8849 47.2399 49.5951 36.0825 49.103 33.9933C48.3209 30.6588 45.8552 26.8363 45.8552 26.8363Z" fill="black"/>
<path d="M73.7438 56.552L54.8164 58.448L61.1773 33.734L80.0995 31.8431L73.7438 56.552Z" fill="#EBEBEB"/>
<path d="M80.9127 36.2044C81.9797 38.1868 84.5386 40.6064 84.8183 42.2533C84.9014 42.6558 84.8494 43.0739 84.6701 43.445C84.4908 43.8161 84.1939 44.1203 83.8238 44.3119C83.8238 44.3119 85.5383 45.0693 85.5331 46.6044C85.5331 47.3923 84.2433 48.0836 84.2433 48.0836C84.6241 48.2753 84.9434 48.5667 85.1656 48.9256C85.3877 49.2846 85.5042 49.6969 85.5021 50.1168C85.4295 51.1995 84.1501 51.7282 84.1501 51.7282C84.1501 51.7282 85.1446 52.9583 84.7095 54.041C83.829 56.242 74.3083 56.6232 72.6973 53.2429C71.9462 51.6672 74.2513 51.718 74.2513 51.718C74.2513 51.718 70.9103 50.8793 70.7808 48.9528C70.6513 47.0263 73.6712 47.25 73.6712 47.25C73.6712 47.25 70.4441 46.4113 70.5166 44.4034C70.5891 42.3143 73.5727 43.0412 73.5727 43.0412C73.5727 43.0412 71.3972 41.7196 71.8116 40.1946C72.4901 37.6531 76.6289 40.642 78.7008 40.0726L79.7109 36.6416L80.9127 36.2044Z" fill="#EB9481"/>
<path d="M82.9433 39.0662C82.1042 37.099 84.5232 34.5321 83.9793 32.5395C83.2645 29.8404 80.255 32.6361 79.7214 36.606L79.8665 39.7676L82.9433 39.0662Z" fill="#EB9481"/>
<path d="M83.9638 51.8349C83.9706 51.8349 83.9772 51.8376 83.9821 51.8424C83.9869 51.8471 83.9897 51.8536 83.9897 51.8604C83.9897 51.8671 83.9869 51.8736 83.9821 51.8783C83.9772 51.8831 83.9706 51.8858 83.9638 51.8858C80.7405 52.808 77.3073 52.7442 74.1219 51.7028C74.0235 51.6672 74.0391 51.4944 74.153 51.5096C77.3895 52.0878 80.6949 52.1974 83.9638 51.8349Z" fill="#263238"/>
<path d="M84.2952 48.0989C84.3315 48.0989 84.3418 48.1548 84.2952 48.165C81.094 49.0494 76.9501 48.9681 73.5832 47.3161C73.4692 47.2602 73.4226 47.0924 73.5832 47.1483C75.8934 48.0836 81.2391 48.4801 84.2952 48.0989Z" fill="#263238"/>
<path d="M73.4175 42.8226C76.7119 44.2815 80.1513 44.5661 83.7203 44.3475C83.7669 44.3475 83.7669 44.4085 83.7203 44.4187C82.0006 44.988 79.711 44.8914 77.9343 44.6627C76.281 44.4856 74.704 43.8862 73.3605 42.9243C73.288 42.8938 73.3242 42.787 73.4175 42.8226Z" fill="#263238"/>
<path d="M31.771 32.1837C22.6181 42.3245 12.3619 59.3732 16.8736 62.9415C21.0176 66.1998 35.8683 62.8907 45.2025 59.1953C46.9792 58.4888 42.8509 42.9294 40.8773 43.4631C37.4689 44.3882 32.0715 46.64 31.8539 46.7061C31.3359 46.8485 33.8016 40.7996 36.8214 33.4596C40.1936 25.2758 37.0079 26.3788 31.771 32.1837Z" fill="#EB9481"/>
<path d="M60.7887 43.0208C60.7533 43.4119 60.6193 43.7881 60.3986 44.1156C60.1779 44.4431 59.8776 44.7115 59.5248 44.8965C60.1514 45.3708 60.5893 46.045 60.7628 46.8027C61.0063 48.1497 58.9602 49.1155 58.9602 49.1155C59.5067 49.739 59.8496 50.5094 59.9444 51.3266C60.0428 52.6381 58.121 53.8987 58.121 53.8987C58.3006 54.7439 58.1646 55.6243 57.7377 56.3792C56.5101 58.3464 44.6688 59.8561 43.0682 59.9933L40.2141 43.7731C40.2141 43.7731 50.289 38.8324 52.9826 39.1475C55.2514 39.4169 60.9855 40.6318 60.7887 43.0208Z" fill="#EB9481"/>
<path d="M59.4887 44.8457C57.1473 43.9917 54.604 43.6918 52.1487 43.4275C52.1396 43.4306 52.1317 43.4365 52.1261 43.4442C52.1204 43.4519 52.1174 43.4612 52.1174 43.4707C52.1174 43.4802 52.1204 43.4895 52.1261 43.4972C52.1317 43.5049 52.1396 43.5108 52.1487 43.5139C54.5988 43.7477 57.0386 44.6271 59.4731 44.9575C59.4882 44.9595 59.5035 44.9556 59.5157 44.9465C59.5278 44.9375 59.5358 44.924 59.5379 44.9092C59.5399 44.8944 59.5359 44.8794 59.5267 44.8674C59.5174 44.8555 59.5038 44.8477 59.4887 44.8457Z" fill="#263238"/>
<path d="M58.9137 48.9274C58.3631 48.7824 57.7951 48.7106 57.2251 48.7139C56.6242 48.6783 56.0181 48.6529 55.4173 48.6377C54.2103 48.6072 53.0034 48.6021 51.7913 48.6377C51.7343 48.6377 51.724 48.719 51.7913 48.719C52.9931 48.7495 54.2 48.8003 55.4173 48.8867C56.0181 48.9274 56.619 48.9732 57.2199 49.024C57.7838 49.1069 58.3552 49.129 58.9241 49.0901C58.9408 49.0831 58.955 49.0712 58.9646 49.0559C58.9741 49.0407 58.9787 49.023 58.9775 49.0051C58.9764 48.9873 58.9696 48.9702 58.9582 48.9563C58.9468 48.9424 58.9312 48.9323 58.9137 48.9274Z" fill="#263238"/>
<path d="M58.0695 53.8986C57.5622 53.772 57.0361 53.7341 56.5155 53.7868H54.8631C53.7598 53.7868 52.6616 53.7512 51.5635 53.6953C51.5065 53.6953 51.5013 53.7766 51.5635 53.7817C52.6824 53.8427 53.796 53.919 54.9149 53.9698L56.5569 54.041C57.0563 54.1043 57.5631 54.0802 58.0539 53.9698C58.0539 53.9698 58.0902 53.9037 58.0695 53.8986Z" fill="#263238"/>
<path d="M36.2826 27.7055C29.6264 31.7364 12.4965 55.4643 15.6459 61.991C18.7952 68.5177 40.2763 61.3301 40.2763 61.3301L38.3753 43.6054C38.3753 43.6054 32.7292 46.7213 32.5427 46.4418C32.3562 46.1622 35.6507 38.0648 36.9871 34.7506C38.3235 31.4364 39.8257 25.5756 36.2826 27.7055Z" fill="#FFC727"/>
<path opacity="0.6" d="M36.2826 27.7055C29.6264 31.7364 12.4965 55.4643 15.6459 61.991C18.7952 68.5177 40.2763 61.3301 40.2763 61.3301L38.3753 43.6054C38.3753 43.6054 32.7292 46.7213 32.5427 46.4418C32.3562 46.1622 35.6507 38.0648 36.9871 34.7506C38.3235 31.4364 39.8257 25.5756 36.2826 27.7055Z" fill="#00722D"/>
<path d="M37.557 60.3288C37.1581 57.9855 35.8891 48.3479 35.7544 46.2435C35.7544 46.1012 35.8373 46.0605 35.8684 46.208C37.2307 53.1972 37.3809 57.9906 37.6502 60.3085C37.6761 60.3644 37.5674 60.3847 37.557 60.3288Z" fill="#263238"/>
<path d="M38.2458 43.6207C37.6203 43.8497 37.0126 44.1232 36.4277 44.439C35.9097 44.7034 35.3917 44.9473 34.8426 45.232C33.6979 45.8166 32.5635 46.4265 31.4394 47.0416C30.3154 47.6566 29.1914 48.2869 28.0829 48.9325C26.9744 49.578 25.9073 50.2846 24.7988 50.9302C24.747 50.9607 24.7988 51.0318 24.8506 51.0013C25.9746 50.3761 27.1453 49.822 28.2849 49.2222L31.6415 47.433C32.7551 46.8484 33.8792 46.269 34.9929 45.6793L36.6297 44.805C37.2285 44.5151 37.8065 44.1857 38.3598 43.8189C38.3733 43.7993 38.381 43.7764 38.382 43.7528C38.383 43.7292 38.3773 43.7057 38.3654 43.6851C38.3536 43.6645 38.3361 43.6476 38.315 43.6362C38.2939 43.6248 38.2699 43.6194 38.2458 43.6207Z" fill="#263238"/>
<path d="M36.3501 38.5324C36.003 38.9645 35.6611 39.4016 35.3141 39.854C35.2519 39.9405 35.2001 40.0269 35.138 40.1082C35.226 39.8795 35.3141 39.6456 35.4073 39.4118C35.7504 38.6085 36.0478 37.7872 36.2983 36.9516C36.2983 36.916 36.2516 36.8957 36.2309 36.9516C35.8103 37.7619 35.4334 38.5932 35.1017 39.4423C34.7495 40.2607 34.3921 41.074 34.0657 41.8974C33.7394 42.7209 33.382 43.5393 33.0608 44.3678C32.7142 45.1735 32.4268 46.0024 32.201 46.8484C32.2006 46.858 32.2033 46.8675 32.2087 46.8755C32.2141 46.8835 32.222 46.8896 32.2312 46.893C32.2404 46.8964 32.2504 46.8968 32.2598 46.8943C32.2693 46.8918 32.2777 46.8864 32.2838 46.8789C32.7405 46.0778 33.1336 45.2434 33.4597 44.3831C33.8067 43.5647 34.1331 42.7311 34.4957 41.9076C34.6355 41.562 34.7702 41.2163 34.8997 40.891C34.9619 40.8147 35.0188 40.7334 35.0758 40.6572C35.2364 40.4437 35.3866 40.22 35.5368 39.9913C35.8373 39.5287 36.1222 39.0509 36.4019 38.5731C36.3863 38.5324 36.3604 38.5172 36.3501 38.5324Z" fill="#263238"/>
<path d="M40.3179 60.9388C40.3179 60.8218 40.2402 60.7964 40.2195 60.9388C40.1987 61.0811 40.2195 61.137 40.1884 61.2082C39.458 61.4013 36.7852 62.1994 36.1325 62.3925C34.7598 62.789 33.382 63.1397 31.9886 63.4447C30.5952 63.7497 29.1811 64.0089 27.767 64.2275C26.3528 64.4461 24.9336 64.6697 23.5091 64.7612C23.4521 64.7612 23.4573 64.8477 23.5091 64.8477C24.9595 64.7714 26.4046 64.7307 27.8498 64.5681C29.295 64.4054 30.6729 64.1767 32.0663 63.892C33.4597 63.6074 34.8945 63.2414 36.2827 62.8297C36.9768 62.6213 37.6658 62.3925 38.3547 62.1587C39.0219 61.9678 39.6676 61.7106 40.2816 61.3911C40.305 61.3779 40.3243 61.3586 40.3371 61.3352C40.3499 61.3119 40.3558 61.2855 40.3541 61.259L40.3179 60.9388Z" fill="#263238"/>
<path d="M44.41 31.3754C42.6385 31.7516 39.6549 29.0626 38.4946 26.9023C38.4169 26.7549 39.1421 20.8941 39.1576 19.7148C39.1576 19.4759 46.6529 21.6311 46.6529 21.6311C46.1986 23.0944 45.929 24.607 45.8501 26.1347C45.8501 26.3076 46.1194 31.0043 44.41 31.3754Z" fill="#EB9481"/>
<path d="M46.6581 21.6311C46.6581 21.6667 46.6011 21.809 46.5389 22.0378C46.4302 22.4343 46.2592 23.0544 46.1194 23.8067C45.965 24.5724 45.8766 25.3494 45.8552 26.1297C45.8552 26.1856 45.8552 26.2415 45.8552 26.2923V26.3177C45.8552 26.4143 45.8552 26.5414 45.8552 26.6939C45.6112 26.7227 45.3653 26.7329 45.1197 26.7244C41.0275 26.5668 39.7326 21.6108 39.3855 19.7097L39.515 19.7351C39.7118 19.7656 39.9708 19.8266 40.2868 19.8978L40.5251 19.9588C41.0431 20.0808 41.618 20.2384 42.2396 20.3959L42.856 20.5637L44.1666 20.9246L44.6845 21.072C44.871 21.1177 45.0523 21.1736 45.2025 21.2194L45.446 21.2855L45.5651 21.3211L46.1815 21.499L46.482 21.5803L46.6063 21.621L46.6581 21.6311Z" fill="#263238"/>
<path d="M38.7121 10.916C37.6761 13.4575 38.422 21.0822 40.1676 22.9375C42.7006 25.601 47.1657 26.2059 49.5588 23.151C51.8742 20.1926 50.7191 10.245 48.7404 8.54215C45.8345 6.03618 40.2661 7.16971 38.7121 10.916Z" fill="#EB9481"/>
<path d="M45.8447 15.9534C45.8447 15.9534 45.8033 15.9839 45.8084 16.0042C45.8861 16.5125 45.8913 17.1174 45.4407 17.3411C45.4407 17.3411 45.4407 17.3766 45.4407 17.3715C46.0156 17.2241 46.0053 16.4261 45.8447 15.9534Z" fill="#263238"/>
<path d="M45.3112 15.4704C44.4617 15.506 44.5964 17.1732 45.3837 17.1427C46.1711 17.1122 46.0209 15.4399 45.3112 15.4704Z" fill="#263238"/>
<path d="M48.8958 15.7958C48.8958 15.7958 48.9373 15.7958 48.9373 15.8364C48.9632 16.3448 49.0823 16.9446 49.5744 17.0767V17.1072C48.9839 17.0716 48.8337 16.2888 48.8958 15.7958Z" fill="#263238"/>
<path d="M49.3206 15.2214C50.1597 15.0892 50.3566 16.7463 49.5848 16.8683C48.813 16.9903 48.6161 15.3281 49.3206 15.2214Z" fill="#263238"/>
<path d="M44.5757 14.7639C44.8037 14.6876 45.0005 14.5809 45.2181 14.4843C45.4558 14.4147 45.6646 14.2722 45.8137 14.0776C45.8466 14.0068 45.8553 13.9275 45.8385 13.8515C45.8217 13.7755 45.7803 13.7068 45.7205 13.6557C45.5834 13.5756 45.4268 13.5333 45.2673 13.5333C45.1077 13.5333 44.9511 13.5756 44.814 13.6557C44.5103 13.7691 44.2597 13.988 44.1096 14.2708C44.0846 14.3362 44.0787 14.4071 44.0925 14.4755C44.1062 14.544 44.1391 14.6074 44.1875 14.6586C44.2359 14.7097 44.2978 14.7467 44.3664 14.7653C44.435 14.7839 44.5075 14.7834 44.5757 14.7639Z" fill="#A6A6A6"/>
<path d="M49.9057 14.3318C49.6739 14.3039 49.4439 14.2632 49.2168 14.2098C48.969 14.2015 48.7308 14.114 48.5382 13.9608C48.4915 13.8981 48.4663 13.8224 48.4663 13.7447C48.4663 13.6671 48.4915 13.5914 48.5382 13.5287C48.65 13.4173 48.79 13.3369 48.9437 13.2958C49.0975 13.2547 49.2597 13.2544 49.4136 13.2949C49.7382 13.3284 50.0379 13.4809 50.2528 13.7219C50.2984 13.7809 50.3256 13.8517 50.3309 13.9257C50.3362 13.9996 50.3194 14.0735 50.2826 14.1382C50.2457 14.203 50.1905 14.2558 50.1235 14.2901C50.0566 14.3245 49.9809 14.339 49.9057 14.3318Z" fill="#A6A6A6"/>
<path d="M45.7515 20.7823C45.8862 20.8941 46.026 21.0466 46.2177 21.0517C46.4131 21.0313 46.602 20.9706 46.7719 20.8738C46.7719 20.8738 46.8082 20.8738 46.7719 20.8992C46.7049 21.006 46.61 21.0934 46.4971 21.1524C46.3842 21.2114 46.2574 21.2398 46.1296 21.2347C46.0199 21.2151 45.9186 21.1641 45.8384 21.0881C45.7582 21.0121 45.7027 20.9146 45.679 20.8077C45.6945 20.7772 45.7308 20.767 45.7515 20.7823Z" fill="#263238"/>
<path d="M46.1762 19.1913C46.326 19.3851 46.5153 19.5462 46.732 19.6643C46.9487 19.7824 47.1881 19.855 47.4349 19.8775C47.6496 19.9079 47.8677 19.9079 48.0824 19.8775C48.1248 19.8741 48.1665 19.8655 48.2067 19.8521C48.2446 19.8562 48.2828 19.8562 48.3207 19.8521C48.3476 19.8444 48.3712 19.8283 48.388 19.8063C48.4048 19.7843 48.4139 19.7576 48.4139 19.7301C48.4168 19.7133 48.4168 19.6961 48.4139 19.6793V19.6335C48.4139 19.237 48.3052 18.6169 48.3052 18.6169C48.4606 18.6779 49.2427 18.9473 49.2116 18.744C49.0168 16.9553 48.6367 15.1909 48.0772 13.4779C48.0772 13.4657 48.0723 13.4541 48.0636 13.4455C48.0548 13.437 48.043 13.4321 48.0306 13.4321C48.0183 13.4321 48.0064 13.437 47.9977 13.4455C47.9889 13.4541 47.984 13.4657 47.984 13.4779C48.1549 15.135 48.6211 16.7463 48.818 18.4034C48.5401 18.3011 48.2488 18.2378 47.9529 18.2153C47.8959 18.2153 48.1446 19.3743 48.1394 19.5573C47.8099 19.6153 47.4718 19.6079 47.1453 19.5354C46.8188 19.463 46.5104 19.3269 46.2384 19.1354C46.1814 19.115 46.14 19.1557 46.1762 19.1913Z" fill="#263238"/>
<path d="M47.8286 19.6742C47.6287 19.9755 47.3543 20.2221 47.0309 20.3909C46.8502 20.4746 46.648 20.5029 46.4507 20.4723C46.026 20.396 45.9845 20.0199 46.0312 19.6895C46.0613 19.515 46.1117 19.3444 46.1814 19.1812C46.6618 19.5156 47.2397 19.6886 47.8286 19.6742Z" fill="#263238"/>
<path d="M47.0309 20.3909C46.8502 20.4746 46.648 20.5029 46.4507 20.4722C46.026 20.396 45.9845 20.0198 46.0312 19.6894C46.254 19.6786 46.474 19.742 46.6555 19.8694C46.8369 19.9967 46.9692 20.1805 47.0309 20.3909Z" fill="#FF9ABB"/>
<g opacity="0.2">
<path d="M46.8185 12.4054C47.1064 12.4282 47.3957 12.4282 47.6836 12.4054C47.9736 12.4054 48.2585 12.3088 48.5538 12.2936C49.1082 12.29 49.6589 12.383 50.1803 12.568C50.2269 12.568 50.2217 12.6138 50.1803 12.5985C49.6234 12.4256 49.0356 12.3702 48.4554 12.4359C47.9871 12.5305 47.5075 12.5596 47.0309 12.5223C45.9542 12.3401 44.8465 12.4967 43.866 12.9696C44.7716 12.4991 45.7991 12.3027 46.8185 12.4054Z" fill="black"/>
<path d="M46.7719 11.648C47.0438 11.6743 47.3172 11.6828 47.5903 11.6734C47.8649 11.6734 48.1083 11.5768 48.4139 11.5615C48.9436 11.5606 49.4694 11.65 49.9679 11.8259C50.0093 11.8259 50.0042 11.8665 49.9679 11.8564C49.4395 11.692 48.8815 11.64 48.331 11.7039C47.8861 11.7902 47.4312 11.8159 46.9791 11.7801C45.9602 11.6076 44.9118 11.7571 43.9851 12.2071C44.8382 11.757 45.8072 11.5626 46.7719 11.648Z" fill="black"/>
</g>
<path d="M49.9368 11.5971C47.2743 13.4321 43.5655 10.7432 43.5655 10.7432C43.3421 11.3196 42.9351 11.81 42.4051 12.1415C41.875 12.473 41.2502 12.6279 40.6233 12.5832C40.6233 12.5832 40.1468 17.0462 38.945 17.0462C37.1217 17.0462 36.4898 10.9872 37.0544 9.78754C37.619 8.58793 39.1626 8.26261 39.1626 8.26261C39.3238 7.53687 39.761 6.89878 40.3851 6.47844C41.6231 5.5279 45.9379 6.74276 45.9379 6.74276C46.1796 6.17701 46.552 5.67412 47.0257 5.27375C47.1395 5.17421 47.2727 5.09832 47.4172 5.05066C47.5617 5.00299 47.7146 4.98453 47.8666 4.99641C48.0186 5.00828 48.1665 5.05024 48.3016 5.11975C48.4366 5.18925 48.5558 5.28486 48.6522 5.40083C48.4279 5.73251 48.2827 6.10953 48.2274 6.50386C48.0254 7.81021 49.1132 7.80005 49.0873 6.61569C49.0952 6.17267 48.9408 5.74159 48.6522 5.40083C49.1702 4.62311 50.0559 4.38421 50.5895 4.77053C51.5633 5.51774 52.1797 10.0773 49.9368 11.5971Z" fill="#666666"/>
<path d="M44.7932 19.1201C44.3359 19.1003 43.8933 18.955 43.516 18.7005C43.1387 18.4461 42.8418 18.0928 42.6591 17.6809C42.4763 17.269 42.4151 16.815 42.4823 16.3707C42.5496 15.9263 42.7427 15.5094 43.0396 15.1674C43.3364 14.8254 43.7252 14.5721 44.1616 14.4362C44.598 14.3004 45.0644 14.2876 45.5079 14.3991C45.9514 14.5107 46.354 14.7422 46.67 15.0673C46.9859 15.3924 47.2025 15.798 47.2951 16.238C47.3725 16.5958 47.3651 16.9663 47.2735 17.3209C47.182 17.6755 47.0086 18.0047 46.7669 18.2832C46.5252 18.5617 46.2215 18.7819 45.8793 18.927C45.5371 19.0721 45.1655 19.1382 44.7932 19.1201ZM44.9952 14.647C44.8216 14.6409 44.6477 14.6545 44.4773 14.6876C43.949 14.7942 43.482 15.0945 43.1715 15.5273C42.8611 15.9601 42.7305 16.4928 42.8065 17.0168C42.8824 17.5408 43.1592 18.0167 43.5803 18.3473C44.0014 18.678 44.5352 18.8386 45.0729 18.7964C45.6105 18.7542 46.1115 18.5123 46.4737 18.1202C46.8359 17.728 47.032 17.2151 47.0221 16.6859C47.0122 16.1567 46.797 15.6511 46.4204 15.2723C46.0438 14.8934 45.5341 14.6698 44.9952 14.647Z" fill="#455A64"/>
<path d="M50.3824 18.6982C49.45 18.6525 48.6472 17.6816 48.5539 16.4312C48.4987 15.8354 48.6364 15.2377 48.9476 14.7232C49.0675 14.4963 49.2446 14.3033 49.4622 14.1627C49.6798 14.0221 49.9305 13.9386 50.1904 13.9202C50.4502 13.9019 50.7105 13.9492 50.9464 14.0578C51.1822 14.1663 51.3858 14.3325 51.5375 14.5403C51.9193 15.0054 52.1438 15.5757 52.1799 16.1719C52.2731 17.4935 51.5375 18.622 50.5378 18.7135L50.3824 18.6982ZM50.341 14.2302C50.2997 14.2253 50.258 14.2253 50.2167 14.2302C50.0088 14.2533 49.8098 14.3255 49.6366 14.4406C49.4634 14.5557 49.3212 14.7102 49.2221 14.891C48.9502 15.3524 48.8308 15.8851 48.8803 16.4159C48.9631 17.5596 49.6987 18.4492 50.5223 18.3831C51.3459 18.317 51.9416 17.3665 51.8587 16.2075C51.83 15.6769 51.6325 15.1685 51.2941 14.7538C51.1818 14.6055 51.0388 14.4823 50.8745 14.3921C50.7103 14.3018 50.5285 14.2467 50.341 14.2302Z" fill="#455A64"/>
<path d="M47.233 16.5227L47.0051 16.2888C47.3522 15.9584 48.181 15.4908 48.8181 16.0703L48.6005 16.3092C48.0359 15.7856 47.2641 16.4922 47.233 16.5227Z" fill="#455A64"/>
<path d="M36.4174 17.9002L36.1169 17.7782C36.1791 17.6409 36.723 16.4312 37.443 16.2532C38.163 16.0753 42.5141 16.1922 42.7006 16.1922V16.5125C41.4367 16.4871 38.0387 16.4413 37.5207 16.5633C37.0027 16.6853 36.5624 17.5698 36.4174 17.9002Z" fill="#455A64"/>
<path d="M39.9033 17.1886C39.9033 17.1886 38.3493 14.647 37.158 15.1553C35.9666 15.6637 37.0595 19.3082 38.3545 19.8775C38.5153 19.9617 38.6918 20.0131 38.8733 20.0287C39.0548 20.0443 39.2377 20.0236 39.4109 19.9681C39.5841 19.9125 39.7441 19.8232 39.8812 19.7054C40.0184 19.5877 40.1298 19.4439 40.2089 19.2828L39.9033 17.1886Z" fill="#EB9481"/>
<path d="M37.4895 16.2075C37.4895 16.2075 37.4895 16.2329 37.4895 16.238C38.396 16.665 38.8311 17.5444 39.116 18.439C39.0673 18.3445 38.9984 18.2615 38.9141 18.1955C38.8297 18.1295 38.7319 18.0821 38.6272 18.0565C38.5225 18.0309 38.4134 18.0278 38.3074 18.0473C38.2013 18.0668 38.1008 18.1085 38.0127 18.1696C38.0127 18.1696 38.0127 18.2255 38.0127 18.2204C38.1796 18.1796 38.3553 18.1903 38.5157 18.2513C38.6762 18.3123 38.8135 18.4204 38.9088 18.561C39.0648 18.7977 39.195 19.0498 39.2973 19.3133C39.3335 19.3997 39.4889 19.3641 39.463 19.2675C39.5666 18.0883 38.7534 16.4261 37.4895 16.2075Z" fill="#263238"/>
<path d="M45.8914 26.755L44.0939 31.1671L38.5359 25.5757L36.9819 27.3598C36.9819 27.3598 42.4208 36.1892 42.4571 35.7876L44.3011 32.0058L46.9636 34.6388L46.7461 28.0308L45.8914 26.755Z" fill="#EBEBEB"/>
<path d="M46.9999 31.3754C46.9274 30.2826 46.8859 29.1846 46.7616 28.0968C46.7616 28.0613 46.6994 28.0409 46.6891 28.0968C46.4663 29.149 46.7668 33.3172 46.7616 34.3185C46.6528 34.2016 44.296 32.0007 44.2752 32.0362C43.8764 32.636 42.5193 35.3911 42.426 35.6402C41.5662 34.2372 38.2821 29.144 37.2461 27.8173C37.215 27.7766 37.1529 27.8173 37.1788 27.8528C37.935 29.3371 42.2965 36.1993 42.3587 36.179C43.0782 34.8813 43.7283 33.5477 44.3063 32.1836C44.7052 32.692 47.0828 35.1522 47.0879 34.9895C47.1243 33.7841 47.0949 32.5777 46.9999 31.3754Z" fill="#263238"/>
<path d="M153.426 63.8259H117.022V143.758H153.426V63.8259Z" fill="#A65711"/>
<path opacity="0.3" d="M153.426 63.8259H117.022V143.758H153.426V63.8259Z" fill="black"/>
<path d="M50.5118 63.8259H14.1074V143.758H50.5118V63.8259Z" fill="#A65711"/>
<path d="M153.426 63.8259H50.5117V74.9274H153.426V63.8259Z" fill="#A65711"/>
<path opacity="0.2" d="M153.426 63.8259H50.5117V74.9274H153.426V63.8259Z" fill="black"/>
<path opacity="0.1" d="M50.7449 69.3766L63.5807 69.2801L76.4113 69.2496L102.083 69.1835L127.755 69.2496L140.59 69.2801L153.426 69.3766L140.59 69.4681L127.755 69.5037L102.083 69.5647L76.4113 69.5037L63.5807 69.4681L50.7449 69.3766Z" fill="black"/>
<path d="M55.4067 63.8259H50.5117V143.758H55.4067V63.8259Z" fill="#A65711"/>
<path opacity="0.2" d="M55.4067 63.8259H50.5117V143.758H55.4067V63.8259Z" fill="black"/>
<path d="M153.426 63.8259H148.531V143.758H153.426V63.8259Z" fill="#A65711"/>
<path opacity="0.2" d="M153.426 63.8259H148.531V143.758H153.426V63.8259Z" fill="black"/>
<path d="M98.8815 62.5144H69.0867V63.8258H98.8815V62.5144Z" fill="#455A64"/>
<path d="M98.8816 62.5144H83.8857V63.8258H98.8816V62.5144Z" fill="#263238"/>
<path d="M85.5017 63.8258H114.535L118.332 44.4745H89.2986L85.5017 63.8258Z" fill="#455A64"/>
<path d="M100.151 54.1476C100.126 54.3683 100.149 54.5917 100.219 54.8029C100.289 55.0141 100.404 55.2082 100.556 55.3723C100.709 55.5364 100.895 55.6666 101.103 55.7544C101.311 55.8421 101.535 55.8852 101.762 55.881C102.243 55.8734 102.704 55.6927 103.059 55.3731C103.413 55.0536 103.635 54.6175 103.683 54.1476C103.708 53.9271 103.684 53.7041 103.614 53.4932C103.543 53.2824 103.428 53.0886 103.276 52.9247C103.124 52.7608 102.938 52.6306 102.73 52.5426C102.523 52.4546 102.298 52.4109 102.072 52.4143C101.591 52.4219 101.13 52.6026 100.775 52.9222C100.421 53.2417 100.199 53.6778 100.151 54.1476Z" fill="#263238"/>
<path d="M173.208 86.9337L172.037 93.8213L164.107 135.838H162.833L168.598 93.8213L169.448 86.9337H173.208Z" fill="#DBDBDB"/>
<path d="M169.447 86.9337H173.208L172.037 93.8213H168.598L169.447 86.9337Z" fill="#A6A6A6"/>
<path d="M198.103 135.838H196.828L188.898 93.8213L187.727 86.9337H191.488L192.337 93.8213L198.103 135.838Z" fill="#DBDBDB"/>
<path d="M191.488 86.9337L192.337 93.8213H188.898L187.727 86.9337H191.488Z" fill="#A6A6A6"/>
<path d="M221.884 135.838H220.609L212.679 93.8213L211.508 86.9337H215.269L216.118 93.8213L221.884 135.838Z" fill="#DBDBDB"/>
<path d="M216.118 93.8213H212.679L211.508 86.9337H215.269L216.118 93.8213Z" fill="#A6A6A6"/>
<path d="M219.858 90.1665H161.766V84.1634H183.511L190.82 42.4312H217.641L219.858 90.1665Z" fill="#DBDBDB"/>
<path d="M219.858 90.1665H216.694L214.627 42.4312H217.641L219.858 90.1665Z" fill="#A6A6A6"/>
<path d="M126.532 129.993C127.604 130.608 160.636 137.389 162.061 136.865C162.605 136.667 163.889 132.006 165.283 126.328C165.583 125.098 165.884 123.832 166.184 122.541C168.142 114.174 170.022 105.258 170.022 105.258L147.94 100.683L144.708 118.088L143.999 121.91C143.999 121.91 130.168 124.869 128.666 125.606C127.164 126.343 125.455 129.378 126.532 129.993Z" fill="#D3766A"/>
<path d="M164.744 128.493C163.568 133.149 162.532 136.692 162.061 136.865C160.636 137.373 127.599 130.608 126.527 129.993C125.455 129.378 127.169 126.333 128.661 125.591C129.588 125.138 135.208 123.837 139.378 122.907C135.752 123.761 128.941 126.185 143.004 127.182C154.612 128.01 162.278 128.386 164.744 128.493Z" fill="#263238"/>
<path d="M156.342 146.553C157.539 146.879 191.244 145.171 192.488 144.312C192.959 143.986 191.664 130.709 191.312 129.428C190.115 125.103 184.423 112.075 184.423 112.075L161.869 113.152L171.131 134.354C171.131 134.354 158.528 140.672 157.264 141.76C156 142.848 155.146 146.248 156.342 146.553Z" fill="#D3766A"/>
<path d="M192.488 144.327C191.244 145.191 157.544 146.899 156.342 146.574C155.14 146.248 156.011 142.868 157.264 141.78C157.855 141.272 160.89 139.635 163.998 138.029C160.124 140.169 153.991 144.942 192.146 136.433C192.482 140.22 192.741 144.154 192.488 144.327Z" fill="#263238"/>
<path d="M208.613 81.1593C201.879 88.5044 179.325 82.6842 177.979 85.6273C176.787 88.2045 192.192 129.591 192.192 129.591L167.546 132.199C167.546 132.199 146.267 86.4914 153.871 73.2855C157.979 66.1692 176.083 68.9954 187.023 67.6941C190.317 67.3027 191.866 60.6337 191.866 60.6337H211.384C211.384 60.6337 216.305 72.7671 208.613 81.1593Z" fill="#37474F"/>
<path d="M160.74 69.1936L181.46 84.7327C188.333 84.5903 203.376 86.9286 208.649 81.1745C216.331 72.7823 211.405 60.6439 211.405 60.6439H191.866C191.866 60.6439 190.312 67.3129 187.023 67.7043C179.357 68.604 168.163 67.4806 160.74 69.1936Z" fill="#263238"/>
<path d="M166.619 126.805C167.298 126.597 173.69 125.896 175.099 125.748C177.922 125.448 186.8 124.63 188.411 124.635C188.419 124.638 188.426 124.643 188.431 124.65C188.435 124.657 188.438 124.665 188.438 124.673C188.438 124.681 188.435 124.689 188.431 124.696C188.426 124.703 188.419 124.708 188.411 124.711C187.012 124.996 181.34 125.647 179.931 125.789C177.108 126.073 167.406 126.999 166.619 126.922C166.606 126.919 166.595 126.911 166.587 126.9C166.579 126.89 166.575 126.877 166.575 126.864C166.575 126.851 166.579 126.838 166.587 126.827C166.595 126.817 166.606 126.809 166.619 126.805Z" fill="#263238"/>
<path d="M175.005 83.2027C176.591 82.43 188.603 82.8113 197.222 82.0183C200.03 81.7641 202.847 81.1745 204.992 79.37C206.864 77.717 208.198 75.5604 208.83 73.1686C209.659 70.2763 209.576 67.2621 209.431 64.3037C209.4 63.5768 209.348 62.8449 209.302 62.118C209.302 62.0773 209.374 62.0671 209.379 62.118C210.032 67.4196 210.534 73.3414 207.022 77.9366C205.465 79.9588 203.247 81.3945 200.739 82.003C195.559 83.345 175.995 83.0197 175.306 83.528C174.482 84.1481 187.121 121.895 187.37 122.617C187.417 122.749 187.173 122.841 187.116 122.708C185.868 119.786 173.622 83.8787 175.005 83.2027Z" fill="#263238"/>
<path d="M153.006 74.5614C154.167 71.6691 156.819 69.8646 160.719 69.1733C160.781 69.1733 160.776 69.2597 160.719 69.2749C157.316 70.2509 154.887 71.5928 153.545 74.414C152.923 75.7305 152.597 77.5756 152.437 80.0562C151.628 92.4132 162.62 120.472 162.843 120.96C162.845 120.964 162.847 120.969 162.847 120.974C162.848 120.979 162.847 120.984 162.846 120.988C162.844 120.993 162.842 120.998 162.839 121.001C162.836 121.005 162.832 121.008 162.827 121.011C162.823 121.013 162.818 121.015 162.813 121.015C162.808 121.016 162.803 121.015 162.798 121.014C162.793 121.012 162.789 121.01 162.785 121.007C162.781 121.004 162.778 121 162.776 120.995C161.222 118.439 148.21 86.5117 153.006 74.5614Z" fill="#263238"/>
<path d="M144.097 116.965L162.745 120.858C162.745 120.858 148.023 77.7383 154.938 72.1723C156.855 70.6474 161.035 70.0933 166.003 72.1977C173.415 75.3391 181.998 81.7489 190.089 84.0922C197.668 86.2881 206.665 84.2701 209.773 80.9254C216.279 73.9006 211.384 60.6235 211.384 60.6235L184.542 59.6323C184.542 59.6323 184.946 59.9526 183.661 61.0708C183.661 61.0708 167.888 57.5584 161.03 61.6707C148.671 69.0818 144.097 116.965 144.097 116.965Z" fill="#37474F"/>
<path d="M199.807 62.1739C199.807 62.1618 199.812 62.1502 199.821 62.1416C199.829 62.133 199.841 62.1282 199.853 62.1282C199.866 62.1282 199.878 62.133 199.886 62.1416C199.895 62.1502 199.9 62.1618 199.9 62.1739C199.879 63.1635 199.957 64.1526 200.133 65.1272C200.343 66.0515 200.811 66.9001 201.485 67.5773C202.956 69.0412 205.064 69.5393 206.997 70.1188C207.095 70.1493 207.079 70.3272 206.965 70.3069C204.826 69.9866 202.573 69.4529 201.009 67.8772C200.288 67.152 199.806 66.2311 199.626 65.2339C199.428 64.2148 199.491 63.1637 199.807 62.1739Z" fill="#263238"/>
<path d="M155.41 71.3488C158.28 69.585 162.766 70.927 164.915 71.7352C164.925 71.7385 164.933 71.7455 164.937 71.7546C164.941 71.7636 164.942 71.774 164.938 71.7835C164.935 71.7929 164.928 71.8006 164.919 71.8049C164.909 71.8092 164.899 71.8097 164.889 71.8063C162.916 71.11 158 70.0527 155.374 71.8775C149.303 76.1015 157.446 104.968 162.755 120.858C162.838 121.107 162.641 121.041 162.527 120.802C161.647 118.922 154.757 98.8433 152.986 85.5612C152.711 83.5229 151.276 73.9006 155.41 71.3488Z" fill="#263238"/>
<path d="M146.221 112.095C146.785 112.095 151.623 113.112 152.685 113.361C154.819 113.833 159.761 115.089 160.911 115.521C160.942 115.521 160.911 115.592 160.911 115.592C159.803 115.49 157.228 114.931 156.166 114.692C154.037 114.184 146.744 112.486 146.21 112.207C146.143 112.181 146.169 112.095 146.221 112.095Z" fill="#263238"/>
<path d="M156.327 70.6017C158.254 69.585 160.554 69.397 162.698 69.6562C164.96 69.992 167.156 70.6657 169.209 71.6539C173.576 73.6159 177.73 76.005 182.102 77.9569C186.474 79.9088 191.089 81.4083 195.881 81.5507C199.973 81.6777 205.158 80.9712 207.794 77.3571C211.85 71.7657 209.488 62.1841 209.442 61.5639C209.442 61.5182 209.504 61.5182 209.514 61.5639C212.663 73.3669 208.613 77.9518 205.888 79.8631C203.723 81.388 200.605 81.7794 198.543 81.9471C193.778 82.3436 189.002 81.1999 184.588 79.4717C180.061 77.7028 175.814 75.3239 171.478 73.1432C167.334 71.0591 162.672 68.9039 157.938 70.0933C157.399 70.2247 156.871 70.3946 156.358 70.6017C156.358 70.6017 156.296 70.6169 156.327 70.6017Z" fill="#263238"/>
<path d="M184.651 29.3981C184.578 35.3199 184.609 41.4094 185.464 47.2804C186.132 51.8552 188.266 55.5455 193.177 56.4656C197.735 57.3145 204.158 56.9739 207.841 53.863C209.561 52.4194 210.094 50.4624 209.877 48.3021C209.581 45.3031 206.417 28.9355 205.463 23.827C204.888 20.7161 204.319 17.5646 203.184 14.5859C200.802 8.32864 197.606 8.52179 197.16 8.40996C196.766 8.18631 194.259 7.22052 190.82 8.4608C189.92 8.78442 189.099 9.29015 188.411 9.94518C187.723 10.6002 187.183 11.3899 186.826 12.263C184.542 17.4426 184.718 23.8524 184.651 29.3981Z" fill="#263238"/>
<path d="M198.196 9.24865C202.122 10.8447 203.221 14.9316 204.319 18.5863C205.842 23.6694 207.282 28.783 208.463 33.9627C209.032 36.4483 209.545 38.9492 209.98 41.4653C210.395 43.8696 211.016 46.4315 210.939 48.8816C210.84 52.948 207.157 54.9355 203.531 55.6675C203.513 55.6718 203.495 55.6726 203.476 55.6699C203.458 55.6671 203.44 55.6608 203.424 55.6514C203.409 55.642 203.395 55.6296 203.384 55.6149C203.373 55.6002 203.365 55.5835 203.36 55.5658C203.356 55.5481 203.355 55.5298 203.358 55.5118C203.361 55.4938 203.367 55.4765 203.377 55.4609C203.386 55.4453 203.399 55.4318 203.414 55.421C203.429 55.4102 203.446 55.4024 203.464 55.3981C205.536 54.8898 207.608 54.2493 209.105 52.6685C211.001 50.6352 210.659 48.0937 210.312 45.608C209.721 41.3281 208.882 37.0888 207.893 32.9003C206.903 28.7118 205.754 24.5132 204.541 20.3603C203.386 16.4107 202.444 11.1802 198.175 9.32489C198.17 9.32356 198.165 9.32125 198.161 9.3181C198.157 9.31495 198.154 9.31103 198.151 9.30654C198.148 9.30206 198.147 9.2971 198.146 9.29197C198.145 9.28683 198.146 9.28161 198.147 9.2766C198.148 9.2716 198.151 9.2669 198.154 9.26279C198.157 9.25867 198.161 9.25522 198.166 9.25262C198.17 9.25002 198.175 9.24834 198.18 9.24766C198.186 9.24697 198.191 9.24731 198.196 9.24865Z" fill="#263238"/>
<path d="M185.251 16.6547C185.842 13.5337 187.323 10.4533 190.618 9.41638C186.391 10.9413 185.552 15.5771 185.153 19.4352C184.732 23.5016 184.466 27.5766 184.355 31.66C184.241 35.5893 184.215 39.5439 184.469 43.463C184.739 47.6972 185.697 51.6315 188.406 55.0168C188.415 55.0313 188.418 55.0484 188.416 55.0652C188.413 55.0819 188.404 55.0972 188.391 55.1082C188.378 55.1192 188.362 55.1253 188.344 55.1254C188.327 55.1254 188.31 55.1193 188.297 55.1083C185.661 52.394 184.671 48.5359 184.293 44.9015C183.9 40.0856 183.831 35.2496 184.086 30.4248C184.267 25.8754 184.397 21.1482 185.251 16.6547Z" fill="#263238"/>
<path d="M194.409 35.1827C188.473 42.3498 180.346 49.1205 176.943 49.0087C174.197 48.9223 157.777 39.2441 156.606 37.7751C155.607 36.5094 163.34 26.7346 164.941 27.4055C167.629 28.534 177.181 36.2908 177.994 36.1688C178.808 36.0468 185.5 33.1901 192.161 30.1148C198.533 27.1717 198.538 30.2063 194.409 35.1827Z" fill="#D3766A"/>
<path d="M158.425 39.117C157.109 38.3851 151.364 34.5422 150.007 33.0935C148.65 31.6449 145.06 27.2836 146.071 26.1551C147.081 25.0267 148.236 26.2263 148.236 26.2263C148.236 26.2263 147.018 24.1422 148.137 23.0951C149.256 22.048 150.997 23.9745 150.997 23.9745C150.997 23.9745 149.904 21.743 151.095 20.7823C152.286 19.8216 153.685 22.0378 153.685 22.0378C153.685 22.0378 152.592 20.0452 153.913 19.6538C155.508 19.1913 157.104 23.09 158.715 24.559C159.082 24.8894 166.64 30.7858 166.64 30.7858L158.425 39.117Z" fill="#D3766A"/>
<path d="M153.581 21.8497C154.763 24.7166 155.783 25.7739 158.3 27.553C158.347 27.5885 158.3 27.6648 158.254 27.6343C155.628 26.1094 154.151 24.9708 153.436 21.9006C153.4 21.7481 153.525 21.7176 153.581 21.8497Z" fill="#263238"/>
<path d="M150.903 23.7457C152.395 26.6176 153.493 27.7715 155.99 29.8454C156.026 29.8759 155.99 29.9369 155.943 29.9115C153.322 28.0968 151.872 26.9277 150.763 23.8626C150.717 23.705 150.836 23.6135 150.903 23.7457Z" fill="#263238"/>
<path d="M148.365 26.3278C150.013 29.0066 151.162 30.3231 153.846 32.0107C153.853 32.0141 153.859 32.0189 153.864 32.0247C153.869 32.0306 153.873 32.0374 153.875 32.0447C153.877 32.052 153.878 32.0597 153.877 32.0673C153.876 32.0749 153.874 32.0822 153.87 32.0888C153.866 32.0955 153.861 32.1012 153.854 32.1058C153.848 32.1103 153.841 32.1136 153.833 32.1153C153.826 32.117 153.818 32.1172 153.81 32.1158C153.802 32.1145 153.795 32.1116 153.789 32.1073C150.883 30.6485 149.438 29.0219 148.288 26.3837C148.21 26.2058 148.262 26.1601 148.365 26.3278Z" fill="#263238"/>
<path d="M169.163 30.7705C169.163 30.7705 167.894 27.1005 166.972 25.6112C166.05 24.1219 160.538 19.8063 159.518 20.9195C158.207 22.3631 160.89 25.4689 162.408 26.821C162.408 26.821 159.362 30.1504 160.797 32.7885C162.232 35.4267 169.163 30.7705 169.163 30.7705Z" fill="#D3766A"/>
<path d="M159.29 21.4328C159.057 23.5931 161.165 25.2451 162.537 26.6633C162.559 26.6837 162.575 26.7088 162.584 26.7365C162.594 26.7642 162.596 26.7937 162.592 26.8225C162.587 26.8514 162.576 26.8788 162.558 26.9024C162.54 26.926 162.517 26.9451 162.491 26.9581C161.31 28.4373 160.082 30.8569 160.678 32.7529C160.683 32.7643 160.683 32.7772 160.678 32.7886C160.673 32.8001 160.664 32.8092 160.652 32.8139C160.64 32.8186 160.627 32.8186 160.615 32.8138C160.604 32.809 160.595 32.7999 160.59 32.7885C159.673 30.8416 160.683 28.3611 162.082 26.8209C160.647 25.3875 158.611 23.644 159.269 21.4277C159.274 21.4176 159.29 21.4176 159.29 21.4328Z" fill="#263238"/>
<path d="M170.473 30.4605L160.269 42.8581C160.269 42.8581 173.824 50.005 177.362 49.3543C180.9 48.7037 185.262 45.6945 194.047 35.813C201.003 27.9901 195.502 27.924 191.162 30.0589C187.618 31.8024 178.621 35.7876 177.906 35.4775C177.191 35.1674 170.473 30.4605 170.473 30.4605Z" fill="#FFC727"/>
<path d="M160.269 42.8581C160.269 42.8581 172.529 49.3238 176.761 49.4001C176.959 49.4006 177.156 49.387 177.352 49.3594C180.879 48.7037 185.251 45.6945 194.042 35.813C197.118 32.3514 197.756 30.4096 197.149 29.4997C196.362 28.3611 193.586 28.8644 191.162 30.0589C187.624 31.8024 178.621 35.7875 177.906 35.4775C177.191 35.1674 170.489 30.4605 170.489 30.4605L160.269 42.8581Z" fill="#FFC727"/>
<path d="M172.643 32.8851C171.26 34.8065 169.789 36.6669 168.277 38.4765C167.536 39.3762 166.795 40.2708 166.018 41.1401C165.241 42.0093 164.35 42.8988 163.547 43.8087C163.511 43.8493 163.444 43.8087 163.48 43.7579C164.247 42.8277 164.951 41.8415 165.697 40.8961C166.443 39.9506 167.163 39.0967 167.904 38.1969C169.411 36.3721 170.934 34.5473 172.504 32.7682C172.511 32.7592 172.521 32.7518 172.532 32.7464C172.542 32.741 172.554 32.7377 172.566 32.7368C172.578 32.7359 172.59 32.7372 172.602 32.7409C172.613 32.7445 172.624 32.7504 172.633 32.758C172.642 32.7657 172.65 32.7751 172.655 32.7856C172.661 32.7962 172.664 32.8077 172.665 32.8195C172.666 32.8313 172.665 32.8431 172.661 32.8544C172.657 32.8657 172.651 32.8761 172.643 32.8851Z" fill="#263238"/>
<path d="M184.873 52.9074L184.547 59.6324C184.547 59.6324 192.617 60.5016 212.575 60.5016C212.575 60.5016 208.364 39.5999 201.609 31.8176C198.232 27.924 194.078 28.046 191.333 30.5723C190.638 31.167 184.205 41.7704 183.231 45.6894C182.34 49.1408 184.873 52.9074 184.873 52.9074Z" fill="#FFC727"/>
<path d="M192.659 32.7479L191.001 37.775C190.452 39.4694 189.934 41.1638 189.447 42.8581C188.991 44.5559 188.411 46.2638 188.763 47.9412C189.063 49.6543 189.717 51.289 190.685 52.7448L190.727 52.8109V52.882C190.664 54.0613 190.561 55.2406 190.483 56.4402C190.405 57.6398 190.286 58.7987 190.167 59.9984C190.167 58.8123 190.167 57.6262 190.167 56.4402C190.198 55.2558 190.203 54.0715 190.255 52.882L190.291 53.0193C189.264 51.5135 188.559 49.8188 188.219 48.0378C188.067 47.1334 188.092 46.2087 188.292 45.3133C188.478 44.439 188.717 43.5799 188.971 42.726C189.489 41.0231 190.079 39.3508 190.685 37.6836C191.291 36.0163 191.97 34.3846 192.659 32.7479Z" fill="#263238"/>
<path d="M188.789 39.4016C188.778 39.4577 188.778 39.5154 188.79 39.5715C188.802 39.6275 188.824 39.6807 188.857 39.7279C188.89 39.7752 188.932 39.8157 188.981 39.8469C189.03 39.8781 189.084 39.8995 189.142 39.9099C189.196 39.9148 189.251 39.9088 189.303 39.8924C189.356 39.876 189.404 39.8495 189.445 39.8144C189.487 39.7793 189.521 39.7364 189.545 39.6882C189.57 39.64 189.584 39.5875 189.587 39.5338C189.607 39.4207 189.581 39.3046 189.516 39.2097C189.45 39.1149 189.349 39.0488 189.235 39.0254C189.18 39.0206 189.125 39.0265 189.073 39.0429C189.021 39.0594 188.972 39.0859 188.931 39.121C188.889 39.1561 188.855 39.199 188.831 39.2472C188.807 39.2954 188.793 39.3479 188.789 39.4016Z" fill="#263238"/>
<path d="M187.199 44.3221C187.18 44.4349 187.207 44.5505 187.272 44.645C187.338 44.7395 187.437 44.8059 187.551 44.8304C187.606 44.836 187.662 44.8306 187.715 44.8145C187.767 44.7984 187.816 44.772 187.858 44.7368C187.901 44.7017 187.935 44.6585 187.96 44.6099C187.984 44.5614 187.999 44.5084 188.002 44.4542C188.023 44.3411 187.998 44.2242 187.932 44.1291C187.866 44.0339 187.765 43.9681 187.65 43.9459C187.595 43.9411 187.539 43.947 187.487 43.9633C187.434 43.9797 187.386 44.0061 187.344 44.0412C187.302 44.0762 187.267 44.1191 187.243 44.1673C187.218 44.2155 187.203 44.2682 187.199 44.3221Z" fill="#263238"/>
<path d="M187.199 49.2679C187.178 49.381 187.203 49.4979 187.269 49.5931C187.335 49.6882 187.436 49.754 187.551 49.7762C187.606 49.7818 187.662 49.7764 187.715 49.7603C187.767 49.7442 187.816 49.7178 187.859 49.6826C187.901 49.6475 187.935 49.6043 187.96 49.5558C187.984 49.5072 187.999 49.4542 188.002 49.4C188.013 49.3439 188.013 49.2862 188.001 49.2302C187.99 49.1742 187.967 49.121 187.934 49.0737C187.901 49.0264 187.859 48.986 187.81 48.9547C187.762 48.9235 187.707 48.9021 187.65 48.8917C187.595 48.8854 187.539 48.8903 187.486 48.9061C187.432 48.9219 187.383 48.9482 187.341 48.9835C187.299 49.0188 187.264 49.0623 187.24 49.1112C187.215 49.1601 187.202 49.2135 187.199 49.2679Z" fill="#263238"/>
<path d="M188.789 53.2886C188.777 53.3448 188.777 53.4027 188.788 53.459C188.8 53.5153 188.822 53.5688 188.855 53.6162C188.888 53.6637 188.93 53.7041 188.98 53.7352C189.029 53.7662 189.084 53.7872 189.141 53.7969C189.196 53.8025 189.252 53.7971 189.304 53.781C189.357 53.7648 189.405 53.7383 189.447 53.7031C189.489 53.6679 189.523 53.6247 189.547 53.5761C189.571 53.5276 189.584 53.4747 189.587 53.4208C189.598 53.3647 189.598 53.3069 189.586 53.2509C189.575 53.1949 189.552 53.1417 189.519 53.0944C189.486 53.0471 189.444 53.0067 189.395 52.9755C189.347 52.9442 189.292 52.9228 189.235 52.9125C189.18 52.9076 189.125 52.9136 189.073 52.93C189.021 52.9464 188.972 52.9729 188.931 53.008C188.889 53.0431 188.855 53.086 188.831 53.1342C188.807 53.1824 188.793 53.2349 188.789 53.2886Z" fill="#263238"/>
<path d="M188.453 57.7669C188.441 57.823 188.442 57.8807 188.453 57.9367C188.465 57.9927 188.488 58.0459 188.521 58.0932C188.553 58.1405 188.595 58.1809 188.644 58.2121C188.693 58.2434 188.748 58.2648 188.805 58.2752C188.859 58.28 188.914 58.2741 188.967 58.2577C189.019 58.2413 189.067 58.2147 189.109 58.1796C189.15 58.1446 189.184 58.1016 189.209 58.0534C189.233 58.0052 189.247 57.9527 189.25 57.899C189.262 57.8429 189.261 57.7852 189.25 57.7292C189.238 57.6731 189.215 57.6199 189.182 57.5727C189.15 57.5254 189.108 57.485 189.059 57.4537C189.01 57.4225 188.955 57.4011 188.898 57.3907C188.843 57.3843 188.788 57.3892 188.735 57.4051C188.682 57.4209 188.633 57.4474 188.591 57.4827C188.549 57.5181 188.515 57.5616 188.491 57.6105C188.468 57.6594 188.454 57.7127 188.453 57.7669Z" fill="#263238"/>
<path d="M187.339 36.8855C186.66 38.0089 186.028 39.1576 185.407 40.3115C185.562 39.7676 185.743 39.2288 185.925 38.6951C185.925 38.6544 185.873 38.629 185.852 38.6697C185.537 39.3133 185.317 39.998 185.2 40.7029C184.997 41.0791 184.795 41.4501 184.599 41.8263C184.215 42.5837 183.822 43.3512 183.516 44.1187C183.21 44.9097 183.035 45.7438 182.998 46.5891C182.998 46.6298 183.071 46.64 183.076 46.5891C183.22 45.7345 183.493 44.9056 183.884 44.1289C184.231 43.3512 184.619 42.604 184.997 41.8263C185.811 40.1946 186.614 38.5578 187.375 36.9058L187.339 36.8855Z" fill="#263238"/>
<path d="M202.091 32.8902C206.463 40.3166 214.181 55.5862 211.596 59.8306C209.012 64.075 194.472 66.7487 189.499 67.6331C187.857 67.9178 181.947 56.4503 183.573 55.759C186.334 54.5594 199.46 52.2009 199.879 51.352C200.138 50.803 197.569 40.7944 197.264 34.9132C196.87 27.2632 200.734 30.5824 202.091 32.8902Z" fill="#D3766A"/>
<path d="M185.008 55.2812C185.008 55.2812 179.828 55.9877 176.492 56.6028C174.622 56.9484 171.468 57.8177 170.214 58.6869C168.334 59.9881 161.32 66.6063 162.921 68.3092C164.366 69.8341 169.655 63.4141 169.655 63.4141C169.655 63.4141 163.734 69.4478 165.822 70.988C167.909 72.5281 172.903 64.4816 172.903 64.4816C172.903 64.4816 166.961 70.81 169.37 72.0656C171.193 73.0161 176.135 65.9659 176.135 65.9659C176.135 65.9659 171.064 71.4454 172.897 72.4976C174.917 73.6667 179.895 67.445 179.895 67.445C185.008 69.3563 188.245 68.2126 190.447 67.135C191.001 66.8757 185.008 55.2812 185.008 55.2812Z" fill="#D3766A"/>
<path d="M171.566 61.1979C170.846 61.8842 170.11 62.5704 169.453 63.3176C168.795 64.0648 168.163 64.8425 167.583 65.6304C166.796 66.6619 166.134 67.7791 165.609 68.9598C166.697 66.9266 169.012 64.2326 169.67 63.4853C170.328 62.7381 170.944 61.9604 171.597 61.2234C171.613 61.203 171.587 61.1827 171.566 61.1979Z" fill="#263238"/>
<path d="M174.353 63.4802C173.467 64.3952 172.555 65.2695 171.716 66.22C170.877 67.1706 170.162 68.1364 169.396 69.1326C169.333 69.214 169.396 69.2191 169.458 69.1326C170.271 68.1618 171.095 67.3281 171.918 66.3674C172.742 65.4067 173.519 64.4155 174.374 63.4904C174.389 63.4853 174.363 63.465 174.353 63.4802Z" fill="#263238"/>
<path d="M177.098 65.0153C175.709 66.3836 174.466 67.8875 173.389 69.5037C173.337 69.5851 173.415 69.5851 173.477 69.5037C174.679 67.9788 175.617 66.7944 177.145 65.0662C177.171 65.0408 177.129 64.9899 177.098 65.0153Z" fill="#263238"/>
<path d="M184.542 55.0575L195.026 67.7653C195.026 67.7653 210.203 64.3494 212.363 59.2714C214.523 54.1934 207.183 39.915 203.158 34.0033C199.134 28.0917 196.549 28.2391 197.02 35.02C197.445 41.0841 199.734 50.8386 199.496 51.169C199.258 51.4994 184.542 55.0575 184.542 55.0575Z" fill="#FFC727"/>
<path d="M188.504 54.8034C190.136 56.5215 191.69 58.3209 193.203 60.1407C193.943 61.0353 194.684 61.935 195.394 62.855C196.103 63.7751 196.808 64.8171 197.549 65.7727C197.585 65.8185 197.517 65.8693 197.486 65.8287C196.715 64.9035 195.875 64.0242 195.088 63.1143C194.301 62.2044 193.586 61.3352 192.845 60.4457C191.327 58.6208 189.82 56.7858 188.37 54.9152C188.355 54.8977 188.347 54.875 188.349 54.8521C188.351 54.8293 188.362 54.8081 188.38 54.7932C188.398 54.7784 188.421 54.7712 188.444 54.7731C188.468 54.775 188.489 54.7859 188.504 54.8034Z" fill="#263238"/>
<path d="M184.511 55.0576C185.681 54.9661 199.6 51.4638 199.615 51.4587C199.631 51.4537 198.942 47.1229 198.792 46.3045C198.496 44.6372 198.165 42.97 197.797 41.3129C197.797 41.2773 197.719 41.2773 197.725 41.3129C197.807 42.3295 197.921 43.3461 198.056 44.3322C197.901 43.9002 197.735 43.463 197.538 43.0411C197.538 43.0005 197.46 43.0411 197.471 43.0411C197.704 43.8951 197.989 44.7389 198.232 45.5827C198.268 45.8013 198.289 46.0249 198.325 46.2486C198.465 47.0873 198.615 47.926 198.781 48.7545C198.859 49.1663 199.18 50.7573 199.258 51.1843C197.409 51.5401 185.562 54.5442 184.485 54.9508C184.454 54.9712 184.469 55.0576 184.511 55.0576Z" fill="#263238"/>
<path d="M212.342 59.3426C212.157 59.7413 211.911 60.1099 211.612 60.4355C211.57 60.471 211.612 60.4812 211.674 60.4355C212.015 60.1578 212.257 59.7801 212.363 59.3578C212.363 59.3426 212.353 59.3172 212.342 59.3426Z" fill="#263238"/>
<path d="M197.44 29.881C197.357 30.3893 195.14 33.8814 192.778 33.9474C192.006 33.9474 191.7 29.825 191.7 29.825L191.607 29.5251L190.302 25.3113L195.176 21.7023L195.886 21.2194C195.886 21.2194 196.165 22.3936 196.502 23.8626C196.502 23.9287 196.533 23.9947 196.549 24.071C196.564 24.1472 196.59 24.2286 196.606 24.3099L196.761 24.9707C196.797 25.1435 196.834 25.3062 196.865 25.479C196.896 25.6518 196.937 25.8348 196.973 25.9873C197.219 27.2733 197.375 28.5742 197.44 29.881Z" fill="#D3766A"/>
<path d="M196.486 23.8677C196.138 25.1033 195.519 26.2497 194.674 27.2275C193.829 28.2053 192.777 28.991 191.591 29.5303L190.286 25.3164L195.16 21.7074L195.87 21.2245C195.87 21.2245 196.15 22.3987 196.486 23.8677Z" fill="#263238"/>
<path d="M183.962 18.2661C182.977 25.9314 187.546 27.3699 189.23 27.5783C190.758 27.7664 195.989 28.2086 197.776 20.6856C199.563 13.1626 196.222 10.2907 192.762 9.6807C189.302 9.07073 184.941 10.5957 183.962 18.2661Z" fill="#D3766A"/>
<path d="M185.562 16.2431C185.749 16.2431 185.925 16.2126 186.111 16.1973C186.305 16.2066 186.496 16.153 186.655 16.0448C186.699 16.0015 186.727 15.9449 186.735 15.8841C186.742 15.8233 186.729 15.7618 186.697 15.7093C186.618 15.6145 186.515 15.5422 186.399 15.5002C186.282 15.4581 186.156 15.4478 186.034 15.4704C185.779 15.4764 185.536 15.5741 185.35 15.7449C185.31 15.7864 185.282 15.8385 185.272 15.8948C185.261 15.9511 185.268 16.0092 185.29 16.0621C185.313 16.1149 185.35 16.1602 185.399 16.1923C185.447 16.2245 185.504 16.2421 185.562 16.2431Z" fill="#263238"/>
<path d="M190.742 16.9343C190.566 16.8882 190.392 16.8305 190.224 16.7615C190.025 16.7295 189.842 16.6328 189.706 16.487C189.674 16.434 189.662 16.3722 189.67 16.3114C189.679 16.2505 189.708 16.1943 189.753 16.1515C189.851 16.0773 189.968 16.0309 190.091 16.0175C190.215 16.0041 190.339 16.024 190.452 16.0753C190.699 16.1379 190.912 16.2906 191.048 16.5022C191.074 16.5502 191.086 16.6044 191.083 16.6588C191.08 16.7131 191.062 16.7656 191.03 16.8104C190.998 16.8551 190.955 16.8904 190.904 16.9123C190.853 16.9342 190.797 16.9418 190.742 16.9343Z" fill="#263238"/>
<path d="M189.318 18.7388C189.318 18.7388 189.354 18.7693 189.354 18.7896C189.255 19.2979 189.24 19.9231 189.696 20.1671C189.696 20.1671 189.696 20.2027 189.696 20.1976C189.11 20.0299 189.142 19.2166 189.318 18.7388Z" fill="#263238"/>
<path d="M189.877 18.261C190.742 18.3169 190.561 20.0198 189.753 19.9638C188.945 19.9079 189.147 18.2102 189.877 18.261Z" fill="#263238"/>
<path d="M190.209 18.383C190.348 18.4949 190.478 18.6829 190.659 18.7185C190.84 18.7541 191.043 18.6016 191.203 18.444H191.229C191.198 18.7744 191.032 19.0947 190.675 19.1048C190.317 19.115 190.157 18.7998 190.095 18.4644C190.084 18.4237 190.152 18.3424 190.209 18.383Z" fill="#263238"/>
<path d="M186.339 18.2915C186.339 18.2915 186.293 18.2915 186.293 18.3322C186.256 18.8405 186.127 19.4606 185.619 19.5877V19.6182C186.246 19.5928 186.412 18.7947 186.339 18.2915Z" fill="#263238"/>
<path d="M185.935 17.6917C185.08 17.5443 184.837 19.2166 185.635 19.3742C186.432 19.5318 186.655 17.8188 185.935 17.6917Z" fill="#263238"/>
<path d="M185.562 17.7578C185.412 17.8289 185.251 17.9713 185.091 17.9611C184.93 17.9509 184.785 17.7425 184.692 17.5544C184.692 17.5544 184.666 17.5544 184.661 17.5544C184.604 17.8747 184.661 18.2254 184.977 18.3322C185.293 18.4389 185.495 18.1797 185.63 17.8696C185.655 17.8238 185.619 17.7273 185.562 17.7578Z" fill="#263238"/>
<path d="M188.81 22.9375C188.67 23.0544 188.535 23.2171 188.339 23.2221C188.138 23.2078 187.944 23.1505 187.769 23.0544C187.769 23.0544 187.732 23.0544 187.743 23.0798C187.812 23.1889 187.911 23.2773 188.028 23.3355C188.144 23.3937 188.275 23.4196 188.406 23.4102C188.517 23.3883 188.619 23.3347 188.699 23.256C188.78 23.1773 188.834 23.0771 188.857 22.968C188.857 22.9623 188.856 22.9565 188.854 22.9513C188.852 22.946 188.848 22.9415 188.843 22.9383C188.838 22.9352 188.832 22.9334 188.827 22.9332C188.821 22.9331 188.815 22.9346 188.81 22.9375Z" fill="#263238"/>
<path d="M186.8 20.7771C186.697 21.1539 186.614 21.5356 186.551 21.9208C186.551 21.9564 186.634 21.9818 186.764 22.0072C187.081 22.1021 187.418 22.1101 187.74 22.0303C188.061 21.9506 188.354 21.7861 188.587 21.5548C188.618 21.5192 188.587 21.4786 188.535 21.4938C188.017 21.7609 187.424 21.8555 186.847 21.7632C186.847 21.6565 187.24 20.4518 187.183 20.4416C186.887 20.434 186.591 20.4648 186.303 20.5331C186.681 18.9116 187.339 17.3663 187.681 15.7448C187.681 15.6889 187.608 15.6584 187.587 15.7092C186.845 17.3431 186.273 19.046 185.878 20.7923C185.821 21.0007 186.64 20.8228 186.8 20.7771Z" fill="#263238"/>
<path d="M186.857 21.9158C187.034 22.2317 187.291 22.4977 187.603 22.6884C187.775 22.7885 187.975 22.8313 188.173 22.8104C188.608 22.7697 188.691 22.3936 188.649 22.0581C188.633 21.8852 188.596 21.7147 188.541 21.5498C188.034 21.8454 187.444 21.9737 186.857 21.9158Z" fill="#263238"/>
<path d="M187.603 22.6884C187.775 22.7884 187.974 22.8312 188.173 22.8103C188.608 22.7697 188.691 22.3935 188.649 22.058C188.428 22.0331 188.205 22.0816 188.015 22.1958C187.826 22.3101 187.68 22.4835 187.603 22.6884Z" fill="#FF9ABB"/>
<path d="M197.528 20.2688C196.057 20.4874 195.606 17.1885 195.606 17.1885C195.606 17.1885 189.312 16.2837 188.665 11.287C187.922 13.3445 186.398 15.0414 184.412 16.0244C184.412 16.0244 184.505 10.5296 188.913 9.36051C188.913 9.36051 194.373 7.27135 197.569 11.4903C200.765 15.7093 198.512 20.1265 197.528 20.2688Z" fill="#263238"/>
<path d="M188.634 10.921C188.576 11.6947 188.689 12.4715 188.965 13.1982C189.231 13.9407 189.651 14.621 190.198 15.1959C190.334 15.3391 190.477 15.4749 190.628 15.6026L190.851 15.7957C190.929 15.8567 191.012 15.9126 191.094 15.9685C191.26 16.0753 191.421 16.1922 191.586 16.2939L192.104 16.5633L192.369 16.6903L192.648 16.7869L193.203 16.9801C193.586 17.0767 193.969 17.1529 194.353 17.2241C193.99 17.0767 193.617 16.9699 193.265 16.8225L192.747 16.5836L192.488 16.4667L192.239 16.3244L191.747 16.0346C191.592 15.933 191.441 15.816 191.291 15.7042L191.063 15.5365L190.856 15.3484C190.713 15.227 190.578 15.0963 190.452 14.957C189.935 14.4122 189.516 13.7847 189.214 13.1017C189.06 12.7579 188.933 12.4027 188.836 12.0393C188.735 11.6731 188.668 11.2989 188.634 10.921Z" fill="#263238"/>
<path d="M196.461 20.4214C196.461 20.4214 198.268 18.0781 199.361 18.7185C200.454 19.359 199.025 22.785 197.693 23.2374C197.527 23.3038 197.349 23.3365 197.17 23.3333C196.99 23.3302 196.813 23.2913 196.649 23.219C196.486 23.1468 196.339 23.0427 196.217 22.9131C196.096 22.7834 196.002 22.6309 195.943 22.4648L196.461 20.4214Z" fill="#D3766A"/>
<path d="M198.926 19.6996C198.926 19.6996 198.952 19.725 198.926 19.7301C197.994 20.0605 197.481 20.8789 197.108 21.7328C197.164 21.6445 197.239 21.5692 197.328 21.5122C197.417 21.4553 197.518 21.418 197.623 21.403C197.728 21.388 197.835 21.3957 197.936 21.4254C198.038 21.4551 198.132 21.5063 198.211 21.5752C198.237 21.5752 198.211 21.6261 198.186 21.621C198.026 21.5662 197.853 21.5608 197.69 21.6053C197.527 21.6498 197.382 21.7422 197.274 21.8701C197.096 22.0847 196.943 22.3183 196.818 22.5665C196.771 22.6478 196.621 22.597 196.657 22.5055C196.699 21.3363 197.668 19.7657 198.926 19.6996Z" fill="#263238"/>
<path d="M191.545 29.393L192.721 32.9512L197.383 28.8847L198.527 30.369C198.527 30.369 193.767 37.0227 193.762 36.7076L192.519 33.6323L190.286 35.5639L190.804 30.3791L191.545 29.393Z" fill="#FFC727"/>
<path d="M190.411 32.9664C190.524 32.1124 190.618 31.2483 190.773 30.4248C190.773 30.3943 190.83 30.3842 190.835 30.4248C190.954 31.2635 190.488 34.5218 190.436 35.3097C190.53 35.2284 192.508 33.6221 192.508 33.6475C192.793 34.1558 193.705 36.3822 193.762 36.5805C194.518 35.5232 197.688 31.3703 198.559 30.3791C198.584 30.3791 198.631 30.3791 198.61 30.4147C197.932 31.538 193.829 37.0227 193.777 37.0227C193.285 35.9636 192.851 34.8793 192.477 33.7746C191.745 34.5116 190.963 35.1994 190.136 35.8333C190.174 34.8734 190.265 33.9163 190.411 32.9664Z" fill="#263238"/>
<path d="M20.5826 98.7112C20.7066 96.6096 21.008 94.5218 21.4839 92.4691C21.8623 90.5783 22.6366 88.7851 23.7578 87.203C24.2798 86.4812 24.943 85.8685 25.7087 85.4008C26.4744 84.933 27.3273 84.6195 28.2177 84.4785C29.9634 84.265 31.6002 85.0275 32.8797 86.1102C34.4958 87.447 35.739 89.2159 36.8993 90.929C38.174 92.8499 39.3328 94.8425 40.3698 96.8965C40.3774 96.91 40.3791 96.9259 40.3748 96.9406C40.3704 96.9554 40.3602 96.9679 40.3465 96.9753C40.3328 96.9827 40.3166 96.9845 40.3015 96.9802C40.2865 96.9759 40.2738 96.9659 40.2662 96.9524C39.3657 95.2109 38.3265 93.5418 37.1583 91.9608C36.095 90.4453 34.8972 89.0249 33.5789 87.7164C32.3824 86.5677 30.8595 85.4951 29.1242 85.4392C28.2728 85.4477 27.4352 85.651 26.678 86.0331C25.9208 86.4152 25.265 86.9655 24.7627 87.6402C23.6024 89.1041 23.0068 90.929 22.5665 92.7233C22.1077 94.6793 21.808 96.6679 21.6703 98.6705C21.3285 102.783 21.2352 106.925 21.1523 111.048C21.1178 113.369 21.1005 115.697 21.1005 118.032C21.1005 119.216 21.1005 120.396 21.1005 121.59C21.1448 122.732 21.098 123.876 20.9607 125.011C20.9193 125.24 20.5359 125.22 20.4997 125.011C20.358 123.936 20.3043 122.852 20.3391 121.768C20.3391 120.65 20.3253 119.528 20.2977 118.403C20.2769 116.228 20.2683 114.049 20.2718 111.866C20.2459 107.469 20.2977 103.078 20.5826 98.7112Z" fill="#263238"/>
<path d="M26.5911 95.6105C26.8138 94.4464 27.2127 92.9317 27.8913 92.0523C29.1034 90.4308 30.4139 91.1374 29.2018 92.9317C28.3072 94.262 27.7251 95.7708 27.4976 97.3489C27.4976 97.3489 29.5385 100.211 31.9989 101.619C31.8953 100.521 31.5794 98.8281 31.7969 97.1964C32.2683 93.6636 34.449 93.8619 33.9103 96.6881C33.5091 98.5539 33.3352 100.46 33.3923 102.366C34.2153 102.889 35.0986 103.313 36.0237 103.632C35.8839 103.22 35.7336 102.732 35.5679 102.107C34.6925 98.9399 36.8421 97.9538 36.9147 99.7329C37.0512 101.253 37.3304 102.757 37.7486 104.226C38.9297 104.618 39.9087 104.882 40.5095 105.09C42.0598 105.654 43.4454 106.583 44.5447 107.795C45.6681 106.802 46.5998 105.619 47.2952 104.303C46.5441 103.667 45.3527 102.722 43.7055 101.583C40.5976 99.438 41.6854 96.7288 44.1406 98.4113C45.9122 99.6261 47.2848 101.878 47.9064 103.032C48.7458 101.02 49.2208 98.8803 49.3102 96.7084C46.8808 94.4719 40.8669 91.3508 42.6799 91.3508C44.3116 91.3508 47.9582 93.6992 49.2998 94.604C49.2635 93.9875 49.1943 93.3733 49.0926 92.7639C46.8031 91.2898 39.3648 89.0025 40.551 88.3416C41.8511 87.6198 47.0414 89.9784 48.6109 90.7256C48.3173 89.7244 47.8532 88.7792 47.2382 87.9299C44.0733 83.7719 38.3702 82.3385 35.8787 83.1365C34.1175 83.6957 34.6355 88.0773 34.2574 87.9299C27.2075 85.119 23.9908 87.081 26.5911 95.6105ZM43.9334 95.1327C44.4514 94.5379 46.7565 96.2865 46.0831 97.2421C45.4097 98.1978 43.286 95.8951 43.9334 95.1327ZM31.8021 91.3915C32.4133 91.7727 31.512 93.989 30.5693 93.318C29.7664 92.7436 31.1857 91.0052 31.8021 91.3915Z" fill="#3D8504"/>
<path opacity="0.2" d="M26.5911 95.6105C26.8138 94.4464 27.2127 92.9317 27.8913 92.0523C29.1034 90.4308 30.4139 91.1374 29.2018 92.9317C28.3072 94.262 27.7251 95.7708 27.4976 97.3489C27.4976 97.3489 29.5385 100.211 31.9989 101.619C31.8953 100.521 31.5794 98.8281 31.7969 97.1964C32.2683 93.6636 34.449 93.8619 33.9103 96.6881C33.5091 98.5539 33.3352 100.46 33.3923 102.366C34.2153 102.889 35.0986 103.313 36.0237 103.632C35.8839 103.22 35.7336 102.732 35.5679 102.107C34.6925 98.9399 36.8421 97.9538 36.9147 99.7329C37.0512 101.253 37.3304 102.757 37.7486 104.226C38.9297 104.618 39.9087 104.882 40.5095 105.09C42.0598 105.654 43.4454 106.583 44.5447 107.795C45.6681 106.802 46.5998 105.619 47.2952 104.303C46.5441 103.667 45.3527 102.722 43.7055 101.583C40.5976 99.438 41.6854 96.7288 44.1406 98.4113C45.9122 99.6261 47.2848 101.878 47.9064 103.032C48.7458 101.02 49.2208 98.8803 49.3102 96.7084C46.8808 94.4719 40.8669 91.3508 42.6799 91.3508C44.3116 91.3508 47.9582 93.6992 49.2998 94.604C49.2635 93.9875 49.1943 93.3733 49.0926 92.7639C46.8031 91.2898 39.3648 89.0025 40.551 88.3416C41.8511 87.6198 47.0414 89.9784 48.6109 90.7256C48.3173 89.7244 47.8532 88.7792 47.2382 87.9299C44.0733 83.7719 38.3702 82.3385 35.8787 83.1365C34.1175 83.6957 34.6355 88.0773 34.2574 87.9299C27.2075 85.119 23.9908 87.081 26.5911 95.6105ZM43.9334 95.1327C44.4514 94.5379 46.7565 96.2865 46.0831 97.2421C45.4097 98.1978 43.286 95.8951 43.9334 95.1327ZM31.8021 91.3915C32.4133 91.7727 31.512 93.989 30.5693 93.318C29.7664 92.7436 31.1857 91.0052 31.8021 91.3915Z" fill="black"/>
<path d="M32.7294 92.0727C33.0454 91.4525 33.3821 90.8375 33.7654 90.2376C34.1009 89.6484 34.4929 89.0918 34.936 88.5755L34.6304 88.2095C34.589 88.1637 34.6615 88.0926 34.7081 88.1434L35.05 88.545C35.0736 88.5568 35.092 88.5767 35.1018 88.6009C35.5369 89.1092 35.9513 89.648 36.345 90.1868C37.0472 90.3398 37.7391 90.535 38.4169 90.7714C39.111 91.0001 39.8 91.2339 40.4889 91.5135C40.5614 91.544 40.5252 91.6558 40.4578 91.6253C39.7896 91.3356 39.111 91.056 38.4169 90.8273C37.7228 90.5986 37.0961 90.441 36.433 90.258C36.6454 90.5579 36.8578 90.8578 37.065 91.1628C38.3107 91.5529 39.5232 92.039 40.6909 92.6165C41.9185 93.1909 43.0996 93.8568 44.2754 94.5227C44.2853 94.5323 44.2917 94.5449 44.2934 94.5585C44.2952 94.572 44.2922 94.5858 44.2851 94.5975C44.2779 94.6093 44.2669 94.6183 44.2539 94.6231C44.2409 94.628 44.2266 94.6284 44.2132 94.6244C43.0581 93.961 41.8685 93.357 40.6495 92.8148C39.5099 92.3065 38.3341 91.8592 37.1841 91.361C40.0745 95.7884 41.8046 100.892 44.12 105.619C44.1563 105.685 44.0475 105.741 44.0164 105.675C43.3119 104.018 42.4935 102.402 41.7269 100.77C41.0328 99.3059 40.3594 97.8369 39.6549 96.373C39.4546 95.946 39.2474 95.519 39.0333 95.092C39.1628 97.4557 39.111 99.8549 39.5047 102.208C39.5075 102.217 39.508 102.227 39.5063 102.236C39.5047 102.246 39.5008 102.255 39.495 102.262C39.4892 102.27 39.4817 102.276 39.473 102.28C39.4644 102.285 39.4548 102.287 39.4451 102.287C39.4355 102.287 39.4259 102.285 39.4173 102.28C39.4086 102.276 39.4011 102.27 39.3953 102.262C39.3895 102.255 39.3856 102.246 39.3839 102.236C39.3822 102.227 39.3828 102.217 39.3856 102.208C39.2198 99.6668 38.764 97.2015 38.7847 94.6599C38.7847 94.6599 38.7847 94.66 38.7847 94.6295C38.2667 93.6637 37.7487 92.708 37.2307 91.7829C36.2724 93.9941 35.2675 96.2408 34.8221 98.6146C34.8221 98.6858 34.6874 98.6553 34.7081 98.579C35.3556 96.2001 35.9617 93.8162 37.1271 91.6152C36.5148 90.6138 35.8366 89.6527 35.0966 88.7381C34.7755 89.3278 34.3611 89.8818 33.9985 90.441C33.6359 91.0001 33.2888 91.544 32.9625 92.1082C32.251 93.3035 31.6462 94.5569 31.1547 95.8545C31.1547 95.9307 31.0097 95.8901 31.0407 95.824C31.538 94.5583 32.0974 93.2926 32.7294 92.0727Z" fill="#263238"/>
<path d="M9.95344 97.4505C11.8078 95.6257 13.9627 93.2316 16.8272 93.2366C19.5932 93.2366 21.6289 95.4275 22.7996 97.6793C24.0221 100.038 24.4624 102.706 24.8042 105.304C25.2097 108.414 25.4552 111.543 25.5398 114.677C25.5916 116.416 25.5812 118.159 25.5398 119.897C25.541 121.662 25.4042 123.424 25.1306 125.169C25.0788 125.448 24.6126 125.458 24.6126 125.169C24.5297 123.7 24.6126 122.231 24.6126 120.762C24.6126 119.293 24.6126 117.874 24.5452 116.431C24.4365 113.513 24.2189 110.595 23.8718 107.693C23.5662 105.151 23.3228 102.554 22.551 100.109C21.8517 97.8979 20.5463 95.3715 18.2672 94.4007C15.1592 93.0791 12.1135 95.4986 10.0726 97.542C9.99488 97.5776 9.90164 97.5014 9.95344 97.4505Z" fill="#263238"/>
<path d="M0.5 101.527C0.5 101.898 0.53626 102.269 0.562159 102.625C1.4545 101.974 2.49736 101.549 3.59758 101.39C6.22898 101.115 6.06322 103.083 4.30205 103.164C3.05924 103.177 1.82973 103.417 0.676117 103.87C1.10605 107.281 2.06433 110.021 2.20419 110.062C4.54909 109.934 6.88215 109.647 9.1867 109.203C8.53404 107.835 7.0474 106.016 7.80367 105.868C8.55994 105.721 9.3939 107.342 9.81347 109.081C11.5328 108.757 13.2233 108.299 14.8691 107.713C13.7139 106.732 11.9269 105.507 12.6106 104.984C13.2944 104.46 14.7137 106.188 15.5632 107.439C16.3381 107.128 17.072 106.727 17.7491 106.244C16.1951 103.992 12.3879 103.535 12.8852 101.914C13.3824 100.292 16.9358 102.539 18.5313 105.548C20.4064 103.642 20.9555 100.943 20.7586 98.6349C19.1269 98.4468 15.9827 98.7874 16.2107 97.6183C16.4386 96.4492 18.7074 96.6881 20.567 97.3591C20.3955 96.4448 20.0245 95.5777 19.4792 94.8175C17.7543 92.6521 12.5018 95.4071 12.5018 95.4071C12.5018 95.4071 13.0665 90.2275 11.0618 89.3328C9.90671 88.8245 7.87101 88.8245 5.82494 90.0038C6.97488 90.0953 8.35792 90.4511 8.93289 91.2339C9.64772 92.2505 8.52368 92.7589 7.80885 92.3115C7.29086 91.9862 6.36883 90.9594 4.66982 90.8273C3.94676 91.4174 3.30895 92.1015 2.77398 92.8605C2.58232 93.1248 2.40103 93.4095 2.21973 93.7145C3.18979 93.2878 4.24389 93.0766 5.30674 93.096C6.3696 93.1153 7.41499 93.3647 8.36828 93.8263C10.6474 94.9344 9.37318 97.2574 7.41518 96.3678C5.45717 95.4783 3.5924 94.5786 1.51526 95.092C0.783854 96.9297 0.443627 98.8948 0.51554 100.866C1.53129 100.14 2.67425 99.6023 3.88766 99.2805C6.15128 98.6959 6.83503 100.023 4.34867 100.272C2.99155 100.426 1.68145 100.854 0.5 101.527ZM3.25053 97.969C3.09513 97.2523 4.70091 97.0439 4.97026 97.6285C5.193 98.1164 3.40593 98.6807 3.25053 97.9589V97.969ZM16.9876 101.954C17.1379 101.563 18.2153 102.01 18.1169 102.498C17.9925 103.144 16.8426 102.33 16.9876 101.944V101.954ZM9.40426 104.496C10.1864 104.191 11.4089 106.097 10.5594 106.529C9.70988 106.961 8.76713 104.724 9.40426 104.47V104.496Z" fill="#3D8504"/>
<path opacity="0.2" d="M0.5 101.527C0.5 101.898 0.53626 102.269 0.562159 102.625C1.4545 101.974 2.49736 101.549 3.59758 101.39C6.22898 101.115 6.06322 103.083 4.30205 103.164C3.05924 103.177 1.82973 103.417 0.676117 103.87C1.10605 107.281 2.06433 110.021 2.20419 110.062C4.54909 109.934 6.88215 109.647 9.1867 109.203C8.53404 107.835 7.0474 106.016 7.80367 105.868C8.55994 105.721 9.3939 107.342 9.81347 109.081C11.5328 108.757 13.2233 108.299 14.8691 107.713C13.7139 106.732 11.9269 105.507 12.6106 104.984C13.2944 104.46 14.7137 106.188 15.5632 107.439C16.3381 107.128 17.072 106.727 17.7491 106.244C16.1951 103.992 12.3879 103.535 12.8852 101.914C13.3824 100.292 16.9358 102.539 18.5313 105.548C20.4064 103.642 20.9555 100.943 20.7586 98.6349C19.1269 98.4468 15.9827 98.7874 16.2107 97.6183C16.4386 96.4492 18.7074 96.6881 20.567 97.3591C20.3955 96.4448 20.0245 95.5777 19.4792 94.8175C17.7543 92.6521 12.5018 95.4071 12.5018 95.4071C12.5018 95.4071 13.0665 90.2275 11.0618 89.3328C9.90671 88.8245 7.87101 88.8245 5.82494 90.0038C6.97488 90.0953 8.35792 90.4511 8.93289 91.2339C9.64772 92.2505 8.52368 92.7589 7.80885 92.3115C7.29086 91.9862 6.36883 90.9594 4.66982 90.8273C3.94676 91.4174 3.30895 92.1015 2.77398 92.8605C2.58232 93.1248 2.40103 93.4095 2.21973 93.7145C3.18979 93.2878 4.24389 93.0766 5.30674 93.096C6.3696 93.1153 7.41499 93.3647 8.36828 93.8263C10.6474 94.9344 9.37318 97.2574 7.41518 96.3678C5.45717 95.4783 3.5924 94.5786 1.51526 95.092C0.783854 96.9297 0.443627 98.8948 0.51554 100.866C1.53129 100.14 2.67425 99.6023 3.88766 99.2805C6.15128 98.6959 6.83503 100.023 4.34867 100.272C2.99155 100.426 1.68145 100.854 0.5 101.527ZM3.25053 97.969C3.09513 97.2523 4.70091 97.0439 4.97026 97.6285C5.193 98.1164 3.40593 98.6807 3.25053 97.9589V97.969ZM16.9876 101.954C17.1379 101.563 18.2153 102.01 18.1169 102.498C17.9925 103.144 16.8426 102.33 16.9876 101.944V101.954ZM9.40426 104.496C10.1864 104.191 11.4089 106.097 10.5594 106.529C9.70988 106.961 8.76713 104.724 9.40426 104.47V104.496Z" fill="black"/>
<path d="M2.53043 109.67C3.70627 107.734 4.87174 105.792 6.11492 103.891C6.68989 103.006 7.29594 102.137 7.92271 101.288C7.82947 101.288 7.73105 101.237 7.64299 101.222L7.17162 101.131C6.80903 101.07 6.44126 101.019 6.07866 100.983C5.71607 100.948 5.38973 100.932 5.04268 100.927C4.67221 100.905 4.30037 100.924 3.93418 100.983C3.88756 100.983 3.88238 100.922 3.93418 100.927C4.30195 100.927 4.68009 100.892 5.05304 100.887C5.42599 100.882 5.76787 100.887 6.12528 100.887C6.48269 100.887 6.79867 100.938 7.13018 100.988L7.67925 101.085C7.78803 101.085 7.90199 101.121 8.01077 101.151C8.6479 100.292 9.31092 99.4431 9.99985 98.6095C7.95824 97.6289 5.78248 96.944 3.54051 96.5763C3.50425 96.5763 3.54051 96.5102 3.54051 96.5153C5.81525 96.8258 8.0263 97.4844 10.0931 98.4672L11.2586 97.1558C11.6885 96.6474 12.1443 96.1391 12.5276 95.6308C12.5535 95.5952 12.6053 95.6308 12.5794 95.6664C12.047 96.2386 11.5472 96.8393 11.0825 97.4658C11.9238 98.0431 12.725 98.6748 13.4807 99.3567C14.2681 100.034 15.033 100.739 15.7754 101.471C15.8065 101.497 15.7754 101.542 15.734 101.517C14.9985 100.795 14.237 100.114 13.4393 99.4838C12.6416 98.8535 11.8025 98.2334 11.0048 97.5929C10.8235 97.8267 10.6422 98.0656 10.4557 98.2995L10.1811 98.6553V98.6807L9.26431 99.86C9.62225 100.368 9.92765 100.909 10.176 101.476C10.4401 102.02 10.694 102.584 10.8804 103.154C11.3039 104.335 11.633 105.547 11.8646 106.778C11.8646 106.819 11.818 106.834 11.8076 106.778C11.557 105.563 11.1982 104.373 10.7354 103.22C10.5075 102.63 10.2433 102.051 9.97395 101.476C9.7046 100.902 9.45596 100.46 9.20215 99.921C8.93797 100.267 8.68415 100.612 8.4148 100.938L8.19724 101.243C8.20453 101.25 8.20859 101.26 8.20859 101.271C8.20859 101.281 8.20453 101.291 8.19724 101.298C7.38918 102.412 6.61737 103.55 5.86629 104.699C5.91225 104.777 5.94711 104.861 5.96988 104.948C6.0165 105.09 6.06312 105.228 6.10456 105.37C6.18744 105.655 6.25478 105.944 6.31176 106.234C6.36874 106.524 6.39982 106.783 6.42571 107.058C6.43145 107.37 6.45567 107.683 6.49824 107.993C6.49824 108.044 6.4309 108.044 6.44126 107.993C6.46288 107.7 6.44019 107.405 6.37392 107.119C6.33245 106.818 6.2754 106.519 6.20298 106.224C6.14082 105.96 6.0683 105.716 5.9906 105.436C5.94917 105.304 5.90255 105.172 5.86111 105.045C5.81967 104.918 5.79895 104.902 5.77823 104.831C5.42599 105.37 5.07894 105.914 4.74224 106.458L2.71172 109.711C2.58222 109.777 2.49417 109.726 2.53043 109.67Z" fill="#263238"/>
<path d="M20.7224 124.538C20.7535 123.44 20.9296 122.337 21.0539 121.245C21.1782 120.152 21.3026 119.054 21.4217 117.956C21.5708 115.825 21.858 113.707 22.2816 111.612C22.6598 109.81 23.5757 108.159 24.913 106.87C25.6107 106.189 26.5244 105.762 27.5029 105.66C28.4841 105.634 29.4467 105.925 30.2431 106.488C31.1473 107.143 31.926 107.95 32.543 108.872C33.2135 109.781 33.8143 110.738 34.3404 111.734C34.3404 111.77 34.299 111.795 34.2782 111.759C33.2821 110.098 31.9619 108.645 30.3933 107.485C29.6961 106.917 28.844 106.563 27.9432 106.468C27.502 106.463 27.0641 106.543 26.655 106.706C26.2459 106.868 25.8738 107.109 25.5604 107.413C24.3109 108.595 23.4397 110.109 23.0534 111.77C22.5963 113.7 22.271 115.658 22.0795 117.63C21.9242 118.789 21.7739 119.953 21.6185 121.112C21.4631 122.271 21.3647 123.451 21.1005 124.589C21.0841 124.629 21.0547 124.662 21.0168 124.684C20.9789 124.706 20.9347 124.714 20.8913 124.708C20.8479 124.702 20.8077 124.683 20.7771 124.652C20.7465 124.621 20.7273 124.581 20.7224 124.538Z" fill="#263238"/>
<path d="M26.2233 116.019C26.568 116.479 26.9779 116.888 27.4406 117.234C27.2541 116.167 27.0314 114.265 27.5857 113.249C28.4403 111.678 29.4504 112.461 28.9428 113.828C28.4319 115.062 28.1528 116.376 28.1192 117.707C29.282 118.424 30.5291 119.001 31.8332 119.425C31.6932 118.81 31.6513 118.177 31.7089 117.549C31.8798 115.867 33.1903 115.902 32.8536 117.651C32.7278 118.321 32.6671 119.002 32.6723 119.684C34.5648 120.255 36.4991 120.684 38.4583 120.965C39.4579 119.691 40.2656 118.282 40.8566 116.782C39.458 116.436 36.635 116.36 36.7127 115.379C36.7903 114.062 39.5305 115.079 41.1259 116.034C41.4942 114.884 41.6588 113.681 41.6128 112.476C40.3573 112.129 39.0666 111.92 37.7642 111.851C34.8945 111.607 35.0344 110.011 37.1167 110.046C38.6707 110.072 40.5924 110.997 41.5144 111.475C40.9136 107.642 37.9351 105.187 35.5472 105.09C31.5276 104.933 32.9572 109.838 32.9572 109.838C32.9572 109.838 30.2378 107.957 27.6685 108.008C25.0993 108.059 23.478 112.268 26.2233 116.019ZM36.9509 108.938C36.8629 108.384 38.6551 108.252 38.7484 108.938C38.852 109.747 37.0442 109.487 36.9509 108.938ZM39.8361 114.692C39.7999 114.332 40.5717 114.265 40.7478 114.723C40.8618 115.008 39.8672 115.038 39.8361 114.682V114.692ZM30.1912 115.038C30.7972 115.119 31.1391 117.244 30.0979 117.203C29.3054 117.148 29.6783 114.947 30.1912 115.038Z" fill="#3D8504"/>
<path opacity="0.2" d="M26.2233 116.019C26.568 116.479 26.9779 116.888 27.4406 117.234C27.2541 116.167 27.0314 114.265 27.5857 113.249C28.4403 111.678 29.4504 112.461 28.9428 113.828C28.4319 115.062 28.1528 116.376 28.1192 117.707C29.282 118.424 30.5291 119.001 31.8332 119.425C31.6932 118.81 31.6513 118.177 31.7089 117.549C31.8798 115.867 33.1903 115.902 32.8536 117.651C32.7278 118.321 32.6671 119.002 32.6723 119.684C34.5648 120.255 36.4991 120.684 38.4583 120.965C39.4579 119.691 40.2656 118.282 40.8566 116.782C39.458 116.436 36.635 116.36 36.7127 115.379C36.7903 114.062 39.5305 115.079 41.1259 116.034C41.4942 114.884 41.6588 113.681 41.6128 112.476C40.3573 112.129 39.0666 111.92 37.7642 111.851C34.8945 111.607 35.0344 110.011 37.1167 110.046C38.6707 110.072 40.5924 110.997 41.5144 111.475C40.9136 107.642 37.9351 105.187 35.5472 105.09C31.5276 104.933 32.9572 109.838 32.9572 109.838C32.9572 109.838 30.2378 107.957 27.6685 108.008C25.0993 108.059 23.478 112.268 26.2233 116.019ZM36.9509 108.938C36.8629 108.384 38.6551 108.252 38.7484 108.938C38.852 109.747 37.0442 109.487 36.9509 108.938ZM39.8361 114.692C39.7999 114.332 40.5717 114.265 40.7478 114.723C40.8618 115.008 39.8672 115.038 39.8361 114.682V114.692ZM30.1912 115.038C30.7972 115.119 31.1391 117.244 30.0979 117.203C29.3054 117.148 29.6783 114.947 30.1912 115.038Z" fill="black"/>
<path d="M31.0303 117.376C31.1287 117.112 31.2167 116.843 31.2996 116.573C31.2219 116.848 31.1546 117.122 31.1028 117.397C31.1 117.406 31.0936 117.414 31.0848 117.419C31.0761 117.424 31.0658 117.425 31.0562 117.422C31.0465 117.419 31.0384 117.413 31.0336 117.404C31.0287 117.396 31.0275 117.386 31.0303 117.376Z" fill="#263238"/>
<path d="M32.087 113.96C32.2787 113.417 32.4859 112.878 32.7034 112.344C32.8174 112.059 32.9365 111.775 33.066 111.495C33.1588 111.246 33.2786 111.007 33.4234 110.784C33.2979 110.563 33.1888 110.333 33.0971 110.097C33.0971 110.097 33.0971 110.057 33.1333 110.097C33.428 110.471 33.6896 110.869 33.9155 111.287C34.0295 111.475 34.1331 111.663 34.247 111.851C34.4736 111.87 34.6985 111.904 34.9204 111.953C35.1587 111.993 35.4021 112.044 35.6404 112.095L36.3552 112.258C36.5935 112.314 36.8266 112.39 37.0701 112.43C37.1219 112.43 37.1012 112.522 37.0701 112.502C36.8256 112.417 36.5743 112.352 36.319 112.308L35.6042 112.166C35.3711 112.136 35.138 112.105 34.9049 112.085C34.6718 112.064 34.5526 112.059 34.3869 112.039C34.4853 112.207 34.5837 112.369 34.677 112.547L34.7184 112.629C34.914 112.623 35.1095 112.645 35.2985 112.695C35.5057 112.73 35.7129 112.766 35.915 112.812C36.3345 112.903 36.7541 113 37.1685 113.117C38.0335 113.35 38.8934 113.625 39.7584 113.899C39.8051 113.899 39.7584 113.986 39.7274 113.971C38.8776 113.69 38.013 113.454 37.1374 113.264L35.8683 113.005L35.2519 112.878C35.0892 112.852 34.9283 112.817 34.7702 112.771C35.2157 113.574 35.6301 114.387 36.0134 115.221C36.8473 117.026 37.5673 118.891 38.2615 120.746C38.2615 120.792 38.2045 120.823 38.1889 120.777C37.4983 118.932 36.6992 117.128 35.7958 115.374L35.3089 114.413C35.3089 114.479 35.2778 114.545 35.2675 114.611C35.226 114.83 35.1846 115.048 35.1483 115.267C35.0706 115.709 34.9981 116.146 34.9308 116.588C34.7395 117.49 34.6303 118.407 34.6044 119.328C34.6044 119.384 34.5216 119.379 34.5267 119.328C34.5993 118.891 34.5993 118.434 34.6303 117.991C34.6614 117.549 34.6925 117.071 34.7443 116.609C34.7961 116.146 34.8583 115.724 34.9308 115.287C34.967 115.069 35.0085 114.845 35.0499 114.626C35.0618 114.461 35.1039 114.299 35.1742 114.149C34.9411 113.686 34.708 113.223 34.4698 112.761C34.2315 112.298 34.0191 111.897 33.7912 111.465L33.4856 110.916C33.4134 111.144 33.3233 111.367 33.2162 111.582C33.1178 111.831 33.0142 112.09 32.9106 112.324C32.6775 112.873 32.4651 113.432 32.2476 113.986C31.9471 114.774 31.6105 115.582 31.3618 116.4C31.6053 115.577 31.8125 114.759 32.087 113.96Z" fill="#263238"/>
<path d="M14.0093 122.403L14.289 128.269L15.0194 143.392H30.9165L31.6417 128.269L31.9266 122.403H14.0093Z" fill="#37474F"/>
<path d="M14.0093 122.403L14.289 128.269H31.6417L31.9266 122.403H14.0093Z" fill="#263238"/>
<path d="M12.8799 124.777H33.0557V120.035H12.8799V124.777Z" fill="#37474F"/>
<path d="M29.6318 143.392H26.8398V145.877H29.6318V143.392Z" fill="#37474F"/>
<path d="M29.6318 143.392H26.8398V144.632H29.6318V143.392Z" fill="#263238"/>
<path d="M19.0907 143.392H16.304V145.877H19.0907V143.392Z" fill="#37474F"/>
<path d="M19.0907 143.392H16.304V144.632H19.0907V143.392Z" fill="#263238"/>
<path d="M177.969 11.4598C178.661 10.4494 179.034 9.26125 179.041 8.04396C179.041 3.72332 174.208 0.221069 168.246 0.221069C162.284 0.221069 157.451 3.72332 157.451 8.04396C157.451 12.3646 162.279 15.8719 168.246 15.8719C170.896 15.9132 173.495 15.1576 175.695 13.7065L179.414 14.6367L177.969 11.4598Z" fill="#FFFEFD"/>
<path d="M177.969 11.4598C178.607 10.4945 178.965 9.37689 179.005 8.22693C179.014 7.08948 178.696 5.97252 178.088 5.00425C176.806 3.10194 174.873 1.71198 172.639 1.08519C170.435 0.403649 168.096 0.257123 165.822 0.658201C163.545 1.00397 161.431 2.02371 159.761 3.58098C158.954 4.35857 158.35 5.31588 158 6.3716C157.657 7.42592 157.641 8.55633 157.954 9.6197C158.287 10.6809 158.877 11.6471 159.673 12.4357C160.476 13.2336 161.412 13.8919 162.439 14.3826C163.473 14.8757 164.571 15.2264 165.703 15.4246C166.835 15.6389 167.99 15.7191 169.142 15.6635C171.46 15.5833 173.71 14.8799 175.648 13.6303L175.695 13.5998H175.746L179.455 14.5808L179.383 14.6672L177.969 11.4598ZM177.969 11.4598L179.471 14.6113L179.523 14.7231L179.398 14.6926L175.664 13.8183H175.762C173.806 15.147 171.513 15.9177 169.137 16.0447C166.76 16.2171 164.377 15.7884 162.217 14.7994C161.134 14.2912 160.149 13.6034 159.305 12.7661C158.445 11.926 157.808 10.8907 157.451 9.75186C157.104 8.59911 157.115 7.37088 157.482 6.22419C157.859 5.0927 158.512 4.06851 159.383 3.24042C161.129 1.61924 163.341 0.563481 165.718 0.215974C168.063 -0.193566 170.474 -0.0187833 172.732 0.724284C173.857 1.09005 174.918 1.62506 175.876 2.31021C176.842 2.98511 177.654 3.85083 178.259 4.85176C178.862 5.85696 179.156 7.0121 179.104 8.17756C179.053 9.34302 178.658 10.4689 177.969 11.4191V11.4598Z" fill="#263238"/>
<path d="M164.361 8.04399C164.361 8.26114 164.295 8.47342 164.172 8.65398C164.05 8.83454 163.875 8.97526 163.67 9.05837C163.466 9.14147 163.241 9.16321 163.024 9.12084C162.807 9.07848 162.607 8.97391 162.451 8.82036C162.295 8.66681 162.188 8.47117 162.145 8.25819C162.102 8.04521 162.124 7.82445 162.208 7.62383C162.293 7.4232 162.437 7.25172 162.621 7.13108C162.805 7.01043 163.021 6.94604 163.242 6.94604C163.539 6.94604 163.823 7.06172 164.033 7.26762C164.243 7.47353 164.361 7.75279 164.361 8.04399Z" fill="#263238"/>
<path d="M169.365 8.04399C169.365 8.26114 169.299 8.47342 169.176 8.65398C169.053 8.83454 168.879 8.97526 168.674 9.05837C168.47 9.14147 168.245 9.16321 168.028 9.12084C167.811 9.07848 167.611 8.97391 167.455 8.82036C167.298 8.66681 167.192 8.47117 167.149 8.25819C167.106 8.04521 167.128 7.82445 167.212 7.62383C167.297 7.4232 167.44 7.25172 167.624 7.13108C167.808 7.01043 168.025 6.94604 168.246 6.94604C168.543 6.94604 168.827 7.06172 169.037 7.26762C169.247 7.47353 169.365 7.75279 169.365 8.04399Z" fill="#263238"/>
<path d="M174.369 8.04399C174.369 8.26114 174.303 8.47342 174.18 8.65398C174.057 8.83454 173.882 8.97526 173.678 9.05837C173.473 9.14147 173.248 9.16321 173.031 9.12084C172.814 9.07848 172.615 8.97391 172.459 8.82036C172.302 8.66681 172.196 8.47117 172.152 8.25819C172.109 8.04521 172.131 7.82445 172.216 7.62383C172.301 7.4232 172.444 7.25172 172.628 7.13108C172.812 7.01043 173.028 6.94604 173.25 6.94604C173.397 6.94604 173.542 6.97444 173.678 7.02962C173.814 7.08479 173.937 7.16567 174.041 7.26762C174.145 7.36958 174.227 7.49062 174.283 7.62383C174.34 7.75704 174.369 7.8998 174.369 8.04399Z" fill="#263238"/>
</svg>
