<svg width="604" height="450" viewBox="0 0 604 450" fill="none" xmlns="http://www.w3.org/2000/svg">
<path d="M604.002 395.453H0.0725098V395.755H604.002V395.453Z" fill="#EBEBEB"/>
<path d="M543.487 414.888H503.483V415.19H543.487V414.888Z" fill="#EBEBEB"/>
<path d="M400.141 418.173H389.645V418.475H400.141V418.173Z" fill="#EBEBEB"/>
<path d="M502.273 403.679H479.094V403.981H502.273V403.679Z" fill="#EBEBEB"/>
<path d="M115.605 405.708H63.4377V406.01H115.605V405.708Z" fill="#EBEBEB"/>
<path d="M134.012 405.708H126.366V406.01H134.012V405.708Z" fill="#EBEBEB"/>
<path d="M272.022 410.805H158.87V411.107H272.022V410.805Z" fill="#EBEBEB"/>
<path d="M286.335 152.746V173.956L297.206 174.983C298.664 181.973 301.43 188.624 305.359 194.586L298.341 203.041L313.343 218.043L321.798 211.025C327.757 214.95 334.404 217.712 341.389 219.166L342.416 230.037H363.759L364.785 219.166C371.775 217.712 378.426 214.95 384.389 211.025L392.844 218.043L407.846 203.041L400.828 194.586C404.753 188.623 407.515 181.972 408.969 174.983L419.9 173.956V152.746L408.969 151.707C407.524 144.712 404.77 138.052 400.852 132.08L407.87 123.625L392.868 108.635L384.413 115.653C378.459 111.733 371.821 108.968 364.846 107.5L363.819 96.6289H342.537L341.51 107.5C334.526 108.963 327.879 111.729 321.918 115.653L313.463 108.635L298.414 123.625L305.431 132.08C301.506 138.04 298.74 144.686 297.278 151.671L286.335 152.746ZM353.105 134.628C358.786 134.628 364.34 136.313 369.063 139.469C373.786 142.625 377.468 147.111 379.642 152.359C381.816 157.608 382.385 163.383 381.276 168.955C380.168 174.526 377.433 179.644 373.416 183.661C369.399 187.678 364.281 190.414 358.709 191.522C353.137 192.63 347.362 192.061 342.114 189.888C336.865 187.714 332.379 184.032 329.223 179.309C326.067 174.585 324.383 169.032 324.383 163.351C324.383 159.575 325.127 155.836 326.574 152.348C328.02 148.86 330.14 145.692 332.812 143.024C335.485 140.356 338.657 138.241 342.147 136.801C345.638 135.36 349.378 134.622 353.154 134.628H353.105Z" fill="#F0F0F0"/>
<path d="M250.534 247.261L256.573 252.31L267.359 241.524L262.31 235.484C265.158 231.191 267.162 226.395 268.217 221.352L276.068 220.616V205.336L268.217 204.599C267.171 199.577 265.183 194.798 262.359 190.516L267.408 184.476L256.621 173.69L250.582 178.739C246.297 175.919 241.519 173.932 236.498 172.881L235.762 165.03H220.47L219.733 172.881C214.711 173.939 209.933 175.935 205.65 178.763L199.61 173.714L188.824 184.501L193.873 190.54C191.048 194.822 189.06 199.601 188.015 204.624L180.164 205.36V220.603L188.015 221.34C189.06 226.363 191.048 231.142 193.873 235.424L188.824 241.463L199.61 252.249L205.65 247.201C209.935 250.02 214.712 252.008 219.733 253.059L220.47 260.91H235.713L236.45 253.059C241.467 252.026 246.244 250.06 250.534 247.261ZM207.461 212.994C207.461 208.911 208.672 204.919 210.941 201.524C213.21 198.13 216.434 195.484 220.207 193.922C223.98 192.36 228.131 191.952 232.135 192.749C236.14 193.547 239.818 195.514 242.704 198.402C245.591 201.29 247.556 204.969 248.351 208.974C249.146 212.979 248.736 217.13 247.171 220.902C245.607 224.674 242.959 227.897 239.563 230.163C236.167 232.43 232.175 233.639 228.092 233.636C225.381 233.636 222.698 233.102 220.194 232.065C217.69 231.027 215.415 229.507 213.5 227.59C211.584 225.673 210.064 223.397 209.028 220.893C207.992 218.388 207.46 215.704 207.461 212.994Z" fill="#F5F5F5"/>
<path d="M318.282 350.521C324.26 349.278 329.949 346.913 335.047 343.551L342.294 349.591L355.182 336.727L349.143 329.48C352.504 324.382 354.869 318.693 356.112 312.715L365.461 311.845V293.727L356.112 292.846C354.875 286.85 352.51 281.144 349.143 276.032L355.182 268.785L342.306 255.945L335.059 261.985C329.958 258.629 324.27 256.264 318.294 255.015L317.412 245.679H299.294L298.412 254.979C292.436 256.228 286.748 258.592 281.647 261.948L274.4 255.909L261.561 268.749L267.6 275.996C264.244 281.097 261.879 286.784 260.631 292.761L251.282 293.643V311.761L260.631 312.63C261.877 318.608 264.242 324.296 267.6 329.395L261.561 336.642L274.4 349.47L281.647 343.431C286.736 346.835 292.425 349.241 298.412 350.521L299.294 359.87H317.412L318.282 350.521ZM283.761 302.75C283.763 297.891 285.206 293.143 287.907 289.104C290.608 285.065 294.446 281.918 298.936 280.061C303.425 278.203 308.364 277.718 313.129 278.668C317.894 279.617 322.271 281.958 325.705 285.394C329.14 288.831 331.479 293.208 332.426 297.974C333.373 302.739 332.885 307.678 331.026 312.167C329.166 316.655 326.017 320.491 321.977 323.19C317.937 325.889 313.188 327.33 308.329 327.33C305.102 327.33 301.906 326.694 298.924 325.459C295.943 324.223 293.234 322.413 290.953 320.13C288.671 317.847 286.862 315.137 285.628 312.155C284.394 309.173 283.759 305.977 283.761 302.75Z" fill="#FAFAFA"/>
<path d="M170.942 130.893L115.378 123.302L107.786 178.866L163.351 186.458L170.942 130.893Z" fill="#F5F5F5"/>
<path d="M123.551 138.538L123.06 142.128L159.238 147.071L159.728 143.481L123.551 138.538Z" fill="#E0E0E0"/>
<path d="M122.001 149.809L121.51 153.399L157.688 158.342L158.178 154.752L122.001 149.809Z" fill="#E0E0E0"/>
<path d="M120.42 161.458L119.929 165.048L141.231 167.958L141.722 164.368L120.42 161.458Z" fill="#E0E0E0"/>
<path d="M482.031 69.1695L425.951 69.3652L426.147 125.446L482.227 125.25L482.031 69.1695Z" fill="#F0F0F0"/>
<path d="M472.708 83.1069L436.195 83.2407L436.208 86.8643L472.721 86.7304L472.708 83.1069Z" fill="#E0E0E0"/>
<path d="M472.761 94.4843L436.248 94.6182L436.261 98.2417L472.775 98.1079L472.761 94.4843Z" fill="#E0E0E0"/>
<path d="M457.78 106.304L436.28 106.383L436.293 110.006L457.793 109.928L457.78 106.304Z" fill="#E0E0E0"/>
<path d="M515.687 205.94L460.051 212.988L467.099 268.624L522.735 261.576L515.687 205.94Z" fill="#F5F5F5"/>
<path d="M508.152 220.97L471.928 225.559L472.383 229.154L508.607 224.565L508.152 220.97Z" fill="#E0E0E0"/>
<path d="M509.585 232.249L473.361 236.838L473.817 240.432L510.041 235.843L509.585 232.249Z" fill="#E0E0E0"/>
<path d="M496.17 245.8L474.84 248.502L475.296 252.097L496.625 249.395L496.17 245.8Z" fill="#E0E0E0"/>
<path d="M217.376 296.239L161.296 296.435L161.492 352.515L217.572 352.32L217.376 296.239Z" fill="#F0F0F0"/>
<path d="M208.115 310.223L171.602 310.357L171.615 313.98L208.129 313.847L208.115 310.223Z" fill="#E0E0E0"/>
<path d="M208.157 321.601L171.644 321.734L171.657 325.358L208.17 325.224L208.157 321.601Z" fill="#E0E0E0"/>
<path d="M193.187 333.42L171.688 333.499L171.701 337.122L193.201 337.043L193.187 333.42Z" fill="#E0E0E0"/>
<path d="M465.068 323.699L408.988 323.895L409.184 379.975L465.264 379.78L465.068 323.699Z" fill="#F0F0F0"/>
<path d="M455.802 337.639L419.289 337.773L419.302 341.397L455.816 341.263L455.802 337.639Z" fill="#E0E0E0"/>
<path d="M455.857 349.017L419.344 349.151L419.357 352.774L455.87 352.64L455.857 349.017Z" fill="#E0E0E0"/>
<path d="M440.872 360.836L419.372 360.915L419.386 364.538L440.885 364.459L440.872 360.836Z" fill="#E0E0E0"/>
<path d="M228.751 65.5063L174.004 77.6636L186.161 132.411L240.908 120.254L228.751 65.5063Z" fill="#F0F0F0"/>
<path d="M222.62 81.1988L186.975 89.1143L187.76 92.6517L223.405 84.7362L222.62 81.1988Z" fill="#E0E0E0"/>
<path d="M225.089 92.3099L189.444 100.225L190.229 103.763L225.875 95.8473L225.089 92.3099Z" fill="#E0E0E0"/>
<path d="M212.98 107.042L191.991 111.702L192.776 115.24L213.765 110.579L212.98 107.042Z" fill="#E0E0E0"/>
<path d="M119.94 129.362H118.937L117.548 122.96H121.317L119.94 129.362Z" fill="#E0E0E0"/>
<path d="M119.432 127.779C122.247 127.779 124.529 125.979 124.529 123.757C124.529 121.536 122.247 119.735 119.432 119.735C116.617 119.735 114.335 121.536 114.335 123.757C114.335 125.979 116.617 127.779 119.432 127.779Z" fill="#E6E6E6"/>
<path d="M222.402 73.4743H221.4L220.023 67.0847H223.791L222.402 73.4743Z" fill="#E0E0E0"/>
<path d="M221.909 71.9042C224.731 71.9042 227.018 70.1034 227.018 67.882C227.018 65.6606 224.731 63.8599 221.909 63.8599C219.087 63.8599 216.8 65.6606 216.8 67.882C216.8 70.1034 219.087 71.9042 221.909 71.9042Z" fill="#E6E6E6"/>
<path d="M453.189 75.08H452.186L450.797 68.6904H454.566L453.189 75.08Z" fill="#E0E0E0"/>
<path d="M452.68 73.5107C455.495 73.5107 457.777 71.7099 457.777 69.4885C457.777 67.2671 455.495 65.4663 452.68 65.4663C449.865 65.4663 447.583 67.2671 447.583 69.4885C447.583 71.7099 449.865 73.5107 452.68 73.5107Z" fill="#E6E6E6"/>
<path d="M510.513 213.972H509.51L508.133 207.583H511.902L510.513 213.972Z" fill="#E0E0E0"/>
<path d="M510.018 212.402C512.833 212.402 515.115 210.601 515.115 208.38C515.115 206.158 512.833 204.358 510.018 204.358C507.203 204.358 504.921 206.158 504.921 208.38C504.921 210.601 507.203 212.402 510.018 212.402Z" fill="#E6E6E6"/>
<path d="M438.033 330.071H437.018L435.641 323.67H439.41L438.033 330.071Z" fill="#E0E0E0"/>
<path d="M437.52 328.489C440.335 328.489 442.617 326.689 442.617 324.467C442.617 322.246 440.335 320.445 437.52 320.445C434.705 320.445 432.423 322.246 432.423 324.467C432.423 326.689 434.705 328.489 437.52 328.489Z" fill="#E6E6E6"/>
<path d="M187.868 301.325H186.866L185.489 294.923H189.257L187.868 301.325Z" fill="#E0E0E0"/>
<path d="M187.374 299.742C190.189 299.742 192.471 297.942 192.471 295.72C192.471 293.499 190.189 291.698 187.374 291.698C184.558 291.698 182.276 293.499 182.276 295.72C182.276 297.942 184.558 299.742 187.374 299.742Z" fill="#E6E6E6"/>
<path d="M302.04 450C431.381 450 536.232 443.878 536.232 436.327C536.232 428.776 431.381 422.654 302.04 422.654C172.7 422.654 67.8484 428.776 67.8484 436.327C67.8484 443.878 172.7 450 302.04 450Z" fill="#B8D6E6"/>
<path d="M173.601 234.131C173.601 226.172 178.831 219.637 185.269 219.637C191.707 219.637 196.937 226.111 196.937 234.131C196.937 242.152 191.707 248.553 185.269 248.553C178.831 248.553 173.601 242.091 173.601 234.131ZM176.017 234.131C176.017 240.75 180.172 246.138 185.269 246.138C190.366 246.138 194.521 240.75 194.521 234.131C194.521 227.512 190.378 222.053 185.269 222.053C180.16 222.053 176.017 227.512 176.017 234.131Z" fill="#263238"/>
<path d="M150.642 234.131C150.642 226.172 155.872 219.637 162.31 219.637C168.747 219.637 173.977 226.111 173.977 234.131C173.977 242.152 168.747 248.553 162.31 248.553C155.872 248.553 150.642 242.091 150.642 234.131ZM153.057 234.131C153.057 240.75 157.2 246.138 162.31 246.138C167.419 246.138 171.562 240.75 171.562 234.131C171.562 227.512 167.407 222.053 162.31 222.053C157.212 222.053 153.057 227.512 153.057 234.131Z" fill="#263238"/>
<path d="M127.668 234.131C127.668 226.172 132.91 219.637 139.348 219.637C145.786 219.637 151.016 226.111 151.016 234.131C151.016 242.152 145.774 248.553 139.348 248.553C132.922 248.553 127.668 242.091 127.668 234.131ZM130.083 234.131C130.083 240.75 134.238 246.138 139.348 246.138C144.457 246.138 148.6 240.75 148.6 234.131C148.6 227.512 144.445 222.053 139.348 222.053C134.251 222.053 130.083 227.512 130.083 234.131Z" fill="#263238"/>
<path d="M104.704 234.132C104.704 226.172 109.946 219.637 116.384 219.637C122.822 219.637 128.052 226.111 128.052 234.132C128.052 242.152 122.81 248.553 116.384 248.553C109.959 248.553 104.704 242.091 104.704 234.132ZM107.12 234.132C107.12 240.751 111.275 246.138 116.384 246.138C121.494 246.138 125.637 240.751 125.637 234.132C125.637 227.512 121.482 222.053 116.384 222.053C111.287 222.053 107.12 227.512 107.12 234.132Z" fill="#263238"/>
<path d="M196.566 234.131C196.566 226.172 201.796 219.637 208.234 219.637C214.672 219.637 219.914 226.111 219.914 234.131C219.914 242.152 214.672 248.553 208.234 248.553C201.796 248.553 196.566 242.091 196.566 234.131ZM198.982 234.131C198.982 240.75 203.137 246.138 208.234 246.138C213.331 246.138 217.498 240.75 217.498 234.131C217.498 227.512 213.343 222.053 208.234 222.053C203.125 222.053 198.982 227.512 198.982 234.131Z" fill="#263238"/>
<path d="M89.5236 433.368H233.355L233.355 234.409L89.5236 234.409L89.5236 433.368Z" fill="#263238"/>
<path opacity="0.7" d="M89.5236 433.368H233.355L233.355 234.409L89.5236 234.409L89.5236 433.368Z" fill="white"/>
<path opacity="0.6" d="M102.484 433.368H233.355L233.355 234.409L102.484 234.409L102.484 433.368Z" fill="white"/>
<path opacity="0.2" d="M93.8375 433.368L93.2336 247.43L92.6296 433.368H93.8375Z" fill="black"/>
<path opacity="0.2" d="M99.848 433.368L99.2441 259.013L98.6401 433.368H99.848Z" fill="black"/>
<path opacity="0.2" d="M95.6343 234.554L96.2382 374.34L96.8421 234.554H95.6343Z" fill="black"/>
<path d="M211.71 243.867C211.833 244.511 212.138 245.106 212.588 245.583C213.037 246.061 213.614 246.4 214.249 246.562C214.884 246.724 215.553 246.702 216.176 246.498C216.799 246.294 217.352 245.917 217.769 245.411C218.185 244.904 218.45 244.29 218.53 243.639C218.611 242.988 218.505 242.328 218.224 241.735C217.943 241.143 217.499 240.642 216.945 240.293C216.39 239.943 215.747 239.758 215.092 239.76C214.102 239.864 213.193 240.353 212.56 241.121C211.927 241.889 211.622 242.875 211.71 243.867Z" fill="#263238"/>
<path d="M215.309 245.087C215.481 245.085 215.651 245.046 215.807 244.973C215.964 244.9 216.103 244.795 216.215 244.664C218.648 241.698 219.957 237.968 219.911 234.131C219.911 226.171 214.669 219.637 208.231 219.637C203.496 219.637 199.256 223.14 197.444 228.539C197.394 228.69 197.373 228.849 197.384 229.007C197.395 229.166 197.437 229.321 197.507 229.463C197.578 229.606 197.676 229.733 197.796 229.838C197.915 229.942 198.055 230.022 198.205 230.073C198.356 230.124 198.515 230.144 198.674 230.133C198.833 230.123 198.988 230.081 199.13 230.01C199.272 229.939 199.4 229.841 199.504 229.722C199.609 229.602 199.689 229.463 199.739 229.312C201.213 224.903 204.571 222.065 208.194 222.065C213.304 222.065 217.459 227.464 217.459 234.143C217.51 237.399 216.411 240.569 214.354 243.094C214.201 243.269 214.101 243.485 214.067 243.715C214.033 243.946 214.067 244.182 214.164 244.394C214.261 244.606 214.417 244.785 214.614 244.91C214.811 245.035 215.039 245.101 215.272 245.099L215.309 245.087Z" fill="#263238"/>
<g opacity="0.4">
<path d="M215.31 245.087C215.483 245.085 215.653 245.046 215.809 244.973C215.965 244.9 216.104 244.795 216.216 244.664C218.65 241.698 219.959 237.968 219.912 234.131C219.912 226.172 214.67 219.637 208.232 219.637C203.497 219.637 199.258 223.14 197.446 228.539C197.395 228.69 197.375 228.849 197.385 229.008C197.396 229.166 197.438 229.321 197.509 229.464C197.579 229.606 197.677 229.733 197.797 229.838C197.917 229.942 198.056 230.022 198.207 230.073C198.358 230.124 198.517 230.144 198.675 230.134C198.834 230.123 198.989 230.081 199.131 230.01C199.274 229.94 199.401 229.842 199.506 229.722C199.61 229.602 199.69 229.463 199.741 229.312C201.214 224.903 204.572 222.065 208.196 222.065C213.305 222.065 217.46 227.464 217.46 234.143C217.511 237.399 216.412 240.569 214.356 243.094C214.202 243.269 214.102 243.485 214.068 243.715C214.034 243.946 214.068 244.182 214.165 244.394C214.262 244.606 214.418 244.785 214.615 244.91C214.812 245.035 215.041 245.101 215.274 245.099L215.31 245.087Z" fill="white"/>
</g>
<path d="M188.751 243.867C188.877 244.507 189.182 245.098 189.631 245.571C190.08 246.044 190.654 246.38 191.286 246.54C191.918 246.7 192.583 246.676 193.203 246.473C193.822 246.27 194.371 245.894 194.786 245.391C195.201 244.887 195.464 244.276 195.545 243.629C195.626 242.982 195.521 242.325 195.243 241.735C194.965 241.145 194.525 240.646 193.974 240.297C193.424 239.947 192.785 239.761 192.133 239.76C191.143 239.864 190.234 240.353 189.601 241.121C188.969 241.889 188.663 242.875 188.751 243.867Z" fill="#263238"/>
<path d="M192.336 245.087C192.51 245.087 192.683 245.049 192.841 244.976C193 244.903 193.14 244.797 193.254 244.664C195.684 241.697 196.989 237.967 196.938 234.131C196.938 226.172 191.708 219.637 185.27 219.637C180.523 219.637 176.296 223.14 174.484 228.539C174.381 228.843 174.404 229.176 174.547 229.464C174.689 229.751 174.94 229.97 175.245 230.073C175.549 230.175 175.882 230.153 176.169 230.01C176.457 229.868 176.676 229.616 176.779 229.312C178.252 224.903 181.61 222.065 185.234 222.065C190.343 222.065 194.486 227.464 194.486 234.143C194.542 237.398 193.446 240.568 191.394 243.094C191.241 243.268 191.141 243.483 191.107 243.713C191.072 243.942 191.105 244.177 191.2 244.388C191.296 244.6 191.451 244.779 191.646 244.905C191.84 245.031 192.068 245.098 192.3 245.099L192.336 245.087Z" fill="#263238"/>
<g opacity="0.4">
<path d="M192.337 245.087C192.511 245.087 192.684 245.049 192.842 244.976C193.001 244.903 193.141 244.796 193.255 244.664C195.685 241.696 196.99 237.966 196.939 234.131C196.939 226.171 191.709 219.637 185.271 219.637C180.524 219.637 176.297 223.14 174.485 228.539C174.382 228.843 174.405 229.176 174.548 229.463C174.69 229.751 174.941 229.97 175.246 230.073C175.55 230.175 175.883 230.153 176.17 230.01C176.458 229.867 176.677 229.616 176.78 229.312C178.253 224.903 181.611 222.065 185.235 222.065C190.344 222.065 194.487 227.464 194.487 234.143C194.543 237.398 193.447 240.568 191.395 243.094C191.242 243.268 191.142 243.483 191.108 243.712C191.073 243.942 191.106 244.177 191.201 244.388C191.297 244.6 191.452 244.779 191.646 244.905C191.841 245.031 192.069 245.098 192.301 245.099L192.337 245.087Z" fill="white"/>
</g>
<path d="M165.776 243.867C165.9 244.51 166.204 245.105 166.653 245.582C167.103 246.059 167.678 246.399 168.313 246.561C168.948 246.723 169.616 246.702 170.239 246.499C170.862 246.296 171.414 245.92 171.832 245.415C172.249 244.91 172.514 244.297 172.596 243.647C172.678 242.996 172.573 242.336 172.294 241.744C172.016 241.151 171.574 240.649 171.021 240.298C170.467 239.947 169.826 239.76 169.17 239.76C168.18 239.864 167.269 240.352 166.635 241.12C166 241.888 165.692 242.874 165.776 243.867Z" fill="#263238"/>
<path d="M169.375 245.087C169.549 245.087 169.722 245.049 169.88 244.976C170.038 244.903 170.179 244.796 170.293 244.664C172.701 241.688 173.984 237.959 173.916 234.131C173.916 226.171 168.686 219.637 162.248 219.637C157.501 219.637 153.274 223.14 151.462 228.539C151.411 228.69 151.39 228.849 151.401 229.008C151.411 229.166 151.453 229.321 151.524 229.464C151.594 229.607 151.693 229.734 151.813 229.838C151.933 229.943 152.072 230.022 152.223 230.073C152.374 230.124 152.533 230.145 152.692 230.134C152.851 230.124 153.006 230.082 153.148 230.011C153.291 229.94 153.418 229.842 153.522 229.722C153.627 229.602 153.707 229.463 153.757 229.312C155.231 224.903 158.588 222.065 162.212 222.065C167.309 222.065 171.464 227.464 171.464 234.143C171.522 237.4 170.422 240.572 168.36 243.094C168.206 243.269 168.106 243.485 168.072 243.715C168.039 243.946 168.072 244.182 168.169 244.394C168.266 244.606 168.423 244.785 168.619 244.91C168.816 245.035 169.045 245.101 169.278 245.099L169.375 245.087Z" fill="#263238"/>
<g opacity="0.4">
<path d="M169.375 245.087C169.55 245.087 169.722 245.049 169.88 244.976C170.039 244.903 170.18 244.796 170.293 244.664C172.702 241.688 173.985 237.959 173.917 234.131C173.917 226.171 168.687 219.637 162.249 219.637C157.502 219.637 153.274 223.14 151.463 228.539C151.411 228.69 151.391 228.849 151.401 229.008C151.412 229.166 151.454 229.321 151.524 229.464C151.595 229.607 151.693 229.734 151.813 229.838C151.933 229.943 152.073 230.022 152.224 230.073C152.374 230.124 152.533 230.145 152.692 230.134C152.851 230.124 153.006 230.082 153.149 230.011C153.291 229.94 153.418 229.842 153.523 229.722C153.627 229.602 153.707 229.463 153.758 229.312C155.231 224.903 158.589 222.065 162.213 222.065C167.31 222.065 171.465 227.464 171.465 234.143C171.522 237.4 170.422 240.572 168.361 243.094C168.207 243.269 168.107 243.485 168.073 243.715C168.039 243.946 168.073 244.182 168.17 244.394C168.267 244.606 168.423 244.785 168.62 244.91C168.817 245.035 169.045 245.101 169.279 245.099L169.375 245.087Z" fill="white"/>
</g>
<path d="M142.812 243.867C142.936 244.51 143.24 245.105 143.689 245.582C144.138 246.059 144.713 246.399 145.348 246.561C145.983 246.724 146.651 246.702 147.274 246.499C147.897 246.296 148.45 245.92 148.867 245.415C149.284 244.91 149.55 244.297 149.631 243.647C149.713 242.997 149.609 242.337 149.33 241.744C149.051 241.151 148.609 240.649 148.056 240.298C147.503 239.947 146.861 239.76 146.206 239.76C145.215 239.864 144.305 240.352 143.67 241.12C143.035 241.888 142.727 242.874 142.812 243.867Z" fill="#263238"/>
<path d="M146.415 245.087C146.589 245.087 146.762 245.049 146.92 244.976C147.079 244.903 147.219 244.797 147.333 244.664C149.741 241.688 151.024 237.959 150.956 234.131C150.956 226.172 145.714 219.637 139.288 219.637C134.542 219.637 130.314 223.14 128.502 228.539C128.439 228.692 128.407 228.856 128.41 229.022C128.412 229.187 128.449 229.35 128.517 229.501C128.585 229.652 128.684 229.787 128.807 229.898C128.929 230.009 129.073 230.094 129.23 230.147C129.387 230.2 129.553 230.22 129.718 230.207C129.883 230.193 130.043 230.145 130.189 230.067C130.335 229.989 130.463 229.881 130.565 229.751C130.668 229.622 130.743 229.472 130.785 229.312C132.259 224.903 135.617 222.065 139.24 222.065C144.337 222.065 148.492 227.464 148.492 234.143C148.544 237.399 147.444 240.569 145.388 243.094C145.234 243.269 145.134 243.485 145.101 243.715C145.067 243.946 145.1 244.182 145.197 244.394C145.294 244.606 145.451 244.785 145.647 244.91C145.844 245.035 146.073 245.101 146.306 245.099L146.415 245.087Z" fill="#263238"/>
<g opacity="0.4">
<path d="M146.414 245.087C146.588 245.087 146.761 245.049 146.919 244.976C147.078 244.903 147.218 244.797 147.332 244.664C149.74 241.688 151.023 237.959 150.955 234.131C150.955 226.172 145.713 219.637 139.288 219.637C134.541 219.637 130.313 223.14 128.501 228.539C128.438 228.692 128.406 228.856 128.409 229.022C128.411 229.187 128.448 229.35 128.516 229.501C128.584 229.652 128.683 229.787 128.806 229.898C128.928 230.009 129.072 230.094 129.229 230.147C129.386 230.2 129.552 230.22 129.717 230.207C129.882 230.193 130.042 230.145 130.188 230.067C130.334 229.989 130.462 229.881 130.564 229.751C130.667 229.622 130.742 229.472 130.784 229.312C132.258 224.903 135.616 222.065 139.239 222.065C144.336 222.065 148.491 227.464 148.491 234.143C148.543 237.399 147.443 240.569 145.387 243.094C145.233 243.269 145.133 243.485 145.1 243.715C145.066 243.946 145.099 244.182 145.196 244.394C145.293 244.606 145.45 244.785 145.647 244.91C145.843 245.035 146.072 245.101 146.305 245.099L146.414 245.087Z" fill="white"/>
</g>
<path d="M119.853 243.867C119.853 246.137 121.374 247.973 123.235 247.973C124.192 247.793 125.056 247.284 125.677 246.534C126.299 245.784 126.639 244.841 126.639 243.867C126.639 242.893 126.299 241.949 125.677 241.2C125.056 240.45 124.192 239.941 123.235 239.76C121.374 239.76 119.853 241.572 119.853 243.867Z" fill="#263238"/>
<path d="M123.45 245.087C123.625 245.087 123.797 245.049 123.956 244.976C124.114 244.903 124.255 244.797 124.368 244.664C126.772 241.686 128.055 237.958 127.992 234.131C127.992 226.172 122.75 219.637 116.324 219.637C111.577 219.637 107.337 223.14 105.538 228.539C105.474 228.692 105.443 228.856 105.445 229.022C105.448 229.187 105.484 229.35 105.553 229.501C105.621 229.652 105.719 229.787 105.842 229.898C105.965 230.009 106.109 230.094 106.266 230.147C106.422 230.2 106.588 230.22 106.753 230.207C106.918 230.193 107.078 230.145 107.224 230.067C107.37 229.989 107.498 229.881 107.601 229.751C107.703 229.622 107.778 229.472 107.821 229.312C109.294 224.903 112.652 222.065 116.276 222.065C121.373 222.065 125.528 227.464 125.528 234.143C125.579 237.399 124.48 240.569 122.424 243.094C122.318 243.214 122.237 243.354 122.186 243.505C122.135 243.657 122.114 243.817 122.125 243.977C122.137 244.136 122.179 244.292 122.251 244.435C122.323 244.578 122.423 244.705 122.544 244.809C122.669 244.914 122.813 244.993 122.969 245.04C123.125 245.088 123.288 245.104 123.45 245.087Z" fill="#263238"/>
<g opacity="0.4">
<path d="M123.454 245.087C123.628 245.087 123.801 245.049 123.959 244.976C124.117 244.903 124.258 244.797 124.372 244.664C126.776 241.686 128.058 237.958 127.995 234.131C127.995 226.172 122.753 219.637 116.327 219.637C111.58 219.637 107.341 223.14 105.541 228.539C105.478 228.692 105.446 228.856 105.449 229.022C105.451 229.187 105.488 229.35 105.556 229.501C105.624 229.652 105.723 229.787 105.845 229.898C105.968 230.009 106.112 230.094 106.269 230.147C106.426 230.2 106.592 230.22 106.757 230.207C106.922 230.193 107.082 230.145 107.228 230.067C107.374 229.989 107.502 229.881 107.604 229.751C107.707 229.622 107.782 229.472 107.824 229.312C109.298 224.903 112.655 222.065 116.279 222.065C121.376 222.065 125.531 227.464 125.531 234.143C125.582 237.399 124.483 240.569 122.427 243.094C122.321 243.214 122.241 243.354 122.189 243.505C122.138 243.657 122.118 243.817 122.129 243.977C122.14 244.136 122.183 244.292 122.255 244.435C122.327 244.578 122.426 244.705 122.548 244.809C122.672 244.914 122.817 244.993 122.972 245.04C123.128 245.088 123.292 245.104 123.454 245.087Z" fill="white"/>
</g>
<path d="M140.279 325.941H130.157V343.201H140.279V325.941Z" fill="#407BFF"/>
<path d="M156.668 313.379H146.547V343.201H156.668V313.379Z" fill="#407BFF"/>
<path d="M173.073 318.09H162.951V343.201H173.073V318.09Z" fill="#407BFF"/>
<path d="M189.473 305.528H179.352V343.201H189.473V305.528Z" fill="#407BFF"/>
<path d="M205.865 292.966H195.743V343.201H205.865V292.966Z" fill="#407BFF"/>
<path opacity="0.5" d="M140.279 325.941H130.157V343.201H140.279V325.941Z" fill="white"/>
<path opacity="0.5" d="M156.668 313.379H146.547V343.201H156.668V313.379Z" fill="white"/>
<path opacity="0.5" d="M173.073 318.09H162.951V343.201H173.073V318.09Z" fill="white"/>
<path opacity="0.5" d="M189.473 305.528H179.352V343.201H189.473V305.528Z" fill="white"/>
<path opacity="0.5" d="M205.865 292.966H195.743V343.201H205.865V292.966Z" fill="white"/>
<path d="M219.367 340.81H116.252V345.593H219.367V340.81Z" fill="#263238"/>
<path d="M120.603 329.492L118.381 326.69L151.452 300.37L167.818 309.864L212.002 272.203L214.321 274.921L168.217 314.237L151.778 304.694L120.603 329.492Z" fill="#85CD00"/>
<path d="M215.793 271.345L209.077 272.384L213.812 277.433L215.793 271.345Z" fill="#407BFF"/>
<g opacity="0.3">
<path d="M174.726 361.15H116.374C116.054 361.15 115.747 361.023 115.52 360.796C115.294 360.57 115.167 360.262 115.167 359.942C115.167 359.622 115.294 359.315 115.52 359.088C115.747 358.862 116.054 358.734 116.374 358.734H174.726C175.046 358.734 175.354 358.862 175.58 359.088C175.807 359.315 175.934 359.622 175.934 359.942C175.934 360.262 175.807 360.57 175.58 360.796C175.354 361.023 175.046 361.15 174.726 361.15Z" fill="black"/>
</g>
<g opacity="0.3">
<path d="M219.805 371.912H124.71C124.39 371.912 124.082 371.785 123.856 371.558C123.629 371.332 123.502 371.024 123.502 370.704C123.502 370.384 123.629 370.076 123.856 369.85C124.082 369.623 124.39 369.496 124.71 369.496H219.805C220.125 369.496 220.432 369.623 220.659 369.85C220.885 370.076 221.013 370.384 221.013 370.704C221.013 371.024 220.885 371.332 220.659 371.558C220.432 371.785 220.125 371.912 219.805 371.912Z" fill="black"/>
<path d="M219.9 377.963H116.374C116.054 377.963 115.747 377.836 115.52 377.609C115.294 377.383 115.167 377.076 115.167 376.755C115.167 376.435 115.294 376.128 115.52 375.901C115.747 375.675 116.054 375.547 116.374 375.547H219.9C220.22 375.547 220.528 375.675 220.754 375.901C220.981 376.128 221.108 376.435 221.108 376.755C221.108 377.076 220.981 377.383 220.754 377.609C220.528 377.836 220.22 377.963 219.9 377.963Z" fill="black"/>
<path d="M220.069 384.015H116.507C116.187 384.015 115.88 383.887 115.653 383.661C115.427 383.434 115.3 383.127 115.3 382.807C115.3 382.486 115.427 382.179 115.653 381.953C115.88 381.726 116.187 381.599 116.507 381.599H220.069C220.39 381.599 220.697 381.726 220.923 381.953C221.15 382.179 221.277 382.486 221.277 382.807C221.277 383.127 221.15 383.434 220.923 383.661C220.697 383.887 220.39 384.015 220.069 384.015Z" fill="black"/>
<path d="M203.279 390.066H116.639C116.319 390.066 116.012 389.939 115.785 389.712C115.559 389.486 115.431 389.178 115.431 388.858C115.431 388.538 115.559 388.231 115.785 388.004C116.012 387.778 116.319 387.65 116.639 387.65H203.279C203.599 387.65 203.907 387.778 204.133 388.004C204.36 388.231 204.487 388.538 204.487 388.858C204.487 389.178 204.36 389.486 204.133 389.712C203.907 389.939 203.599 390.066 203.279 390.066Z" fill="black"/>
</g>
<g opacity="0.3">
<path d="M219.805 400.925H124.71C124.39 400.925 124.082 400.797 123.856 400.571C123.629 400.344 123.502 400.037 123.502 399.717C123.502 399.396 123.629 399.089 123.856 398.863C124.082 398.636 124.39 398.509 124.71 398.509H219.805C220.125 398.509 220.432 398.636 220.659 398.863C220.885 399.089 221.013 399.396 221.013 399.717C221.013 400.037 220.885 400.344 220.659 400.571C220.432 400.797 220.125 400.925 219.805 400.925Z" fill="black"/>
<path d="M219.9 406.976H116.374C116.054 406.976 115.747 406.849 115.52 406.622C115.294 406.396 115.167 406.088 115.167 405.768C115.167 405.448 115.294 405.14 115.52 404.914C115.747 404.687 116.054 404.56 116.374 404.56H219.9C220.22 404.56 220.528 404.687 220.754 404.914C220.981 405.14 221.108 405.448 221.108 405.768C221.108 406.088 220.981 406.396 220.754 406.622C220.528 406.849 220.22 406.976 219.9 406.976Z" fill="black"/>
<path d="M220.069 413.088H116.507C116.187 413.088 115.88 412.96 115.653 412.734C115.427 412.507 115.3 412.2 115.3 411.88C115.3 411.56 115.427 411.252 115.653 411.026C115.88 410.799 116.187 410.672 116.507 410.672H220.069C220.39 410.672 220.697 410.799 220.923 411.026C221.15 411.252 221.277 411.56 221.277 411.88C221.277 412.2 221.15 412.507 220.923 412.734C220.697 412.96 220.39 413.088 220.069 413.088Z" fill="black"/>
<path d="M203.279 419.127H116.639C116.319 419.127 116.012 419 115.785 418.773C115.559 418.547 115.431 418.239 115.431 417.919C115.431 417.599 115.559 417.291 115.785 417.065C116.012 416.838 116.319 416.711 116.639 416.711H203.279C203.599 416.711 203.907 416.838 204.133 417.065C204.36 417.291 204.487 417.599 204.487 417.919C204.487 418.239 204.36 418.547 204.133 418.773C203.907 419 203.599 419.127 203.279 419.127Z" fill="black"/>
</g>
<g opacity="0.3">
<path d="M174.726 260.801H116.374C116.054 260.801 115.747 260.674 115.52 260.447C115.294 260.221 115.167 259.913 115.167 259.593C115.167 259.273 115.294 258.965 115.52 258.739C115.747 258.512 116.054 258.385 116.374 258.385H174.726C175.046 258.385 175.354 258.512 175.58 258.739C175.807 258.965 175.934 259.273 175.934 259.593C175.934 259.913 175.807 260.221 175.58 260.447C175.354 260.674 175.046 260.801 174.726 260.801Z" fill="black"/>
</g>
<path d="M495.828 140.402H357.13C354.822 140.402 352.951 142.273 352.951 144.581V373.712C352.951 376.02 354.822 377.891 357.13 377.891H495.828C498.136 377.891 500.008 376.02 500.008 373.712V144.581C500.008 142.273 498.136 140.402 495.828 140.402Z" fill="#FB861E"/>
<path d="M387.605 139.266H465.367C465.572 139.266 465.769 139.348 465.914 139.493C466.059 139.638 466.14 139.834 466.14 140.039V147.818H386.82V140.039C386.82 139.937 386.84 139.835 386.88 139.741C386.92 139.646 386.978 139.561 387.051 139.489C387.124 139.417 387.21 139.36 387.306 139.322C387.401 139.284 387.503 139.265 387.605 139.266Z" fill="#263238"/>
<path opacity="0.9" d="M494.195 147.818H358.77V370.438H494.195V147.818Z" fill="white"/>
<path d="M453.023 158.06H429.216L428.938 157.227C428.77 156.711 428.443 156.261 428.004 155.942C427.564 155.624 427.035 155.452 426.493 155.452C425.95 155.452 425.421 155.624 424.981 155.942C424.542 156.261 424.215 156.711 424.047 157.227L423.769 158.06H399.938C399.014 158.06 398.128 157.694 397.474 157.042C396.819 156.39 396.45 155.505 396.447 154.582V145.813C396.453 144.89 396.824 144.007 397.477 143.356C398.131 142.704 399.015 142.337 399.938 142.334H453.084C454.005 142.337 454.888 142.705 455.54 143.356C456.191 144.008 456.559 144.891 456.562 145.813V154.606C456.559 155.066 456.465 155.52 456.285 155.944C456.105 156.367 455.843 156.75 455.513 157.072C455.184 157.393 454.795 157.646 454.367 157.815C453.94 157.985 453.483 158.068 453.023 158.06ZM430.871 155.645H453.023C453.163 155.646 453.302 155.62 453.432 155.567C453.562 155.514 453.679 155.436 453.778 155.337C453.877 155.238 453.956 155.12 454.008 154.99C454.061 154.861 454.088 154.722 454.086 154.582V145.813C454.086 145.531 453.974 145.26 453.775 145.061C453.575 144.862 453.305 144.75 453.023 144.75H399.877C399.737 144.748 399.597 144.774 399.467 144.827C399.336 144.88 399.218 144.958 399.118 145.057C399.018 145.156 398.939 145.273 398.884 145.403C398.83 145.533 398.802 145.672 398.802 145.813V154.606C398.802 154.746 398.83 154.886 398.884 155.015C398.939 155.145 399.018 155.263 399.118 155.362C399.218 155.461 399.336 155.539 399.467 155.591C399.597 155.644 399.737 155.67 399.877 155.669H422.102C422.529 154.876 423.163 154.215 423.936 153.753C424.709 153.292 425.592 153.048 426.493 153.048C427.393 153.048 428.276 153.292 429.049 153.753C429.822 154.215 430.456 154.876 430.883 155.669L430.871 155.645Z" fill="#263238"/>
<g opacity="0.5">
<path d="M453.022 158.061H429.216L428.938 157.227C428.769 156.711 428.442 156.262 428.003 155.943C427.564 155.624 427.035 155.452 426.492 155.452C425.949 155.452 425.42 155.624 424.981 155.943C424.541 156.262 424.214 156.711 424.046 157.227L423.768 158.061H399.937C399.013 158.061 398.127 157.695 397.473 157.043C396.819 156.391 396.449 155.506 396.446 154.582V145.813C396.453 144.89 396.823 144.007 397.476 143.356C398.13 142.705 399.014 142.338 399.937 142.334H453.083C454.004 142.338 454.887 142.705 455.539 143.357C456.191 144.008 456.558 144.891 456.561 145.813V154.606C456.558 155.066 456.464 155.521 456.284 155.944C456.104 156.367 455.842 156.751 455.513 157.072C455.184 157.393 454.794 157.646 454.367 157.816C453.939 157.985 453.482 158.069 453.022 158.061ZM430.87 155.645H453.022C453.162 155.647 453.301 155.62 453.431 155.567C453.561 155.515 453.679 155.436 453.778 155.337C453.877 155.238 453.955 155.12 454.008 154.991C454.061 154.861 454.087 154.722 454.085 154.582V145.813C454.085 145.531 453.973 145.261 453.774 145.061C453.575 144.862 453.304 144.75 453.022 144.75H399.877C399.736 144.748 399.596 144.775 399.466 144.827C399.336 144.88 399.217 144.958 399.117 145.057C399.017 145.156 398.938 145.274 398.884 145.403C398.829 145.533 398.802 145.672 398.802 145.813V154.606C398.802 154.747 398.829 154.886 398.884 155.016C398.938 155.146 399.017 155.263 399.117 155.362C399.217 155.461 399.336 155.539 399.466 155.592C399.596 155.644 399.736 155.671 399.877 155.669H422.101C422.529 154.877 423.162 154.215 423.935 153.754C424.708 153.292 425.592 153.049 426.492 153.049C427.392 153.049 428.275 153.292 429.048 153.754C429.821 154.215 430.455 154.877 430.882 155.669L430.87 155.645Z" fill="white"/>
</g>
<path d="M449.302 140.933H403.669C403.009 140.933 402.474 141.469 402.474 142.129V144.992C402.474 145.652 403.009 146.188 403.669 146.188H449.302C449.963 146.188 450.498 145.652 450.498 144.992V142.129C450.498 141.469 449.963 140.933 449.302 140.933Z" fill="#263238"/>
<path opacity="0.2" d="M449.302 140.933H403.669C403.009 140.933 402.474 141.469 402.474 142.129V144.992C402.474 145.652 403.009 146.188 403.669 146.188H449.302C449.963 146.188 450.498 145.652 450.498 144.992V142.129C450.498 141.469 449.963 140.933 449.302 140.933Z" fill="white"/>
<path d="M483.604 334.319C486.865 320.503 478.309 306.66 464.493 303.399C450.677 300.138 436.833 308.695 433.573 322.511C430.312 336.327 438.868 350.17 452.684 353.431C466.5 356.692 480.343 348.135 483.604 334.319Z" fill="#407BFF"/>
<path opacity="0.3" d="M458.6 328.441H484.304C484.304 333.525 482.796 338.494 479.972 342.721C477.148 346.948 473.133 350.243 468.437 352.188C463.74 354.133 458.572 354.642 453.586 353.651C448.6 352.659 444.02 350.211 440.426 346.616C436.831 343.022 434.383 338.442 433.391 333.456C432.399 328.47 432.908 323.302 434.854 318.605C436.799 313.908 440.094 309.894 444.32 307.07C448.547 304.245 453.517 302.738 458.6 302.738H458.697L458.6 328.441Z" fill="white"/>
<path opacity="0.3" d="M458.602 328.441L472.469 350.074C469.107 352.231 465.289 353.575 461.318 353.999C457.346 354.423 453.331 353.916 449.589 352.518C445.848 351.12 442.484 348.869 439.764 345.944C437.044 343.019 435.044 339.5 433.921 335.667C432.798 331.834 432.584 327.792 433.296 323.862C434.007 319.932 435.625 316.222 438.021 313.026C440.416 309.83 443.523 307.236 447.096 305.45C450.669 303.664 454.608 302.736 458.602 302.738H458.687L458.602 328.441Z" fill="white"/>
<path opacity="0.3" d="M458.601 328.441L436.932 342.259C434.455 338.374 433.068 333.895 432.916 329.29C432.763 324.685 433.852 320.124 436.067 316.084C438.282 312.044 441.542 308.674 445.507 306.326C449.471 303.978 453.993 302.739 458.601 302.738H458.685L458.601 328.441Z" fill="white"/>
<g opacity="0.5">
<path d="M368.532 187.69V248.348H484.486V187.69H368.532ZM483.532 197.159H463.47V188.595H483.532V197.159ZM419.455 197.159H398.801V188.595H419.455V197.159ZM420.361 188.595H441.004V197.159H420.41L420.361 188.595ZM419.455 198.065V247.442H398.801V198.089L419.455 198.065ZM420.361 198.065H441.004V247.442H420.41L420.361 198.065ZM441.909 198.065H462.564V247.442H441.909V198.065ZM441.909 197.159V188.595H462.564V197.159H441.909ZM397.895 188.595V197.159H369.438V188.595H397.895ZM369.438 198.089H397.895V247.467H369.438V198.089ZM463.47 247.467V198.089H483.532V247.467H463.47Z" fill="black"/>
<path d="M405.383 206.544H413.741C414.061 206.544 414.369 206.417 414.595 206.19C414.822 205.964 414.949 205.657 414.949 205.336C414.949 205.016 414.822 204.709 414.595 204.482C414.369 204.256 414.061 204.128 413.741 204.128H405.383C405.062 204.128 404.755 204.256 404.529 204.482C404.302 204.709 404.175 205.016 404.175 205.336C404.175 205.657 404.302 205.964 404.529 206.19C404.755 206.417 405.062 206.544 405.383 206.544Z" fill="black"/>
<path d="M426.448 217.5H435.519C435.839 217.5 436.146 217.372 436.373 217.146C436.599 216.919 436.727 216.612 436.727 216.292C436.727 215.971 436.599 215.664 436.373 215.438C436.146 215.211 435.839 215.084 435.519 215.084H426.448C426.128 215.084 425.82 215.211 425.594 215.438C425.367 215.664 425.24 215.971 425.24 216.292C425.24 216.612 425.367 216.919 425.594 217.146C425.82 217.372 426.128 217.5 426.448 217.5Z" fill="black"/>
<path d="M435.954 237.006H426.448C426.128 237.006 425.82 237.134 425.594 237.36C425.367 237.587 425.24 237.894 425.24 238.214C425.24 238.535 425.367 238.842 425.594 239.068C425.82 239.295 426.128 239.422 426.448 239.422H435.917C436.238 239.422 436.545 239.295 436.772 239.068C436.998 238.842 437.125 238.535 437.125 238.214C437.125 237.894 436.998 237.587 436.772 237.36C436.545 237.134 436.238 237.006 435.917 237.006H435.954Z" fill="black"/>
<path d="M456.972 226.039H446.983C446.662 226.039 446.355 226.166 446.129 226.393C445.902 226.619 445.775 226.927 445.775 227.247C445.775 227.567 445.902 227.874 446.129 228.101C446.355 228.328 446.662 228.455 446.983 228.455H456.996C457.316 228.455 457.623 228.328 457.85 228.101C458.077 227.874 458.204 227.567 458.204 227.247C458.204 226.927 458.077 226.619 457.85 226.393C457.623 226.166 457.316 226.039 456.996 226.039H456.972Z" fill="black"/>
<path d="M478.581 204.129H468.435C468.115 204.129 467.808 204.256 467.581 204.482C467.355 204.709 467.227 205.016 467.227 205.337C467.227 205.657 467.355 205.964 467.581 206.191C467.808 206.417 468.115 206.544 468.435 206.544H478.581C478.902 206.544 479.209 206.417 479.435 206.191C479.662 205.964 479.789 205.657 479.789 205.337C479.789 205.016 479.662 204.709 479.435 204.482C479.209 204.256 478.902 204.129 478.581 204.129Z" fill="black"/>
<path d="M477.277 237.007H468.435C468.115 237.007 467.808 237.134 467.581 237.36C467.355 237.587 467.227 237.894 467.227 238.214C467.227 238.535 467.355 238.842 467.581 239.069C467.808 239.295 468.115 239.422 468.435 239.422H477.277C477.597 239.422 477.904 239.295 478.131 239.069C478.357 238.842 478.485 238.535 478.485 238.214C478.485 237.894 478.357 237.587 478.131 237.36C477.904 237.134 477.597 237.007 477.277 237.007Z" fill="black"/>
<path d="M405.383 228.455H412.545C412.866 228.455 413.173 228.328 413.399 228.101C413.626 227.875 413.753 227.567 413.753 227.247C413.753 226.927 413.626 226.619 413.399 226.393C413.173 226.166 412.866 226.039 412.545 226.039H405.383C405.062 226.039 404.755 226.166 404.529 226.393C404.302 226.619 404.175 226.927 404.175 227.247C404.175 227.567 404.302 227.875 404.529 228.101C404.755 228.328 405.062 228.455 405.383 228.455Z" fill="black"/>
<path d="M413.741 237.006H405.383C405.062 237.006 404.755 237.134 404.529 237.36C404.302 237.587 404.175 237.894 404.175 238.214C404.175 238.535 404.302 238.842 404.529 239.068C404.755 239.295 405.062 239.422 405.383 239.422H413.741C414.061 239.422 414.369 239.295 414.595 239.068C414.822 238.842 414.949 238.535 414.949 238.214C414.949 237.894 414.822 237.587 414.595 237.36C414.369 237.134 414.061 237.006 413.741 237.006Z" fill="black"/>
<path d="M373.797 206.544H392.906C393.226 206.544 393.533 206.417 393.76 206.191C393.986 205.964 394.113 205.657 394.113 205.337C394.113 205.016 393.986 204.709 393.76 204.482C393.533 204.256 393.226 204.129 392.906 204.129H373.797C373.477 204.129 373.17 204.256 372.943 204.482C372.717 204.709 372.589 205.016 372.589 205.337C372.589 205.657 372.717 205.964 372.943 206.191C373.17 206.417 373.477 206.544 373.797 206.544Z" fill="black"/>
<path d="M373.797 217.5H386.516C386.836 217.5 387.144 217.372 387.37 217.146C387.597 216.919 387.724 216.612 387.724 216.292C387.724 215.971 387.597 215.664 387.37 215.438C387.144 215.211 386.836 215.084 386.516 215.084H373.797C373.477 215.084 373.17 215.211 372.943 215.438C372.717 215.664 372.589 215.971 372.589 216.292C372.589 216.612 372.717 216.919 372.943 217.146C373.17 217.372 373.477 217.5 373.797 217.5Z" fill="black"/>
<path d="M392.906 226.039H373.797C373.477 226.039 373.17 226.166 372.943 226.393C372.717 226.619 372.589 226.926 372.589 227.247C372.589 227.567 372.717 227.874 372.943 228.101C373.17 228.327 373.477 228.455 373.797 228.455H392.906C393.226 228.455 393.533 228.327 393.76 228.101C393.986 227.874 394.113 227.567 394.113 227.247C394.113 226.926 393.986 226.619 393.76 226.393C393.533 226.166 393.226 226.039 392.906 226.039Z" fill="black"/>
<path d="M383.351 237.007H373.797C373.477 237.007 373.17 237.134 372.943 237.36C372.717 237.587 372.589 237.894 372.589 238.214C372.589 238.535 372.717 238.842 372.943 239.069C373.17 239.295 373.477 239.422 373.797 239.422H383.351C383.672 239.422 383.979 239.295 384.205 239.069C384.432 238.842 384.559 238.535 384.559 238.214C384.559 237.894 384.432 237.587 384.205 237.36C383.979 237.134 383.672 237.007 383.351 237.007Z" fill="black"/>
</g>
<g opacity="0.5">
<path d="M414.962 174.971H369.74C369.419 174.971 369.112 174.844 368.886 174.617C368.659 174.39 368.532 174.083 368.532 173.763C368.532 173.443 368.659 173.135 368.886 172.909C369.112 172.682 369.419 172.555 369.74 172.555H414.962C415.282 172.555 415.59 172.682 415.816 172.909C416.043 173.135 416.17 173.443 416.17 173.763C416.17 174.083 416.043 174.39 415.816 174.617C415.59 174.844 415.282 174.971 414.962 174.971Z" fill="black"/>
</g>
<g opacity="0.5">
<path d="M399.103 181.747H369.74C369.419 181.747 369.112 181.62 368.886 181.393C368.659 181.167 368.532 180.859 368.532 180.539C368.532 180.219 368.659 179.911 368.886 179.685C369.112 179.458 369.419 179.331 369.74 179.331H399.103C399.423 179.331 399.73 179.458 399.957 179.685C400.184 179.911 400.311 180.219 400.311 180.539C400.311 180.859 400.184 181.167 399.957 181.393C399.73 181.62 399.423 181.747 399.103 181.747Z" fill="black"/>
</g>
<g opacity="0.5">
<path d="M428.092 258.821H369.74C369.419 258.821 369.112 258.694 368.886 258.467C368.659 258.24 368.532 257.933 368.532 257.613C368.532 257.293 368.659 256.985 368.886 256.759C369.112 256.532 369.419 256.405 369.74 256.405H428.092C428.412 256.405 428.719 256.532 428.946 256.759C429.172 256.985 429.299 257.293 429.299 257.613C429.299 257.933 429.172 258.24 428.946 258.467C428.719 258.694 428.412 258.821 428.092 258.821Z" fill="black"/>
</g>
<path d="M375.744 306.7H368.533V313.911H375.744V306.7Z" fill="#407BFF"/>
<g opacity="0.5">
<path d="M416.784 311.52H380.983C380.663 311.52 380.356 311.392 380.129 311.166C379.903 310.939 379.776 310.632 379.776 310.312C379.776 309.991 379.903 309.684 380.129 309.458C380.356 309.231 380.663 309.104 380.983 309.104H416.784C417.105 309.104 417.412 309.231 417.639 309.458C417.865 309.684 417.992 309.991 417.992 310.312C417.992 310.632 417.865 310.939 417.639 311.166C417.412 311.392 417.105 311.52 416.784 311.52Z" fill="black"/>
</g>
<path d="M375.744 318.791H368.533V326.001H375.744V318.791Z" fill="#407BFF"/>
<g opacity="0.5">
<path d="M416.784 323.598H380.983C380.663 323.598 380.356 323.471 380.129 323.244C379.903 323.018 379.776 322.71 379.776 322.39C379.776 322.07 379.903 321.762 380.129 321.536C380.356 321.309 380.663 321.182 380.983 321.182H416.784C417.105 321.182 417.412 321.309 417.639 321.536C417.865 321.762 417.992 322.07 417.992 322.39C417.992 322.71 417.865 323.018 417.639 323.244C417.412 323.471 417.105 323.598 416.784 323.598Z" fill="black"/>
</g>
<path d="M375.744 330.869H368.533V338.08H375.744V330.869Z" fill="#407BFF"/>
<g opacity="0.5">
<path d="M416.784 335.689H380.983C380.663 335.689 380.356 335.561 380.129 335.335C379.903 335.108 379.776 334.801 379.776 334.481C379.776 334.16 379.903 333.853 380.129 333.627C380.356 333.4 380.663 333.273 380.983 333.273H416.784C417.105 333.273 417.412 333.4 417.639 333.627C417.865 333.853 417.992 334.16 417.992 334.481C417.992 334.801 417.865 335.108 417.639 335.335C417.412 335.561 417.105 335.689 416.784 335.689Z" fill="black"/>
</g>
<path d="M375.744 342.96H368.533V350.171H375.744V342.96Z" fill="#407BFF"/>
<g opacity="0.5">
<path d="M416.784 347.779H380.983C380.663 347.779 380.356 347.652 380.129 347.425C379.903 347.199 379.776 346.892 379.776 346.571C379.776 346.251 379.903 345.944 380.129 345.717C380.356 345.491 380.663 345.364 380.983 345.364H416.784C417.105 345.364 417.412 345.491 417.639 345.717C417.865 345.944 417.992 346.251 417.992 346.571C417.992 346.892 417.865 347.199 417.639 347.425C417.412 347.652 417.105 347.779 416.784 347.779Z" fill="black"/>
</g>
<g opacity="0.5">
<path d="M482.83 269.619H378.06C377.74 269.619 377.433 269.491 377.206 269.265C376.98 269.038 376.852 268.731 376.852 268.411C376.852 268.09 376.98 267.783 377.206 267.557C377.433 267.33 377.74 267.203 378.06 267.203H482.83C483.15 267.203 483.457 267.33 483.684 267.557C483.91 267.783 484.038 268.09 484.038 268.411C484.038 268.731 483.91 269.038 483.684 269.265C483.457 269.491 483.15 269.619 482.83 269.619Z" fill="black"/>
<path d="M482.965 275.67H369.74C369.419 275.67 369.112 275.543 368.886 275.316C368.659 275.09 368.532 274.782 368.532 274.462C368.532 274.142 368.659 273.835 368.886 273.608C369.112 273.382 369.419 273.254 369.74 273.254H482.965C483.285 273.254 483.592 273.382 483.819 273.608C484.045 273.835 484.172 274.142 484.172 274.462C484.172 274.782 484.045 275.09 483.819 275.316C483.592 275.543 483.285 275.67 482.965 275.67Z" fill="black"/>
<path d="M483.097 281.721H369.873C369.552 281.721 369.245 281.594 369.019 281.368C368.792 281.141 368.665 280.834 368.665 280.514C368.665 280.193 368.792 279.886 369.019 279.659C369.245 279.433 369.552 279.306 369.873 279.306H483.097C483.418 279.306 483.725 279.433 483.951 279.659C484.178 279.886 484.305 280.193 484.305 280.514C484.305 280.834 484.178 281.141 483.951 281.368C483.725 281.594 483.418 281.721 483.097 281.721Z" fill="black"/>
<path d="M466.307 287.773H370.005C369.684 287.773 369.377 287.645 369.151 287.419C368.924 287.192 368.797 286.885 368.797 286.565C368.797 286.245 368.924 285.937 369.151 285.711C369.377 285.484 369.684 285.357 370.005 285.357H466.307C466.628 285.357 466.935 285.484 467.161 285.711C467.388 285.937 467.515 286.245 467.515 286.565C467.515 286.885 467.388 287.192 467.161 287.419C466.935 287.645 466.628 287.773 466.307 287.773Z" fill="black"/>
</g>
<path opacity="0.3" d="M375.744 318.791H368.533V326.001H375.744V318.791Z" fill="white"/>
<path opacity="0.5" d="M375.744 330.869H368.533V338.08H375.744V330.869Z" fill="white"/>
<path opacity="0.7" d="M375.744 342.96H368.533V350.171H375.744V342.96Z" fill="white"/>
<path d="M492.168 408.559C492.168 408.559 486.431 396.045 492.989 383.701C499.548 371.357 501.444 368.458 497.265 365.933C493.086 363.409 491.165 375.802 491.165 375.802C489.098 370.195 488.886 364.072 490.561 358.336C493.46 349.41 495.284 334.867 491.322 333.309C487.361 331.751 490.561 351.427 487.107 358.167C485.355 353.449 484.222 348.524 483.737 343.516C483.266 336.353 484.003 324.902 480.874 321.967C477.746 319.032 475.729 321.061 478.809 336.884C480.66 346.339 481.683 355.938 481.865 365.571C481.865 365.571 475.065 344.808 470.487 344.204C465.909 343.6 465.921 350.328 469.835 356.162C473.748 361.996 481.297 372.432 482.529 377.807C482.529 377.807 475.053 362.189 468.337 366.936C461.621 371.683 474.183 381.165 479.787 384.571C485.392 387.977 489.257 409.392 489.257 409.392L492.168 408.559Z" fill="#407BFF"/>
<path opacity="0.99" d="M492.168 408.559C492.168 408.559 486.431 396.045 492.989 383.701C499.548 371.357 501.444 368.458 497.265 365.933C493.086 363.409 491.165 375.802 491.165 375.802C489.098 370.195 488.886 364.072 490.561 358.336C493.46 349.41 495.284 334.867 491.322 333.309C487.361 331.751 490.561 351.427 487.107 358.167C485.355 353.449 484.222 348.524 483.737 343.516C483.266 336.353 484.003 324.902 480.874 321.967C477.746 319.032 475.729 321.061 478.809 336.884C480.66 346.339 481.683 355.938 481.865 365.571C481.865 365.571 475.065 344.808 470.487 344.204C465.909 343.6 465.921 350.328 469.835 356.162C473.748 361.996 481.297 372.432 482.529 377.807C482.529 377.807 475.053 362.189 468.337 366.936C461.621 371.683 474.183 381.165 479.787 384.571C485.392 387.977 489.257 409.392 489.257 409.392L492.168 408.559Z" fill="#0E9142"/>
<path d="M487.638 413.692C487.638 413.692 493.23 401.094 486.527 388.858C479.823 376.623 477.891 373.736 482.033 371.139C486.176 368.542 488.254 380.923 488.254 380.923C490.256 375.294 490.395 369.171 488.653 363.457C485.645 354.567 483.64 340.061 487.59 338.442C491.539 336.824 488.568 356.56 492.095 363.228C493.793 358.491 494.869 353.554 495.296 348.54C495.682 341.353 494.801 329.915 497.905 326.932C501.009 323.948 503.038 325.953 500.139 341.824C498.404 351.306 497.498 360.921 497.434 370.559C497.434 370.559 503.992 349.7 508.582 349.072C513.172 348.443 513.22 355.111 509.379 361.005C505.538 366.9 498.122 377.456 496.951 382.843C496.951 382.843 504.198 367.141 511.01 371.803C517.822 376.466 505.333 386.117 499.777 389.607C494.221 393.098 490.573 414.525 490.573 414.525L487.638 413.692Z" fill="#7AE939"/>
<path d="M513.413 404.718H467.261L470.993 437.741H509.669L513.413 404.718Z" fill="#263238"/>
<path d="M234.708 121.474H269.422C272.254 121.474 274.97 122.599 276.972 124.601C278.975 126.604 280.1 129.32 280.1 132.152V162.348C280.1 165.18 278.975 167.896 276.972 169.898C274.97 171.901 272.254 173.026 269.422 173.026H259.276L262.9 186.191L252.029 173.026H234.708C233.305 173.027 231.915 172.752 230.619 172.216C229.322 171.68 228.143 170.894 227.15 169.902C226.158 168.911 225.37 167.733 224.833 166.437C224.295 165.141 224.019 163.751 224.019 162.348V132.152C224.019 130.748 224.295 129.359 224.833 128.063C225.37 126.766 226.158 125.589 227.15 124.597C228.143 123.606 229.322 122.819 230.619 122.283C231.915 121.748 233.305 121.473 234.708 121.474Z" fill="#FB861E"/>
<path opacity="0.7" d="M234.708 121.474H269.422C272.254 121.474 274.97 122.599 276.972 124.601C278.975 126.604 280.1 129.32 280.1 132.152V162.348C280.1 165.18 278.975 167.896 276.972 169.898C274.97 171.901 272.254 173.026 269.422 173.026H259.276L262.9 186.191L252.029 173.026H234.708C233.305 173.027 231.915 172.752 230.619 172.216C229.322 171.68 228.143 170.894 227.15 169.902C226.158 168.911 225.37 167.733 224.833 166.437C224.295 165.141 224.019 163.751 224.019 162.348V132.152C224.019 130.748 224.295 129.359 224.833 128.063C225.37 126.766 226.158 125.589 227.15 124.597C228.143 123.606 229.322 122.819 230.619 122.283C231.915 121.748 233.305 121.473 234.708 121.474Z" fill="white"/>
<path opacity="0.7" d="M246.813 153.833C252.783 153.833 257.623 148.993 257.623 143.022C257.623 137.052 252.783 132.212 246.813 132.212C240.842 132.212 236.002 137.052 236.002 143.022C236.002 148.993 240.842 153.833 246.813 153.833Z" fill="white"/>
<path d="M246.809 155.391C243.948 155.389 241.176 154.395 238.966 152.578C236.756 150.762 235.244 148.235 234.687 145.429C234.131 142.622 234.564 139.71 235.914 137.187C237.264 134.665 239.447 132.688 242.09 131.594C244.734 130.5 247.675 130.357 250.413 131.188C253.15 132.019 255.515 133.774 257.104 136.153C258.694 138.532 259.409 141.388 259.128 144.235C258.848 147.083 257.589 149.745 255.566 151.768C254.417 152.919 253.052 153.832 251.549 154.453C250.046 155.075 248.436 155.394 246.809 155.391ZM246.809 133.783C244.671 133.783 242.6 134.525 240.948 135.881C239.295 137.238 238.165 139.125 237.748 141.222C237.331 143.318 237.654 145.495 238.662 147.38C239.67 149.265 241.301 150.742 243.276 151.56C245.251 152.378 247.449 152.486 249.494 151.865C251.54 151.244 253.307 149.933 254.494 148.155C255.682 146.378 256.216 144.243 256.006 142.116C255.796 139.989 254.856 138 253.344 136.488C252.488 135.627 251.47 134.945 250.348 134.48C249.226 134.016 248.023 133.779 246.809 133.783Z" fill="#FB861E"/>
<path d="M255.569 149.557L253.348 151.777L265.673 164.102L267.893 161.881L255.569 149.557Z" fill="#FB861E"/>
<path d="M268.105 166.684C267.482 166.679 266.884 166.432 266.438 165.996L257.029 156.587C256.794 156.372 256.605 156.113 256.473 155.823C256.341 155.534 256.269 155.221 256.261 154.903C256.254 154.585 256.311 154.268 256.429 153.973C256.547 153.678 256.723 153.409 256.948 153.184C257.172 152.958 257.44 152.781 257.735 152.662C258.03 152.543 258.346 152.485 258.664 152.491C258.982 152.498 259.295 152.569 259.585 152.7C259.875 152.83 260.136 153.019 260.351 153.253L269.772 162.674C270.098 163.004 270.319 163.423 270.408 163.878C270.497 164.334 270.449 164.805 270.271 165.233C270.093 165.661 269.793 166.028 269.407 166.286C269.022 166.544 268.569 166.683 268.105 166.684Z" fill="#FB861E"/>
<path d="M248.491 138.13C248.491 138.608 248.349 139.075 248.084 139.473C247.818 139.87 247.441 140.179 246.999 140.362C246.558 140.545 246.072 140.593 245.604 140.5C245.135 140.407 244.705 140.176 244.367 139.839C244.029 139.501 243.799 139.07 243.706 138.602C243.612 138.133 243.66 137.647 243.843 137.206C244.026 136.765 244.336 136.387 244.733 136.122C245.13 135.856 245.597 135.715 246.075 135.715C246.716 135.715 247.33 135.969 247.783 136.422C248.236 136.875 248.491 137.49 248.491 138.13Z" fill="white"/>
<path d="M252.08 139.895C252.08 140.133 252.009 140.367 251.876 140.566C251.743 140.764 251.555 140.919 251.334 141.01C251.113 141.102 250.87 141.126 250.636 141.079C250.402 141.033 250.187 140.917 250.018 140.749C249.849 140.58 249.734 140.364 249.687 140.13C249.64 139.896 249.664 139.653 249.756 139.432C249.847 139.212 250.002 139.023 250.201 138.89C250.399 138.757 250.633 138.687 250.872 138.687C251.192 138.687 251.499 138.814 251.726 139.04C251.952 139.267 252.08 139.574 252.08 139.895Z" fill="white"/>
<path d="M348.879 343.588H168.98V372.54H348.879V343.588Z" fill="#407BFF"/>
<path opacity="0.8" d="M348.879 343.588H168.98V372.54H348.879V343.588Z" fill="white"/>
<path opacity="0.2" d="M348.879 351.245V348.89L225.714 349.868L348.879 351.245Z" fill="black"/>
<path opacity="0.2" d="M348.882 361.391V359.568L293.586 361.548L348.882 361.391Z" fill="black"/>
<path opacity="0.2" d="M348.88 368.18V365.824L259.728 367.189L348.88 368.18Z" fill="black"/>
<path opacity="0.2" d="M209.206 343.588L206.621 365.172L209.701 361.887C210.736 365.827 212.671 369.474 215.354 372.54C217.278 370.019 218.809 367.221 219.895 364.242L303.914 363.276L220.692 361.452C220.951 360.261 221.084 359.047 221.091 357.828C221.087 356.819 220.99 355.812 220.801 354.821L344.075 354.507L220.511 353.54C220.076 351.914 219.469 350.339 218.699 348.842C220.477 347.274 222.768 346.415 225.137 346.426H348.883V343.588H209.206Z" fill="black"/>
<path d="M211.979 357.901C211.989 361.372 213.373 364.697 215.83 367.149C218.286 369.601 221.614 370.979 225.085 370.982H350.956C351.082 370.982 351.208 371.007 351.325 371.056C351.443 371.104 351.549 371.175 351.639 371.265C351.729 371.355 351.8 371.461 351.848 371.579C351.897 371.696 351.922 371.822 351.922 371.948V372.987C351.922 373.243 351.82 373.489 351.639 373.67C351.458 373.852 351.212 373.953 350.956 373.953H165.018C162.897 373.954 160.797 373.534 158.839 372.718C156.881 371.902 155.105 370.707 153.611 369.201C152.118 367.696 150.937 365.909 150.138 363.945C149.338 361.98 148.936 359.877 148.953 357.756C149.058 353.469 150.844 349.396 153.927 346.415C157.009 343.434 161.14 341.785 165.428 341.824H350.956C351.212 341.824 351.458 341.926 351.639 342.107C351.82 342.289 351.922 342.534 351.922 342.791V343.817C351.922 344.074 351.82 344.319 351.639 344.501C351.458 344.682 351.212 344.784 350.956 344.784H225.471C221.955 344.776 218.575 346.144 216.054 348.595C213.533 351.046 212.071 354.386 211.979 357.901Z" fill="#407BFF"/>
<path opacity="0.4" d="M211.979 357.901C211.989 361.372 213.373 364.697 215.83 367.149C218.286 369.601 221.614 370.979 225.085 370.982H350.956C351.082 370.982 351.208 371.007 351.325 371.056C351.443 371.104 351.549 371.175 351.639 371.265C351.729 371.355 351.8 371.461 351.848 371.579C351.897 371.696 351.922 371.822 351.922 371.948V372.987C351.922 373.243 351.82 373.489 351.639 373.67C351.458 373.852 351.212 373.953 350.956 373.953H165.018C162.897 373.954 160.797 373.534 158.839 372.718C156.881 371.902 155.105 370.707 153.611 369.201C152.118 367.696 150.937 365.909 150.138 363.945C149.338 361.98 148.936 359.877 148.953 357.756C149.058 353.469 150.844 349.396 153.927 346.415C157.009 343.434 161.14 341.785 165.428 341.824H350.956C351.212 341.824 351.458 341.926 351.639 342.107C351.82 342.289 351.922 342.534 351.922 342.791V343.817C351.922 344.074 351.82 344.319 351.639 344.501C351.458 344.682 351.212 344.784 350.956 344.784H225.471C221.955 344.776 218.575 346.144 216.054 348.595C213.533 351.046 212.071 354.386 211.979 357.901Z" fill="white"/>
<path d="M211.982 357.901C211.992 361.371 213.376 364.697 215.833 367.148C218.289 369.6 221.617 370.979 225.088 370.982H350.959C351.086 370.982 351.211 371.007 351.328 371.055C351.446 371.104 351.552 371.175 351.642 371.265C351.732 371.355 351.803 371.461 351.851 371.578C351.9 371.696 351.925 371.821 351.925 371.948V372.987C351.925 373.243 351.823 373.489 351.642 373.67C351.461 373.851 351.215 373.953 350.959 373.953H224.363C222.242 373.952 220.142 373.531 218.184 372.715C216.227 371.899 214.45 370.704 212.956 369.198C211.462 367.693 210.28 365.907 209.478 363.943C208.677 361.98 208.272 359.877 208.286 357.756C208.397 353.475 210.182 349.409 213.258 346.43C216.334 343.451 220.455 341.797 224.737 341.824H350.959C351.215 341.824 351.461 341.926 351.642 342.107C351.823 342.288 351.925 342.534 351.925 342.79V343.817C351.925 344.073 351.823 344.319 351.642 344.5C351.461 344.682 351.215 344.783 350.959 344.783H225.474C221.958 344.776 218.578 346.144 216.057 348.595C213.536 351.046 212.074 354.386 211.982 357.901Z" fill="#407BFF"/>
<path d="M235.679 350.098V361.706L239.883 357.502L243.953 361.573V350.098H235.679Z" fill="#263238"/>
<path opacity="0.6" d="M211.982 357.901C211.992 361.371 213.376 364.697 215.833 367.148C218.289 369.6 221.617 370.979 225.088 370.982H350.959C351.086 370.982 351.211 371.007 351.328 371.055C351.446 371.104 351.552 371.175 351.642 371.265C351.732 371.355 351.803 371.461 351.851 371.578C351.9 371.696 351.925 371.821 351.925 371.948V372.987C351.925 373.243 351.823 373.489 351.642 373.67C351.461 373.851 351.215 373.953 350.959 373.953H224.363C222.242 373.952 220.142 373.531 218.184 372.715C216.227 371.899 214.45 370.704 212.956 369.198C211.462 367.693 210.28 365.907 209.478 363.943C208.677 361.98 208.272 359.877 208.286 357.756C208.397 353.475 210.182 349.409 213.258 346.43C216.334 343.451 220.455 341.797 224.737 341.824H350.959C351.215 341.824 351.461 341.926 351.642 342.107C351.823 342.288 351.925 342.534 351.925 342.79V343.817C351.925 344.073 351.823 344.319 351.642 344.5C351.461 344.682 351.215 344.783 350.959 344.783H225.474C221.958 344.776 218.578 346.144 216.057 348.595C213.536 351.046 212.074 354.386 211.982 357.901Z" fill="white"/>
<path d="M357.566 407.387H177.667V436.339H357.566V407.387Z" fill="#407BFF"/>
<path opacity="0.7" d="M357.566 407.387H177.667V436.339H357.566V407.387Z" fill="white"/>
<path opacity="0.2" d="M357.566 415.032V412.677L234.4 413.668L357.566 415.032Z" fill="black"/>
<path opacity="0.2" d="M357.563 425.178V423.367L302.268 425.336L357.563 425.178Z" fill="black"/>
<path opacity="0.2" d="M357.566 431.967V429.623L268.414 430.976L357.566 431.967Z" fill="black"/>
<path opacity="0.2" d="M217.889 407.387L215.281 428.971L218.361 425.686C219.407 429.624 221.345 433.269 224.025 436.339C225.941 433.81 227.468 431.009 228.555 428.029L312.574 427.063L229.352 425.251C229.613 424.06 229.751 422.846 229.763 421.627C229.754 420.618 229.653 419.611 229.461 418.62L352.771 418.342L229.195 417.376C228.76 415.753 228.153 414.182 227.383 412.689C229.152 411.1 231.444 410.218 233.821 410.213H357.603V407.387H217.889Z" fill="black"/>
<path d="M220.666 421.688C220.66 423.412 220.994 425.121 221.65 426.716C222.306 428.311 223.27 429.76 224.488 430.982C225.706 432.203 227.153 433.171 228.746 433.831C230.339 434.492 232.047 434.831 233.771 434.829H359.642C359.899 434.829 360.144 434.931 360.326 435.112C360.507 435.294 360.609 435.539 360.609 435.796V436.834C360.609 437.091 360.507 437.336 360.326 437.518C360.144 437.699 359.899 437.801 359.642 437.801H163.812C161.693 437.797 159.596 437.376 157.64 436.56C155.685 435.744 153.91 434.55 152.417 433.046C150.924 431.542 149.743 429.758 148.942 427.796C148.141 425.835 147.735 423.734 147.748 421.615C147.849 417.323 149.635 413.243 152.72 410.258C155.806 407.272 159.942 405.62 164.235 405.659H359.642C359.899 405.659 360.144 405.761 360.326 405.943C360.507 406.124 360.609 406.369 360.609 406.626V407.665C360.609 407.921 360.507 408.167 360.326 408.348C360.144 408.529 359.899 408.631 359.642 408.631H234.158C230.652 408.623 227.281 409.982 224.762 412.421C222.242 414.859 220.773 418.183 220.666 421.688Z" fill="#263238"/>
<path opacity="0.2" d="M220.666 421.688C220.66 423.412 220.994 425.121 221.65 426.716C222.306 428.311 223.27 429.76 224.488 430.982C225.706 432.203 227.153 433.171 228.746 433.831C230.339 434.492 232.047 434.831 233.771 434.829H359.642C359.899 434.829 360.144 434.931 360.326 435.112C360.507 435.294 360.609 435.539 360.609 435.796V436.834C360.609 437.091 360.507 437.336 360.326 437.518C360.144 437.699 359.899 437.801 359.642 437.801H163.812C161.693 437.797 159.596 437.376 157.64 436.56C155.685 435.744 153.91 434.55 152.417 433.046C150.924 431.542 149.743 429.758 148.942 427.796C148.141 425.835 147.735 423.734 147.748 421.615C147.849 417.323 149.635 413.243 152.72 410.258C155.806 407.272 159.942 405.62 164.235 405.659H359.642C359.899 405.659 360.144 405.761 360.326 405.943C360.507 406.124 360.609 406.369 360.609 406.626V407.665C360.609 407.921 360.507 408.167 360.326 408.348C360.144 408.529 359.899 408.631 359.642 408.631H234.158C230.652 408.623 227.281 409.982 224.762 412.421C222.242 414.859 220.773 418.183 220.666 421.688Z" fill="white"/>
<path d="M220.664 421.687C220.658 423.412 220.992 425.121 221.648 426.716C222.304 428.311 223.268 429.76 224.486 430.981C225.704 432.202 227.151 433.171 228.744 433.831C230.337 434.491 232.045 434.831 233.769 434.829H359.64C359.897 434.829 360.142 434.931 360.324 435.112C360.505 435.293 360.607 435.539 360.607 435.795V436.834C360.607 437.09 360.505 437.336 360.324 437.517C360.142 437.698 359.897 437.8 359.64 437.8H233.045C230.925 437.8 228.826 437.381 226.869 436.566C224.912 435.751 223.136 434.557 221.642 433.052C220.149 431.548 218.968 429.763 218.168 427.8C217.368 425.837 216.964 423.735 216.98 421.615C217.078 417.324 218.862 413.244 221.945 410.258C225.029 407.272 229.163 405.62 233.455 405.659H359.64C359.897 405.659 360.142 405.761 360.324 405.942C360.505 406.123 360.607 406.369 360.607 406.625V407.664C360.607 407.92 360.505 408.166 360.324 408.347C360.142 408.529 359.897 408.63 359.64 408.63H234.156C230.65 408.623 227.279 409.982 224.76 412.42C222.24 414.858 220.771 418.183 220.664 421.687Z" fill="#263238"/>
<path d="M234.4 418.016V429.623L238.592 425.42L242.662 429.491V418.016H234.4Z" fill="#407BFF"/>
<path opacity="0.4" d="M220.664 421.687C220.658 423.412 220.992 425.121 221.648 426.716C222.304 428.311 223.268 429.76 224.486 430.981C225.704 432.202 227.151 433.171 228.744 433.831C230.337 434.491 232.045 434.831 233.769 434.829H359.64C359.897 434.829 360.142 434.931 360.324 435.112C360.505 435.293 360.607 435.539 360.607 435.795V436.834C360.607 437.09 360.505 437.336 360.324 437.517C360.142 437.698 359.897 437.8 359.64 437.8H233.045C230.925 437.8 228.826 437.381 226.869 436.566C224.912 435.751 223.136 434.557 221.642 433.052C220.149 431.548 218.968 429.763 218.168 427.8C217.368 425.837 216.964 423.735 216.98 421.615C217.078 417.324 218.862 413.244 221.945 410.258C225.029 407.272 229.163 405.62 233.455 405.659H359.64C359.897 405.659 360.142 405.761 360.324 405.942C360.505 406.123 360.607 406.369 360.607 406.625V407.664C360.607 407.92 360.505 408.166 360.324 408.347C360.142 408.529 359.897 408.63 359.64 408.63H234.156C230.65 408.623 227.279 409.982 224.76 412.42C222.24 414.858 220.771 418.183 220.664 421.687Z" fill="white"/>
<path d="M161.479 404.392H228.129V375.475H161.479V404.392Z" fill="#407BFF"/>
<path opacity="0.8" d="M161.479 404.392H228.129V375.475H161.479V404.392Z" fill="white"/>
<path opacity="0.2" d="M222.795 378.314H161.484V375.487H222.722L222.795 378.314Z" fill="black"/>
<path opacity="0.2" d="M222.791 380.778L167.483 381.961L222.791 383.133V380.778Z" fill="black"/>
<path opacity="0.2" d="M222.793 391.467L164.224 392.458L222.793 393.291V391.467Z" fill="black"/>
<path opacity="0.2" d="M222.794 397.724L164.744 398.896L222.794 400.067V397.724Z" fill="black"/>
<path opacity="0.2" d="M161.484 384.896L217.637 386.587L161.484 387.771V384.896Z" fill="black"/>
<path d="M310.239 389.788C310.233 393.261 308.849 396.589 306.393 399.043C303.936 401.498 300.606 402.878 297.134 402.881H158.399C158.143 402.881 157.897 402.983 157.716 403.164C157.534 403.345 157.433 403.591 157.433 403.847V404.874C157.433 405.13 157.534 405.376 157.716 405.557C157.897 405.739 158.143 405.84 158.399 405.84H297.858C299.979 405.844 302.079 405.426 304.038 404.613C305.996 403.799 307.774 402.605 309.268 401.1C310.762 399.595 311.942 397.808 312.742 395.844C313.541 393.879 313.942 391.776 313.923 389.655C313.825 385.364 312.041 381.284 308.958 378.298C305.875 375.312 301.74 373.66 297.448 373.699H158.399C158.143 373.699 157.897 373.801 157.716 373.982C157.534 374.164 157.433 374.409 157.433 374.666V375.704C157.433 375.961 157.534 376.206 157.716 376.388C157.897 376.569 158.143 376.671 158.399 376.671H296.747C300.263 376.663 303.643 378.031 306.164 380.482C308.685 382.933 310.147 386.273 310.239 389.788Z" fill="#263238"/>
<path opacity="0.4" d="M310.239 389.788C310.233 393.261 308.849 396.589 306.393 399.043C303.936 401.498 300.606 402.878 297.134 402.881H158.399C158.143 402.881 157.897 402.983 157.716 403.164C157.534 403.345 157.433 403.591 157.433 403.847V404.874C157.433 405.13 157.534 405.376 157.716 405.557C157.897 405.739 158.143 405.84 158.399 405.84H297.858C299.979 405.844 302.079 405.426 304.038 404.613C305.996 403.799 307.774 402.605 309.268 401.1C310.762 399.595 311.942 397.808 312.742 395.844C313.541 393.879 313.942 391.776 313.923 389.655C313.825 385.364 312.041 381.284 308.958 378.298C305.875 375.312 301.74 373.66 297.448 373.699H158.399C158.143 373.699 157.897 373.801 157.716 373.982C157.534 374.164 157.433 374.409 157.433 374.666V375.704C157.433 375.961 157.534 376.206 157.716 376.388C157.897 376.569 158.143 376.671 158.399 376.671H296.747C300.263 376.663 303.643 378.031 306.164 380.482C308.685 382.933 310.147 386.273 310.239 389.788Z" fill="white"/>
<path d="M360.84 389.957C360.84 393.802 359.313 397.488 356.594 400.206C353.876 402.925 350.19 404.452 346.345 404.452H222.793V375.463H346.357C350.2 375.466 353.883 376.995 356.599 379.713C359.314 382.431 360.84 386.115 360.84 389.957Z" fill="#407BFF"/>
<path opacity="0.7" d="M222.793 375.487V404.476H346.37C350.214 404.476 353.9 402.949 356.619 400.231C359.337 397.512 360.864 393.826 360.864 389.981C360.864 386.137 359.337 382.451 356.619 379.732C353.9 377.014 350.214 375.487 346.37 375.487H222.793Z" fill="white"/>
<path opacity="0.2" d="M222.793 383.133V380.778L345.959 381.768L222.793 383.133Z" fill="black"/>
<path opacity="0.2" d="M222.793 393.291V391.467L278.089 393.448L222.793 393.291Z" fill="black"/>
<path opacity="0.2" d="M222.793 400.067V397.724L311.946 399.077L222.793 400.067Z" fill="black"/>
<path opacity="0.2" d="M346.563 378.314C348.94 378.319 351.232 379.2 353.001 380.79C352.231 382.288 351.619 383.863 351.177 385.488L227.613 386.455L350.899 386.757C350.706 387.752 350.605 388.763 350.597 389.776C350.599 390.996 350.741 392.212 351.02 393.4L267.786 395.212L351.793 396.19C352.521 398.194 353.456 400.117 354.583 401.927C357.112 400.168 359.014 397.648 360.014 394.735C361.014 391.821 361.06 388.664 360.144 385.723C359.229 382.781 357.4 380.208 354.923 378.376C352.446 376.544 349.45 375.549 346.37 375.536H222.793V378.362L346.563 378.314Z" fill="black"/>
<path d="M359.689 389.788C359.682 393.261 358.299 396.589 355.842 399.043C353.386 401.498 350.056 402.878 346.583 402.881H220.712C220.456 402.881 220.21 402.983 220.029 403.164C219.848 403.345 219.746 403.591 219.746 403.847V404.874C219.746 405.13 219.848 405.376 220.029 405.557C220.21 405.739 220.456 405.84 220.712 405.84H347.308C349.429 405.844 351.529 405.426 353.488 404.613C355.446 403.799 357.224 402.605 358.718 401.1C360.212 399.595 361.392 397.808 362.191 395.844C362.99 393.879 363.392 391.776 363.373 389.655C363.274 385.364 361.491 381.284 358.408 378.298C355.324 375.312 351.189 373.66 346.897 373.699H220.712C220.456 373.699 220.21 373.801 220.029 373.982C219.848 374.164 219.746 374.409 219.746 374.666V375.704C219.746 375.961 219.848 376.206 220.029 376.388C220.21 376.569 220.456 376.671 220.712 376.671H346.197C349.713 376.663 353.093 378.031 355.614 380.482C358.135 382.933 359.597 386.273 359.689 389.788Z" fill="#263238"/>
<path d="M345.956 386.116V397.724L341.753 393.521L337.682 397.591V386.116H345.956Z" fill="#407BFF"/>
<path d="M378.607 222.959H375.588C375.027 222.97 374.476 223.115 373.983 223.382C373.489 223.649 373.066 224.03 372.749 224.493L369.754 228.865C369.159 229.729 368.781 230.723 368.65 231.763C368.52 232.804 368.642 233.86 369.005 234.844L369.464 236.052C374.476 236.294 380.081 232.863 380.081 232.863L381.796 232.066C382.15 231.911 382.47 231.688 382.738 231.409C383.005 231.13 383.215 230.801 383.354 230.44C383.493 230.079 383.56 229.695 383.549 229.308C383.539 228.922 383.452 228.541 383.294 228.189L381.76 224.867C381.474 224.279 381.024 223.786 380.465 223.448C379.906 223.109 379.261 222.939 378.607 222.959Z" fill="#EEC1BB"/>
<path d="M321.366 228.285C329.121 234.554 337.491 240.593 346.731 244.289L345.584 244.048C346.429 244.253 348.652 243.408 349.811 242.84C356.261 239.7 362.373 234.989 368.171 230.689C368.764 230.259 369.492 230.056 370.222 230.117C370.952 230.177 371.636 230.496 372.151 231.017C372.666 231.538 372.978 232.226 373.03 232.957C373.082 233.687 372.871 234.413 372.435 235.001C366.649 242.248 353.628 256.972 343.313 254.822C332.007 251.452 322.018 245.159 313.117 237.465C307.343 231.909 315.085 223.224 321.366 228.285Z" fill="#EBC0BB"/>
<path d="M305.096 219.746C302.27 227.621 306.824 235.448 317.779 244.664C323.226 243.855 330.582 232.682 330.582 232.682C330.582 232.682 315.17 217.27 305.096 219.746Z" fill="#FB861E"/>
<path d="M314.514 170.828C314.514 170.828 303.728 159.788 289.669 173.642C275.609 187.496 272.867 233.395 272.867 233.395L309.562 240.521C309.562 240.521 314.309 235.074 316.749 219.359C319.189 203.645 320.481 188.619 323.573 185.117C326.665 181.614 314.514 170.828 314.514 170.828Z" fill="#263238"/>
<path d="M346.028 403.268L338.081 400.103L341.185 388.52L344.047 377.891L354.097 380.113L349.833 392.373L346.028 403.268Z" fill="#EEC1BB"/>
<path opacity="0.2" d="M349.738 392.627L341.102 388.737L344.013 378L354.075 380.174L349.738 392.627Z" fill="black"/>
<path d="M285.889 298.897C285.889 298.897 352.321 289.934 370.777 301.723C389.233 313.512 353.493 385.307 353.493 385.307L342.308 382.891C342.308 382.891 350.69 325.977 350.062 323.597C349.434 321.218 318.151 336.739 275.332 338.213L285.889 298.897Z" fill="#263238"/>
<path opacity="0.2" d="M285.889 298.897C285.889 298.897 352.321 289.934 370.777 301.723C389.233 313.512 353.493 385.307 353.493 385.307L342.308 382.891C342.308 382.891 350.69 325.977 350.062 323.597C349.434 321.218 318.151 336.739 275.332 338.213L285.889 298.897Z" fill="black"/>
<path d="M341.694 379.268L355.765 383.834L353.241 390.247L340.317 385.851L341.694 379.268Z" fill="#263238"/>
<path d="M353.384 405.055C351.862 405.055 349.181 402.64 348.625 402.06C348.593 402.03 348.568 401.993 348.553 401.951V401.879C348.55 401.802 348.571 401.726 348.613 401.661C348.686 401.577 350.449 399.246 352.14 399.173C352.396 399.147 352.654 399.178 352.896 399.264C353.138 399.349 353.359 399.487 353.541 399.668C353.964 400.067 354.109 400.453 353.964 400.816C353.734 401.396 352.756 401.71 351.657 401.903C352.546 402.03 353.383 402.402 354.073 402.978C354.194 403.099 354.287 403.245 354.348 403.405C354.408 403.566 354.434 403.737 354.423 403.908C354.423 404.609 354.048 404.886 353.783 404.983C353.656 405.032 353.52 405.057 353.384 405.055ZM349.64 402.193C351.041 403.401 352.901 404.705 353.565 404.439C353.565 404.439 353.807 404.355 353.831 403.872C353.836 403.78 353.822 403.689 353.788 403.603C353.755 403.518 353.704 403.44 353.638 403.376C352.986 402.652 350.968 402.314 349.64 402.217V402.193ZM352.273 399.777H352.164C351.096 400.058 350.15 400.681 349.471 401.553C351.319 401.468 353.203 401.118 353.396 400.623C353.457 400.466 353.251 400.236 353.118 400.115C352.888 399.905 352.585 399.793 352.273 399.801V399.777Z" fill="#577AFA"/>
<path d="M336.598 395.163C336.912 394.269 347.698 398.557 347.698 398.557C347.698 398.557 352.24 407.652 358.328 411.349C364.415 415.045 359.439 417.798 352.083 415.395L333.868 409.464C328.614 407.773 333.349 404.391 336.598 395.163Z" fill="#2E353A"/>
<path opacity="0.4" d="M341.694 379.268L355.765 383.834L353.241 390.247L340.317 385.851L341.694 379.268Z" fill="white"/>
<path d="M380.696 426.253L372.458 428.573L367.869 417.484L363.689 407.314L373.014 402.966L377.085 415.298L380.696 426.253Z" fill="#EEC1BB"/>
<path d="M368.799 422.751C368.799 421.809 380.419 422.835 380.419 422.835C380.419 422.835 387.364 430.264 394.249 432.063C401.134 433.863 397.16 437.921 389.417 437.74L370.273 437.257C364.777 437.124 368.328 432.522 368.799 422.751Z" fill="#2E353A"/>
<path d="M386.516 425.94C384.823 425.71 383.186 425.173 381.685 424.357L381.6 424.297C381.596 424.265 381.596 424.232 381.6 424.2C381.595 424.172 381.595 424.144 381.6 424.116C381.588 424.076 381.588 424.034 381.6 423.995C381.6 423.862 382.676 421.205 384.258 420.589C384.496 420.491 384.753 420.448 385.01 420.463C385.267 420.477 385.518 420.549 385.743 420.673C386.263 420.927 386.504 421.253 386.48 421.652C386.42 422.268 385.55 422.859 384.584 423.343C385.481 423.209 386.398 423.33 387.229 423.693C387.377 423.775 387.507 423.887 387.609 424.022C387.711 424.158 387.783 424.313 387.821 424.478C387.899 424.686 387.911 424.913 387.857 425.129C387.804 425.344 387.686 425.539 387.519 425.686C387.226 425.887 386.87 425.977 386.516 425.94ZM382.688 424.2C384.391 424.961 386.529 425.674 387.096 425.227C387.096 425.227 387.302 425.07 387.193 424.611C387.173 424.521 387.133 424.436 387.077 424.363C387.021 424.29 386.949 424.23 386.867 424.188C386.021 423.681 383.992 423.959 382.688 424.2ZM384.862 421.048C384.709 421.047 384.557 421.076 384.415 421.132C383.483 421.696 382.755 422.542 382.337 423.548C384.089 422.944 385.792 422.062 385.84 421.543C385.84 421.374 385.586 421.205 385.429 421.132C385.249 421.061 385.055 421.033 384.862 421.048Z" fill="#577AFA"/>
<path opacity="0.2" d="M377.154 415.552L367.938 417.714L363.71 407.423L373.023 403.026L377.154 415.552Z" fill="black"/>
<path d="M304.734 307.485C304.734 307.485 303.78 294.343 303.333 291.662C302.964 289.004 302.419 286.373 301.702 283.787C298.791 275.03 259.741 285.333 259.741 285.333L258.63 291.372C258.63 291.372 241.007 324.6 252.784 336.57C256.408 340.194 263.377 341.836 270.54 341.788C270.54 341.788 292.438 342.839 333.167 340.942C333.167 340.942 330.147 364.665 363.714 411.143L374.947 407.52C374.947 407.52 352.771 323.139 350.886 321.641C334.653 308.523 304.734 307.485 304.734 307.485Z" fill="#263238"/>
<path d="M361.682 410.575L375.632 405.635L377.529 412.266L364.593 416.639L361.682 410.575Z" fill="#263238"/>
<path d="M317.863 226.039C317.863 226.039 316.462 229.469 314.505 235.46C314.034 236.861 313.551 238.407 313.044 240.074C312.379 242.26 311.667 244.664 310.954 247.321C310.435 249.205 309.915 251.174 309.408 253.252C308.901 255.329 308.357 257.576 307.838 259.859C307.838 260.124 307.717 260.402 307.669 260.668C305.46 270.014 303.847 279.49 302.837 289.041L259.934 285.296C259.928 275.88 260.416 266.47 261.396 257.105C262.169 248.991 263.669 240.963 265.877 233.117C267.58 227.464 269.778 222.608 272.605 219.432C272.605 219.48 295.868 211.846 317.863 226.039Z" fill="#FB861E"/>
<path d="M296.002 213.32C283.09 209.189 278.078 219.359 278.078 219.359L284.95 218.683L298.901 236.197L307.078 225.604L312.224 228.37C312.224 228.37 307.187 216.895 296.002 213.32Z" fill="#407BFF"/>
<path opacity="0.6" d="M296.002 213.32C283.09 209.189 278.078 219.359 278.078 219.359L284.95 218.683L298.901 236.197L307.078 225.604L312.224 228.37C312.224 228.37 307.187 216.895 296.002 213.32Z" fill="white"/>
<path d="M298.537 235.243L286.7 217.523C292.28 214.999 295.976 204.321 296.785 198.306L305.144 210.94C302.414 214.999 300.59 219.637 306.847 223.14C306.871 223.14 298.525 235.206 298.537 235.243Z" fill="#EEC1BB"/>
<path opacity="0.2" d="M300.19 203.464L305.143 210.941C304.492 211.868 303.93 212.855 303.464 213.888C300.987 212.776 298.354 209.056 298.97 206.484C299.18 205.408 299.595 204.383 300.19 203.464Z" fill="black"/>
<path d="M259.27 286.661L272.69 287.543L272.207 291.335L257.954 290.309L259.27 286.661Z" fill="black"/>
<path d="M303.912 293.594L273.824 291.444L274.307 287.652L303.429 289.572L303.912 293.594Z" fill="black"/>
<path d="M292.882 293.582H292.761L289.137 293.341C288.705 293.313 288.3 293.116 288.011 292.793C287.722 292.47 287.571 292.046 287.591 291.613L287.688 289.198C287.686 288.969 287.734 288.743 287.828 288.535C287.922 288.326 288.059 288.14 288.231 287.99C288.391 287.837 288.581 287.719 288.789 287.644C288.997 287.57 289.219 287.539 289.439 287.555L293.208 287.772C293.427 287.785 293.642 287.841 293.84 287.937C294.038 288.033 294.214 288.168 294.359 288.333C294.504 288.498 294.615 288.691 294.685 288.9C294.755 289.108 294.782 289.329 294.766 289.548L294.585 292.06C294.545 292.482 294.348 292.873 294.032 293.155C293.716 293.438 293.305 293.59 292.882 293.582ZM288.847 289.186L288.739 291.601C288.735 291.719 288.777 291.834 288.856 291.921C288.934 292.009 289.044 292.063 289.161 292.072L292.785 292.326C292.905 292.333 293.022 292.292 293.113 292.213C293.203 292.134 293.259 292.023 293.268 291.903L293.449 289.403C293.455 289.342 293.449 289.281 293.43 289.223C293.411 289.165 293.381 289.111 293.341 289.065C293.3 289.021 293.252 288.986 293.198 288.961C293.144 288.936 293.086 288.922 293.026 288.92L289.258 288.702C289.138 288.698 289.02 288.742 288.932 288.823C288.886 288.862 288.85 288.91 288.825 288.964C288.8 289.019 288.787 289.078 288.787 289.137L288.847 289.186Z" fill="white"/>
<path opacity="0.5" d="M361.682 410.575L375.632 405.635L377.529 412.266L364.593 416.639L361.682 410.575Z" fill="white"/>
<path d="M326.113 195.057C326.051 195.059 325.989 195.043 325.936 195.011C325.882 194.979 325.839 194.932 325.811 194.876C325.477 194.225 324.998 193.658 324.413 193.218C323.827 192.779 323.148 192.478 322.429 192.34C322.384 192.338 322.34 192.327 322.299 192.308C322.259 192.289 322.222 192.261 322.193 192.227C322.163 192.193 322.141 192.153 322.128 192.11C322.115 192.067 322.11 192.022 322.115 191.977C322.127 191.891 322.171 191.812 322.238 191.756C322.305 191.7 322.391 191.671 322.478 191.675C323.313 191.818 324.103 192.155 324.785 192.658C325.467 193.162 326.021 193.818 326.403 194.574C326.424 194.613 326.437 194.655 326.44 194.699C326.444 194.743 326.439 194.787 326.426 194.828C326.412 194.87 326.39 194.909 326.362 194.942C326.333 194.975 326.298 195.002 326.258 195.021L326.113 195.057Z" fill="#263238"/>
<path d="M322.078 200.287C322.209 201.964 322.542 203.618 323.068 205.215C322.641 205.477 322.15 205.615 321.649 205.615C321.148 205.615 320.657 205.477 320.23 205.215L322.078 200.287Z" fill="#D4827D"/>
<path d="M324.749 198.488C324.435 199.237 323.783 199.696 323.276 199.478C322.768 199.261 322.611 198.488 322.925 197.739C323.24 196.99 323.892 196.531 324.399 196.748C324.906 196.966 325.051 197.727 324.749 198.488Z" fill="#263238"/>
<path d="M324.171 196.7H326.067C326.067 196.7 324.69 197.775 324.171 196.7Z" fill="#263238"/>
<path d="M296.94 204.986C296.985 205.11 297.046 205.227 297.121 205.336C297.241 205.578 297.374 205.795 297.507 206.037C298.283 207.524 299.337 208.848 300.611 209.938C304.73 213.356 308.281 214.443 311.482 213.562C311.639 213.562 311.784 213.465 311.941 213.417C316.676 211.629 320.396 206.17 323.549 198.802C324.914 195.949 325.807 192.894 326.194 189.755C326.194 189.755 326.194 189.646 326.194 189.622C326.194 189.598 326.194 189.368 326.194 189.26C326.348 187.454 326.049 185.639 325.323 183.979C324.598 182.319 323.469 180.866 322.039 179.754C320.818 178.748 319.489 177.882 318.077 177.169C304.356 170.042 290.308 191.724 296.94 204.986Z" fill="#EEC1BB"/>
<path d="M326.196 189.634C326.196 189.634 322.066 199.732 310.76 199.297C310.76 199.297 301.725 207.402 295.843 204.611C287.811 200.807 286.506 185.998 295.046 175.889C306.146 162.771 329.337 172.941 326.196 189.634Z" fill="#263238"/>
<path d="M316.858 198.862C317.619 197.34 317.679 194.187 315.155 193.342C312.63 192.496 308.149 197.799 313.464 202.159C314.225 202.787 315.324 202.026 316.858 198.862Z" fill="#EEC1BB"/>
<path d="M314.517 170.827C314.517 170.827 324.965 173.146 328.202 179.451C331.995 186.819 331.995 192.46 321.39 195.878C321.39 195.878 308.381 183.003 302.668 181.469C299.337 180.553 295.935 179.919 292.498 179.572C296.592 168.75 310.398 166.117 314.517 170.827Z" fill="#263238"/>
<path d="M310.783 199.297C304.212 212.426 289.766 234.736 274.366 218.997C274.366 218.997 279.898 201.193 291.071 193.85C302.243 186.506 310.783 199.297 310.783 199.297Z" fill="#263238"/>
<path d="M308.405 221.195C314.022 225.35 306.835 239.023 313.925 242.067C313.259 241.146 312.84 240.069 312.709 238.94C312.578 237.81 312.739 236.666 313.176 235.617C314.662 231.897 320.689 222.065 318.286 208.754L308.405 221.195Z" fill="#263238"/>
<path opacity="0.2" d="M279.306 250.027C279.306 250.027 270.126 256.247 261.441 257.02C262.204 248.936 263.688 240.937 265.874 233.117C266.985 232.491 268.225 232.127 269.498 232.054C275.948 232.175 278.303 238.226 278.303 238.226C279.001 242.12 279.337 246.071 279.306 250.027Z" fill="black"/>
<path d="M312.813 293.111L310.881 290.792C310.518 290.369 310.058 290.038 309.542 289.828C309.025 289.618 308.465 289.534 307.91 289.584L302.619 289.971C301.574 290.047 300.562 290.373 299.668 290.922C298.775 291.47 298.026 292.225 297.486 293.123L296.809 294.247C299.757 298.317 305.929 300.552 305.929 300.552L307.62 301.385C307.959 301.569 308.332 301.683 308.717 301.721C309.101 301.76 309.489 301.722 309.858 301.61C310.228 301.497 310.572 301.313 310.869 301.067C311.167 300.821 311.413 300.519 311.594 300.177L313.285 296.844C313.588 296.246 313.705 295.57 313.621 294.905C313.537 294.24 313.256 293.615 312.813 293.111Z" fill="#EEC1BB"/>
<path d="M275.622 237.586C275.474 245.193 276.02 252.798 277.252 260.306C277.705 262.708 278.29 265.083 279.004 267.42L278.472 266.369C281.262 270.633 285.345 274.583 288.908 278.448L294.875 284.608L300.914 290.804C301.446 291.34 301.761 292.054 301.798 292.808C301.835 293.562 301.591 294.303 301.114 294.888C300.637 295.473 299.96 295.861 299.214 295.977C298.468 296.093 297.705 295.928 297.073 295.515C294.573 293.933 292.242 292.266 289.826 290.575C282.458 285.031 275.03 279.849 269.292 272.457C264.292 261.381 263.072 249.073 263.495 237.042C264.207 229.01 275.851 229.602 275.755 237.658L275.622 237.586Z" fill="#EBC0BB"/>
<path d="M272.193 219.553C264.281 222.27 261.008 230.725 260.658 245.026C264.704 248.783 278.015 247.539 278.015 247.539C278.015 247.539 280.418 225.87 272.193 219.553Z" fill="#FB861E"/>
<path d="M357.446 304.223V308.004C357.446 308.982 356.238 309.381 355.32 309.381H279.092C278.113 309.381 276.93 308.982 276.93 308.004V304.187L357.446 304.223Z" fill="#263238"/>
<path opacity="0.4" d="M357.446 304.223V308.004C357.446 308.982 356.238 309.381 355.32 309.381H279.092C278.113 309.381 276.93 308.982 276.93 308.004V304.187L357.446 304.223Z" fill="white"/>
<path opacity="0.2" d="M357.445 304.223V308.004C357.445 308.982 356.237 309.381 355.319 309.381H305.048C304.069 309.381 302.91 308.982 302.91 308.004V304.187L357.445 304.223Z" fill="black"/>
<path d="M370.199 264.63L361.116 305.782C360.955 306.444 360.578 307.034 360.044 307.458C359.51 307.883 358.85 308.117 358.169 308.125H308.646C308.339 308.116 308.037 308.036 307.765 307.891C307.493 307.747 307.258 307.542 307.078 307.292C306.898 307.042 306.778 306.754 306.728 306.45C306.677 306.146 306.697 305.835 306.786 305.54L315.857 264.69C316.041 264.068 316.433 263.528 316.967 263.161C317.502 262.794 318.146 262.622 318.792 262.673H368.375C369.68 262.673 370.489 263.313 370.199 264.63Z" fill="#263238"/>
<path opacity="0.4" d="M370.199 264.63L361.116 305.782C360.955 306.444 360.577 307.034 360.044 307.459C359.51 307.883 358.85 308.117 358.168 308.125H310.289C309.98 308.118 309.677 308.039 309.403 307.895C309.13 307.752 308.893 307.547 308.712 307.297C308.531 307.046 308.41 306.758 308.359 306.453C308.307 306.148 308.327 305.836 308.417 305.54L317.488 264.69C317.672 264.066 318.065 263.525 318.602 263.157C319.139 262.79 319.786 262.619 320.435 262.673H368.326C369.679 262.673 370.489 263.313 370.199 264.63Z" fill="white"/>
<path opacity="0.2" d="M345.753 285.55C345.753 289.065 341.972 291.927 339.206 291.927C336.44 291.927 334.798 289.065 335.583 285.55C336.368 282.035 339.134 279.269 341.84 279.172C341.054 282.687 342.745 285.55 345.463 285.55H345.753Z" fill="black"/>
</svg>
