<svg width="295" height="64" viewBox="0 0 295 64" fill="none" xmlns="http://www.w3.org/2000/svg">
<path d="M0 22.7751V19.4757C0 14.4811 3.44483 10.1464 8.31043 9.01858L46.6947 0.121094V11.8842L0 22.7751Z" fill="url(#paint0_linear_22_27)"/>
<path d="M0 51.9022V42.9021L11.6513 40.2185V61.1059C5.70659 62.5208 0 58.013 0 51.9022Z" fill="url(#paint1_linear_22_27)"/>
<path d="M16.1463 39.2122V60.0548L18.0139 59.6298C22.8997 58.5179 26.3664 54.1738 26.3664 49.163V36.7299L16.1463 39.2122Z" fill="#F7841E"/>
<path d="M0 27.2031V38.3177L38.2164 29.5027C43.0874 28.3792 46.5381 24.042 46.5381 19.043V16.4687L0 27.2031Z" fill="url(#paint2_linear_22_27)"/>
<path d="M292.219 43.8271C291.448 43.8271 290.789 43.5561 290.24 43.014C289.697 42.472 289.43 41.8158 289.437 41.0456C289.43 40.2896 289.697 39.6441 290.24 39.1092C290.789 38.5672 291.448 38.2961 292.219 38.2961C292.946 38.2961 293.588 38.5672 294.144 39.1092C294.708 39.6441 294.993 40.2896 295 41.0456C294.993 41.5591 294.858 42.0262 294.594 42.447C294.337 42.8678 293.998 43.203 293.577 43.4527C293.164 43.7023 292.711 43.8271 292.219 43.8271Z" fill="#F7841E"/>
<path d="M274.753 34.1451V43.5167H269.521V21.6068H274.582V30.1012H274.764C275.134 29.0884 275.741 28.2967 276.582 27.7262C277.431 27.1556 278.469 26.8703 279.695 26.8703C280.851 26.8703 281.856 27.1271 282.712 27.6406C283.568 28.147 284.231 28.8637 284.702 29.7909C285.18 30.7181 285.415 31.8022 285.408 33.0431V43.5167H280.177V34.0702C280.184 33.1573 279.956 32.4441 279.492 31.9305C279.029 31.417 278.376 31.1603 277.534 31.1603C276.985 31.1603 276.5 31.2815 276.079 31.524C275.666 31.7594 275.341 32.0981 275.106 32.5403C274.878 32.9825 274.76 33.5174 274.753 34.1451Z" fill="url(#paint3_linear_22_27)"/>
<path d="M258.614 43.827C256.881 43.827 255.394 43.4703 254.153 42.7571C252.919 42.0439 251.97 41.0526 251.307 39.783C250.644 38.5064 250.312 37.0301 250.312 35.354C250.312 33.6708 250.644 32.1945 251.307 30.925C251.978 29.6483 252.93 28.6534 254.164 27.9402C255.405 27.227 256.884 26.8704 258.603 26.8704C260.122 26.8704 261.445 27.1449 262.572 27.6941C263.706 28.2433 264.591 29.0207 265.226 30.0263C265.867 31.0248 266.206 32.198 266.242 33.546H261.353C261.253 32.7044 260.968 32.0447 260.497 31.5669C260.033 31.089 259.427 30.8501 258.678 30.8501C258.072 30.8501 257.541 31.0212 257.084 31.3636C256.628 31.6988 256.271 32.198 256.014 32.8613C255.765 33.5175 255.64 34.3305 255.64 35.3005C255.64 36.2705 255.765 37.0907 256.014 37.7611C256.271 38.4244 256.628 38.9272 257.084 39.2695C257.541 39.6047 258.072 39.7723 258.678 39.7723C259.163 39.7723 259.591 39.6689 259.962 39.4621C260.34 39.2553 260.65 38.9522 260.893 38.5528C261.135 38.1462 261.289 37.6541 261.353 37.0764H266.242C266.192 38.4315 265.853 39.6154 265.226 40.6282C264.605 41.641 263.731 42.4291 262.604 42.9925C261.485 43.5488 260.155 43.827 258.614 43.827Z" fill="url(#paint4_linear_22_27)"/>
<path d="M239.87 43.827C238.151 43.827 236.668 43.4882 235.42 42.8106C234.179 42.1259 233.223 41.1524 232.553 39.89C231.889 38.6205 231.558 37.1121 231.558 35.3647C231.558 33.6673 231.893 32.1838 232.563 30.9143C233.234 29.6376 234.179 28.6463 235.398 27.9402C236.618 27.227 238.055 26.8704 239.71 26.8704C240.879 26.8704 241.949 27.0522 242.919 27.416C243.889 27.7797 244.727 28.3182 245.433 29.0314C246.139 29.7446 246.688 30.6254 247.081 31.6738C247.473 32.7151 247.669 33.9098 247.669 35.2577V36.5629H233.387V33.5246H242.801C242.794 32.9683 242.662 32.4726 242.406 32.0376C242.149 31.6025 241.796 31.2637 241.346 31.0212C240.904 30.7716 240.394 30.6468 239.817 30.6468C239.232 30.6468 238.708 30.7788 238.244 31.0426C237.78 31.2994 237.413 31.6524 237.142 32.1018C236.871 32.544 236.728 33.0468 236.714 33.6102V36.702C236.714 37.3724 236.846 37.9608 237.11 38.4672C237.374 38.9664 237.748 39.3551 238.233 39.6333C238.718 39.9114 239.296 40.0505 239.966 40.0505C240.43 40.0505 240.851 39.9863 241.229 39.8579C241.607 39.7296 241.931 39.5406 242.202 39.2909C242.473 39.0413 242.677 38.7346 242.812 38.3709L247.616 38.51C247.416 39.5869 246.977 40.5248 246.3 41.3236C245.629 42.1152 244.748 42.7322 243.657 43.1744C242.566 43.6094 241.304 43.827 239.87 43.827Z" fill="url(#paint5_linear_22_27)"/>
<path d="M212.865 25.9075V21.6068H231.383V25.9075H224.739V43.5167H219.519V25.9075H212.865Z" fill="url(#paint6_linear_22_27)"/>
<path d="M192.884 43.7949C191.836 43.7949 190.905 43.6201 190.092 43.2706C189.286 42.914 188.648 42.3791 188.177 41.6659C187.713 40.9456 187.482 40.0434 187.482 38.9593C187.482 38.0464 187.642 37.2761 187.963 36.6485C188.284 36.0209 188.726 35.5109 189.29 35.1186C189.853 34.7264 190.502 34.4304 191.237 34.2307C191.971 34.0239 192.756 33.8848 193.59 33.8135C194.525 33.7279 195.277 33.6387 195.848 33.546C196.418 33.4462 196.832 33.3071 197.089 33.1288C197.352 32.9434 197.484 32.683 197.484 32.3478V32.2943C197.484 31.7452 197.295 31.3208 196.917 31.0212C196.539 30.7217 196.029 30.5719 195.388 30.5719C194.696 30.5719 194.139 30.7217 193.719 31.0212C193.298 31.3208 193.03 31.7345 192.916 32.2622L188.091 32.0911C188.234 31.0926 188.601 30.2011 189.193 29.4165C189.792 28.6249 190.613 28.0044 191.654 27.555C192.702 27.0986 193.961 26.8704 195.43 26.8704C196.479 26.8704 197.445 26.9952 198.33 27.2448C199.214 27.4873 199.984 27.8439 200.64 28.3146C201.296 28.7782 201.803 29.3488 202.159 30.0263C202.523 30.7039 202.705 31.4777 202.705 32.3478V43.5167H197.784V41.2273H197.656C197.363 41.7836 196.989 42.2543 196.532 42.6395C196.083 43.0246 195.552 43.3134 194.938 43.506C194.332 43.6986 193.647 43.7949 192.884 43.7949ZM194.5 40.3714C195.063 40.3714 195.569 40.2573 196.019 40.0291C196.475 39.8009 196.839 39.4871 197.11 39.0877C197.381 38.6811 197.516 38.2104 197.516 37.6755V36.1136C197.367 36.192 197.185 36.2633 196.971 36.3275C196.764 36.3917 196.536 36.4523 196.286 36.5094C196.037 36.5665 195.78 36.6164 195.516 36.6592C195.252 36.702 194.999 36.7412 194.756 36.7769C194.264 36.8553 193.843 36.9766 193.494 37.1406C193.152 37.3046 192.888 37.5186 192.702 37.7825C192.524 38.0392 192.435 38.3459 192.435 38.7025C192.435 39.2446 192.627 39.6582 193.013 39.9435C193.405 40.2288 193.9 40.3714 194.5 40.3714Z" fill="url(#paint7_linear_22_27)"/>
<path d="M177.344 43.827C175.611 43.827 174.124 43.4703 172.883 42.7571C171.649 42.0439 170.701 41.0526 170.037 39.783C169.374 38.5064 169.042 37.0301 169.042 35.354C169.042 33.6708 169.374 32.1945 170.037 30.925C170.708 29.6483 171.66 28.6534 172.894 27.9402C174.135 27.227 175.615 26.8704 177.334 26.8704C178.853 26.8704 180.176 27.1449 181.303 27.6941C182.437 28.2433 183.321 29.0207 183.956 30.0263C184.598 31.0248 184.936 32.198 184.972 33.546H180.083C179.983 32.7044 179.698 32.0447 179.227 31.5669C178.764 31.089 178.157 30.8501 177.408 30.8501C176.802 30.8501 176.271 31.0212 175.814 31.3636C175.358 31.6988 175.001 32.198 174.745 32.8613C174.495 33.5175 174.37 34.3305 174.37 35.3005C174.37 36.2705 174.495 37.0907 174.745 37.7611C175.001 38.4244 175.358 38.9272 175.814 39.2695C176.271 39.6047 176.802 39.7723 177.408 39.7723C177.893 39.7723 178.321 39.6689 178.692 39.4621C179.07 39.2553 179.38 38.9522 179.623 38.5528C179.865 38.1462 180.019 37.6541 180.083 37.0764H184.972C184.922 38.4315 184.583 39.6154 183.956 40.6282C183.335 41.641 182.462 42.4291 181.335 42.9925C180.215 43.5488 178.885 43.827 177.344 43.827Z" fill="url(#paint8_linear_22_27)"/>
<path fill-rule="evenodd" clip-rule="evenodd" d="M160.51 27.0844V43.5167H165.741V27.0844H160.51Z" fill="url(#paint9_linear_22_27)"/>
<path d="M163.131 25.1694C162.396 25.1694 161.765 24.9269 161.237 24.4419C160.71 23.9498 160.446 23.3578 160.446 22.666C160.446 21.9813 160.71 21.3965 161.237 20.9115C161.765 20.4194 162.396 20.1733 163.131 20.1733C163.873 20.1733 164.504 20.4194 165.025 20.9115C165.552 21.3965 165.816 21.9813 165.816 22.666C165.816 23.3578 165.552 23.9498 165.025 24.4419C164.504 24.9269 163.873 25.1694 163.131 25.1694Z" fill="#F7841E"/>
<path d="M147.227 43.5168V27.0844H152.309V30.0799H152.48C152.78 28.9958 153.268 28.1899 153.946 27.6621C154.623 27.1272 155.412 26.8597 156.31 26.8597C156.553 26.8597 156.802 26.8776 157.059 26.9132C157.316 26.9418 157.555 26.9881 157.776 27.0523V31.599C157.526 31.5134 157.198 31.4457 156.792 31.3958C156.392 31.3458 156.036 31.3209 155.722 31.3209C155.101 31.3209 154.541 31.46 154.042 31.7381C153.55 32.0091 153.161 32.3907 152.876 32.8828C152.598 33.3678 152.459 33.9384 152.459 34.5945V43.5168H147.227Z" fill="url(#paint10_linear_22_27)"/>
<path d="M138.074 36.424V27.0845H143.295V43.5169H138.31V40.4572H138.138C137.775 41.4628 137.154 42.2616 136.277 42.8536C135.407 43.4384 134.355 43.7308 133.121 43.7308C132.001 43.7308 131.017 43.4741 130.168 42.9605C129.32 42.447 128.66 41.7303 128.189 40.8102C127.718 39.883 127.48 38.799 127.472 37.558V27.0845H132.704V36.531C132.711 37.4225 132.946 38.125 133.41 38.6385C133.873 39.152 134.505 39.4088 135.303 39.4088C135.824 39.4088 136.291 39.2946 136.705 39.0664C137.126 38.8311 137.457 38.4923 137.7 38.0501C137.949 37.6008 138.074 37.0587 138.074 36.424Z" fill="url(#paint11_linear_22_27)"/>
<path d="M124.201 27.0844V30.9357H113.834V27.0844H124.201ZM116.006 23.1475H121.237V38.3496C121.237 38.6705 121.287 38.9308 121.387 39.1305C121.494 39.3231 121.648 39.4622 121.847 39.5477C122.047 39.6262 122.286 39.6654 122.564 39.6654C122.764 39.6654 122.974 39.6476 123.195 39.6119C123.423 39.5691 123.595 39.5335 123.709 39.505L124.5 43.2814C124.251 43.3527 123.898 43.4419 123.441 43.5489C122.992 43.6558 122.454 43.7236 121.826 43.7521C120.599 43.8092 119.547 43.6665 118.67 43.3242C117.8 42.9747 117.133 42.4327 116.669 41.6981C116.213 40.9635 115.992 40.0399 116.006 38.9273V23.1475Z" fill="url(#paint12_linear_22_27)"/>
<path d="M104.018 43.827C102.285 43.827 100.798 43.4703 99.5568 42.7571C98.323 42.0439 97.3744 41.0526 96.7111 39.783C96.0478 38.5064 95.7162 37.0301 95.7162 35.354C95.7162 33.6708 96.0478 32.1945 96.7111 30.925C97.3815 29.6483 98.3337 28.6534 99.5675 27.9402C100.809 27.227 102.288 26.8704 104.007 26.8704C105.526 26.8704 106.849 27.1449 107.976 27.6941C109.11 28.2433 109.995 29.0207 110.629 30.0263C111.271 31.0248 111.61 32.198 111.646 33.546H106.757C106.657 32.7044 106.372 32.0447 105.901 31.5669C105.437 31.089 104.831 30.8501 104.082 30.8501C103.476 30.8501 102.945 31.0212 102.488 31.3636C102.032 31.6988 101.675 32.198 101.418 32.8613C101.169 33.5175 101.044 34.3305 101.044 35.3005C101.044 36.2705 101.169 37.0907 101.418 37.7611C101.675 38.4244 102.032 38.9272 102.488 39.2695C102.945 39.6047 103.476 39.7723 104.082 39.7723C104.567 39.7723 104.995 39.6689 105.366 39.4621C105.744 39.2553 106.054 38.9522 106.297 38.5528C106.539 38.1462 106.693 37.6541 106.757 37.0764H111.646C111.596 38.4315 111.257 39.6154 110.629 40.6282C110.009 41.641 109.135 42.4291 108.008 42.9925C106.889 43.5488 105.559 43.827 104.018 43.827Z" fill="url(#paint13_linear_22_27)"/>
<path d="M87.1943 36.424V27.0845H92.415V43.5169H87.4297V40.4572H87.2585C86.8947 41.4628 86.2743 42.2616 85.397 42.8536C84.5269 43.4384 83.4749 43.7308 82.241 43.7308C81.1213 43.7308 80.1371 43.4741 79.2883 42.9605C78.4396 42.447 77.7799 41.7303 77.3092 40.8102C76.8385 39.883 76.5995 38.799 76.5924 37.558V27.0845H81.8238V36.531C81.8309 37.4225 82.0663 38.125 82.5299 38.6385C82.9935 39.152 83.6247 39.4088 84.4235 39.4088C84.9441 39.4088 85.4113 39.2946 85.8249 39.0664C86.2457 38.8311 86.5774 38.4923 86.8199 38.0501C87.0695 37.6008 87.1943 37.0587 87.1943 36.424Z" fill="url(#paint14_linear_22_27)"/>
<path d="M59.3971 43.5167V21.6068H74.3531V25.9075H64.6927V30.4007H73.401V34.7121H64.6927V43.5167H59.3971Z" fill="url(#paint15_linear_22_27)"/>
<defs>
<linearGradient id="paint0_linear_22_27" x1="43.8112" y1="-7.96249" x2="-1.76182" y2="49.4502" gradientUnits="userSpaceOnUse">
<stop offset="0.330424" stop-color="#007BFF"/>
<stop offset="1" stop-color="#0056B3"/>
</linearGradient>
<linearGradient id="paint1_linear_22_27" x1="43.8112" y1="-7.96249" x2="-1.76182" y2="49.4502" gradientUnits="userSpaceOnUse">
<stop offset="0.330424" stop-color="#007BFF"/>
<stop offset="1" stop-color="#0056B3"/>
</linearGradient>
<linearGradient id="paint2_linear_22_27" x1="43.8112" y1="-7.96249" x2="-1.76182" y2="49.4502" gradientUnits="userSpaceOnUse">
<stop offset="0.330424" stop-color="#007BFF"/>
<stop offset="1" stop-color="#0056B3"/>
</linearGradient>
<linearGradient id="paint3_linear_22_27" x1="259.635" y1="9.26721" x2="258.969" y2="60.9503" gradientUnits="userSpaceOnUse">
<stop offset="0.330424" stop-color="#007BFF"/>
<stop offset="1" stop-color="#0056B3"/>
</linearGradient>
<linearGradient id="paint4_linear_22_27" x1="259.635" y1="9.26726" x2="258.969" y2="60.9504" gradientUnits="userSpaceOnUse">
<stop offset="0.330424" stop-color="#007BFF"/>
<stop offset="1" stop-color="#0056B3"/>
</linearGradient>
<linearGradient id="paint5_linear_22_27" x1="259.635" y1="9.26726" x2="258.969" y2="60.9504" gradientUnits="userSpaceOnUse">
<stop offset="0.330424" stop-color="#007BFF"/>
<stop offset="1" stop-color="#0056B3"/>
</linearGradient>
<linearGradient id="paint6_linear_22_27" x1="259.635" y1="9.26721" x2="258.969" y2="60.9503" gradientUnits="userSpaceOnUse">
<stop offset="0.330424" stop-color="#007BFF"/>
<stop offset="1" stop-color="#0056B3"/>
</linearGradient>
<linearGradient id="paint7_linear_22_27" x1="259.635" y1="9.26726" x2="258.969" y2="60.9504" gradientUnits="userSpaceOnUse">
<stop offset="0.330424" stop-color="#007BFF"/>
<stop offset="1" stop-color="#0056B3"/>
</linearGradient>
<linearGradient id="paint8_linear_22_27" x1="259.635" y1="9.26726" x2="258.969" y2="60.9504" gradientUnits="userSpaceOnUse">
<stop offset="0.330424" stop-color="#007BFF"/>
<stop offset="1" stop-color="#0056B3"/>
</linearGradient>
<linearGradient id="paint9_linear_22_27" x1="259.635" y1="9.26729" x2="258.969" y2="60.9504" gradientUnits="userSpaceOnUse">
<stop offset="0.330424" stop-color="#007BFF"/>
<stop offset="1" stop-color="#0056B3"/>
</linearGradient>
<linearGradient id="paint10_linear_22_27" x1="259.635" y1="9.26734" x2="258.969" y2="60.9504" gradientUnits="userSpaceOnUse">
<stop offset="0.330424" stop-color="#007BFF"/>
<stop offset="1" stop-color="#0056B3"/>
</linearGradient>
<linearGradient id="paint11_linear_22_27" x1="259.635" y1="9.26741" x2="258.969" y2="60.9505" gradientUnits="userSpaceOnUse">
<stop offset="0.330424" stop-color="#007BFF"/>
<stop offset="1" stop-color="#0056B3"/>
</linearGradient>
<linearGradient id="paint12_linear_22_27" x1="259.635" y1="9.26732" x2="258.969" y2="60.9504" gradientUnits="userSpaceOnUse">
<stop offset="0.330424" stop-color="#007BFF"/>
<stop offset="1" stop-color="#0056B3"/>
</linearGradient>
<linearGradient id="paint13_linear_22_27" x1="259.635" y1="9.26726" x2="258.969" y2="60.9504" gradientUnits="userSpaceOnUse">
<stop offset="0.330424" stop-color="#007BFF"/>
<stop offset="1" stop-color="#0056B3"/>
</linearGradient>
<linearGradient id="paint14_linear_22_27" x1="259.635" y1="9.26741" x2="258.969" y2="60.9505" gradientUnits="userSpaceOnUse">
<stop offset="0.330424" stop-color="#007BFF"/>
<stop offset="1" stop-color="#0056B3"/>
</linearGradient>
<linearGradient id="paint15_linear_22_27" x1="259.635" y1="9.26721" x2="258.969" y2="60.9503" gradientUnits="userSpaceOnUse">
<stop offset="0.330424" stop-color="#007BFF"/>
<stop offset="1" stop-color="#0056B3"/>
</linearGradient>
</defs>
</svg>
