<svg width="295" height="64" viewBox="0 0 295 64" fill="none" xmlns="http://www.w3.org/2000/svg">
<path d="M0 22.6541V19.3546C0 14.36 3.44483 10.0253 8.31043 8.89749L46.6947 0V11.7631L0 22.6541Z" fill="url(#paint0_linear_96_168)"/>
<path d="M0 51.7811V42.781L11.6513 40.0975V60.9848C5.70659 62.3997 0 57.8919 0 51.7811Z" fill="url(#paint1_linear_96_168)"/>
<path d="M16.1463 39.0911V59.9337L18.0139 59.5087C22.8997 58.3968 26.3664 54.0527 26.3664 49.0419V36.6088L16.1463 39.0911Z" fill="#F7841E"/>
<path d="M0 27.082V38.1966L38.2164 29.3817C43.0874 28.2581 46.5381 23.9209 46.5381 18.9219V16.3476L0 27.082Z" fill="url(#paint2_linear_96_168)"/>
<path d="M292.218 43.706C291.448 43.706 290.789 43.435 290.239 42.8929C289.697 42.3509 289.43 41.6947 289.437 40.9245C289.43 40.1685 289.697 39.523 290.239 38.9881C290.789 38.4461 291.448 38.175 292.218 38.175C292.946 38.175 293.588 38.4461 294.144 38.9881C294.708 39.523 294.993 40.1685 295 40.9245C294.993 41.438 294.857 41.9051 294.593 42.3259C294.337 42.7467 293.998 43.0819 293.577 43.3316C293.163 43.5812 292.711 43.706 292.218 43.706Z" fill="#F7841E"/>
<path d="M274.753 34.024V43.3956H269.522V21.4857H274.582V29.9801H274.764C275.135 28.9673 275.741 28.1756 276.582 27.6051C277.431 27.0345 278.469 26.7492 279.696 26.7492C280.851 26.7492 281.857 27.006 282.712 27.5195C283.568 28.0259 284.232 28.7426 284.702 29.6698C285.18 30.597 285.415 31.6811 285.408 32.9221V43.3956H280.177V33.9491C280.184 33.0362 279.956 32.323 279.492 31.8094C279.029 31.2959 278.376 31.0392 277.534 31.0392C276.985 31.0392 276.5 31.1604 276.08 31.4029C275.666 31.6383 275.341 31.977 275.106 32.4192C274.878 32.8614 274.76 33.3963 274.753 34.024Z" fill="url(#paint3_linear_96_168)"/>
<path d="M258.614 43.7059C256.881 43.7059 255.394 43.3493 254.153 42.636C252.919 41.9228 251.97 40.9315 251.307 39.662C250.644 38.3853 250.312 36.909 250.312 35.2329C250.312 33.5497 250.644 32.0734 251.307 30.8039C251.977 29.5272 252.93 28.5323 254.163 27.8191C255.404 27.1059 256.884 26.7493 258.603 26.7493C260.122 26.7493 261.445 27.0239 262.572 27.573C263.706 28.1222 264.591 28.8996 265.225 29.9052C265.867 30.9037 266.206 32.077 266.242 33.4249H261.353C261.253 32.5833 260.967 31.9236 260.497 31.4458C260.033 30.9679 259.427 30.729 258.678 30.729C258.072 30.729 257.541 30.9002 257.084 31.2425C256.628 31.5777 256.271 32.077 256.014 32.7402C255.765 33.3964 255.64 34.2095 255.64 35.1794C255.64 36.1494 255.765 36.9696 256.014 37.64C256.271 38.3033 256.628 38.8061 257.084 39.1484C257.541 39.4836 258.072 39.6513 258.678 39.6513C259.163 39.6513 259.591 39.5478 259.962 39.341C260.34 39.1342 260.65 38.8311 260.893 38.4317C261.135 38.0251 261.288 37.533 261.353 36.9553H266.242C266.192 38.3104 265.853 39.4943 265.225 40.5071C264.605 41.5199 263.731 42.308 262.604 42.8714C261.485 43.4277 260.154 43.7059 258.614 43.7059Z" fill="url(#paint4_linear_96_168)"/>
<path d="M239.87 43.7059C238.151 43.7059 236.668 43.3671 235.42 42.6895C234.179 42.0049 233.223 41.0313 232.553 39.7689C231.889 38.4994 231.558 36.991 231.558 35.2436C231.558 33.5462 231.893 32.0627 232.563 30.7932C233.234 29.5165 234.179 28.5252 235.398 27.8191C236.618 27.1059 238.055 26.7493 239.71 26.7493C240.879 26.7493 241.949 26.9311 242.919 27.2949C243.889 27.6586 244.727 28.1971 245.433 28.9103C246.139 29.6235 246.688 30.5043 247.081 31.5527C247.473 32.594 247.669 33.7887 247.669 35.1366V36.4418H233.387V33.4035H242.801C242.794 32.8472 242.662 32.3515 242.406 31.9165C242.149 31.4814 241.796 31.1426 241.346 30.9002C240.904 30.6505 240.394 30.5257 239.817 30.5257C239.232 30.5257 238.708 30.6577 238.244 30.9216C237.78 31.1783 237.413 31.5313 237.142 31.9807C236.871 32.4229 236.728 32.9257 236.714 33.4891V36.5809C236.714 37.2513 236.846 37.8397 237.11 38.3461C237.374 38.8453 237.748 39.234 238.233 39.5122C238.718 39.7903 239.296 39.9294 239.966 39.9294C240.43 39.9294 240.851 39.8652 241.229 39.7368C241.607 39.6085 241.931 39.4195 242.202 39.1698C242.473 38.9202 242.677 38.6135 242.812 38.2498L247.616 38.3889C247.416 39.4658 246.977 40.4037 246.3 41.2025C245.629 41.9942 244.748 42.6111 243.657 43.0533C242.566 43.4883 241.304 43.7059 239.87 43.7059Z" fill="url(#paint5_linear_96_168)"/>
<path d="M212.864 25.7864V21.4857H231.383V25.7864H224.739V43.3956H219.519V25.7864H212.864Z" fill="url(#paint6_linear_96_168)"/>
<path d="M192.884 43.6738C191.836 43.6738 190.905 43.499 190.092 43.1496C189.286 42.7929 188.648 42.258 188.177 41.5448C187.713 40.8245 187.481 39.9223 187.481 38.8382C187.481 37.9253 187.642 37.155 187.963 36.5274C188.284 35.8998 188.726 35.3898 189.289 34.9976C189.853 34.6053 190.502 34.3093 191.237 34.1096C191.971 33.9028 192.756 33.7637 193.59 33.6924C194.524 33.6068 195.277 33.5176 195.847 33.4249C196.418 33.3251 196.832 33.186 197.088 33.0077C197.352 32.8223 197.484 32.5619 197.484 32.2267V32.1732C197.484 31.6241 197.295 31.1997 196.917 30.9002C196.539 30.6006 196.029 30.4508 195.387 30.4508C194.696 30.4508 194.139 30.6006 193.718 30.9002C193.298 31.1997 193.03 31.6134 192.916 32.1411L188.091 31.97C188.234 30.9715 188.601 30.08 189.193 29.2954C189.792 28.5038 190.612 27.8833 191.654 27.4339C192.702 26.9775 193.961 26.7493 195.43 26.7493C196.479 26.7493 197.445 26.8741 198.329 27.1237C199.214 27.3662 199.984 27.7228 200.64 28.1935C201.296 28.6571 201.803 29.2277 202.159 29.9052C202.523 30.5828 202.705 31.3566 202.705 32.2267V43.3956H197.784V41.1062H197.655C197.363 41.6625 196.989 42.1332 196.532 42.5184C196.083 42.9035 195.551 43.1923 194.938 43.3849C194.332 43.5775 193.647 43.6738 192.884 43.6738ZM194.499 40.2503C195.063 40.2503 195.569 40.1362 196.019 39.908C196.475 39.6798 196.839 39.366 197.11 38.9666C197.381 38.56 197.516 38.0893 197.516 37.5544V35.9925C197.367 36.0709 197.185 36.1423 196.971 36.2064C196.764 36.2706 196.536 36.3313 196.286 36.3883C196.036 36.4454 195.78 36.4953 195.516 36.5381C195.252 36.5809 194.999 36.6201 194.756 36.6558C194.264 36.7342 193.843 36.8555 193.494 37.0195C193.151 37.1835 192.888 37.3975 192.702 37.6614C192.524 37.9181 192.435 38.2248 192.435 38.5814C192.435 39.1235 192.627 39.5371 193.012 39.8224C193.405 40.1077 193.9 40.2503 194.499 40.2503Z" fill="url(#paint7_linear_96_168)"/>
<path d="M177.344 43.7059C175.611 43.7059 174.124 43.3493 172.883 42.636C171.649 41.9228 170.701 40.9315 170.037 39.662C169.374 38.3853 169.042 36.909 169.042 35.2329C169.042 33.5497 169.374 32.0734 170.037 30.8039C170.708 29.5272 171.66 28.5323 172.894 27.8191C174.135 27.1059 175.615 26.7493 177.334 26.7493C178.853 26.7493 180.176 27.0239 181.303 27.573C182.437 28.1222 183.321 28.8996 183.956 29.9052C184.598 30.9037 184.936 32.077 184.972 33.4249H180.083C179.983 32.5833 179.698 31.9236 179.227 31.4458C178.764 30.9679 178.157 30.729 177.408 30.729C176.802 30.729 176.271 30.9002 175.814 31.2425C175.358 31.5777 175.001 32.077 174.745 32.7402C174.495 33.3964 174.37 34.2095 174.37 35.1794C174.37 36.1494 174.495 36.9696 174.745 37.64C175.001 38.3033 175.358 38.8061 175.814 39.1484C176.271 39.4836 176.802 39.6513 177.408 39.6513C177.893 39.6513 178.321 39.5478 178.692 39.341C179.07 39.1342 179.38 38.8311 179.623 38.4317C179.865 38.0251 180.019 37.533 180.083 36.9553H184.972C184.922 38.3104 184.583 39.4943 183.956 40.5071C183.335 41.5199 182.462 42.308 181.335 42.8714C180.215 43.4277 178.885 43.7059 177.344 43.7059Z" fill="url(#paint8_linear_96_168)"/>
<path fill-rule="evenodd" clip-rule="evenodd" d="M160.51 26.9633V43.3956H165.741V26.9633H160.51Z" fill="url(#paint9_linear_96_168)"/>
<path d="M163.131 25.0483C162.396 25.0483 161.765 24.8058 161.237 24.3208C160.71 23.8287 160.446 23.2367 160.446 22.5449C160.446 21.8602 160.71 21.2754 161.237 20.7904C161.765 20.2983 162.396 20.0522 163.131 20.0522C163.873 20.0522 164.504 20.2983 165.025 20.7904C165.552 21.2754 165.816 21.8602 165.816 22.5449C165.816 23.2367 165.552 23.8287 165.025 24.3208C164.504 24.8058 163.873 25.0483 163.131 25.0483Z" fill="#F7841E"/>
<path d="M147.227 43.3957V26.9633H152.309V29.9588H152.48C152.78 28.8747 153.268 28.0688 153.946 27.541C154.623 27.0061 155.411 26.7386 156.31 26.7386C156.553 26.7386 156.802 26.7565 157.059 26.7921C157.316 26.8207 157.555 26.867 157.776 26.9312V31.4779C157.526 31.3923 157.198 31.3246 156.791 31.2747C156.392 31.2247 156.035 31.1998 155.722 31.1998C155.101 31.1998 154.541 31.3389 154.042 31.617C153.55 31.888 153.161 32.2696 152.876 32.7617C152.598 33.2467 152.459 33.8173 152.459 34.4734V43.3957H147.227Z" fill="url(#paint10_linear_96_168)"/>
<path d="M138.074 36.3029V26.9634H143.295V43.3958H138.31V40.3361H138.138C137.775 41.3417 137.154 42.1405 136.277 42.7325C135.407 43.3173 134.355 43.6097 133.121 43.6097C132.001 43.6097 131.017 43.353 130.168 42.8395C129.32 42.3259 128.66 41.6092 128.189 40.6891C127.718 39.7619 127.479 38.6779 127.472 37.4369V26.9634H132.704V36.4099C132.711 37.3014 132.946 38.0039 133.41 38.5174C133.873 39.0309 134.505 39.2877 135.303 39.2877C135.824 39.2877 136.291 39.1735 136.705 38.9453C137.126 38.71 137.457 38.3712 137.7 37.929C137.949 37.4797 138.074 36.9376 138.074 36.3029Z" fill="url(#paint11_linear_96_168)"/>
<path d="M124.201 26.9633V30.8146H113.834V26.9633H124.201ZM116.006 23.0264H121.237V38.2285C121.237 38.5494 121.287 38.8097 121.387 39.0094C121.494 39.202 121.647 39.3411 121.847 39.4267C122.047 39.5051 122.286 39.5443 122.564 39.5443C122.764 39.5443 122.974 39.5265 123.195 39.4908C123.423 39.448 123.595 39.4124 123.709 39.3839L124.5 43.1603C124.251 43.2316 123.898 43.3208 123.441 43.4278C122.992 43.5347 122.453 43.6025 121.826 43.631C120.599 43.6881 119.547 43.5454 118.67 43.2031C117.8 42.8536 117.133 42.3116 116.669 41.577C116.213 40.8424 115.992 39.9188 116.006 38.8062V23.0264Z" fill="url(#paint12_linear_96_168)"/>
<path d="M104.018 43.7059C102.285 43.7059 100.798 43.3493 99.5568 42.636C98.3229 41.9228 97.3743 40.9315 96.7111 39.662C96.0478 38.3853 95.7161 36.909 95.7161 35.2329C95.7161 33.5497 96.0478 32.0734 96.7111 30.8039C97.3815 29.5272 98.3336 28.5323 99.5675 27.8191C100.808 27.1059 102.288 26.7493 104.007 26.7493C105.526 26.7493 106.849 27.0239 107.976 27.573C109.11 28.1222 109.995 28.8996 110.629 29.9052C111.271 30.9037 111.61 32.077 111.646 33.4249H106.757C106.657 32.5833 106.372 31.9236 105.901 31.4458C105.437 30.9679 104.831 30.729 104.082 30.729C103.476 30.729 102.945 30.9002 102.488 31.2425C102.032 31.5777 101.675 32.077 101.418 32.7402C101.169 33.3964 101.044 34.2095 101.044 35.1794C101.044 36.1494 101.169 36.9696 101.418 37.64C101.675 38.3033 102.032 38.8061 102.488 39.1484C102.945 39.4836 103.476 39.6513 104.082 39.6513C104.567 39.6513 104.995 39.5478 105.366 39.341C105.744 39.1342 106.054 38.8311 106.297 38.4317C106.539 38.0251 106.692 37.533 106.757 36.9553H111.646C111.596 38.3104 111.257 39.4943 110.629 40.5071C110.009 41.5199 109.135 42.308 108.008 42.8714C106.889 43.4277 105.558 43.7059 104.018 43.7059Z" fill="url(#paint13_linear_96_168)"/>
<path d="M87.1942 36.3029V26.9634H92.4149V43.3958H87.4295V40.3361H87.2584C86.8946 41.3417 86.2741 42.1405 85.3969 42.7325C84.5268 43.3173 83.4748 43.6097 82.2409 43.6097C81.1212 43.6097 80.1369 43.353 79.2882 42.8395C78.4395 42.3259 77.7798 41.6092 77.3091 40.6891C76.8383 39.7619 76.5994 38.6779 76.5923 37.4369V26.9634H81.8237V36.4099C81.8308 37.3014 82.0662 38.0039 82.5298 38.5174C82.9934 39.0309 83.6245 39.2877 84.4233 39.2877C84.944 39.2877 85.4111 39.1735 85.8248 38.9453C86.2456 38.71 86.5772 38.3712 86.8197 37.929C87.0694 37.4797 87.1942 36.9376 87.1942 36.3029Z" fill="url(#paint14_linear_96_168)"/>
<path d="M59.397 43.3956V21.4857H74.353V25.7864H64.6926V30.2796H73.4009V34.591H64.6926V43.3956H59.397Z" fill="url(#paint15_linear_96_168)"/>
<defs>
<linearGradient id="paint0_linear_96_168" x1="43.8112" y1="-8.08359" x2="-1.76182" y2="49.3291" gradientUnits="userSpaceOnUse">
<stop offset="0.330424" stop-color="#007BFF"/>
<stop offset="1" stop-color="#0056B3"/>
</linearGradient>
<linearGradient id="paint1_linear_96_168" x1="43.8112" y1="-8.08359" x2="-1.76182" y2="49.3291" gradientUnits="userSpaceOnUse">
<stop offset="0.330424" stop-color="#007BFF"/>
<stop offset="1" stop-color="#0056B3"/>
</linearGradient>
<linearGradient id="paint2_linear_96_168" x1="43.8112" y1="-8.08359" x2="-1.76182" y2="49.3291" gradientUnits="userSpaceOnUse">
<stop offset="0.330424" stop-color="#007BFF"/>
<stop offset="1" stop-color="#0056B3"/>
</linearGradient>
<linearGradient id="paint3_linear_96_168" x1="259.635" y1="9.14612" x2="258.969" y2="60.8292" gradientUnits="userSpaceOnUse">
<stop offset="0.330424" stop-color="#007BFF"/>
<stop offset="1" stop-color="#0056B3"/>
</linearGradient>
<linearGradient id="paint4_linear_96_168" x1="259.635" y1="9.14617" x2="258.969" y2="60.8293" gradientUnits="userSpaceOnUse">
<stop offset="0.330424" stop-color="#007BFF"/>
<stop offset="1" stop-color="#0056B3"/>
</linearGradient>
<linearGradient id="paint5_linear_96_168" x1="259.635" y1="9.14617" x2="258.969" y2="60.8293" gradientUnits="userSpaceOnUse">
<stop offset="0.330424" stop-color="#007BFF"/>
<stop offset="1" stop-color="#0056B3"/>
</linearGradient>
<linearGradient id="paint6_linear_96_168" x1="259.635" y1="9.14612" x2="258.969" y2="60.8292" gradientUnits="userSpaceOnUse">
<stop offset="0.330424" stop-color="#007BFF"/>
<stop offset="1" stop-color="#0056B3"/>
</linearGradient>
<linearGradient id="paint7_linear_96_168" x1="259.635" y1="9.14617" x2="258.969" y2="60.8293" gradientUnits="userSpaceOnUse">
<stop offset="0.330424" stop-color="#007BFF"/>
<stop offset="1" stop-color="#0056B3"/>
</linearGradient>
<linearGradient id="paint8_linear_96_168" x1="259.635" y1="9.14617" x2="258.969" y2="60.8293" gradientUnits="userSpaceOnUse">
<stop offset="0.330424" stop-color="#007BFF"/>
<stop offset="1" stop-color="#0056B3"/>
</linearGradient>
<linearGradient id="paint9_linear_96_168" x1="259.635" y1="9.1462" x2="258.969" y2="60.8293" gradientUnits="userSpaceOnUse">
<stop offset="0.330424" stop-color="#007BFF"/>
<stop offset="1" stop-color="#0056B3"/>
</linearGradient>
<linearGradient id="paint10_linear_96_168" x1="259.635" y1="9.14625" x2="258.969" y2="60.8293" gradientUnits="userSpaceOnUse">
<stop offset="0.330424" stop-color="#007BFF"/>
<stop offset="1" stop-color="#0056B3"/>
</linearGradient>
<linearGradient id="paint11_linear_96_168" x1="259.635" y1="9.14632" x2="258.969" y2="60.8294" gradientUnits="userSpaceOnUse">
<stop offset="0.330424" stop-color="#007BFF"/>
<stop offset="1" stop-color="#0056B3"/>
</linearGradient>
<linearGradient id="paint12_linear_96_168" x1="259.635" y1="9.14623" x2="258.969" y2="60.8293" gradientUnits="userSpaceOnUse">
<stop offset="0.330424" stop-color="#007BFF"/>
<stop offset="1" stop-color="#0056B3"/>
</linearGradient>
<linearGradient id="paint13_linear_96_168" x1="259.635" y1="9.14617" x2="258.969" y2="60.8293" gradientUnits="userSpaceOnUse">
<stop offset="0.330424" stop-color="#007BFF"/>
<stop offset="1" stop-color="#0056B3"/>
</linearGradient>
<linearGradient id="paint14_linear_96_168" x1="259.635" y1="9.14632" x2="258.969" y2="60.8294" gradientUnits="userSpaceOnUse">
<stop offset="0.330424" stop-color="#007BFF"/>
<stop offset="1" stop-color="#0056B3"/>
</linearGradient>
<linearGradient id="paint15_linear_96_168" x1="259.635" y1="9.14612" x2="258.969" y2="60.8292" gradientUnits="userSpaceOnUse">
<stop offset="0.330424" stop-color="#007BFF"/>
<stop offset="1" stop-color="#0056B3"/>
</linearGradient>
</defs>
</svg>
