<svg width="224" height="48" viewBox="0 0 224 48" fill="none" xmlns="http://www.w3.org/2000/svg">
<path fill-rule="evenodd" clip-rule="evenodd" d="M44.9427 17.3817C43.0116 19.1744 43.5659 18.9676 39.0817 17.6576C35.1487 16.4161 37.0122 16.0025 33.4959 18.002C30.3217 19.8648 25.1487 21.7275 22.7332 23.175C23.632 25.1761 31.3564 31.7282 33.2192 34.4181C32.528 34.7625 31.9768 35.0393 31.2188 35.3845C30.0457 35.9357 30.3217 35.9357 28.9426 35.1085C25.9075 33.3834 16.1811 27.866 14.25 27.0373C11.6993 28.1412 4.93801 31.5906 2.59485 31.4523C1.49013 31.3838 -0.304166 31.1079 0.0441197 29.7279C0.938935 26.3485 7.00906 24.485 10.9413 22.7607C12.5257 22.0719 12.1121 22.141 12.4573 20.4152C12.8732 18.5532 15.4939 5.03383 16.1143 4.34503C16.3903 4.13823 18.5282 3.24186 18.941 3.03429C19.1486 4.27661 19.2861 5.65576 19.3553 6.96572L20.0441 14.6218C20.0441 15.8633 20.2517 17.3117 20.4593 18.484C22.252 17.5877 24.0456 16.8289 25.9083 15.9325C35.1495 11.5175 33.4967 14.4842 35.6323 9.518C36.8762 6.75892 36.8762 5.10301 39.5653 5.51815C39.0817 11.0355 40.5969 14.485 44.9427 17.3817ZM42.9424 10.5535C41.9092 10.8987 42.3228 12.4839 43.4944 12.2087L45.0819 11.6575C46.0459 11.3807 45.7715 9.72558 44.5299 10.07L42.9424 10.5535ZM222.621 47.7307C223.517 48.4203 224.553 47.0404 223.655 46.4192L222.966 45.7996C222.001 45.0401 221.035 46.4884 221.863 47.1104L222.621 47.7307ZM217.862 43.9361C218.76 44.6265 219.793 43.2466 218.968 42.5578L217.587 41.523C216.691 40.8327 215.655 42.1426 216.553 42.833L217.862 43.9361ZM212.482 39.7295C213.309 40.4191 214.413 39.1091 213.516 38.4188L212.137 37.384C211.241 36.6952 210.136 38.0059 211.102 38.7639L212.482 39.7295ZM206.963 35.7973C207.928 36.4192 208.828 34.9709 207.928 34.3497L206.551 33.3834C205.514 32.7638 204.619 34.2121 205.584 34.8333L206.963 35.7973ZM201.308 31.935C202.273 32.5562 203.17 31.1086 202.273 30.4867L200.827 29.5903C199.86 28.9699 198.964 30.4183 199.86 31.0379L201.308 31.935ZM195.582 28.2796C196.48 28.9 197.445 27.5208 196.48 26.8313L194.962 25.9349C194.134 25.3829 193.101 26.7621 194.134 27.4524L195.582 28.2796ZM189.72 24.8309C190.756 25.3821 191.444 23.8646 190.549 23.3826L189.03 22.4855C187.997 22.0034 187.236 23.5202 188.203 24.003L189.72 24.8309ZM183.721 21.5883C184.754 22.0719 185.514 20.622 184.479 20.0708L182.963 19.312C181.926 18.7608 181.238 20.3468 182.202 20.8311L183.721 21.5883ZM177.579 18.554C178.615 19.0368 179.374 17.5193 178.34 17.0373L176.821 16.2777C175.856 15.7949 175.029 17.3125 176.062 17.7945L177.579 18.554ZM171.443 15.7265C172.548 16.1401 173.099 14.5534 172.063 14.139L170.547 13.4494C169.442 13.0366 168.821 14.6918 169.857 15.0362L171.443 15.7265ZM165.098 13.1742C166.131 13.5878 166.82 12.0019 165.718 11.5183L164.13 10.9671C163.098 10.5535 162.477 12.1395 163.511 12.5531L165.098 13.1742ZM158.751 10.8287C159.925 11.1739 160.269 9.44959 159.302 9.17438L157.647 8.62163C156.474 8.27724 156.13 9.93159 157.096 10.2768L158.751 10.8287ZM152.268 8.69005C153.372 9.03444 153.784 7.38009 152.75 7.1041L151.094 6.62132C149.991 6.27537 149.509 7.93128 150.613 8.20726L152.268 8.69005ZM145.715 6.89809C146.682 7.1733 147.301 5.58735 146.128 5.2414L144.475 4.82858C143.231 4.55337 143.025 6.27693 144.06 6.4845L145.715 6.89809ZM139.095 5.38133C140.197 5.58735 140.472 3.86224 139.439 3.65545L137.713 3.31105C136.61 3.10426 136.333 4.75939 137.438 4.9654L139.095 5.38133ZM132.403 4.07059C133.436 4.27738 133.853 2.6207 132.678 2.41468C132.127 2.2763 131.576 2.20789 130.953 2.06951C129.988 1.9319 129.507 3.58704 130.678 3.79384C131.301 3.86225 131.852 4.0014 132.403 4.07059ZM125.642 3.03506C126.818 3.17266 126.955 1.51753 125.85 1.38071L124.196 1.17235C123.023 1.03475 122.883 2.75985 123.989 2.82904L125.642 3.03506ZM118.884 2.34471C119.987 2.48309 120.193 0.759541 119.023 0.621159L117.298 0.483553C116.264 0.414363 115.988 2.06951 117.228 2.20711L118.884 2.34471ZM112.125 1.9319C113.299 1.9319 113.229 0.207571 112.194 0.207571L110.468 0.137606C109.297 0.137606 109.297 1.79352 110.399 1.86349L112.125 1.9319ZM105.295 1.7251C106.4 1.7251 106.47 0.0691908 105.295 0C104.744 0 104.123 0 103.572 0C102.536 0 102.399 1.7251 103.572 1.7251C104.193 1.7251 104.744 1.7251 105.295 1.7251ZM98.4684 1.86271C99.7099 1.79352 99.5023 0.0684094 98.3999 0.136823L96.7432 0.206788C95.5709 0.275979 95.71 1.99953 96.8124 1.93112L98.4684 1.86271ZM91.7079 2.20711C92.8134 2.1387 92.7442 0.414361 91.5703 0.551965L89.8436 0.68957C88.7412 0.758761 88.8796 2.4139 89.9828 2.34393L91.7079 2.20711ZM84.9497 2.89746C85.9829 2.75986 85.9153 1.03475 84.7421 1.17235C84.1894 1.24154 83.5698 1.31074 83.0186 1.38071C81.9823 1.44912 82.0515 3.17344 83.2262 3.03506C83.7766 2.96665 84.3278 2.89746 84.9497 2.89746ZM78.19 3.72464C79.3616 3.51785 78.948 1.86271 77.9148 2.06951L76.1897 2.34471C75.0873 2.5515 75.431 4.2082 76.465 4.00141L78.19 3.72464ZM71.4288 4.89699C72.5343 4.6902 72.2575 3.03507 71.1536 3.24264L69.4316 3.51784C68.3945 3.72464 68.6705 5.44975 69.7752 5.2414L71.4288 4.89699ZM64.809 6.27693C65.843 6.07013 65.5678 4.3458 64.3954 4.62178L62.7395 4.96619C61.5687 5.31214 62.1191 6.89809 63.1531 6.62288L64.809 6.27693ZM58.1861 7.86209C59.2916 7.51847 58.8065 5.93253 57.7726 6.20773L56.0482 6.62211C54.945 6.9665 55.427 8.55245 56.5325 8.27724L58.1861 7.86209ZM51.6348 9.65639C52.6687 9.38118 52.2552 7.72449 51.1504 8.00203L49.4961 8.48403C48.4606 8.76001 48.8073 10.4843 49.9781 10.1392L51.6348 9.65639Z" fill="url(#paint0_linear_96_155)" fill-opacity="0.75"/>
<defs>
<linearGradient id="paint0_linear_96_155" x1="210.168" y1="-6.07546" x2="201.553" y2="63.1918" gradientUnits="userSpaceOnUse">
<stop offset="0.330424" stop-color="#007BFF"/>
<stop offset="1" stop-color="#0056B3"/>
</linearGradient>
</defs>
</svg>
