<svg width="84" height="83" viewBox="0 0 84 83" fill="none" xmlns="http://www.w3.org/2000/svg">
<g filter="url(#filter0_d_375_582)">
<rect x="14.4155" y="4" width="55" height="55" rx="14.8253" fill="#007BFF" shape-rendering="crispEdges"/>
<g clip-path="url(#clip0_375_582)">
<path fill-rule="evenodd" clip-rule="evenodd" d="M48.4464 18.3003C48.5491 18.1354 48.6983 18.0047 48.8752 17.9246C49.0521 17.8446 49.2488 17.8188 49.4403 17.8504L54.4905 18.6931C54.7473 18.7359 54.9766 18.879 55.128 19.0908C55.2793 19.3025 55.3404 19.5658 55.2978 19.8226L54.4571 24.8747C54.425 25.0662 54.3369 25.244 54.2039 25.3854C54.0708 25.5268 53.8988 25.6257 53.7096 25.6694C53.5204 25.7131 53.3225 25.6998 53.1409 25.631C52.9593 25.5623 52.8021 25.4413 52.6893 25.2833L51.3261 23.3779L44.3057 27.8644C44.0063 28.056 43.6478 28.1328 43.2962 28.0809C42.9446 28.0289 42.6236 27.8515 42.3925 27.5815L38.4777 23.0047L31.1568 26.7663C30.8093 26.945 30.4051 26.9784 30.033 26.859C29.6609 26.7397 29.3515 26.4774 29.1729 26.1299C28.9942 25.7824 28.9608 25.3782 29.0802 25.0061C29.1995 24.6341 29.4618 24.3247 29.8093 24.146L38.1673 19.8501C38.4624 19.6985 38.8 19.6509 39.1255 19.7151C39.451 19.7793 39.7452 19.9514 39.9607 20.2037L43.7989 24.6921L49.6132 20.9756L48.4798 19.3904C48.3671 19.2324 48.3038 19.0444 48.2979 18.8504C48.2919 18.6564 48.3436 18.4649 48.4464 18.3003ZM35.5882 27.9449L29.8879 31.2056C29.6627 31.3343 29.4754 31.5201 29.345 31.7443C29.2147 31.9684 29.1458 32.2231 29.1454 32.4824V43.7771C29.1454 44.5903 29.8054 45.2503 30.6186 45.2503H35.5882V27.9449ZM38.0436 45.2503H45.2486V31.8696L42.0095 33.4881L38.7723 27.8231C38.6088 27.535 38.3527 27.3107 38.0455 27.1867L38.0436 45.2503ZM53.2078 45.2503H47.7039V30.6419L52.5498 28.218C52.7744 28.1058 53.0239 28.0529 53.2747 28.0643C53.5255 28.0757 53.7692 28.151 53.9827 28.2831C54.1962 28.4151 54.3725 28.5995 54.4947 28.8188C54.6169 29.0381 54.6811 29.285 54.6811 29.536V43.7771C54.6811 44.1678 54.5258 44.5425 54.2496 44.8188C53.9733 45.0951 53.5986 45.2503 53.2078 45.2503Z" fill="white"/>
</g>
</g>
<defs>
<filter id="filter0_d_375_582" x="0.415522" y="0" width="83" height="83" filterUnits="userSpaceOnUse" color-interpolation-filters="sRGB">
<feFlood flood-opacity="0" result="BackgroundImageFix"/>
<feColorMatrix in="SourceAlpha" type="matrix" values="0 0 0 0 0 0 0 0 0 0 0 0 0 0 0 0 0 0 127 0" result="hardAlpha"/>
<feOffset dy="10"/>
<feGaussianBlur stdDeviation="7"/>
<feComposite in2="hardAlpha" operator="out"/>
<feColorMatrix type="matrix" values="0 0 0 0 0.991667 0 0 0 0 0.902417 0 0 0 0 0.902417 0 0 0 1 0"/>
<feBlend mode="normal" in2="BackgroundImageFix" result="effect1_dropShadow_375_582"/>
<feBlend mode="normal" in="SourceGraphic" in2="effect1_dropShadow_375_582" result="shape"/>
</filter>
<clipPath id="clip0_375_582">
<rect width="27.5" height="27.5" fill="white" transform="translate(28.1655 17.75)"/>
</clipPath>
</defs>
</svg>
