<svg width="63" height="62" viewBox="0 0 63 62" fill="none" xmlns="http://www.w3.org/2000/svg">
<rect x="0.584473" width="61.831" height="61.8311" rx="16.6667" fill="white"/>
<path d="M31.5002 12.9989C28.1739 12.9989 24.9839 14.3203 22.6319 16.6723C20.2798 19.0243 18.9585 22.2143 18.9585 25.5406C18.9585 29.8047 21.0906 33.5493 24.3335 35.8247V39.8739C24.3335 40.3491 24.5223 40.8048 24.8583 41.1408C25.1943 41.4768 25.65 41.6656 26.1252 41.6656H36.8752C37.3503 41.6656 37.8061 41.4768 38.1421 41.1408C38.4781 40.8048 38.6668 40.3491 38.6668 39.8739V35.8247C41.9097 33.5493 44.0418 29.8047 44.0418 25.5406C44.0418 22.2143 42.7205 19.0243 40.3685 16.6723C38.0164 14.3203 34.8264 12.9989 31.5002 12.9989ZM26.1252 47.0406C26.1252 47.5158 26.3139 47.9715 26.6499 48.3075C26.9859 48.6435 27.4417 48.8322 27.9168 48.8322H35.0835C35.5587 48.8322 36.0144 48.6435 36.3504 48.3075C36.6864 47.9715 36.8752 47.5158 36.8752 47.0406V45.2489H26.1252V47.0406Z" fill="#D79442"/>
</svg>
