<svg width="610" height="500" viewBox="0 0 610 500" fill="none" xmlns="http://www.w3.org/2000/svg">
<path d="M112.22 395.81C108.01 393.63 103.05 393.35 98.3698 394.12C95.8598 394.54 93.2398 395.29 91.5298 397.18C89.8198 399.07 89.5298 402.39 91.4598 404.01C92.7249 404.867 94.2489 405.256 95.7698 405.11C99.4298 405.06 103.5 404.42 106.42 406.62C108.09 407.88 109.2 409.97 111.2 410.62C112.198 410.849 113.244 410.748 114.18 410.331C115.116 409.914 115.892 409.205 116.39 408.31C117.338 406.475 117.549 404.346 116.98 402.36C116.746 400.975 116.195 399.662 115.369 398.526C114.543 397.389 113.465 396.46 112.22 395.81Z" fill="#EBEBEB"/>
<path d="M121.88 377.17C119.3 380.85 114.29 379.63 111.97 377.39C109.65 375.15 108.67 371.89 107.77 368.78C105.77 361.69 103.68 354.25 105.19 347.02C105.566 344.829 106.538 342.785 108 341.11C108.736 340.278 109.678 339.655 110.731 339.304C111.785 338.953 112.912 338.886 114 339.11C116.52 339.77 118.09 342.25 119.22 344.6C122.564 351.546 124.317 359.151 124.35 366.86C124.35 370.44 123.94 374.2 121.92 377.16" fill="#EBEBEB"/>
<path d="M129 382.45C126.2 379.13 125.67 374.29 126.92 370.13C128.332 365.995 130.858 362.331 134.22 359.54C138.035 356.147 142.474 353.528 147.29 351.83C149.152 351.08 151.154 350.739 153.16 350.83C154.166 350.888 155.142 351.192 156.003 351.715C156.865 352.238 157.585 352.964 158.1 353.83C159.47 356.45 158.1 359.63 156.73 362.23C154.212 366.804 151.339 371.174 148.14 375.3C145.57 378.62 142.62 381.89 138.7 383.39C134.78 384.89 130.7 384.71 128.63 381.99" fill="#EBEBEB"/>
<path d="M122.05 432.68C121.909 432.134 121.832 431.574 121.82 431.01L121.37 426.45C121.151 424.201 120.817 421.965 120.37 419.75C119.769 417.056 118.953 414.414 117.93 411.85C116.943 409.292 115.596 406.887 113.93 404.71C112.567 402.934 110.825 401.485 108.83 400.47C107.48 399.797 106.032 399.344 104.54 399.13C103.977 399.103 103.417 399.023 102.87 398.89C103.431 398.825 103.998 398.825 104.56 398.89C106.094 398.993 107.597 399.369 109 400C111.099 400.988 112.941 402.45 114.38 404.27C116.128 406.482 117.537 408.942 118.56 411.57C119.597 414.161 120.407 416.838 120.98 419.57C121.415 421.806 121.712 424.067 121.87 426.34C122.02 428.28 122.07 429.85 122.1 430.94C122.15 431.52 122.133 432.104 122.05 432.68Z" fill="#E0E0E0"/>
<path d="M121.74 429.17C121.706 428.914 121.706 428.656 121.74 428.4C121.74 427.81 121.74 427.08 121.74 426.18C121.74 424.25 121.74 421.47 121.64 418.02C121.47 411.14 120.88 403.74 119.73 393.29C118.65 383.48 117.19 372.05 115.66 364.62C115.33 362.93 115 361.41 114.66 360.08C114.32 358.75 114.1 357.59 113.86 356.66C113.62 355.73 113.48 355.07 113.34 354.51C113.267 354.259 113.22 354.001 113.2 353.74C113.327 353.968 113.418 354.214 113.47 354.47C113.64 355.03 113.86 355.73 114.12 356.59C114.38 357.45 114.7 358.66 115.03 359.99C115.36 361.32 115.74 362.83 116.11 364.52C118.003 373.305 119.432 382.184 120.39 391.12C121.53 401.59 122.05 411.12 122.1 418.02C122.1 421.46 122.1 424.26 121.98 426.18C121.92 427.09 121.88 427.82 121.84 428.4C121.832 428.659 121.799 428.917 121.74 429.17Z" fill="#E0E0E0"/>
<path d="M121.69 410.8C121.627 410.028 121.627 409.252 121.69 408.48C121.821 406.376 122.058 404.28 122.4 402.2C122.889 399.114 123.557 396.059 124.4 393.05C125.397 389.347 126.678 385.727 128.23 382.22C130.883 375.758 134.688 369.832 139.46 364.73C140.29 363.858 141.171 363.036 142.1 362.27C142.51 361.93 142.87 361.59 143.23 361.32L144.23 360.61C144.862 360.141 145.531 359.723 146.23 359.36C143.978 361.126 141.84 363.033 139.83 365.07C135.198 370.212 131.478 376.106 128.83 382.5C127.31 385.984 126.024 389.565 124.98 393.22C123.98 396.59 123.31 399.68 122.81 402.28C122.31 404.88 122.14 407 122 408.5C121.961 409.274 121.857 410.043 121.69 410.8Z" fill="#E0E0E0"/>
<path d="M139.45 443.21L137.61 468.44H105.2L103.36 443.21H139.45Z" fill="#E0E0E0"/>
<path d="M142.59 433.27H99.5V443.21H142.59V433.27Z" fill="#E0E0E0"/>
<path d="M142.58 467.47V470.23H140.56H100.21V467.47H142.58Z" fill="#EBEBEB"/>
<path d="M138.57 475.08L140.56 470.23H101.75L104.07 475.08H138.57Z" fill="#E0E0E0"/>
<path d="M104 451.46L104.16 451.69L104.64 452.33L106.53 454.75L106.61 454.85L106.69 454.74L111.33 448.33H111L115.57 454.79L115.71 454.99L115.87 454.8L121.29 448.36H121L121.29 448.73L126.14 454.8L126.3 455L126.45 454.79L131 448.33H130.73L136.36 454.74L136.46 454.86L136.53 454.73C137.27 453.48 137.87 452.49 138.29 451.73L138.75 450.94C138.808 450.854 138.851 450.76 138.88 450.66C138.811 450.737 138.751 450.821 138.7 450.91C138.56 451.11 138.4 451.36 138.2 451.67L136.35 454.57H136.52L131 448.12L130.86 447.96L130.73 448.13L126.12 454.57H126.43L121.6 448.49C121.5 448.36 121.4 448.23 121.3 448.12L121.15 447.92L120.99 448.11L115.59 454.57H115.89L111.28 448.14L111.15 447.95L111.01 448.14C109.19 450.75 107.63 452.96 106.47 454.62H106.64L104.64 452.26L104.12 451.65C104 451.52 104 451.45 104 451.46Z" fill="#F5F5F5"/>
<path d="M102.91 443C102.91 443.12 111.03 443.21 121.05 443.21C131.07 443.21 139.18 443.12 139.18 443C139.18 442.88 131.06 442.8 121.05 442.8C111.04 442.8 102.91 442.93 102.91 443Z" fill="#F5F5F5"/>
<path d="M101.27 470.5C101.27 470.61 110.1 470.7 120.98 470.7C131.86 470.7 140.69 470.61 140.69 470.5C140.69 470.39 131.87 470.3 120.98 470.3C110.09 470.3 101.27 470.39 101.27 470.5Z" fill="#F5F5F5"/>
<path d="M355.33 96.57C356.967 96.3711 358.51 95.6968 359.769 94.6305C361.027 93.5642 361.945 92.1525 362.41 90.57C362.787 89.5623 362.954 88.4884 362.901 87.4138C362.849 86.3392 362.578 85.2866 362.105 84.3204C361.632 83.3542 360.966 82.4947 360.149 81.7945C359.333 81.0942 358.382 80.5679 357.355 80.2478C356.327 79.9277 355.246 79.8205 354.176 79.9327C353.106 80.0449 352.07 80.3742 351.132 80.9005C350.193 81.4267 349.372 82.1389 348.718 82.9934C348.065 83.8478 347.592 84.8267 347.33 85.87C346.81 87.4501 346.771 89.149 347.218 90.7512C347.665 92.3535 348.577 93.787 349.84 94.87C337.68 93.06 334.34 105.87 334.34 105.87L361.77 114.42C361.77 114.42 366.31 101.84 355.33 96.57Z" fill="#EBEBEB"/>
<path d="M338.38 54.17C339.15 53.7386 339.776 53.0909 340.181 52.307C340.587 51.5231 340.753 50.6376 340.66 49.76C340.642 49.1824 340.505 48.6145 340.259 48.0915C340.014 47.5684 339.663 47.1011 339.23 46.7182C338.797 46.3354 338.291 46.0452 337.741 45.8653C337.192 45.6854 336.612 45.6198 336.036 45.6724C335.461 45.7249 334.902 45.8946 334.394 46.171C333.887 46.4474 333.441 46.8247 333.085 47.2796C332.728 47.7345 332.468 48.2575 332.321 48.8165C332.174 49.3755 332.143 49.9586 332.23 50.53C332.299 51.4172 332.629 52.2641 333.179 52.9636C333.729 53.6631 334.474 54.1839 335.32 54.46C328.93 56.06 329.91 63.08 329.91 63.08L345.24 61.67C345.24 61.67 344.9 54.52 338.38 54.17Z" fill="#EBEBEB"/>
<path d="M253.25 95.42C254.216 94.8202 254.985 93.95 255.461 92.9172C255.938 91.8844 256.101 90.7345 255.93 89.61C255.886 88.8578 255.688 88.1227 255.346 87.4508C255.005 86.779 254.529 86.1848 253.948 85.7056C253.366 85.2263 252.692 84.8724 251.968 84.666C251.243 84.4595 250.483 84.405 249.737 84.5059C248.99 84.6067 248.272 84.8608 247.628 85.252C246.984 85.6433 246.428 86.1634 245.995 86.7797C245.561 87.396 245.26 88.0952 245.109 88.8335C244.959 89.5718 244.962 90.3332 245.12 91.07C245.256 92.2109 245.727 93.2857 246.475 94.1581C247.223 95.0305 248.213 95.6611 249.32 95.97C241.18 98.39 242.83 107.37 242.83 107.37L262.49 104.7C262.49 104.7 261.66 95.5 253.25 95.42Z" fill="#EBEBEB"/>
<path d="M429.2 161.59L426.49 160.35L424.35 149.42L426.82 144.01C426.82 144.01 422.75 141.84 420.01 149.14C417.27 156.44 417.56 154.4 417.56 154.4C417.56 154.4 408.65 150.4 407.56 150.81C406.77 151.12 402.49 159.81 400.21 164.58C399.624 165.709 399.433 167.002 399.666 168.252C399.9 169.503 400.545 170.639 401.5 171.48C401.775 171.707 402.077 171.898 402.4 172.05C404.61 173.05 416.76 176.43 416.76 176.43L421.44 178.57L429.2 161.59Z" fill="#EBEBEB"/>
<path d="M437.63 163.65L427.5 181.4L422.86 179.28L431.16 161.14L437.63 163.65Z" fill="#EBEBEB"/>
<path d="M188.872 245.484L185.962 244.864L177.712 252.344L176.472 258.154C176.472 258.154 171.912 257.474 174.062 249.974C176.212 242.474 175.232 244.294 175.232 244.294C175.232 244.294 165.692 242.214 165.072 241.214C164.622 240.484 166.392 230.944 167.392 225.774C167.597 224.519 168.214 223.368 169.147 222.504C170.08 221.64 171.275 221.112 172.542 221.004C172.897 220.99 173.253 221.016 173.602 221.084C175.982 221.594 187.742 226.134 187.742 226.134L192.742 227.214L188.872 245.484Z" fill="#EBEBEB"/>
<path d="M196.862 248.864L199.332 228.564L194.342 227.504L190.172 247.014L196.862 248.864Z" fill="#EBEBEB"/>
<path d="M431.83 407.98V433.4H469H509.99V407.98H431.83Z" fill="#F5F5F5"/>
<path d="M428.55 400.88V407.98H512.73V400.88H469H428.55Z" fill="#E0E0E0"/>
<path d="M470.64 433.4H509.99V407.98H512.73V400.88H469V407.32L470.64 433.4Z" fill="#E0E0E0"/>
<path d="M458.61 412.08H442.76V415.91H458.61V412.08Z" fill="#E0E0E0"/>
<path d="M461.07 420.69H440.72V428.77H461.07V420.69Z" fill="white"/>
<path d="M419.97 442.29V475.47H468.5H522.02V442.29H419.97Z" fill="#F5F5F5"/>
<path d="M415.69 433.01V442.29H525.59V433.01H468.5H415.69Z" fill="#E0E0E0"/>
<path d="M470.64 475.47H522.02V442.29H525.59V433.01H468.5V441.43L470.64 475.47Z" fill="#E0E0E0"/>
<path d="M454.94 447.64H434.24V452.64H454.94V447.64Z" fill="#E0E0E0"/>
<path d="M458.15 458.88H431.58V469.43H458.15V458.88Z" fill="white"/>
<path d="M203.87 464.22C202.19 462.79 198.46 458.22 201.34 452.95C202.4 451.01 204.64 450.05 206.67 449.2C208.756 448.499 210.725 447.488 212.51 446.2C215.67 443.51 216.51 439.04 218.65 435.44C221.06 431.32 225.56 428.23 230.32 428.44C235.77 428.69 240.32 433.14 242.37 438.21C244.42 443.28 244.51 448.92 244.55 454.4C244.55 457.4 244.44 460.85 242.21 462.89C240.16 464.78 237.07 464.8 234.3 464.72L204.52 463.8" fill="#F5F5F5"/>
<path d="M260.82 382.34H182.51L196.62 466.45C196.908 468.203 197.69 469.839 198.872 471.165C200.055 472.491 201.591 473.454 203.3 473.94L203.58 474.02C203.81 474.08 204.03 474.15 204.27 474.2C204.798 474.301 205.333 474.361 205.87 474.38V474.46L206.25 474.4H241.15C241.794 474.398 242.437 474.335 243.07 474.21C245.107 473.897 246.986 472.924 248.418 471.441C249.85 469.958 250.757 468.047 251 466L257.8 408L258.11 405.7L260.81 382.7L260.82 382.34ZM246.05 436H238.05L238.86 411.59H248.17L246.05 436ZM248.91 411.59H256.6L253.74 436H246.83L248.91 411.59ZM225.91 463.07L225.42 441.86H237L236.29 463.07H225.91ZM213.4 441.86H224.65L225.13 463.07H215.09L213.4 441.86ZM214.27 463.07H204.84C203.95 457.34 202.78 449.9 201.52 441.86H212.62L214.27 463.07ZM213 436L211.1 411.59H224L224.56 436H213ZM225.34 436L224.78 411.59H238L237.23 436H225.34ZM224.64 405.74L224.12 383.13H239L238.25 405.74H224.64ZM223.86 405.74H210.63L208.88 383.13H223.33L223.86 405.74ZM209.86 405.74H195.86C195.36 402.62 194.86 399.66 194.47 397C193.01 387.86 192.47 384.43 192.16 383.13H208.1L209.86 405.74ZM210.31 411.59L212.21 436H200.64C200.25 433.53 199.86 431 199.46 428.51C198.56 422.75 197.65 416.99 196.8 411.59H210.31ZM199.85 436H192.3L188.2 411.59H196C197.2 419.13 198.52 427.52 199.85 436ZM200.77 441.86C201.93 449.2 203.06 456.43 204.1 463.07H196.84L193.28 441.86H200.77ZM237.11 463.07L237.81 441.86H245.55L243.73 463.07H237.11ZM239.01 405.74L239.77 383.13H250.56L248.63 405.74H239.01ZM191.43 383.13C191.74 384.77 193.17 393.66 195.08 405.74H187.22L183.43 383.13H191.43ZM250.57 463.07H244.51L246.33 441.86H253.05L250.57 463.07ZM257.29 405.74H249.41L251.34 383.13H259.94L257.29 405.74Z" fill="#E0E0E0"/>
<path d="M435.08 395.29C432.724 393.026 429.836 391.391 426.683 390.536C423.529 389.681 420.212 389.632 417.035 390.395C413.858 391.158 410.924 392.708 408.502 394.902C406.081 397.096 404.251 399.863 403.18 402.95L405.49 411.88C406.37 408.88 408.25 405.88 411.16 404.64C414.07 403.4 417.68 404.08 420.77 405.21C423.86 406.34 426.91 407.84 430.19 408.04C433.47 408.24 437.19 406.68 438.19 403.54C439.09 400.59 437.31 397.44 435.08 395.29Z" fill="#263238"/>
<path d="M379.46 425.08C374.64 420.5 374.88 412.52 377.29 406.33C379.7 400.14 384.94 395.33 390.8 392.23C396.521 389.223 402.849 387.55 409.309 387.336C415.769 387.123 422.193 388.376 428.1 391C425.208 391.124 422.391 391.955 419.896 393.421C417.401 394.888 415.304 396.944 413.79 399.41C411.15 403.79 410.56 409.12 408.38 413.75C405.917 418.973 401.548 423.055 396.17 425.158C390.792 427.262 384.813 427.226 379.46 425.06" fill="#455A64"/>
<path d="M377.14 397.56C371.81 391.26 371.14 381.15 371.88 372.93C372.62 364.71 374.57 356.44 373.28 348.28C372.51 343.45 370.63 338.84 370 333.99C369.37 329.14 370.27 323.66 374 320.52C378.32 316.93 385.13 317.78 389.62 321.15C394.11 324.52 396.72 329.84 398.62 335.15C402.8 346.77 404.33 359.66 400.9 371.53C397.47 383.4 389.43 394 377.61 397.56" fill="#455A64"/>
<path d="M374.58 449.25C374.565 449.01 374.565 448.77 374.58 448.53C374.58 448.05 374.58 447.35 374.58 446.44C374.65 444.64 374.82 442.02 375.23 438.81C375.707 435.052 376.391 431.323 377.28 427.64C378.384 423.115 380.1 418.762 382.38 414.7C384.662 410.644 387.462 406.903 390.71 403.57C393.353 400.84 396.284 398.402 399.45 396.3C400.78 395.38 402.07 394.68 403.18 394.03C404.29 393.38 405.31 392.94 406.12 392.55L408.04 391.74C408.26 391.64 408.487 391.557 408.72 391.49C408.517 391.619 408.303 391.729 408.08 391.82L406.2 392.71C405.4 393.12 404.42 393.63 403.3 394.25C402.18 394.87 400.93 395.63 399.62 396.56C392.667 401.307 386.898 407.589 382.76 414.92C377.86 423.5 376.51 432.53 375.54 438.86C375.1 442.05 374.87 444.65 374.75 446.45L374.63 448.53C374.636 448.771 374.619 449.012 374.58 449.25Z" fill="#263238"/>
<path d="M321.16 379.24C323.74 375.67 330.16 374.64 334.16 376.42C338.16 378.2 341.16 381.73 343.78 385.26C346.4 388.79 348.99 392.5 352.65 394.95C356.31 397.4 361.42 398.29 365.06 395.82C366.224 394.956 367.2 393.862 367.925 392.607C368.651 391.351 369.112 389.96 369.28 388.52C369.607 385.638 369.41 382.722 368.7 379.91C367.83 375.77 366.41 371.45 363.09 368.81C359.4 365.88 354.28 365.74 349.56 365.9C344.15 366.07 338.66 366.48 333.56 368.35C328.46 370.22 323.3 374.28 321.15 379.24" fill="#455A64"/>
<path d="M366.38 441.34C366.367 441.271 366.367 441.199 366.38 441.13C366.38 440.96 366.38 440.75 366.38 440.49C366.38 439.89 366.33 439.08 366.29 438.04C366.23 435.87 366.14 432.8 366.03 429.04C365.92 425.28 365.76 420.7 365.48 415.68C365.2 410.66 364.83 405.13 364.07 399.38C363.742 396.584 363.194 393.819 362.43 391.11C361.652 388.61 360.648 386.187 359.43 383.87C358.335 381.764 357.06 379.757 355.62 377.87C354.352 376.237 352.958 374.705 351.45 373.29C349.243 371.272 346.753 369.588 344.06 368.29C343.57 368.07 343.15 367.85 342.78 367.7L341.78 367.33L341.19 367.09L340.99 366.99C340.99 366.99 341.07 366.99 341.2 367.04L341.81 367.24L342.81 367.58C343.2 367.72 343.63 367.93 344.12 368.14C346.872 369.41 349.411 371.097 351.65 373.14C353.184 374.553 354.605 376.084 355.9 377.72C358.985 381.726 361.353 386.236 362.9 391.05C363.682 393.779 364.237 396.569 364.56 399.39C365.33 405.17 365.69 410.7 365.95 415.73C366.21 420.76 366.32 425.29 366.4 429.1C366.48 432.91 366.51 435.99 366.52 438.1V440.55C366.52 440.81 366.52 441.02 366.52 441.19C366.476 441.243 366.429 441.293 366.38 441.34Z" fill="#263238"/>
<path d="M369.93 445.81C369.463 444.426 369.102 443.009 368.85 441.57C368.164 437.635 368.009 433.626 368.39 429.65C368.998 423.767 370.263 417.971 372.16 412.37C374.16 406.01 376.93 399.22 379.28 391.92C380.441 388.373 381.39 384.76 382.12 381.1C382.772 377.684 383.24 374.236 383.52 370.77C383.968 364.898 384.075 359.005 383.84 353.12C383.67 348.12 383.4 344.03 383.23 341.22C383.15 339.83 383.09 338.75 383.04 337.98C383.04 337.63 383.04 337.35 383.04 337.14C383.027 337.044 383.027 336.946 383.04 336.85C383.066 336.942 383.082 337.035 383.09 337.13C383.09 337.35 383.09 337.62 383.17 337.97C383.23 338.74 383.33 339.82 383.44 341.2C383.66 344.01 383.98 348.08 384.19 353.11C384.473 359.009 384.4 364.92 383.97 370.81C383.695 374.289 383.235 377.751 382.59 381.18C381.858 384.856 380.909 388.486 379.75 392.05C377.39 399.38 374.63 406.16 372.58 412.49C370.677 418.062 369.393 423.827 368.75 429.68C368.339 433.63 368.443 437.617 369.06 441.54C369.3 442.92 369.52 443.99 369.72 444.7C369.8 445.04 369.86 445.32 369.91 445.52C369.931 445.615 369.937 445.713 369.93 445.81Z" fill="#263238"/>
<path d="M394.41 450.27H348.04L346.99 441.34H394.41V450.27Z" fill="#FF725E"/>
<path d="M353.02 449.25L358.82 476.02H384.01L389.43 449.25H353.02Z" fill="#FF725E"/>
<path d="M394.41 450.27C394.41 450.39 384.21 450.46 371.64 450.43C359.07 450.4 348.88 450.26 348.88 450.14C348.88 450.02 359.07 449.95 371.64 449.98C384.21 450.01 394.41 450.15 394.41 450.27Z" fill="#455A64"/>
<path d="M394.82 450.31C394.82 450.43 384.39 450.53 371.53 450.53C358.67 450.53 348.23 450.43 348.23 450.31C348.23 450.19 358.66 450.09 371.53 450.09C384.4 450.09 394.82 450.18 394.82 450.31Z" fill="#263238"/>
<path d="M497.84 475.79C497.84 475.94 411.5 476.05 305.01 476.05C198.52 476.05 112.16 475.94 112.16 475.79C112.16 475.64 198.48 475.53 305.01 475.53C411.54 475.53 497.84 475.65 497.84 475.79Z" fill="#263238"/>
<path d="M343.26 437.26L345.65 466.06L354.11 488.28C354.249 488.66 354.309 489.065 354.288 489.469C354.267 489.873 354.164 490.269 353.985 490.633C353.807 490.996 353.556 491.32 353.25 491.584C352.943 491.848 352.586 492.048 352.2 492.17C351.75 492.308 351.273 492.336 350.81 492.25C350.347 492.165 349.911 491.969 349.54 491.68C344.71 487.94 327.29 474.2 327.1 472.41C326.85 470.09 322.41 441.78 322.41 441.78L343.26 437.26Z" fill="#455A64"/>
<path d="M352.2 492.17L326.62 469.17L326.87 471.3C327.04 472.47 327.06 473.1 327.87 473.83C334.662 480.358 341.82 486.495 349.31 492.21C350.09 492.82 351.31 492.52 352.24 492.21L352.2 492.17Z" fill="#263238"/>
<path d="M331.66 460.15C332.039 460.373 332.323 460.727 332.458 461.146C332.593 461.564 332.568 462.018 332.39 462.42C332.183 462.81 331.834 463.105 331.415 463.245C330.996 463.384 330.539 463.358 330.14 463.17C329.736 462.934 329.435 462.557 329.295 462.112C329.154 461.666 329.184 461.184 329.38 460.76C329.637 460.376 330.033 460.107 330.485 460.01C330.936 459.913 331.408 459.996 331.8 460.24" fill="white"/>
<path d="M344.31 480.31C344.901 479.337 345.675 478.488 346.59 477.81C348.18 476.81 349.81 477.01 349.83 476.81C349.85 476.61 349.46 476.55 348.78 476.52C347.884 476.52 347.007 476.773 346.249 477.251C345.492 477.729 344.885 478.411 344.5 479.22C344.23 479.87 344.23 480.3 344.31 480.31Z" fill="#263238"/>
<path d="M346.76 483.94C346.91 484.05 347.76 483.02 349.17 482.44C350.078 482.161 351.003 481.941 351.94 481.78C352.01 481.62 350.56 481.16 348.94 481.85C347.32 482.54 346.6 483.88 346.76 483.94Z" fill="#263238"/>
<path d="M340 475.79C340.15 475.91 341.41 474.31 343.57 473.21C345.73 472.11 347.74 471.96 347.73 471.76C347.72 471.56 345.58 471.43 343.28 472.65C340.98 473.87 339.83 475.72 340 475.79Z" fill="#263238"/>
<path d="M338.51 467.09C338.61 467.26 340.13 466.43 342.18 466.09C344.23 465.75 345.93 466.09 345.97 465.94C346.01 465.79 344.3 465.12 342.09 465.46C339.88 465.8 338.41 467 338.51 467.09Z" fill="#263238"/>
<path d="M337.6 458.66C337.7 458.82 339.2 457.66 341.39 457.56C343.58 457.46 345.22 458.28 345.3 458.11C345.38 457.94 344.99 457.72 344.3 457.41C343.373 457.013 342.365 456.845 341.36 456.92C340.352 456.992 339.376 457.3 338.51 457.82C337.85 458.23 337.55 458.6 337.6 458.66Z" fill="#263238"/>
<path d="M341.17 456C341.227 455.635 341.199 455.262 341.09 454.91C340.894 453.921 340.499 452.982 339.93 452.15C339.565 451.507 338.999 451.001 338.32 450.71C338.088 450.633 337.839 450.63 337.606 450.702C337.373 450.773 337.168 450.916 337.02 451.11C336.75 451.505 336.636 451.986 336.7 452.46C336.869 453.418 337.367 454.288 338.108 454.92C338.849 455.551 339.786 455.905 340.76 455.92C341.718 455.917 342.654 455.631 343.449 455.097C344.245 454.563 344.864 453.806 345.23 452.92C345.317 452.695 345.356 452.454 345.344 452.213C345.332 451.971 345.269 451.735 345.16 451.52C345.026 451.314 344.829 451.156 344.599 451.069C344.368 450.983 344.116 450.973 343.88 451.04C343.187 451.263 342.568 451.671 342.09 452.22C341.375 452.924 340.793 453.751 340.37 454.66C340.19 454.967 340.075 455.307 340.03 455.66C340.66 454.499 341.459 453.438 342.4 452.51C342.838 452.053 343.38 451.71 343.98 451.51C344.109 451.471 344.247 451.476 344.373 451.523C344.5 451.57 344.607 451.656 344.68 451.77C344.747 451.914 344.782 452.071 344.782 452.23C344.782 452.389 344.747 452.546 344.68 452.69C344.347 453.451 343.803 454.1 343.111 454.559C342.419 455.018 341.61 455.269 340.78 455.28C339.957 455.264 339.164 454.969 338.53 454.444C337.896 453.919 337.459 453.195 337.29 452.39C337.239 452.062 337.303 451.727 337.47 451.44C337.549 451.33 337.662 451.247 337.791 451.204C337.92 451.161 338.06 451.16 338.19 451.2C338.761 451.451 339.242 451.869 339.57 452.4C340.315 453.494 340.857 454.713 341.17 456Z" fill="#263238"/>
<path d="M275.08 438.75L276.14 463.13C276.14 463.13 251.72 472.4 251.48 476.93L298.82 476.56L298.72 438.5L275.08 438.75Z" fill="#455A64"/>
<path d="M290.77 461C291.227 461.131 291.619 461.428 291.869 461.834C292.119 462.239 292.208 462.722 292.12 463.19C292.003 463.651 291.714 464.049 291.312 464.302C290.91 464.555 290.426 464.644 289.96 464.55C289.47 464.416 289.05 464.1 288.785 463.667C288.519 463.235 288.428 462.717 288.53 462.22C288.702 461.751 289.049 461.367 289.499 461.149C289.948 460.93 290.465 460.895 290.94 461.05" fill="#E0E0E0"/>
<path d="M298.82 476.56L298.66 472.72L253.33 474.51C253.33 474.51 251.23 475.45 251.48 476.93L298.82 476.56Z" fill="#263238"/>
<path d="M275.37 462.9C275.37 463.13 276.54 463.22 277.68 463.96C278.82 464.7 279.44 465.66 279.68 465.57C279.92 465.48 279.54 464.14 278.14 463.28C276.74 462.42 275.32 462.68 275.37 462.9Z" fill="#263238"/>
<path d="M270.42 465C270.42 465.22 271.42 465.61 272.17 466.58C272.92 467.55 273.17 468.58 273.43 468.58C273.69 468.58 273.79 467.26 272.78 466.07C271.77 464.88 270.43 464.77 270.42 465Z" fill="#263238"/>
<path d="M267.65 471C267.86 471 268.17 469.89 267.57 468.62C266.97 467.35 265.88 466.87 265.78 467.06C265.68 467.25 266.36 467.93 266.84 468.97C267.32 470.01 267.42 470.93 267.65 471Z" fill="#263238"/>
<path d="M275.75 457.31C275.84 457.52 276.9 457.2 278.21 457.31C279.52 457.42 280.54 457.8 280.66 457.6C280.78 457.4 279.79 456.6 278.25 456.51C276.71 456.42 275.63 457.13 275.75 457.31Z" fill="#263238"/>
<path d="M266.64 257.49C266.66 259 272 459 272 459L299.24 459.26L307.33 288.62C307.33 288.62 314.26 380.34 314.26 382.32C314.26 384.3 320.68 460.24 320.68 460.24L347 460L345.72 278L342.41 250.93L266.64 257.49Z" fill="#263238"/>
<path d="M310.38 282.13C310.005 282.349 309.606 282.523 309.19 282.65C308.41 282.95 307.28 283.37 305.88 283.86L305.62 283.96V283.67C305.46 281.2 305.27 277.9 305.1 274.29C304.91 270.37 304.78 266.82 304.71 264.29C304.71 263 304.66 261.96 304.66 261.24C304.629 260.866 304.649 260.489 304.72 260.12C304.82 260.482 304.874 260.855 304.88 261.23C304.95 261.95 305.03 262.98 305.12 264.23C305.29 266.79 305.49 270.34 305.68 274.23C305.85 277.84 305.98 281.15 306.05 283.62L305.77 283.42C307.18 282.98 308.33 282.62 309.13 282.42C309.534 282.275 309.954 282.178 310.38 282.13Z" fill="#455A64"/>
<path d="M308.16 260.8C308.16 260.8 308.25 260.64 308.54 260.53C308.973 260.402 309.438 260.445 309.84 260.65C310.158 260.797 310.424 261.038 310.603 261.339C310.782 261.641 310.864 261.99 310.84 262.34C310.809 262.769 310.641 263.177 310.36 263.504C310.079 263.83 309.7 264.056 309.28 264.15C308.861 264.223 308.43 264.166 308.044 263.988C307.658 263.809 307.335 263.517 307.12 263.15C306.988 262.904 306.91 262.633 306.89 262.354C306.869 262.076 306.907 261.796 307.002 261.533C307.096 261.271 307.244 261.03 307.437 260.828C307.629 260.626 307.862 260.467 308.12 260.36C308.41 260.25 308.58 260.27 308.59 260.3C308.6 260.33 307.93 260.53 307.52 261.4C307.403 261.632 307.349 261.89 307.361 262.149C307.373 262.408 307.452 262.66 307.59 262.88C307.755 263.143 307.994 263.352 308.276 263.482C308.559 263.611 308.873 263.656 309.18 263.61C309.476 263.532 309.743 263.367 309.945 263.138C310.148 262.908 310.279 262.624 310.32 262.32C310.349 262.066 310.303 261.81 310.188 261.582C310.072 261.355 309.892 261.166 309.67 261.04C309.211 260.785 308.676 260.7 308.16 260.8Z" fill="#455A64"/>
<path d="M321.59 262.91C321.43 262.91 321.21 262.03 321.1 260.91C320.99 259.79 321.02 258.91 321.18 258.91C321.34 258.91 321.56 259.78 321.67 260.91C321.78 262.04 321.75 262.89 321.59 262.91Z" fill="#455A64"/>
<path d="M323.62 262.7C323.46 262.7 323.33 261.75 323.32 260.59C323.31 259.43 323.44 258.47 323.6 258.47C323.76 258.47 323.89 259.41 323.9 260.58C323.91 261.75 323.78 262.7 323.62 262.7Z" fill="#455A64"/>
<path d="M288.34 264.11C287.97 263.375 287.782 262.562 287.79 261.74C287.599 260.934 287.599 260.095 287.79 259.29C288.344 260.832 288.525 262.484 288.32 264.11H288.34Z" fill="#455A64"/>
<path d="M290.8 264.31C290.374 263.551 290.134 262.703 290.1 261.834C290.065 260.965 290.236 260.1 290.6 259.31C290.697 260.146 290.718 260.99 290.66 261.83C290.785 262.65 290.832 263.481 290.8 264.31Z" fill="#455A64"/>
<path d="M281.54 261.57C281.556 261.876 281.526 262.183 281.45 262.48C281.303 263.291 281.106 264.093 280.86 264.88C279.214 270.132 275.943 274.725 271.52 278C270.857 278.492 270.162 278.94 269.44 279.34C269.186 279.508 268.91 279.639 268.62 279.73C268.57 279.65 269.68 278.99 271.29 277.73C275.523 274.349 278.719 269.843 280.51 264.73C281.2 262.82 281.45 261.55 281.54 261.57Z" fill="#455A64"/>
<path d="M344.83 275.39C344.543 275.487 344.242 275.538 343.94 275.54C343.123 275.6 342.303 275.584 341.49 275.49C338.777 275.19 336.191 274.183 333.99 272.57C331.793 270.947 330.068 268.769 328.99 266.26C328.66 265.513 328.402 264.736 328.22 263.94C328.132 263.648 328.092 263.344 328.1 263.04C328.19 263.04 328.44 264.28 329.32 266.11C330.451 268.503 332.159 270.578 334.29 272.149C336.421 273.72 338.909 274.737 341.53 275.11C343.55 275.43 344.82 275.3 344.83 275.39Z" fill="#455A64"/>
<path d="M297.14 379.24C297.14 379.37 292.26 378.24 286.31 376.61C280.36 374.98 275.57 373.61 275.61 373.49C275.65 373.37 280.5 374.49 286.45 376.11C292.4 377.73 297.18 379.1 297.14 379.24Z" fill="#455A64"/>
<path d="M344.3 371.77C344.37 371.9 340.15 374.37 334.87 377.29C329.59 380.21 325.26 382.47 325.19 382.29C325.12 382.11 329.34 379.7 334.62 376.78C339.9 373.86 344.23 371.65 344.3 371.77Z" fill="#455A64"/>
<path d="M282.4 133.87L295.05 128.91L318.35 127.59L329.3 131.75L314.29 140.09L301.35 139.61L282.4 133.87Z" fill="#A36E6A"/>
<path d="M318.4 101.44C319.995 96.9283 321.2 92.2879 322 87.5699C322.796 82.8289 322.408 77.9646 320.87 73.4099C320.62 72.7299 318.46 68.1699 317.74 68.2399C317.23 68.2899 318.55 72.5499 318.29 72.9999C315.8 77.2699 315.12 82.4099 315.51 87.3399C315.94 92.1319 316.902 96.8611 318.38 101.44" fill="#263238"/>
<path d="M291.45 130.32C291.45 126.94 291.54 121.89 291.52 121.89C291.5 121.89 279.92 120.72 279.17 109.23C278.81 103.68 278.99 92.23 279.27 81.8C279.43 76.4177 281.607 71.2922 285.369 67.4395C289.131 63.5869 294.203 61.2885 299.58 61L300.69 60.95C312.69 61.01 319.34 71.24 318.94 83.23L318.32 129.88L310.74 134.88C304.25 142.61 291.48 140.41 291.45 130.32Z" fill="#A36E6A"/>
<path d="M291.45 121.89C296.758 121.594 301.87 119.783 306.18 116.67C306.18 116.67 302.98 125.23 291.45 124.8V121.89Z" fill="#7A5554"/>
<path d="M284.22 90.2399C284.243 90.6679 284.431 91.0703 284.744 91.3629C285.057 91.6556 285.471 91.8157 285.9 91.8099C286.109 91.8139 286.317 91.7763 286.511 91.6993C286.706 91.6223 286.883 91.5075 287.033 91.3614C287.183 91.2154 287.302 91.041 287.384 90.8485C287.466 90.656 287.508 90.4491 287.51 90.2399C287.489 89.812 287.304 89.4085 286.993 89.1141C286.681 88.8196 286.268 88.6569 285.84 88.66C285.629 88.656 285.42 88.6938 285.224 88.7713C285.029 88.8488 284.85 88.9644 284.7 89.1114C284.549 89.2584 284.429 89.4338 284.346 89.6276C284.264 89.8213 284.221 90.0294 284.22 90.2399Z" fill="#263238"/>
<path d="M281.92 86.4299C282.13 86.6299 283.33 85.6499 285.1 85.5599C286.87 85.4699 288.2 86.2799 288.38 86.0599C288.56 85.8399 288.25 85.5799 287.66 85.1999C286.867 84.7095 285.94 84.4788 285.01 84.5399C284.088 84.5956 283.208 84.9462 282.5 85.5399C282 85.9399 281.81 86.3399 281.92 86.4299Z" fill="#263238"/>
<path d="M300.7 89.8499C300.715 90.2787 300.9 90.6841 301.212 90.978C301.525 91.2719 301.941 91.4307 302.37 91.4199C302.581 91.428 302.792 91.3933 302.989 91.3181C303.186 91.2428 303.367 91.1284 303.519 90.9818C303.671 90.8352 303.792 90.6594 303.875 90.4649C303.957 90.2704 304 90.0612 304 89.8499C303.982 89.4219 303.797 89.0181 303.485 88.7247C303.172 88.4313 302.758 88.2717 302.33 88.2799C302.118 88.2704 301.907 88.304 301.709 88.3788C301.511 88.4536 301.33 88.5679 301.178 88.7147C301.025 88.8616 300.904 89.038 300.822 89.2332C300.74 89.4283 300.698 89.6382 300.7 89.8499Z" fill="#263238"/>
<path d="M299.26 86.23C299.48 86.43 300.67 85.45 302.44 85.36C304.21 85.27 305.55 86.08 305.73 85.86C305.91 85.64 305.59 85.38 305 85C304.21 84.5087 303.288 84.2746 302.36 84.33C301.434 84.3857 300.551 84.7361 299.84 85.33C299.32 85.74 299.16 86.14 299.26 86.23Z" fill="#263238"/>
<path d="M293.64 100.14C292.695 99.8982 291.724 99.7739 290.75 99.7699C290.29 99.7699 289.86 99.6899 289.75 99.3799C289.689 98.9051 289.776 98.4231 290 97.9999L291.15 94.4899C292.75 89.4899 293.87 85.4099 293.67 85.3499C293.47 85.2899 292.02 89.2799 290.42 94.2699C290.04 95.4999 289.67 96.6699 289.33 97.7899C289.07 98.347 289.02 98.9791 289.19 99.5699C289.261 99.7262 289.367 99.8636 289.501 99.9713C289.635 100.079 289.792 100.154 289.96 100.19C290.215 100.25 290.478 100.274 290.74 100.26C291.707 100.342 292.682 100.301 293.64 100.14Z" fill="#263238"/>
<path d="M298.53 80.2799C298.73 80.7499 300.48 80.4299 302.53 80.5799C304.58 80.7299 306.33 81.1999 306.58 80.7599C306.69 80.5399 306.38 80.1099 305.68 79.6799C304.749 79.1516 303.711 78.8436 302.643 78.7794C301.575 78.7153 300.506 78.8968 299.52 79.3099C298.8 79.6599 298.44 80.0599 298.53 80.2799Z" fill="#263238"/>
<path d="M282.32 80.45C282.64 80.85 283.84 80.39 285.32 80.33C286.8 80.27 288.03 80.51 288.32 80.09C288.44 79.88 288.24 79.48 287.68 79.09C286.944 78.6447 286.088 78.4386 285.23 78.5C284.369 78.5467 283.542 78.8536 282.86 79.38C282.33 79.84 282.17 80.26 282.32 80.45Z" fill="#263238"/>
<path d="M318.39 91.7499C318.58 91.6499 326.16 88.9899 326.33 96.8699C326.5 104.75 318.56 103.28 318.54 103.06C318.52 102.84 318.39 91.7499 318.39 91.7499Z" fill="#A36E6A"/>
<path d="M320.88 100C320.88 100 321.02 100.1 321.26 100.2C321.581 100.327 321.939 100.327 322.26 100.2C323.09 99.88 323.76 98.54 323.77 97.12C323.78 96.4293 323.633 95.7454 323.34 95.12C323.257 94.882 323.118 94.6672 322.935 94.4933C322.753 94.3195 322.532 94.1915 322.29 94.12C322.131 94.0828 321.964 94.1025 321.818 94.1756C321.672 94.2486 321.556 94.3704 321.49 94.52C321.39 94.74 321.44 94.89 321.4 94.91C321.36 94.93 321.23 94.78 321.28 94.45C321.324 94.2555 321.429 94.0802 321.58 93.95C321.797 93.7849 322.069 93.7097 322.34 93.74C322.675 93.8 322.988 93.9484 323.246 94.1699C323.505 94.3915 323.699 94.678 323.81 95C324.162 95.6725 324.344 96.421 324.34 97.18C324.34 98.77 323.54 100.27 322.41 100.63C322.199 100.693 321.976 100.709 321.759 100.676C321.541 100.644 321.333 100.563 321.15 100.44C320.9 100.21 320.85 100 320.88 100Z" fill="#7A5554"/>
<path d="M284.14 68.6799C282.86 67.9999 286.63 63.8199 289.75 62.3599C294.46 60.1599 301.67 58.7499 306.05 59.9299C311.32 61.3599 315.72 63.9299 318.41 68.6699C321.013 73.507 322.28 78.9505 322.08 84.4399C322.157 86.1143 321.784 87.7788 321 89.2599C319.92 91.0199 317.83 92.1399 318 94.5399C318.033 94.9739 317.98 95.4101 317.845 95.8236C317.709 96.2371 317.493 96.6199 317.21 96.9499C315.79 98.4999 314.01 97.0899 313.21 95.6499C311.44 92.5899 311.21 88.9099 311.01 85.3799C310.736 82.8748 310.871 80.3418 311.41 77.8799C311.78 76.5599 312.41 75.3199 312.68 73.9799C312.871 73.3222 312.916 72.6307 312.812 71.9537C312.709 71.2767 312.459 70.6304 312.08 70.0599C311.883 69.827 311.666 69.6128 311.43 69.4199C310.312 68.4685 308.96 67.8348 307.514 67.585C306.068 67.3352 304.581 67.4785 303.21 67.9999C298.8 69.6199 291.21 72.0599 289.21 70.5699C286.34 68.4399 285.64 67.0399 285.64 67.0399L284.14 68.6799Z" fill="#263238"/>
<path d="M291.47 105.71C291.42 105.84 291.76 106.12 292.47 106.27C293.346 106.44 294.254 106.357 295.084 106.029C295.915 105.701 296.635 105.143 297.16 104.42C297.54 103.85 297.6 103.42 297.47 103.36C297.34 103.3 296.31 104.36 294.68 105.02C293.05 105.68 291.56 105.42 291.47 105.71Z" fill="#263238"/>
<path d="M342.8 183C342.8 183 351.61 211.14 354.52 213.08C357.43 215.02 366.81 223.92 386.06 221.17L392.69 220.85L394.47 208.39C394.47 208.39 386.47 206.77 384.12 206.13C381 205.27 372.58 201.88 367.17 196.52C367.17 196.52 362.27 173.45 361.17 171.35L343.34 176.77L342.8 183Z" fill="#A36E6A"/>
<path d="M383.38 212.05C383.38 212.05 386.01 206.49 390.28 204.75C394.55 203.01 400.11 203.48 402.17 202.29C404.23 201.1 410.01 199.92 410.56 201.9C411.11 203.88 407.47 205.21 403.75 206.44C400.03 207.67 398.52 208.23 398.84 209.82C399.16 211.41 403.75 214.57 405.1 214.97C406.45 215.37 410.6 215.91 410.62 217.81C410.64 219.71 409.37 219.48 407.23 219.48C405.023 219.337 402.828 219.047 400.66 218.61C400.66 218.61 399.55 218.87 400.11 219.49C400.67 220.11 403.2 222.41 401.69 224C401.201 224.468 400.612 224.819 399.967 225.025C399.323 225.231 398.64 225.288 397.97 225.19L394.97 224.63C394.97 224.63 393.3 227.56 391.97 226.37C390.64 225.18 391.57 226.66 391.57 226.66C391.57 226.66 390.07 229.3 388.48 229.15C386.89 229 381.15 225.72 381.15 225.72L377.71 221.38L383.38 212.05Z" fill="#A36E6A"/>
<path d="M397.46 222.67C397.4 222.67 397.01 222.2 396.2 221.48C395.716 221.061 395.31 220.56 395 220C394.804 219.643 394.691 219.246 394.67 218.84C394.639 218.372 394.781 217.909 395.07 217.54C395.359 217.213 395.735 216.974 396.154 216.85C396.573 216.726 397.019 216.723 397.44 216.84C398.087 217.013 398.674 217.359 399.14 217.84C399.578 218.246 399.919 218.745 400.14 219.3C400.07 219.36 399.66 218.81 398.88 218.1C398.438 217.701 397.906 217.416 397.33 217.27C396.999 217.186 396.653 217.194 396.327 217.292C396.001 217.391 395.708 217.577 395.48 217.83C395.293 218.113 395.19 218.444 395.181 218.783C395.172 219.122 395.258 219.457 395.43 219.75C395.711 220.29 396.076 220.783 396.51 221.21C397.21 222 397.54 222.64 397.46 222.67Z" fill="#7A5554"/>
<path d="M391.12 224.33C390.853 224.064 390.621 223.765 390.43 223.44C390.02 222.84 389.43 221.97 388.77 220.86C387.987 219.557 387.317 218.188 386.77 216.77C386.404 215.918 386.178 215.013 386.1 214.09C386.098 213.817 386.152 213.547 386.259 213.296C386.365 213.045 386.522 212.818 386.72 212.63C386.947 212.452 387.215 212.334 387.5 212.286C387.785 212.239 388.077 212.265 388.35 212.36C389.293 212.785 390.035 213.559 390.42 214.52L391.74 216.85L393.95 220.85C394.532 221.71 394.934 222.68 395.13 223.7C395.168 223.986 395.141 224.276 395.05 224.55C394.99 224.74 394.93 224.82 394.91 224.81C394.969 224.452 394.969 224.088 394.91 223.73C394.639 222.76 394.199 221.846 393.61 221.03L391.3 217.13L390 214.77C389.55 213.98 389.06 213.11 388.22 212.86C388.023 212.769 387.805 212.734 387.59 212.759C387.375 212.783 387.171 212.867 387 213C386.856 213.139 386.743 213.305 386.665 213.489C386.588 213.673 386.549 213.87 386.55 214.07C386.623 214.93 386.829 215.773 387.16 216.57C387.688 217.975 388.32 219.338 389.05 220.65C390.34 222.93 391.19 224.28 391.12 224.33Z" fill="#7A5554"/>
<path d="M386.21 226.65C385.987 226.368 385.796 226.063 385.64 225.74C385.3 225.14 384.83 224.26 384.26 223.17C383.69 222.08 383.01 220.79 382.26 219.33C381.832 218.54 381.605 217.658 381.6 216.76C381.616 216.254 381.787 215.766 382.09 215.36C382.251 215.13 382.476 214.951 382.737 214.844C382.997 214.738 383.283 214.709 383.56 214.76C384.068 214.912 384.506 215.238 384.8 215.68C385.08 216.06 385.33 216.42 385.58 216.79C386.09 217.52 386.58 218.23 387 218.92C387.89 220.29 388.65 221.54 389.28 222.6C389.91 223.66 390.41 224.52 390.74 225.12C390.937 225.433 391.095 225.769 391.21 226.12C390.958 225.861 390.74 225.572 390.56 225.26L389 222.79L386.63 219.18L385.19 217.08C384.67 216.4 384.19 215.46 383.48 215.27C383.299 215.238 383.112 215.26 382.943 215.332C382.774 215.405 382.63 215.526 382.53 215.68C382.287 216 382.15 216.388 382.14 216.79C382.148 217.602 382.35 218.401 382.73 219.12L384.61 223.01C385.14 224.12 385.61 225.01 385.84 225.65C386.003 225.967 386.127 226.303 386.21 226.65Z" fill="#7A5554"/>
<path d="M403.3 202.72C403.45 202.72 403.41 203.38 403.71 204.05C404.01 204.72 404.49 205.14 404.41 205.27C404.33 205.4 403.6 205.12 403.23 204.27C402.86 203.42 403.17 202.66 403.3 202.72Z" fill="#7A5554"/>
<path d="M366.18 196.88C366.18 196.96 365.48 197.05 364.47 197.53C363.17 198.172 362.04 199.11 361.17 200.27C360.311 201.453 359.612 202.744 359.09 204.11C358.906 204.7 358.654 205.267 358.34 205.8C358.374 205.176 358.509 204.561 358.74 203.98C359.179 202.545 359.855 201.193 360.74 199.98C361.654 198.75 362.889 197.795 364.31 197.22C364.887 196.928 365.537 196.81 366.18 196.88Z" fill="#7A5554"/>
<path d="M253.8 181.59L253.31 204.32C253.31 204.32 244.61 208.95 242.37 209.23C240.13 209.51 227.37 207.9 227.37 207.9L228.03 221.72C228.03 221.72 248.24 226.63 254.56 226.77C260.88 226.91 263.66 226.63 264.79 225.23C265.92 223.83 270.1 222.03 271.17 215.7C272.24 209.37 269.06 181.59 269.06 181.59H253.8Z" fill="#A36E6A"/>
<path d="M264.61 215C263.73 212.711 262.398 210.623 260.691 208.861C258.985 207.1 256.94 205.701 254.68 204.75C255.409 204.84 256.115 205.068 256.76 205.42C259.997 206.952 262.57 209.606 264 212.89C264.337 213.548 264.544 214.264 264.61 215Z" fill="#7A5554"/>
<path d="M229 209.23C229 209.23 226.37 203.67 222.1 201.93C217.83 200.19 212.27 200.66 210.21 199.47C208.15 198.28 202.37 197.1 201.82 199.08C201.27 201.06 204.91 202.39 208.63 203.62C212.35 204.85 213.86 205.41 213.54 207C213.22 208.59 208.63 211.75 207.28 212.15C205.93 212.55 201.79 213.09 201.76 215C201.73 216.91 203.01 216.66 205.15 216.66C207.357 216.517 209.552 216.227 211.72 215.79C211.72 215.79 212.83 216.05 212.27 216.67C211.71 217.29 209.19 219.59 210.69 221.18C211.179 221.648 211.768 221.998 212.413 222.204C213.057 222.41 213.74 222.467 214.41 222.37L217.41 221.81C217.41 221.81 219.08 224.74 220.41 223.55C221.74 222.36 220.81 223.84 220.81 223.84C220.81 223.84 222.31 226.49 223.9 226.33C225.49 226.17 231.23 222.9 231.23 222.9L234.67 218.56L229 209.23Z" fill="#A36E6A"/>
<path d="M214.89 219.85C214.81 219.85 215.14 219.19 215.89 218.4C216.324 217.973 216.688 217.48 216.97 216.94C217.144 216.648 217.231 216.313 217.222 215.973C217.213 215.633 217.109 215.303 216.92 215.02C216.692 214.767 216.399 214.581 216.073 214.482C215.747 214.384 215.4 214.376 215.07 214.46C214.491 214.606 213.958 214.894 213.52 215.3C212.74 216 212.33 216.55 212.26 216.49C212.48 215.935 212.822 215.436 213.26 215.03C213.725 214.549 214.313 214.203 214.96 214.03C215.381 213.913 215.826 213.916 216.245 214.04C216.664 214.164 217.04 214.403 217.33 214.73C217.618 215.1 217.76 215.562 217.73 216.03C217.708 216.437 217.595 216.833 217.4 217.19C217.078 217.765 216.654 218.276 216.15 218.7C215.34 219.38 215 219.88 214.89 219.85Z" fill="#7A5554"/>
<path d="M221.23 221.51C221.16 221.51 222.01 220.11 223.23 217.86C223.959 216.548 224.591 215.185 225.12 213.78C225.455 212.984 225.661 212.14 225.73 211.28C225.731 211.08 225.691 210.883 225.614 210.699C225.537 210.515 225.423 210.349 225.28 210.21C225.121 210.088 224.934 210.009 224.737 209.979C224.539 209.949 224.337 209.97 224.15 210.04C223.31 210.29 222.82 211.16 222.37 211.95L221.02 214.27L218.71 218.17C218.121 218.986 217.681 219.9 217.41 220.87C217.35 221.227 217.35 221.592 217.41 221.95C217.41 221.95 217.33 221.88 217.27 221.69C217.179 221.416 217.151 221.126 217.19 220.84C217.39 219.821 217.791 218.852 218.37 217.99L220.58 213.99L222 211.7C222.384 210.739 223.126 209.965 224.07 209.54C224.342 209.444 224.634 209.419 224.919 209.466C225.204 209.514 225.473 209.632 225.7 209.81C225.897 209.998 226.054 210.225 226.161 210.476C226.267 210.727 226.321 210.997 226.32 211.27C226.246 212.194 226.02 213.1 225.65 213.95C225.104 215.369 224.435 216.738 223.65 218.04C222.99 219.15 222.4 220.04 221.99 220.62C221.777 220.949 221.521 221.248 221.23 221.51Z" fill="#7A5554"/>
<path d="M226.14 223.83C226.229 223.482 226.36 223.146 226.53 222.83C226.81 222.2 227.23 221.3 227.76 220.19L229.65 216.3C230.026 215.581 230.225 214.782 230.23 213.97C230.219 213.568 230.083 213.18 229.84 212.86C229.736 212.697 229.584 212.57 229.405 212.497C229.226 212.423 229.028 212.407 228.84 212.45C228.11 212.64 227.65 213.58 227.13 214.26L225.69 216.36L223.37 220L221.78 222.44C221.599 222.752 221.381 223.041 221.13 223.3C221.245 222.949 221.403 222.613 221.6 222.3C221.94 221.7 222.43 220.84 223.06 219.78C223.69 218.72 224.45 217.47 225.34 216.1C225.78 215.42 226.25 214.7 226.76 213.97C227.01 213.6 227.26 213.24 227.54 212.86C227.833 212.418 228.272 212.092 228.78 211.94C229.057 211.891 229.341 211.922 229.601 212.028C229.862 212.134 230.086 212.312 230.25 212.54C230.552 212.946 230.723 213.434 230.74 213.94C230.734 214.838 230.507 215.72 230.08 216.51C229.35 217.97 228.66 219.26 228.08 220.35C227.5 221.44 227.08 222.35 226.7 222.92C226.547 223.243 226.359 223.548 226.14 223.83Z" fill="#7A5554"/>
<path d="M209.05 199.9C209.18 199.84 209.49 200.59 209.12 201.44C208.75 202.29 207.98 202.58 207.94 202.44C207.9 202.3 208.35 201.91 208.64 201.23C208.93 200.55 208.9 199.93 209.05 199.9Z" fill="#7A5554"/>
<path d="M231.93 221.66C232.377 221.087 232.759 220.467 233.07 219.81C233.35 219.086 233.492 218.316 233.49 217.54C233.474 216.588 233.277 215.648 232.91 214.77C232.186 213.166 231.191 211.697 229.97 210.43C229.436 209.915 228.954 209.349 228.53 208.74C229.163 209.14 229.738 209.624 230.24 210.18C231.58 211.415 232.652 212.913 233.39 214.58C233.789 215.529 233.986 216.551 233.97 217.58C233.954 218.415 233.759 219.236 233.4 219.99C233.116 220.699 232.597 221.288 231.93 221.66Z" fill="#7A5554"/>
<path d="M365.47 170C365.47 170 353.9 136.5 349.57 134.82C349.57 134.82 330.63 130.58 321.23 127.56C321.23 127.56 314.79 134.27 302.54 134.09C290.54 133.91 288.07 131.21 288.07 131.21L271.33 137.63C271.33 137.63 259.43 141.9 257.33 147.16C255.23 152.42 251.68 181.56 251.68 181.56H269.03L268.71 233.28L265.46 259.28C266.66 259.49 344.4 258.46 344.4 258.46L344.08 190.75L344.4 176.41L365.47 170Z" fill="#F8FEB7"/>
<path d="M260.33 154.87C260.396 155.019 260.44 155.178 260.46 155.34C260.55 155.7 260.65 156.16 260.78 156.74C261.212 158.477 261.746 160.186 262.38 161.86C263.18 164.01 264.31 166.54 265.69 169.38C267.07 172.22 268.18 175.6 269.41 179.21C269.41 183.53 269.35 188.26 269.32 193.21C269.2 204.21 269.1 214.21 269.02 221.52C268.96 225.1 268.91 228.02 268.87 230.1C268.87 231.1 268.87 231.85 268.8 232.43C268.798 232.701 268.781 232.971 268.75 233.24C268.722 232.971 268.722 232.699 268.75 232.43C268.75 231.84 268.75 231.07 268.75 230.09C268.75 228.01 268.75 225.09 268.75 221.51C268.75 214.22 268.84 204.24 268.9 193.21C268.95 188.27 268.99 183.54 269.03 179.21V179.29C267.82 175.69 266.66 172.29 265.39 169.47C264.12 166.65 262.94 164.06 262.18 161.88C261.567 160.187 261.076 158.453 260.71 156.69C260.59 156.08 260.5 155.6 260.46 155.28C260.408 155.146 260.365 155.009 260.33 154.87Z" fill="#263238"/>
<path d="M345.85 146.42C345.893 146.932 345.893 147.448 345.85 147.96C345.85 149.05 345.76 150.46 345.7 152.15C345.55 155.78 345.36 160.62 345.15 165.97C344.94 171.32 344.69 176.16 344.53 179.79C344.43 181.49 344.35 182.89 344.28 183.98C344.273 184.493 344.223 185.005 344.13 185.51C344.067 184.999 344.05 184.484 344.08 183.97C344.08 182.89 344.13 181.48 344.16 179.78C344.25 176.24 344.41 171.35 344.63 165.95C344.85 160.55 345.1 155.67 345.33 152.13C345.44 150.37 345.55 148.94 345.65 147.95C345.664 147.434 345.731 146.922 345.85 146.42Z" fill="#263238"/>
<g opacity="0.3">
<path d="M260.82 157.49C260.517 165.417 263.348 173.144 268.7 179C267.07 171.54 263 164.61 260.82 157.49Z" fill="black"/>
</g>
<path d="M271.67 156.82C271.861 155.526 272.228 154.265 272.76 153.07C273.129 151.813 273.66 150.61 274.34 149.49C274.148 150.787 273.781 152.052 273.25 153.25C272.879 154.503 272.348 155.703 271.67 156.82Z" fill="white"/>
<path d="M290.28 145.26C288.928 144.464 287.67 143.518 286.53 142.44C285.278 141.495 284.134 140.416 283.12 139.22C284.47 140.019 285.727 140.965 286.87 142.04C288.119 142.988 289.262 144.067 290.28 145.26Z" fill="white"/>
<path d="M295.07 157.61C293.677 158.304 292.181 158.77 290.64 158.99C289.132 159.375 287.572 159.514 286.02 159.4C287.505 158.994 289.015 158.684 290.54 158.47C292.032 158.094 293.544 157.807 295.07 157.61Z" fill="white"/>
<path d="M277.39 183.23C277.239 182.109 277.266 180.972 277.47 179.86C277.509 178.733 277.715 177.617 278.08 176.55C278.192 178.799 277.959 181.051 277.39 183.23Z" fill="white"/>
<path d="M318 160C317.036 160.564 315.99 160.972 314.9 161.21C313.855 161.609 312.756 161.845 311.64 161.91C313.649 160.952 315.794 160.308 318 160Z" fill="white"/>
<path d="M312.41 143.63C312.898 141.236 314.057 139.031 315.75 137.27C315.276 138.37 314.722 139.433 314.09 140.45C313.615 141.553 313.054 142.616 312.41 143.63Z" fill="white"/>
<path d="M334.36 145.7C333.442 144.508 332.726 143.174 332.24 141.75C331.604 140.385 331.192 138.926 331.02 137.43C331.68 138.763 332.248 140.139 332.72 141.55C333.358 142.895 333.906 144.282 334.36 145.7Z" fill="white"/>
<path d="M334.84 172.89C334.875 171.641 335.175 170.414 335.72 169.29C336.096 168.099 336.716 166.999 337.54 166.06C337.177 167.231 336.73 168.374 336.2 169.48C335.826 170.647 335.371 171.786 334.84 172.89Z" fill="white"/>
<path d="M329.41 196.92C328.462 195.963 327.642 194.887 326.97 193.72C326.153 192.653 325.481 191.483 324.97 190.24C325.916 191.195 326.736 192.267 327.41 193.43C328.221 194.504 328.893 195.677 329.41 196.92Z" fill="white"/>
<path d="M355.68 162.88C354.971 163.566 354.144 164.118 353.24 164.51C352.42 165.054 351.514 165.453 350.56 165.69C351.265 165.005 352.088 164.453 352.99 164.06C353.811 163.513 354.721 163.114 355.68 162.88Z" fill="white"/>
<path d="M352.58 151.89C352.077 150.605 351.741 149.26 351.58 147.89C351.236 146.551 351.065 145.173 351.07 143.79C351.562 145.079 351.898 146.421 352.07 147.79C352.408 149.13 352.579 150.507 352.58 151.89Z" fill="white"/>
<path d="M260.06 177.68C259.384 176.479 258.86 175.2 258.5 173.87C257.983 172.585 257.627 171.242 257.44 169.87C258.124 171.063 258.649 172.34 259 173.67C259.519 174.957 259.875 176.304 260.06 177.68Z" fill="white"/>
<path d="M258.14 150.62C258.146 152.319 257.982 154.014 257.65 155.68C257.486 157.376 257.151 159.051 256.65 160.68C256.643 158.981 256.808 157.286 257.14 155.62C257.303 153.924 257.638 152.248 258.14 150.62Z" fill="white"/>
<path d="M290.63 208.68C287.826 207.361 285.332 205.467 283.31 203.12C284.594 203.956 285.823 204.875 286.99 205.87C288.261 206.728 289.477 207.667 290.63 208.68Z" fill="white"/>
<path d="M279.42 245.69C279.969 244.029 280.682 242.428 281.55 240.91C282.263 239.316 283.13 237.795 284.14 236.37C283.591 238.03 282.878 239.632 282.01 241.15C281.297 242.744 280.429 244.265 279.42 245.69Z" fill="white"/>
<path d="M306.86 246.16C305.063 245.497 303.378 244.567 301.86 243.4C300.235 242.372 298.784 241.092 297.56 239.61C297.66 239.5 299.56 241.18 302.16 242.97C304.76 244.76 306.93 246 306.86 246.16Z" fill="white"/>
<path d="M333.25 240C331.346 242.727 328.769 244.914 325.77 246.35C325.69 246.22 327.53 245.02 329.59 243.27C331.65 241.52 333.14 239.91 333.25 240Z" fill="white"/>
<path d="M323.52 226.8C323.53 226.081 323.641 225.368 323.85 224.68C324.13 223.39 324.59 221.63 325.21 219.68C325.83 217.73 326.5 216.06 327.03 214.85C327.276 214.171 327.612 213.529 328.03 212.94C328.17 213 326.96 216.03 325.73 219.84C324.5 223.65 323.67 226.83 323.52 226.8Z" fill="white"/>
<path d="M312.47 218.82C311.201 217.43 310.063 215.927 309.07 214.33C307.924 212.833 306.92 211.233 306.07 209.55C308.474 212.438 310.606 215.541 312.44 218.82H312.47Z" fill="white"/>
<g opacity="0.3">
<path d="M296.07 228.91C299.82 228.59 303.2 226.37 305.7 223.55C308.235 220.712 310.405 217.567 312.16 214.19C314.432 209.599 315.726 204.587 315.96 199.47C311.28 212 304.43 221.91 296.07 228.91Z" fill="black"/>
</g>
<path d="M317.43 194C317.437 194.156 317.417 194.311 317.37 194.46C317.29 194.82 317.19 195.25 317.08 195.77C316.97 196.29 316.78 197.02 316.54 197.77C316.3 198.52 316.05 199.46 315.69 200.44C314.9 202.735 313.978 204.982 312.93 207.17C311.62 209.846 310.143 212.438 308.51 214.93C306.852 217.402 305.035 219.764 303.07 222C301.454 223.818 299.727 225.535 297.9 227.14C297.13 227.84 296.38 228.41 295.74 228.92C295.1 229.43 294.53 229.86 294.05 230.19L293 231C292.872 231.091 292.734 231.168 292.59 231.23C292.59 231.23 292.7 231.11 292.93 230.91L293.98 230.08C294.44 229.74 294.98 229.3 295.61 228.76C296.24 228.22 296.96 227.64 297.7 226.92C299.482 225.292 301.171 223.566 302.76 221.75C304.683 219.522 306.476 217.185 308.13 214.75C309.752 212.28 311.224 209.716 312.54 207.07C313.613 204.907 314.568 202.687 315.4 200.42C315.78 199.42 316.05 198.57 316.31 197.79C316.57 197.01 316.78 196.34 316.93 195.79C317.08 195.24 317.21 194.87 317.31 194.52C317.333 194.343 317.373 194.169 317.43 194Z" fill="#263238"/>
<path d="M315.11 171.42C315.107 171.669 315.077 171.917 315.02 172.16C314.93 172.69 314.81 173.38 314.65 174.25C314.49 175.12 314.28 176.25 313.96 177.55C313.64 178.85 313.33 180.29 312.84 181.86C312.6 182.66 312.36 183.49 312.1 184.35C311.84 185.21 311.51 186.1 311.19 187.02C310.59 188.87 309.78 190.78 308.96 192.81C307.077 197.163 304.905 201.386 302.46 205.45C299.956 209.483 297.183 213.341 294.16 217C292.72 218.65 291.38 220.25 290.01 221.63C289.33 222.32 288.7 223.02 288.01 223.63L286.13 225.41C284.95 226.57 283.79 227.51 282.8 228.41C281.81 229.31 280.92 229.98 280.18 230.53C279.44 231.08 278.91 231.53 278.48 231.81C278.292 231.971 278.087 232.112 277.87 232.23C278.041 232.051 278.225 231.884 278.42 231.73L280.05 230.38C280.77 229.8 281.64 229.08 282.61 228.19C283.58 227.3 284.72 226.36 285.88 225.19L287.73 223.38C288.37 222.75 288.99 222.05 289.66 221.38C291.01 219.99 292.33 218.38 293.75 216.75C299.774 209.46 304.733 201.353 308.48 192.67C309.31 190.67 310.13 188.76 310.75 186.92C311.07 186.01 311.41 185.14 311.68 184.28C311.95 183.42 312.2 182.6 312.44 181.81C312.96 180.25 313.29 178.81 313.63 177.53C313.97 176.25 314.23 175.17 314.41 174.26C314.59 173.35 314.76 172.71 314.88 172.19C314.939 171.928 315.016 171.671 315.11 171.42Z" fill="#263238"/>
<path d="M164.151 167.96C188.938 167.96 209.031 147.866 209.031 123.08C209.031 98.2934 188.938 78.2 164.151 78.2C139.365 78.2 119.271 98.2934 119.271 123.08C119.271 147.866 139.365 167.96 164.151 167.96Z" fill="#FAFAFA"/>
<path d="M209.032 123.08C209.032 123.08 209.032 122.83 208.972 122.35C208.912 121.87 208.902 121.15 208.842 120.22C208.842 119.75 208.782 119.22 208.752 118.65C208.722 118.08 208.562 117.45 208.462 116.78C208.362 116.11 208.242 115.37 208.122 114.59C208.002 113.81 207.732 113.01 207.532 112.14C206.472 107.942 204.786 103.927 202.532 100.23C199.589 95.3142 195.729 91.0095 191.162 87.55L189.222 86.11C188.542 85.66 187.832 85.26 187.122 84.82C186.412 84.38 185.722 83.91 184.942 83.56L182.622 82.45L181.482 81.88L180.242 81.43L177.732 80.51C176.882 80.23 175.982 80.05 175.102 79.81C174.216 79.5468 173.314 79.3397 172.402 79.19C170.535 78.8457 168.647 78.6285 166.752 78.54C165.752 78.54 164.822 78.41 163.842 78.43L160.842 78.58C160.352 78.58 159.842 78.58 159.352 78.68L157.862 78.91C156.862 79.07 155.862 79.19 154.862 79.39C152.843 79.8445 150.855 80.429 148.912 81.14L147.432 81.68C146.93 81.8529 146.442 82.0635 145.972 82.31L143.082 83.7C142.142 84.21 141.242 84.81 140.312 85.36C139.852 85.65 139.312 85.9 138.932 86.23L137.612 87.23C135.833 88.5557 134.143 89.9954 132.552 91.54L130.322 94.03L129.752 94.65L129.242 95.33L128.242 96.7L127.242 98.07L126.342 99.54L125.442 101.02L124.992 101.76L124.612 102.54C124.112 103.59 123.612 104.63 123.102 105.69C122.592 106.75 122.292 107.89 121.892 108.99C118.819 118.125 118.819 128.015 121.892 137.15C122.302 138.26 122.702 139.36 123.102 140.46C123.502 141.56 124.102 142.56 124.622 143.61L125.002 144.39L125.452 145.13L126.352 146.61L127.252 148.08L128.252 149.45L129.252 150.82L129.772 151.5L130.342 152.13L132.612 154.63C134.203 156.171 135.894 157.608 137.672 158.93L138.982 159.93C139.422 160.26 139.912 160.51 140.362 160.81C141.302 161.36 142.202 161.96 143.142 162.47L146.012 163.88C146.967 164.33 147.949 164.721 148.952 165.05C150.894 165.762 152.882 166.344 154.902 166.79C155.902 167 156.902 167.12 157.902 167.28L159.392 167.51C159.892 167.57 160.392 167.57 160.882 167.61L163.882 167.76C164.882 167.76 165.882 167.68 166.792 167.65C168.687 167.554 170.575 167.333 172.442 166.99C173.354 166.844 174.255 166.64 175.142 166.38C176.032 166.14 176.922 165.96 177.772 165.67L180.292 164.76L181.532 164.31L182.712 163.75L185.032 162.63C185.802 162.28 186.482 161.78 187.212 161.37C187.942 160.96 188.632 160.53 189.312 160.08L191.242 158.64C195.807 155.158 199.654 150.825 202.572 145.88C204.829 142.185 206.515 138.169 207.572 133.97C207.772 133.1 208.062 132.31 208.162 131.52C208.262 130.73 208.402 130.02 208.502 129.34C208.602 128.66 208.732 128.04 208.792 127.46C208.852 126.88 208.852 126.36 208.882 125.89C208.942 124.97 208.982 124.26 209.012 123.76C209.042 123.26 209.072 123.04 209.072 123.04C209.072 123.04 209.072 123.28 209.072 123.77C209.072 124.26 209.072 124.97 208.992 125.9C208.992 126.37 208.992 126.9 208.932 127.48C208.872 128.06 208.762 128.68 208.672 129.36C208.582 130.04 208.462 130.77 208.342 131.56C208.199 132.389 208.012 133.211 207.782 134.02C206.767 138.247 205.112 142.294 202.872 146.02C199.924 151.008 196.036 155.376 191.422 158.88C190.782 159.36 190.132 159.88 189.482 160.34C188.832 160.8 188.082 161.2 187.362 161.64C186.642 162.08 185.952 162.56 185.172 162.92L182.832 164.05L181.642 164.62L180.402 165.08L177.862 166.01C177.002 166.3 176.102 166.49 175.212 166.73C174.315 166.995 173.404 167.206 172.482 167.36C170.599 167.711 168.694 167.935 166.782 168.03C165.782 168.03 164.782 168.16 163.842 168.15L160.842 168C160.342 168 159.842 168 159.332 167.91L157.832 167.68C156.832 167.51 155.832 167.4 154.832 167.19C152.797 166.734 150.793 166.149 148.832 165.44C147.81 165.105 146.808 164.711 145.832 164.26L142.892 162.88C141.892 162.36 141.022 161.76 140.082 161.2C139.622 160.91 139.082 160.66 138.682 160.32L137.352 159.32C135.551 157.984 133.841 156.531 132.232 154.97L129.932 152.45L129.352 151.81L128.842 151.13L127.842 149.74L126.842 148.36L125.852 146.88L124.942 145.39L124.492 144.64L124.102 143.85L122.572 140.66L121.322 137.32C118.226 128.093 118.226 118.107 121.322 108.88L122.552 105.54C123.062 104.47 123.552 103.41 124.082 102.35L124.472 101.56L124.932 100.81L125.842 99.32L126.752 97.84L127.752 96.45L128.752 95.07L129.272 94.38L129.852 93.75C130.612 92.9 131.382 92.06 132.142 91.22C133.766 89.6375 135.497 88.1675 137.322 86.82L138.652 85.82C139.092 85.49 139.582 85.24 140.042 84.94C141.042 84.38 141.902 83.78 142.852 83.27L145.812 81.88C146.288 81.6343 146.783 81.427 147.292 81.26L148.782 80.71C150.741 79.9931 152.745 79.4052 154.782 78.95C155.782 78.75 156.782 78.63 157.782 78.47L159.282 78.24C159.782 78.17 160.282 78.18 160.792 78.14L163.792 78C164.792 78 165.792 78.08 166.722 78.12C168.638 78.2095 170.546 78.4333 172.432 78.79C173.349 78.9446 174.258 79.1516 175.152 79.41C176.052 79.66 176.952 79.85 177.812 80.13L180.342 81.07L181.592 81.52L182.782 82.09L185.122 83.22C185.902 83.58 186.592 84.08 187.312 84.5C188.032 84.92 188.742 85.36 189.432 85.81L191.372 87.27C195.962 90.7694 199.833 95.1225 202.772 100.09C205.012 103.816 206.667 107.863 207.682 112.09C207.911 112.903 208.098 113.728 208.242 114.56C208.362 115.34 208.472 116.07 208.572 116.76C208.672 117.45 208.772 118.06 208.832 118.64C208.892 119.22 208.832 119.74 208.892 120.21C208.892 121.14 208.952 121.85 208.972 122.35C208.992 122.85 209.032 123.08 209.032 123.08Z" fill="#263238"/>
<path d="M166.791 121.2C168.127 120.609 169.26 119.639 170.05 118.411C170.841 117.183 171.255 115.751 171.241 114.29C171.245 113.371 171.068 112.46 170.72 111.609C170.372 110.758 169.86 109.984 169.212 109.332C168.565 108.679 167.796 108.16 166.948 107.804C166.1 107.449 165.191 107.264 164.271 107.26C163.352 107.256 162.441 107.433 161.59 107.781C160.74 108.13 159.966 108.642 159.313 109.289C158.66 109.936 158.141 110.706 157.786 111.554C157.43 112.401 157.245 113.311 157.241 114.23C157.207 115.708 157.612 117.162 158.406 118.409C159.2 119.655 160.347 120.637 161.701 121.23C150.931 122.85 151.421 134.56 151.421 134.56L176.891 134.67C176.891 134.67 177.471 122.81 166.791 121.2Z" fill="#5EB2FF"/>
<path d="M166.792 121.2L168.092 121.43C168.302 121.43 168.522 121.5 168.772 121.58L169.582 121.87C169.899 121.979 170.209 122.106 170.512 122.25L171.512 122.81C173.176 123.883 174.522 125.381 175.412 127.15C176.545 129.486 177.12 132.054 177.092 134.65V134.88H176.892L151.422 134.78H151.162V134.54C151.14 132.033 151.687 129.555 152.762 127.29C153.591 125.517 154.874 123.996 156.482 122.88C158.05 121.86 159.815 121.179 161.662 120.88L161.602 121.36C160.265 120.801 159.123 119.858 158.322 118.65C157.546 117.454 157.105 116.074 157.042 114.65C156.975 113.343 157.234 112.04 157.796 110.858C158.358 109.676 159.206 108.653 160.262 107.88C161.227 107.198 162.353 106.778 163.528 106.661C164.704 106.543 165.891 106.733 166.972 107.21C167.89 107.628 168.713 108.229 169.392 108.975C170.071 109.721 170.591 110.597 170.922 111.55C171.472 113.105 171.528 114.792 171.082 116.38C170.758 117.551 170.154 118.625 169.322 119.51C168.797 120.062 168.186 120.525 167.512 120.88C167.28 121.002 167.04 121.106 166.792 121.19L167.472 120.8C168.116 120.42 168.697 119.941 169.192 119.38C169.979 118.488 170.545 117.422 170.842 116.27C171.239 114.736 171.159 113.117 170.612 111.63C170.289 110.725 169.785 109.895 169.132 109.19C168.479 108.486 167.69 107.921 166.812 107.53C165.823 107.105 164.744 106.933 163.672 107.03C162.535 107.14 161.446 107.543 160.512 108.2C159.516 108.942 158.72 109.92 158.196 111.046C157.672 112.172 157.437 113.41 157.512 114.65C157.569 115.998 158.003 117.303 158.765 118.417C159.527 119.531 160.586 120.408 161.822 120.95L162.622 121.28L161.762 121.44C159.981 121.714 158.278 122.358 156.762 123.33C155.236 124.389 154.015 125.831 153.222 127.51C152.186 129.698 151.653 132.09 151.662 134.51L151.412 134.26L176.882 134.43L176.682 134.62C176.735 132.085 176.197 129.572 175.112 127.28C174.266 125.548 172.98 124.069 171.382 122.99L170.382 122.42C170.092 122.265 169.791 122.132 169.482 122.02L168.692 121.71C168.442 121.62 168.192 121.58 167.982 121.52L167.042 121.27L166.792 121.2Z" fill="#5EB2FF"/>
<path d="M188.542 143C188.542 143.14 177.952 143.26 164.882 143.26C151.812 143.26 141.222 143.14 141.222 143C141.222 142.86 151.812 142.74 164.882 142.74C177.952 142.74 188.542 142.88 188.542 143Z" fill="#263238"/>
<path d="M175.432 147.88C175.432 148.02 170.712 148.14 164.882 148.14C159.052 148.14 154.322 148.01 154.322 147.88C154.322 147.75 159.042 147.62 164.872 147.62C170.702 147.62 175.432 147.73 175.432 147.88Z" fill="#263238"/>
<path d="M230.882 127.88C230.882 128.02 226.142 128.14 220.282 128.14C214.422 128.14 209.682 128.02 209.682 127.88C213.208 127.617 216.746 127.53 220.282 127.62C223.817 127.529 227.355 127.616 230.882 127.88Z" fill="#263238"/>
<path d="M166.52 355.781C143.611 355.781 125.04 336.99 125.04 313.811C125.04 290.632 143.611 271.841 166.52 271.841C189.429 271.841 208 290.632 208 313.811C208 336.99 189.429 355.781 166.52 355.781Z" fill="#FAFAFA"/>
<path d="M125.04 313.811C125.04 313.811 125.04 313.581 125.1 313.141C125.16 312.701 125.17 312.021 125.22 311.141C125.22 310.701 125.28 310.211 125.31 309.681C125.34 309.151 125.48 308.571 125.57 307.931C125.742 306.476 126.02 305.036 126.4 303.621C126.62 302.821 126.8 301.961 127.08 301.091C127.36 300.221 127.73 299.321 128.08 298.381C128.445 297.398 128.873 296.439 129.36 295.511L130.08 294.001C130.35 293.501 130.67 293.001 130.96 292.511C133.651 287.933 137.195 283.914 141.4 280.671L143.19 279.321C143.81 278.881 144.48 278.511 145.13 278.101C145.78 277.691 146.44 277.261 147.13 276.911L149.28 275.911L150.37 275.381L151.52 274.951L153.85 274.091C154.64 273.811 155.47 273.651 156.29 273.421L157.54 273.101L158.16 272.941L158.8 272.841C160.534 272.52 162.288 272.316 164.05 272.231C164.94 272.231 165.85 272.111 166.75 272.121L169.5 272.261C169.96 272.261 170.43 272.261 170.89 272.361L172.27 272.571C173.19 272.731 174.13 272.831 175.06 273.041C176.936 273.459 178.78 274.007 180.58 274.681C182.431 275.364 184.235 276.169 185.98 277.091C189.534 279.1 192.803 281.575 195.7 284.451L197.8 286.781C198.161 287.168 198.495 287.579 198.8 288.011L199.74 289.291L200.69 290.571L201.51 291.941L202.33 293.321L202.75 294.011L203.09 294.741L204.53 297.621L205.64 300.691C208.447 309.199 208.447 318.383 205.64 326.891C205.26 327.891 204.89 328.891 204.52 329.961C204.15 331.031 203.6 331.961 203.13 332.901L202.79 333.631C202.66 333.861 202.51 334.091 202.38 334.321L201.55 335.701L200.73 337.071L199.79 338.361L198.84 339.631C198.544 340.07 198.209 340.481 197.84 340.861L195.75 343.201C194.285 344.638 192.725 345.974 191.08 347.201C186.324 350.755 180.872 353.267 175.08 354.571C174.15 354.781 173.21 354.881 172.29 355.031L170.91 355.251C170.45 355.321 169.98 355.311 169.52 355.341L166.77 355.491C165.86 355.491 164.96 355.411 164.07 355.381C162.308 355.298 160.553 355.09 158.82 354.761L158.18 354.671L157.55 354.511L156.31 354.181C155.49 353.961 154.66 353.791 153.87 353.521L151.54 352.661L150.39 352.231L149.29 351.701L147.14 350.651C146.43 350.311 145.79 349.851 145.14 349.461C144.49 349.071 143.81 348.681 143.2 348.251L141.41 346.901C137.193 343.646 133.639 339.614 130.94 335.021C130.64 334.511 130.32 334.021 130.06 333.531L129.34 332.031C128.853 331.103 128.425 330.144 128.06 329.161C127.72 328.161 127.38 327.311 127.06 326.451C126.74 325.591 126.6 324.721 126.38 323.921C125.993 322.507 125.709 321.066 125.53 319.611C125.43 318.981 125.32 318.401 125.27 317.871C125.22 317.341 125.21 316.871 125.18 316.411C125.133 315.551 125.093 314.884 125.06 314.411C125.06 313.961 125 313.731 125 313.731C125 313.731 125 313.961 125 314.411C125 314.861 125.05 315.541 125.08 316.411C125.08 316.841 125.08 317.331 125.14 317.871C125.2 318.411 125.29 318.991 125.37 319.621C125.539 321.085 125.809 322.535 126.18 323.961C126.39 324.761 126.57 325.621 126.84 326.501L127.84 329.241C128.201 330.234 128.626 331.202 129.11 332.141L129.82 333.651C130.08 334.161 130.4 334.651 130.7 335.161C133.393 339.798 136.954 343.873 141.19 347.161L142.99 348.531C143.61 348.971 144.29 349.341 144.99 349.761C145.69 350.181 146.3 350.621 146.99 350.971C147.68 351.321 148.42 351.681 149.16 352.031L150.26 352.571L151.42 353.011L153.77 353.881C154.57 354.171 155.41 354.331 156.23 354.571L157.49 354.891L158.12 355.061L158.77 355.161C160.52 355.493 162.291 355.707 164.07 355.801C164.98 355.801 165.89 355.921 166.81 355.911L169.58 355.771C170.05 355.771 170.52 355.771 170.98 355.681L172.38 355.461C173.32 355.311 174.27 355.201 175.21 355.001C177.109 354.576 178.977 354.022 180.8 353.341C182.677 352.658 184.505 351.846 186.27 350.911C188.053 349.932 189.767 348.833 191.4 347.621C193.069 346.368 194.649 345.001 196.13 343.531L198.25 341.171C198.613 340.783 198.948 340.368 199.25 339.931L200.25 338.641L201.2 337.341L202.04 335.951L202.88 334.551C203.01 334.321 203.16 334.091 203.29 333.851L203.64 333.111L205.05 330.111C205.43 329.111 205.8 328.041 206.18 327.001C209.02 318.389 209.02 309.093 206.18 300.481C205.8 299.481 205.42 298.401 205.05 297.371L203.64 294.371L203.29 293.631L202.87 292.931L202.04 291.531L201.2 290.151L200.25 288.851L199.25 287.561C198.95 287.122 198.616 286.707 198.25 286.321L196.12 283.951C191.834 279.541 186.598 276.169 180.81 274.091C178.985 273.418 177.118 272.867 175.22 272.441C174.28 272.231 173.33 272.131 172.4 271.971L171 271.761C170.53 271.691 170.06 271.701 169.59 271.671L166.82 271.531C165.9 271.531 164.99 271.611 164.08 271.641C162.301 271.737 160.531 271.95 158.78 272.281L158.13 272.381L157.5 272.541L156.25 272.871C155.42 273.101 154.58 273.271 153.78 273.551L151.43 274.431L150.27 274.861L149.17 275.401L147 276.461C146.29 276.821 145.64 277.281 145 277.671C144.36 278.061 143.67 278.471 143.05 278.911C142.43 279.351 141.84 279.821 141.25 280.281C137.009 283.567 133.444 287.642 130.75 292.281C130.46 292.791 130.14 293.281 129.87 293.781L129.16 295.301C128.676 296.24 128.251 297.208 127.89 298.201C127.55 299.151 127.23 300.061 126.89 300.931C126.55 301.801 126.44 302.671 126.23 303.481C125.86 304.904 125.59 306.351 125.42 307.811C125.34 308.451 125.23 309.031 125.19 309.571L125.13 311.031C125.13 311.891 125.07 312.551 125.05 313.031C125.03 313.511 125.04 313.811 125.04 313.811Z" fill="#263238"/>
<path d="M169.2 297.221C173.81 293.401 177.82 295.761 179.7 299.081C180.51 300.531 180.53 302.141 178.7 303.691C174.97 306.891 167.14 313.301 163.7 316.071C162.737 316.857 161.625 317.44 160.43 317.783C159.236 318.127 157.984 318.225 156.75 318.071C154.825 317.853 153.059 316.9 151.82 315.411C149.65 312.811 151.65 310.531 153.82 309.041C154.681 308.459 155.71 308.177 156.748 308.239C157.785 308.3 158.774 308.702 159.56 309.381C160.03 309.788 160.626 310.018 161.247 310.03C161.868 310.043 162.474 309.838 162.96 309.451L168.96 304.451C169.18 304.282 169.36 304.066 169.488 303.82C169.616 303.573 169.688 303.301 169.699 303.024C169.711 302.747 169.661 302.47 169.554 302.214C169.447 301.958 169.285 301.728 169.08 301.541C168.782 301.269 168.545 300.935 168.387 300.563C168.229 300.191 168.152 299.79 168.163 299.386C168.173 298.982 168.27 298.585 168.448 298.222C168.625 297.859 168.878 297.538 169.19 297.281L169.2 297.221Z" fill="#5EB2FF"/>
<path d="M169.2 297.221C168.964 297.385 168.761 297.592 168.6 297.831C168.357 298.175 168.194 298.569 168.123 298.984C168.052 299.4 168.075 299.826 168.19 300.231C168.389 300.809 168.734 301.325 169.19 301.731C169.401 301.981 169.537 302.284 169.585 302.608C169.633 302.931 169.59 303.261 169.46 303.561C169.304 303.897 169.062 304.186 168.76 304.401L167.76 305.191L165.68 306.921L163.4 308.821C163.043 309.177 162.623 309.462 162.16 309.661C161.673 309.801 161.157 309.801 160.67 309.661C160.423 309.584 160.187 309.473 159.97 309.331C159.78 309.191 159.56 308.961 159.3 308.791C158.795 308.441 158.229 308.19 157.63 308.051C156.366 307.764 155.039 307.979 153.93 308.651C152.787 309.332 151.829 310.283 151.14 311.421C150.785 312.049 150.638 312.774 150.72 313.491C150.846 314.207 151.16 314.876 151.63 315.431C152.533 316.556 153.736 317.403 155.1 317.871C156.504 318.337 158 318.457 159.46 318.221C160.905 317.989 162.275 317.42 163.46 316.561C164.6 315.681 165.63 314.781 166.69 313.911C168.79 312.171 170.82 310.491 172.74 308.911L178.21 304.361C179.148 303.742 179.865 302.843 180.26 301.791C180.392 301.282 180.413 300.75 180.319 300.232C180.226 299.714 180.022 299.222 179.72 298.791C178.855 297.258 177.483 296.074 175.84 295.441C174.59 294.991 173.221 294.991 171.97 295.441C171.198 295.723 170.473 296.121 169.82 296.621C169.591 296.788 169.373 296.972 169.17 297.171C169.421 297.037 169.659 296.88 169.88 296.701C170.55 296.25 171.276 295.891 172.04 295.631C173.243 295.227 174.548 295.245 175.74 295.681C177.299 296.319 178.591 297.474 179.4 298.951C179.669 299.336 179.852 299.776 179.934 300.238C180.017 300.701 179.999 301.176 179.88 301.631C179.493 302.602 178.811 303.428 177.93 303.991L172.44 308.511C170.5 310.101 168.44 311.771 166.37 313.511C165.32 314.371 164.25 315.291 163.16 316.131C162.028 316.945 160.719 317.48 159.34 317.691C157.968 317.922 156.56 317.812 155.24 317.371C153.966 316.938 152.842 316.151 152 315.101C151.584 314.62 151.304 314.037 151.19 313.411C151.123 312.801 151.249 312.186 151.55 311.651C152.194 310.584 153.086 309.689 154.15 309.041C155.156 308.438 156.354 308.242 157.5 308.491C158.045 308.611 158.561 308.835 159.02 309.151C159.25 309.301 159.43 309.491 159.69 309.681C160.064 309.931 160.491 310.089 160.937 310.145C161.384 310.201 161.836 310.151 162.26 310.001C162.774 309.79 163.24 309.477 163.63 309.081L165.89 307.151L167.95 305.391L168.89 304.591C169.224 304.327 169.485 303.983 169.65 303.591C169.799 303.243 169.846 302.86 169.786 302.487C169.726 302.113 169.561 301.765 169.31 301.481C168.876 301.106 168.549 300.623 168.36 300.081C168.24 299.702 168.205 299.302 168.256 298.908C168.308 298.514 168.446 298.136 168.66 297.801C168.99 297.431 169.22 297.241 169.2 297.221Z" fill="#5EB2FF"/>
<path d="M141.86 327.031C141.86 327.171 151.32 327.291 162.98 327.291C174.64 327.291 184.11 327.171 184.11 327.031C184.11 326.891 174.65 326.771 162.98 326.771C151.31 326.771 141.86 326.881 141.86 327.031Z" fill="#263238"/>
<path d="M155.63 331.431C158.763 331.688 161.908 331.775 165.05 331.691C168.193 331.775 171.337 331.688 174.47 331.431C171.338 331.168 168.193 331.081 165.05 331.171C161.908 331.081 158.763 331.168 155.63 331.431Z" fill="#263238"/>
<path d="M198.9 287.621C198.99 287.741 206.9 281.621 216.66 274.001C226.42 266.381 234.18 260.091 234.09 260.001C234 259.911 226.09 266.001 216.33 273.621C206.57 281.241 198.81 287.471 198.9 287.621Z" fill="#263238"/>
<path d="M491.065 302.698C504.296 286.613 501.983 262.849 485.899 249.619C469.814 236.388 446.05 238.701 432.819 254.785C419.589 270.87 421.902 294.634 437.986 307.864C454.07 321.095 477.835 318.782 491.065 302.698Z" fill="#FAFAFA"/>
<path d="M494.479 297.782C494.479 297.782 494.585 297.601 494.744 297.23C494.902 296.86 495.188 296.332 495.544 295.625C495.746 295.279 495.925 294.874 496.141 294.445C496.358 294.016 496.517 293.506 496.732 292.96C496.947 292.414 497.164 291.846 497.406 291.234C497.646 290.57 497.852 289.894 498.023 289.209C499.04 285.721 499.527 282.099 499.465 278.467C499.415 273.655 498.442 268.897 496.6 264.452L495.8 262.593C495.499 261.977 495.153 261.38 494.831 260.763C494.508 260.146 494.196 259.511 493.782 258.933L492.573 257.137L491.947 256.226L491.271 255.402L489.839 253.672C489.338 253.101 488.767 252.593 488.229 252.046C487.696 251.481 487.13 250.948 486.532 250.451C485.328 249.41 484.054 248.451 482.719 247.583C482.02 247.174 481.371 246.678 480.658 246.273L478.452 245.133C478.09 244.921 477.727 244.709 477.324 244.566L476.149 244.098C475.362 243.8 474.578 243.457 473.767 243.18C472.11 242.651 470.421 242.232 468.709 241.924C466.959 241.6 465.189 241.396 463.411 241.315C462.512 241.287 461.604 241.335 460.69 241.333C460.236 241.357 459.776 241.331 459.329 241.382L457.951 241.538C454.202 241.889 450.535 242.856 447.101 244.401L445.773 244.968L444.504 245.651L443.231 246.342C442.792 246.554 442.373 246.805 441.98 247.093C441.17 247.627 440.363 248.175 439.551 248.731L437.289 250.617C431.195 255.937 427.003 263.101 425.351 271.021C425.175 271.995 424.999 272.97 424.81 273.925C424.622 274.881 424.655 275.874 424.573 276.845C424.523 277.33 424.509 277.817 424.531 278.304L424.561 279.758L424.587 281.198L424.749 282.625C424.948 284.514 425.272 286.387 425.72 288.233C426.218 290.026 426.835 291.784 427.565 293.495L428.104 294.772C428.278 295.187 428.526 295.575 428.728 295.983C429.177 296.779 429.561 297.629 430.046 298.364C430.988 299.874 432.032 301.317 433.172 302.684C434.279 304.025 435.473 305.292 436.745 306.478C437.385 307.049 438.068 307.564 438.713 308.104L439.696 308.9C440.029 309.164 440.396 309.367 440.744 309.605L442.818 310.97C443.526 311.384 444.256 311.741 444.97 312.124C446.381 312.863 447.84 313.504 449.339 314.043C454.351 315.836 459.686 316.546 464.993 316.125C470.299 315.705 475.456 314.164 480.124 311.605C483.32 309.878 486.239 307.68 488.781 305.085C489.729 304.16 490.611 303.17 491.419 302.121C491.784 301.674 492.133 301.276 492.424 300.878C492.715 300.481 492.94 300.114 493.154 299.788C493.592 299.14 493.924 298.651 494.162 298.304C494.4 297.956 494.513 297.802 494.513 297.802C494.513 297.802 494.412 297.975 494.205 298.329C493.998 298.683 493.7 299.192 493.249 299.844C493.047 300.189 492.825 300.569 492.526 300.961C492.227 301.354 491.9 301.754 491.547 302.219C490.747 303.284 489.869 304.289 488.92 305.224C486.392 307.867 483.473 310.106 480.264 311.861C476.013 314.215 471.346 315.722 466.522 316.299L464.494 316.537C463.801 316.572 463.111 316.563 462.402 316.588C461.692 316.613 460.986 316.651 460.273 316.582L458.042 316.435L456.936 316.345L455.833 316.151L453.601 315.749C452.85 315.587 452.121 315.346 451.368 315.149C450.605 314.957 449.855 314.719 449.12 314.436C447.603 313.899 446.125 313.255 444.698 312.509C443.99 312.095 443.227 311.776 442.507 311.343L440.434 309.957C440.071 309.744 439.709 309.532 439.386 309.251L438.386 308.446C437.723 307.896 437.04 307.38 436.392 306.804C435.097 305.609 433.885 304.326 432.764 302.967C431.604 301.585 430.542 300.124 429.587 298.594C429.105 297.814 428.693 296.993 428.248 296.189C428.038 295.776 427.79 295.388 427.612 294.959L427.07 293.669C426.324 291.935 425.699 290.152 425.198 288.333C424.736 286.467 424.401 284.572 424.195 282.66L424.035 281.211L424.002 279.743L423.982 278.272C423.955 277.781 423.968 277.289 424.021 276.8L424.26 273.835L424.816 270.905C426.492 262.864 430.748 255.591 436.936 250.19C437.704 249.55 438.481 248.916 439.218 248.27L441.685 246.608C442.085 246.322 442.508 246.07 442.949 245.853L444.241 245.149L445.537 244.459L446.879 243.889C448.647 243.135 450.463 242.498 452.315 241.983C454.147 241.529 456.007 241.2 457.884 241L459.275 240.841C459.735 240.786 460.195 240.812 460.658 240.793C461.586 240.791 462.518 240.723 463.411 240.782C465.213 240.865 467.006 241.074 468.779 241.408C470.511 241.719 472.219 242.146 473.894 242.686C474.713 242.969 475.506 243.317 476.31 243.625L477.494 244.097C477.865 244.314 478.228 244.526 478.631 244.669L480.858 245.833C481.574 246.253 482.255 246.732 482.948 247.172C484.297 248.051 485.582 249.023 486.794 250.083C487.398 250.582 487.97 251.118 488.508 251.688C489.049 252.248 489.625 252.77 490.134 253.346L491.578 255.095L492.287 255.962L492.908 256.881L494.129 258.754C494.548 259.346 494.836 260.002 495.186 260.612C495.536 261.222 495.858 261.839 496.167 262.46L496.953 264.345C498.794 268.836 499.752 273.641 499.773 278.496C499.81 282.153 499.29 285.794 498.228 289.294C498.001 290.018 497.862 290.713 497.597 291.323C497.333 291.933 497.106 292.519 496.896 293.056C496.686 293.593 496.487 294.091 496.28 294.526C496.072 294.96 495.81 295.329 495.66 295.704C495.271 296.369 494.968 296.887 494.808 297.279C494.647 297.672 494.479 297.782 494.479 297.782Z" fill="#263238"/>
<path d="M461.236 256.239L447.232 272.169L470.859 292.941L484.864 277.011L461.236 256.239Z" fill="#5EB2FF"/>
<path d="M470.865 292.992L447.216 272.204L461.192 256.237L484.842 277.025L470.865 292.992ZM447.276 272.181L470.865 292.934L484.806 277.027L461.217 256.274L447.276 272.181Z" fill="#263238"/>
<path d="M484.779 277.289L484.375 277.308L483.214 277.312L478.935 277.219L464.762 276.909L464.645 276.91L464.63 276.797L464.577 276.511C463.618 271.003 462.75 266.011 462.122 262.331C461.828 260.536 461.579 259.081 461.415 258.035L461.232 256.862C461.206 256.727 461.19 256.589 461.183 256.451C461.226 256.584 461.259 256.719 461.281 256.857L461.519 258.015L462.326 262.299L464.878 276.432L464.928 276.705L464.781 276.619L478.945 277.004L483.218 277.187L484.353 277.226C484.497 277.231 484.64 277.252 484.779 277.289Z" fill="#263238"/>
<path d="M447.147 272.442C447.134 272.365 450.837 271.739 455.408 271.054C459.98 270.369 463.688 269.873 463.701 269.95C463.714 270.027 460.016 270.645 455.439 271.338C450.862 272.032 447.155 272.528 447.147 272.442Z" fill="#263238"/>
<path d="M471.734 276.655C471.795 276.69 471.655 280.374 471.395 284.938C471.135 289.501 470.859 293.22 470.77 293.215C470.681 293.209 470.844 289.504 471.114 284.923C471.384 280.343 471.654 276.654 471.734 276.655Z" fill="#263238"/>
<path d="M473.332 304.758C473.256 304.887 464.897 300.124 454.66 294.135C444.424 288.146 436.176 283.193 436.252 283.064C436.327 282.934 444.686 287.697 454.923 293.687C465.16 299.676 473.402 304.637 473.332 304.758Z" fill="#263238"/>
<path d="M460.838 302.546C457.955 301.165 455.151 299.625 452.438 297.933C449.634 296.397 446.918 294.707 444.301 292.871C447.181 294.258 449.985 295.798 452.701 297.484C455.502 299.025 458.218 300.715 460.838 302.546Z" fill="#263238"/>
<path d="M428.399 261.474C427.34 261.026 426.317 260.498 425.339 259.892C423.501 258.816 420.923 257.401 418.126 255.764C415.33 254.128 412.792 252.644 410.994 251.499C409.987 250.944 409.024 250.312 408.116 249.606C409.176 250.053 410.199 250.582 411.176 251.188C413.04 252.221 415.584 253.674 418.389 255.316C421.194 256.957 423.723 258.436 425.521 259.581C426.528 260.136 427.49 260.769 428.399 261.474Z" fill="#263238"/>
</svg>
