<svg width="40" height="40" viewBox="0 0 40 40" fill="none" xmlns="http://www.w3.org/2000/svg">
<g filter="url(#filter0_d_33_1349)">
<circle cx="20" cy="20" r="17.64" stroke="#666666" stroke-width="0.72" shape-rendering="crispEdges"/>
</g>
<path d="M25.2498 10.0645H15.3385C12.9235 10.0645 10.9658 12.1111 10.9658 14.6359V24.9977C10.9658 27.5225 12.9235 29.5691 15.3385 29.5691H25.2498C27.6648 29.5691 29.6225 27.5225 29.6225 24.9977V14.6359C29.6225 12.1111 27.6648 10.0645 25.2498 10.0645Z" fill="#666666"/>
<path d="M25.2498 10.0645H15.3385C12.9235 10.0645 10.9658 12.1111 10.9658 14.6359V24.9977C10.9658 27.5225 12.9235 29.5691 15.3385 29.5691H25.2498C27.6648 29.5691 29.6225 27.5225 29.6225 24.9977V14.6359C29.6225 12.1111 27.6648 10.0645 25.2498 10.0645Z" fill="white" fill-opacity="0.8"/>
<path d="M20.295 12.1982C18.3158 12.1982 18.0674 12.2073 17.29 12.2443C16.5142 12.2814 15.9846 12.4098 15.5212 12.5982C15.0418 12.7928 14.6353 13.0532 14.2302 13.4768C13.8248 13.9003 13.5758 14.3254 13.3891 14.8263C13.2083 15.3109 13.0854 15.8648 13.0505 16.6756C13.0157 17.4883 13.0066 17.7481 13.0066 19.8173C13.0066 21.8866 13.0153 22.1455 13.0506 22.9581C13.0863 23.7692 13.2091 24.3229 13.3892 24.8073C13.5755 25.3085 13.8245 25.7336 14.2297 26.157C14.6347 26.5809 15.0413 26.8418 15.5203 27.0364C15.984 27.2249 16.5137 27.3532 17.2894 27.3904C18.0668 27.4274 18.315 27.4364 20.2941 27.4364C22.2736 27.4364 22.5212 27.4274 23.2985 27.3904C24.0744 27.3532 24.6045 27.2249 25.0683 27.0364C25.5474 26.8418 25.9534 26.5809 26.3583 26.157C26.7638 25.7336 27.0127 25.3085 27.1995 24.8076C27.3786 24.3229 27.5016 23.7691 27.5381 22.9583C27.573 22.1456 27.5821 21.8866 27.5821 19.8173C27.5821 17.7481 27.573 17.4884 27.5381 16.6757C27.5016 15.8646 27.3786 15.311 27.1995 14.8266C27.0127 14.3254 26.7638 13.9003 26.3583 13.4768C25.953 13.053 25.5476 12.7927 25.0678 12.5983C24.6032 12.4098 24.0733 12.2814 23.2975 12.2443C22.5201 12.2073 22.2726 12.1982 20.2927 12.1982H20.295ZM19.6412 13.5713C19.8353 13.571 20.0518 13.5713 20.295 13.5713C22.2409 13.5713 22.4715 13.5786 23.2399 13.6151C23.9505 13.6491 24.3361 13.7732 24.593 13.8775C24.9332 14.0155 25.1756 14.1806 25.4305 14.4474C25.6856 14.714 25.8435 14.968 25.9759 15.3236C26.0757 15.5918 26.1945 15.995 26.2269 16.7378C26.2618 17.541 26.2694 17.7822 26.2694 19.8156C26.2694 21.8489 26.2618 22.0902 26.2269 22.8934C26.1944 23.6362 26.0757 24.0394 25.9759 24.3077C25.8438 24.6633 25.6856 24.9164 25.4305 25.183C25.1755 25.4496 24.9333 25.6146 24.593 25.7528C24.3364 25.8575 23.9505 25.9814 23.2399 26.0153C22.4716 26.0518 22.2409 26.0598 20.295 26.0598C18.349 26.0598 18.1184 26.0518 17.3502 26.0153C16.6396 25.981 16.2539 25.8569 15.9968 25.7526C15.6568 25.6145 15.4138 25.4495 15.1587 25.1828C14.9037 24.9161 14.7458 24.6628 14.6134 24.3071C14.5136 24.0388 14.3948 23.6356 14.3624 22.8928C14.3275 22.0896 14.3205 21.8483 14.3205 19.8137C14.3205 17.7791 14.3275 17.5391 14.3624 16.7359C14.3949 15.993 14.5136 15.5898 14.6134 15.3213C14.7455 14.9657 14.9037 14.7118 15.1588 14.4451C15.4139 14.1784 15.6568 14.0133 15.9969 13.875C16.2538 13.7702 16.6396 13.6464 17.3502 13.6123C18.0225 13.5805 18.283 13.571 19.6412 13.5694V13.5713ZM24.1852 14.8363C23.7024 14.8363 23.3107 15.2455 23.3107 15.7503C23.3107 16.2551 23.7024 16.6646 24.1852 16.6646C24.668 16.6646 25.0597 16.2551 25.0597 15.7503C25.0597 15.2455 24.668 14.836 24.1852 14.836V14.8363ZM20.295 15.9046C18.2282 15.9046 16.5524 17.6565 16.5524 19.8173C16.5524 21.9782 18.2282 23.7292 20.295 23.7292C22.3619 23.7292 24.037 21.9782 24.037 19.8173C24.037 17.6566 22.3617 15.9046 20.2949 15.9046H20.295ZM20.295 17.2776C21.6366 17.2776 22.7243 18.4146 22.7243 19.8173C22.7243 21.2199 21.6366 22.3571 20.295 22.3571C18.9533 22.3571 17.8658 21.2199 17.8658 19.8173C17.8658 18.4146 18.9533 17.2776 20.295 17.2776Z" fill="#666666"/>
<defs>
<filter id="filter0_d_33_1349" x="0.416" y="0.416" width="39.168" height="39.168" filterUnits="userSpaceOnUse" color-interpolation-filters="sRGB">
<feFlood flood-opacity="0" result="BackgroundImageFix"/>
<feColorMatrix in="SourceAlpha" type="matrix" values="0 0 0 0 0 0 0 0 0 0 0 0 0 0 0 0 0 0 127 0" result="hardAlpha"/>
<feOffset/>
<feGaussianBlur stdDeviation="0.792"/>
<feComposite in2="hardAlpha" operator="out"/>
<feColorMatrix type="matrix" values="0 0 0 0 0 0 0 0 0 0 0 0 0 0 0 0 0 0 0.43 0"/>
<feBlend mode="normal" in2="BackgroundImageFix" result="effect1_dropShadow_33_1349"/>
<feBlend mode="normal" in="SourceGraphic" in2="effect1_dropShadow_33_1349" result="shape"/>
</filter>
</defs>
</svg>
