<svg width="40" height="40" viewBox="0 0 40 40" fill="none" xmlns="http://www.w3.org/2000/svg">
<g filter="url(#filter0_d_33_1362)">
<circle cx="20" cy="20" r="17.64" stroke="#666666" stroke-width="0.72" shape-rendering="crispEdges"/>
</g>
<path d="M26.6195 11.7891C27.1117 11.7891 27.5837 11.9846 27.9317 12.3326C28.2797 12.6806 28.4752 13.1526 28.4752 13.6448V26.6351C28.4752 27.1273 28.2797 27.5993 27.9317 27.9473C27.5837 28.2953 27.1117 28.4909 26.6195 28.4909H13.6292C13.137 28.4909 12.665 28.2953 12.317 27.9473C11.969 27.5993 11.7734 27.1273 11.7734 26.6351V13.6448C11.7734 13.1526 11.969 12.6806 12.317 12.3326C12.665 11.9846 13.137 11.7891 13.6292 11.7891H26.6195ZM26.1555 26.1712V21.2534C26.1555 20.4512 25.8368 19.6818 25.2696 19.1145C24.7023 18.5472 23.9329 18.2285 23.1307 18.2285C22.342 18.2285 21.4234 18.711 20.978 19.4348V18.4048H18.3892V26.1712H20.978V21.5967C20.978 20.8823 21.5533 20.2977 22.2677 20.2977C22.6123 20.2977 22.9427 20.4346 23.1863 20.6782C23.4299 20.9218 23.5668 21.2522 23.5668 21.5967V26.1712H26.1555ZM15.3736 16.9481C15.787 16.9481 16.1835 16.7838 16.4759 16.4915C16.7682 16.1992 16.9324 15.8027 16.9324 15.3892C16.9324 14.5263 16.2365 13.8211 15.3736 13.8211C14.9577 13.8211 14.5589 13.9863 14.2648 14.2804C13.9707 14.5745 13.8055 14.9733 13.8055 15.3892C13.8055 16.2522 14.5107 16.9481 15.3736 16.9481ZM16.6634 26.1712V18.4048H14.0931V26.1712H16.6634Z" fill="#666666" fill-opacity="0.8"/>
<defs>
<filter id="filter0_d_33_1362" x="0.416" y="0.416" width="39.168" height="39.168" filterUnits="userSpaceOnUse" color-interpolation-filters="sRGB">
<feFlood flood-opacity="0" result="BackgroundImageFix"/>
<feColorMatrix in="SourceAlpha" type="matrix" values="0 0 0 0 0 0 0 0 0 0 0 0 0 0 0 0 0 0 127 0" result="hardAlpha"/>
<feOffset/>
<feGaussianBlur stdDeviation="0.792"/>
<feComposite in2="hardAlpha" operator="out"/>
<feColorMatrix type="matrix" values="0 0 0 0 0 0 0 0 0 0 0 0 0 0 0 0 0 0 0.43 0"/>
<feBlend mode="normal" in2="BackgroundImageFix" result="effect1_dropShadow_33_1362"/>
<feBlend mode="normal" in="SourceGraphic" in2="effect1_dropShadow_33_1362" result="shape"/>
</filter>
</defs>
</svg>
