<svg width="400" height="87" viewBox="0 0 400 87" fill="none" xmlns="http://www.w3.org/2000/svg">
<path d="M0 30.7174V26.2436C0 19.4712 4.67096 13.5937 11.2684 12.0644L63.3148 0V15.95L0 30.7174Z" fill="url(#paint0_linear_33_1320)"/>
<path d="M0 70.2117V58.0082L15.7984 54.3694V82.6913C7.73775 84.6097 0 78.4975 0 70.2117Z" fill="url(#paint1_linear_33_1320)"/>
<path d="M21.8933 53.0049V81.2661L24.4257 80.6898C31.0505 79.1822 35.751 73.2917 35.751 66.4975V49.639L21.8933 53.0049Z" fill="#F7841E"/>
<path d="M0 36.7213V51.792L51.8188 39.8395C58.4236 38.3161 63.1025 32.4351 63.1025 25.6568V22.1662L0 36.7213Z" fill="url(#paint2_linear_33_1320)"/>
<path d="M396.229 59.2652C395.184 59.2652 394.29 58.8977 393.545 58.1628C392.81 57.4278 392.447 56.5381 392.457 55.4937C392.447 54.4686 392.81 53.5934 393.545 52.8681C394.29 52.1331 395.184 51.7656 396.229 51.7656C397.215 51.7656 398.085 52.1331 398.84 52.8681C399.604 53.5934 399.99 54.4686 400 55.4937C399.99 56.19 399.807 56.8234 399.449 57.3939C399.101 57.9645 398.641 58.419 398.071 58.7575C397.51 59.096 396.896 59.2652 396.229 59.2652Z" fill="#F7841E"/>
<path d="M372.547 46.1358V58.843H365.453V29.1348H372.314V40.6525H372.561C373.064 39.2793 373.886 38.2058 375.027 37.4322C376.178 36.6585 377.585 36.2717 379.248 36.2717C380.815 36.2717 382.179 36.6199 383.339 37.3161C384.5 38.0028 385.399 38.9747 386.037 40.2318C386.685 41.489 387.004 42.959 386.995 44.6417V58.843H379.901V46.0342C379.911 44.7964 379.601 43.8293 378.973 43.133C378.344 42.4368 377.459 42.0886 376.318 42.0886C375.573 42.0886 374.916 42.253 374.345 42.5818C373.784 42.9009 373.344 43.3603 373.025 43.9599C372.716 44.5595 372.556 45.2848 372.547 46.1358Z" fill="url(#paint3_linear_33_1320)"/>
<path d="M350.663 59.2644C348.313 59.2644 346.297 58.7809 344.614 57.8138C342.941 56.8468 341.655 55.5026 340.755 53.7812C339.856 52.0501 339.406 50.0483 339.406 47.7757C339.406 45.4934 339.856 43.4916 340.755 41.7702C341.664 40.0392 342.955 38.6901 344.628 37.7231C346.311 36.756 348.318 36.2725 350.648 36.2725C352.708 36.2725 354.502 36.6448 356.03 37.3894C357.568 38.1341 358.767 39.1882 359.628 40.5517C360.498 41.9056 360.957 43.4964 361.006 45.3242H354.376C354.241 44.1831 353.854 43.2885 353.216 42.6406C352.587 41.9927 351.765 41.6687 350.75 41.6687C349.928 41.6687 349.207 41.9008 348.589 42.365C347.97 42.8195 347.486 43.4964 347.138 44.3958C346.799 45.2855 346.63 46.388 346.63 47.7032C346.63 49.0184 346.799 50.1305 347.138 51.0396C347.486 51.9389 347.97 52.6207 348.589 53.0849C349.207 53.5394 349.928 53.7667 350.75 53.7667C351.408 53.7667 351.988 53.6265 352.491 53.346C353.003 53.0656 353.424 52.6546 353.753 52.113C354.081 51.5618 354.289 50.8945 354.376 50.1112H361.006C360.938 51.9486 360.479 53.5539 359.628 54.9272C358.786 56.3004 357.602 57.369 356.074 58.133C354.555 58.8873 352.752 59.2644 350.663 59.2644Z" fill="url(#paint4_linear_33_1320)"/>
<path d="M325.247 59.2644C322.917 59.2644 320.905 58.8051 319.213 57.8864C317.53 56.958 316.234 55.638 315.325 53.9262C314.426 52.2049 313.976 50.1595 313.976 47.7902C313.976 45.4886 314.431 43.4771 315.34 41.7557C316.249 40.0247 317.53 38.6805 319.184 37.7231C320.837 36.756 322.786 36.2725 325.03 36.2725C326.616 36.2725 328.066 36.5191 329.381 37.0123C330.697 37.5055 331.833 38.2356 332.79 39.2027C333.748 40.1697 334.492 41.3641 335.024 42.7856C335.556 44.1976 335.822 45.8174 335.822 47.6452V49.4149H316.457V45.2952H329.222C329.212 44.5409 329.033 43.8688 328.685 43.2789C328.337 42.6889 327.858 42.2296 327.249 41.9008C326.649 41.5623 325.958 41.3931 325.175 41.3931C324.382 41.3931 323.671 41.572 323.042 41.9298C322.414 42.2779 321.916 42.7566 321.548 43.3659C321.181 43.9655 320.987 44.6472 320.968 45.4112V49.6035C320.968 50.5125 321.147 51.3103 321.505 51.9969C321.863 52.6739 322.37 53.2009 323.028 53.5781C323.685 53.9553 324.469 54.1438 325.378 54.1438C326.006 54.1438 326.577 54.0568 327.089 53.8827C327.602 53.7087 328.042 53.4524 328.41 53.1139C328.777 52.7754 329.053 52.3596 329.236 51.8664L335.75 52.055C335.479 53.5152 334.884 54.7869 333.965 55.87C333.056 56.9435 331.862 57.78 330.382 58.3796C328.903 58.9695 327.191 59.2644 325.247 59.2644Z" fill="url(#paint5_linear_33_1320)"/>
<path d="M288.63 34.9662V29.1348H313.74V34.9662H304.732V58.843H297.653V34.9662H288.63Z" fill="url(#paint6_linear_33_1320)"/>
<path d="M261.538 59.2209C260.116 59.2209 258.854 58.984 257.752 58.5101C256.659 58.0266 255.794 57.3013 255.155 56.3342C254.527 55.3575 254.212 54.1342 254.212 52.6642C254.212 51.4264 254.43 50.3819 254.865 49.5309C255.3 48.6799 255.9 47.9885 256.664 47.4566C257.428 46.9247 258.308 46.5234 259.304 46.2526C260.3 45.9721 261.364 45.7836 262.495 45.6868C263.762 45.5708 264.782 45.4499 265.556 45.3242C266.33 45.1888 266.891 45.0002 267.239 44.7585C267.597 44.507 267.776 44.154 267.776 43.6995V43.627C267.776 42.8824 267.519 42.3069 267.007 41.9008C266.494 41.4946 265.803 41.2915 264.932 41.2915C263.994 41.2915 263.24 41.4946 262.669 41.9008C262.099 42.3069 261.736 42.8678 261.581 43.5835L255.039 43.3514C255.233 41.9975 255.731 40.7887 256.533 39.7249C257.346 38.6514 258.458 37.8101 259.87 37.2008C261.291 36.5819 262.998 36.2725 264.99 36.2725C266.412 36.2725 267.722 36.4417 268.921 36.7802C270.121 37.109 271.165 37.5925 272.055 38.2308C272.944 38.8594 273.631 39.633 274.115 40.5517C274.608 41.4704 274.854 42.5197 274.854 43.6995V58.8438H268.182V55.7395H268.008C267.611 56.4938 267.103 57.1321 266.484 57.6543C265.875 58.1765 265.155 58.5682 264.323 58.8293C263.501 59.0904 262.573 59.2209 261.538 59.2209ZM263.728 54.579C264.492 54.579 265.179 54.4243 265.788 54.1148C266.407 53.8054 266.9 53.3799 267.268 52.8383C267.635 52.2871 267.819 51.6488 267.819 50.9235V48.8056C267.616 48.912 267.369 49.0087 267.079 49.0957C266.799 49.1828 266.489 49.265 266.151 49.3424C265.812 49.4197 265.464 49.4874 265.106 49.5454C264.749 49.6035 264.405 49.6566 264.076 49.705C263.409 49.8114 262.839 49.9758 262.365 50.1982C261.901 50.4206 261.543 50.7108 261.291 51.0686C261.05 51.4167 260.929 51.8325 260.929 52.3161C260.929 53.051 261.19 53.6119 261.712 53.9988C262.244 54.3856 262.916 54.579 263.728 54.579Z" fill="url(#paint7_linear_33_1320)"/>
<path d="M240.467 59.2644C238.117 59.2644 236.101 58.7809 234.418 57.8138C232.745 56.8468 231.459 55.5026 230.559 53.7812C229.66 52.0501 229.21 50.0483 229.21 47.7757C229.21 45.4934 229.66 43.4916 230.559 41.7702C231.468 40.0392 232.759 38.6901 234.432 37.7231C236.115 36.756 238.122 36.2725 240.452 36.2725C242.512 36.2725 244.306 36.6448 245.834 37.3894C247.372 38.1341 248.571 39.1882 249.432 40.5517C250.302 41.9056 250.761 43.4964 250.81 45.3242H244.181C244.045 44.1831 243.658 43.2885 243.02 42.6406C242.391 41.9927 241.569 41.6687 240.554 41.6687C239.732 41.6687 239.012 41.9008 238.393 42.365C237.774 42.8195 237.29 43.4964 236.942 44.3958C236.604 45.2855 236.434 46.388 236.434 47.7032C236.434 49.0184 236.604 50.1305 236.942 51.0396C237.29 51.9389 237.774 52.6207 238.393 53.0849C239.012 53.5394 239.732 53.7667 240.554 53.7667C241.212 53.7667 241.792 53.6265 242.295 53.346C242.807 53.0656 243.228 52.6546 243.557 52.113C243.886 51.5618 244.093 50.8945 244.181 50.1112H250.81C250.742 51.9486 250.283 53.5539 249.432 54.9272C248.59 56.3004 247.406 57.369 245.878 58.133C244.359 58.8873 242.556 59.2644 240.467 59.2644Z" fill="url(#paint8_linear_33_1320)"/>
<path fill-rule="evenodd" clip-rule="evenodd" d="M217.641 36.5623V58.8435H224.734V36.5623H217.641Z" fill="url(#paint9_linear_33_1320)"/>
<path d="M221.195 33.9657C220.199 33.9657 219.343 33.6369 218.627 32.9793C217.912 32.312 217.554 31.5094 217.554 30.5713C217.554 29.6429 217.912 28.8499 218.627 28.1923C219.343 27.525 220.199 27.1914 221.195 27.1914C222.2 27.1914 223.056 27.525 223.762 28.1923C224.478 28.8499 224.836 29.6429 224.836 30.5713C224.836 31.5094 224.478 32.312 223.762 32.9793C223.056 33.6369 222.2 33.9657 221.195 33.9657Z" fill="#F7841E"/>
<path d="M199.63 58.8436V36.5624H206.521V40.6241H206.753C207.159 39.1542 207.822 38.0614 208.74 37.3458C209.659 36.6205 210.728 36.2578 211.946 36.2578C212.275 36.2578 212.613 36.282 212.962 36.3303C213.31 36.369 213.634 36.4319 213.933 36.5189V42.684C213.595 42.5679 213.15 42.476 212.599 42.4084C212.057 42.3407 211.574 42.3068 211.148 42.3068C210.307 42.3068 209.548 42.4954 208.871 42.8725C208.204 43.24 207.676 43.7574 207.29 44.4247C206.912 45.0823 206.724 45.8559 206.724 46.7456V58.8436H199.63Z" fill="url(#paint10_linear_33_1320)"/>
<path d="M187.219 49.2262V36.5625H194.298V58.8437H187.539V54.695H187.306C186.813 56.0585 185.972 57.1417 184.782 57.9443C183.603 58.7373 182.176 59.1338 180.503 59.1338C178.985 59.1338 177.65 58.7857 176.499 58.0894C175.349 57.3931 174.454 56.4212 173.816 55.1737C173.178 53.9165 172.854 52.4466 172.844 50.7639V36.5625H179.937V49.3713C179.947 50.5801 180.266 51.5327 180.895 52.229C181.523 52.9253 182.379 53.2734 183.462 53.2734C184.168 53.2734 184.802 53.1187 185.363 52.8092C185.933 52.4901 186.383 52.0307 186.712 51.4311C187.05 50.8219 187.219 50.0869 187.219 49.2262Z" fill="url(#paint11_linear_33_1320)"/>
<path d="M168.408 36.5638V41.7859H154.352V36.5638H168.408ZM157.296 31.2256H164.39V51.8386C164.39 52.2738 164.457 52.6267 164.593 52.8975C164.738 53.1586 164.946 53.3472 165.217 53.4633C165.487 53.5696 165.811 53.6228 166.188 53.6228C166.459 53.6228 166.745 53.5986 167.044 53.5503C167.354 53.4923 167.586 53.4439 167.741 53.4052L168.814 58.5258C168.476 58.6226 167.997 58.7434 167.378 58.8885C166.769 59.0336 166.039 59.1254 165.188 59.1641C163.524 59.2415 162.098 59.0481 160.908 58.5839C159.728 58.11 158.824 57.375 158.196 56.379C157.577 55.3829 157.277 54.1305 157.296 52.6219V31.2256Z" fill="url(#paint12_linear_33_1320)"/>
<path d="M141.041 59.2644C138.691 59.2644 136.675 58.7809 134.992 57.8138C133.319 56.8468 132.033 55.5026 131.134 53.7812C130.234 52.0501 129.785 50.0483 129.785 47.7757C129.785 45.4934 130.234 43.4916 131.134 41.7702C132.043 40.0392 133.334 38.6901 135.007 37.7231C136.69 36.756 138.696 36.2725 141.027 36.2725C143.087 36.2725 144.881 36.6448 146.409 37.3894C147.946 38.1341 149.145 39.1882 150.006 40.5517C150.876 41.9056 151.336 43.4964 151.384 45.3242H144.755C144.619 44.1831 144.233 43.2885 143.594 42.6406C142.966 41.9927 142.144 41.6687 141.128 41.6687C140.306 41.6687 139.586 41.9008 138.967 42.365C138.348 42.8195 137.865 43.4964 137.516 44.3958C137.178 45.2855 137.009 46.388 137.009 47.7032C137.009 49.0184 137.178 50.1305 137.516 51.0396C137.865 51.9389 138.348 52.6207 138.967 53.0849C139.586 53.5394 140.306 53.7667 141.128 53.7667C141.786 53.7667 142.366 53.6265 142.869 53.346C143.382 53.0656 143.802 52.6546 144.131 52.113C144.46 51.5618 144.668 50.8945 144.755 50.1112H151.384C151.316 51.9486 150.857 53.5539 150.006 54.9272C149.165 56.3004 147.98 57.369 146.452 58.133C144.934 58.8873 143.13 59.2644 141.041 59.2644Z" fill="url(#paint13_linear_33_1320)"/>
<path d="M118.23 49.2262V36.5625H125.308V58.8437H118.549V54.695H118.317C117.823 56.0585 116.982 57.1417 115.793 57.9443C114.613 58.7373 113.186 59.1338 111.513 59.1338C109.995 59.1338 108.66 58.7857 107.51 58.0894C106.359 57.3931 105.464 56.4212 104.826 55.1737C104.188 53.9165 103.864 52.4466 103.854 50.7639V36.5625H110.948V49.3713C110.957 50.5801 111.276 51.5327 111.905 52.229C112.534 52.9253 113.389 53.2734 114.473 53.2734C115.178 53.2734 115.812 53.1187 116.373 52.8092C116.943 52.4901 117.393 52.0307 117.722 51.4311C118.06 50.8219 118.23 50.0869 118.23 49.2262Z" fill="url(#paint14_linear_33_1320)"/>
<path d="M80.5386 58.843V29.1348H100.818V34.9662H87.719V41.0587H99.5269V46.9046H87.719V58.843H80.5386Z" fill="url(#paint15_linear_33_1320)"/>
<defs>
<linearGradient id="paint0_linear_33_1320" x1="59.405" y1="-10.9608" x2="-2.3889" y2="66.887" gradientUnits="userSpaceOnUse">
<stop offset="0.330424" stop-color="#007BFF"/>
<stop offset="1" stop-color="#0056B3"/>
</linearGradient>
<linearGradient id="paint1_linear_33_1320" x1="59.405" y1="-10.9608" x2="-2.3889" y2="66.887" gradientUnits="userSpaceOnUse">
<stop offset="0.330424" stop-color="#007BFF"/>
<stop offset="1" stop-color="#0056B3"/>
</linearGradient>
<linearGradient id="paint2_linear_33_1320" x1="59.405" y1="-10.9608" x2="-2.3889" y2="66.887" gradientUnits="userSpaceOnUse">
<stop offset="0.330424" stop-color="#007BFF"/>
<stop offset="1" stop-color="#0056B3"/>
</linearGradient>
<linearGradient id="paint3_linear_33_1320" x1="352.048" y1="12.4031" x2="351.145" y2="82.4819" gradientUnits="userSpaceOnUse">
<stop offset="0.330424" stop-color="#007BFF"/>
<stop offset="1" stop-color="#0056B3"/>
</linearGradient>
<linearGradient id="paint4_linear_33_1320" x1="352.047" y1="12.4038" x2="351.145" y2="82.4826" gradientUnits="userSpaceOnUse">
<stop offset="0.330424" stop-color="#007BFF"/>
<stop offset="1" stop-color="#0056B3"/>
</linearGradient>
<linearGradient id="paint5_linear_33_1320" x1="352.047" y1="12.4039" x2="351.144" y2="82.4826" gradientUnits="userSpaceOnUse">
<stop offset="0.330424" stop-color="#007BFF"/>
<stop offset="1" stop-color="#0056B3"/>
</linearGradient>
<linearGradient id="paint6_linear_33_1320" x1="352.048" y1="12.4031" x2="351.145" y2="82.4819" gradientUnits="userSpaceOnUse">
<stop offset="0.330424" stop-color="#007BFF"/>
<stop offset="1" stop-color="#0056B3"/>
</linearGradient>
<linearGradient id="paint7_linear_33_1320" x1="352.048" y1="12.4039" x2="351.145" y2="82.4826" gradientUnits="userSpaceOnUse">
<stop offset="0.330424" stop-color="#007BFF"/>
<stop offset="1" stop-color="#0056B3"/>
</linearGradient>
<linearGradient id="paint8_linear_33_1320" x1="352.048" y1="12.4038" x2="351.145" y2="82.4826" gradientUnits="userSpaceOnUse">
<stop offset="0.330424" stop-color="#007BFF"/>
<stop offset="1" stop-color="#0056B3"/>
</linearGradient>
<linearGradient id="paint9_linear_33_1320" x1="352.048" y1="12.4035" x2="351.145" y2="82.4823" gradientUnits="userSpaceOnUse">
<stop offset="0.330424" stop-color="#007BFF"/>
<stop offset="1" stop-color="#0056B3"/>
</linearGradient>
<linearGradient id="paint10_linear_33_1320" x1="352.048" y1="12.4037" x2="351.145" y2="82.4825" gradientUnits="userSpaceOnUse">
<stop offset="0.330424" stop-color="#007BFF"/>
<stop offset="1" stop-color="#0056B3"/>
</linearGradient>
<linearGradient id="paint11_linear_33_1320" x1="352.048" y1="12.4038" x2="351.145" y2="82.4825" gradientUnits="userSpaceOnUse">
<stop offset="0.330424" stop-color="#007BFF"/>
<stop offset="1" stop-color="#0056B3"/>
</linearGradient>
<linearGradient id="paint12_linear_33_1320" x1="352.048" y1="12.4051" x2="351.145" y2="82.4838" gradientUnits="userSpaceOnUse">
<stop offset="0.330424" stop-color="#007BFF"/>
<stop offset="1" stop-color="#0056B3"/>
</linearGradient>
<linearGradient id="paint13_linear_33_1320" x1="352.048" y1="12.4039" x2="351.145" y2="82.4826" gradientUnits="userSpaceOnUse">
<stop offset="0.330424" stop-color="#007BFF"/>
<stop offset="1" stop-color="#0056B3"/>
</linearGradient>
<linearGradient id="paint14_linear_33_1320" x1="352.048" y1="12.4038" x2="351.145" y2="82.4825" gradientUnits="userSpaceOnUse">
<stop offset="0.330424" stop-color="#007BFF"/>
<stop offset="1" stop-color="#0056B3"/>
</linearGradient>
<linearGradient id="paint15_linear_33_1320" x1="352.048" y1="12.4031" x2="351.145" y2="82.4819" gradientUnits="userSpaceOnUse">
<stop offset="0.330424" stop-color="#007BFF"/>
<stop offset="1" stop-color="#0056B3"/>
</linearGradient>
</defs>
</svg>
