<svg width="40" height="40" viewBox="0 0 40 40" fill="none" xmlns="http://www.w3.org/2000/svg">
<g filter="url(#filter0_d_33_1357)">
<circle cx="20" cy="20" r="17.64" stroke="#666666" stroke-width="0.72" shape-rendering="crispEdges"/>
</g>
<mask id="path-2-inside-1_33_1357" fill="white">
<path d="M12.0087 11.9766L18.1046 20.1044L11.9702 26.7127H13.3508L18.7214 20.927L23.0608 26.7127H27.759L21.3202 18.1277L27.03 11.9766H25.6494L20.7033 17.305L16.7069 11.9766H12.0087ZM14.039 12.9907H16.1974L25.7284 25.6984H23.57L14.039 12.9907Z"/>
</mask>
<path d="M12.0087 11.9766L18.1046 20.1044L11.9702 26.7127H13.3508L18.7214 20.927L23.0608 26.7127H27.759L21.3202 18.1277L27.03 11.9766H25.6494L20.7033 17.305L16.7069 11.9766H12.0087ZM14.039 12.9907H16.1974L25.7284 25.6984H23.57L14.039 12.9907Z" fill="#666666" fill-opacity="0.8"/>
<path d="M12.0087 11.9766V-188.015H-387.974L-147.984 131.971L12.0087 11.9766ZM18.1046 20.1044L164.678 156.166L278.322 33.7424L178.098 -99.8903L18.1046 20.1044ZM11.9702 26.7127L-134.603 -109.349L-446.557 226.704H11.9702V26.7127ZM13.3508 26.7127V226.704H100.58L159.925 162.773L13.3508 26.7127ZM18.7214 20.927L178.713 -99.0694L35.0466 -290.621L-127.853 -115.133L18.7214 20.927ZM23.0608 26.7127L-136.931 146.709L-76.9337 226.704H23.0608V26.7127ZM27.759 26.7127V226.704H427.745L187.751 -93.2832L27.759 26.7127ZM21.3202 18.1277L-125.255 -117.932L-238.897 4.49246L-138.672 138.124L21.3202 18.1277ZM27.03 11.9766L173.605 148.036L485.548 -188.015H27.03V11.9766ZM25.6494 11.9766V-188.015H-61.5821L-120.927 -124.082L25.6494 11.9766ZM20.7033 17.305L-139.29 137.3L4.3787 328.858L167.28 153.363L20.7033 17.305ZM16.7069 11.9766L176.7 -108.018L116.703 -188.015H16.7069V11.9766ZM14.039 12.9907V-187.001H-385.949L-145.953 132.987L14.039 12.9907ZM16.1974 12.9907L176.189 -107.006L116.192 -187.001H16.1974V12.9907ZM25.7284 25.6984V225.69H425.717L185.72 -94.2981L25.7284 25.6984ZM23.57 25.6984L-136.422 145.695L-76.4243 225.69H23.57V25.6984ZM-147.984 131.971L-141.889 140.099L178.098 -99.8903L172.002 -108.018L-147.984 131.971ZM-128.469 -115.957L-134.603 -109.349L158.543 162.775L164.678 156.166L-128.469 -115.957ZM11.9702 226.704H13.3508V-173.279H11.9702V226.704ZM159.925 162.773L165.296 156.988L-127.853 -115.133L-133.224 -109.348L159.925 162.773ZM-141.271 140.923L-136.931 146.709L183.053 -93.2837L178.713 -99.0694L-141.271 140.923ZM23.0608 226.704H27.759V-173.279H23.0608V226.704ZM187.751 -93.2832L181.312 -101.868L-138.672 138.124L-132.233 146.709L187.751 -93.2832ZM167.895 154.188L173.605 148.036L-119.545 -124.083L-125.255 -117.932L167.895 154.188ZM27.03 -188.015H25.6494V211.968H27.03V-188.015ZM-120.927 -124.082L-125.873 -118.753L167.28 153.363L172.226 148.035L-120.927 -124.082ZM180.697 -102.69L176.7 -108.018L-143.286 131.971L-139.29 137.3L180.697 -102.69ZM16.7069 -188.015H12.0087V211.968H16.7069V-188.015ZM14.039 212.982H16.1974V-187.001H14.039V212.982ZM-143.794 132.987L-134.263 145.695L185.72 -94.2981L176.189 -107.006L-143.794 132.987ZM25.7284 -174.293H23.57V225.69H25.7284V-174.293ZM183.562 -94.2981L174.031 -107.006L-145.953 132.987L-136.422 145.695L183.562 -94.2981Z" fill="#666666" fill-opacity="0.8" mask="url(#path-2-inside-1_33_1357)"/>
<defs>
<filter id="filter0_d_33_1357" x="0.416" y="0.416" width="39.168" height="39.168" filterUnits="userSpaceOnUse" color-interpolation-filters="sRGB">
<feFlood flood-opacity="0" result="BackgroundImageFix"/>
<feColorMatrix in="SourceAlpha" type="matrix" values="0 0 0 0 0 0 0 0 0 0 0 0 0 0 0 0 0 0 127 0" result="hardAlpha"/>
<feOffset/>
<feGaussianBlur stdDeviation="0.792"/>
<feComposite in2="hardAlpha" operator="out"/>
<feColorMatrix type="matrix" values="0 0 0 0 0 0 0 0 0 0 0 0 0 0 0 0 0 0 0.43 0"/>
<feBlend mode="normal" in2="BackgroundImageFix" result="effect1_dropShadow_33_1357"/>
<feBlend mode="normal" in="SourceGraphic" in2="effect1_dropShadow_33_1357" result="shape"/>
</filter>
</defs>
</svg>
