<svg width="40" height="40" viewBox="0 0 40 40" fill="none" xmlns="http://www.w3.org/2000/svg">
<g filter="url(#filter0_d_33_1347)">
<circle cx="20" cy="20" r="17.64" stroke="#666666" stroke-width="0.72" shape-rendering="crispEdges"/>
</g>
<path d="M17.9949 23.0059L23.1849 20.0059L17.9949 17.0059V23.0059ZM29.5549 15.1759C29.6849 15.6459 29.7749 16.2759 29.8349 17.0759C29.9049 17.8759 29.9349 18.5659 29.9349 19.1659L29.9949 20.0059C29.9949 22.1959 29.8349 23.8059 29.5549 24.8359C29.3049 25.7359 28.7249 26.3159 27.8249 26.5659C27.3549 26.6959 26.4949 26.7859 25.1749 26.8459C23.8749 26.9159 22.6849 26.9459 21.5849 26.9459L19.9949 27.0059C15.8049 27.0059 13.1949 26.8459 12.1649 26.5659C11.2649 26.3159 10.6849 25.7359 10.4349 24.8359C10.3049 24.3659 10.2149 23.7359 10.1549 22.9359C10.0849 22.1359 10.0549 21.4459 10.0549 20.8459L9.99487 20.0059C9.99487 17.8159 10.1549 16.2059 10.4349 15.1759C10.6849 14.2759 11.2649 13.6959 12.1649 13.4459C12.6349 13.3159 13.4949 13.2259 14.8149 13.1659C16.1149 13.0959 17.3049 13.0659 18.4049 13.0659L19.9949 13.0059C24.1849 13.0059 26.7949 13.1659 27.8249 13.4459C28.7249 13.6959 29.3049 14.2759 29.5549 15.1759Z" fill="#666666" fill-opacity="0.8"/>
<defs>
<filter id="filter0_d_33_1347" x="0.416" y="0.416" width="39.168" height="39.168" filterUnits="userSpaceOnUse" color-interpolation-filters="sRGB">
<feFlood flood-opacity="0" result="BackgroundImageFix"/>
<feColorMatrix in="SourceAlpha" type="matrix" values="0 0 0 0 0 0 0 0 0 0 0 0 0 0 0 0 0 0 127 0" result="hardAlpha"/>
<feOffset/>
<feGaussianBlur stdDeviation="0.792"/>
<feComposite in2="hardAlpha" operator="out"/>
<feColorMatrix type="matrix" values="0 0 0 0 0 0 0 0 0 0 0 0 0 0 0 0 0 0 0.43 0"/>
<feBlend mode="normal" in2="BackgroundImageFix" result="effect1_dropShadow_33_1347"/>
<feBlend mode="normal" in="SourceGraphic" in2="effect1_dropShadow_33_1347" result="shape"/>
</filter>
</defs>
</svg>
