<svg width="533" height="355" viewBox="0 0 533 355" fill="none" xmlns="http://www.w3.org/2000/svg">
<g clip-path="url(#clip0_358_7360)">
<g clip-path="url(#clip1_358_7360)">
<path d="M460.798 321.87H428.647V322.113H460.798V321.87Z" fill="#EBEBEB"/>
<path d="M345.593 324.52H337.157V324.763H345.593V324.52Z" fill="#EBEBEB"/>
<path d="M427.677 312.829H409.048V313.073H427.677V312.829Z" fill="#EBEBEB"/>
<path d="M116.92 314.466H74.9948V314.709H116.92V314.466Z" fill="#EBEBEB"/>
<path d="M131.714 314.466H125.569V314.709H131.714V314.466Z" fill="#EBEBEB"/>
<path d="M242.628 318.577H151.691V318.821H242.628V318.577Z" fill="#EBEBEB"/>
<path d="M254.131 262.745H66.7042C65.2341 262.745 63.8243 262.159 62.7848 261.116C61.7454 260.072 61.1614 258.657 61.1614 257.182V-7.24853C61.1742 -8.7154 61.7638 -10.1178 62.8019 -11.1505C63.84 -12.1832 65.2425 -12.7626 66.7042 -12.7626H254.131C255.601 -12.7626 257.011 -12.1765 258.05 -11.1333C259.09 -10.0901 259.674 -8.67515 259.674 -7.19982V257.182C259.674 258.657 259.09 260.072 258.05 261.116C257.011 262.159 255.601 262.745 254.131 262.745ZM66.7042 -12.5677C65.2993 -12.5652 63.9527 -12.0039 62.9593 -11.0069C61.9659 -10.0099 61.4066 -8.65848 61.4041 -7.24853V257.182C61.4066 258.592 61.9659 259.944 62.9593 260.941C63.9527 261.938 65.2993 262.499 66.7042 262.501H254.131C255.536 262.499 256.883 261.938 257.876 260.941C258.869 259.944 259.429 258.592 259.431 257.182V-7.24853C259.429 -8.65848 258.869 -10.0099 257.876 -11.0069C256.883 -12.0039 255.536 -12.5652 254.131 -12.5677H66.7042Z" fill="#EBEBEB"/>
<path d="M464.108 262.745H276.662C275.192 262.742 273.784 262.155 272.745 261.113C271.706 260.07 271.121 258.657 271.119 257.182V-7.24853C271.134 -8.71461 271.725 -10.1156 272.762 -11.1477C273.8 -12.1799 275.201 -12.7601 276.662 -12.7626H464.108C465.566 -12.7575 466.964 -12.1759 467.998 -11.1437C469.032 -10.1115 469.619 -8.71204 469.631 -7.24853V257.182C469.631 258.654 469.05 260.066 468.015 261.109C466.98 262.151 465.575 262.74 464.108 262.745ZM276.662 -12.5677C275.257 -12.5652 273.91 -12.0039 272.917 -11.0069C271.923 -10.0099 271.364 -8.65848 271.362 -7.24853V257.182C271.364 258.592 271.923 259.944 272.917 260.941C273.91 261.938 275.257 262.499 276.662 262.501H464.108C465.513 262.499 466.86 261.938 467.853 260.941C468.846 259.944 469.406 258.592 469.408 257.182V-7.24853C469.406 -8.65848 468.846 -10.0099 467.853 -11.0069C466.86 -12.0039 465.513 -12.5652 464.108 -12.5677H276.662Z" fill="#EBEBEB"/>
<path d="M509.431 306.195H24.0703V306.438H509.431V306.195Z" fill="#EBEBEB"/>
<path d="M428.618 25.8845H307.482V155.348H428.618V25.8845Z" fill="#EBEBEB"/>
<path d="M421.338 33.191H314.763V148.041H421.338V33.191Z" fill="#F5F5F5"/>
<path d="M356.591 148.041H388.625L418.698 33.191H386.664L356.591 148.041Z" fill="#FAFAFA"/>
<path d="M371.783 33.191L341.71 148.041H349.476L379.549 33.191H371.783Z" fill="#FAFAFA"/>
<path d="M430.143 31.9734H305.949L303.328 25.8358H432.764L430.143 31.9734Z" fill="#F5F5F5"/>
<path d="M430.143 35.5291H305.949L303.328 29.3916H432.764L430.143 35.5291Z" fill="#F0F0F0"/>
<path d="M430.143 39.0851H305.949L303.328 32.9475H432.764L430.143 39.0851Z" fill="#E6E6E6"/>
<path d="M430.143 42.641H305.949L303.328 36.5034H432.764L430.143 42.641Z" fill="#E0E0E0"/>
<path d="M437.287 18.1492H298.814V26.3326H437.287V18.1492Z" fill="#E0E0E0"/>
<path d="M300.231 100.529C299.857 100.529 299.499 100.38 299.235 100.115C298.971 99.85 298.823 99.4907 298.823 99.1161V51.3796C298.823 51.005 298.971 50.6457 299.235 50.3808C299.499 50.1159 299.857 49.967 300.231 49.967C300.604 49.967 300.962 50.1159 301.226 50.3808C301.49 50.6457 301.638 51.005 301.638 51.3796V99.1161C301.638 99.4907 301.49 99.85 301.226 100.115C300.962 100.38 300.604 100.529 300.231 100.529Z" fill="#E0E0E0"/>
<path d="M300.736 24.6959H299.716V53.0455H300.736V24.6959Z" fill="#E0E0E0"/>
<path d="M111.94 23.3807H110.192V160.131H111.94V23.3807Z" fill="#E0E0E0"/>
<path d="M220.709 23.3807H218.962V160.131H220.709V23.3807Z" fill="#E0E0E0"/>
<path d="M227.563 31.9733H103.349L100.728 25.8358H230.174L227.563 31.9733Z" fill="#F5F5F5"/>
<path d="M227.563 40.4002H103.349L100.728 34.2627H230.174L227.563 40.4002Z" fill="#F5F5F5"/>
<path d="M227.563 48.8272H103.349L100.728 42.6896H230.174L227.563 48.8272Z" fill="#F5F5F5"/>
<path d="M227.563 57.2541H103.349L100.728 51.1166H230.174L227.563 57.2541Z" fill="#F5F5F5"/>
<path d="M227.563 65.6811H103.349L100.728 59.5435H230.174L227.563 65.6811Z" fill="#F5F5F5"/>
<path d="M227.563 74.108H103.349L100.728 67.9705H230.174L227.563 74.108Z" fill="#F5F5F5"/>
<path d="M227.563 82.535H103.349L100.728 76.3975H230.174L227.563 82.535Z" fill="#F5F5F5"/>
<path d="M227.563 90.9619H103.349L100.728 84.8243H230.174L227.563 90.9619Z" fill="#F5F5F5"/>
<path d="M227.563 99.3889H103.349L100.728 93.2513H230.174L227.563 99.3889Z" fill="#F5F5F5"/>
<path d="M227.563 107.816H103.349L100.728 101.678H230.174L227.563 107.816Z" fill="#F5F5F5"/>
<path d="M227.563 116.243H103.349L100.728 110.105H230.174L227.563 116.243Z" fill="#F5F5F5"/>
<path d="M227.563 124.66H103.349L100.728 118.522H230.174L227.563 124.66Z" fill="#F5F5F5"/>
<path d="M227.563 133.097H103.349L100.728 126.949H230.174L227.563 133.097Z" fill="#F5F5F5"/>
<path d="M227.563 141.514H103.349L100.728 135.376H230.174L227.563 141.514Z" fill="#F5F5F5"/>
<path d="M227.563 149.941H103.349L100.728 143.803H230.174L227.563 149.941Z" fill="#F5F5F5"/>
<path d="M227.563 158.368H103.349L100.728 152.23H230.174L227.563 158.368Z" fill="#F5F5F5"/>
<path d="M230.174 158.368H100.728V161.875H230.174V158.368Z" fill="#E0E0E0"/>
<path d="M234.688 18.1492H96.2141V26.3326H234.688V18.1492Z" fill="#E0E0E0"/>
<path d="M97.6413 100.529C97.268 100.529 96.91 100.38 96.646 100.115C96.3821 99.85 96.2338 99.4907 96.2338 99.1161V51.3796C96.2338 51.005 96.3821 50.6457 96.646 50.3808C96.91 50.1159 97.268 49.967 97.6413 49.967C98.0146 49.967 98.3726 50.1159 98.6366 50.3808C98.9006 50.6457 99.0489 51.005 99.0489 51.3796V99.1161C99.0489 99.4907 98.9006 99.85 98.6366 100.115C98.3726 100.38 98.0146 100.529 97.6413 100.529Z" fill="#E0E0E0"/>
<path d="M98.1463 24.6959H97.1271V53.0455H98.1463V24.6959Z" fill="#E0E0E0"/>
<path d="M110.775 247.723C110.659 247.849 111.309 248.765 108.649 248.366C102.097 247.391 90.691 244.712 87.5167 237.951C82.9834 228.297 97.0395 231.823 96.5541 226.884C96.0688 221.945 80.0518 222.802 78.3725 215.564C76.6932 208.325 87.5264 211.774 87.672 208.247C87.8176 204.721 75.3147 206.903 72.8297 199.09C70.3446 191.277 79.7995 197.034 78.7123 193.78C77.625 190.527 67.0636 175.845 72.8006 174.14C78.5375 172.435 88.2544 187.506 92.0208 189.64C95.7872 191.774 99.0877 179.469 103.553 184.671C108.018 189.874 100.932 208.053 106.62 211.569C110.863 214.2 109.669 206.961 115.26 208.316C122.822 210.147 120.269 237.065 110.775 247.723Z" fill="#EBEBEB"/>
<path d="M90.5551 208.286C92.483 208.429 94.3848 208.819 96.2144 209.446C95.0013 207.617 93.6548 205.882 92.1859 204.253C92.107 204.159 92.0662 204.039 92.0718 203.917C92.0774 203.794 92.1288 203.678 92.2159 203.592C92.303 203.506 92.4192 203.456 92.5414 203.452C92.6637 203.448 92.7828 203.491 92.8751 203.571C96.0414 207.135 98.7513 211.082 100.942 215.32C103.009 202.86 97.8063 191.939 97.7481 191.861C97.7171 191.775 97.7189 191.681 97.7532 191.596C97.7875 191.511 97.8519 191.442 97.9339 191.402C98.0159 191.362 98.1098 191.354 98.1974 191.38C98.2849 191.405 98.36 191.462 98.4082 191.54C98.4664 191.657 104.009 203.279 101.495 216.353C102.165 217.629 102.844 219.003 103.504 220.474C105.853 225.718 107.709 231.172 109.047 236.763C111.472 232.172 112.801 227.08 112.93 221.886C112.931 221.839 112.942 221.792 112.961 221.749C112.98 221.706 113.008 221.667 113.042 221.634C113.076 221.602 113.117 221.576 113.161 221.559C113.205 221.542 113.252 221.534 113.299 221.536C113.348 221.537 113.395 221.548 113.44 221.568C113.484 221.587 113.524 221.616 113.557 221.651C113.59 221.686 113.617 221.728 113.634 221.773C113.651 221.819 113.66 221.867 113.658 221.916C113.542 227.484 112.051 232.937 109.319 237.786C111.796 248.788 112.624 260.1 111.775 271.347C111.771 271.411 111.755 271.474 111.727 271.532C111.699 271.589 111.66 271.641 111.613 271.683C111.565 271.726 111.509 271.759 111.449 271.779C111.388 271.8 111.324 271.809 111.261 271.805H111.202C111.085 271.784 110.98 271.719 110.908 271.623C110.836 271.527 110.802 271.408 110.814 271.289C112.008 253.753 109.406 239.715 105.795 229.057C103.792 226.727 101.049 225.162 98.0296 224.624C97.9361 224.605 97.8531 224.551 97.7973 224.474C97.7415 224.396 97.717 224.3 97.7287 224.205C97.7346 224.158 97.75 224.112 97.7738 224.07C97.7976 224.029 97.8294 223.992 97.8674 223.963C97.9053 223.934 97.9487 223.913 97.9949 223.901C98.0411 223.889 98.0892 223.886 98.1364 223.893C100.784 224.352 103.241 225.578 105.203 227.42C103.105 221.491 100.33 215.825 96.9327 210.537C94.8853 209.678 92.7108 209.165 90.4968 209.017C90.4007 209.01 90.3113 208.965 90.2478 208.892C90.1843 208.819 90.1517 208.724 90.1571 208.627C90.1594 208.578 90.1718 208.53 90.1934 208.486C90.215 208.442 90.2453 208.402 90.2826 208.371C90.3199 208.339 90.3633 208.315 90.4102 208.3C90.457 208.286 90.5063 208.281 90.5551 208.286Z" fill="#F5F5F5"/>
<path d="M119.201 251.454C124.647 251.551 133.946 246.476 137.645 241.546C141.343 236.617 130.927 239.598 131.995 235.701C133.063 231.804 145.915 234.678 148.284 229.037C150.652 223.396 141.392 224.702 141.761 221.818C142.129 218.935 151.73 219.529 154.807 213.537C157.884 207.546 149.449 210.907 150.769 208.423C152.089 205.939 162.68 195.495 158.253 193.323C153.827 191.15 143.896 202.022 140.576 203.24C137.256 204.458 136.47 196.937 132.141 200.532C127.811 204.127 131.054 219.831 125.967 221.906C122.171 223.455 123.783 216.255 119.415 218.077C111.688 221.263 116.959 251.405 119.201 251.454Z" fill="#E0E0E0"/>
<g opacity="0.3">
<path d="M119.201 251.454C124.647 251.551 133.946 246.476 137.645 241.546C141.343 236.617 130.927 239.598 131.995 235.701C133.063 231.804 145.915 234.678 148.284 229.037C150.652 223.396 141.392 224.702 141.761 221.818C142.129 218.935 151.73 219.529 154.807 213.537C157.884 207.546 149.449 210.907 150.769 208.423C152.089 205.939 162.68 195.495 158.253 193.323C153.827 191.15 143.896 202.022 140.576 203.24C137.256 204.458 136.47 196.937 132.141 200.532C127.811 204.127 131.054 219.831 125.967 221.906C122.171 223.455 123.783 216.255 119.415 218.077C111.688 221.263 116.959 251.405 119.201 251.454Z" fill="#E0E0E0"/>
</g>
<path d="M120.968 244.897C120.886 244.867 120.817 244.808 120.774 244.732C118.698 240.159 117.855 235.12 118.328 230.118C118.324 230.066 118.333 230.013 118.351 229.963C118.37 229.914 118.4 229.869 118.437 229.832C118.475 229.794 118.52 229.766 118.57 229.748C118.62 229.73 118.673 229.722 118.725 229.727C118.778 229.731 118.829 229.746 118.875 229.772C118.921 229.798 118.962 229.833 118.993 229.876C119.024 229.919 119.046 229.968 119.057 230.02C119.068 230.072 119.067 230.125 119.056 230.177C118.649 234.925 119.406 239.701 121.259 244.089C123.51 237.994 126.284 232.107 129.549 226.494C128.578 214.804 134.578 205.159 134.636 205.062C134.687 204.98 134.769 204.923 134.863 204.902C134.956 204.881 135.055 204.898 135.136 204.95C135.217 205.001 135.274 205.083 135.295 205.177C135.316 205.271 135.299 205.37 135.247 205.451C131.778 211.499 130.035 218.388 130.209 225.364C134.123 218.626 138.794 212.36 144.129 206.689C144.173 206.638 144.227 206.597 144.288 206.568C144.348 206.539 144.414 206.523 144.481 206.521C144.547 206.519 144.614 206.531 144.676 206.556C144.738 206.581 144.794 206.618 144.841 206.666C144.888 206.714 144.925 206.771 144.949 206.834C144.973 206.896 144.984 206.963 144.981 207.03C144.978 207.097 144.961 207.163 144.931 207.223C144.902 207.284 144.86 207.337 144.809 207.38C140.867 211.543 137.309 216.056 134.18 220.863C137.459 219.624 140.936 218.997 144.44 219.012C144.536 219.018 144.627 219.06 144.692 219.131C144.757 219.202 144.792 219.296 144.79 219.392C144.787 219.486 144.748 219.575 144.681 219.641C144.614 219.707 144.524 219.743 144.43 219.743C140.664 219.711 136.929 220.444 133.451 221.896C131.307 225.2 129.331 228.611 127.53 232.116C128.992 231.097 130.658 230.41 132.411 230.1C134.164 229.791 135.963 229.867 137.684 230.323C137.777 230.348 137.857 230.409 137.906 230.493C137.955 230.577 137.97 230.677 137.946 230.771C137.934 230.818 137.912 230.861 137.883 230.899C137.854 230.937 137.817 230.968 137.776 230.992C137.734 231.016 137.688 231.031 137.641 231.036C137.593 231.042 137.545 231.038 137.499 231.024C135.634 230.543 133.679 230.529 131.806 230.984C129.934 231.439 128.202 232.35 126.763 233.635C120.504 246.087 116.935 259.725 116.289 273.656C116.284 273.782 116.231 273.901 116.14 273.988C116.05 274.075 115.929 274.124 115.804 274.124C115.678 274.124 115.558 274.075 115.467 273.988C115.377 273.901 115.323 273.782 115.318 273.656C115.726 263.836 117.631 254.137 120.968 244.897Z" fill="#F5F5F5"/>
<path d="M103.854 304.831C98.6609 295.03 95.244 280.865 95.244 274.63C95.2691 272.088 95.8508 269.583 96.9479 267.292C98.045 265 99.6306 262.979 101.592 261.371H128.2C130.162 262.979 131.747 265 132.845 267.292C133.942 269.583 134.523 272.088 134.548 274.63C134.548 280.846 131.132 295.011 125.938 304.831H103.854Z" fill="#F0F0F0"/>
<path d="M262.071 346.439C366.019 346.439 450.285 341.502 450.285 335.411C450.285 329.321 366.019 324.383 262.071 324.383C158.124 324.383 73.8583 329.321 73.8583 335.411C73.8583 341.502 158.124 346.439 262.071 346.439Z" fill="#F5F5F5"/>
<path d="M308.152 50.2106H284.854C284.096 50.2268 283.364 50.4975 282.776 50.9795C282.189 51.4616 281.779 52.1272 281.612 52.8702L281.457 53.6009C281.054 55.4136 280.056 57.0379 278.623 58.2128C277.19 59.3878 275.405 60.0452 273.555 60.0794H251.423C249.667 60.1187 247.967 59.4596 246.694 58.2459C245.421 57.0321 244.678 55.3623 244.628 53.6009V52.8702C244.61 52.1484 244.308 51.4631 243.787 50.9646C243.267 50.466 242.571 50.1949 241.851 50.2106H218.554C214.728 50.2789 211.059 51.7521 208.242 54.3515C205.424 56.9509 203.654 60.4963 203.265 64.3172L184.569 279.17C184.372 280.967 184.558 282.785 185.115 284.503C185.673 286.222 186.588 287.801 187.802 289.137C189.015 290.473 190.498 291.534 192.151 292.249C193.805 292.965 195.592 293.318 197.392 293.287H286.961C290.788 293.216 294.457 291.741 297.274 289.14C300.091 286.539 301.861 282.992 302.25 279.17L320.985 64.3172C321.181 62.5207 320.993 60.7029 320.435 58.9848C319.876 57.2667 318.959 55.6878 317.745 54.3531C316.531 53.0185 315.047 51.9587 313.393 51.2444C311.739 50.5302 309.952 50.1777 308.152 50.2106Z" fill="#407BFF"/>
<path opacity="0.7" d="M308.152 50.2106H284.854C284.096 50.2268 283.364 50.4975 282.776 50.9795C282.189 51.4616 281.779 52.1272 281.612 52.8702L281.457 53.6009C281.054 55.4136 280.056 57.0379 278.623 58.2128C277.19 59.3878 275.405 60.0452 273.555 60.0794H251.423C249.667 60.1187 247.967 59.4596 246.694 58.2459C245.421 57.0321 244.678 55.3623 244.628 53.6009V52.8702C244.61 52.1484 244.308 51.4631 243.787 50.9646C243.267 50.466 242.571 50.1949 241.851 50.2106H218.554C214.728 50.2789 211.059 51.7521 208.242 54.3515C205.424 56.9509 203.654 60.4963 203.265 64.3172L184.569 279.17C184.372 280.967 184.558 282.785 185.115 284.503C185.673 286.222 186.588 287.801 187.802 289.137C189.015 290.473 190.498 291.534 192.151 292.249C193.805 292.965 195.592 293.318 197.392 293.287H286.961C290.788 293.216 294.457 291.741 297.274 289.14C300.091 286.539 301.861 282.992 302.25 279.17L320.985 64.3172C321.181 62.5207 320.993 60.7029 320.435 58.9848C319.876 57.2667 318.959 55.6878 317.745 54.3531C316.531 53.0185 315.047 51.9587 313.393 51.2444C311.739 50.5302 309.952 50.1777 308.152 50.2106Z" fill="white"/>
<path d="M299.075 149.035H251.51C251.11 149.041 250.713 148.962 250.345 148.803C249.978 148.644 249.649 148.408 249.379 148.112C249.109 147.815 248.905 147.464 248.78 147.083C248.656 146.701 248.613 146.297 248.656 145.898L252.238 104.796C252.323 103.946 252.717 103.157 253.343 102.579C253.969 102.001 254.785 101.674 255.636 101.659H303.201C303.601 101.651 303.999 101.729 304.367 101.887C304.736 102.046 305.066 102.282 305.336 102.578C305.606 102.875 305.81 103.227 305.934 103.609C306.058 103.992 306.099 104.396 306.055 104.796L302.473 145.898C302.385 146.747 301.992 147.534 301.366 148.112C300.74 148.69 299.925 149.018 299.075 149.035Z" fill="white"/>
<path d="M283.252 277.553H203.653C202.659 277.571 201.671 277.377 200.758 276.982C199.844 276.588 199.024 276.002 198.354 275.265C197.683 274.527 197.177 273.655 196.869 272.705C196.561 271.756 196.458 270.752 196.567 269.759C196.782 267.649 197.761 265.691 199.317 264.255C200.873 262.819 202.899 262.004 205.012 261.965H284.611C285.606 261.947 286.593 262.142 287.507 262.536C288.421 262.931 289.24 263.516 289.911 264.254C290.582 264.991 291.088 265.864 291.396 266.813C291.704 267.762 291.807 268.767 291.698 269.759C291.484 271.87 290.507 273.83 288.95 275.266C287.394 276.702 285.366 277.516 283.252 277.553Z" fill="white"/>
<path d="M289.591 90.3579H216.564C216.004 90.3748 215.447 90.27 214.932 90.0506C214.416 89.8312 213.954 89.5025 213.577 89.087C213.2 88.6715 212.916 88.179 212.747 87.6433C212.577 87.1077 212.525 86.5415 212.594 85.9837L213.186 79.1642C213.309 77.9819 213.858 76.8855 214.731 76.0817C215.603 75.2778 216.739 74.8218 217.923 74.7997H290.95C291.508 74.7896 292.061 74.8986 292.573 75.1195C293.086 75.3404 293.545 75.6681 293.921 76.0809C294.298 76.4936 294.582 76.982 294.756 77.5136C294.93 78.0452 294.99 78.6078 294.93 79.1642L294.329 85.9837C294.208 87.1677 293.659 88.2664 292.786 89.0723C291.914 89.8782 290.777 90.3355 289.591 90.3579Z" fill="white"/>
<path d="M304.443 78.9304C304.41 79.2604 304.257 79.5667 304.014 79.7912C303.771 80.0156 303.454 80.1427 303.123 80.1481C302.968 80.1504 302.814 80.1196 302.672 80.0577C302.529 79.9958 302.401 79.9043 302.297 79.7892C302.192 79.6741 302.113 79.538 302.065 79.39C302.017 79.2419 302 79.0853 302.017 78.9304C302.05 78.6013 302.203 78.2961 302.447 78.0732C302.69 77.8504 303.007 77.7254 303.337 77.7224C303.492 77.7187 303.645 77.7482 303.788 77.809C303.93 77.8697 304.058 77.9603 304.163 78.0747C304.268 78.1891 304.347 78.3245 304.395 78.4721C304.444 78.6197 304.46 78.7759 304.443 78.9304Z" fill="white"/>
<path d="M304.123 82.574C304.092 82.9032 303.941 83.2093 303.7 83.434C303.458 83.6586 303.142 83.786 302.813 83.7917C302.657 83.794 302.503 83.7632 302.361 83.7013C302.219 83.6394 302.091 83.5479 301.986 83.4328C301.882 83.3177 301.803 83.1816 301.754 83.0336C301.706 82.8855 301.689 82.7289 301.706 82.574C301.737 82.2448 301.888 81.9386 302.129 81.7139C302.371 81.4893 302.687 81.3619 303.016 81.3562C303.172 81.3539 303.326 81.3848 303.468 81.4466C303.611 81.5085 303.738 81.6 303.843 81.7151C303.947 81.8302 304.027 81.9663 304.075 82.1144C304.123 82.2624 304.14 82.4191 304.123 82.574Z" fill="white"/>
<path d="M303.812 86.2078C303.779 86.5378 303.626 86.8441 303.383 87.0686C303.14 87.293 302.823 87.42 302.492 87.4255C302.337 87.4278 302.183 87.397 302.041 87.3351C301.898 87.2732 301.771 87.1817 301.666 87.0666C301.561 86.9515 301.482 86.8154 301.434 86.6674C301.386 86.5193 301.369 86.3627 301.386 86.2078C301.419 85.8777 301.572 85.5714 301.815 85.347C302.058 85.1225 302.375 84.9955 302.706 84.99C302.861 84.9877 303.015 85.0186 303.157 85.0804C303.3 85.1423 303.428 85.2338 303.532 85.3489C303.637 85.464 303.716 85.6001 303.764 85.7481C303.813 85.8962 303.829 86.0528 303.812 86.2078Z" fill="white"/>
<path d="M293.164 216.84H204.314C203.913 216.848 203.516 216.77 203.147 216.612C202.779 216.453 202.449 216.217 202.179 215.92C201.909 215.623 201.705 215.272 201.581 214.89C201.457 214.507 201.416 214.103 201.46 213.703L205.595 166.795C205.681 165.945 206.074 165.156 206.7 164.578C207.326 164 208.142 163.672 208.993 163.658H297.814C298.214 163.651 298.61 163.73 298.977 163.889C299.344 164.049 299.673 164.284 299.942 164.581C300.211 164.878 300.414 165.229 300.538 165.611C300.661 165.992 300.702 166.396 300.658 166.795L296.571 213.703C296.486 214.554 296.091 215.344 295.463 215.923C294.835 216.501 294.016 216.828 293.164 216.84Z" fill="white"/>
<path d="M228.756 226.641H201.09C200.993 226.643 200.897 226.624 200.808 226.585C200.719 226.547 200.639 226.49 200.574 226.418C200.508 226.346 200.459 226.261 200.429 226.168C200.4 226.075 200.39 225.977 200.401 225.881C200.42 225.673 200.515 225.48 200.667 225.338C200.819 225.196 201.018 225.115 201.226 225.111H228.892C228.99 225.109 229.087 225.128 229.177 225.167C229.267 225.206 229.347 225.264 229.413 225.337C229.478 225.41 229.527 225.497 229.556 225.59C229.585 225.684 229.594 225.783 229.581 225.881C229.56 226.087 229.464 226.278 229.312 226.418C229.16 226.558 228.962 226.637 228.756 226.641Z" fill="white"/>
<path d="M263.333 226.641H233.639C233.541 226.644 233.444 226.626 233.354 226.588C233.263 226.551 233.182 226.494 233.116 226.422C233.049 226.349 232.999 226.264 232.969 226.17C232.939 226.077 232.929 225.978 232.94 225.881C232.959 225.673 233.054 225.48 233.206 225.338C233.358 225.196 233.557 225.115 233.765 225.111H263.469C263.567 225.109 263.664 225.128 263.754 225.167C263.844 225.206 263.925 225.264 263.99 225.337C264.056 225.41 264.104 225.497 264.134 225.59C264.163 225.684 264.171 225.783 264.159 225.881C264.137 226.087 264.042 226.278 263.889 226.418C263.737 226.558 263.54 226.637 263.333 226.641Z" fill="white"/>
<path d="M219.185 233.411H200.508C200.41 233.413 200.313 233.394 200.222 233.355C200.132 233.316 200.051 233.259 199.985 233.186C199.919 233.113 199.869 233.027 199.838 232.933C199.808 232.839 199.798 232.74 199.809 232.642C199.831 232.435 199.926 232.243 200.078 232.101C200.229 231.959 200.427 231.878 200.635 231.872H219.35C219.448 231.872 219.545 231.892 219.634 231.931C219.724 231.971 219.804 232.028 219.87 232.101C219.936 232.174 219.986 232.259 220.017 232.352C220.047 232.445 220.058 232.544 220.049 232.642C220.027 232.855 219.926 233.053 219.766 233.195C219.606 233.338 219.399 233.415 219.185 233.411Z" fill="white"/>
<path d="M254.752 233.411H224.097C223.999 233.413 223.901 233.394 223.811 233.355C223.72 233.316 223.64 233.259 223.573 233.186C223.507 233.113 223.457 233.027 223.427 232.933C223.397 232.839 223.387 232.74 223.398 232.642C223.419 232.433 223.516 232.24 223.67 232.098C223.824 231.956 224.024 231.876 224.233 231.872H254.878C254.977 231.87 255.074 231.889 255.164 231.928C255.255 231.967 255.336 232.025 255.402 232.098C255.468 232.171 255.518 232.257 255.548 232.351C255.578 232.445 255.588 232.544 255.577 232.642C255.558 232.849 255.464 233.043 255.311 233.185C255.159 233.327 254.96 233.407 254.752 233.411Z" fill="white"/>
<path d="M249.802 240.172H199.916C199.818 240.176 199.721 240.158 199.631 240.12C199.54 240.083 199.459 240.026 199.393 239.953C199.327 239.881 199.277 239.796 199.246 239.702C199.216 239.609 199.206 239.51 199.217 239.413C199.239 239.204 199.335 239.011 199.489 238.869C199.643 238.727 199.843 238.647 200.052 238.643H249.937C250.035 238.642 250.132 238.663 250.222 238.702C250.311 238.741 250.391 238.799 250.457 238.872C250.523 238.944 250.573 239.03 250.604 239.123C250.635 239.216 250.646 239.315 250.636 239.413C250.613 239.619 250.515 239.81 250.362 239.95C250.208 240.09 250.009 240.169 249.802 240.172Z" fill="white"/>
<path d="M258.014 240.172H254.724C254.626 240.176 254.528 240.158 254.438 240.12C254.348 240.082 254.267 240.026 254.2 239.953C254.134 239.881 254.084 239.796 254.054 239.702C254.023 239.609 254.013 239.51 254.025 239.413C254.044 239.205 254.138 239.011 254.291 238.869C254.443 238.727 254.642 238.647 254.85 238.643H258.15C258.248 238.641 258.345 238.66 258.435 238.699C258.525 238.738 258.605 238.796 258.671 238.869C258.736 238.942 258.785 239.028 258.814 239.122C258.843 239.216 258.852 239.315 258.839 239.413C258.818 239.618 258.722 239.809 258.57 239.949C258.418 240.089 258.221 240.169 258.014 240.172Z" fill="white"/>
<path d="M222.612 246.943H199.315C199.217 246.944 199.12 246.924 199.031 246.884C198.941 246.845 198.861 246.787 198.795 246.714C198.729 246.642 198.679 246.556 198.648 246.463C198.617 246.37 198.606 246.271 198.616 246.174C198.637 245.965 198.734 245.772 198.888 245.63C199.041 245.488 199.242 245.408 199.451 245.404H222.748C222.846 245.402 222.944 245.421 223.034 245.46C223.124 245.499 223.205 245.557 223.271 245.63C223.338 245.702 223.387 245.789 223.418 245.883C223.448 245.976 223.458 246.076 223.447 246.174C223.425 246.382 223.329 246.576 223.175 246.717C223.021 246.859 222.821 246.94 222.612 246.943Z" fill="white"/>
<path d="M256.5 246.943H227.495C227.397 246.944 227.3 246.924 227.21 246.884C227.121 246.845 227.041 246.787 226.975 246.714C226.909 246.642 226.859 246.556 226.828 246.463C226.797 246.37 226.786 246.271 226.796 246.174C226.817 245.965 226.914 245.772 227.068 245.63C227.221 245.488 227.422 245.408 227.63 245.404H256.626C256.724 245.402 256.822 245.421 256.912 245.46C257.002 245.499 257.083 245.557 257.149 245.63C257.216 245.702 257.266 245.789 257.296 245.883C257.326 245.976 257.336 246.076 257.325 246.174C257.304 246.38 257.208 246.573 257.057 246.714C256.905 246.856 256.707 246.937 256.5 246.943Z" fill="white"/>
<path d="M227.417 253.704H198.732C198.634 253.706 198.537 253.687 198.447 253.648C198.357 253.609 198.277 253.551 198.211 253.478C198.146 253.405 198.097 253.319 198.068 253.225C198.039 253.131 198.03 253.032 198.043 252.935C198.064 252.729 198.16 252.538 198.312 252.398C198.464 252.258 198.662 252.178 198.868 252.175H227.543C227.641 252.171 227.738 252.189 227.828 252.227C227.919 252.265 228 252.322 228.066 252.394C228.133 252.466 228.183 252.552 228.213 252.645C228.243 252.738 228.253 252.837 228.242 252.935C228.223 253.142 228.128 253.336 227.976 253.478C227.824 253.62 227.625 253.7 227.417 253.704Z" fill="white"/>
<path d="M255.393 253.704H232.289C232.191 253.706 232.094 253.687 232.004 253.648C231.914 253.609 231.834 253.551 231.769 253.478C231.703 253.405 231.654 253.319 231.625 253.225C231.596 253.131 231.588 253.032 231.6 252.935C231.621 252.729 231.717 252.538 231.869 252.398C232.021 252.258 232.219 252.178 232.425 252.175H255.528C255.626 252.171 255.724 252.189 255.814 252.227C255.904 252.265 255.985 252.322 256.052 252.394C256.118 252.466 256.168 252.552 256.198 252.645C256.229 252.738 256.239 252.837 256.227 252.935C256.206 253.143 256.109 253.337 255.955 253.478C255.802 253.62 255.601 253.701 255.393 253.704Z" fill="white"/>
<path d="M297.949 145.138C297.865 145.235 297.762 145.315 297.647 145.372C297.532 145.429 297.407 145.463 297.278 145.471C297.15 145.479 297.022 145.461 296.9 145.419C296.779 145.377 296.667 145.311 296.571 145.226L256.839 107.173C256.658 106.99 256.557 106.743 256.557 106.486C256.557 106.229 256.658 105.982 256.839 105.799C256.924 105.702 257.026 105.622 257.142 105.565C257.257 105.508 257.382 105.475 257.51 105.466C257.638 105.458 257.767 105.476 257.888 105.518C258.01 105.56 258.122 105.626 258.218 105.712L297.949 143.764C298.13 143.947 298.232 144.194 298.232 144.451C298.232 144.708 298.13 144.955 297.949 145.138Z" fill="#407BFF"/>
<path d="M253.325 145.128C253.246 145.025 253.189 144.906 253.156 144.78C253.124 144.654 253.117 144.522 253.136 144.393C253.155 144.264 253.199 144.14 253.267 144.029C253.334 143.918 253.424 143.821 253.529 143.745L273.798 127.115C273.99 126.948 274.241 126.863 274.495 126.88C274.749 126.896 274.987 127.012 275.157 127.203C275.234 127.306 275.291 127.424 275.322 127.549C275.354 127.674 275.361 127.804 275.342 127.932C275.323 128.06 275.278 128.183 275.212 128.293C275.145 128.404 275.057 128.5 274.953 128.576L254.684 145.216C254.492 145.383 254.241 145.468 253.987 145.451C253.733 145.435 253.495 145.319 253.325 145.128Z" fill="#407BFF"/>
<path d="M279.516 123.627C279.438 123.524 279.382 123.406 279.35 123.281C279.318 123.156 279.312 123.026 279.331 122.898C279.35 122.77 279.394 122.647 279.461 122.537C279.527 122.426 279.615 122.33 279.72 122.254L300.027 105.595C300.22 105.427 300.47 105.343 300.724 105.359C300.979 105.376 301.216 105.492 301.386 105.682C301.464 105.786 301.52 105.903 301.551 106.029C301.583 106.154 301.59 106.284 301.571 106.412C301.552 106.54 301.508 106.663 301.441 106.773C301.374 106.884 301.286 106.98 301.182 107.056L280.875 123.715C280.682 123.882 280.432 123.967 280.177 123.951C279.923 123.934 279.685 123.818 279.516 123.627Z" fill="#407BFF"/>
<g opacity="0.7">
<path d="M297.949 145.138C297.865 145.235 297.762 145.315 297.647 145.372C297.532 145.429 297.407 145.463 297.278 145.471C297.15 145.479 297.022 145.461 296.9 145.419C296.779 145.377 296.667 145.311 296.571 145.226L256.839 107.173C256.658 106.99 256.557 106.743 256.557 106.486C256.557 106.229 256.658 105.982 256.839 105.799C256.924 105.702 257.026 105.622 257.142 105.565C257.257 105.508 257.382 105.475 257.51 105.466C257.638 105.458 257.767 105.476 257.888 105.518C258.01 105.56 258.122 105.626 258.218 105.712L297.949 143.764C298.13 143.947 298.232 144.194 298.232 144.451C298.232 144.708 298.13 144.955 297.949 145.138Z" fill="white"/>
</g>
<g opacity="0.7">
<path d="M253.325 145.128C253.246 145.025 253.189 144.906 253.156 144.78C253.124 144.654 253.117 144.522 253.136 144.393C253.155 144.264 253.199 144.14 253.267 144.029C253.334 143.918 253.424 143.821 253.529 143.745L273.798 127.115C273.99 126.948 274.241 126.863 274.495 126.88C274.749 126.896 274.987 127.012 275.157 127.203C275.234 127.306 275.291 127.424 275.322 127.549C275.354 127.674 275.361 127.804 275.342 127.932C275.323 128.06 275.278 128.183 275.212 128.293C275.145 128.404 275.057 128.5 274.953 128.576L254.684 145.216C254.492 145.383 254.241 145.468 253.987 145.451C253.733 145.435 253.495 145.319 253.325 145.128Z" fill="white"/>
</g>
<g opacity="0.7">
<path d="M279.515 123.627C279.438 123.524 279.382 123.406 279.35 123.281C279.318 123.156 279.312 123.026 279.331 122.898C279.35 122.77 279.394 122.647 279.46 122.537C279.527 122.426 279.615 122.33 279.719 122.254L300.027 105.595C300.219 105.427 300.47 105.343 300.724 105.359C300.978 105.376 301.216 105.492 301.386 105.682C301.463 105.786 301.519 105.903 301.551 106.029C301.583 106.154 301.589 106.284 301.571 106.412C301.552 106.54 301.507 106.663 301.441 106.773C301.374 106.884 301.286 106.98 301.182 107.056L280.874 123.715C280.682 123.882 280.431 123.967 280.177 123.951C279.923 123.934 279.685 123.818 279.515 123.627Z" fill="white"/>
</g>
<path d="M184.958 45.5343H172.338C171.116 45.5395 169.946 46.0303 169.083 46.8994C168.221 47.7685 167.737 48.9451 167.737 50.1716V62.8364C167.737 64.0663 168.224 65.2458 169.09 66.1154C169.957 66.9851 171.132 67.4736 172.358 67.4736H184.977C186.202 67.4736 187.378 66.9851 188.244 66.1154C189.111 65.2458 189.598 64.0663 189.598 62.8364V50.1716C189.598 49.561 189.477 48.9564 189.244 48.3925C189.011 47.8286 188.669 47.3165 188.237 46.8857C187.806 46.4548 187.295 46.1136 186.732 45.8817C186.169 45.6498 185.566 45.5318 184.958 45.5343ZM178.677 50.0157C180.57 50.0157 181.589 51.5647 181.589 53.4644C181.589 55.3642 180.57 56.9132 178.677 56.9132C176.784 56.9132 175.765 55.3739 175.765 53.4644C175.765 51.555 176.774 50.0157 178.677 50.0157ZM186.258 62.9435H171.086C171.025 62.9437 170.964 62.9317 170.907 62.9083C170.851 62.8849 170.799 62.8505 170.756 62.8072L171.727 60.1475C172.03 59.3088 172.582 58.584 173.31 58.0716C174.038 57.5592 174.905 57.284 175.794 57.2834H181.531C182.421 57.2834 183.29 57.5582 184.019 58.0706C184.749 58.5829 185.303 59.308 185.608 60.1475L186.579 62.8072C186.537 62.8502 186.487 62.8845 186.432 62.9079C186.377 62.9314 186.318 62.9435 186.258 62.9435Z" fill="#407BFF"/>
<path opacity="0.7" d="M184.958 45.5343H172.338C171.116 45.5395 169.946 46.0303 169.083 46.8994C168.221 47.7685 167.737 48.9451 167.737 50.1716V62.8364C167.737 64.0663 168.224 65.2458 169.09 66.1154C169.957 66.9851 171.132 67.4736 172.358 67.4736H184.977C186.202 67.4736 187.378 66.9851 188.244 66.1154C189.111 65.2458 189.598 64.0663 189.598 62.8364V50.1716C189.598 49.561 189.477 48.9564 189.244 48.3925C189.011 47.8286 188.669 47.3165 188.237 46.8857C187.806 46.4548 187.295 46.1136 186.732 45.8817C186.169 45.6498 185.566 45.5318 184.958 45.5343ZM178.677 50.0157C180.57 50.0157 181.589 51.5647 181.589 53.4644C181.589 55.3642 180.57 56.9132 178.677 56.9132C176.784 56.9132 175.765 55.3739 175.765 53.4644C175.765 51.555 176.774 50.0157 178.677 50.0157ZM186.258 62.9435H171.086C171.025 62.9437 170.964 62.9317 170.907 62.9083C170.851 62.8849 170.799 62.8505 170.756 62.8072L171.727 60.1475C172.03 59.3088 172.582 58.584 173.31 58.0716C174.038 57.5592 174.905 57.284 175.794 57.2834H181.531C182.421 57.2834 183.29 57.5582 184.019 58.0706C184.749 58.5829 185.303 59.308 185.608 60.1475L186.579 62.8072C186.537 62.8502 186.487 62.8845 186.432 62.9079C186.377 62.9314 186.318 62.9435 186.258 62.9435Z" fill="white"/>
<path d="M140.227 97.4404H130.675C129.858 97.4392 129.049 97.5995 128.294 97.9122C127.54 98.225 126.853 98.6841 126.276 99.2632C125.698 99.8423 125.239 100.53 124.926 101.287C124.614 102.044 124.453 102.856 124.453 103.675V113.262C124.453 114.918 125.108 116.506 126.275 117.677C127.442 118.848 129.025 119.506 130.675 119.506H140.227C141.043 119.506 141.852 119.345 142.606 119.031C143.361 118.717 144.046 118.257 144.623 117.677C145.2 117.097 145.658 116.408 145.969 115.651C146.281 114.893 146.441 114.081 146.439 113.262V103.675C146.441 102.856 146.281 102.045 145.969 101.288C145.657 100.531 145.2 99.843 144.623 99.2638C144.045 98.6845 143.36 98.2253 142.606 97.9124C141.851 97.5996 141.043 97.4392 140.227 97.4404ZM135.451 113.7C135.451 113.7 131.568 109.423 131.568 107.241C131.568 106.196 131.982 105.194 132.718 104.455C133.454 103.716 134.453 103.3 135.494 103.3C136.536 103.3 137.535 103.716 138.271 104.455C139.007 105.194 139.421 106.196 139.421 107.241C139.372 109.423 135.451 113.7 135.451 113.7Z" fill="#407BFF"/>
<path d="M135.45 105.448C135.094 105.447 134.746 105.551 134.449 105.748C134.152 105.945 133.921 106.227 133.783 106.557C133.646 106.886 133.61 107.249 133.679 107.6C133.748 107.95 133.919 108.272 134.171 108.525C134.423 108.778 134.743 108.95 135.093 109.019C135.442 109.088 135.804 109.052 136.132 108.914C136.461 108.776 136.741 108.544 136.938 108.246C137.135 107.948 137.238 107.598 137.237 107.241C137.237 106.766 137.048 106.31 136.713 105.973C136.378 105.637 135.924 105.448 135.45 105.448Z" fill="#407BFF"/>
<g opacity="0.7">
<path d="M140.227 97.4404H130.675C129.858 97.4392 129.049 97.5995 128.294 97.9122C127.54 98.225 126.853 98.6841 126.276 99.2632C125.698 99.8423 125.239 100.53 124.926 101.287C124.614 102.044 124.453 102.856 124.453 103.675V113.262C124.453 114.918 125.108 116.506 126.275 117.677C127.442 118.848 129.025 119.506 130.675 119.506H140.227C141.043 119.506 141.852 119.345 142.606 119.031C143.361 118.717 144.046 118.257 144.623 117.677C145.2 117.097 145.658 116.408 145.969 115.651C146.281 114.893 146.441 114.081 146.439 113.262V103.675C146.441 102.856 146.281 102.045 145.969 101.288C145.657 100.531 145.2 99.843 144.623 99.2638C144.045 98.6845 143.36 98.2253 142.606 97.9124C141.851 97.5996 141.043 97.4392 140.227 97.4404ZM135.451 113.7C135.451 113.7 131.568 109.423 131.568 107.241C131.568 106.196 131.982 105.194 132.718 104.455C133.454 103.716 134.453 103.3 135.494 103.3C136.536 103.3 137.535 103.716 138.271 104.455C139.007 105.194 139.421 106.196 139.421 107.241C139.372 109.423 135.451 113.7 135.451 113.7Z" fill="white"/>
<path d="M135.45 105.448C135.094 105.446 134.746 105.551 134.449 105.748C134.152 105.945 133.921 106.227 133.783 106.556C133.646 106.886 133.61 107.249 133.679 107.6C133.748 107.95 133.919 108.272 134.171 108.525C134.423 108.778 134.743 108.95 135.093 109.019C135.442 109.088 135.804 109.052 136.132 108.914C136.461 108.776 136.741 108.544 136.938 108.246C137.135 107.948 137.238 107.598 137.237 107.241C137.237 106.766 137.048 106.31 136.713 105.973C136.378 105.637 135.924 105.448 135.45 105.448Z" fill="white"/>
</g>
<path d="M349.941 70.2696L356.338 66.1195L349.941 61.9596V70.2696Z" fill="#407BFF"/>
<path d="M358.182 54.7894H345.99C344.613 54.7894 343.292 55.3385 342.318 56.316C341.344 57.2934 340.797 58.6191 340.797 60.0014V72.2375C340.799 73.6191 341.347 74.9433 342.321 75.9202C343.294 76.8971 344.614 77.447 345.99 77.4496H358.182C359.56 77.4496 360.881 76.9005 361.855 75.923C362.829 74.9456 363.376 73.6199 363.376 72.2375V60.0014C363.377 59.3166 363.244 58.6383 362.983 58.0053C362.723 57.3724 362.34 56.7973 361.858 56.3131C361.375 55.8288 360.802 55.445 360.171 55.1835C359.541 54.922 358.865 54.7881 358.182 54.7894ZM352.086 74.2736C350.479 74.2736 348.908 73.7952 347.571 72.8987C346.235 72.0023 345.194 70.7282 344.579 69.2377C343.964 67.7471 343.804 66.1071 344.118 64.5251C344.433 62.9431 345.207 61.4902 346.345 60.3502C347.482 59.2102 348.931 58.4343 350.507 58.1208C352.084 57.8073 353.718 57.9702 355.202 58.5888C356.687 59.2075 357.955 60.2541 358.847 61.5964C359.738 62.9386 360.213 64.5161 360.211 66.1292C360.21 67.1988 359.999 68.2576 359.59 69.2452C359.181 70.2328 358.582 71.13 357.828 71.8853C357.073 72.6407 356.178 73.2396 355.193 73.6477C354.208 74.0558 353.152 74.2652 352.086 74.2639V74.2736Z" fill="#407BFF"/>
<g opacity="0.7">
<path d="M349.94 70.2695L356.337 66.1194L349.94 61.9595V70.2695Z" fill="white"/>
<path d="M358.182 54.7893H345.99C344.613 54.7893 343.292 55.3384 342.318 56.3159C341.344 57.2933 340.797 58.619 340.797 60.0014V72.2375C340.799 73.619 341.347 74.9432 342.32 75.9201C343.294 76.897 344.613 77.4469 345.99 77.4495H358.182C359.559 77.4495 360.88 76.9004 361.854 75.9229C362.828 74.9455 363.375 73.6198 363.375 72.2375V60.0014C363.377 59.3165 363.243 58.6382 362.983 58.0053C362.722 57.3723 362.34 56.7973 361.857 56.313C361.375 55.8288 360.802 55.4449 360.171 55.1834C359.54 54.922 358.864 54.788 358.182 54.7893ZM352.086 74.2736C350.479 74.2736 348.907 73.7951 347.571 72.8987C346.235 72.0022 345.193 70.7282 344.579 69.2376C343.964 67.7471 343.804 66.1071 344.118 64.525C344.432 62.943 345.207 61.4901 346.344 60.3501C347.482 59.2101 348.93 58.4343 350.507 58.1208C352.084 57.8072 353.718 57.9701 355.202 58.5888C356.686 59.2074 357.955 60.2541 358.846 61.5963C359.738 62.9385 360.213 64.516 360.211 66.1292C360.21 67.1987 359.998 68.2575 359.589 69.2451C359.18 70.2328 358.582 71.1299 357.827 71.8853C357.073 72.6407 356.177 73.2395 355.192 73.6476C354.207 74.0557 353.152 74.2651 352.086 74.2638V74.2736Z" fill="white"/>
</g>
<path d="M370.151 101.717C370.151 101.464 370.151 101.211 370.151 100.967L371.617 100.149C371.51 99.4521 371.328 98.7693 371.073 98.1126H369.404C369.191 97.6552 368.938 97.2183 368.646 96.8071L369.51 95.375C369.068 94.8253 368.57 94.3226 368.025 93.8747L366.589 94.7418C366.181 94.4546 365.749 94.2036 365.297 93.9916V92.3063C364.641 92.0573 363.961 91.8745 363.269 91.7607L362.453 93.2318C362.211 93.2318 361.958 93.2318 361.706 93.2318C361.453 93.2318 361.211 93.2318 360.958 93.2318L360.143 91.7607C359.451 91.8769 358.771 92.0596 358.114 92.3063V93.9916C357.662 94.2014 357.23 94.4525 356.823 94.7418L355.386 93.8747C354.836 94.3198 354.335 94.8228 353.891 95.375L354.755 96.8071C354.471 97.2207 354.221 97.6574 354.008 98.1126H352.338C352.085 98.7705 351.9 99.4527 351.785 100.149L353.251 100.967C353.251 101.211 353.251 101.464 353.251 101.717C353.251 101.97 353.251 102.224 353.251 102.467L351.785 103.286C351.898 103.982 352.084 104.664 352.338 105.322H354.008C354.221 105.777 354.471 106.214 354.755 106.627L353.891 108.069C354.338 108.616 354.839 109.115 355.386 109.56L356.823 108.693C357.227 108.985 357.66 109.237 358.114 109.443V111.128C358.77 111.379 359.45 111.562 360.143 111.674L360.958 110.203C361.211 110.203 361.453 110.203 361.706 110.203C361.958 110.203 362.211 110.203 362.453 110.203L363.269 111.674C363.962 111.564 364.642 111.382 365.297 111.128V109.443C365.751 109.234 366.183 108.983 366.589 108.693L368.025 109.56C368.568 109.113 369.065 108.613 369.51 108.069L368.646 106.627C368.938 106.216 369.191 105.779 369.404 105.322H371.073C371.329 104.665 371.511 103.982 371.617 103.286L370.151 102.467C370.132 102.195 370.151 101.97 370.151 101.717ZM361.686 107.484C360.55 107.484 359.439 107.146 358.494 106.513C357.549 105.879 356.812 104.978 356.377 103.924C355.942 102.87 355.828 101.711 356.05 100.592C356.272 99.4732 356.819 98.4456 357.623 97.639C358.427 96.8324 359.451 96.2832 360.565 96.0606C361.68 95.8381 362.835 95.9523 363.886 96.3888C364.936 96.8253 365.833 97.5645 366.465 98.513C367.096 99.4614 367.433 100.576 367.433 101.717C367.433 103.247 366.828 104.714 365.75 105.795C364.672 106.877 363.21 107.484 361.686 107.484Z" fill="#407BFF"/>
<path opacity="0.7" d="M370.151 101.717C370.151 101.464 370.151 101.211 370.151 100.967L371.617 100.149C371.51 99.4521 371.328 98.7693 371.073 98.1126H369.404C369.191 97.6552 368.938 97.2183 368.646 96.8071L369.51 95.375C369.068 94.8253 368.57 94.3226 368.025 93.8747L366.589 94.7418C366.181 94.4546 365.749 94.2036 365.297 93.9916V92.3063C364.641 92.0573 363.961 91.8745 363.269 91.7607L362.453 93.2318C362.211 93.2318 361.958 93.2318 361.706 93.2318C361.453 93.2318 361.211 93.2318 360.958 93.2318L360.143 91.7607C359.451 91.8769 358.771 92.0596 358.114 92.3063V93.9916C357.662 94.2014 357.23 94.4525 356.823 94.7418L355.386 93.8747C354.836 94.3198 354.335 94.8228 353.891 95.375L354.755 96.8071C354.471 97.2207 354.221 97.6574 354.008 98.1126H352.338C352.085 98.7705 351.9 99.4527 351.785 100.149L353.251 100.967C353.251 101.211 353.251 101.464 353.251 101.717C353.251 101.97 353.251 102.224 353.251 102.467L351.785 103.286C351.898 103.982 352.084 104.664 352.338 105.322H354.008C354.221 105.777 354.471 106.214 354.755 106.627L353.891 108.069C354.338 108.616 354.839 109.115 355.386 109.56L356.823 108.693C357.227 108.985 357.66 109.237 358.114 109.443V111.128C358.77 111.379 359.45 111.562 360.143 111.674L360.958 110.203C361.211 110.203 361.453 110.203 361.706 110.203C361.958 110.203 362.211 110.203 362.453 110.203L363.269 111.674C363.962 111.564 364.642 111.382 365.297 111.128V109.443C365.751 109.234 366.183 108.983 366.589 108.693L368.025 109.56C368.568 109.113 369.065 108.613 369.51 108.069L368.646 106.627C368.938 106.216 369.191 105.779 369.404 105.322H371.073C371.329 104.665 371.511 103.982 371.617 103.286L370.151 102.467C370.132 102.195 370.151 101.97 370.151 101.717ZM361.686 107.484C360.55 107.484 359.439 107.146 358.494 106.513C357.549 105.879 356.812 104.978 356.377 103.924C355.942 102.87 355.828 101.711 356.05 100.592C356.272 99.4732 356.819 98.4456 357.623 97.639C358.427 96.8324 359.451 96.2832 360.565 96.0606C361.68 95.8381 362.835 95.9523 363.886 96.3888C364.936 96.8253 365.833 97.5645 366.465 98.513C367.096 99.4614 367.433 100.576 367.433 101.717C367.433 103.247 366.828 104.714 365.75 105.795C364.672 106.877 363.21 107.484 361.686 107.484Z" fill="white"/>
<path d="M348.029 130.681C348.029 130.301 348.029 129.93 347.98 129.56L350.174 128.342C350.009 127.297 349.736 126.272 349.359 125.283L346.854 125.332C346.538 124.65 346.161 123.998 345.728 123.384L347.019 121.231C346.358 120.411 345.613 119.663 344.796 119L342.651 120.286C342.036 119.858 341.387 119.483 340.709 119.165V116.652C339.728 116.272 338.71 115.998 337.671 115.833L336.458 118.035C336.089 118.035 335.72 118.035 335.341 118.035C334.963 118.035 334.594 118.035 334.225 118.035L333.041 115.833C332.003 116 330.984 116.275 330.002 116.652V119.165C329.325 119.483 328.675 119.857 328.061 120.286L325.964 119C325.145 119.663 324.396 120.411 323.732 121.231L325.023 123.384C324.593 123.998 324.219 124.65 323.906 125.332L321.402 125.283C321.02 126.27 320.747 127.296 320.586 128.342L322.78 129.56C322.703 130.305 322.703 131.056 322.78 131.801L320.586 133.028C320.748 134.071 321.021 135.094 321.402 136.078L323.906 136.029C324.217 136.712 324.591 137.364 325.023 137.977L323.732 140.13C324.396 140.95 325.145 141.698 325.964 142.361L328.11 141.075C328.721 141.507 329.371 141.882 330.051 142.196V144.709C331.031 145.091 332.05 145.365 333.089 145.528L334.312 143.326C335.055 143.404 335.803 143.404 336.545 143.326L337.758 145.528C338.798 145.368 339.817 145.093 340.797 144.709V142.196C341.476 141.882 342.126 141.507 342.738 141.075L344.884 142.361C345.7 141.698 346.445 140.95 347.107 140.13L345.815 137.977C346.25 137.364 346.627 136.712 346.942 136.029L349.446 136.078C349.822 135.092 350.095 134.07 350.261 133.028L348.068 131.801C348.009 131.421 348.029 131.06 348.029 130.681ZM335.409 135.688C334.423 135.688 333.458 135.394 332.637 134.844C331.817 134.294 331.177 133.512 330.8 132.597C330.422 131.682 330.323 130.675 330.516 129.704C330.708 128.732 331.183 127.84 331.881 127.14C332.579 126.439 333.468 125.962 334.436 125.769C335.404 125.576 336.407 125.675 337.319 126.054C338.23 126.433 339.01 127.075 339.558 127.899C340.106 128.722 340.399 129.69 340.399 130.681C340.399 131.341 340.269 131.994 340.016 132.604C339.764 133.213 339.394 133.766 338.927 134.232C338.461 134.697 337.907 135.065 337.299 135.315C336.69 135.565 336.038 135.692 335.38 135.688H335.409Z" fill="#407BFF"/>
<path opacity="0.7" d="M348.029 130.681C348.029 130.301 348.029 129.93 347.98 129.56L350.174 128.342C350.009 127.297 349.736 126.272 349.359 125.283L346.854 125.332C346.538 124.65 346.161 123.998 345.728 123.384L347.019 121.231C346.358 120.411 345.613 119.663 344.796 119L342.651 120.286C342.036 119.858 341.387 119.483 340.709 119.165V116.652C339.728 116.272 338.71 115.998 337.671 115.833L336.458 118.035C336.089 118.035 335.72 118.035 335.341 118.035C334.963 118.035 334.594 118.035 334.225 118.035L333.041 115.833C332.003 116 330.984 116.275 330.002 116.652V119.165C329.325 119.483 328.675 119.857 328.061 120.286L325.964 119C325.145 119.663 324.396 120.411 323.732 121.231L325.023 123.384C324.593 123.998 324.219 124.65 323.906 125.332L321.402 125.283C321.02 126.27 320.747 127.296 320.586 128.342L322.78 129.56C322.703 130.305 322.703 131.056 322.78 131.801L320.586 133.028C320.748 134.071 321.021 135.094 321.402 136.078L323.906 136.029C324.217 136.712 324.591 137.364 325.023 137.977L323.732 140.13C324.396 140.95 325.145 141.698 325.964 142.361L328.11 141.075C328.721 141.507 329.371 141.882 330.051 142.196V144.709C331.031 145.091 332.05 145.365 333.089 145.528L334.312 143.326C335.055 143.404 335.803 143.404 336.545 143.326L337.758 145.528C338.798 145.368 339.817 145.093 340.797 144.709V142.196C341.476 141.882 342.126 141.507 342.738 141.075L344.884 142.361C345.7 141.698 346.445 140.95 347.107 140.13L345.815 137.977C346.25 137.364 346.627 136.712 346.942 136.029L349.446 136.078C349.822 135.092 350.095 134.07 350.261 133.028L348.068 131.801C348.009 131.421 348.029 131.06 348.029 130.681ZM335.409 135.688C334.423 135.688 333.458 135.394 332.637 134.844C331.817 134.294 331.177 133.512 330.8 132.597C330.422 131.682 330.323 130.675 330.516 129.704C330.708 128.732 331.183 127.84 331.881 127.14C332.579 126.439 333.468 125.962 334.436 125.769C335.404 125.576 336.407 125.675 337.319 126.054C338.23 126.433 339.01 127.075 339.558 127.899C340.106 128.722 340.399 129.69 340.399 130.681C340.399 131.341 340.269 131.994 340.016 132.604C339.764 133.213 339.394 133.766 338.927 134.232C338.461 134.697 337.907 135.065 337.299 135.315C336.69 135.565 336.038 135.692 335.38 135.688H335.409Z" fill="white"/>
<path d="M312.375 74.1956V79.3005L307.521 81.8627C307.332 81.9643 307.175 82.1154 307.065 82.2998C306.955 82.4842 306.897 82.6951 306.897 82.91C306.897 83.1249 306.955 83.3358 307.065 83.5202C307.175 83.7046 307.332 83.8556 307.521 83.9573L312.375 86.5194V91.6243C312.375 92.1695 312.59 92.6923 312.975 93.0778C313.359 93.4633 313.88 93.6799 314.423 93.6799H331.789C332.333 93.6799 332.855 93.4637 333.241 93.0784C333.626 92.6932 333.844 92.1704 333.847 91.6243V74.1956C333.847 73.6479 333.63 73.1226 333.244 72.7352C332.858 72.3479 332.335 72.1303 331.789 72.1303H314.394C313.854 72.138 313.339 72.3593 312.961 72.7461C312.583 73.1328 312.372 73.6538 312.375 74.1956Z" fill="#407BFF"/>
<g opacity="0.9">
<path d="M318.315 79.5149H328.188C328.509 79.5149 328.818 79.3866 329.046 79.1582C329.273 78.9298 329.401 78.6201 329.401 78.2971C329.401 77.9741 329.273 77.6644 329.046 77.436C328.818 77.2076 328.509 77.0793 328.188 77.0793H318.315C317.994 77.0793 317.685 77.2076 317.457 77.436C317.23 77.6644 317.102 77.9741 317.102 78.2971C317.102 78.6201 317.23 78.9298 317.457 79.1582C317.685 79.3866 317.994 79.5149 318.315 79.5149Z" fill="white"/>
<path d="M328.188 81.7361H318.315C317.994 81.7361 317.685 81.8644 317.457 82.0928C317.23 82.3211 317.102 82.6309 317.102 82.9539C317.102 83.2768 317.23 83.5866 317.457 83.8149C317.685 84.0433 317.994 84.1716 318.315 84.1716H328.188C328.509 84.1716 328.818 84.0433 329.046 83.8149C329.273 83.5866 329.401 83.2768 329.401 82.9539C329.401 82.6309 329.273 82.3211 329.046 82.0928C328.818 81.8644 328.509 81.7361 328.188 81.7361Z" fill="white"/>
<path d="M328.188 86.3052H318.315C317.994 86.3052 317.685 86.4335 317.457 86.6619C317.23 86.8902 317.102 87.2 317.102 87.5229C317.102 87.8459 317.23 88.1557 317.457 88.384C317.685 88.6124 317.994 88.7407 318.315 88.7407H328.188C328.509 88.7407 328.818 88.6124 329.046 88.384C329.273 88.1557 329.401 87.8459 329.401 87.5229C329.401 87.2 329.273 86.8902 329.046 86.6619C328.818 86.4335 328.509 86.3052 328.188 86.3052Z" fill="white"/>
</g>
<path d="M214.234 66.1487H218.379L220.515 70.2112C220.656 70.476 220.865 70.6975 221.122 70.852C221.378 71.0064 221.672 71.088 221.971 71.088C222.27 71.088 222.564 71.0064 222.82 70.852C223.076 70.6975 223.286 70.476 223.427 70.2112L225.563 66.1487H229.708C230.101 66.1487 230.491 66.0708 230.854 65.9194C231.217 65.768 231.547 65.5461 231.825 65.2664C232.103 64.9868 232.323 64.6548 232.473 64.2897C232.622 63.9245 232.699 63.5333 232.697 63.1384V47.6387C232.697 46.8429 232.382 46.0796 231.822 45.5169C231.261 44.9542 230.501 44.6381 229.708 44.6381H214.234C213.841 44.6368 213.452 44.7135 213.089 44.8639C212.725 45.0142 212.395 45.2352 212.117 45.5141C211.839 45.7929 211.619 46.1242 211.469 46.4889C211.32 46.8535 211.243 47.2443 211.245 47.6387V63.2261C211.265 64.0083 211.589 64.7516 212.147 65.2976C212.706 65.8436 213.455 66.149 214.234 66.1487Z" fill="#407BFF"/>
<path opacity="0.9" d="M221.981 49.285L217.205 52.0908V60.2936H220.758V54.7893H223.214V60.2936H226.767V52.0908L221.981 49.285Z" fill="white"/>
<path d="M260.732 289.039H257.043L254.665 284.499C254.547 284.279 254.372 284.096 254.158 283.968C253.944 283.84 253.7 283.772 253.451 283.772C253.203 283.772 252.958 283.84 252.745 283.968C252.531 284.096 252.356 284.279 252.238 284.499L249.86 289.039H246.074C245.17 289.039 244.304 289.399 243.665 290.04C243.026 290.682 242.667 291.552 242.667 292.458V307.169C242.667 308.076 243.026 308.946 243.665 309.587C244.304 310.228 245.17 310.589 246.074 310.589H260.732C261.636 310.589 262.502 310.228 263.141 309.587C263.78 308.946 264.139 308.076 264.139 307.169V292.458C264.139 291.552 263.78 290.682 263.141 290.04C262.502 289.399 261.636 289.039 260.732 289.039Z" fill="#407BFF"/>
<path opacity="0.9" d="M255.48 294.66C254.768 293.945 253.868 293.449 252.886 293.229C251.903 293.009 250.878 293.074 249.931 293.418C248.984 293.761 248.154 294.368 247.538 295.167C246.922 295.967 246.546 296.926 246.454 297.932C246.361 298.939 246.557 299.951 247.016 300.85C247.476 301.749 248.182 302.498 249.051 303.009C249.919 303.52 250.915 303.772 251.921 303.736C252.928 303.7 253.903 303.377 254.733 302.805C254.773 303.046 254.885 303.27 255.053 303.448L258.354 306.75C258.576 306.974 258.878 307.099 259.193 307.099C259.508 307.099 259.81 306.974 260.033 306.75C260.256 306.527 260.381 306.224 260.381 305.907C260.381 305.591 260.256 305.288 260.033 305.065L256.742 301.762C256.565 301.586 256.338 301.471 256.092 301.431C256.79 300.407 257.11 299.171 256.999 297.935C256.887 296.7 256.35 295.542 255.48 294.66ZM254.354 301.061C253.834 301.582 253.172 301.937 252.451 302.081C251.73 302.224 250.982 302.15 250.303 301.867C249.624 301.585 249.044 301.107 248.635 300.493C248.227 299.88 248.009 299.158 248.009 298.421C248.009 297.683 248.227 296.962 248.635 296.348C249.044 295.735 249.624 295.256 250.303 294.974C250.982 294.691 251.73 294.617 252.451 294.761C253.172 294.904 253.834 295.259 254.354 295.78C254.7 296.127 254.974 296.539 255.161 296.992C255.349 297.445 255.445 297.93 255.445 298.421C255.445 298.911 255.349 299.397 255.161 299.85C254.974 300.303 254.7 300.714 254.354 301.061Z" fill="white"/>
<path d="M417.493 191.072C417.493 191.072 409.582 210.751 401.836 212.875C394.089 214.999 382.421 213.274 382.421 213.274L378.81 214.249L375.267 213.722H375.141L371.151 213.625C371.007 213.637 370.863 213.608 370.735 213.54C370.607 213.472 370.502 213.37 370.43 213.244C370.359 213.118 370.325 212.974 370.332 212.829C370.339 212.684 370.388 212.545 370.472 212.427L371.899 210.478C372.018 210.318 372.185 210.199 372.374 210.137L376.179 208.91C376.33 208.876 376.485 208.876 376.636 208.91L382.46 209.835C382.46 209.835 398.623 207.176 400.273 205.675C401.923 204.175 406.786 188.442 406.786 188.442L417.493 191.072Z" fill="#EEC1BB"/>
<path opacity="0.1" d="M382.819 209.709L382.441 209.767L376.616 208.842C376.466 208.808 376.31 208.808 376.16 208.842L372.355 210.069C372.165 210.131 371.999 210.25 371.879 210.41L370.452 212.359C370.368 212.477 370.32 212.616 370.313 212.761C370.305 212.906 370.339 213.049 370.411 213.175C370.482 213.301 370.588 213.404 370.716 213.472C370.843 213.539 370.988 213.569 371.132 213.557L375.121 213.654H375.248L377.626 214.005C379.654 212.979 381.429 211.511 382.819 209.709Z" fill="black"/>
<path d="M422.269 171.578C416.522 169.688 408.436 174.023 405.339 192.183L417.27 195.719C417.27 195.719 430.481 174.286 422.269 171.578Z" fill="#407BFF"/>
<path d="M388.838 147.846C388.838 148.45 389.158 148.928 389.546 148.928C389.935 148.928 390.274 148.411 390.245 147.827C390.216 147.242 389.925 146.755 389.537 146.765C389.148 146.775 388.838 147.252 388.838 147.846Z" fill="#263238"/>
<path d="M391.187 148.44L388.362 153.126C388.362 153.126 389.333 154.237 391.459 153.419L391.187 148.44Z" fill="#D4827D"/>
<path d="M391.72 144.086C391.686 144.125 391.642 144.155 391.593 144.172C391.543 144.189 391.49 144.193 391.439 144.183C391.057 144.117 390.665 144.144 390.295 144.261C389.925 144.378 389.589 144.582 389.313 144.855C389.254 144.911 389.176 144.942 389.095 144.942C389.014 144.942 388.936 144.911 388.876 144.855C388.82 144.794 388.789 144.714 388.789 144.631C388.789 144.548 388.82 144.468 388.876 144.407C389.219 144.055 389.642 143.792 390.109 143.641C390.576 143.49 391.072 143.455 391.555 143.54C391.596 143.545 391.636 143.558 391.672 143.578C391.708 143.599 391.739 143.626 391.764 143.658C391.79 143.691 391.808 143.728 391.819 143.768C391.83 143.808 391.833 143.85 391.827 143.891C391.812 143.965 391.775 144.033 391.72 144.086Z" fill="#263238"/>
<path d="M411.679 143.599C412.116 151.519 412.475 154.87 408.99 159.371C403.428 164.193 393.953 164.963 391.158 157.335C388.644 150.516 388.352 138.698 395.652 134.616C396.89 133.924 398.252 133.483 399.66 133.32C401.069 133.156 402.495 133.272 403.858 133.662C405.221 134.052 406.494 134.708 407.605 135.592C408.715 136.476 409.641 137.572 410.329 138.815C411.137 140.285 411.599 141.922 411.679 143.599Z" fill="#EEC1BB"/>
<path d="M400.68 160.93L402.68 172.669L412.426 170.409L409.019 158.426L400.68 160.93Z" fill="#EEC1BB"/>
<path d="M393.662 144.183C394.157 139.039 392.391 144.982 390.022 138.192C387.654 131.401 398.846 125.887 400.632 127.154C402.418 128.42 401.399 130.359 407.32 131.46C408.936 131.717 410.402 132.557 411.446 133.821C412.489 135.085 413.038 136.687 412.989 138.328C412.989 138.328 416.397 139.906 415.183 147.252C414.293 151.959 412.296 156.384 409.359 160.16C409.359 160.16 407.117 157.842 403.535 159.975C402.137 159.059 400.954 157.849 400.069 156.429C398.477 154.032 397.982 151.753 395.798 151.558C391.236 151.139 393.497 145.878 393.662 144.183Z" fill="#263238"/>
<path d="M412.358 139.215C412.358 139.215 417.212 136.234 415.057 133.106C412.902 129.979 413.94 136.555 412.358 139.215Z" fill="#263238"/>
<path d="M395.05 147.174C393.974 148.382 393.419 149.969 393.507 151.587C393.643 153.73 395.739 154.11 397.39 152.941C399.04 151.772 400.603 149.493 399.651 147.612C399.44 147.202 399.13 146.852 398.749 146.593C398.368 146.335 397.928 146.176 397.47 146.133C397.012 146.089 396.551 146.161 396.128 146.343C395.705 146.525 395.334 146.811 395.05 147.174Z" fill="#FFC3BD"/>
<path opacity="0.1" d="M400.865 162.04L401.661 166.697C401.591 165.544 401.749 164.388 402.125 163.297C402.502 162.205 403.089 161.199 403.855 160.336C403.26 160.374 402.682 160.547 402.164 160.843C401.646 161.138 401.202 161.548 400.865 162.04Z" fill="black"/>
<path d="M332.342 192.319H329.556V208.812H332.342V192.319Z" fill="#407BFF"/>
<path opacity="0.7" d="M332.342 192.319H329.556V208.812H332.342V192.319Z" fill="white"/>
<path d="M313.199 159.566H306.258C305.01 159.566 303.812 160.064 302.929 160.95C302.046 161.836 301.55 163.038 301.55 164.291V196.567C301.55 197.187 301.672 197.801 301.909 198.375C302.145 198.948 302.492 199.469 302.929 199.908C303.367 200.346 303.886 200.694 304.457 200.932C305.028 201.169 305.64 201.291 306.258 201.291H313.199V159.566Z" fill="#407BFF"/>
<path d="M355.648 159.566H308.685C306.084 159.566 303.977 161.681 303.977 164.291V196.557C303.977 199.166 306.084 201.282 308.685 201.282H355.648C358.248 201.282 360.356 199.166 360.356 196.557V164.291C360.356 161.681 358.248 159.566 355.648 159.566Z" fill="#407BFF"/>
<path opacity="0.5" d="M355.648 159.566H308.685C306.084 159.566 303.977 161.681 303.977 164.291V196.557C303.977 199.166 306.084 201.282 308.685 201.282H355.648C358.248 201.282 360.356 199.166 360.356 196.557V164.291C360.356 161.681 358.248 159.566 355.648 159.566Z" fill="white"/>
<path d="M355.649 161.514H308.685C307.157 161.514 305.919 162.757 305.919 164.291V196.557C305.919 198.09 307.157 199.333 308.685 199.333H355.649C357.177 199.333 358.415 198.09 358.415 196.557V164.291C358.415 162.757 357.177 161.514 355.649 161.514Z" fill="#263238"/>
<path d="M320.809 215.729C320.891 213.085 321.995 210.577 323.887 208.735C325.78 206.894 328.312 205.864 330.948 205.864C333.584 205.864 336.117 206.894 338.009 208.735C339.902 210.577 341.006 213.085 341.087 215.729H320.809Z" fill="#407BFF"/>
<path d="M344.738 212.261H324.459V215.564H365.016V214.21L344.738 212.261Z" fill="#407BFF"/>
<path opacity="0.8" d="M344.738 212.261H324.459V215.564H365.016V214.21L344.738 212.261Z" fill="white"/>
<path d="M344.738 215.564H324.459V212.261L344.738 214.21V215.564Z" fill="#407BFF"/>
<path opacity="0.6" d="M344.738 215.564H324.459V212.261L344.738 214.21V215.564Z" fill="white"/>
<path d="M389.449 329.264H347.62C346.786 329.265 345.959 329.102 345.188 328.782C344.416 328.462 343.715 327.993 343.125 327.401C342.534 326.81 342.066 326.107 341.746 325.333C341.427 324.56 341.262 323.73 341.262 322.893V226.368C341.262 225.53 341.427 224.701 341.746 223.927C342.066 223.154 342.534 222.451 343.125 221.859C343.715 221.267 344.416 220.798 345.188 220.479C345.959 220.159 346.786 219.995 347.62 219.996H389.449C389.899 219.996 390.331 220.176 390.65 220.496C390.968 220.815 391.147 221.249 391.147 221.701C391.147 222.153 390.968 222.587 390.65 222.907C390.331 223.227 389.899 223.406 389.449 223.406H347.62C347.234 223.4 346.85 223.47 346.491 223.614C346.132 223.758 345.805 223.973 345.53 224.245C345.254 224.517 345.035 224.841 344.886 225.199C344.736 225.557 344.659 225.941 344.66 226.329V322.854C344.659 323.242 344.736 323.626 344.886 323.984C345.035 324.341 345.254 324.666 345.53 324.938C345.805 325.21 346.132 325.424 346.491 325.568C346.85 325.712 347.234 325.783 347.62 325.776H389.449C389.899 325.776 390.331 325.956 390.65 326.276C390.968 326.596 391.147 327.029 391.147 327.481C391.158 327.712 391.122 327.942 391.041 328.158C390.96 328.374 390.837 328.571 390.678 328.738C390.519 328.904 390.329 329.037 390.117 329.127C389.906 329.218 389.678 329.264 389.449 329.264Z" fill="#263238"/>
<g opacity="0.5">
<path d="M389.449 329.264H347.62C346.786 329.265 345.959 329.102 345.188 328.782C344.417 328.462 343.716 327.993 343.125 327.401C342.535 326.81 342.066 326.107 341.746 325.333C341.427 324.56 341.262 323.73 341.262 322.893V226.368C341.262 225.53 341.427 224.701 341.746 223.927C342.066 223.154 342.535 222.451 343.125 221.859C343.716 221.267 344.417 220.798 345.188 220.479C345.959 220.159 346.786 219.995 347.62 219.996H389.449C389.899 219.996 390.332 220.176 390.65 220.496C390.969 220.815 391.148 221.249 391.148 221.701C391.148 222.153 390.969 222.587 390.65 222.907C390.332 223.227 389.899 223.406 389.449 223.406H347.62C347.234 223.4 346.85 223.47 346.491 223.614C346.132 223.758 345.805 223.973 345.53 224.245C345.254 224.517 345.035 224.841 344.886 225.199C344.737 225.557 344.66 225.941 344.66 226.329V322.854C344.66 323.242 344.737 323.626 344.886 323.984C345.035 324.341 345.254 324.666 345.53 324.938C345.805 325.21 346.132 325.424 346.491 325.568C346.85 325.712 347.234 325.783 347.62 325.776H389.449C389.899 325.776 390.332 325.956 390.65 326.276C390.969 326.596 391.148 327.029 391.148 327.481C391.158 327.712 391.122 327.942 391.041 328.158C390.961 328.374 390.837 328.571 390.678 328.738C390.52 328.904 390.329 329.037 390.117 329.127C389.906 329.218 389.679 329.264 389.449 329.264Z" fill="white"/>
</g>
<path d="M347.456 215.564H288.057V220.561H347.456V215.564Z" fill="#407BFF"/>
<path opacity="0.2" d="M347.456 215.564H288.057V220.561H347.456V215.564Z" fill="white"/>
<path d="M395.4 215.564H344.738V220.561H395.4V215.564Z" fill="#407BFF"/>
<path opacity="0.5" d="M395.4 215.564H344.738V220.561H395.4V215.564Z" fill="white"/>
<path d="M377.635 293.852L380.441 322.318H373.723L366.996 294.592L377.635 293.852Z" fill="#EEC1BB"/>
<path d="M373.093 320.418L381.664 320.564C381.821 320.568 381.971 320.625 382.091 320.726C382.211 320.827 382.293 320.966 382.324 321.12L383.761 328.144C383.821 328.442 383.763 328.752 383.597 329.007C383.432 329.262 383.174 329.442 382.877 329.508H382.635C379.538 329.4 376.81 329.186 372.928 329.118C368.394 329.04 369.53 329.605 364.191 329.595C360.978 329.595 360.454 325.903 361.813 325.747C368.074 325.065 368.753 323.185 371.2 320.983C371.74 320.568 372.414 320.367 373.093 320.418Z" fill="#263238"/>
<path opacity="0.1" d="M379.713 314.885L377.635 293.852L366.996 294.592L371.918 314.885H379.713Z" fill="black"/>
<path d="M423.628 228.219L396.079 229.193C396.079 229.193 358.968 242.218 357.997 252.223C356.93 262.531 369.394 309.887 369.394 309.887H380.47C380.47 309.887 377.412 275.137 376.247 264.499C375.082 253.86 414.872 257.377 421.783 248.307C428.103 239.987 423.628 228.219 423.628 228.219Z" fill="#263238"/>
<path opacity="0.2" d="M423.628 228.219L396.079 229.193C396.079 229.193 358.968 242.218 357.997 252.223C356.93 262.531 369.394 309.887 369.394 309.887H380.47C380.47 309.887 377.412 275.137 376.247 264.499C375.082 253.86 414.872 257.377 421.783 248.307C428.103 239.987 423.628 228.219 423.628 228.219Z" fill="black"/>
<path d="M382.314 308.328L382.557 312.254H368.869L367.53 308.328H382.314Z" fill="#407BFF"/>
<path d="M351.999 295.206L352.737 322.318H346.136L342.224 295.206H351.999Z" fill="#EEC1BB"/>
<path d="M345.223 320.418L353.795 320.564C353.951 320.568 354.102 320.625 354.222 320.726C354.342 320.827 354.424 320.966 354.455 321.12L355.891 328.144C355.952 328.442 355.893 328.752 355.728 329.007C355.563 329.263 355.304 329.442 355.008 329.508H354.765C351.669 329.401 348.941 329.186 345.058 329.118C340.515 329.04 341.661 329.605 336.322 329.595C333.109 329.595 332.584 325.903 333.943 325.747C340.205 325.065 340.884 323.185 343.33 320.983C343.87 320.567 344.544 320.366 345.223 320.418Z" fill="#263238"/>
<path opacity="0.1" d="M352.533 314.865L351.999 295.206H342.224L345.068 314.885C347.194 314.894 350.116 314.875 352.533 314.865Z" fill="black"/>
<path d="M411.65 230.508C411.65 230.508 413.941 251.532 392.633 252.516C371.326 253.5 354.688 255.945 354.202 263.553C353.717 271.162 354.202 309.926 354.202 309.926H342.622C342.622 309.926 338.117 285.415 336.36 270.217C334.652 255.458 331.507 244.751 346.621 239.753C362.667 234.434 391.187 229.524 391.187 229.524L411.727 228.219L411.65 230.508Z" fill="#263238"/>
<path d="M355.911 308.328L355.183 312.254H342.466L341.126 308.328H355.911Z" fill="#407BFF"/>
<path d="M416.241 170.195C416.241 170.195 416.241 165.46 406.698 166.006C396.564 166.59 398.476 171.13 398.476 171.13L416.241 170.195Z" fill="#407BFF"/>
<path opacity="0.3" d="M416.241 170.195C416.241 170.195 416.241 165.46 406.698 166.006C396.564 166.59 398.476 171.13 398.476 171.13L416.241 170.195Z" fill="black"/>
<path d="M425.133 191.432C424.492 200.795 424.716 228.959 424.716 228.959C424.716 228.959 404.33 230.304 388.333 229.777L386.479 175.602C386.486 174.644 386.781 173.71 387.324 172.923C387.868 172.136 388.636 171.531 389.527 171.188C394.05 169.425 404.67 167.428 421.279 169.62C427.006 170.389 425.89 180.365 425.133 191.432Z" fill="#671715"/>
<path d="M389.75 191.072C389.75 191.072 381.829 210.751 374.092 212.875C366.356 214.999 354.678 213.274 354.678 213.274L351.067 214.249L347.533 213.722H347.407L343.408 213.625C343.264 213.637 343.12 213.608 342.992 213.54C342.864 213.472 342.758 213.37 342.687 213.244C342.616 213.118 342.581 212.974 342.589 212.829C342.596 212.684 342.645 212.545 342.728 212.427L344.165 210.478C344.285 210.318 344.451 210.199 344.641 210.137L348.436 208.91C348.59 208.876 348.749 208.876 348.902 208.91L354.727 209.835C354.727 209.835 370.889 207.176 372.53 205.675C374.17 204.175 379.053 188.442 379.053 188.442L389.75 191.072Z" fill="#EEC1BB"/>
<path opacity="0.1" d="M389.546 181.914C389.546 181.914 388.313 183.385 386.818 185.509L387.352 201.194C393.303 198.554 395.662 183.181 395.662 183.181L391.779 180.434L389.546 181.914Z" fill="black"/>
<path d="M394.526 171.578C388.779 169.688 380.683 174.023 377.587 192.183L389.527 195.68C389.527 195.68 402.738 174.286 394.526 171.578Z" fill="#671715"/>
<path d="M402.126 262.716H393.147V289.127H402.126V262.716Z" fill="#263238"/>
<path opacity="0.6" d="M402.126 262.716H393.147V289.127H402.126V262.716Z" fill="white"/>
<path d="M403.515 313.053V279.501H391.749V313.053L364.967 316.784V320.516L397.632 317.72L430.297 320.516V316.784L403.515 313.053Z" fill="#263238"/>
<path d="M364.579 329.664C366.536 329.664 368.122 328.072 368.122 326.108C368.122 324.144 366.536 322.552 364.579 322.552C362.623 322.552 361.036 324.144 361.036 326.108C361.036 328.072 362.623 329.664 364.579 329.664Z" fill="#407BFF"/>
<path d="M430.297 329.664C432.254 329.664 433.84 328.072 433.84 326.108C433.84 324.144 432.254 322.552 430.297 322.552C428.34 322.552 426.754 324.144 426.754 326.108C426.754 328.072 428.34 329.664 430.297 329.664Z" fill="#407BFF"/>
<path d="M397.632 329.664C399.589 329.664 401.176 328.072 401.176 326.108C401.176 324.144 399.589 322.552 397.632 322.552C395.676 322.552 394.089 324.144 394.089 326.108C394.089 328.072 395.676 329.664 397.632 329.664Z" fill="#407BFF"/>
<path opacity="0.3" d="M402.126 262.716H393.147V269.243H402.126V262.716Z" fill="black"/>
<path d="M433.131 202.85H403.874C401.574 202.852 399.357 203.715 397.657 205.27C395.957 206.824 394.896 208.96 394.681 211.258L392.215 237.786C391.942 240.709 390.629 243.436 388.517 245.468C386.405 247.5 383.634 248.702 380.712 248.853L352.474 250.275C350.822 250.36 349.265 251.078 348.125 252.282C346.985 253.486 346.349 255.083 346.349 256.744V257.338C346.349 258.762 346.912 260.127 347.915 261.134C348.918 262.14 350.279 262.706 351.697 262.706H437.694L442.324 213.021C442.449 211.734 442.304 210.435 441.898 209.208C441.493 207.98 440.836 206.851 439.971 205.894C439.105 204.936 438.05 204.17 436.872 203.646C435.694 203.122 434.42 202.851 433.131 202.85Z" fill="#407BFF"/>
<path opacity="0.3" d="M433.131 202.85H403.874C401.574 202.852 399.357 203.715 397.657 205.27C395.957 206.824 394.896 208.96 394.681 211.258L392.215 237.786C391.942 240.709 390.629 243.436 388.517 245.468C386.405 247.5 383.634 248.702 380.712 248.853L352.474 250.275C350.822 250.36 349.265 251.078 348.125 252.282C346.985 253.486 346.349 255.083 346.349 256.744V257.338C346.349 258.762 346.912 260.127 347.915 261.134C348.918 262.14 350.279 262.706 351.697 262.706H437.694L442.324 213.021C442.449 211.734 442.304 210.435 441.898 209.208C441.493 207.98 440.836 206.851 439.971 205.894C439.105 204.936 438.05 204.17 436.872 203.646C435.694 203.122 434.42 202.851 433.131 202.85Z" fill="white"/>
<path d="M365.977 232.739H370.005V253.889C370.005 254.406 369.801 254.902 369.436 255.267C369.072 255.632 368.579 255.838 368.064 255.838H367.918C367.403 255.838 366.909 255.632 366.545 255.267C366.181 254.902 365.977 254.406 365.977 253.889V232.739Z" fill="#263238"/>
<path opacity="0.2" d="M365.977 232.739H370.005V253.889C370.005 254.406 369.801 254.902 369.436 255.267C369.072 255.632 368.579 255.838 368.064 255.838H367.918C367.403 255.838 366.909 255.632 366.545 255.267C366.181 254.902 365.977 254.406 365.977 253.889V232.739Z" fill="white"/>
<path d="M385.402 226.67H376.442V234.123H385.421C385.925 234.148 386.428 234.071 386.901 233.896C387.374 233.72 387.806 233.45 388.172 233.101C388.537 232.753 388.828 232.333 389.027 231.868C389.226 231.403 389.329 230.902 389.329 230.396C389.329 229.89 389.226 229.389 389.027 228.924C388.828 228.459 388.537 228.04 388.172 227.691C387.806 227.343 387.374 227.072 386.901 226.897C386.428 226.721 385.925 226.644 385.421 226.67H385.402Z" fill="#407BFF"/>
<path opacity="0.5" d="M385.402 226.67H376.442V234.123H385.421C385.925 234.148 386.428 234.071 386.901 233.896C387.374 233.72 387.806 233.45 388.172 233.101C388.537 232.753 388.828 232.333 389.027 231.868C389.226 231.403 389.329 230.902 389.329 230.396C389.329 229.89 389.226 229.389 389.027 228.924C388.828 228.459 388.537 228.04 388.172 227.691C387.806 227.343 387.374 227.072 386.901 226.897C386.428 226.721 385.925 226.644 385.421 226.67H385.402Z" fill="white"/>
<path d="M381.819 226.67H350.435C348.457 226.67 346.854 228.279 346.854 230.265V230.537C346.854 232.523 348.457 234.132 350.435 234.132H381.819C383.797 234.132 385.401 232.523 385.401 230.537V230.265C385.401 228.279 383.797 226.67 381.819 226.67Z" fill="#407BFF"/>
<path opacity="0.3" d="M381.819 226.67H350.435C348.457 226.67 346.854 228.279 346.854 230.265V230.537C346.854 232.523 348.457 234.132 350.435 234.132H381.819C383.797 234.132 385.401 232.523 385.401 230.537V230.265C385.401 228.279 383.797 226.67 381.819 226.67Z" fill="white"/>
<path d="M439.713 262.716H396.701L401.496 211.306C401.711 209.008 402.772 206.873 404.472 205.318C406.172 203.764 408.389 202.901 410.689 202.899H439.946C441.231 202.9 442.501 203.17 443.676 203.692C444.851 204.214 445.905 204.976 446.77 205.929C447.635 206.883 448.293 208.007 448.7 209.229C449.108 210.452 449.258 211.747 449.139 213.031L444.955 257.981C444.818 259.281 444.207 260.483 443.239 261.358C442.271 262.232 441.015 262.716 439.713 262.716Z" fill="#407BFF"/>
<path opacity="0.5" d="M439.713 262.716H396.701L401.496 211.306C401.711 209.008 402.772 206.873 404.472 205.318C406.172 203.764 408.389 202.901 410.689 202.899H439.946C441.231 202.9 442.501 203.17 443.676 203.692C444.851 204.214 445.905 204.976 446.77 205.929C447.635 206.883 448.293 208.007 448.7 209.229C449.108 210.452 449.258 211.747 449.139 213.031L444.955 257.981C444.818 259.281 444.207 260.483 443.239 261.358C442.271 262.232 441.015 262.716 439.713 262.716Z" fill="white"/>
<path d="M339.233 329.264H297.405C296.571 329.265 295.744 329.102 294.973 328.782C294.201 328.462 293.5 327.993 292.91 327.401C292.319 326.81 291.851 326.107 291.531 325.333C291.211 324.56 291.047 323.73 291.047 322.893V226.368C291.047 225.53 291.211 224.701 291.531 223.927C291.851 223.154 292.319 222.451 292.91 221.859C293.5 221.267 294.201 220.798 294.973 220.479C295.744 220.159 296.571 219.995 297.405 219.996H339.233C339.684 219.996 340.116 220.176 340.435 220.496C340.753 220.815 340.932 221.249 340.932 221.701C340.932 222.153 340.753 222.587 340.435 222.907C340.116 223.227 339.684 223.406 339.233 223.406H297.405C297.019 223.4 296.635 223.47 296.276 223.614C295.917 223.758 295.59 223.973 295.314 224.245C295.039 224.517 294.82 224.841 294.671 225.199C294.521 225.557 294.444 225.941 294.444 226.329V322.854C294.444 323.242 294.521 323.626 294.671 323.984C294.82 324.341 295.039 324.666 295.314 324.938C295.59 325.21 295.917 325.424 296.276 325.568C296.635 325.712 297.019 325.783 297.405 325.776H339.233C339.684 325.776 340.116 325.956 340.435 326.276C340.753 326.596 340.932 327.029 340.932 327.481C340.943 327.712 340.907 327.942 340.826 328.158C340.745 328.374 340.622 328.571 340.463 328.738C340.304 328.904 340.113 329.037 339.902 329.127C339.691 329.218 339.463 329.264 339.233 329.264Z" fill="#263238"/>
<g opacity="0.5">
<path d="M339.233 329.264H297.405C296.571 329.265 295.744 329.102 294.973 328.782C294.201 328.462 293.5 327.993 292.91 327.401C292.319 326.81 291.851 326.107 291.531 325.333C291.211 324.56 291.047 323.73 291.047 322.893V226.368C291.047 225.53 291.211 224.701 291.531 223.927C291.851 223.154 292.319 222.451 292.91 221.859C293.5 221.267 294.201 220.798 294.973 220.479C295.744 220.159 296.571 219.995 297.405 219.996H339.233C339.684 219.996 340.116 220.176 340.435 220.496C340.753 220.815 340.932 221.249 340.932 221.701C340.932 222.153 340.753 222.587 340.435 222.907C340.116 223.227 339.684 223.406 339.233 223.406H297.405C297.019 223.4 296.635 223.47 296.276 223.614C295.917 223.758 295.59 223.973 295.314 224.245C295.039 224.517 294.82 224.841 294.671 225.199C294.521 225.557 294.444 225.941 294.444 226.329V322.854C294.444 323.242 294.521 323.626 294.671 323.984C294.82 324.341 295.039 324.666 295.314 324.938C295.59 325.21 295.917 325.424 296.276 325.568C296.635 325.712 297.019 325.783 297.405 325.776H339.233C339.684 325.776 340.116 325.956 340.435 326.276C340.753 326.596 340.932 327.029 340.932 327.481C340.943 327.712 340.907 327.942 340.826 328.158C340.745 328.374 340.622 328.571 340.463 328.738C340.304 328.904 340.113 329.037 339.902 329.127C339.691 329.218 339.463 329.264 339.233 329.264Z" fill="white"/>
</g>
<path d="M311.588 169.211L308.675 167.262C308.601 167.215 308.54 167.149 308.498 167.072C308.456 166.994 308.434 166.907 308.434 166.819C308.434 166.731 308.456 166.644 308.498 166.566C308.54 166.489 308.601 166.423 308.675 166.376L311.588 164.427C311.695 164.357 311.825 164.332 311.951 164.357C312.076 164.383 312.186 164.457 312.257 164.564C312.325 164.67 312.348 164.799 312.323 164.922C312.297 165.046 312.225 165.155 312.122 165.226L309.704 166.834L312.122 168.441C312.225 168.512 312.297 168.621 312.323 168.745C312.348 168.868 312.325 168.997 312.257 169.103C312.18 169.204 312.068 169.27 311.944 169.29C311.819 169.31 311.692 169.282 311.588 169.211Z" fill="white"/>
<path d="M318.033 169.074C317.975 168.967 317.959 168.842 317.99 168.725C318.021 168.607 318.095 168.506 318.198 168.441L320.615 166.834L318.198 165.197C318.093 165.126 318.022 165.016 317.998 164.892C317.974 164.768 318.001 164.639 318.071 164.534C318.106 164.482 318.15 164.437 318.202 164.401C318.254 164.366 318.312 164.341 318.373 164.329C318.435 164.316 318.498 164.316 318.559 164.327C318.621 164.339 318.679 164.363 318.732 164.398L321.644 166.346C321.718 166.394 321.779 166.46 321.821 166.537C321.863 166.614 321.886 166.701 321.886 166.79C321.886 166.878 321.863 166.965 321.821 167.042C321.779 167.12 321.718 167.185 321.644 167.233L318.732 169.181C318.679 169.222 318.619 169.252 318.555 169.269C318.491 169.286 318.424 169.289 318.359 169.279C318.294 169.269 318.231 169.246 318.175 169.211C318.119 169.175 318.07 169.129 318.033 169.074Z" fill="white"/>
<path d="M314.044 170.389C313.983 170.371 313.928 170.34 313.879 170.299C313.831 170.259 313.791 170.209 313.762 170.153C313.734 170.096 313.716 170.035 313.711 169.972C313.706 169.909 313.713 169.846 313.733 169.785L315.742 163.414C315.76 163.354 315.789 163.298 315.829 163.25C315.869 163.202 315.917 163.162 315.973 163.133C316.028 163.103 316.088 163.086 316.151 163.081C316.213 163.075 316.275 163.083 316.334 163.102C316.394 163.12 316.45 163.15 316.498 163.189C316.546 163.229 316.586 163.278 316.615 163.334C316.644 163.389 316.662 163.45 316.667 163.512C316.672 163.574 316.665 163.637 316.645 163.697L314.645 170.078C314.627 170.138 314.596 170.194 314.556 170.243C314.515 170.291 314.465 170.331 314.409 170.36C314.353 170.389 314.292 170.406 314.229 170.412C314.167 170.417 314.103 170.409 314.044 170.389Z" fill="white"/>
<path d="M330.526 175.261H308.908C308.842 175.261 308.777 175.247 308.716 175.222C308.656 175.196 308.601 175.159 308.555 175.112C308.508 175.064 308.472 175.008 308.448 174.947C308.424 174.886 308.412 174.82 308.413 174.754C308.412 174.688 308.424 174.622 308.448 174.561C308.472 174.499 308.508 174.443 308.555 174.396C308.601 174.349 308.656 174.312 308.716 174.286C308.777 174.261 308.842 174.247 308.908 174.247H330.526C330.66 174.247 330.788 174.301 330.883 174.396C330.978 174.491 331.031 174.62 331.031 174.754C331.031 174.82 331.018 174.886 330.992 174.948C330.967 175.009 330.93 175.065 330.883 175.112C330.836 175.159 330.78 175.197 330.719 175.222C330.658 175.247 330.592 175.261 330.526 175.261Z" fill="white"/>
<path d="M355.357 175.261H333.729C333.663 175.261 333.598 175.247 333.536 175.222C333.475 175.197 333.419 175.159 333.373 175.112C333.326 175.065 333.289 175.009 333.263 174.948C333.238 174.886 333.225 174.821 333.225 174.754C333.235 174.627 333.292 174.507 333.386 174.421C333.479 174.334 333.602 174.286 333.729 174.286H355.338C355.472 174.286 355.6 174.34 355.695 174.435C355.789 174.53 355.843 174.659 355.843 174.793C355.833 174.917 355.778 175.034 355.689 175.12C355.599 175.206 355.481 175.256 355.357 175.261Z" fill="white"/>
<path d="M321.265 179.722H308.908C308.842 179.722 308.777 179.709 308.716 179.684C308.656 179.658 308.601 179.621 308.555 179.573C308.508 179.526 308.472 179.47 308.448 179.409C308.424 179.348 308.412 179.282 308.413 179.216C308.413 179.084 308.465 178.958 308.558 178.865C308.651 178.771 308.777 178.719 308.908 178.719H321.265C321.398 178.719 321.525 178.771 321.619 178.864C321.713 178.957 321.768 179.083 321.77 179.216C321.77 179.35 321.717 179.479 321.622 179.574C321.528 179.669 321.399 179.722 321.265 179.722Z" fill="white"/>
<path d="M344.718 179.722H324.479C324.413 179.722 324.348 179.709 324.287 179.684C324.226 179.658 324.171 179.621 324.125 179.573C324.079 179.526 324.043 179.47 324.019 179.409C323.994 179.348 323.982 179.282 323.984 179.216C323.984 179.084 324.036 178.958 324.129 178.865C324.222 178.771 324.348 178.719 324.479 178.719H344.718C344.85 178.719 344.976 178.771 345.068 178.865C345.161 178.958 345.213 179.084 345.213 179.216C345.215 179.282 345.203 179.348 345.179 179.409C345.154 179.47 345.118 179.526 345.072 179.573C345.026 179.621 344.971 179.658 344.91 179.684C344.849 179.709 344.784 179.722 344.718 179.722Z" fill="white"/>
<path d="M341.835 184.194H308.908C308.776 184.191 308.65 184.137 308.557 184.042C308.465 183.948 308.413 183.82 308.413 183.687C308.412 183.621 308.424 183.556 308.448 183.494C308.472 183.433 308.508 183.377 308.555 183.33C308.601 183.283 308.656 183.245 308.716 183.22C308.777 183.194 308.842 183.181 308.908 183.181H341.835C341.969 183.181 342.097 183.234 342.192 183.329C342.287 183.424 342.34 183.553 342.34 183.687C342.34 183.822 342.287 183.951 342.192 184.046C342.097 184.141 341.969 184.194 341.835 184.194Z" fill="white"/>
<path d="M351.931 184.194H345.058C344.924 184.194 344.796 184.141 344.701 184.046C344.607 183.951 344.553 183.822 344.553 183.687C344.553 183.553 344.607 183.424 344.701 183.329C344.796 183.234 344.924 183.181 345.058 183.181H351.931C352.065 183.181 352.193 183.234 352.288 183.329C352.382 183.424 352.436 183.553 352.436 183.687C352.436 183.822 352.382 183.951 352.288 184.046C352.193 184.141 352.065 184.194 351.931 184.194Z" fill="white"/>
<path d="M324.284 188.656H308.908C308.842 188.656 308.777 188.643 308.716 188.617C308.656 188.592 308.601 188.554 308.555 188.507C308.508 188.46 308.472 188.404 308.448 188.343C308.424 188.281 308.412 188.215 308.413 188.149C308.412 188.083 308.424 188.018 308.448 187.956C308.472 187.895 308.508 187.839 308.555 187.792C308.601 187.745 308.656 187.707 308.716 187.682C308.777 187.656 308.842 187.643 308.908 187.643H324.284C324.418 187.643 324.547 187.696 324.641 187.791C324.736 187.886 324.789 188.015 324.789 188.149C324.789 188.284 324.736 188.413 324.641 188.508C324.547 188.603 324.418 188.656 324.284 188.656Z" fill="white"/>
<path d="M346.64 188.656H327.507C327.373 188.656 327.245 188.603 327.15 188.508C327.056 188.413 327.002 188.284 327.002 188.149C327.002 188.015 327.056 187.886 327.15 187.791C327.245 187.696 327.373 187.643 327.507 187.643H346.64C346.774 187.643 346.902 187.696 346.997 187.791C347.092 187.886 347.145 188.015 347.145 188.149C347.145 188.284 347.092 188.413 346.997 188.508C346.902 188.603 346.774 188.656 346.64 188.656Z" fill="white"/>
<path d="M330.526 193.118H308.908C308.842 193.118 308.777 193.105 308.716 193.079C308.656 193.054 308.601 193.016 308.555 192.969C308.508 192.922 308.472 192.866 308.448 192.804C308.424 192.743 308.412 192.677 308.413 192.611C308.413 192.48 308.465 192.353 308.558 192.26C308.651 192.167 308.777 192.114 308.908 192.114H330.526C330.592 192.113 330.657 192.125 330.719 192.149C330.78 192.174 330.835 192.21 330.882 192.256C330.929 192.303 330.967 192.358 330.992 192.419C331.018 192.48 331.031 192.545 331.031 192.611C331.031 192.746 330.978 192.874 330.883 192.969C330.788 193.065 330.66 193.118 330.526 193.118Z" fill="white"/>
<path d="M348.999 193.118H333.729C333.596 193.118 333.467 193.065 333.373 192.969C333.278 192.874 333.225 192.746 333.225 192.611C333.225 192.545 333.238 192.48 333.263 192.419C333.289 192.358 333.326 192.303 333.373 192.256C333.42 192.21 333.476 192.174 333.537 192.149C333.598 192.125 333.664 192.113 333.729 192.114H348.98C349.111 192.114 349.237 192.167 349.33 192.26C349.422 192.353 349.475 192.48 349.475 192.611C349.477 192.741 349.429 192.867 349.34 192.962C349.251 193.057 349.129 193.113 348.999 193.118Z" fill="white"/>
<path d="M161.398 105.916C161.796 110.505 160.806 118.815 157.36 121.504C162.981 123.54 168.941 127.047 172.746 131.674C176.522 126.16 172.232 123.014 172.232 123.014C167.378 121.279 167.892 117.587 169.145 114.187L161.398 105.916Z" fill="#B97964"/>
<path d="M179.774 101.961C179.716 102.536 179.988 103.032 180.366 103.071C180.745 103.11 181.085 102.662 181.143 102.097C181.201 101.532 180.929 101.026 180.551 100.987C180.172 100.948 179.842 101.386 179.774 101.961Z" fill="#263238"/>
<path d="M180.405 100.996L181.812 100.724C181.812 100.724 181.007 101.766 180.405 100.996Z" fill="#263238"/>
<path d="M179.968 102.575C180.365 103.945 180.943 105.256 181.686 106.471C181.372 106.654 181.021 106.766 180.659 106.8C180.297 106.833 179.932 106.788 179.59 106.666L179.968 102.575Z" fill="#A24E3F"/>
<path d="M181.405 98.931C181.495 98.9168 181.577 98.8721 181.638 98.8044C181.698 98.7395 181.731 98.6542 181.731 98.5657C181.731 98.4772 181.698 98.3919 181.638 98.327C181.239 97.9613 180.758 97.6969 180.236 97.5562C179.714 97.4155 179.166 97.4026 178.638 97.5184C178.564 97.5699 178.512 97.6477 178.492 97.7361C178.472 97.8246 178.486 97.9173 178.532 97.9958C178.561 98.0458 178.604 98.0868 178.656 98.1143C178.707 98.1417 178.765 98.1547 178.823 98.1517C179.243 98.0711 179.675 98.0899 180.086 98.2066C180.497 98.3233 180.876 98.5347 181.191 98.8239C181.248 98.8836 181.323 98.9216 181.405 98.931Z" fill="#263238"/>
<path d="M160.942 98.2978C160.719 105.419 160.476 108.449 163.64 112.424C168.407 118.396 177.036 117.09 179.347 110.154C181.424 103.909 181.443 93.2708 174.91 89.8221C168.377 86.3734 161.146 91.1568 160.942 98.2978Z" fill="#B97964"/>
<path d="M161.252 111.752C154.273 110.553 156.273 106.14 156.273 106.14C149.4 104.747 154.71 101.376 154.71 101.376C148.992 98.9018 154.71 96.6806 154.71 96.6806C149.196 92.092 157.059 90.5041 157.059 90.5041C155.117 83.3436 161.912 86.2857 161.912 86.2857C165.601 80.1287 168.785 86.0032 168.785 86.0032C175.25 77.2353 176.823 84.6296 176.823 84.6296C183.433 82.8857 180.9 89.8611 180.9 89.8611C186.336 91.3224 182.065 94.0892 182.065 94.0892C184.161 96.7488 176.58 97.2067 176.58 97.2067C176.58 97.2067 180.191 103.052 176.58 104.659L167.397 111.722C167.397 111.722 163.155 109.988 161.252 111.752Z" fill="#263238"/>
<path d="M168.115 106.004C168.115 106.004 172.969 94.3133 169.173 84.3373L172.377 83.2365C172.377 83.2365 176.561 97.7425 168.115 106.004Z" fill="#FFA033"/>
<path d="M172.959 104.718C173.755 106.393 174.066 107.124 175.211 107.64C175.565 107.844 175.971 107.939 176.378 107.913C176.785 107.887 177.175 107.741 177.5 107.494C177.825 107.246 178.07 106.909 178.205 106.522C178.34 106.136 178.359 105.719 178.259 105.322C177.958 103.646 176.677 101.181 174.901 101.133C174.485 101.135 174.078 101.249 173.722 101.463C173.365 101.677 173.072 101.983 172.874 102.349C172.676 102.716 172.579 103.129 172.594 103.545C172.609 103.962 172.735 104.367 172.959 104.718Z" fill="#B97964"/>
<path d="M167.941 129.054C167.941 129.054 174.512 133.925 177.182 135.873L196.198 126.871C196.172 125.813 196.463 124.772 197.034 123.882C197.605 122.992 198.43 122.296 199.402 121.883L200.761 121.318L203.624 120.032C204.158 119.793 204.745 119.7 205.326 119.761C205.908 119.823 206.462 120.037 206.935 120.383C207.489 120.789 207.905 121.357 208.126 122.009C208.347 122.661 208.361 123.366 208.167 124.027C207.768 125.397 207.022 126.639 206.001 127.633C204.98 128.627 203.72 129.338 202.343 129.697L199.567 130.427C199.567 130.427 183.268 142.819 177.444 143.112C171.62 143.404 163.087 137.666 163.087 137.666L167.941 129.054Z" fill="#B97964"/>
<path d="M152.137 120.841C157.156 120.841 162.767 123.978 171.552 129.726C170.29 133.869 167.943 137.597 164.757 140.52C164.757 140.52 159.903 139.215 153.457 133.126C145.692 125.751 149.06 120.851 152.137 120.841Z" fill="#263238"/>
<path d="M247.462 135.435H199.897C199.497 135.441 199.1 135.362 198.732 135.203C198.365 135.044 198.035 134.808 197.766 134.512C197.496 134.215 197.292 133.864 197.167 133.483C197.043 133.101 197 132.697 197.043 132.298L200.625 91.2055C200.71 90.3558 201.103 89.5671 201.73 88.989C202.356 88.4108 203.172 88.0833 204.022 88.0685H251.588C251.988 88.0619 252.384 88.1408 252.751 88.3001C253.118 88.4593 253.447 88.6951 253.716 88.9919C253.985 89.2887 254.188 89.6396 254.312 90.0213C254.435 90.403 254.476 90.8067 254.432 91.2055L250.85 132.298C250.765 133.146 250.373 133.933 249.749 134.511C249.125 135.089 248.311 135.418 247.462 135.435Z" fill="#407BFF"/>
<path opacity="0.4" d="M247.462 135.435H199.897C199.497 135.441 199.1 135.362 198.732 135.203C198.365 135.044 198.035 134.808 197.766 134.512C197.496 134.215 197.292 133.864 197.167 133.483C197.043 133.101 197 132.697 197.043 132.298L200.625 91.2055C200.71 90.3558 201.103 89.5671 201.73 88.989C202.356 88.4108 203.172 88.0833 204.022 88.0685H251.588C251.988 88.0619 252.384 88.1408 252.751 88.3001C253.118 88.4593 253.447 88.6951 253.716 88.9919C253.985 89.2887 254.188 89.6396 254.312 90.0213C254.435 90.403 254.476 90.8067 254.432 91.2055L250.85 132.298C250.765 133.146 250.373 133.933 249.749 134.511C249.125 135.089 248.311 135.418 247.462 135.435Z" fill="white"/>
<path opacity="0.7" d="M247.637 133.486C247.958 133.481 248.267 133.356 248.503 133.137C248.739 132.918 248.887 132.619 248.918 132.298L252.5 91.2056C252.516 91.0545 252.501 90.9017 252.454 90.7571C252.407 90.6126 252.33 90.4798 252.228 90.3674C252.126 90.255 252.002 90.1656 251.863 90.1052C251.724 90.0448 251.574 90.0147 251.422 90.017H203.857C203.534 90.0225 203.225 90.1464 202.987 90.3654C202.749 90.5844 202.599 90.8833 202.566 91.2056L198.994 132.298C198.977 132.449 198.993 132.602 199.04 132.746C199.086 132.891 199.163 133.024 199.265 133.136C199.367 133.248 199.492 133.338 199.631 133.398C199.77 133.459 199.92 133.489 200.071 133.486H247.637Z" fill="white"/>
<path d="M214.584 109.326L199.053 131.889V132.298C199.036 132.449 199.052 132.602 199.098 132.746C199.145 132.891 199.222 133.024 199.324 133.136C199.426 133.248 199.551 133.338 199.69 133.398C199.828 133.459 199.979 133.489 200.13 133.486H227.077L214.584 109.326Z" fill="#407BFF"/>
<path opacity="0.3" d="M214.584 109.326L199.053 131.889V132.298C199.036 132.449 199.052 132.602 199.098 132.746C199.145 132.891 199.222 133.024 199.324 133.136C199.426 133.248 199.551 133.338 199.69 133.398C199.828 133.459 199.979 133.489 200.13 133.486H227.077L214.584 109.326Z" fill="white"/>
<path d="M249.054 130.729L236.037 105.916L216.758 133.486H247.637C247.959 133.481 248.267 133.356 248.503 133.137C248.74 132.918 248.887 132.619 248.918 132.298L249.054 130.729Z" fill="#407BFF"/>
<path d="M231.008 101.532C230.889 102.72 230.34 103.822 229.465 104.63C228.59 105.438 227.45 105.896 226.261 105.916C225.702 105.926 225.146 105.817 224.632 105.595C224.118 105.373 223.657 105.044 223.28 104.629C222.902 104.214 222.617 103.723 222.443 103.189C222.269 102.656 222.211 102.091 222.272 101.532C222.388 100.343 222.936 99.2382 223.811 98.4281C224.687 97.618 225.828 97.159 227.019 97.1384C227.579 97.128 228.135 97.2377 228.65 97.4603C229.165 97.6828 229.627 98.013 230.004 98.4289C230.382 98.8447 230.667 99.3367 230.84 99.8718C231.013 100.407 231.07 100.973 231.008 101.532Z" fill="#407BFF"/>
<path opacity="0.4" d="M231.008 101.532C230.889 102.72 230.34 103.822 229.465 104.63C228.59 105.438 227.45 105.896 226.261 105.916C225.702 105.926 225.146 105.817 224.632 105.595C224.118 105.373 223.657 105.044 223.28 104.629C222.902 104.214 222.617 103.723 222.443 103.189C222.269 102.656 222.211 102.091 222.272 101.532C222.388 100.343 222.936 99.2382 223.811 98.4281C224.687 97.618 225.828 97.159 227.019 97.1384C227.579 97.128 228.135 97.2377 228.65 97.4603C229.165 97.6828 229.627 98.013 230.004 98.4289C230.382 98.8447 230.667 99.3367 230.84 99.8718C231.013 100.407 231.07 100.973 231.008 101.532Z" fill="white"/>
<path d="M112.309 301.294L107.474 315.674L114.881 318.713L120.676 305.445L112.309 301.294Z" fill="#B97964"/>
<path d="M117.541 318.353C117.503 318.33 117.472 318.297 117.451 318.257C117.431 318.218 117.421 318.173 117.424 318.129C117.429 318.086 117.448 318.046 117.478 318.014C117.508 317.983 117.547 317.962 117.589 317.954C117.744 317.954 121.239 317.135 122.54 317.954C122.786 318.104 122.963 318.346 123.035 318.626C123.089 318.782 123.094 318.951 123.049 319.109C123.004 319.268 122.911 319.409 122.782 319.512C122.287 319.863 121.132 319.717 120.074 319.386C119.202 319.115 118.354 318.769 117.541 318.353ZM118.278 318.285C119.802 318.967 121.957 319.62 122.52 319.191C122.598 319.132 122.695 319.035 122.617 318.733C122.602 318.645 122.566 318.561 122.512 318.49C122.458 318.419 122.388 318.362 122.307 318.324C122.192 318.251 122.068 318.195 121.938 318.158C120.721 317.967 119.479 318.01 118.278 318.285Z" fill="#407BFF"/>
<path d="M117.434 318.304C117.416 318.272 117.406 318.235 117.406 318.197C117.406 318.159 117.416 318.122 117.434 318.09C117.434 317.992 118.405 315.752 119.774 315.167C119.969 315.086 120.179 315.043 120.39 315.043C120.602 315.043 120.811 315.086 121.007 315.167C121.541 315.391 121.628 315.732 121.579 315.966C121.463 316.989 118.842 318.207 117.697 318.343C117.683 318.35 117.668 318.354 117.653 318.354C117.638 318.354 117.623 318.35 117.609 318.343C117.579 318.352 117.547 318.353 117.517 318.346C117.486 318.34 117.458 318.325 117.434 318.304ZM120.725 315.547C120.475 315.455 120.199 315.455 119.949 315.547C119.085 316.086 118.407 316.878 118.007 317.817C119.259 317.515 121.046 316.482 121.172 315.869C121.172 315.81 121.172 315.654 120.842 315.518H120.725V315.547Z" fill="#407BFF"/>
<path d="M117.036 316.882L107.737 313.959C107.566 313.907 107.383 313.914 107.218 313.979C107.052 314.045 106.913 314.165 106.824 314.32L102.805 321.393C102.719 321.541 102.662 321.706 102.639 321.877C102.616 322.048 102.627 322.222 102.671 322.388C102.715 322.555 102.792 322.711 102.897 322.848C103.001 322.985 103.132 323.099 103.281 323.185C103.36 323.234 103.445 323.273 103.534 323.302C106.902 324.276 109.94 325.017 114.114 326.322C119.046 327.842 117.609 328.046 123.375 329.927C126.85 331.057 128.714 327.267 127.258 326.614C120.744 323.692 120.676 321.393 118.813 318.148C118.391 317.526 117.761 317.077 117.036 316.882Z" fill="#263238"/>
<path opacity="0.2" d="M109.989 308.192L117.755 312.128L120.677 305.445L112.309 301.294L109.989 308.192Z" fill="#263238"/>
<path d="M145.139 168.295C145.139 168.295 134.703 176.293 136.936 201.35C137.15 203.669 137.907 206.094 137.907 208.744C137.907 210.508 137.421 211.745 136.849 215.71C136.014 221.477 134.48 242.988 132.859 245.784C131.238 248.58 130.578 248.083 126.064 255.799C121.21 264.099 114.901 278.654 110.018 303.321C113.278 305.63 117.002 307.196 120.929 307.909C120.929 307.909 147.595 265.707 153.264 249.992C158.34 235.935 164.388 191.072 164.388 191.072L164.873 171.588L145.139 168.295Z" fill="#FFA033"/>
<path opacity="0.1" d="M156.554 201.35H149.002C149.002 201.35 146.517 225.199 154.729 245.092C155.583 241.897 156.447 238.068 157.292 233.928L160.563 212.924C160.097 209.378 159.738 206.669 159.68 206.494C159.515 205.939 156.554 201.35 156.554 201.35Z" fill="black"/>
<path d="M155.312 307.081L155.36 322.367L163.951 321.792L165.271 307.081H155.312Z" fill="#B97964"/>
<path d="M164.941 321.529C164.898 321.523 164.858 321.504 164.826 321.475C164.795 321.445 164.774 321.406 164.766 321.363C164.756 321.32 164.76 321.276 164.778 321.235C164.795 321.195 164.825 321.161 164.863 321.139C164.999 321.061 168.037 319.191 169.542 319.522C169.822 319.585 170.069 319.752 170.231 319.99C170.332 320.121 170.39 320.28 170.399 320.445C170.407 320.61 170.366 320.774 170.28 320.915C169.533 321.477 168.609 321.75 167.678 321.685C166.763 321.716 165.847 321.664 164.941 321.529ZM165.62 321.227C167.28 321.373 169.503 321.276 169.921 320.681C169.979 320.603 170.027 320.477 169.862 320.214C169.817 320.137 169.755 320.072 169.681 320.023C169.607 319.974 169.523 319.943 169.435 319.931C169.303 319.911 169.169 319.911 169.037 319.931C167.825 320.135 166.664 320.575 165.62 321.227Z" fill="#407BFF"/>
<path d="M164.825 321.529C164.792 321.508 164.765 321.479 164.747 321.445C164.728 321.411 164.718 321.373 164.718 321.334C164.718 321.227 164.883 318.801 165.98 317.827C166.136 317.683 166.32 317.572 166.52 317.502C166.721 317.432 166.933 317.403 167.145 317.418C167.727 317.418 167.921 317.749 167.95 317.993C168.174 318.967 166.106 321.003 165.038 321.519C165.01 321.529 164.979 321.529 164.951 321.519C164.911 321.537 164.867 321.541 164.825 321.529ZM167.018 317.827C166.751 317.833 166.496 317.937 166.3 318.119C165.66 318.913 165.28 319.886 165.213 320.905C166.29 320.214 167.64 318.645 167.562 318.041C167.562 317.983 167.514 317.827 167.135 317.807H167.018V317.827Z" fill="#407BFF"/>
<path d="M163.99 320.311L154.283 320.662C154.106 320.67 153.936 320.738 153.802 320.854C153.668 320.971 153.578 321.13 153.545 321.305L152.07 329.313C152.004 329.653 152.076 330.005 152.269 330.291C152.462 330.578 152.76 330.776 153.099 330.842C153.192 330.852 153.286 330.852 153.38 330.842C156.884 330.648 159.991 330.346 164.359 330.199C169.513 330.014 168.242 330.677 174.289 330.55C177.949 330.462 178.464 326.273 176.91 326.127C169.795 325.484 168.98 323.36 166.155 320.915C165.533 320.452 164.761 320.236 163.99 320.311Z" fill="#263238"/>
<path opacity="0.2" d="M155.341 314.992L164.582 314.797L165.271 307.081H155.312L155.341 314.992Z" fill="#263238"/>
<path d="M150.953 165.518C150.953 165.518 140.537 179.362 148.255 206.435L156.991 245.979C156.991 245.979 148.701 263.963 153.108 311.407C157.38 312.009 161.721 311.91 165.961 311.115C165.961 311.115 175.668 261.011 177.134 244.089C178.755 225.442 177.784 169.24 177.784 169.24L150.953 165.518Z" fill="#FFA033"/>
<path d="M157.243 120.646C157.243 120.646 155.632 113.729 165.98 116.749C176.327 119.769 175.454 125.683 175.454 125.683L157.243 120.646Z" fill="#263238"/>
<path opacity="0.4" d="M157.243 120.646C157.243 120.646 155.632 113.729 165.98 116.749C176.327 119.769 175.454 125.683 175.454 125.683L157.243 120.646Z" fill="black"/>
<path d="M182.91 137.948C182.91 140.374 181.939 143.881 180.968 147.807C180.522 149.668 180.114 151.607 179.842 153.575C178.376 164.291 177.901 175.582 177.901 175.582C172.188 176.833 166.28 176.889 160.545 175.747C154.81 174.606 149.371 172.291 144.566 168.948C144.566 168.948 148.634 165.489 147.799 141.533C147.42 130.739 143.537 117.909 161.311 119.925C176.319 121.63 181.366 126.306 182.58 133.623C182.58 133.71 182.58 133.808 182.58 133.905L182.667 134.587C182.814 135.702 182.895 136.824 182.91 137.948Z" fill="#263238"/>
<path opacity="0.4" d="M182.91 137.948C182.91 140.374 181.939 143.881 180.968 147.807C176.91 142.936 172.843 133.73 172.843 133.73L176.192 128.781L182.094 131.538C182.298 132.222 182.46 132.919 182.579 133.623C182.579 133.71 182.579 133.808 182.579 133.905L182.667 134.587C182.814 135.702 182.895 136.824 182.91 137.948Z" fill="black"/>
<path d="M189.093 133.72C189.093 133.72 194.917 139.488 197.218 141.806L217.35 135.747C217.482 134.702 217.923 133.721 218.615 132.929C219.306 132.138 220.218 131.572 221.233 131.304L222.65 130.934L225.679 130.096C226.243 129.943 226.838 129.94 227.403 130.089C227.968 130.238 228.485 130.532 228.902 130.944C229.39 131.426 229.717 132.049 229.839 132.725C229.961 133.402 229.871 134.1 229.581 134.724C228.982 136.018 228.059 137.136 226.903 137.967C225.746 138.798 224.395 139.315 222.981 139.468L220.127 139.77C220.127 139.77 202.159 149.619 196.373 149.074C190.588 148.528 182.987 141.543 182.987 141.543L189.093 133.72Z" fill="#B97964"/>
<path d="M174.629 123.228C179.599 123.959 184.676 127.924 192.558 134.918C190.691 138.831 187.811 142.168 184.219 144.583C184.219 144.583 179.628 142.566 174.153 135.581C167.533 127.125 171.619 122.78 174.629 123.228Z" fill="#263238"/>
</g>
</g>
<defs>
<clipPath id="clip0_358_7360">
<rect width="532.5" height="355" fill="white" transform="translate(0.5)"/>
</clipPath>
<clipPath id="clip1_358_7360">
<rect width="485.361" height="487.107" fill="white" transform="translate(24.0697 -66.3442)"/>
</clipPath>
</defs>
</svg>
