<svg width="479" height="355" viewBox="0 0 479 355" fill="none" xmlns="http://www.w3.org/2000/svg">
<path d="M226.934 272.739H42.0556C40.6055 272.739 39.2148 272.163 38.1895 271.138C37.1642 270.113 36.5881 268.722 36.5881 267.272V7.37177C36.6007 5.93002 37.1823 4.55162 38.2063 3.53661C39.2303 2.5216 40.6138 1.95214 42.0556 1.95219H226.934C228.384 1.95219 229.775 2.52823 230.8 3.55357C231.825 4.57892 232.401 5.96958 232.401 7.41964V267.272C232.401 268.722 231.825 270.113 230.8 271.138C229.775 272.163 228.384 272.739 226.934 272.739ZM42.0556 2.1437C40.6698 2.14623 39.3415 2.69785 38.3616 3.67776C37.3817 4.65766 36.83 5.98597 36.8275 7.37177V267.272C36.83 268.658 37.3817 269.986 38.3616 270.966C39.3415 271.946 40.6698 272.497 42.0556 272.5H226.934C228.32 272.497 229.648 271.946 230.628 270.966C231.608 269.986 232.159 268.658 232.162 267.272V7.37177C232.159 5.98597 231.608 4.65766 230.628 3.67776C229.648 2.69785 228.32 2.14623 226.934 2.1437H42.0556Z" fill="#959595"/>
<path d="M434.055 272.739H249.158C247.708 272.737 246.319 272.16 245.294 271.135C244.27 270.11 243.693 268.721 243.69 267.272V7.37181C243.705 5.93085 244.288 4.5539 245.311 3.53942C246.335 2.52494 247.717 1.95468 249.158 1.95224H434.055C435.493 1.95722 436.872 2.52891 437.892 3.54338C438.912 4.55785 439.491 5.93338 439.503 7.37181V267.272C439.503 268.719 438.93 270.106 437.909 271.131C436.887 272.156 435.502 272.734 434.055 272.739ZM249.158 2.14375C247.772 2.14628 246.443 2.6979 245.464 3.67781C244.484 4.65771 243.932 5.98602 243.93 7.37181V267.272C243.932 268.658 244.484 269.986 245.464 270.966C246.443 271.946 247.772 272.497 249.158 272.5H434.055C435.441 272.497 436.769 271.946 437.749 270.966C438.729 269.986 439.281 268.658 439.283 267.272V7.37181C439.281 5.98602 438.729 4.65771 437.749 3.67781C436.769 2.6979 435.441 2.14628 434.055 2.14375H249.158Z" fill="#959595"/>
<path d="M430.79 330.851H399.077V331.091H430.79V330.851Z" fill="#EBEBEB"/>
<path d="M317.151 333.456H308.831V333.695H317.151V333.456Z" fill="#EBEBEB"/>
<path d="M398.119 321.966H379.744V322.205H398.119V321.966Z" fill="#EBEBEB"/>
<path d="M91.5881 323.574H50.2327V323.814H91.5881V323.574Z" fill="#EBEBEB"/>
<path d="M106.18 323.574H100.119V323.814H106.18V323.574Z" fill="#EBEBEB"/>
<path d="M215.587 327.615H125.886V327.854H215.587V327.615Z" fill="#EBEBEB"/>
<path d="M478.762 315.445H0.000854492V315.684H478.762V315.445Z" fill="#EBEBEB"/>
<path d="M182.542 230.283H78.5747V269.302H182.542V230.283Z" fill="#EBEBEB"/>
<path d="M182.542 269.302H78.5747V308.321H182.542V269.302Z" fill="#EBEBEB"/>
<path d="M118.082 269.302L131.018 230.283H111.111L98.1752 269.302H118.082Z" fill="#F0F0F0"/>
<path d="M140.66 230.283H136.285L123.348 269.302H127.724L140.66 230.283Z" fill="#F0F0F0"/>
<path d="M105.146 308.321L118.082 269.302H98.1756L85.2394 308.321H105.146Z" fill="#F0F0F0"/>
<path d="M127.725 269.302H123.349L110.413 308.321H114.789L127.725 269.302Z" fill="#F0F0F0"/>
<path d="M182.553 236.277V232.332H78.5848V236.277H182.553Z" fill="#E0E0E0"/>
<path d="M182.553 274.989V271.044H78.5848V274.989H182.553Z" fill="#E0E0E0"/>
<path d="M133.221 254.786C133.64 254.741 134.027 254.544 134.308 254.231C134.589 253.918 134.745 253.512 134.745 253.091C134.745 252.67 134.589 252.264 134.308 251.951C134.027 251.639 133.64 251.441 133.221 251.396H127.907C127.488 251.441 127.101 251.639 126.82 251.951C126.539 252.264 126.383 252.67 126.383 253.091C126.383 253.512 126.539 253.918 126.82 254.231C127.101 254.544 127.488 254.741 127.907 254.786H133.221Z" fill="#E0E0E0"/>
<path d="M133.221 254.183C133.64 254.138 134.027 253.94 134.308 253.627C134.589 253.314 134.745 252.909 134.745 252.488C134.745 252.067 134.589 251.661 134.308 251.348C134.027 251.035 133.64 250.837 133.221 250.793H127.907C127.488 250.837 127.101 251.035 126.82 251.348C126.539 251.661 126.383 252.067 126.383 252.488C126.383 252.909 126.539 253.314 126.82 253.627C127.101 253.94 127.488 254.138 127.907 254.183H133.221Z" fill="#F5F5F5"/>
<path d="M133.221 290.808C133.65 290.776 134.051 290.583 134.343 290.267C134.635 289.952 134.798 289.538 134.798 289.108C134.798 288.678 134.635 288.264 134.343 287.949C134.051 287.634 133.65 287.441 133.221 287.409H127.907C127.478 287.441 127.077 287.634 126.785 287.949C126.493 288.264 126.33 288.678 126.33 289.108C126.33 289.538 126.493 289.952 126.785 290.267C127.077 290.583 127.478 290.776 127.907 290.808H133.221Z" fill="#E0E0E0"/>
<path d="M133.221 290.166C133.64 290.122 134.027 289.924 134.308 289.611C134.589 289.298 134.745 288.892 134.745 288.471C134.745 288.051 134.589 287.645 134.308 287.332C134.027 287.019 133.64 286.821 133.221 286.777H127.907C127.488 286.821 127.101 287.019 126.82 287.332C126.539 287.645 126.383 288.051 126.383 288.471C126.383 288.892 126.539 289.298 126.82 289.611C127.101 289.924 127.488 290.122 127.907 290.166H133.221Z" fill="#F5F5F5"/>
<path d="M76.7656 228.531V310.025H184.362V228.531H76.7656ZM180.733 306.09H80.4329V271.36H180.733V306.09ZM180.733 267.425H80.4329V232.715H180.733V267.425Z" fill="#F5F5F5"/>
<path d="M290.149 230.283H186.181V269.302H290.149V230.283Z" fill="#EBEBEB"/>
<path d="M290.149 269.302H186.181V308.321H290.149V269.302Z" fill="#EBEBEB"/>
<path d="M266.786 269.302L279.722 230.283H259.815L246.879 269.302H266.786Z" fill="#F0F0F0"/>
<path d="M289.354 230.283H284.988L272.052 269.302H276.428L289.354 230.283Z" fill="#F0F0F0"/>
<path d="M253.849 308.321L266.786 269.302H246.879L233.943 308.321H253.849Z" fill="#F0F0F0"/>
<path d="M276.428 269.302H272.052L259.116 308.321H263.492L276.428 269.302Z" fill="#F0F0F0"/>
<path d="M290.149 236.287V232.342H186.182V236.287H290.149Z" fill="#E0E0E0"/>
<path d="M290.149 274.999V271.054H186.182V274.999H290.149Z" fill="#E0E0E0"/>
<path d="M240.818 254.786C241.236 254.741 241.623 254.544 241.905 254.231C242.186 253.918 242.342 253.512 242.342 253.091C242.342 252.67 242.186 252.264 241.905 251.951C241.623 251.639 241.236 251.441 240.818 251.396H235.551C235.133 251.441 234.746 251.639 234.464 251.951C234.183 252.264 234.027 252.67 234.027 253.091C234.027 253.512 234.183 253.918 234.464 254.231C234.746 254.544 235.133 254.741 235.551 254.786H240.818Z" fill="#E0E0E0"/>
<path d="M240.818 254.183C241.236 254.138 241.623 253.94 241.905 253.627C242.186 253.315 242.342 252.909 242.342 252.488C242.342 252.067 242.186 251.661 241.905 251.348C241.623 251.035 241.236 250.838 240.818 250.793H235.551C235.133 250.838 234.746 251.035 234.464 251.348C234.183 251.661 234.027 252.067 234.027 252.488C234.027 252.909 234.183 253.315 234.464 253.627C234.746 253.94 235.133 254.138 235.551 254.183H240.818Z" fill="#F5F5F5"/>
<path d="M240.818 290.808C241.246 290.776 241.647 290.583 241.939 290.267C242.232 289.952 242.394 289.538 242.394 289.108C242.394 288.678 242.232 288.264 241.939 287.949C241.647 287.634 241.246 287.441 240.818 287.409H235.551C235.122 287.441 234.722 287.634 234.429 287.949C234.137 288.264 233.974 288.678 233.974 289.108C233.974 289.538 234.137 289.952 234.429 290.267C234.722 290.583 235.122 290.776 235.551 290.808H240.818Z" fill="#E0E0E0"/>
<path d="M240.818 290.166C241.236 290.122 241.623 289.924 241.905 289.611C242.186 289.298 242.342 288.892 242.342 288.471C242.342 288.051 242.186 287.645 241.905 287.332C241.623 287.019 241.236 286.821 240.818 286.777H235.551C235.133 286.821 234.746 287.019 234.464 287.332C234.183 287.645 234.027 288.051 234.027 288.471C234.027 288.892 234.183 289.298 234.464 289.611C234.746 289.924 235.133 290.122 235.551 290.166H240.818Z" fill="#F5F5F5"/>
<path d="M184.362 228.531V310.025H291.959V228.531H184.362ZM288.33 306.09H187.991V271.36H288.33V306.09ZM288.33 267.425H187.991V232.715H288.33V267.425Z" fill="#F5F5F5"/>
<path d="M397.746 230.283H293.778V269.302H397.746V230.283Z" fill="#EBEBEB"/>
<path d="M397.746 269.302H293.778V308.321H397.746V269.302Z" fill="#EBEBEB"/>
<path d="M359.617 269.302L372.553 230.283H352.646L339.71 269.302H359.617Z" fill="#F0F0F0"/>
<path d="M382.186 230.283H377.81L364.874 269.302H369.25L382.186 230.283Z" fill="#F0F0F0"/>
<path d="M346.681 308.321L359.617 269.302H339.71L326.774 308.321H346.681Z" fill="#F0F0F0"/>
<path d="M369.25 269.302H364.874L351.938 308.321H356.314L369.25 269.302Z" fill="#F0F0F0"/>
<path d="M397.746 236.277V232.332H293.778V236.277H397.746Z" fill="#E0E0E0"/>
<path d="M397.746 274.989V271.044H293.778V274.989H397.746Z" fill="#E0E0E0"/>
<path d="M348.424 254.786C348.842 254.741 349.229 254.544 349.51 254.231C349.792 253.918 349.947 253.512 349.947 253.091C349.947 252.67 349.792 252.264 349.51 251.951C349.229 251.639 348.842 251.441 348.424 251.396H343.1C342.681 251.441 342.294 251.639 342.013 251.951C341.731 252.264 341.576 252.67 341.576 253.091C341.576 253.512 341.731 253.918 342.013 254.231C342.294 254.544 342.681 254.741 343.1 254.786H348.424Z" fill="#E0E0E0"/>
<path d="M348.424 254.183C348.842 254.138 349.229 253.94 349.51 253.627C349.792 253.314 349.947 252.909 349.947 252.488C349.947 252.067 349.792 251.661 349.51 251.348C349.229 251.035 348.842 250.837 348.424 250.793H343.1C342.681 250.837 342.294 251.035 342.013 251.348C341.731 251.661 341.576 252.067 341.576 252.488C341.576 252.909 341.731 253.314 342.013 253.627C342.294 253.94 342.681 254.138 343.1 254.183H348.424Z" fill="#F5F5F5"/>
<path d="M348.424 290.808C348.853 290.776 349.254 290.583 349.546 290.267C349.838 289.952 350.001 289.538 350.001 289.108C350.001 288.678 349.838 288.264 349.546 287.949C349.254 287.634 348.853 287.441 348.424 287.409H343.1C342.672 287.441 342.271 287.634 341.979 287.949C341.686 288.264 341.524 288.678 341.524 289.108C341.524 289.538 341.686 289.952 341.979 290.267C342.271 290.583 342.672 290.776 343.1 290.808H348.424Z" fill="#E0E0E0"/>
<path d="M348.424 290.166C348.842 290.122 349.229 289.924 349.51 289.611C349.792 289.298 349.947 288.892 349.947 288.471C349.947 288.051 349.792 287.645 349.51 287.332C349.229 287.019 348.842 286.821 348.424 286.777H343.1C342.681 286.821 342.294 287.019 342.013 287.332C341.731 287.645 341.576 288.051 341.576 288.471C341.576 288.892 341.731 289.298 342.013 289.611C342.294 289.924 342.681 290.122 343.1 290.166H348.424Z" fill="#F5F5F5"/>
<path d="M291.959 228.531V310.025H399.565V228.531H291.959ZM395.936 306.09H295.598V271.36H395.936V306.09ZM395.936 267.425H295.598V232.715H395.936V267.425Z" fill="#F5F5F5"/>
<path d="M389.157 315.895H87.1641L85.5937 310.025H390.727L389.157 315.895Z" fill="#E0E0E0"/>
<path d="M317.305 143.704L316.951 211.4L395.418 211.811L395.773 144.115L317.305 143.704Z" fill="#E0E0E0"/>
<path d="M317.296 143.702L395.764 144.113L395.83 131.445L317.362 131.034L317.296 143.702Z" fill="#E6E6E6"/>
<path d="M314.662 209.485L393.121 209.897L395.764 144.115L317.305 143.694L314.662 209.485Z" fill="#F5F5F5"/>
<path d="M334.75 159.953L373.588 160.154L374.057 148.578L335.21 148.376L334.75 159.953Z" fill="#EBEBEB"/>
<path d="M379.534 175.149L389.904 175.206L390.316 164.827L379.946 164.779L379.534 175.149Z" fill="#E0E0E0"/>
<path d="M364.817 175.072L375.187 175.13L375.608 164.75L365.229 164.702L364.817 175.072Z" fill="#E0E0E0"/>
<path d="M378.969 189.138L389.339 189.196L389.76 178.826L379.381 178.768L378.969 189.138Z" fill="#E0E0E0"/>
<path d="M378.404 203.128L388.783 203.185L389.195 192.815L378.825 192.758L378.404 203.128Z" fill="#EBEBEB"/>
<path d="M364.251 189.061L374.621 189.119L375.043 178.739L364.663 178.692L364.251 189.061Z" fill="#E0E0E0"/>
<path d="M349.535 188.985L359.905 189.042L360.326 178.663L349.946 178.615L349.535 188.985Z" fill="#E0E0E0"/>
<path d="M334.818 188.908L345.187 188.966L345.609 178.586L335.239 178.538L334.818 188.908Z" fill="#E0E0E0"/>
<path d="M320.101 188.832L330.471 188.889L330.892 178.51L320.522 178.462L320.101 188.832Z" fill="#E0E0E0"/>
<path d="M363.687 203.051L374.066 203.108L374.478 192.738L364.108 192.681L363.687 203.051Z" fill="#EBEBEB"/>
<path d="M348.97 202.974L359.349 203.032L359.761 192.662L349.391 192.604L348.97 202.974Z" fill="#EBEBEB"/>
<path d="M334.253 202.898L344.632 202.955L345.044 192.585L334.674 192.528L334.253 202.898Z" fill="#E0E0E0"/>
<path d="M350.099 174.995L360.469 175.053L360.891 164.673L350.511 164.626L350.099 174.995Z" fill="#EBEBEB"/>
<path d="M335.382 174.919L345.752 174.967L346.174 164.597L335.794 164.549L335.382 174.919Z" fill="#EBEBEB"/>
<path d="M320.665 174.842L331.035 174.89L331.457 164.52L321.077 164.463L320.665 174.842Z" fill="#EBEBEB"/>
<path d="M319.536 202.821L329.915 202.879L330.327 192.499L319.957 192.451L319.536 202.821Z" fill="#E0E0E0"/>
<path d="M356.352 127.79C355.457 127.792 354.582 128.059 353.839 128.558C353.095 129.056 352.516 129.764 352.175 130.592C351.834 131.42 351.745 132.33 351.921 133.208C352.097 134.086 352.529 134.892 353.163 135.525C353.797 136.157 354.604 136.588 355.482 136.762C356.36 136.936 357.27 136.845 358.097 136.502C358.924 136.159 359.631 135.579 360.128 134.834C360.626 134.089 360.891 133.214 360.891 132.319C360.891 131.723 360.774 131.134 360.545 130.583C360.317 130.033 359.983 129.534 359.561 129.113C359.14 128.692 358.639 128.359 358.089 128.132C357.538 127.905 356.948 127.788 356.352 127.79ZM356.352 135.756C355.67 135.756 355.003 135.554 354.436 135.175C353.869 134.795 353.427 134.257 353.167 133.626C352.906 132.996 352.839 132.302 352.972 131.633C353.106 130.964 353.435 130.35 353.918 129.868C354.401 129.387 355.017 129.059 355.686 128.927C356.355 128.795 357.049 128.865 357.678 129.127C358.308 129.39 358.846 129.833 359.223 130.401C359.601 130.969 359.801 131.637 359.8 132.319C359.8 132.771 359.71 133.219 359.537 133.636C359.364 134.054 359.11 134.434 358.789 134.753C358.469 135.072 358.089 135.325 357.671 135.497C357.253 135.67 356.805 135.758 356.352 135.756Z" fill="#E6E6E6"/>
<path d="M239.381 355C341.915 355 425.035 350.147 425.035 344.161C425.035 338.175 341.915 333.322 239.381 333.322C136.847 333.322 53.7271 338.175 53.7271 344.161C53.7271 350.147 136.847 355 239.381 355Z" fill="#E3E3E3"/>
<path d="M382.052 89.326L362.336 85.1703L380.529 78.4677L380.778 73.6801C376.306 66.9774 366.894 62.4388 355.777 62.4388C339.834 62.4388 326.41 71.8129 325.807 83.3702C325.807 83.7053 325.807 84.0405 325.807 84.3277C325.807 84.615 325.558 87.7748 325.558 88.1291C324.954 99.6864 337.393 109.061 353.326 109.061C366.415 109.061 377.8 102.741 381.793 94.0849L382.052 89.326Z" fill="#407BFF"/>
<path opacity="0.7" d="M353.756 83.3415L380.739 73.6514C376.268 66.9488 366.855 62.4101 355.739 62.4101C339.796 62.4101 326.371 71.7842 325.768 83.3415C325.165 94.8988 337.603 104.273 353.536 104.273C366.626 104.273 378.011 97.9629 382.003 89.2973L353.756 83.3415Z" fill="white"/>
<path d="M371.222 85.4672L398.597 91.423C399.476 89.5524 399.986 87.5304 400.101 85.4672C400.134 84.8931 400.134 84.3176 400.101 83.7436C400.201 83.151 400.269 82.5532 400.302 81.9531C400.462 78.5061 399.486 75.1019 397.525 72.2629L371.433 81.9531L371.222 85.4672Z" fill="#407BFF"/>
<path opacity="0.3" d="M398.78 87.9089C399.658 86.0384 400.168 84.0164 400.283 81.9532C400.443 78.5062 399.468 75.102 397.506 72.263L371.414 81.9532L398.78 87.9089Z" fill="white"/>
<path d="M274.081 168.724V167.326H263.319V156.487H261.921V167.326H251.618V156.487H250.22V167.326H240.079V156.487H238.682V167.326H228.628V156.487H227.23V167.326H216.917V156.487H215.519V167.326H204.852V168.724H215.519V178.864H204.852V180.262H215.519V190.402H204.852V191.8H215.519V202.639H216.917V191.8H227.23V202.639H228.628V191.8H238.682V202.639H240.079V191.8H250.22V202.639H251.618V191.8H261.93V202.639H263.319V191.8H274.072V190.402H263.319V180.262H274.072V178.864H263.319V168.724H274.081ZM250.22 168.724V178.864H240.079V168.724H250.22ZM238.729 168.724V178.864H228.675V168.724H238.729ZM216.965 168.724H227.277V178.864H216.917L216.965 168.724ZM216.965 190.402V180.262H227.277V190.402H216.965ZM228.675 190.402V180.262H238.729V190.402H228.675ZM240.166 190.402V180.262H250.306V190.402H240.166ZM262.016 190.402H251.618V180.262H261.93L262.016 190.402ZM262.016 178.864H251.618V168.724H261.93L262.016 178.864Z" fill="#407BFF"/>
<path opacity="0.7" d="M274.081 168.724V167.326H263.319V156.487H261.921V167.326H251.618V156.487H250.22V167.326H240.079V156.487H238.682V167.326H228.628V156.487H227.23V167.326H216.917V156.487H215.519V167.326H204.852V168.724H215.519V178.864H204.852V180.262H215.519V190.402H204.852V191.8H215.519V202.639H216.917V191.8H227.23V202.639H228.628V191.8H238.682V202.639H240.079V191.8H250.22V202.639H251.618V191.8H261.93V202.639H263.319V191.8H274.072V190.402H263.319V180.262H274.072V178.864H263.319V168.724H274.081ZM250.22 168.724V178.864H240.079V168.724H250.22ZM238.729 168.724V178.864H228.675V168.724H238.729ZM216.965 168.724H227.277V178.864H216.917L216.965 168.724ZM216.965 190.402V180.262H227.277V190.402H216.965ZM228.675 190.402V180.262H238.729V190.402H228.675ZM240.166 190.402V180.262H250.306V190.402H240.166ZM262.016 190.402H251.618V180.262H261.93L262.016 190.402ZM262.016 178.864H251.618V168.724H261.93L262.016 178.864Z" fill="white"/>
<path d="M270.567 204.037H208.194C206.892 204.037 205.642 203.52 204.721 202.598C203.8 201.677 203.282 200.428 203.282 199.125V160.01C203.282 158.708 203.8 157.458 204.721 156.537C205.642 155.616 206.892 155.098 208.194 155.098H270.567C271.87 155.098 273.119 155.616 274.041 156.537C274.962 157.458 275.479 158.708 275.479 160.01V199.125C275.477 200.427 274.959 201.675 274.038 202.596C273.117 203.516 271.869 204.035 270.567 204.037ZM208.194 157.885C207.916 157.885 207.64 157.94 207.382 158.047C207.125 158.154 206.891 158.31 206.695 158.508C206.498 158.705 206.342 158.94 206.237 159.198C206.131 159.455 206.077 159.732 206.078 160.01V199.125C206.078 199.686 206.301 200.225 206.698 200.621C207.095 201.018 207.633 201.241 208.194 201.241H270.567C271.129 201.241 271.667 201.018 272.064 200.621C272.46 200.225 272.683 199.686 272.683 199.125V160.01C272.685 159.732 272.631 159.455 272.525 159.198C272.419 158.94 272.264 158.705 272.067 158.508C271.87 158.31 271.637 158.154 271.379 158.047C271.122 157.94 270.846 157.885 270.567 157.885H208.194Z" fill="#407BFF"/>
<g opacity="0.8">
<path d="M270.567 204.037H208.194C206.892 204.037 205.642 203.52 204.721 202.598C203.8 201.677 203.282 200.428 203.282 199.125V160.01C203.282 158.708 203.8 157.458 204.721 156.537C205.642 155.616 206.892 155.098 208.194 155.098H270.567C271.87 155.098 273.119 155.616 274.041 156.537C274.962 157.458 275.479 158.708 275.479 160.01V199.125C275.477 200.427 274.959 201.675 274.038 202.596C273.117 203.516 271.869 204.035 270.567 204.037ZM208.194 157.885C207.916 157.885 207.64 157.94 207.382 158.047C207.125 158.154 206.891 158.31 206.695 158.508C206.498 158.705 206.342 158.94 206.237 159.198C206.131 159.455 206.077 159.732 206.078 160.01V199.125C206.078 199.686 206.301 200.225 206.698 200.621C207.095 201.018 207.633 201.241 208.194 201.241H270.567C271.129 201.241 271.667 201.018 272.064 200.621C272.46 200.225 272.683 199.686 272.683 199.125V160.01C272.685 159.732 272.631 159.455 272.525 159.198C272.419 158.94 272.264 158.705 272.067 158.508C271.87 158.31 271.637 158.154 271.379 158.047C271.122 157.94 270.846 157.885 270.567 157.885H208.194Z" fill="white"/>
</g>
<path d="M263.453 165.708H257.21L250.967 171.951L239.218 177.82H226.924L214.811 189.933H206.078V192.03H215.673L227.785 179.917H239.716L252.202 173.674L258.072 167.795H263.941L272.684 163.429V161.083L263.453 165.708Z" fill="#407BFF"/>
<g opacity="0.6">
<path d="M263.453 165.708H257.21L250.967 171.951L239.219 177.82H226.924L214.811 189.933H206.079V192.03H215.673L227.786 179.917H239.717L252.203 173.674L258.072 167.795H263.942L272.684 163.429V161.083L263.453 165.708Z" fill="white"/>
</g>
<path d="M263.08 178.012L239.218 189.933H227.106L214.993 195.994H206.078V198.081H215.491L227.604 192.03H239.716L264.315 179.726L272.684 171.357V168.398L263.08 178.012Z" fill="#407BFF"/>
<path d="M263.453 171.759L251.34 177.82H239.218L227.106 183.881H206.078V185.969H227.604L239.716 179.917H251.829L263.941 173.856H272.684V171.759H263.453Z" fill="#407BFF"/>
<g opacity="0.3">
<path d="M263.453 171.759L251.341 177.82H239.219L227.106 183.881H206.079V185.969H227.604L239.717 179.917H251.829L263.942 173.856H272.684V171.759H263.453Z" fill="white"/>
</g>
<path d="M211.153 82.0584H203.436L203.349 102.971H211.057L211.153 82.0584Z" fill="#407BFF"/>
<path opacity="0.6" d="M211.153 82.0584H203.436L203.349 102.971H211.057L211.153 82.0584Z" fill="white"/>
<path d="M275.317 45.912H267.609V102.971H275.317V45.912Z" fill="#FB861E"/>
<g opacity="0.1">
<path d="M275.316 45.9121H267.608V102.971H275.316V45.9121Z" fill="white"/>
</g>
<path d="M224.281 81.5797H216.572L216.199 102.971H223.907L224.281 81.5797Z" fill="#407BFF"/>
<path opacity="0.7" d="M224.281 81.5797H216.572L216.199 102.971H223.907L224.281 81.5797Z" fill="white"/>
<path d="M262.514 58.3886H254.806L254.758 102.971H262.466L262.514 58.3886Z" fill="#407BFF"/>
<path opacity="0.3" d="M262.514 58.3886H254.806L254.758 102.971H262.466L262.514 58.3886Z" fill="white"/>
<path d="M249.386 60.2557H241.678L241.908 102.971H249.616L249.386 60.2557Z" fill="#407BFF"/>
<path opacity="0.4" d="M249.386 60.2557H241.678L241.908 102.971H249.616L249.386 60.2557Z" fill="white"/>
<path d="M236.326 61.1366H228.608L229.049 102.971H236.766L236.326 61.1366Z" fill="#407BFF"/>
<g opacity="0.3">
<path d="M236.326 61.1366H228.608L229.049 102.971H236.766L236.326 61.1366Z" fill="white"/>
</g>
<g opacity="0.1">
<path d="M203.512 83.5427L216.745 96.45L229.93 70.0799L239.821 60.1983L251.685 72.062L273.305 50.4411L275.412 52.5572V44.9162H267.771L269.887 47.0324L251.685 65.2348L239.821 53.3711L225.965 67.2169L215.423 88.3015L203.531 76.8687L203.512 83.5427Z" fill="black"/>
</g>
<path d="M203.57 81.1584L216.305 93.4434L229.49 67.0732L239.371 57.1916L251.235 69.0553L267.264 53.0264L269.38 55.1425L274.972 41.9096L261.739 47.4919L263.855 49.608L251.235 62.2282L239.371 50.3645L225.526 64.2102L214.974 85.2949L203.589 74.4844L203.57 81.1584Z" fill="#263238"/>
<path d="M101.497 110.947V116.692C105.115 116.978 108.549 118.399 111.312 120.752L115.401 116.663C111.538 113.253 106.642 111.24 101.497 110.947Z" fill="#407BFF"/>
<path d="M101.497 110.947V116.692C105.115 116.978 108.549 118.399 111.312 120.752L115.401 116.663C111.538 113.253 106.642 111.24 101.497 110.947Z" fill="#FB861E"/>
<path d="M98.692 151.22C94.5997 150.884 90.7599 149.106 87.8574 146.201C84.9549 143.297 83.1785 139.456 82.845 135.364H77.0999C77.4423 140.989 79.8309 146.295 83.8153 150.282C87.7997 154.268 93.1047 156.659 98.7303 157.004L98.692 151.22Z" fill="#407BFF"/>
<path opacity="0.7" d="M98.692 151.22C94.5997 150.884 90.7599 149.106 87.8574 146.201C84.9549 143.297 83.1785 139.456 82.845 135.364H77.0999C77.4423 140.989 79.8309 146.295 83.8153 150.282C87.7997 154.268 93.1047 156.659 98.7303 157.004L98.692 151.22Z" fill="white"/>
<path d="M82.845 132.577C83.1769 128.485 84.9531 124.644 87.8561 121.741C90.7592 118.838 94.5999 117.062 98.692 116.73V110.985C93.0666 111.326 87.7605 113.714 83.7755 117.699C79.7904 121.684 77.4022 126.99 77.0616 132.616L82.845 132.577Z" fill="#407BFF"/>
<path opacity="0.2" d="M82.845 132.577C83.1769 128.485 84.9531 124.644 87.8561 121.741C90.7592 118.838 94.5999 117.062 98.692 116.73V110.985C93.0666 111.326 87.7605 113.714 83.7755 117.699C79.7904 121.684 77.4022 126.99 77.0616 132.616L82.845 132.577Z" fill="black"/>
<path d="M117.363 118.674L113.275 122.763C115.338 125.188 116.693 128.136 117.188 131.282C117.684 134.427 117.302 137.649 116.084 140.591C114.866 143.534 112.86 146.083 110.286 147.958C107.713 149.834 104.671 150.962 101.497 151.22V156.965C105.809 156.698 109.96 155.226 113.476 152.716C116.992 150.207 119.734 146.76 121.388 142.769C123.042 138.778 123.543 134.403 122.833 130.142C122.123 125.88 120.232 121.904 117.373 118.664L117.363 118.674Z" fill="#407BFF"/>
<path d="M253.159 305.487H249.329C249.329 303.351 248.103 301.858 247.002 301.858H231.596C230.494 301.858 229.269 303.351 229.269 305.487H225.439C225.439 301.379 228.196 298.027 231.596 298.027H247.04C250.392 298.066 253.159 301.417 253.159 305.487Z" fill="#263238"/>
<path d="M207.093 304.476L271.485 304.183C271.893 304.181 272.297 304.26 272.674 304.414C273.051 304.568 273.394 304.795 273.683 305.082C273.973 305.369 274.203 305.71 274.36 306.085C274.518 306.461 274.6 306.864 274.602 307.272L274.764 342.996C274.77 344.416 274.213 345.78 273.213 346.788C272.214 347.797 270.855 348.367 269.436 348.373L209.534 348.645C208.114 348.651 206.75 348.094 205.742 347.094C204.734 346.095 204.164 344.736 204.157 343.317L203.995 307.573C203.991 306.75 204.314 305.96 204.894 305.375C205.473 304.791 206.26 304.46 207.083 304.456L207.093 304.476Z" fill="#263238"/>
<path opacity="0.2" d="M274.809 342.983C274.813 343.686 274.678 344.383 274.412 345.034C274.147 345.684 273.756 346.277 273.261 346.776C272.767 347.276 272.179 347.673 271.531 347.946C270.883 348.218 270.188 348.361 269.485 348.364L216.323 348.632C215.621 348.636 214.925 348.501 214.274 348.236C213.624 347.97 213.032 347.579 212.533 347.084C212.035 346.59 211.638 346.002 211.367 345.354C211.095 344.706 210.954 344.011 210.952 343.309L210.827 315.349H212.666C211.928 314.259 211.398 313.041 211.105 311.758C210.711 309.798 210.067 307.896 209.19 306.099L208.769 305.295C209.336 304.768 210.081 304.474 210.856 304.472L271.563 304.175C272.386 304.172 273.178 304.496 273.763 305.076C274.348 305.656 274.679 306.444 274.684 307.268L274.809 342.983Z" fill="white"/>
<path d="M244.982 348.24L243.402 348.23L243.661 318.107L245.241 318.116L244.982 348.24Z" fill="#263238"/>
<path opacity="0.2" d="M270.979 304.098L207.524 304.385C207.078 304.361 206.633 304.424 206.212 304.572C205.791 304.72 205.404 304.95 205.072 305.248C204.74 305.546 204.471 305.907 204.279 306.309C204.086 306.711 203.975 307.148 203.952 307.593V312.429C203.952 317.398 208.5 321.401 214.064 321.381L264.535 321.152C270.088 321.152 274.579 317.073 274.56 312.103V307.268C274.503 306.373 274.095 305.538 273.423 304.944C272.752 304.35 271.873 304.046 270.979 304.098Z" fill="black"/>
<path d="M271.372 304.175L214.016 304.433H208.271L209.123 306.071C210 307.867 210.644 309.769 211.038 311.73C212.044 316.115 215.644 319.39 219.914 319.332L265.531 319.122C270.558 319.122 274.618 314.573 274.589 309.02V307.708C274.623 306.815 274.305 305.944 273.703 305.283C273.101 304.622 272.264 304.224 271.372 304.175Z" fill="#263238"/>
<path opacity="0.3" d="M271.372 304.175L214.016 304.433H208.271L209.123 306.071C210 307.867 210.644 309.769 211.038 311.73C212.044 316.115 215.644 319.39 219.914 319.332L265.531 319.122C270.558 319.122 274.618 314.573 274.589 309.02V307.708C274.623 306.815 274.305 305.944 273.703 305.283C273.101 304.622 272.264 304.224 271.372 304.175Z" fill="white"/>
<path d="M230.299 313.965L227.283 313.979C226.252 313.983 225.42 314.823 225.425 315.854L225.457 323.016C225.462 324.048 226.301 324.88 227.333 324.875L230.349 324.861C231.38 324.857 232.212 324.017 232.207 322.986L232.175 315.824C232.17 314.792 231.331 313.96 230.299 313.965Z" fill="white"/>
<path d="M260.202 313.925L257.186 313.939C256.155 313.943 255.323 314.783 255.327 315.814L255.36 322.977C255.365 324.008 256.204 324.84 257.236 324.835L260.252 324.822C261.283 324.817 262.115 323.977 262.11 322.946L262.078 315.784C262.073 314.753 261.233 313.92 260.202 313.925Z" fill="white"/>
<path opacity="0.2" d="M212.637 315.349H204.067V314.746V313.396V307.583C204.065 307.08 204.186 306.583 204.421 306.138C204.484 306.019 204.555 305.903 204.632 305.793C205.087 305.209 205.713 304.78 206.422 304.567C206.659 304.501 206.904 304.469 207.15 304.472H208.318L208.749 305.305L209.17 306.109C210.048 307.906 210.691 309.808 211.085 311.768C211.377 313.047 211.903 314.261 212.637 315.349Z" fill="black"/>
<path d="M292.265 211.515L288.435 276.502L289.526 329.271L296.009 329.951C299.131 317.56 301.172 304.921 302.108 292.177C302.367 287.811 301.333 282.736 301.811 279.289C302.233 276.263 303.439 274.367 305.124 267.53C307.154 259.257 309.28 248.169 308.744 239.533C308.744 239.533 317.601 230.273 315.341 217.663L292.265 211.515Z" fill="#FFC3BD"/>
<path d="M289.067 339.469L293.96 339.268L295.798 331.445L297.12 324.206L289.909 322.894L289.459 331.665L289.067 339.469Z" fill="#FFC3BD"/>
<path d="M281.722 348.834C282.511 348.238 283.404 347.797 284.356 347.531C284.356 347.531 287.228 344.869 288.913 336.568L292.619 335.754C293.248 335.628 293.9 335.699 294.487 335.955C295.074 336.212 295.569 336.643 295.903 337.19C295.997 337.342 296.068 337.506 296.114 337.678C296.264 338.569 296.357 339.467 296.392 340.369C296.476 343.433 296.374 346.5 296.085 349.552H295.425V343.807C295.425 341.844 293.806 344.094 293.299 346.172C292.791 348.249 291.786 350.471 287.487 350.404C282.469 350.279 280.401 350.002 281.722 348.834Z" fill="#263238"/>
<path d="M289.679 333.599C289.679 333.599 288.721 337.429 287.343 341.576C286.737 343.734 285.723 345.755 284.355 347.531C284.355 347.531 287.544 348.23 289.018 346.114C290.493 343.998 292.676 336.711 295.922 337.219C295.684 336.67 295.385 336.15 295.032 335.668C294.476 334.882 289.679 333.599 289.679 333.599Z" fill="#FFC3BD"/>
<path d="M305.258 214.369L320.167 277.718L336.272 327.979L342.688 326.782C342.139 314.014 340.486 301.318 337.747 288.835C336.789 284.574 334.309 279.997 333.783 276.56C333.323 273.544 333.936 271.389 333.591 264.351C333.179 255.839 332.05 244.607 329.072 236.488C329.072 236.488 334.922 225.083 329.148 213.641L305.258 214.369Z" fill="#FFC3BD"/>
<path d="M338.714 337.908L343.348 336.309L342.879 328.295L342.084 320.979L334.797 321.784L336.866 330.315L338.714 337.908Z" fill="#FFC3BD"/>
<path d="M334.348 348.977C334.937 348.184 335.668 347.506 336.502 346.976C336.502 346.976 338.522 343.596 337.747 335.17L341.069 333.331C341.635 333.032 342.278 332.912 342.913 332.989C343.548 333.066 344.145 333.336 344.622 333.762C344.757 333.885 344.873 334.027 344.967 334.183C345.36 334.992 345.706 335.823 346.001 336.673C346.958 339.585 347.735 342.552 348.327 345.559L347.686 345.741L346.01 340.225C345.464 338.31 344.545 340.953 344.651 343.098C344.756 345.243 344.43 347.656 340.294 348.843C335.487 350.145 333.428 350.49 334.348 348.977Z" fill="#263238"/>
<path d="M337.632 332.106C337.632 332.106 337.833 336.003 337.632 340.417C337.668 342.658 337.271 344.885 336.464 346.976C336.464 346.976 339.72 346.737 340.533 344.295C341.347 341.853 341.357 334.231 344.613 333.762C344.232 333.298 343.799 332.88 343.32 332.517C342.602 331.962 337.632 332.106 337.632 332.106Z" fill="#FFC3BD"/>
<path d="M257.124 161.6L260.341 164.884C263.213 165.392 263.644 169.49 263.644 169.49C264.295 169.873 269.102 173.866 270.548 174.842L267.79 177.993C265.919 176.054 263.919 174.244 261.806 172.573C261.806 172.573 254.548 169.289 253.265 167.958C251.982 166.627 253.265 162.012 253.265 162.012L257.124 161.6Z" fill="#FFC3BD"/>
<path d="M266.594 170.476C271.381 173.396 278.563 177.887 278.563 177.887C281.793 173.65 285.235 169.579 288.875 165.688C291.119 163.141 293.753 160.965 296.679 159.244V172.994C293.356 176.393 282.891 186.716 278.486 186.716C274.828 186.716 267.417 179.505 263.166 175.015L266.594 170.476Z" fill="#407BFF"/>
<path opacity="0.4" d="M289.258 179.994C291.085 175.748 292.683 171.407 294.045 166.991L295.96 170.428L295.242 174.45C293.633 175.991 291.517 178.021 289.258 179.994Z" fill="black"/>
<path d="M330.288 164.884C329.325 177.438 327.524 189.914 324.897 202.227C324.897 202.227 337.872 220.42 333.362 260.569C333.362 260.569 323.231 264.706 288.875 259.707L293.242 202.017C293.242 202.017 291.786 164.74 295.741 160.575C299.255 156.879 314.527 152.044 326.219 157.798C327.522 158.445 328.604 159.463 329.328 160.724C330.052 161.985 330.386 163.433 330.288 164.884Z" fill="#FFC693"/>
<path d="M314.067 200.935C314.067 200.935 303.87 202.706 296.679 200.935V205.311C296.679 205.311 302.022 206.077 314.067 205.311V200.935Z" fill="#407BFF"/>
<path opacity="0.5" d="M314.067 200.935C314.067 200.935 303.87 202.706 296.679 200.935V205.311C296.679 205.311 302.022 206.077 314.067 205.311V200.935Z" fill="black"/>
<path d="M307.202 202.074C307.182 201.584 306.988 201.117 306.654 200.757C306.321 200.397 305.87 200.168 305.382 200.111C304.137 199.872 300.69 199.939 300.643 202.601C300.595 205.263 300.068 207.178 302.672 207.341C305.277 207.503 307.297 207.685 307.221 205.665H302.51L302.567 201.72L307.202 202.074Z" fill="white"/>
<path d="M320.014 141.75C318.664 145.58 316.902 152.379 318.357 156.286C318.526 156.74 318.535 157.239 318.384 157.7C318.233 158.161 317.929 158.557 317.524 158.823C314.585 160.949 309.797 162.653 306.197 162.28C301.572 161.782 302.778 158.507 303.956 156.716C304.272 156.228 304.76 155.558 305.335 155.462C309.874 154.686 310.735 151.278 310.381 147.802L320.014 141.75Z" fill="#FFC3BD"/>
<path opacity="0.2" d="M316.088 144.25L310.343 147.821C310.419 148.665 310.419 149.514 310.343 150.359C311.494 150.329 312.62 150.016 313.622 149.449C314.624 148.881 315.471 148.075 316.088 147.103C316.758 145.896 316.567 144.47 316.088 144.25Z" fill="black"/>
<path d="M312.315 126.152C311.229 128.986 309.711 131.635 307.815 134.004C305.804 136.264 302.874 137.92 299.858 137.652C301.342 136.599 302.96 135.306 303.113 133.497C303.228 132.041 302.357 130.71 301.984 129.303C301.675 127.977 301.778 126.59 302.277 125.324C302.777 124.058 303.649 122.975 304.78 122.217C305.34 121.819 305.975 121.539 306.646 121.392C307.317 121.246 308.011 121.236 308.686 121.365C309.361 121.516 309.972 121.874 310.434 122.389C310.895 122.904 311.185 123.55 311.262 124.237C311.664 124.773 311.923 125.587 312.315 126.152Z" fill="#263238"/>
<path d="M321.814 135.507C320.148 141.444 319.468 145.006 315.762 147.429C310.199 151.086 303.372 146.71 303.238 140.419C303.114 134.674 305.862 125.99 312.258 124.869C313.669 124.615 315.121 124.725 316.478 125.189C317.834 125.653 319.049 126.456 320.008 127.521C320.968 128.587 321.639 129.88 321.958 131.277C322.277 132.675 322.234 134.131 321.833 135.507H321.814Z" fill="#FFC3BD"/>
<path d="M307.958 121.432C307.653 121.84 307.479 122.33 307.46 122.839C307.449 123.762 307.772 124.657 308.368 125.36C308.964 126.064 309.795 126.529 310.706 126.669C311.386 126.756 312.277 126.784 312.478 127.435C312.527 127.798 312.484 128.166 312.353 128.508C312.306 129.054 312.425 129.602 312.695 130.079C312.965 130.555 313.373 130.939 313.866 131.179C314.864 131.639 315.946 131.886 317.045 131.907C316.375 131.208 316.547 129.906 316.71 128.948C316.873 127.991 317.237 127.033 317.332 126.076C317.505 124.237 318.07 121.786 316.518 120.781C314.967 119.775 310.084 118.607 307.958 121.432Z" fill="#263238"/>
<path d="M308.591 134.713C307.634 136.047 306.496 137.243 305.21 138.265C305.483 138.586 305.822 138.845 306.204 139.023C306.585 139.202 307.001 139.296 307.422 139.299L308.591 134.713Z" fill="#ED847E"/>
<path d="M314.422 133.334H314.575C314.642 133.297 314.694 133.237 314.721 133.165C314.747 133.092 314.746 133.013 314.718 132.941C314.532 132.509 314.246 132.127 313.883 131.828C313.52 131.528 313.091 131.319 312.631 131.218C312.554 131.209 312.477 131.23 312.415 131.276C312.352 131.322 312.31 131.39 312.296 131.467C312.285 131.544 312.305 131.623 312.352 131.685C312.398 131.748 312.468 131.79 312.545 131.802C312.906 131.883 313.242 132.049 313.527 132.285C313.811 132.522 314.036 132.822 314.182 133.161C314.202 133.21 314.235 133.252 314.277 133.282C314.319 133.312 314.37 133.33 314.422 133.334Z" fill="#263238"/>
<path d="M305.076 130.538C305.118 130.561 305.166 130.574 305.215 130.574C305.263 130.574 305.311 130.561 305.354 130.538C305.667 130.347 306.021 130.233 306.387 130.205C306.753 130.176 307.121 130.235 307.46 130.375C307.53 130.408 307.61 130.413 307.684 130.388C307.757 130.363 307.818 130.31 307.853 130.241C307.871 130.207 307.882 130.17 307.886 130.132C307.889 130.094 307.885 130.055 307.873 130.018C307.862 129.982 307.843 129.948 307.818 129.919C307.793 129.889 307.763 129.866 307.728 129.848C307.299 129.66 306.83 129.578 306.362 129.608C305.894 129.638 305.44 129.779 305.038 130.021C305.005 130.04 304.976 130.065 304.953 130.095C304.93 130.125 304.913 130.159 304.904 130.195C304.894 130.232 304.891 130.27 304.896 130.307C304.901 130.345 304.913 130.381 304.932 130.413C304.964 130.47 305.015 130.514 305.076 130.538Z" fill="#263238"/>
<path d="M318.136 154.351L307.355 162.012L306.407 155.156L304.635 155.606C304.431 155.652 304.243 155.756 304.096 155.905C303.948 156.055 303.846 156.243 303.802 156.448C303.458 158.076 302.155 162.059 302.232 165.621C302.232 165.621 304.75 160.671 307.02 164.597C307.02 164.597 311.606 160.537 314.029 166.675C315.582 164.443 316.959 162.093 318.146 159.646C319.391 156.774 320.224 155.156 320.224 155.156L318.136 154.351Z" fill="white"/>
<path d="M318.932 154.639C316.01 167.242 314.022 180.044 312.986 192.939C311.645 212.243 311.367 218.074 318.999 217.241C326.63 216.408 332.883 215.441 331.772 212.655C330.662 209.868 326.496 203.635 326.774 200.437C327.052 197.239 329.647 172.401 329.991 168.638C330.336 164.875 332.538 157.004 318.932 154.639Z" fill="#407BFF"/>
<path opacity="0.3" d="M312.976 192.949C313.1 191.245 313.244 189.54 313.407 187.845L327.616 192.059C327.396 194.194 327.205 196.118 327.052 197.603L317.572 194.989L317.677 194.27L312.938 193.562C312.957 193.351 312.966 193.16 312.976 192.949Z" fill="black"/>
<path d="M305.536 155.299C305.536 155.299 299.283 167.058 298.833 186.668C298.383 206.278 299.273 216.724 295.635 217.308C291.996 217.892 291.192 215.393 291.192 215.393C291.192 215.393 292.264 204.736 292.264 202.132C292.264 199.527 291.125 183.805 292.264 172.554C293.404 161.303 292.264 162.021 294.179 160.748C296.094 159.474 300.432 156.324 305.536 155.299Z" fill="#407BFF"/>
<path opacity="0.4" d="M327.846 189.828L324.092 168.312C324.092 168.312 327.195 171.462 329.483 173.875C329.043 178.27 328.43 184.475 327.846 189.828Z" fill="black"/>
<path d="M308.772 181.124C310.093 181.411 317.15 185.911 317.15 185.911C317.15 185.911 320.98 187.07 322.752 187.395L320.837 191.704C319.305 191.015 315.982 190.057 315.982 190.057C315.982 190.057 313.109 189.962 312.219 189.77C312.219 189.77 309.49 190.527 307.891 189.492C306.744 188.542 305.866 187.307 305.344 185.911C305.344 185.911 307.46 180.846 308.772 181.124Z" fill="#FFC3BD"/>
<path d="M321.057 186.505C324.82 187.204 329.483 187.29 329.483 186.668C329.483 185.71 325.911 173.933 323.968 169.595C322.723 166.828 318.864 159.905 323.116 157.482C325.385 156.19 332.471 157.09 335.803 171.778C339.135 186.467 337.603 191.771 334.376 194.06C330.986 196.473 323.336 193.619 319.18 191.771L321.057 186.505Z" fill="#407BFF"/>
<path d="M312.267 134.808C312.171 135.297 311.827 135.651 311.501 135.594C311.176 135.536 310.994 135.076 311.099 134.579C311.204 134.081 311.539 133.736 311.855 133.793C312.171 133.851 312.363 134.31 312.267 134.808Z" fill="#263238"/>
<path d="M306.666 133.707C306.57 134.196 306.225 134.55 305.9 134.483C305.574 134.416 305.392 133.975 305.488 133.525C305.584 133.075 305.928 132.683 306.254 132.74C306.579 132.798 306.761 133.209 306.666 133.707Z" fill="#263238"/>
<path d="M306.407 132.75L305.287 132.175C305.287 132.175 305.698 133.219 306.407 132.75Z" fill="#263238"/>
<path d="M311.999 133.851L310.869 133.276C310.869 133.276 311.3 134.32 311.999 133.851Z" fill="#263238"/>
<path d="M308.963 142.21C308.613 142.248 308.26 142.248 307.91 142.21C307.886 142.21 307.862 142.205 307.839 142.195C307.817 142.185 307.797 142.171 307.781 142.153C307.765 142.135 307.752 142.113 307.745 142.09C307.737 142.067 307.735 142.043 307.738 142.018C307.739 141.995 307.745 141.971 307.755 141.949C307.766 141.928 307.78 141.909 307.798 141.893C307.816 141.877 307.836 141.864 307.859 141.856C307.881 141.848 307.905 141.845 307.929 141.846C308.705 141.912 309.485 141.794 310.207 141.503C310.928 141.212 311.572 140.756 312.085 140.17C312.102 140.153 312.122 140.14 312.144 140.131C312.166 140.121 312.19 140.117 312.214 140.117C312.238 140.117 312.262 140.121 312.284 140.131C312.306 140.14 312.327 140.153 312.343 140.17C312.364 140.184 312.382 140.201 312.395 140.222C312.409 140.242 312.418 140.265 312.423 140.289C312.427 140.314 312.427 140.338 312.421 140.362C312.416 140.386 312.406 140.409 312.391 140.429C311.522 141.443 310.293 142.081 308.963 142.21Z" fill="#263238"/>
<path d="M314.738 121.451C313.397 125.396 317.831 136.264 318.357 137.499C318.653 138.106 318.826 138.765 318.866 139.439C318.905 140.113 318.81 140.788 318.587 141.425C318.74 141.115 319.007 140.876 319.331 140.757C319.655 140.638 320.012 140.647 320.33 140.783L320.253 142.459C319.669 143.134 319.224 143.918 318.945 144.767C318.666 145.615 318.557 146.51 318.625 147.4C322.13 146.442 324.83 144.211 327.54 141.798C328.419 141.1 329.185 140.27 329.809 139.337C330.118 138.87 330.317 138.339 330.393 137.784C330.469 137.228 330.42 136.663 330.25 136.13C329.99 136.383 329.652 136.539 329.291 136.572C328.93 136.605 328.569 136.513 328.268 136.312C327.77 135.796 327.483 135.113 327.463 134.397C327.406 133.678 327.463 132.96 327.463 132.233C327.463 129.485 325.759 125.856 323.308 124.572C320.513 123.368 317.652 122.326 314.738 121.451Z" fill="#263238"/>
<path d="M323.537 141.75C322.453 142.855 320.977 143.488 319.429 143.512C317.371 143.512 316.882 141.549 317.917 139.893C318.874 138.409 321.019 136.608 322.857 137.394C323.26 137.57 323.612 137.845 323.88 138.193C324.148 138.541 324.325 138.951 324.392 139.386C324.46 139.82 324.417 140.264 324.268 140.678C324.118 141.091 323.867 141.46 323.537 141.75Z" fill="#FFC3BD"/>
<path opacity="0.1" d="M276.925 110.985C297.357 90.5535 297.357 57.427 276.925 36.9951C256.493 16.5633 223.366 16.5633 202.935 36.9951C182.503 57.427 182.503 90.5535 202.935 110.985C223.366 131.417 256.493 131.417 276.925 110.985Z" fill="black"/>
<path d="M193.755 160.901C187.378 164.118 170.947 150.042 162.693 142.344C162.121 141.815 161.662 141.176 161.343 140.465C161.024 139.754 160.852 138.987 160.836 138.208C160.821 137.429 160.962 136.655 161.253 135.932C161.543 135.21 161.977 134.553 162.527 134.001C163.077 133.45 163.733 133.015 164.455 132.723C165.177 132.431 165.951 132.287 166.73 132.301C167.508 132.314 168.276 132.485 168.988 132.802C169.699 133.12 170.339 133.577 170.87 134.148C175.504 139.136 183.423 146.902 186.659 145.485C189.896 144.068 188.795 131.122 188.795 131.122L190.758 131.639L195.794 132.97L196.972 133.286C196.972 133.286 199.94 157.827 193.755 160.901Z" fill="#263238"/>
<path d="M216.745 316.527L223.524 331.617L230.878 328.486L224.089 312.256L216.745 316.527Z" fill="#7F3E3B"/>
<path d="M175.993 184.772C175.993 184.772 198.974 237.435 205.829 254.47C212.053 270.029 227.651 317.666 227.651 317.666L218.076 322.119C218.076 322.119 202.411 293.039 198.208 282.956C196.111 277.967 193.171 267.425 190.835 262.551C184.831 250.056 168.247 227.908 162.042 215.537C159.773 211.027 152.534 189.215 152.534 189.215L175.993 184.772Z" fill="#FFB573"/>
<path d="M231.874 328.544C231.838 328.548 231.801 328.541 231.768 328.524C231.736 328.507 231.709 328.48 231.692 328.448C231.67 328.416 231.657 328.377 231.657 328.338C231.657 328.298 231.67 328.26 231.692 328.228C231.778 328.122 233.722 325.614 235.044 325.499C235.166 325.487 235.289 325.501 235.406 325.538C235.523 325.576 235.631 325.638 235.723 325.719C235.842 325.808 235.933 325.929 235.984 326.069C236.035 326.208 236.044 326.359 236.011 326.504C235.867 327.031 235.005 327.567 234.096 327.912C233.375 328.186 232.631 328.397 231.874 328.544ZM232.334 328.084C233.722 327.749 235.522 327.031 235.676 326.399C235.676 326.322 235.676 326.188 235.503 326.016C235.447 325.964 235.38 325.926 235.307 325.905C235.234 325.883 235.157 325.878 235.082 325.891C234.964 325.903 234.849 325.929 234.737 325.968C233.808 326.513 232.992 327.232 232.334 328.084Z" fill="#407BFF"/>
<path d="M231.778 328.572C231.748 328.563 231.72 328.546 231.698 328.522C231.676 328.499 231.661 328.47 231.654 328.438C231.654 328.333 231.089 326.188 231.711 325.03C231.797 324.866 231.915 324.721 232.058 324.604C232.201 324.487 232.367 324.401 232.544 324.35C233.023 324.216 233.263 324.417 233.349 324.618C233.808 325.422 232.679 327.759 231.97 328.448C231.948 328.456 231.925 328.456 231.903 328.448C231.894 328.477 231.878 328.504 231.856 328.525C231.834 328.547 231.808 328.563 231.778 328.572ZM232.554 324.742C232.336 324.825 232.155 324.985 232.047 325.192C231.751 326.073 231.711 327.019 231.932 327.921C232.612 327.012 233.282 325.269 233.052 324.771C233.052 324.723 232.956 324.599 232.64 324.694L232.554 324.742Z" fill="#407BFF"/>
<path d="M230.687 327.51L222.912 330.554C222.765 330.616 222.643 330.725 222.565 330.864C222.488 331.002 222.458 331.163 222.481 331.32L223.438 338.693C223.468 338.998 223.616 339.278 223.851 339.474C224.086 339.669 224.388 339.764 224.693 339.737L224.923 339.68C227.709 338.521 230.141 337.382 233.636 336.022C237.753 334.404 236.892 335.342 241.765 333.523C244.695 332.422 243.977 328.63 242.675 328.946C236.738 330.392 235.503 328.783 232.554 327.452C231.947 327.232 231.279 327.253 230.687 327.51Z" fill="#263238"/>
<path opacity="0.2" d="M179.057 242.884C176.739 230.599 170.123 218.228 170.123 218.228L165.335 221.426C169.06 227.803 174.202 235.473 179.057 242.884Z" fill="black"/>
<path d="M146.721 320.185L144.299 336.606L152.055 338.569L155.09 321.219L146.721 320.185Z" fill="#7F3E3B"/>
<path d="M172.162 188.047C172.162 188.047 173.312 252.258 169.979 273.582C167.758 287.801 154.812 329.846 154.812 329.846L144.088 326.849C144.088 326.849 146.74 293.537 148.741 282.554C149.326 279.346 151.011 273.046 151.394 269.8C152.706 258.712 152.409 236.114 150.925 225.007C150.312 220.478 147.449 211.726 146.769 207.197C146.185 203.262 145.697 191.293 145.697 191.293L172.162 188.047Z" fill="#FFB573"/>
<path d="M152.955 340.283C152.922 340.263 152.896 340.235 152.877 340.201C152.859 340.168 152.849 340.13 152.85 340.091C152.851 340.052 152.864 340.014 152.888 339.983C152.912 339.952 152.946 339.929 152.984 339.919C153.118 339.919 156.067 339.076 157.216 339.804C157.432 339.945 157.588 340.159 157.657 340.407C157.708 340.547 157.718 340.698 157.683 340.843C157.649 340.988 157.573 341.119 157.465 341.221C156.72 341.511 155.89 341.494 155.157 341.173C154.398 340.943 153.661 340.645 152.955 340.283ZM153.578 340.197C154.908 340.79 156.766 341.327 157.235 340.915C157.302 340.867 157.379 340.771 157.302 340.503C157.287 340.425 157.254 340.352 157.206 340.289C157.158 340.226 157.096 340.175 157.025 340.139C156.924 340.073 156.814 340.021 156.699 339.986C155.655 339.85 154.594 339.922 153.578 340.197Z" fill="#407BFF"/>
<path d="M152.869 340.245C152.851 340.216 152.842 340.183 152.842 340.149C152.842 340.115 152.851 340.082 152.869 340.053C152.869 339.957 153.625 337.889 154.784 337.343C154.947 337.268 155.125 337.229 155.306 337.229C155.486 337.229 155.664 337.268 155.828 337.343C156.297 337.535 156.383 337.841 156.354 338.061C156.287 339.019 154.094 340.178 153.118 340.331C153.106 340.338 153.093 340.341 153.079 340.341C153.066 340.341 153.053 340.338 153.041 340.331C153.024 340.338 153.006 340.342 152.988 340.342C152.969 340.341 152.951 340.337 152.935 340.329C152.918 340.32 152.904 340.308 152.892 340.294C152.881 340.279 152.873 340.263 152.869 340.245ZM155.569 337.631C155.35 337.563 155.113 337.584 154.908 337.688C154.179 338.219 153.631 338.961 153.338 339.814C154.391 339.507 155.885 338.511 155.971 337.966C155.971 337.918 155.971 337.774 155.674 337.65H155.569V337.631Z" fill="#407BFF"/>
<path d="M152.534 338.713L144.491 336.319C144.342 336.277 144.183 336.29 144.042 336.355C143.902 336.42 143.789 336.533 143.725 336.673L140.546 343.232C140.408 343.513 140.381 343.835 140.467 344.136C140.554 344.437 140.749 344.695 141.015 344.86L141.235 344.956C144.108 345.76 146.77 346.354 150.379 347.436C154.631 348.7 153.424 348.92 158.413 350.49C161.42 351.448 162.875 347.924 161.64 347.359C155.981 344.841 155.837 342.763 154.133 339.852C153.757 339.29 153.188 338.884 152.534 338.713Z" fill="#263238"/>
<path d="M159.495 190.842L147.085 193.524L147.526 196.635L160.203 193.897L159.495 190.842Z" fill="#263238"/>
<path d="M175.61 187.395L170.468 188.468L171.243 191.513L177.055 190.297L175.61 187.395Z" fill="#263238"/>
<path d="M168.199 188.966L162.071 190.287L162.76 193.342L168.917 192.02L168.199 188.966Z" fill="white"/>
<path d="M142.116 107.28C142.116 107.28 147.258 104.618 146.559 111.11L142.221 110.401L142.116 107.28Z" fill="#263238"/>
<path d="M138.209 126.497C140.383 129.944 143.619 136.139 143.064 140.266C142.999 140.748 143.1 141.237 143.351 141.653C143.602 142.069 143.987 142.387 144.443 142.555C147.789 143.967 151.539 144.096 154.975 142.919C159.38 141.406 158.805 138.974 157.235 137.489C157.03 137.292 156.786 137.139 156.519 137.04C156.252 136.941 155.968 136.899 155.684 136.915C151.078 137.173 149.412 133.698 148.981 130.279L138.209 126.497Z" fill="#7F3E3B"/>
<path opacity="0.2" d="M142.604 128.058L148.972 130.26C149.093 131.097 149.282 131.924 149.537 132.73C148.41 132.948 147.247 132.888 146.149 132.554C145.051 132.22 144.051 131.624 143.236 130.815C142.307 129.8 142.192 128.345 142.604 128.058Z" fill="black"/>
<path d="M134.254 121.001C137.203 126.411 138.649 129.714 142.815 131.256C149.067 133.583 154.774 127.818 153.51 121.681C152.361 116.098 147.765 108.218 141.235 108.543C139.008 108.643 136.911 109.621 135.403 111.263C133.896 112.905 133.101 115.078 133.191 117.305C133.252 118.603 133.616 119.869 134.254 121.001Z" fill="#7F3E3B"/>
<path d="M143.629 117.994C143.839 118.454 144.251 118.712 144.586 118.569C144.921 118.425 144.95 117.956 144.739 117.496C144.529 117.037 144.117 116.797 143.782 116.931C143.447 117.065 143.428 117.554 143.629 117.994Z" fill="#263238"/>
<path d="M148.483 115.198C148.704 115.639 149.106 115.897 149.441 115.763C149.776 115.629 149.805 115.141 149.594 114.691C149.383 114.241 148.962 113.982 148.637 114.126C148.311 114.269 148.273 114.739 148.483 115.198Z" fill="#263238"/>
<path d="M147.018 116.749C148.434 117.597 149.962 118.242 151.557 118.664C151.436 119.07 151.229 119.444 150.95 119.762C150.67 120.079 150.325 120.332 149.939 120.503L147.018 116.749Z" fill="#630F0F"/>
<path d="M142.01 117.468H141.867C141.829 117.462 141.792 117.448 141.76 117.428C141.727 117.408 141.699 117.382 141.676 117.351C141.654 117.319 141.638 117.284 141.63 117.246C141.621 117.209 141.621 117.17 141.627 117.132C141.693 116.669 141.868 116.227 142.138 115.845C142.408 115.462 142.764 115.148 143.179 114.93C143.213 114.914 143.251 114.905 143.289 114.904C143.327 114.902 143.365 114.908 143.4 114.922C143.436 114.935 143.468 114.956 143.496 114.982C143.524 115.008 143.546 115.039 143.562 115.074C143.594 115.145 143.598 115.226 143.571 115.3C143.544 115.373 143.489 115.433 143.418 115.466C143.094 115.645 142.815 115.896 142.604 116.2C142.393 116.504 142.255 116.852 142.202 117.219C142.197 117.274 142.176 117.327 142.142 117.371C142.108 117.415 142.062 117.448 142.01 117.468Z" fill="#263238"/>
<path d="M149.871 113.025C149.83 113.05 149.782 113.063 149.733 113.063C149.684 113.063 149.636 113.05 149.594 113.025C149.253 112.888 148.886 112.833 148.52 112.862C148.155 112.892 147.801 113.007 147.487 113.197C147.425 113.243 147.347 113.263 147.27 113.252C147.193 113.242 147.123 113.201 147.075 113.14C147.03 113.076 147.012 112.997 147.024 112.92C147.037 112.843 147.079 112.774 147.143 112.728C147.536 112.473 147.985 112.316 148.451 112.271C148.918 112.226 149.389 112.294 149.824 112.469C149.893 112.497 149.949 112.55 149.981 112.618C150.013 112.685 150.018 112.762 149.996 112.833C149.995 112.873 149.982 112.913 149.96 112.946C149.939 112.98 149.908 113.007 149.871 113.025Z" fill="#263238"/>
<path d="M129.266 151.517L145.544 192.738L176.031 184.772L169.961 136.101C169.856 135.479 169.612 134.888 169.247 134.372C168.883 133.857 168.407 133.43 167.855 133.124C167.303 132.818 166.69 132.64 166.059 132.603C165.429 132.566 164.799 132.672 164.215 132.912L131.66 146.413C130.695 146.811 129.914 147.556 129.471 148.5C129.028 149.445 128.955 150.521 129.266 151.517Z" fill="#263238"/>
<path d="M148.512 142.555L150.121 140.419L153.051 140.142L154.2 143.282L154.41 145.58L156.067 147.199L164.158 173.588L162.492 178.27L157.331 175.656L152.122 149.181L152.141 146.567L148.627 143.694L148.512 142.555Z" fill="#407BFF"/>
<path d="M141.982 139.586L139.272 143.244L146.856 146.337L150.293 141.07L158.777 140.64L156.613 135.929L153.846 135.44L149.25 139.098L141.982 139.586Z" fill="#263238"/>
<path opacity="0.2" d="M141.982 139.586L139.272 143.244L146.856 146.337L150.293 141.07L158.777 140.64L156.613 135.929L153.846 135.44L149.25 139.098L141.982 139.586Z" fill="white"/>
<path d="M146.502 123.797C146.201 123.721 145.906 123.622 145.621 123.5C145.598 123.492 145.577 123.479 145.559 123.462C145.541 123.445 145.527 123.425 145.517 123.403C145.507 123.38 145.502 123.356 145.502 123.332C145.502 123.307 145.506 123.283 145.515 123.261C145.536 123.215 145.574 123.18 145.62 123.162C145.667 123.144 145.718 123.145 145.764 123.165C146.484 123.485 147.268 123.631 148.055 123.593C148.842 123.555 149.608 123.333 150.293 122.945C150.314 122.931 150.336 122.921 150.36 122.916C150.384 122.911 150.409 122.911 150.433 122.915C150.457 122.919 150.479 122.929 150.5 122.942C150.52 122.955 150.538 122.972 150.552 122.992C150.566 123.013 150.575 123.035 150.581 123.059C150.586 123.083 150.586 123.108 150.582 123.132C150.577 123.156 150.568 123.179 150.555 123.199C150.541 123.22 150.524 123.237 150.504 123.251C149.906 123.603 149.245 123.832 148.558 123.926C147.871 124.02 147.172 123.976 146.502 123.797Z" fill="#263238"/>
<path d="M134.762 126.497C134.762 126.497 140.881 125.042 135.461 118.291C135.461 118.291 135.318 117.247 134.944 113.992C134.944 113.992 147.133 107.289 143.303 103.842C139.473 100.395 137.319 106.111 137.319 106.111C137.319 106.111 131.966 103.756 131.574 110.286C131.574 110.286 126.173 112.594 129.458 117.295C129.034 118.35 128.993 119.52 129.343 120.601C129.693 121.682 130.411 122.607 131.373 123.213C131.373 123.213 132.139 126.353 134.762 126.497Z" fill="#263238"/>
<path d="M133.642 127.024C134.783 128.078 136.292 128.642 137.845 128.594C139.904 128.498 140.296 126.526 139.195 124.917C138.238 123.481 135.93 121.786 134.13 122.648C133.737 122.842 133.399 123.132 133.147 123.491C132.895 123.85 132.737 124.266 132.689 124.702C132.64 125.138 132.702 125.579 132.868 125.985C133.035 126.39 133.301 126.748 133.642 127.024Z" fill="#7F3E3B"/>
<path d="M200.797 105.021L87.8586 212.008L94.2461 218.751L207.185 111.763L200.797 105.021Z" fill="#407BFF"/>
<path opacity="0.5" d="M200.797 105.021L87.8586 212.008L94.2461 218.751L207.185 111.763L200.797 105.021Z" fill="black"/>
<path d="M158.547 166.646L103.968 218.352C103.269 219.015 102.446 219.533 101.547 219.878C100.647 220.223 99.6886 220.387 98.7256 220.361C97.7627 220.335 96.8142 220.12 95.9344 219.728C95.0547 219.335 94.2608 218.774 93.5982 218.074L88.5712 212.76C87.9084 212.061 87.3899 211.238 87.0451 210.339C86.7004 209.439 86.5363 208.481 86.562 207.518C86.5878 206.555 86.8031 205.606 87.1954 204.726C87.5878 203.847 88.1496 203.053 88.8489 202.39L143.428 150.684C145.005 149.196 147.108 148.393 149.276 148.452C151.444 148.512 153.501 149.428 154.994 151L158.825 155.089C159.566 155.865 160.147 156.781 160.534 157.782C160.922 158.783 161.108 159.851 161.082 160.925C161.056 161.998 160.819 163.056 160.384 164.038C159.949 165.019 159.325 165.906 158.547 166.646Z" fill="#407BFF"/>
<path opacity="0.5" d="M158.547 166.646L103.968 218.352C103.269 219.015 102.446 219.533 101.547 219.878C100.647 220.223 99.6886 220.387 98.7256 220.361C97.7627 220.335 96.8142 220.12 95.9344 219.728C95.0547 219.335 94.2608 218.774 93.5982 218.074L88.5712 212.76C87.9084 212.061 87.3899 211.238 87.0451 210.339C86.7004 209.439 86.5363 208.481 86.562 207.518C86.5878 206.555 86.8031 205.606 87.1954 204.726C87.5878 203.847 88.1496 203.053 88.8489 202.39L143.428 150.684C145.005 149.196 147.108 148.393 149.276 148.452C151.444 148.512 153.501 149.428 154.994 151L158.825 155.089C159.566 155.865 160.147 156.781 160.534 157.782C160.922 158.783 161.108 159.851 161.082 160.925C161.056 161.998 160.819 163.056 160.384 164.038C159.949 165.019 159.325 165.906 158.547 166.646Z" fill="white"/>
<path d="M239.534 130.672C238.998 130.672 238.462 130.672 237.925 130.672C222.826 130.459 208.422 124.285 197.857 113.494C187.292 102.704 181.423 88.1739 181.529 73.0729C181.635 57.972 187.708 43.5257 198.424 32.885C209.14 22.2444 223.628 16.2728 238.73 16.2728C253.831 16.2728 268.32 22.2444 279.035 32.885C289.751 43.5257 295.824 57.972 295.931 73.0729C296.037 88.1739 290.167 102.704 279.602 113.494C269.037 124.285 254.634 130.459 239.534 130.672ZM239.381 26.2349C226.826 26.4119 214.851 31.546 206.067 40.5176C197.284 49.4891 192.404 61.5701 192.492 74.1254C192.581 86.6808 197.63 98.6918 206.54 107.539C215.449 116.385 227.495 121.35 240.051 121.35C252.607 121.35 264.653 116.385 273.562 107.539C282.472 98.6918 287.522 86.6808 287.61 74.1254C287.699 61.5701 282.819 49.4891 274.035 40.5176C265.251 31.546 253.276 26.4119 240.721 26.2349C240.262 26.2349 239.821 26.2349 239.381 26.2349Z" fill="#407BFF"/>
<path d="M136.83 176.69L141.618 176.642L145.448 171.625L147.516 172.142C148.192 172.314 148.798 172.691 149.252 173.22C149.706 173.75 149.986 174.406 150.053 175.101C150.107 175.663 150.019 176.229 149.796 176.748C149.574 177.267 149.224 177.721 148.78 178.069L144.672 181.315C144.278 181.622 143.823 181.84 143.337 181.954C142.851 182.068 142.346 182.075 141.857 181.976L141.302 181.851L135.633 181.602L136.83 176.69Z" fill="#7F3E3B"/>
<path d="M137.328 148.98C136.815 148.313 136.163 147.765 135.418 147.375C134.672 146.984 133.851 146.761 133.011 146.719C132.17 146.677 131.331 146.818 130.55 147.132C129.77 147.447 129.067 147.927 128.49 148.539C120.744 156.755 106.572 173.09 109.742 179.496C112.815 185.701 137.337 182.876 137.337 182.876L139.549 174.708C139.549 174.708 126.642 175.809 125.187 172.487C123.731 169.164 131.602 161.37 136.619 156.764C137.695 155.793 138.364 154.451 138.492 153.007C138.619 151.564 138.197 150.125 137.309 148.98H137.328Z" fill="#263238"/>
<path opacity="0.5" d="M231.529 29.7203C213.892 33.5504 194.521 53.9265 194.645 75.6813C195.45 80.4211 195.996 83.3415 196.857 87.1716C196.91 87.4129 197.04 87.6303 197.227 87.7907C197.415 87.9511 197.65 88.0455 197.897 88.0597C198.143 88.0738 198.388 88.0067 198.592 87.8689C198.797 87.731 198.951 87.5298 199.031 87.2961C207.495 63.2431 222.28 44.9257 244.034 31.5683C244.24 31.4398 244.399 31.2486 244.487 31.0229C244.576 30.7973 244.589 30.5491 244.526 30.3151C244.463 30.0811 244.326 29.8737 244.136 29.7235C243.945 29.5733 243.712 29.4882 243.469 29.4809C239.477 29.3947 236.422 29.4905 231.529 29.7203Z" fill="white"/>
<g opacity="0.5">
<path d="M282.851 60.361C272.845 83.4085 255.581 104.215 235.157 118.77C234.971 118.897 234.751 118.967 234.525 118.971L229.039 119.028C228.814 119.034 228.593 118.97 228.406 118.844C228.219 118.718 228.077 118.537 227.998 118.327C227.918 118.116 227.907 117.886 227.965 117.668C228.023 117.451 228.147 117.257 228.321 117.113C248.471 99.4517 265.501 78.5208 278.696 55.1999C278.878 54.8767 279.152 54.6153 279.484 54.4494C279.816 54.2836 280.189 54.2208 280.557 54.2692C280.925 54.3176 281.27 54.475 281.547 54.7211C281.825 54.9672 282.022 55.2907 282.114 55.65C282.373 56.6937 282.631 57.7852 282.957 59.1258C283.06 59.5378 283.023 59.9723 282.851 60.361Z" fill="white"/>
</g>
<path d="M196.043 128.958L195.929 129.513L195.794 133.152L190.758 131.821L190.71 129.197L185.673 125.472L186.181 123.395C186.349 122.717 186.723 122.107 187.251 121.649C187.779 121.192 188.435 120.908 189.13 120.838H189.465C189.971 120.841 190.47 120.957 190.926 121.177C191.381 121.397 191.782 121.717 192.098 122.112L195.364 126.21C195.668 126.592 195.886 127.035 196.003 127.51C196.12 127.984 196.134 128.478 196.043 128.958Z" fill="#7F3E3B"/>
</svg>
