<svg width="264" height="179" viewBox="0 0 264 179" fill="none" xmlns="http://www.w3.org/2000/svg">
<g clip-path="url(#clip0_333_3327)">
<rect width="264" height="179" rx="10" fill="#00B6C4"/>
<g clip-path="url(#clip1_333_3327)">
<path d="M256.089 156.688H9.78481V156.813H256.089V156.688Z" fill="#818181"/>
<path d="M231.409 164.683H215.094V164.807H231.409V164.683Z" fill="#818181"/>
<path d="M172.946 166.035H168.666V166.159H172.946V166.035Z" fill="#818181"/>
<path d="M214.601 160.072H205.148V160.196H214.601V160.072Z" fill="#818181"/>
<path d="M56.9027 160.907H35.627V161.031H56.9027V160.907Z" fill="#818181"/>
<path d="M64.4101 160.907H61.2919V161.031H64.4101V160.907Z" fill="#818181"/>
<path d="M120.695 163.004H74.5479V163.128H120.695V163.004Z" fill="#818181"/>
<path d="M126.533 134.529H31.4152C30.6701 134.527 29.9559 134.228 29.4294 133.696C28.903 133.164 28.6073 132.443 28.6073 131.692V-3.17021C28.6138 -3.91747 28.9124 -4.63197 29.4381 -5.15852C29.9638 -5.68507 30.6743 -5.98114 31.4152 -5.98242H126.533C127.279 -5.98242 127.994 -5.68352 128.522 -5.15147C129.049 -4.61942 129.346 -3.8978 129.346 -3.14537V131.692C129.346 132.444 129.049 133.166 128.522 133.698C127.994 134.23 127.279 134.529 126.533 134.529ZM31.4152 -5.88305C30.7027 -5.88173 30.0199 -5.59534 29.5165 -5.08672C29.0132 -4.57811 28.7305 -3.88884 28.7305 -3.17021V131.692C28.7305 132.41 29.0132 133.1 29.5165 133.608C30.0199 134.117 30.7027 134.403 31.4152 134.405H126.533C127.246 134.403 127.929 134.117 128.433 133.609C128.937 133.1 129.221 132.411 129.222 131.692V-3.17021C129.221 -3.8893 128.937 -4.57856 128.433 -5.08703C127.929 -5.5955 127.246 -5.88174 126.533 -5.88305H31.4152Z" fill="#818181"/>
<path d="M233.089 134.529H137.966C137.221 134.527 136.506 134.228 135.979 133.696C135.452 133.165 135.155 132.444 135.153 131.692V-3.17021C135.161 -3.91792 135.461 -4.63242 135.987 -5.15884C136.514 -5.68525 137.225 -5.98116 137.966 -5.98242H233.089C233.829 -5.97984 234.538 -5.68319 235.063 -5.15678C235.587 -4.63037 235.885 -3.91661 235.892 -3.17021V131.692C235.892 132.442 235.597 133.163 235.071 133.694C234.546 134.226 233.833 134.526 233.089 134.529ZM137.966 -5.88305C137.253 -5.88174 136.57 -5.5955 136.066 -5.08703C135.562 -4.57856 135.278 -3.8893 135.277 -3.17021V131.692C135.278 132.411 135.562 133.1 136.066 133.609C136.57 134.117 137.253 134.403 137.966 134.405H233.089C233.802 134.403 234.485 134.117 234.989 133.609C235.493 133.1 235.777 132.411 235.778 131.692V-3.17021C235.777 -3.8893 235.493 -4.57856 234.989 -5.08703C234.485 -5.5955 233.802 -5.88174 233.089 -5.88305H137.966Z" fill="#818181"/>
<path d="M147.725 95.5254H41.0802V152.555H147.725V95.5254Z" fill="#F0F0F0"/>
<path d="M145.139 149.951V98.1387H43.6664V149.951H145.139Z" fill="#B5B5B5"/>
<path d="M55.0161 149.947V98.1348H43.6664V149.947H55.0161Z" fill="#C8C8C8"/>
<path d="M154.163 152.56V95.5303H147.73V152.56H154.163Z" fill="#B5B5B5"/>
<path d="M145.139 125.437V122.654H43.6664V125.437H145.139Z" fill="#F0F0F0"/>
<path d="M48.0703 156.689H45.8437L44.7452 152.555H48.0703V156.689Z" fill="#F0F0F0"/>
<path d="M140.735 156.689H142.961L144.06 152.555H140.735V156.689Z" fill="#F0F0F0"/>
<path d="M56.7451 156.689H54.5234L53.42 152.555H56.7451V156.689Z" fill="#B5B5B5"/>
<path d="M149.414 156.689H151.636L152.74 152.555H149.414V156.689Z" fill="#B5B5B5"/>
<path d="M58.2426 100.032H52.8436V122.654H58.2426V100.032Z" fill="#F0F0F0"/>
<path d="M58.2475 122.648H72.6859V100.027H58.2475V122.648Z" fill="#C8C8C8"/>
<path d="M63.0406 102.62H59.9963V122.653H63.0406V102.62Z" fill="#FAFAFA"/>
<path d="M63.0406 122.648H71.1736V102.615H63.0406V122.648Z" fill="#818181"/>
<path d="M72.2967 122.649H67.7893L65.1933 103.773H69.7007L72.2967 122.649Z" fill="#FAFAFA"/>
<path d="M72.2967 122.649H84.3459L81.7498 103.773H69.7007L72.2967 122.649Z" fill="#818181"/>
<path d="M93.0946 133.426H87.6956V149.946H93.0946V133.426Z" fill="#F0F0F0"/>
<path d="M93.0995 149.946H101.114V133.426H93.0995V149.946Z" fill="#C8C8C8"/>
<path d="M99.0256 129.918H95.9813V149.951H99.0256V129.918Z" fill="#FAFAFA"/>
<path d="M99.0256 149.946H107.159V129.913H99.0256V149.946Z" fill="#818181"/>
<path d="M54.1786 149.947H49.6713L47.0752 131.071H51.5826L54.1786 149.947Z" fill="#F0F0F0"/>
<path d="M54.1786 149.947H66.2278L63.6317 131.071H51.5826L54.1786 149.947Z" fill="#C8C8C8"/>
<path d="M98.8778 122.649V117.203H76.4494V122.649H98.8778Z" fill="#B5B5B5"/>
<path d="M107.159 122.649V117.203H98.8778V122.649H107.159Z" fill="#C8C8C8"/>
<path d="M107.159 122.033V117.824H99.602V122.033H107.159Z" fill="#F0F0F0"/>
<path d="M100.257 117.204V112.956H77.8287V117.204H100.257Z" fill="#F0F0F0"/>
<path d="M108.538 117.204V112.956H100.257V117.204H108.538Z" fill="#B5B5B5"/>
<path d="M108.538 116.717V113.438H100.981V116.717H108.538Z" fill="#F0F0F0"/>
<path d="M129.301 149.946V144.078H105.149V149.946H129.301Z" fill="#F5F5F5"/>
<path d="M138.227 149.946V144.078H129.306V149.946H138.227Z" fill="#C8C8C8"/>
<path d="M138.222 149.28V144.749H130.085V149.28H138.222Z" fill="#F0F0F0"/>
<path d="M128.035 139.508V134.763H108.508V139.508H128.035Z" fill="#FAFAFA"/>
<path d="M135.247 139.508V134.763H128.035V139.508H135.247Z" fill="#C8C8C8"/>
<path d="M135.252 138.966V135.304H128.671V138.966H135.252Z" fill="#F5F5F5"/>
<path d="M77.3361 149.932V145.187H57.8091V149.932H77.3361Z" fill="#FAFAFA"/>
<path d="M84.5429 149.927V145.182H77.3312V149.927H84.5429Z" fill="#C8C8C8"/>
<path d="M84.5429 149.384V145.723H77.9617V149.384H84.5429Z" fill="#F5F5F5"/>
<path d="M130.789 144.083V139.507H106.636V144.083H130.789Z" fill="#F0F0F0"/>
<path d="M139.705 144.083V139.507H130.784V144.083H139.705Z" fill="#B5B5B5"/>
<path d="M139.71 143.561V140.028H131.572V143.561H139.71Z" fill="#F0F0F0"/>
<path d="M114.06 105.204H109.686V123.528H114.06V105.204Z" fill="#F0F0F0"/>
<path d="M114.06 123.528H125.759V105.204H114.06V123.528Z" fill="#C8C8C8"/>
<path d="M123.74 107.301H119.538V123.533H123.74V107.301Z" fill="#FAFAFA"/>
<path d="M123.74 123.528H130.922V107.296H123.74V123.528Z" fill="#818181"/>
<path d="M170.73 123.633H184.986C186.619 123.632 188.2 123.051 189.45 121.99C190.7 120.929 191.539 119.458 191.818 117.834L195.591 95.9726C196.016 93.5168 197.287 91.291 199.179 89.6876C201.072 88.0842 203.465 87.206 205.936 87.208H220.261C221.23 87.2072 222.187 87.4203 223.065 87.8323C223.943 88.2443 224.722 88.8452 225.345 89.5929C225.968 90.3406 226.422 91.2168 226.674 92.1602C226.926 93.1035 226.97 94.091 226.803 95.0534L222.862 117.944C222.438 120.399 221.168 122.625 219.275 124.228C217.382 125.831 214.989 126.707 212.517 126.703H167.109C167.258 125.844 167.703 125.065 168.365 124.503C169.027 123.942 169.864 123.634 170.73 123.633Z" fill="#FFA033"/>
<path d="M210.276 126.703H211.916L214.887 156.688H213.247L210.276 126.703Z" fill="#818181"/>
<path d="M197.138 126.703H198.779L201.744 156.688H200.104L197.138 126.703Z" fill="#818181"/>
<path d="M198.286 128.248H211.133V126.698H198.286V128.248Z" fill="#818181"/>
<path d="M172.966 126.703H171.326L168.36 156.688H170L172.966 126.703Z" fill="#818181"/>
<path d="M186.109 126.703H184.468L181.498 156.688H183.143L186.109 126.703Z" fill="#818181"/>
<path d="M172.124 128.248H184.971V126.698H172.124V128.248Z" fill="#818181"/>
<path d="M66.0455 87.501C66.0455 89.6305 66.8842 91.6727 68.3771 93.1785C69.87 94.6843 71.8948 95.5302 74.006 95.5302C76.1173 95.5302 78.1421 94.6843 79.635 93.1785C81.1279 91.6727 81.9666 89.6305 81.9666 87.501H66.0455Z" fill="#C8C8C8"/>
<path d="M78.3705 89.3398C78.4158 90.9507 79.0821 92.4804 80.2277 93.6036C81.3734 94.7269 82.9082 95.3553 84.506 95.3553C86.1037 95.3553 87.6385 94.7269 88.7842 93.6036C89.9299 92.4804 90.5961 90.9507 90.6414 89.3398H78.3705Z" fill="#818181"/>
<path d="M191.882 15.4268H76.4494V71.517H191.882V15.4268Z" fill="#F5F5F5"/>
<path d="M107.976 66.6234C119.275 66.6234 128.434 57.3851 128.434 45.989C128.434 34.5929 119.275 25.3545 107.976 25.3545C96.6776 25.3545 87.5183 34.5929 87.5183 45.989C87.5183 57.3851 96.6776 66.6234 107.976 66.6234Z" fill="#FAFAFA"/>
<path d="M192.621 70.0811H75.7105V73.8621H192.621V70.0811Z" fill="#818181"/>
<path d="M154.405 19.7344H113.932C113.754 19.7344 113.584 19.8056 113.458 19.9323C113.333 20.059 113.262 20.2309 113.262 20.4101C113.262 20.5893 113.333 20.7612 113.458 20.8879C113.584 21.0146 113.754 21.0858 113.932 21.0858H154.405C154.582 21.0858 154.753 21.0146 154.878 20.8879C155.004 20.7612 155.074 20.5893 155.074 20.4101C155.074 20.2309 155.004 20.059 154.878 19.9323C154.753 19.8056 154.582 19.7344 154.405 19.7344Z" fill="#818181"/>
<path d="M89.0946 29.1455C89.0946 29.1455 89.2326 34.1687 88.602 35.6643C90.9567 36.3301 95.4443 36.3201 95.4443 36.3201C95.4443 36.3201 96.2079 31.4956 95.9369 29.5827C94.6266 29.2946 89.0946 29.1455 89.0946 29.1455Z" fill="#B5B5B5"/>
<path d="M89.0946 29.1455C89.0946 29.1455 88.7597 34.1588 88.1094 35.6543C90.2178 36.1531 92.3574 36.5066 94.5133 36.7126C94.5133 36.7126 96.2571 31.5006 95.9419 29.5827C94.6266 29.2946 89.0946 29.1455 89.0946 29.1455Z" fill="white"/>
<path d="M102.789 40.4985C102.789 40.4985 103.508 47.9812 102.715 50.2717C106.296 51.0269 112.602 50.386 112.602 50.386C112.602 50.386 113.636 43.2561 113.065 40.4488C111.026 40.1309 102.789 40.4985 102.789 40.4985Z" fill="#B5B5B5"/>
<path d="M102.09 39.7287C102.09 39.7287 101.878 48.9554 101.104 51.2508C104.691 52.0011 112.149 51.4744 112.149 51.4744C112.149 51.4744 113.651 42.4664 112.986 39.6393C110.922 39.3362 102.09 39.7287 102.09 39.7287Z" fill="white"/>
<path d="M140.119 55.9056C140.119 55.9056 141.296 60.7897 140.981 62.3648C143.444 62.5238 147.725 61.5748 147.725 61.5748C147.725 61.5748 147.557 56.6807 146.917 54.8672C145.538 54.8821 140.119 55.9056 140.119 55.9056Z" fill="#B5B5B5"/>
<path d="M140.119 55.9063C140.119 55.9063 140.828 60.8748 140.518 62.4747C142.981 62.6337 147.469 62.0574 147.469 62.0574C147.469 62.0574 147.621 56.6913 146.917 54.8877C145.538 54.8827 140.119 55.9063 140.119 55.9063Z" fill="white"/>
<path d="M163.124 37.6468C163.124 37.6468 166.129 44.5283 166.079 46.9579C169.715 46.5405 175.981 44.4239 175.981 44.4239C175.981 44.4239 174.281 36.8518 172.867 34.3477C170.838 34.7054 163.124 37.6468 163.124 37.6468Z" fill="#B5B5B5"/>
<path d="M162.222 37.1299C162.222 37.1299 164.877 45.964 164.833 48.3936C168.473 47.9812 175.395 45.1293 175.395 45.1293C175.395 45.1293 174.03 36.0964 172.523 33.6221C170.493 33.9798 162.222 37.1299 162.222 37.1299Z" fill="white"/>
<path d="M171.853 36.7372C172.285 36.7372 172.636 36.3835 172.636 35.9472C172.636 35.5109 172.285 35.1572 171.853 35.1572C171.42 35.1572 171.069 35.5109 171.069 35.9472C171.069 36.3835 171.42 36.7372 171.853 36.7372Z" fill="#B5B5B5"/>
<path d="M115.597 36.1807C115.557 36.181 115.518 36.1707 115.484 36.1509C115.426 36.1211 115.382 36.0694 115.361 36.007C115.341 35.9446 115.346 35.8767 115.375 35.818C115.961 34.6852 117.085 33.9896 118.109 33.4629C123.444 30.7053 129.685 30.1638 134.528 29.9849C137.985 29.8095 141.45 29.9842 144.873 30.5066C148.33 31.0406 151.636 32.3036 154.577 34.2132C154.632 34.2501 154.67 34.3074 154.683 34.3727C154.696 34.4379 154.683 34.5056 154.646 34.561C154.609 34.6163 154.552 34.6547 154.488 34.6678C154.423 34.6808 154.356 34.6674 154.301 34.6305C151.42 32.7561 148.178 31.5182 144.789 30.9985C141.39 30.4871 137.949 30.3207 134.518 30.5016C129.73 30.6656 123.557 31.2022 118.306 33.915C117.356 34.4119 116.306 35.0479 115.789 36.0565C115.769 36.0913 115.742 36.1208 115.708 36.1424C115.675 36.164 115.637 36.1772 115.597 36.1807Z" fill="#B5B5B5"/>
<path d="M148.986 36.5734C148.944 36.5732 148.903 36.5622 148.867 36.5413C148.831 36.5204 148.8 36.4904 148.779 36.4541C148.744 36.3988 148.732 36.3316 148.746 36.2673C148.759 36.203 148.798 36.1469 148.853 36.1113C149.413 35.7962 150.036 35.6096 150.675 35.5648C152.626 35.3195 154.601 35.3379 156.547 35.6194C155.998 34.9647 155.504 34.2651 155.07 33.5276C154.822 33.1504 154.643 32.7314 154.542 32.2905C154.491 32.0462 154.495 31.7934 154.554 31.5508C154.613 31.3083 154.725 31.0822 154.882 30.8893C154.904 30.8652 154.931 30.8456 154.96 30.8318C154.99 30.818 155.022 30.8102 155.054 30.8088C155.087 30.8074 155.119 30.8125 155.15 30.8238C155.18 30.835 155.208 30.8522 155.232 30.8744C155.256 30.8966 155.275 30.9233 155.289 30.9531C155.303 30.9828 155.311 31.015 155.312 31.0477C155.313 31.0805 155.308 31.1132 155.297 31.144C155.286 31.1748 155.269 31.203 155.247 31.2272C155.137 31.3645 155.06 31.5258 155.022 31.6982C154.985 31.8707 154.987 32.0497 155.03 32.2209C155.119 32.6039 155.276 32.9674 155.493 33.2941C156.033 34.2027 156.665 35.052 157.38 35.8281C157.414 35.8668 157.436 35.9152 157.442 35.9667C157.448 36.0182 157.439 36.0704 157.414 36.1163C157.389 36.162 157.351 36.1987 157.304 36.221C157.257 36.2433 157.204 36.2501 157.153 36.2405C155.039 35.8628 152.88 35.8092 150.749 36.0815C150.183 36.118 149.632 36.2791 149.134 36.5535C149.087 36.5737 149.036 36.5806 148.986 36.5734Z" fill="#B5B5B5"/>
<path d="M155.966 55.0665C155.901 55.0704 155.837 55.048 155.788 55.0043C155.739 54.9605 155.709 54.8988 155.705 54.833C155.701 54.7671 155.723 54.7023 155.767 54.6529C155.81 54.6035 155.871 54.5736 155.937 54.5696C157.292 54.4074 158.593 53.9395 159.744 53.2006C160.896 52.4618 161.867 51.4709 162.587 50.3016C162.603 50.2734 162.626 50.2489 162.652 50.2294C162.678 50.2098 162.708 50.1957 162.739 50.1879C162.771 50.18 162.804 50.1786 162.836 50.1836C162.868 50.1886 162.899 50.2 162.927 50.2172C162.982 50.2521 163.022 50.3074 163.037 50.3714C163.053 50.4354 163.043 50.5031 163.01 50.56C162.25 51.7932 161.224 52.8381 160.009 53.6173C158.794 54.3966 157.421 54.8901 155.991 55.0615L155.966 55.0665Z" fill="#B5B5B5"/>
<path d="M158.203 57.2128C156.185 57.0437 154.211 56.5225 152.37 55.6726C152.333 55.6538 152.302 55.6264 152.278 55.5927C152.254 55.559 152.238 55.5199 152.232 55.4788C152.225 55.4386 152.229 55.3972 152.243 55.3589C152.256 55.3205 152.28 55.2865 152.311 55.2602C153.109 54.5397 153.902 53.7944 154.666 53.0442C154.689 53.0209 154.716 53.0024 154.746 52.9898C154.776 52.9772 154.808 52.9707 154.841 52.9707C154.873 52.9707 154.905 52.9772 154.935 52.9898C154.965 53.0024 154.992 53.0209 155.015 53.0442C155.061 53.0915 155.086 53.1547 155.086 53.2206C155.086 53.2864 155.061 53.3497 155.015 53.397C154.336 54.0627 153.636 54.7236 152.927 55.3844C154.616 56.1203 156.413 56.5734 158.247 56.7259C158.311 56.7334 158.371 56.7652 158.413 56.815C158.455 56.8648 158.476 56.9289 158.473 56.9942C158.465 57.0588 158.432 57.1176 158.381 57.1583C158.331 57.199 158.267 57.2185 158.203 57.2128Z" fill="#B5B5B5"/>
<path d="M130.474 61.3068C124.094 61.3068 117.838 58.435 114.902 55.5433C114.862 55.496 114.84 55.435 114.842 55.3725C114.844 55.3099 114.869 55.2504 114.913 55.2058C114.956 55.1613 115.015 55.1349 115.077 55.1321C115.139 55.1292 115.2 55.1501 115.247 55.1905C118.937 58.8275 128.597 62.5837 136.429 59.851C136.46 59.8368 136.494 59.8293 136.528 59.829C136.562 59.8286 136.596 59.8355 136.628 59.849C136.659 59.8626 136.687 59.8825 136.711 59.9077C136.734 59.9328 136.752 59.9626 136.763 59.9951C136.774 60.0276 136.779 60.0621 136.776 60.0964C136.774 60.1308 136.764 60.1642 136.748 60.1946C136.732 60.2249 136.71 60.2516 136.683 60.2728C136.656 60.2941 136.625 60.3095 136.592 60.318C134.622 60.9903 132.554 61.3245 130.474 61.3068Z" fill="#B5B5B5"/>
<path d="M115.892 59.4932C115.852 59.4929 115.812 59.4828 115.776 59.4637C115.74 59.4447 115.709 59.4174 115.686 59.3839C114.553 57.6947 113.72 55.8203 113.223 53.844C113.213 53.8031 113.214 53.7606 113.224 53.72C113.234 53.6794 113.254 53.6418 113.282 53.6104C113.31 53.5805 113.344 53.558 113.383 53.545C113.422 53.532 113.463 53.5289 113.503 53.5359C114.557 53.7098 115.631 53.8638 116.69 53.993C116.722 53.9967 116.753 54.0067 116.781 54.0225C116.809 54.0383 116.833 54.0595 116.853 54.0849C116.873 54.1104 116.887 54.1395 116.896 54.1706C116.904 54.2018 116.906 54.2343 116.902 54.2663C116.895 54.3314 116.862 54.3909 116.811 54.4319C116.761 54.4728 116.696 54.4919 116.631 54.4849C115.69 54.3706 114.74 54.2365 113.799 54.0874C114.292 55.8753 115.071 57.5702 116.104 59.1057C116.123 59.1323 116.136 59.1624 116.143 59.1942C116.15 59.2259 116.15 59.2588 116.144 59.2907C116.138 59.3227 116.126 59.3531 116.108 59.3802C116.09 59.4073 116.067 59.4305 116.04 59.4485C115.997 59.4787 115.945 59.4943 115.892 59.4932Z" fill="#B5B5B5"/>
<path d="M132.937 179.127C185.686 179.127 228.448 176.609 228.448 173.502C228.448 170.396 185.686 167.878 132.937 167.878C80.1871 167.878 37.425 170.396 37.425 173.502C37.425 176.609 80.1871 179.127 132.937 179.127Z" fill="white"/>
<path d="M116.326 57.2975C119.387 57.2975 121.868 54.7949 121.868 51.7078C121.868 48.6207 119.387 46.1182 116.326 46.1182C113.265 46.1182 110.784 48.6207 110.784 51.7078C110.784 54.7949 113.265 57.2975 116.326 57.2975Z" fill="#263238"/>
<path d="M116.907 52.3981C115.429 53.7644 113.296 53.8489 112.149 52.5819C111.001 51.3149 111.262 49.1685 112.74 47.822C114.218 46.4755 116.351 46.3712 117.498 47.6382C118.646 48.9052 118.385 51.0317 116.907 52.3981Z" fill="#407BFF"/>
<path d="M111.308 54.1245C113.318 52.0969 113.318 48.8094 111.308 46.7817C109.297 44.754 106.038 44.754 104.028 46.7817C102.017 48.8094 102.017 52.0969 104.028 54.1245C106.038 56.1522 109.297 56.1522 111.308 54.1245Z" fill="#263238"/>
<path d="M102.075 63.0317C101.523 64.5222 100.902 65.819 100.242 67.1754C99.5823 68.5319 98.8335 69.8237 98.0404 71.1056C97.246 72.4065 96.3672 73.653 95.4099 74.837C94.9271 75.4332 94.4164 76.0145 93.8779 76.5809C93.6119 76.8691 93.3311 77.1424 93.0454 77.4157C92.9074 77.5548 92.7547 77.684 92.6119 77.8181L92.3902 78.0218C92.2436 78.148 92.0889 78.2642 91.9271 78.3696C91.5597 78.6074 91.1468 78.7648 90.7153 78.8317C90.3303 78.8899 89.9379 78.8764 89.5577 78.792C89.0023 78.6687 88.4765 78.4357 88.0109 78.1063C87.3264 77.6113 86.7073 77.0302 86.1685 76.3772C85.2167 75.2312 84.36 74.0081 83.607 72.7204C82.1511 70.2341 80.8816 67.6416 79.809 64.9644L81.6169 64.0353C82.3311 65.2129 83.0651 66.4103 83.8237 67.568C84.5824 68.7256 85.341 69.8833 86.1488 70.9764C86.9111 72.0585 87.7525 73.0816 88.6661 74.037C89.0507 74.4449 89.4862 74.8007 89.9616 75.0953C90.0739 75.1716 90.202 75.2209 90.336 75.2394C90.336 75.2394 90.3114 75.2394 90.2326 75.2394C90.1564 75.2475 90.0826 75.2711 90.0158 75.309H89.9813L90.1537 75.1351C90.267 75.0208 90.3853 74.9115 90.4936 74.7873C90.7202 74.5521 90.9419 74.3087 91.1587 74.0569C91.5922 73.5601 92.0109 73.0334 92.405 72.4868C93.203 71.3987 93.9419 70.246 94.6463 69.0635C95.3508 67.881 95.9862 66.6438 96.6168 65.4017C97.2473 64.1595 97.8138 62.8578 98.3113 61.6504L102.075 63.0317Z" fill="#FF8B7B"/>
<path d="M104.814 64.3482C104.232 65.5158 102.518 67.533 101.173 69.0236C100.188 70.0919 99.4345 70.8918 99.4345 70.8918L98.8384 70.3949L93.9124 66.112C95.3311 63.0812 97.1094 59.8566 101.006 59.325C103.439 58.9722 105.843 62.2713 104.814 64.3482Z" fill="#263238"/>
<path opacity="0.3" d="M101.173 69.044C100.188 70.1122 99.4345 70.9122 99.4345 70.9122L98.8384 70.4153C99.331 69.193 100.173 67.3 101.114 66.6094C101.307 67.4073 101.327 68.2375 101.173 69.044Z" fill="black"/>
<path d="M81.8681 64.9448L82.4838 61.5215L78.341 61.6805C78.341 61.6805 79.1489 64.438 80.2228 65.6553L81.8681 64.9448Z" fill="#FF8B7B"/>
<path d="M81.3509 59.9512L78.277 60.6468L78.341 61.6802L82.4839 61.5212L81.3509 59.9512Z" fill="#FF8B7B"/>
<path d="M107.528 169.642L103.533 170.02L103.602 160.828L107.597 160.45L107.528 169.642Z" fill="#FF8B7B"/>
<path d="M128.681 167.724L124.745 168.33L122.336 159.377L126.272 158.766L128.681 167.724Z" fill="#FF8B7B"/>
<path d="M124.07 166.86L128.459 165.956C128.533 165.938 128.611 165.948 128.677 165.986C128.743 166.024 128.792 166.086 128.814 166.16L129.927 169.538C129.951 169.625 129.957 169.716 129.945 169.806C129.934 169.895 129.904 169.981 129.857 170.058C129.811 170.136 129.75 170.202 129.677 170.255C129.604 170.307 129.522 170.344 129.434 170.363C127.897 170.651 127.149 170.711 125.218 171.109C124.03 171.357 121.434 172.072 119.799 172.41C118.163 172.748 117.789 171.138 118.444 170.85C121.4 169.558 122.597 168.316 123.474 167.233C123.624 167.044 123.835 166.912 124.07 166.86Z" fill="#263238"/>
<path d="M103.099 168.827H107.814C107.898 168.827 107.979 168.855 108.045 168.908C108.112 168.96 108.158 169.033 108.178 169.115L109.095 172.867C109.117 172.957 109.119 173.051 109.1 173.141C109.081 173.232 109.041 173.317 108.984 173.39C108.926 173.463 108.853 173.521 108.77 173.56C108.687 173.6 108.595 173.619 108.503 173.617C106.843 173.617 106.04 173.503 103.991 173.503C102.72 173.503 99.4246 173.627 97.671 173.627C95.9173 173.627 95.6414 171.873 96.3557 171.714C99.5626 171.003 101.43 170.025 102.439 169.086C102.62 168.92 102.855 168.828 103.099 168.827Z" fill="#263238"/>
<path opacity="0.2" d="M103.602 160.828L103.563 165.568H107.558L107.597 160.45L103.602 160.828Z" fill="black"/>
<path opacity="0.2" d="M126.277 158.771L122.336 159.378L123.577 163.993L127.518 163.387L126.277 158.771Z" fill="black"/>
<path d="M118.001 83.1142L101.898 83.5664C98.1143 60.2141 99.8975 59.5582 99.8975 59.5582C99.8975 59.5582 102.661 58.8825 105.444 58.4602C105.868 58.3956 106.292 58.336 106.705 58.2863C109.136 58.0408 111.58 57.9711 114.021 58.0776C114.38 58.0776 114.74 58.0776 115.099 58.1124C117.032 58.2242 118.957 58.4515 120.863 58.7931C120.203 61.6798 119.676 64.1343 119.267 66.2807C118.735 69.078 118.39 71.3387 118.183 73.3212C117.862 76.5753 117.801 79.8503 118.001 83.1142Z" fill="#263238"/>
<path opacity="0.3" d="M118.183 73.3207C117.405 70.8811 117.523 65.7983 118.42 64.1338L119.267 66.2802C118.735 69.0775 118.39 71.3382 118.183 73.3207Z" fill="black"/>
<path d="M112.893 53.0543C112.789 55.0417 112.996 57.1186 114.026 58.0775C114.026 58.0775 112.991 63.0014 107.129 65.898C103.361 61.1779 106.72 58.2812 106.72 58.2812C109.346 57.5757 109.395 55.7969 108.691 52.9152L110.769 52.0506C110.954 51.8785 111.186 51.7658 111.434 51.727C111.683 51.6881 111.938 51.7249 112.165 51.8326C112.393 51.9403 112.584 52.1141 112.714 52.3316C112.843 52.5492 112.905 52.8008 112.893 53.0543Z" fill="#FF8B7B"/>
<path opacity="0.2" d="M110.769 52.0513C110.942 51.8882 111.157 51.7774 111.389 51.7316C111.622 51.6858 111.862 51.7069 112.083 51.7924C112.304 51.878 112.497 52.0245 112.639 52.2152C112.781 52.406 112.867 52.6333 112.888 52.8711C111.957 54.3133 110.606 55.4293 109.021 56.0659C109.102 55.0037 108.987 53.9355 108.681 52.9159L110.769 52.0513Z" fill="black"/>
<path d="M116.72 47.1516C115.242 50.8781 114.725 52.4829 112.213 53.8592C108.429 55.9311 104.257 53.4419 104.592 49.3875C104.893 45.7356 107.223 40.2553 111.365 39.8479C112.271 39.7508 113.185 39.8941 114.018 40.2635C114.851 40.6329 115.575 41.2155 116.116 41.9537C116.657 42.6918 116.997 43.5598 117.103 44.4716C117.209 45.3834 117.077 46.3073 116.72 47.1516Z" fill="#FF8B7B"/>
<path d="M114.636 43.823C110.838 44.4441 105.326 41.93 106.39 39.0681C107.124 37.0806 109.676 38.4917 109.676 38.4917C109.676 38.4917 113.76 37.344 116.651 39.6047C119.543 41.8654 120.301 47.0575 114.927 50.4511C113.232 48.5332 113.08 45.2738 114.636 43.823Z" fill="#263238"/>
<path d="M116.425 50.9376C116.021 51.5974 115.38 52.0745 114.636 52.2692C113.651 52.5176 113.213 51.6283 113.533 50.714C113.819 49.8893 114.681 48.7664 115.646 48.9253C116.612 49.0843 116.912 50.1228 116.425 50.9376Z" fill="#FF8B7B"/>
<path d="M101.902 83.5669C101.902 83.5669 100.159 107.769 100.159 123.415C100.159 135.836 102.829 163.71 102.829 163.71L108.597 163.134C108.597 163.134 109.548 133.233 108.429 124.379C111.991 106.879 118.503 90.2348 114.833 83.1396L101.902 83.5669Z" fill="#263238"/>
<path d="M109.533 161.717L101.927 161.95L102.341 164.569L109.454 164.459L109.533 161.717Z" fill="#407BFF"/>
<path opacity="0.3" d="M111.011 92.53L109.119 94.6565C107.311 100.082 108.508 107.615 110.666 114.605C112.868 105.796 115.193 97.6675 115.779 91.4568C115.779 91.0941 115.779 90.9053 115.779 90.9053L111.011 92.53Z" fill="black"/>
<path d="M105.415 83.5165C105.415 83.5165 111.252 110.203 113.636 125.6C117.469 138.022 122.267 161.97 122.267 161.97L127.592 160.688C127.592 160.688 125.129 132.283 122.129 123.424C121.957 105.92 123.163 90.2241 118.001 83.124L105.415 83.5165Z" fill="#263238"/>
<path d="M121.809 163.238L128.567 161.872L128.479 159.104L120.937 160.858L121.809 163.238Z" fill="#407BFF"/>
<path d="M118.242 82.1558L118.971 83.5867C119.025 83.701 118.892 83.8203 118.71 83.8252L101.814 84.2972C101.671 84.2972 101.548 84.2326 101.543 84.1432L101.395 82.6924C101.395 82.593 101.513 82.5036 101.671 82.4986L117.981 82.0415C118.031 82.0348 118.081 82.0419 118.127 82.0621C118.173 82.0822 118.213 82.1146 118.242 82.1558Z" fill="#407BFF"/>
<path d="M116.055 84.0529H116.489C116.577 84.0529 116.641 84.0032 116.636 83.9486L116.434 82.0655C116.434 82.0108 116.351 81.9661 116.262 81.9711H115.828C115.74 81.9711 115.676 82.0208 115.681 82.0754L115.883 83.9585C115.893 84.0132 115.966 84.0579 116.055 84.0529Z" fill="#263238"/>
<path d="M103.045 84.4461H103.479C103.567 84.4461 103.632 84.3964 103.627 84.3417L103.425 82.4587C103.425 82.404 103.341 82.3643 103.252 82.3643H102.819C102.73 82.3643 102.666 82.4139 102.671 82.4686L102.873 84.3517C102.888 84.3815 102.957 84.4461 103.045 84.4461Z" fill="#263238"/>
<path d="M109.548 84.2372H109.986C110.07 84.2372 110.139 84.1875 110.134 84.1279L109.927 82.2498C109.927 82.1951 109.848 82.1504 109.76 82.1504H109.321C109.237 82.1504 109.168 82.2001 109.173 82.2547L109.38 84.1378C109.385 84.1974 109.459 84.2422 109.548 84.2372Z" fill="#263238"/>
<path d="M110.878 46.565C110.779 46.873 110.538 47.0618 110.336 47.0171C110.134 46.9724 110.06 46.6544 110.159 46.3464C110.257 46.0383 110.498 45.8495 110.7 45.8942C110.902 45.9389 110.976 46.2569 110.878 46.565Z" fill="#263238"/>
<path d="M107.444 45.5225C107.341 45.8355 107.099 46.0193 106.902 45.9746C106.705 45.9299 106.622 45.6169 106.725 45.3039C106.829 44.9908 107.065 44.807 107.262 44.8567C107.459 44.9064 107.543 45.1946 107.444 45.5225Z" fill="#263238"/>
<path d="M107.346 44.9011L106.686 44.4639C106.686 44.4639 106.873 45.1595 107.346 44.9011Z" fill="#263238"/>
<path d="M107.671 46.0938C107.171 46.7169 106.592 47.27 105.947 47.7383C106.067 47.8979 106.221 48.0284 106.397 48.1204C106.573 48.2123 106.768 48.2634 106.966 48.27L107.671 46.0938Z" fill="#FF5652"/>
<path d="M107.957 49.9635C107.943 49.9517 107.932 49.9359 107.927 49.9183C107.922 49.9006 107.922 49.8818 107.927 49.8641C107.936 49.8399 107.954 49.8199 107.976 49.8079C107.999 49.796 108.025 49.793 108.05 49.7995C108.431 49.921 108.834 49.9514 109.228 49.8885C109.622 49.8255 109.996 49.6709 110.321 49.4368C110.33 49.4269 110.341 49.419 110.354 49.4138C110.366 49.4085 110.379 49.4059 110.392 49.4063C110.406 49.4066 110.419 49.4099 110.431 49.4157C110.443 49.4216 110.454 49.4301 110.462 49.4405C110.471 49.4509 110.477 49.463 110.48 49.476C110.484 49.489 110.485 49.5026 110.482 49.5159C110.48 49.5292 110.475 49.5419 110.468 49.5531C110.46 49.5644 110.451 49.5738 110.439 49.5809C110.09 49.8407 109.684 50.0127 109.256 50.0827C108.828 50.1527 108.389 50.1186 107.976 49.9834L107.957 49.9635Z" fill="#263238"/>
<path d="M111.597 45.4826C111.572 45.4613 111.554 45.4339 111.543 45.4031C111.474 45.1793 111.351 44.9758 111.186 44.8104C111.022 44.645 110.819 44.5227 110.597 44.4541C110.573 44.4483 110.55 44.4378 110.531 44.4231C110.511 44.4085 110.494 44.39 110.481 44.3687C110.468 44.3475 110.46 44.3239 110.456 44.2994C110.452 44.2748 110.453 44.2497 110.459 44.2256C110.472 44.1761 110.503 44.1336 110.546 44.1068C110.589 44.0799 110.641 44.0709 110.691 44.0815C110.974 44.1654 111.232 44.3179 111.443 44.5258C111.655 44.7337 111.812 44.9905 111.902 45.2739C111.917 45.3221 111.913 45.374 111.891 45.4192C111.869 45.4643 111.831 45.4994 111.784 45.5174C111.753 45.5296 111.719 45.5328 111.686 45.5266C111.653 45.5205 111.622 45.5053 111.597 45.4826Z" fill="#263238"/>
<path d="M105.843 43.3119C105.843 43.3119 105.843 43.287 105.843 43.2771C105.835 43.2271 105.846 43.1756 105.874 43.1338C105.903 43.092 105.947 43.0632 105.996 43.0535C106.286 42.9887 106.587 42.996 106.874 43.0748C107.161 43.1535 107.424 43.3014 107.641 43.5056C107.659 43.5232 107.673 43.5441 107.682 43.5671C107.692 43.5901 107.697 43.6148 107.697 43.6398C107.697 43.6647 107.692 43.6894 107.682 43.7125C107.673 43.7355 107.659 43.7564 107.641 43.7739C107.606 43.8086 107.558 43.8279 107.508 43.8279C107.459 43.8279 107.411 43.8086 107.375 43.7739C107.202 43.6139 106.992 43.499 106.765 43.4392C106.537 43.3795 106.299 43.3767 106.07 43.4311C106.024 43.4427 105.976 43.437 105.934 43.415C105.892 43.393 105.86 43.3563 105.843 43.3119Z" fill="#263238"/>
<path d="M122.149 167.799L122.094 167.77C122.016 167.723 121.951 167.655 121.909 167.573C121.866 167.491 121.847 167.4 121.853 167.307C121.847 167.25 121.857 167.192 121.881 167.139C121.905 167.086 121.943 167.042 121.991 167.009C122.41 166.706 123.73 167.233 123.878 167.293C123.895 167.299 123.91 167.31 123.921 167.325C123.931 167.34 123.937 167.359 123.937 167.377C123.936 167.396 123.931 167.415 123.92 167.431C123.91 167.446 123.895 167.459 123.878 167.466C123.415 167.68 122.592 167.998 122.149 167.799ZM123.592 167.387C123.06 167.193 122.316 167.004 122.114 167.158C122.094 167.174 122.079 167.195 122.069 167.218C122.06 167.242 122.056 167.267 122.06 167.293C122.056 167.354 122.068 167.415 122.095 167.47C122.121 167.525 122.162 167.572 122.213 167.606C122.42 167.745 122.937 167.665 123.577 167.387H123.592Z" fill="#407BFF"/>
<path d="M123.715 167.421C123.282 167.222 122.543 166.591 122.553 166.164C122.555 166.088 122.583 166.015 122.631 165.957C122.679 165.898 122.745 165.858 122.819 165.841C122.887 165.818 122.959 165.81 123.03 165.817C123.102 165.825 123.171 165.848 123.232 165.886C123.725 166.174 123.927 167.302 123.937 167.352C123.938 167.368 123.936 167.385 123.93 167.4C123.924 167.416 123.914 167.43 123.902 167.441C123.888 167.448 123.872 167.452 123.856 167.452C123.839 167.452 123.823 167.448 123.809 167.441L123.715 167.421ZM123.099 166.03C123.026 166.003 122.946 166.003 122.873 166.03C122.759 166.07 122.74 166.129 122.74 166.174C122.74 166.452 123.287 166.999 123.725 167.217C123.659 166.78 123.457 166.374 123.149 166.06L123.099 166.03Z" fill="#407BFF"/>
<path d="M100.996 169.612C100.675 169.635 100.355 169.557 100.08 169.389C100.011 169.335 99.9547 169.265 99.9162 169.186C99.8778 169.107 99.8579 169.02 99.8581 168.931C99.854 168.881 99.8633 168.831 99.8849 168.785C99.9065 168.74 99.9398 168.701 99.9813 168.673C100.415 168.385 101.996 169.115 102.311 169.269C102.328 169.279 102.341 169.293 102.349 169.31C102.357 169.327 102.36 169.346 102.358 169.365C102.355 169.383 102.347 169.401 102.334 169.415C102.322 169.429 102.305 169.439 102.287 169.443C101.864 169.546 101.431 169.602 100.996 169.612ZM100.267 168.792C100.202 168.787 100.137 168.801 100.08 168.832C100.066 168.842 100.055 168.855 100.049 168.871C100.043 168.887 100.041 168.905 100.045 168.922C100.045 168.983 100.059 169.043 100.085 169.098C100.112 169.153 100.15 169.202 100.198 169.24C100.469 169.448 101.119 169.473 101.966 169.319C101.431 169.055 100.857 168.877 100.267 168.792Z" fill="#407BFF"/>
<path d="M102.267 169.448H102.228C101.705 169.23 100.656 168.365 100.75 167.918C100.75 167.819 100.838 167.699 101.08 167.67C102.016 167.555 102.366 169.269 102.38 169.344C102.383 169.361 102.381 169.378 102.375 169.393C102.369 169.409 102.359 169.423 102.346 169.433C102.334 169.441 102.321 169.446 102.308 169.449C102.294 169.451 102.28 169.451 102.267 169.448ZM101.139 167.843H101.075C100.976 167.843 100.922 167.883 100.917 167.928C100.873 168.186 101.597 168.872 102.129 169.17C102.016 168.763 101.7 167.843 101.139 167.843Z" fill="#407BFF"/>
<path d="M110.769 45.9401L110.109 45.5078C110.109 45.5078 110.306 46.1885 110.769 45.9401Z" fill="#263238"/>
<path d="M121.464 61.3877C121.888 62.0336 122.227 62.6149 122.572 63.236C122.917 63.8571 123.242 64.4732 123.558 65.1042C124.173 66.3662 124.735 67.658 125.232 68.9846C125.738 70.3197 126.161 71.6854 126.498 73.0738C126.592 73.4166 126.651 73.7793 126.73 74.1321C126.809 74.4849 126.878 74.8376 126.932 75.2003C126.986 75.563 127.05 75.8959 127.099 76.2984L127.158 76.9393V77.5703C127.093 79.1438 126.768 80.6953 126.198 82.1613C125.669 83.5391 125.025 84.8689 124.272 86.1361C123.541 87.3685 122.749 88.5625 121.897 89.7135C121.042 90.8558 120.128 91.9521 119.159 92.9977L117.631 91.7258C118.365 90.6327 119.109 89.48 119.774 88.3173C120.439 87.1547 121.09 85.9772 121.641 84.7797C122.195 83.6141 122.661 82.4084 123.035 81.1725C123.207 80.5863 123.345 79.9908 123.449 79.3888C123.535 78.8301 123.572 78.2648 123.558 77.6995V77.307L123.498 76.9344C123.454 76.6611 123.37 76.3232 123.311 76.0251C123.252 75.727 123.168 75.409 123.085 75.101C123.001 74.7929 122.927 74.4898 122.828 74.1818C122.469 72.9595 122.001 71.7621 121.528 70.5646C121.055 69.3672 120.493 68.1996 119.902 67.0469C119.617 66.4705 119.316 65.8992 119.006 65.3327C118.695 64.7663 118.36 64.1949 118.065 63.7031L121.464 61.3877Z" fill="#FF8B7B"/>
<path d="M120.863 58.7928C122.794 59.2598 125.05 65.1029 125.05 65.1029L119.429 69.5746C119.429 69.5746 116.168 64.7799 116.597 62.2112C116.961 60.0151 118.405 58.2015 120.863 58.7928Z" fill="#263238"/>
<path d="M77.0658 72.6798L76.9469 79.9131L77.4394 79.9213L77.5583 72.6881L77.0658 72.6798Z" fill="#407BFF"/>
<path d="M76.9154 81.9559L76.8749 84.415L77.3675 84.4233L77.4079 81.9642L76.9154 81.9559Z" fill="#407BFF"/>
<path d="M78.9666 61.6797L78.2376 106.953L95.5183 114.411L113.878 110.312L121.479 65.6893L78.9666 61.6797Z" fill="#407BFF"/>
<path opacity="0.2" d="M99.8532 67.6426L95.9074 110.253L110.439 107.009L116.873 69.2474L99.8532 67.6426Z" fill="white"/>
<path d="M112.814 74.9307L85.7843 72.3818L85.2523 89.3992L105.71 91.327L104.71 97.7861L96.9862 98.596L89.5478 96.3552H89.5429L89.6858 91.9033L85.1883 91.481L84.8976 100.752L96.464 104.235L108.469 102.973L111.075 86.1448L89.9271 84.1524L90.1045 78.4783L111.947 80.5402L112.814 74.9307Z" fill="white"/>
<path d="M113.188 94.7165L115.676 96.5648L117.976 94.8159L115.203 91.79L113.188 94.7165Z" fill="#FF8B7B"/>
<path d="M118.607 90.7061L115.203 91.7892L117.981 94.8151C117.981 94.8151 119.666 93.3245 119.892 91.665L118.607 90.7061Z" fill="#FF8B7B"/>
<path d="M174.818 168.256L178.291 167.118L176.133 158.855L172.661 159.993L174.818 168.256Z" fill="#FFB573"/>
<path d="M178.345 166.651L174.439 167.918C174.373 167.938 174.318 167.983 174.285 168.043C174.252 168.104 174.243 168.175 174.262 168.241L175.074 171.421C175.126 171.585 175.241 171.721 175.392 171.8C175.543 171.879 175.72 171.895 175.882 171.843C177.232 171.376 177.853 171.083 179.572 170.522C180.626 170.174 183.178 169.394 184.636 168.917C186.094 168.44 185.587 166.999 184.927 167.069C181.971 167.387 180.242 167.118 179.015 166.661C178.799 166.585 178.564 166.582 178.345 166.651Z" fill="#263238"/>
<path opacity="0.2" d="M172.661 159.998L176.133 158.855L177.247 163.118L173.769 164.256L172.661 159.998Z" fill="black"/>
<path d="M164.193 76.3574C164.193 76.3574 169.119 106.343 170.597 116.802C172.198 128.254 178.478 161.752 178.478 161.752L172.03 163.551C172.03 163.551 162.818 131.091 160.207 119.957C157.375 107.868 151.143 76.3574 151.143 76.3574H164.193Z" fill="#263238"/>
<path opacity="0.3" d="M156.276 88.654C158.799 95.0089 159.084 105.811 158.06 110.238C156.513 102.969 154.74 94.2735 153.375 87.5113C153.863 85.7772 154.744 84.7885 156.276 88.654Z" fill="black"/>
<path d="M171.867 163.68L178.774 161.762L178.636 158.925L170.863 161.633L171.867 163.68Z" fill="#407BFF"/>
<path d="M179.774 166.859C179.453 166.954 179.122 167.014 178.789 167.038C178.773 167.039 178.757 167.035 178.743 167.027C178.729 167.019 178.718 167.008 178.71 166.994C178.702 166.979 178.697 166.963 178.697 166.946C178.697 166.93 178.702 166.914 178.71 166.899C178.798 166.785 179.562 165.786 180.04 165.816C180.094 165.818 180.147 165.835 180.193 165.865C180.239 165.894 180.276 165.936 180.301 165.985C180.354 166.055 180.387 166.139 180.394 166.227C180.402 166.315 180.385 166.403 180.345 166.482C180.206 166.672 180.003 166.806 179.774 166.859ZM178.991 166.859C179.651 166.78 180.104 166.611 180.212 166.397C180.234 166.347 180.242 166.291 180.236 166.236C180.23 166.181 180.21 166.129 180.178 166.084C180.165 166.06 180.147 166.04 180.125 166.025C180.102 166.011 180.076 166.002 180.05 166C179.794 165.97 179.311 166.457 178.991 166.845V166.859Z" fill="#407BFF"/>
<path d="M178.823 167.034H178.784C178.769 167.032 178.755 167.025 178.744 167.016C178.733 167.006 178.724 166.993 178.72 166.979C178.72 166.939 178.301 165.955 178.542 165.488C178.572 165.43 178.616 165.379 178.669 165.34C178.722 165.301 178.783 165.275 178.848 165.265C178.918 165.244 178.993 165.247 179.061 165.274C179.128 165.301 179.185 165.35 179.222 165.414C179.424 165.772 179.143 166.671 178.863 166.994L178.823 167.034ZM178.823 165.459C178.79 165.468 178.76 165.485 178.733 165.507C178.707 165.529 178.686 165.557 178.67 165.588C178.588 165.988 178.634 166.404 178.803 166.775C179.042 166.403 179.132 165.954 179.055 165.518C179.03 165.473 178.986 165.424 178.863 165.449L178.823 165.459Z" fill="#407BFF"/>
<path d="M163.429 46.1532C163.542 46.3966 163.715 46.7444 163.868 47.0475L164.36 47.9866C164.685 48.6176 165.025 49.2387 165.375 49.8498C166.074 51.082 166.813 52.2794 167.587 53.4222C168.345 54.5395 169.176 55.6051 170.074 56.612C170.891 57.5364 171.82 58.3543 172.838 59.0466L172.089 58.7535C172.316 58.837 172.561 58.8576 172.799 58.8131C173.221 58.7421 173.63 58.6046 174.01 58.4057C175.035 57.8689 175.987 57.2009 176.843 56.4182C177.809 55.563 178.726 54.654 179.592 53.6955C180.478 52.7316 181.36 51.6782 182.173 50.6795L182.222 50.6199C182.467 50.3217 182.811 50.1226 183.189 50.0591C183.568 49.9956 183.957 50.072 184.285 50.2743C184.612 50.4766 184.856 50.7912 184.972 51.1604C185.088 51.5296 185.069 51.9287 184.917 52.2844C184.327 53.6303 183.645 54.9335 182.877 56.1847C182.105 57.4591 181.239 58.6732 180.286 59.8168C179.257 61.0685 178.056 62.166 176.72 63.0761C175.921 63.6052 175.049 64.0136 174.133 64.2885C173.033 64.6121 171.871 64.6582 170.749 64.4226C170.534 64.3782 170.327 64.3029 170.133 64.199L170 64.1295C168.434 63.274 166.994 62.2002 165.725 60.9397C164.53 59.777 163.434 58.5156 162.449 57.1685C161.481 55.8682 160.592 54.511 159.784 53.1042C159.385 52.4036 159.005 51.7031 158.636 50.9826C158.454 50.6249 158.271 50.2672 158.099 49.8995C157.927 49.5318 157.769 49.184 157.582 48.7368C157.266 47.9623 157.26 47.0941 157.566 46.3155C157.873 45.5368 158.467 44.9088 159.224 44.5639C159.981 44.2189 160.841 44.1841 161.623 44.4667C162.405 44.7493 163.047 45.3273 163.414 46.0787L163.429 46.1532Z" fill="#407BFF"/>
<path opacity="0.3" d="M165.611 55.4841C164.065 51.3403 160.779 51.2707 159.355 52.3688C159.459 52.5626 159.567 52.7563 159.675 52.9501C160.448 54.3066 161.295 55.6187 162.212 56.8802C163.151 58.1779 164.183 59.4035 165.301 60.547C165.656 60.8998 166.02 61.2476 166.4 61.5855C166.533 59.5193 166.265 57.4467 165.611 55.4841Z" fill="black"/>
<path d="M184.941 52.9154L188.104 53.4123L187.725 49.8896C187.725 49.8896 183.227 49.5169 182.981 50.7541L183.503 51.8323C183.64 52.1148 183.843 52.3604 184.093 52.5487C184.343 52.737 184.634 52.8627 184.941 52.9154Z" fill="#FFB573"/>
<path d="M190.724 51.3658L190.124 48.8418L187.725 49.9051L188.104 53.4228L190.724 51.3658Z" fill="#FFB573"/>
<path d="M147.474 169.866H151.124L151.597 161.335H147.946L147.474 169.866Z" fill="#FFB573"/>
<path d="M151.316 169.439H147.222C147.188 169.437 147.154 169.443 147.122 169.455C147.089 169.467 147.06 169.485 147.035 169.509C147.01 169.532 146.989 169.561 146.975 169.592C146.961 169.623 146.953 169.657 146.951 169.692L146.754 172.966C146.753 173.138 146.819 173.303 146.938 173.426C147.057 173.549 147.22 173.62 147.39 173.622C148.818 173.597 149.503 173.513 151.306 173.513C152.414 173.513 156.129 173.627 157.661 173.627C159.193 173.627 159.139 172.097 158.498 171.958C155.587 171.342 152.986 170.467 151.951 169.667C151.773 169.518 151.548 169.437 151.316 169.439Z" fill="#263238"/>
<path opacity="0.2" d="M147.946 161.339H151.597L151.35 165.736H147.7L147.946 161.339Z" fill="black"/>
<path d="M157.074 76.1681C157.074 76.1681 156.759 108.36 156.168 118.898C155.518 130.445 152.932 164.663 152.932 164.663H146.237C146.237 164.663 145.779 131.374 145.375 119.946C144.937 107.525 144.464 76.1582 144.464 76.1582L157.074 76.1681Z" fill="#263238"/>
<path d="M145.961 164.673H153.188L153.592 162.114L145.612 162.512L145.961 164.673Z" fill="#407BFF"/>
<path d="M152.611 170.079C152.279 170.072 151.949 170.028 151.626 169.95C151.61 169.946 151.595 169.938 151.584 169.925C151.572 169.913 151.565 169.897 151.562 169.881C151.56 169.865 151.563 169.849 151.569 169.834C151.575 169.819 151.584 169.806 151.597 169.796C151.715 169.712 152.749 169.001 153.193 169.18C153.243 169.2 153.288 169.232 153.322 169.273C153.357 169.315 153.38 169.365 153.39 169.419C153.413 169.499 153.416 169.584 153.397 169.666C153.379 169.747 153.341 169.823 153.286 169.886C153.093 170.032 152.852 170.101 152.611 170.079ZM151.873 169.826C152.523 169.955 153.005 169.935 153.173 169.766C153.21 169.726 153.236 169.675 153.247 169.621C153.258 169.567 153.255 169.511 153.237 169.458C153.233 169.432 153.223 169.407 153.206 169.386C153.19 169.365 153.168 169.349 153.143 169.339C152.902 169.245 152.296 169.553 151.873 169.826Z" fill="#407BFF"/>
<path d="M151.656 169.95C151.643 169.955 151.629 169.955 151.616 169.95C151.603 169.944 151.592 169.934 151.585 169.922C151.577 169.909 151.572 169.895 151.572 169.881C151.572 169.836 151.483 168.778 151.853 168.42C151.9 168.374 151.957 168.34 152.019 168.319C152.081 168.298 152.147 168.292 152.212 168.301C152.285 168.302 152.356 168.329 152.412 168.375C152.468 168.422 152.507 168.487 152.523 168.559C152.607 168.961 152.065 169.731 151.7 169.95C151.686 169.955 151.67 169.955 151.656 169.95ZM152.148 168.46C152.08 168.459 152.015 168.486 151.966 168.534C151.763 168.887 151.679 169.296 151.725 169.702C152.045 169.433 152.405 168.847 152.35 168.584C152.35 168.534 152.311 168.474 152.188 168.46H152.148Z" fill="#407BFF"/>
<path d="M142.828 46.6552C142.774 46.3447 142.783 46.0264 142.853 45.7192C142.924 45.4121 143.055 45.1224 143.239 44.8675C143.423 44.6125 143.656 44.3974 143.924 44.2351C144.192 44.0727 144.489 43.9665 144.799 43.9225H144.843C146.02 43.7486 147.498 43.5698 148.946 43.5002C151.711 43.3411 154.482 43.3411 157.247 43.5002C158.523 43.6194 159.769 43.8331 160.764 44.0269H160.804C161.425 44.1546 162.001 44.4505 162.468 44.8829C162.936 45.3153 163.278 45.8678 163.459 46.4813C164.651 50.5307 166.069 58.7984 164.212 76.3524H144.661C144.523 74.5935 144.912 68.8697 144.626 61.5808C144.348 56.5716 143.748 51.5858 142.828 46.6552Z" fill="#407BFF"/>
<path opacity="0.3" d="M143.015 47.7377C143.424 50.0928 143.922 53.2975 144.267 56.6811C144.267 56.6811 146.05 53.1534 146.375 50.1375C146.7 47.1216 144.148 46.893 143.015 47.7377Z" fill="black"/>
<path d="M148.607 43.5154C148.607 43.5154 150.158 46.273 154.232 47.4456C157.828 45.4581 156.833 43.4707 156.833 43.4707" fill="#F5F5F5"/>
<path d="M156.833 43.4653C154.419 42.8889 153.996 41.3835 154.158 39.7289C154.197 39.3145 154.261 38.903 154.35 38.4967L151.326 35.9627L149.104 34.1045C149.72 36.8024 150.414 41.7163 148.611 43.515C148.611 43.515 150.089 45.9993 154.237 45.7806C157.725 45.5869 156.833 43.4653 156.833 43.4653Z" fill="#FFB573"/>
<path d="M154.05 45.7956L153.36 44.9062L151.759 46.1782L154.05 45.7956Z" fill="#F5F5F5"/>
<path d="M152.641 47.7433C152.681 46.759 152.921 45.7934 153.345 44.9063C152.124 44.5585 149.02 42.7549 149.02 42.7549L147.863 43.4654C148.319 44.4754 148.98 45.3778 149.803 46.1146C150.626 46.8514 151.593 47.4062 152.641 47.7433Z" fill="white"/>
<path d="M154.05 45.7956L154.848 44.9062L156.336 46.1782L154.05 45.7956Z" fill="#F5F5F5"/>
<path d="M155.956 47.445C155.662 46.5671 155.292 45.7174 154.848 44.9061C156.07 44.5583 155.661 42.8242 155.661 42.8242L156.961 43.3757C156.961 43.3757 159.01 46.4513 155.956 47.445Z" fill="white"/>
<path d="M154.37 46.616C154.424 46.8297 154.37 47.0234 154.247 47.0532C154.124 47.0831 153.986 46.939 153.932 46.7253C153.877 46.5117 153.932 46.3179 154.06 46.2881C154.188 46.2583 154.321 46.4024 154.37 46.616Z" fill="#407BFF"/>
<path opacity="0.2" d="M154.35 38.4969C154.261 38.9031 154.197 39.3147 154.158 39.7291C153.03 39.5005 151.523 38.2882 151.365 37.1255C151.31 36.7406 151.296 36.3507 151.326 35.9629L154.35 38.4969Z" fill="black"/>
<path d="M157.301 31.8334C158.804 32.1911 159.07 28.5889 158.143 26.8052C157.4 25.3693 155.34 25.891 154.804 26.4922C154.267 27.0934 155.981 31.1527 155.981 31.1527L157.301 31.8334Z" fill="#263238"/>
<path d="M148.208 30.2235C148.981 33.8059 149.252 35.9374 151.35 37.572C152.027 38.1101 152.836 38.4515 153.69 38.5593C154.545 38.6671 155.412 38.5372 156.199 38.1837C156.986 37.8302 157.662 37.2665 158.154 36.5536C158.646 35.8406 158.935 35.0056 158.991 34.1388C159.267 30.8048 157.956 25.5083 154.222 24.4948C153.419 24.2533 152.567 24.2291 151.752 24.4248C150.936 24.6204 150.186 25.029 149.577 25.6094C148.967 26.1898 148.52 26.9217 148.28 27.7316C148.039 28.5415 148.014 29.4009 148.208 30.2235Z" fill="#FFB573"/>
<path d="M149.39 33.3543C150.508 33.2599 151.853 30.8948 150.232 28.3261C149.365 26.9597 147.434 27.4168 146.892 28.0131C145.414 29.6328 148.07 32.6686 148.07 32.6686L149.39 33.3543Z" fill="#263238"/>
<path d="M149.001 28.9618C151.212 28.8525 155.833 27.2427 156.498 25.0714C157.794 20.8581 153.178 20.7388 150.656 23.0045C148.996 24.495 147.444 26.6514 144.429 27.1979C144.833 27.9631 146.542 29.086 149.001 28.9618Z" fill="#263238"/>
<path d="M148.208 29.5583C149.764 29.29 151.503 27.8242 151.789 26.2293C152.355 23.1438 150.257 23.909 148.414 25.7325C147.272 26.8454 146.937 28.0776 144.828 28.7136C145.158 29.2005 146.459 29.8514 148.208 29.5583Z" fill="#263238"/>
<path d="M154.424 25.3201C155.823 26.8106 158.045 28.2217 158.72 27.3075C159.395 26.3933 158.094 23.0494 156.375 22.9053C154.656 22.7612 153.409 24.2319 154.424 25.3201Z" fill="#263238"/>
<path d="M147.37 33.9647C147.946 34.6609 148.74 35.1378 149.621 35.3161C150.744 35.5049 150.996 34.4616 150.424 33.448C149.932 32.5387 148.715 31.3413 147.715 31.6096C146.715 31.8779 146.646 33.0803 147.37 33.9647Z" fill="#FFB573"/>
<path d="M154.231 31.0647C154.421 31.0301 154.533 30.7656 154.481 30.4739C154.429 30.1823 154.232 29.9739 154.042 30.0086C153.852 30.0432 153.74 30.3077 153.792 30.5993C153.845 30.891 154.041 31.0993 154.231 31.0647Z" fill="#263238"/>
<path d="M157.099 30.1838C157.143 30.4769 157.336 30.6806 157.523 30.6806C157.71 30.6806 157.833 30.3974 157.789 30.1043C157.744 29.8111 157.552 29.6074 157.36 29.6074C157.168 29.6074 157.074 29.8906 157.099 30.1838Z" fill="#263238"/>
<path d="M156.089 30.457C156.576 31.3153 157.174 32.1041 157.868 32.8022C157.687 32.9697 157.472 33.0949 157.238 33.1687C157.003 33.2426 156.756 33.2634 156.513 33.2295L156.089 30.457Z" fill="#ED893E"/>
<path d="M155.419 34.1693C155.078 34.1739 154.739 34.1085 154.423 33.977C154.107 33.8454 153.821 33.6506 153.582 33.4041C153.567 33.387 153.559 33.3645 153.561 33.3417C153.562 33.3189 153.572 33.2975 153.589 33.2824C153.606 33.2672 153.628 33.2595 153.651 33.2609C153.674 33.2623 153.695 33.2727 153.71 33.2898C153.975 33.5508 154.296 33.7479 154.647 33.8666C154.998 33.9854 155.372 34.0226 155.739 33.9755C155.751 33.9734 155.763 33.9737 155.774 33.9763C155.785 33.979 155.796 33.984 155.805 33.991C155.814 33.998 155.822 34.0069 155.828 34.017C155.833 34.0272 155.837 34.0384 155.838 34.05C155.839 34.0615 155.838 34.0732 155.835 34.0843C155.832 34.0953 155.826 34.1056 155.819 34.1145C155.812 34.1233 155.802 34.1306 155.792 34.1357C155.782 34.1409 155.771 34.1438 155.759 34.1444C155.647 34.1598 155.533 34.1681 155.419 34.1693Z" fill="#263238"/>
<path d="M152.607 29.6333C152.577 29.6326 152.548 29.6241 152.523 29.6085C152.503 29.5975 152.485 29.5827 152.47 29.5647C152.456 29.5467 152.445 29.526 152.439 29.5038C152.432 29.4816 152.43 29.4583 152.433 29.4354C152.435 29.4124 152.443 29.3901 152.454 29.37C152.582 29.1274 152.767 28.9204 152.993 28.767C153.219 28.6136 153.478 28.5187 153.749 28.4905C153.772 28.4892 153.794 28.4924 153.815 28.5C153.836 28.5076 153.856 28.5193 153.872 28.5346C153.889 28.5499 153.902 28.5684 153.912 28.589C153.921 28.6096 153.926 28.6319 153.927 28.6545C153.928 28.6773 153.925 28.7002 153.917 28.7218C153.91 28.7435 153.898 28.7634 153.883 28.7804C153.868 28.7975 153.85 28.8114 153.829 28.8214C153.809 28.8313 153.787 28.8371 153.764 28.8383C153.556 28.8676 153.358 28.9469 153.186 29.0697C153.015 29.1925 152.875 29.3552 152.779 29.5439C152.762 29.5745 152.737 29.5994 152.706 29.6153C152.676 29.6313 152.641 29.6376 152.607 29.6333Z" fill="#263238"/>
<path d="M158.469 28.8724C158.44 28.8716 158.412 28.864 158.388 28.8502C158.363 28.8364 158.341 28.8167 158.326 28.7929C158.206 28.605 158.045 28.4472 157.856 28.3318C157.666 28.2164 157.453 28.1464 157.232 28.1271C157.186 28.1271 157.143 28.1088 157.11 28.0762C157.078 28.0436 157.06 27.9993 157.06 27.9532C157.06 27.9071 157.078 27.8628 157.11 27.8302C157.143 27.7976 157.186 27.7793 157.232 27.7793C157.509 27.7988 157.778 27.883 158.018 28.0253C158.257 28.1676 158.46 28.364 158.611 28.5991C158.624 28.618 158.634 28.6393 158.639 28.6618C158.643 28.6843 158.644 28.7075 158.64 28.7302C158.636 28.7528 158.627 28.7744 158.615 28.7937C158.602 28.813 158.586 28.8296 158.567 28.8426C158.538 28.8614 158.503 28.8717 158.469 28.8724Z" fill="#263238"/>
<path d="M147.134 49.7453L147.084 49.79L146.966 49.8994L146.73 50.1627C146.557 50.3416 146.375 50.5353 146.203 50.7291C145.853 51.1266 145.503 51.5439 145.178 51.9862C144.516 52.8777 143.926 53.8215 143.414 54.8083C142.368 56.8425 141.616 59.0178 141.183 61.2674C141.074 61.7376 141.007 62.2164 140.981 62.6984C140.956 63.1881 140.979 63.679 141.05 64.1641C141.214 65.27 141.491 66.3556 141.878 67.4036C142.723 69.696 143.77 71.9076 145.006 74.0118L145.05 74.0913C145.239 74.4246 145.304 74.8151 145.233 75.1925C145.162 75.5698 144.96 75.9091 144.662 76.149C144.365 76.389 143.992 76.5138 143.612 76.5009C143.231 76.488 142.868 76.3383 142.587 76.0788C141.569 75.1276 140.629 74.0958 139.774 72.9933C138.905 71.8818 138.123 70.704 137.434 69.4706C136.699 68.1602 136.126 66.7635 135.73 65.3119C135.512 64.521 135.37 63.7106 135.306 62.8922C135.257 62.0634 135.284 61.2318 135.385 60.4079C135.528 58.9551 135.793 57.5173 136.178 56.1101C136.56 54.6811 137.068 53.2893 137.695 51.9514C138.329 50.5923 139.091 49.2978 139.971 48.0858C140.419 47.4681 140.903 46.8775 141.419 46.317C141.68 46.0338 141.946 45.7506 142.237 45.4773L142.695 45.06L142.942 44.8513L143.272 44.5879C143.605 44.3144 143.99 44.1115 144.403 43.9911C144.816 43.8708 145.249 43.8356 145.675 43.8876C146.102 43.9395 146.514 44.0777 146.887 44.2937C147.26 44.5097 147.585 44.7992 147.845 45.145C148.104 45.4907 148.292 45.8856 148.397 46.3061C148.502 46.7265 148.521 47.164 148.455 47.5924C148.389 48.0208 148.237 48.4313 148.01 48.7995C147.783 49.1676 147.485 49.4859 147.134 49.7354V49.7453Z" fill="#407BFF"/>
<path d="M145.528 73.093L147.533 72.7402L145.666 76.9933C145.666 76.9933 142.35 76.9933 142.503 75.2494L142.897 74.7177C143.538 73.8598 144.479 73.2791 145.528 73.093Z" fill="#FFB573"/>
<path d="M150.247 74.8717L148.538 78.3001L145.666 76.9834L147.533 72.7402L150.247 74.8717Z" fill="#FFB573"/>
<path d="M170.991 9.7882L177.882 42.5907L191.582 45.0949L204.158 39.0779L202.335 5.59473L170.991 9.7882Z" fill="#407BFF"/>
<path opacity="0.3" d="M170.991 9.7882L177.882 42.5907L191.582 45.0949L204.158 39.0779L202.335 5.59473L170.991 9.7882Z" fill="white"/>
<path opacity="0.2" d="M187.045 10.613L191.178 42.0293L201.138 37.2644L199.591 8.93359L187.045 10.613Z" fill="white"/>
<path d="M197.591 13.7129L177.661 16.381L178.463 20.5L194.572 18.3486L195.488 31.56L190.045 33.4332L184.306 33.0555L183.68 29.821L180.36 30.2632L181.67 37.0056L190.591 37.5918L199.054 34.6803L197.591 13.7129Z" fill="white"/>
</g>
</g>
<defs>
<clipPath id="clip0_333_3327">
<rect width="264" height="179" rx="10" fill="white"/>
</clipPath>
<clipPath id="clip1_333_3327">
<rect width="207" height="185" fill="white" transform="translate(29 -6)"/>
</clipPath>
</defs>
</svg>
