<svg width="264" height="179" viewBox="0 0 264 179" fill="none" xmlns="http://www.w3.org/2000/svg">
<rect width="264" height="179" rx="10" fill="#8CD6FF"/>
<path d="M156.89 9.35954L156.302 10.0522C151.36 15.7797 149.826 23.7793 152.528 30.813C152.876 31.7184 153.289 32.5968 153.763 33.4412C155.524 36.4847 157.998 39.0389 160.964 40.8771C163.93 42.7152 167.297 43.7804 170.765 43.9779C174.858 44.1798 179.189 43.1863 182.915 44.8923C187.764 47.093 189.699 52.8601 191.14 58.0137C192.581 63.1673 194.528 68.9344 199.388 71.1114C202.43 72.473 206.008 72.0574 209.147 70.8581C217.43 67.6915 223.093 59.2803 224.464 50.4813C225.834 41.6822 223.373 32.6456 219.128 24.8717C213.186 13.9867 203.388 4.9699 191.522 1.48669C179.656 -1.99653 165.769 0.623801 156.89 9.35954Z" fill="#F5F5F5"/>
<path d="M75.2265 46.5231C86.5803 46.5231 95.7845 37.1679 95.7845 25.6277C95.7845 14.0876 86.5803 4.73242 75.2265 4.73242C63.8726 4.73242 54.6685 14.0876 54.6685 25.6277C54.6685 37.1679 63.8726 46.5231 75.2265 46.5231Z" fill="#F5F5F5"/>
<path d="M224.478 103.074C226.076 96.095 221.805 89.1204 214.938 87.4963C208.071 85.8721 201.209 90.2134 199.611 97.1928C198.013 104.172 202.285 111.147 209.151 112.771C216.018 114.395 222.88 110.054 224.478 103.074Z" fill="#F5F5F5"/>
<path d="M182.643 64.7641L184.419 60.5882C183.022 57.2278 182.912 53.4579 184.112 50.0196C185.311 46.5813 187.731 43.7231 190.898 42.0067C194.065 40.2903 197.749 39.8399 201.226 40.744C204.704 41.6481 207.722 43.8413 209.689 46.8926C211.656 49.9438 212.429 53.6325 211.857 57.2337C211.284 60.8349 209.407 64.0882 206.594 66.3542C203.781 68.6202 200.237 69.735 196.656 69.4796C193.076 69.2242 189.719 67.617 187.246 64.9739L182.643 64.7641Z" fill="white"/>
<path d="M182.643 64.7643H182.954L183.846 64.792L187.254 64.9107L187.191 65.0136C187.186 65.0062 187.183 64.9979 187.182 64.9891C187.18 64.9804 187.181 64.9714 187.183 64.9628C187.185 64.9543 187.189 64.9462 187.195 64.9393C187.2 64.9324 187.207 64.9267 187.215 64.9226C187.226 64.9133 187.241 64.9082 187.256 64.9082C187.27 64.9082 187.285 64.9133 187.296 64.9226C188.941 66.6558 190.981 67.9501 193.235 68.6908C194.692 69.1671 196.215 69.3984 197.745 69.3756C200.294 69.3583 202.792 68.6444 204.977 67.3087C207.161 65.973 208.952 64.0647 210.162 61.7836C211.372 59.5026 211.956 56.9329 211.852 54.3437C211.749 51.7546 210.963 49.2413 209.576 47.0672L209.089 46.327L208.54 45.6383C208.174 45.1895 207.784 44.7613 207.371 44.3558C206.536 43.5716 205.613 42.8888 204.622 42.3213C202.701 41.2298 200.561 40.5976 198.364 40.4728C195.955 40.3524 193.555 40.8535 191.387 41.9295C189.22 43.0055 187.356 44.6213 185.968 46.6267C184.581 48.6321 183.715 50.9617 183.451 53.3987C183.188 55.8357 183.535 58.3009 184.461 60.5646V60.62C183.877 61.946 183.425 62.9712 183.114 63.6837L182.76 64.4753C182.678 64.6574 182.627 64.7564 182.627 64.7564C182.627 64.7564 182.658 64.6693 182.728 64.4912C182.798 64.313 182.911 64.036 183.052 63.6995C183.348 62.9673 183.78 61.9183 184.341 60.5567V60.6082C183.394 58.3722 183.014 55.9309 183.235 53.5072C183.591 49.738 185.358 46.252 188.171 43.769C190.983 41.286 194.627 39.9955 198.348 40.1641C201.777 40.3503 205.032 41.7507 207.551 44.1223C207.978 44.536 208.381 44.9748 208.758 45.4364L209.319 46.137L209.817 46.893C210.987 48.7305 211.739 50.8098 212.019 52.9797C212.299 55.1496 212.1 57.3556 211.437 59.4377C210.773 61.5197 209.662 63.4254 208.184 65.0164C206.705 66.6074 204.896 67.8436 202.889 68.6354C201.247 69.2793 199.501 69.6107 197.741 69.6131C196.188 69.628 194.644 69.3833 193.169 68.8887C190.89 68.1226 188.837 66.7891 187.195 65.0097L187.304 64.9305C187.308 64.9383 187.311 64.9469 187.312 64.9557C187.313 64.9644 187.312 64.9733 187.309 64.9818C187.307 64.9902 187.302 64.9981 187.297 65.0049C187.291 65.0117 187.285 65.0174 187.277 65.0216C187.265 65.025 187.253 65.025 187.242 65.0216L183.792 64.8157L182.923 64.7603L182.643 64.7643Z" fill="#263238"/>
<path d="M194.933 54.9869C194.934 55.3059 194.841 55.6179 194.667 55.8834C194.494 56.1489 194.246 56.356 193.956 56.4785C193.667 56.6009 193.348 56.6331 193.04 56.5711C192.732 56.5091 192.449 56.3555 192.227 56.13C192.005 55.9045 191.854 55.6171 191.793 55.3042C191.732 54.9913 191.764 54.6671 191.884 54.3725C192.005 54.078 192.209 53.8265 192.47 53.6497C192.731 53.473 193.038 53.3791 193.352 53.3799C193.771 53.3809 194.172 53.5506 194.469 53.8517C194.765 54.1529 194.932 54.561 194.933 54.9869Z" fill="#263238"/>
<path d="M199.384 54.9869C199.385 55.3057 199.293 55.6176 199.119 55.883C198.945 56.1484 198.698 56.3555 198.409 56.4781C198.119 56.6006 197.8 56.6331 197.493 56.5714C197.185 56.5097 196.902 56.3566 196.68 56.1314C196.458 55.9063 196.307 55.6192 196.245 55.3066C196.184 54.994 196.215 54.6699 196.335 54.3753C196.455 54.0807 196.658 53.8289 196.918 53.6517C197.179 53.4745 197.486 53.3799 197.799 53.3799C198.219 53.3799 198.622 53.5491 198.919 53.8503C199.216 54.1516 199.383 54.5603 199.384 54.9869Z" fill="#263238"/>
<path d="M203.835 54.9869C203.836 55.3057 203.744 55.6176 203.57 55.883C203.396 56.1484 203.149 56.3555 202.86 56.4781C202.57 56.6006 202.251 56.6331 201.944 56.5714C201.636 56.5097 201.353 56.3566 201.131 56.1314C200.909 55.9063 200.758 55.6192 200.696 55.3066C200.635 54.994 200.666 54.6699 200.786 54.3753C200.906 54.0807 201.109 53.8289 201.369 53.6517C201.63 53.4745 201.937 53.3799 202.25 53.3799C202.67 53.3799 203.073 53.5491 203.37 53.8503C203.667 54.1516 203.834 54.5603 203.835 54.9869Z" fill="#263238"/>
<path d="M103.172 32.1885L104.188 27.0429C101.811 23.5861 100.791 19.3504 101.33 15.1684C101.869 10.9864 103.928 7.16064 107.102 4.44324C110.275 1.72584 114.334 0.313364 118.481 0.483485C122.627 0.653607 126.561 2.39402 129.508 5.36258C132.456 8.33114 134.205 12.3131 134.411 16.5257C134.616 20.7382 133.264 24.8767 130.62 28.1274C127.976 31.3781 124.232 33.506 120.122 34.0927C116.013 34.6794 111.836 33.6825 108.414 31.2979L103.172 32.1885Z" fill="white"/>
<path d="M103.172 32.19L103.499 32.1465L104.496 31.9921L108.429 31.3746C108.444 31.3717 108.457 31.3631 108.466 31.3505C108.474 31.338 108.478 31.3225 108.476 31.3073C108.478 31.2969 108.478 31.2861 108.476 31.2756L108.398 31.3627C111.391 33.4715 114.982 34.5216 118.62 34.3512C119.537 34.286 120.448 34.1537 121.346 33.9553C125.551 33.0366 129.24 30.4933 131.635 26.8623C132.987 24.8254 133.887 22.5148 134.275 20.0898C134.685 17.5096 134.495 14.8679 133.722 12.3753C132.935 9.75545 131.522 7.37439 129.61 5.44445L128.874 4.71219L128.076 4.05908L127.686 3.73055L127.266 3.44556L126.417 2.87558C126.128 2.69746 125.825 2.54705 125.533 2.38477C125.242 2.21545 124.942 2.06474 124.633 1.93353C124.027 1.65423 123.404 1.41622 122.768 1.22106C120.301 0.449348 117.693 0.259825 115.143 0.666908C111.821 1.22383 108.742 2.78788 106.31 5.15405C103.878 7.52022 102.205 10.5781 101.513 13.9269C101.328 14.8496 101.211 15.785 101.162 16.7253C101.146 17.6013 101.18 18.4776 101.263 19.3496C101.575 22.1283 102.564 24.784 104.141 27.076V27.0325C103.826 28.7068 103.58 29.9972 103.413 30.8838C103.335 31.3034 103.277 31.6319 103.234 31.8615C103.191 32.091 103.179 32.1821 103.179 32.1821C103.179 32.1821 103.211 32.0633 103.257 31.8417C103.304 31.62 103.374 31.2796 103.464 30.8521C103.647 29.9813 103.912 28.7068 104.243 27.0562C104.248 27.0408 104.248 27.0241 104.243 27.0087C102.691 24.723 101.721 22.082 101.419 19.3219C101.343 18.4587 101.314 17.5918 101.333 16.7253C101.385 15.7938 101.506 14.8676 101.696 13.9546C102.391 10.6535 104.048 7.64185 106.451 5.31197C108.855 2.98208 111.893 1.44203 115.17 0.892525C117.685 0.498269 120.255 0.691845 122.686 1.45855C123.311 1.64977 123.922 1.88384 124.516 2.15915C124.82 2.28691 125.115 2.43501 125.4 2.60247C125.692 2.76475 125.992 2.91121 126.273 3.08537L127.106 3.64743L127.523 3.92846L127.912 4.24908L128.691 4.89426L129.415 5.61465C131.296 7.51365 132.687 9.85477 133.465 12.4307C134.226 14.8834 134.416 17.4825 134.018 20.0225C133.658 22.3306 132.829 24.5371 131.583 26.5013C130.337 28.4654 128.702 30.144 126.783 31.43C125.112 32.5459 123.253 33.3402 121.3 33.7733C120.408 33.9741 119.504 34.1064 118.593 34.1691C117.741 34.2161 116.887 34.1949 116.038 34.1058C113.317 33.8147 110.709 32.8453 108.444 31.2836C108.434 31.2727 108.419 31.2666 108.404 31.2666C108.388 31.2666 108.374 31.2727 108.363 31.2836C108.355 31.2938 108.351 31.3063 108.351 31.3192C108.351 31.332 108.355 31.3445 108.363 31.3548L108.398 31.2559L104.503 31.9406L103.495 32.1227L103.172 32.19Z" fill="#263238"/>
<path d="M117.74 28.7048C123.151 28.7048 127.538 24.246 127.538 18.7459C127.538 13.2458 123.151 8.78711 117.74 8.78711C112.329 8.78711 107.942 13.2458 107.942 18.7459C107.942 24.246 112.329 28.7048 117.74 28.7048Z" fill="#407BFF"/>
<g opacity="0.3">
<path d="M117.74 28.7048C123.151 28.7048 127.538 24.246 127.538 18.7459C127.538 13.2458 123.151 8.78711 117.74 8.78711C112.329 8.78711 107.942 13.2458 107.942 18.7459C107.942 24.246 112.329 28.7048 117.74 28.7048Z" fill="black"/>
</g>
<path d="M121.663 26.7539C126.621 24.5502 128.883 18.6786 126.714 13.6392C124.546 8.59992 118.769 6.3012 113.811 8.50492C108.853 10.7086 106.592 16.5803 108.76 21.6196C110.928 26.6589 116.705 28.9577 121.663 26.7539Z" fill="#407BFF"/>
<path d="M122.382 22.3636C124.945 19.7589 124.945 15.536 122.382 12.9314C119.819 10.3267 115.665 10.3267 113.102 12.9314C110.539 15.536 110.539 19.7589 113.102 22.3636C115.665 24.9682 119.819 24.9682 122.382 22.3636Z" fill="white"/>
<path d="M117.74 20.909C119.515 20.909 120.953 19.4469 120.953 17.6434C120.953 15.8399 119.515 14.3779 117.74 14.3779C115.966 14.3779 114.527 15.8399 114.527 17.6434C114.527 19.4469 115.966 20.909 117.74 20.909Z" fill="#407BFF"/>
<path d="M124.571 10.3522L124.302 8.22668L126.432 5.91113L126.584 8.20689L124.571 10.3522Z" fill="#455A64"/>
<path d="M129.139 8.66347L126.977 8.48535L124.816 10.599L126.977 10.8365L129.139 8.66347Z" fill="#455A64"/>
<g opacity="0.3">
<path d="M118.172 17.5965L125.657 11.7819C125.376 11.369 125.062 10.9798 124.719 10.6182L118.172 17.0779V17.5965Z" fill="black"/>
</g>
<path d="M126.674 7.88747L123.625 10.9867L118.784 15.9068L117.67 17.0388C117.32 17.3951 117.869 17.9492 118.223 17.589L121.272 14.4897C122.898 12.8537 124.511 11.2137 126.113 9.56971L127.215 8.43766C127.57 8.08142 127.017 7.52728 126.666 7.88747H126.674Z" fill="#263238"/>
<path d="M167.299 39.8111C168.189 39.874 169.071 39.5974 169.771 39.0352C170.471 38.473 170.94 37.6656 171.086 36.7708C171.232 35.876 171.045 34.958 170.561 34.1962C170.076 33.4343 169.33 32.8833 168.468 32.6507C168.986 32.0531 169.306 31.3046 169.382 30.5116C169.458 29.7186 169.287 28.9213 168.892 28.233C168.497 27.5446 167.899 27.0002 167.183 26.677C166.466 26.3538 165.667 26.2682 164.9 26.4324C164.83 25.6496 164.561 24.8988 164.119 24.2534C163.678 23.608 163.079 23.0903 162.381 22.7507C161.684 22.4112 160.912 22.2616 160.14 22.3165C159.369 22.3714 158.624 22.629 157.98 23.064C157.076 22.3897 155.977 22.0421 154.856 22.0766C153.735 22.111 152.658 22.5254 151.796 23.254C151.034 23.1455 150.257 23.2903 149.582 23.6669C148.908 24.0435 148.37 24.6316 148.051 25.3437C147.732 26.0557 147.648 26.8536 147.811 27.6182C147.974 28.3829 148.376 29.0735 148.957 29.5871" fill="#263238"/>
<path d="M151.208 26.8928L151.987 26.8532C155.81 26.6595 159.564 27.9371 162.501 30.4313C165.439 32.9254 167.344 36.453 167.837 40.311C168.795 47.7485 169.756 55.9776 169.904 59.9872C170.208 68.2995 162.116 69.9857 162.116 69.9857L163.284 79.9168L158.919 84.7299L143.451 80.2928L139.946 44.2415C138.793 35.6522 142.742 27.8229 151.208 26.8928Z" fill="#C17560"/>
<path d="M162.186 69.9526C158.403 70.1423 154.646 69.2261 151.36 67.3125C151.36 67.3125 154.269 73.131 162.377 71.9713L162.186 69.9526Z" fill="#7C4236"/>
<path d="M164.133 49.1245C164.15 49.4326 164.049 49.7354 163.851 49.9688C163.652 50.2023 163.372 50.3481 163.07 50.3753C162.922 50.3946 162.773 50.3838 162.629 50.3435C162.486 50.3032 162.352 50.2342 162.235 50.1405C162.118 50.0469 162.021 49.9305 161.949 49.7982C161.877 49.6659 161.832 49.5203 161.816 49.37C161.798 49.0613 161.898 48.7575 162.097 48.5231C162.295 48.2888 162.576 48.1425 162.879 48.1152C163.027 48.0954 163.177 48.1059 163.321 48.1463C163.465 48.1866 163.599 48.2559 163.716 48.35C163.833 48.4442 163.93 48.5613 164.002 48.6943C164.074 48.8274 164.118 48.9737 164.133 49.1245Z" fill="#263238"/>
<path d="M166.287 44.4412C166.15 44.6035 165.235 43.9821 163.981 44.0454C162.727 44.1088 161.839 44.7975 161.699 44.6471C161.629 44.5798 161.762 44.2948 162.147 43.9781C162.67 43.568 163.306 43.3329 163.966 43.3052C164.618 43.2697 165.265 43.4473 165.812 43.8119C166.213 44.0929 166.357 44.37 166.287 44.4412Z" fill="#263238"/>
<path d="M153.416 49.4058C153.433 49.7138 153.332 50.0166 153.134 50.2501C152.935 50.4835 152.655 50.6293 152.353 50.6566C152.205 50.6759 152.055 50.6649 151.911 50.6243C151.768 50.5838 151.634 50.5144 151.517 50.4204C151.4 50.3263 151.303 50.2095 151.231 50.0767C151.159 49.9439 151.114 49.7979 151.099 49.6472C151.082 49.3392 151.183 49.0364 151.381 48.803C151.58 48.5695 151.86 48.4237 152.162 48.3965C152.31 48.3766 152.46 48.3872 152.604 48.4275C152.748 48.4679 152.882 48.5372 152.999 48.6313C153.116 48.7254 153.213 48.8425 153.285 48.9756C153.357 49.1086 153.401 49.2549 153.416 49.4058Z" fill="#263238"/>
<path d="M153.973 45.3028C153.837 45.4651 152.921 44.8476 151.667 44.907C150.413 44.9664 149.526 45.6551 149.382 45.5047C149.311 45.4413 149.444 45.1564 149.833 44.8397C150.356 44.4289 150.992 44.1937 151.652 44.1668C152.304 44.1304 152.951 44.3065 153.498 44.6695C153.895 44.9584 154.043 45.2316 153.973 45.3028Z" fill="#263238"/>
<path d="M158.989 54.5247C158.989 54.4534 159.768 54.2753 161.006 54.0497C161.325 53.9982 161.625 53.9191 161.668 53.6934C161.676 53.3562 161.585 53.0241 161.407 52.7395C161.068 51.9479 160.71 51.1562 160.34 50.3092C158.852 46.8497 157.758 43.9959 157.894 43.9365C158.031 43.8771 159.351 46.632 160.839 50.0954L161.867 52.5416C162.087 52.925 162.168 53.3744 162.096 53.8122C162.054 53.9289 161.987 54.0345 161.899 54.1215C161.811 54.2084 161.706 54.2745 161.59 54.3149C161.416 54.3716 161.235 54.4062 161.053 54.4178C159.783 54.5524 158.997 54.5959 158.989 54.5247Z" fill="#263238"/>
<path d="M154.822 40.3448C154.674 40.6734 153.58 40.3765 152.256 40.4003C150.931 40.424 149.829 40.705 149.689 40.3765C149.631 40.2182 149.853 39.9134 150.316 39.6324C150.911 39.2912 151.581 39.11 152.263 39.1059C152.945 39.0953 153.617 39.2687 154.21 39.6086C154.678 39.8857 154.888 40.1865 154.822 40.3448Z" fill="#263238"/>
<path d="M166.092 39.1815C165.843 39.4863 164.791 39.2369 163.549 39.2884C162.307 39.3398 161.259 39.5971 161.002 39.2884C160.889 39.1459 161.041 38.8451 161.485 38.5482C162.105 38.1757 162.81 37.9763 163.53 37.9703C164.246 37.9401 164.957 38.1055 165.59 38.4492C166.041 38.7461 166.201 39.0351 166.092 39.1815Z" fill="#263238"/>
<path d="M166.875 36.535C166.875 36.535 164.468 31.4488 161.944 30.3603C158.891 29.0422 157.77 32.4383 154.884 31.7733C151.998 31.1084 149.086 29.8457 146.297 32.2206C143.24 34.8251 144.813 36.4678 144.794 40.137C144.728 55.095 142.255 59.4491 141.149 52.4628C141.028 51.6949 138.894 51.1883 138.423 47.9505C137.815 43.7548 137.403 38.6408 138.185 35.6009C138.84 33.04 140.171 31.2231 142.617 29.1728C146.472 25.939 151.963 25.6104 155.729 25.7885C159.495 25.9667 166.898 30.0119 166.875 36.535Z" fill="#263238"/>
<path d="M141.647 52.2315C141.623 51.9275 141.538 51.6316 141.398 51.3619C141.258 51.0923 141.065 50.8543 140.832 50.6626C140.598 50.4709 140.329 50.3293 140.04 50.2466C139.751 50.1638 139.449 50.1416 139.151 50.1812C137.636 50.4068 135.985 51.3686 136.242 54.5629C136.698 60.2231 142.197 58.5884 142.193 58.4261C142.189 58.2638 141.862 54.5985 141.647 52.2315Z" fill="#C17560"/>
<path d="M140.81 56.4003C140.783 56.4003 140.717 56.4755 140.561 56.5666C140.338 56.6859 140.078 56.7129 139.837 56.6418C139.229 56.4716 138.668 55.5612 138.551 54.5439C138.496 54.0605 138.549 53.5705 138.707 53.1111C138.745 52.9294 138.825 52.7598 138.942 52.617C139.059 52.4742 139.208 52.3625 139.377 52.2917C139.486 52.2534 139.605 52.2545 139.714 52.2949C139.822 52.3352 139.914 52.4124 139.973 52.5134C140.059 52.6678 140.031 52.7826 140.062 52.7905C140.094 52.7984 140.175 52.6836 140.109 52.454C140.068 52.3164 139.981 52.1975 139.864 52.1176C139.7 52.0131 139.503 51.9776 139.315 52.0186C139.09 52.0833 138.885 52.2057 138.72 52.3742C138.555 52.5426 138.435 52.7514 138.372 52.9805C138.174 53.4905 138.101 54.0424 138.162 54.5875C138.291 55.7235 138.941 56.7447 139.774 56.9149C139.928 56.947 140.086 56.9434 140.238 56.9044C140.39 56.8653 140.531 56.7918 140.65 56.6893C140.81 56.5349 140.845 56.4083 140.81 56.4003Z" fill="#7C4236"/>
<path d="M141.235 41.2404C141.983 41.7074 142.773 42.1864 143.649 42.2299C144.526 42.2734 145.499 41.7153 145.596 40.8287C145.643 40.4329 145.526 39.9777 145.768 39.6412C146.056 39.2454 146.621 39.3483 147.092 39.3761C148.724 39.4671 150.527 37.5513 150.862 35.9285C151.089 36.2185 151.415 36.4112 151.776 36.4684C152.137 36.5255 152.505 36.443 152.809 36.2372C153.308 35.89 153.743 35.4558 154.094 34.9547C154.557 34.361 155.219 33.8187 155.963 33.886C156.376 33.9256 156.773 34.1552 157.186 34.0958C157.918 33.9929 158.233 33.1023 158.307 32.3582C158.381 31.614 158.424 30.7472 159.028 30.3157C159.631 29.8843 160.34 30.0901 161.018 30.1574C161.695 30.2247 162.576 30.0189 162.7 29.342C162.72 29.1607 162.704 28.977 162.653 28.8022C162.601 28.6273 162.515 28.4649 162.4 28.3248C161.914 27.6603 161.222 27.1816 160.436 26.9662C159.65 26.7507 158.815 26.811 158.066 27.1373C157.742 26.2095 157.154 25.4001 156.378 24.8114C155.601 24.2226 154.671 23.8808 153.703 23.8291C152.736 23.7775 151.775 24.0182 150.942 24.5211C150.109 25.0239 149.442 25.7662 149.023 26.6544C148.404 26.1382 147.671 25.7815 146.887 25.6147C146.104 25.4478 145.292 25.4758 144.521 25.6961C143.75 25.9164 143.042 26.3225 142.459 26.8801C141.875 27.4377 141.433 28.1301 141.169 28.8987C140.475 28.7484 139.753 28.8095 139.093 29.0743C138.433 29.3391 137.865 29.7958 137.459 30.3874C137.053 30.9789 136.828 31.6789 136.812 32.3998C136.796 33.1207 136.989 33.8304 137.368 34.4402C136.394 35.0735 135.584 36.1303 135.619 37.3059C135.654 38.4815 136.838 39.5938 137.956 39.2256C137.755 39.6987 137.739 40.2316 137.91 40.7163C138.082 41.2011 138.428 41.6015 138.879 41.8365C139.33 42.0715 139.852 42.1235 140.339 41.982C140.827 41.8404 141.243 41.5159 141.504 41.0741" fill="#263238"/>
<path d="M158.58 28.8115C158.584 28.847 158.584 28.8829 158.58 28.9184C158.577 29.0203 158.57 29.1221 158.556 29.2232C158.503 29.6115 158.384 29.9876 158.206 30.3354C157.928 30.8876 157.528 31.3671 157.038 31.7366C156.393 32.2447 155.602 32.5229 154.787 32.5283L154.876 32.3977C155.07 32.9095 155.058 33.4785 154.841 33.9809C154.615 34.5023 154.316 34.9876 153.953 35.4217C153.779 35.6697 153.581 35.8991 153.362 36.1065C153.107 36.3023 152.809 36.4315 152.493 36.4825C152.167 36.5479 151.829 36.5309 151.511 36.4329C151.193 36.3349 150.903 36.1589 150.667 35.9204L150.869 35.8492C150.821 36.442 150.651 37.0179 150.371 37.5401C150.09 38.0622 149.706 38.519 149.241 38.8812C148.731 39.307 148.098 39.5529 147.438 39.5818C146.817 39.5842 146.199 39.4798 145.612 39.273L145.76 39.1978C145.504 39.8989 145.08 40.5236 144.525 41.0147C144.273 41.2601 143.969 41.4447 143.637 41.555C143.304 41.6653 142.952 41.6984 142.605 41.6519C142.013 41.5527 141.462 41.2795 141.021 40.8659C140.579 40.4524 140.266 39.9165 140.121 39.3245L140.249 39.3799C139.68 39.7308 139.008 39.8707 138.349 39.7757C137.858 39.707 137.39 39.5227 136.982 39.2374C136.726 39.057 136.503 38.8319 136.324 38.5724C136.259 38.4852 136.207 38.3893 136.168 38.2875C136.401 38.6281 136.694 38.922 137.033 39.1543C137.434 39.4179 137.89 39.5832 138.365 39.6372C138.99 39.7171 139.623 39.5774 140.16 39.2414L140.261 39.1741L140.288 39.2928C140.432 39.8423 140.73 40.3378 141.144 40.7198C141.559 41.1018 142.073 41.354 142.625 41.4461C142.941 41.4837 143.26 41.4496 143.561 41.3462C143.862 41.2428 144.137 41.0728 144.366 40.8484C144.888 40.3792 145.29 39.7866 145.534 39.1226L145.569 39.0158L145.678 39.0514C146.239 39.2476 146.829 39.3466 147.423 39.3443C148.032 39.3171 148.616 39.0877 149.086 38.6912C149.527 38.3516 149.894 37.9219 150.162 37.4298C150.43 36.9376 150.594 36.3938 150.643 35.8334L150.663 35.5642L150.846 35.7661C151.056 35.9754 151.312 36.1299 151.594 36.2161C151.875 36.3022 152.173 36.3176 152.462 36.2609C152.744 36.219 153.012 36.1061 153.241 35.9323C153.45 35.7416 153.638 35.5279 153.802 35.2951C154.155 34.8779 154.447 34.4114 154.67 33.9097C154.77 33.6879 154.826 33.4482 154.835 33.2043C154.843 32.9605 154.805 32.7173 154.721 32.4887L154.67 32.3541H154.81C155.588 32.3615 156.346 32.1114 156.972 31.6416C157.453 31.292 157.852 30.8377 158.14 30.3117C158.372 29.8416 158.521 29.3339 158.58 28.8115Z" fill="#455A64"/>
<path d="M158.927 58.8976C158.884 58.6878 157.529 59.0519 156.259 58.1059C154.989 57.1599 154.756 55.6756 154.565 55.731C154.475 55.731 154.386 56.1268 154.53 56.7562C154.729 57.5661 155.202 58.2792 155.866 58.7709C156.505 59.2414 157.299 59.4428 158.081 59.333C158.662 59.234 158.958 58.9926 158.927 58.8976Z" fill="#263238"/>
<path d="M126.203 178.998C126.203 178.998 128.08 158.439 132.48 152.003L185.357 154.18L187.966 178.547L126.203 178.998Z" fill="#263238"/>
<path d="M142.866 74.1771C142.866 74.1771 143.887 79.6711 157.556 83.2097C157.556 83.2097 163.826 79.0734 162.552 73.6309L178.347 83.2216L182.125 128.404L187.187 160.224C171.532 168.453 149.413 166.502 128.349 160.019L134.466 140.362L133.945 132.363L127.067 89.8832L139.381 77.3674L142.866 74.1771Z" fill="#E0E0E0"/>
<path d="M172.192 90.158L167.346 90.486C166.722 90.5282 166.249 91.0771 166.291 91.7118L166.293 91.7394C166.334 92.3742 166.874 92.8545 167.499 92.8122L172.344 92.4842C172.969 92.4419 173.441 91.8931 173.4 91.2584L173.398 91.2307C173.356 90.596 172.816 90.1157 172.192 90.158Z" fill="#407BFF"/>
<path d="M143.778 120.337C143.778 120.377 143.197 120.223 142.251 120.175C141.697 120.15 141.142 120.174 140.592 120.246C139.922 120.344 139.263 120.504 138.622 120.725C137.985 120.962 137.372 121.26 136.791 121.616C136.319 121.909 135.874 122.244 135.46 122.617C134.755 123.259 134.4 123.745 134.369 123.718C134.433 123.592 134.512 123.473 134.603 123.365C134.696 123.226 134.801 123.093 134.914 122.97C135.055 122.803 135.205 122.645 135.362 122.495C135.771 122.099 136.217 121.745 136.694 121.438C137.282 121.067 137.906 120.758 138.556 120.516C139.21 120.286 139.886 120.129 140.573 120.045C141.133 119.979 141.697 119.97 142.259 120.017C142.475 120.03 142.689 120.057 142.902 120.096C143.063 120.117 143.223 120.15 143.381 120.195C143.519 120.222 143.653 120.27 143.778 120.337Z" fill="#7C4236"/>
<path d="M162.552 73.6211C162.856 73.6211 173.394 76.6214 174.959 77.0924C175.041 77.1201 179.165 78.5768 179.243 78.5886C180.209 78.7153 186.12 80.9873 188.511 86.3546C190.673 91.2034 194.041 102.583 194.041 102.583L177.864 101.036L178.62 90.7997L164.803 78.2126L162.552 73.6211Z" fill="#E0E0E0"/>
<path d="M177.794 88.5283C177.841 88.6962 177.87 88.8687 177.88 89.0429C177.923 89.3793 177.969 89.8662 178.012 90.4678C178.106 91.6553 178.176 93.3375 178.141 95.1781C178.106 97.0187 177.969 98.6851 177.833 99.8844C177.763 100.482 177.697 100.969 177.642 101.301C177.626 101.475 177.592 101.646 177.541 101.812C177.531 101.638 177.538 101.462 177.564 101.29C177.599 100.914 177.638 100.439 177.689 99.8686C177.79 98.6811 177.903 97.0107 177.938 95.1741C177.973 93.3375 177.938 91.679 177.872 90.4758C177.841 89.9058 177.817 89.4268 177.802 89.0508C177.782 88.8773 177.78 88.7023 177.794 88.5283Z" fill="#263238"/>
<path d="M179.064 79.2295C178.999 79.5781 178.912 79.9219 178.803 80.2586C178.355 81.9023 178.085 83.5904 177.997 85.2934C177.996 85.6485 177.97 86.003 177.919 86.3542C177.856 86.0032 177.834 85.6458 177.853 85.2895C177.86 83.5663 178.134 81.8552 178.667 80.219C178.76 79.8743 178.893 79.5421 179.064 79.2295Z" fill="#263238"/>
<path d="M174.527 94.4111L145.32 96.0814C144.926 96.1039 144.556 96.282 144.289 96.5778C144.022 96.8735 143.879 97.2635 143.891 97.6647L144.892 138.157C144.899 138.44 144.962 138.719 145.078 138.977C145.193 139.235 145.358 139.467 145.563 139.659C145.769 139.851 146.01 139.999 146.272 140.095C146.535 140.19 146.813 140.231 147.092 140.215L175.672 138.565C176.213 138.53 176.72 138.282 177.084 137.873C177.447 137.464 177.64 136.927 177.619 136.376L176.206 95.9666C176.199 95.7515 176.149 95.54 176.061 95.3446C175.972 95.1492 175.846 94.9738 175.689 94.8288C175.533 94.6838 175.349 94.5721 175.15 94.5004C174.95 94.4286 174.738 94.3983 174.527 94.4111Z" fill="#263238"/>
<g opacity="0.3">
<path d="M135.557 138.984C138.606 140.693 142.341 140.436 145.768 139.803C150.336 138.962 154.784 137.546 159.008 135.587C161.61 134.4 164.168 132.955 166.984 132.449C171.564 131.621 177.888 132.306 182.46 131.344L182.191 127.663L166.104 125.656L135.557 138.984Z" fill="black"/>
</g>
<path d="M155.426 95.9463C155.426 95.9463 154.164 94.0543 154.674 93.4725C155.021 93.0767 163.728 92.5146 164.305 92.9737C164.639 93.2429 163.966 95.3487 163.966 95.3487L155.426 95.9463Z" fill="#E0E0E0"/>
<path d="M155.426 95.9455C155.481 95.9272 155.539 95.9178 155.597 95.9178L156.08 95.8663L157.864 95.7119L163.958 95.2449L163.872 95.3121C164.033 94.8303 164.163 94.3384 164.262 93.8397C164.319 93.5985 164.328 93.3483 164.289 93.1035C164.289 93.0718 164.266 93.0758 164.262 93.056L164.207 93.0283C164.148 93.0105 164.089 92.996 164.028 92.9847C163.904 92.9847 163.771 92.9491 163.639 92.9412C162.131 92.8853 160.622 92.9104 159.117 93.0164C157.723 93.0995 156.469 93.1985 155.433 93.3489C155.301 93.3687 155.176 93.3885 155.044 93.4162C154.936 93.4337 154.831 93.467 154.732 93.5151C154.677 93.6028 154.641 93.7015 154.626 93.8046C154.611 93.9076 154.618 94.0127 154.647 94.1128C154.724 94.4633 154.844 94.8025 155.005 95.1222C155.134 95.3913 155.247 95.5932 155.321 95.7317C155.364 95.7993 155.402 95.8709 155.433 95.9455C155.377 95.8865 155.328 95.8215 155.285 95.7515C155.2 95.6209 155.075 95.423 154.935 95.1578C154.76 94.8358 154.629 94.4908 154.546 94.1326C154.511 94.0139 154.502 93.8889 154.52 93.7664C154.539 93.644 154.583 93.5271 154.651 93.4241C154.768 93.3474 154.901 93.2986 155.04 93.2816C155.165 93.2499 155.293 93.2262 155.43 93.2024C156.477 93.0322 157.731 92.9214 159.125 92.8264C160.638 92.7066 162.157 92.6762 163.674 92.7354C163.81 92.7354 163.946 92.7591 164.087 92.7829C164.158 92.7948 164.228 92.812 164.297 92.8343C164.339 92.8513 164.378 92.8739 164.414 92.9016C164.449 92.9381 164.476 92.9811 164.495 93.0283C164.556 93.3072 164.556 93.5964 164.495 93.8753C164.397 94.3832 164.267 94.8843 164.106 95.3755L164.087 95.4388H164.02L157.875 95.8346L156.103 95.9296L155.632 95.9494C155.563 95.9563 155.494 95.9549 155.426 95.9455Z" fill="#263238"/>
<path d="M173.744 96.3422H173.647L173.355 96.366L172.237 96.4372L168.121 96.6668L154.542 97.3397L145.518 97.7672L145.604 97.6761C145.604 100.76 145.604 103.344 145.604 105.197C145.604 106.095 145.604 106.804 145.604 107.31C145.604 107.544 145.604 107.726 145.604 107.869C145.613 107.931 145.613 107.996 145.604 108.059C145.6 107.995 145.6 107.932 145.604 107.869C145.604 107.73 145.604 107.544 145.604 107.31C145.604 106.804 145.581 106.095 145.565 105.197C145.542 103.364 145.511 100.775 145.472 97.6761V97.5891H145.518L154.534 97.1339L168.105 96.5322L172.222 96.3699L173.343 96.3343H173.631C173.669 96.3296 173.707 96.3322 173.744 96.3422Z" fill="#455A64"/>
<path d="M163.502 95.0254C163.349 95.0626 163.192 95.0851 163.035 95.0927L161.754 95.2075C160.671 95.2945 159.176 95.4014 157.525 95.5083C155.873 95.6152 154.374 95.6983 153.288 95.7497L152.002 95.8012C151.846 95.8158 151.688 95.8158 151.531 95.8012C151.683 95.7553 151.84 95.73 151.999 95.726C152.298 95.6943 152.738 95.6547 153.28 95.6112C154.362 95.5202 155.858 95.4133 157.509 95.3064C159.16 95.1996 160.659 95.1164 161.746 95.065L163.031 95.0175C163.188 94.9997 163.346 95.0023 163.502 95.0254Z" fill="#263238"/>
<path d="M154.471 95.4953L154.662 97.9771L164.963 97.4467L164.811 94.8857L154.471 95.4953Z" fill="#E0E0E0"/>
<path d="M154.475 95.4957C154.537 95.4817 154.599 95.4738 154.662 95.4719L155.235 95.4244L157.396 95.2661C159.242 95.1394 161.843 94.9653 164.795 94.7832H164.893V94.8822C164.939 95.6738 164.99 96.5288 165.044 97.3837V97.5302H164.943C160.691 97.7479 156.933 97.926 154.639 98.021H154.581V97.9656C154.534 97.174 154.499 96.5644 154.471 96.1132L154.448 95.6342C154.443 95.5816 154.443 95.5285 154.448 95.4759C154.46 95.5346 154.468 95.5941 154.471 95.654L154.526 96.1448C154.569 96.5881 154.627 97.1977 154.697 97.9537L154.639 97.8983C156.925 97.7558 160.687 97.5421 164.935 97.3244L164.842 97.4312V97.3719C164.791 96.5169 164.741 95.6778 164.694 94.8703L164.799 94.9653L157.451 95.3611L155.262 95.464L154.666 95.4838L154.475 95.4957Z" fill="#263238"/>
<path d="M121.276 108.549C121.276 108.549 122.53 118.048 125.206 125.284C127.881 132.519 131.39 138.793 135.331 139.047C139.272 139.3 152.797 136.838 158.482 133.608C164.168 130.378 168.008 128.173 168.008 128.173L176.186 122.398L169.332 114.581C169.332 114.581 151.278 120.273 148.268 120.443C146.461 120.542 144.65 120.424 142.87 120.091C142.87 120.091 143.341 112.531 142.504 109.558C141.667 106.585 139.081 100.977 139.081 100.977L121.276 108.549Z" fill="#C17560"/>
<path d="M170.01 112.572C170.417 111.111 170.924 109.681 171.528 108.293C172.432 106.294 172.658 104.002 172.751 102.751C172.845 101.501 172.623 98.9832 173.53 98.4251C174.437 97.867 176.529 97.6731 176.591 100.851C176.653 104.03 175.664 105.732 176.046 107.204C176.275 108.085 176.656 108.917 177.171 109.662L177.849 109.187L178.472 111.828L170.01 112.572Z" fill="#C17560"/>
<path d="M143.532 107.243L149.966 110.473C149.966 110.473 161.084 113.616 165.847 113.022C170.609 112.428 178.468 111.835 178.468 111.835C178.468 111.835 177.074 105.929 177.631 101.634C180.273 99.5577 183.617 98.6298 186.93 99.0536C192.421 99.7581 193.94 102.335 194.045 102.592C195.003 105.125 198.691 124.24 192.842 128.229C186.993 132.219 169.772 128.922 165.679 127.466C162.225 126.235 152.715 122.371 149.323 120.994C148.519 120.666 147.668 120.471 146.804 120.416L142.711 120.159V116.885C142.734 114.024 142.34 111.175 141.542 108.431L140.799 105.24L143.532 107.243Z" fill="#C17560"/>
<path d="M143.532 107.244L143.353 107.125L142.839 106.749L140.802 105.261L140.849 105.229C141.024 105.974 141.239 106.848 141.468 107.842C141.573 108.344 141.737 108.859 141.881 109.425C142.025 109.991 142.158 110.573 142.271 111.198C142.537 112.565 142.703 113.951 142.769 115.343C142.808 116.095 142.808 116.874 142.8 117.682C142.792 118.489 142.8 119.317 142.8 120.176L142.742 120.112L145.538 120.282L147.006 120.377C147.513 120.417 148.015 120.507 148.505 120.647C149.006 120.795 149.498 120.975 149.977 121.185L151.461 121.787L154.545 123.033L161.166 125.662C162.334 126.113 163.502 126.568 164.671 127.015C165.27 127.237 165.87 127.467 166.493 127.649C167.116 127.831 167.747 127.997 168.39 128.151C171.04 128.77 173.72 129.246 176.42 129.576C179.26 129.946 182.124 130.095 184.987 130.024C186.464 129.98 187.935 129.807 189.384 129.509C190.113 129.347 190.829 129.123 191.522 128.84C192.223 128.553 192.865 128.137 193.418 127.613C193.951 127.068 194.378 126.427 194.676 125.721C194.994 125.013 195.238 124.272 195.404 123.512C195.741 121.967 195.928 120.392 195.961 118.81C196.015 115.748 195.815 112.687 195.365 109.659C195.159 108.166 194.914 106.69 194.61 105.241C194.454 104.517 194.294 103.797 194.092 103.1C194.041 102.926 193.983 102.748 193.924 102.593C193.841 102.439 193.741 102.295 193.628 102.162C193.404 101.886 193.152 101.634 192.877 101.41C191.761 100.537 190.477 99.9154 189.107 99.585C187.777 99.2172 186.404 99.0387 185.026 99.0546C183.684 99.0887 182.355 99.3426 181.093 99.8066C179.859 100.245 178.704 100.885 177.674 101.703L177.705 101.643C177.528 103.381 177.538 105.133 177.736 106.868C177.907 108.53 178.174 110.181 178.534 111.812V111.911H178.437C175.321 112.152 172.331 112.406 169.534 112.679L165.481 113.11C164.215 113.187 162.945 113.14 161.688 112.972C159.478 112.697 157.284 112.308 155.114 111.808C153.147 111.369 151.414 110.921 149.919 110.506L145.145 108.087L143.961 107.466C143.684 107.323 143.548 107.244 143.548 107.244C143.548 107.244 143.692 107.307 143.968 107.446L145.207 108.056L150.001 110.43C151.492 110.826 153.229 111.278 155.196 111.709C157.162 112.14 159.347 112.576 161.758 112.849C163.007 113.011 164.27 113.054 165.527 112.976L169.577 112.536C172.373 112.251 175.349 111.994 178.484 111.745L178.406 111.851C178.043 110.214 177.774 108.557 177.6 106.888C177.398 105.138 177.385 103.372 177.561 101.619V101.584L177.588 101.56C178.635 100.728 179.808 100.076 181.062 99.6285C182.344 99.1536 183.693 98.8942 185.057 98.8606C186.453 98.8425 187.845 99.021 189.193 99.391C190.59 99.7303 191.901 100.366 193.04 101.255C193.325 101.492 193.586 101.758 193.819 102.047C193.942 102.192 194.049 102.35 194.139 102.518C194.213 102.7 194.263 102.874 194.318 103.052C194.524 103.761 194.684 104.485 194.84 105.21C195.147 106.666 195.393 108.143 195.618 109.643C196.045 112.681 196.221 115.75 196.144 118.818C196.111 120.416 195.923 122.007 195.583 123.568C195.41 124.341 195.161 125.094 194.84 125.816C194.531 126.544 194.089 127.206 193.539 127.767C192.394 128.872 190.875 129.351 189.423 129.695C187.962 129.997 186.477 130.169 184.987 130.21C182.114 130.285 179.239 130.133 176.388 129.754C173.681 129.422 170.992 128.943 168.335 128.318C167.693 128.163 167.058 127.997 166.431 127.811C165.804 127.625 165.196 127.395 164.597 127.174C163.397 126.722 162.225 126.263 161.092 125.812L154.471 123.172L151.387 121.917L149.907 121.315C149.433 121.105 148.947 120.924 148.451 120.773C147.969 120.637 147.477 120.547 146.979 120.504L145.514 120.409L142.718 120.231H142.656V120.168C142.656 119.307 142.663 118.475 142.676 117.67C142.676 116.878 142.676 116.087 142.652 115.339C142.591 113.955 142.432 112.578 142.177 111.218C142.06 110.597 141.928 110.007 141.788 109.453C141.647 108.899 141.492 108.376 141.398 107.869L140.795 105.253V105.174L140.857 105.221L142.874 106.733L143.38 107.129L143.532 107.244Z" fill="#7C4236"/>
<path d="M188.021 119.149C187.849 118.532 187.645 117.926 187.409 117.332C186.806 115.914 185.85 114.681 184.635 113.753C183.42 112.825 181.989 112.234 180.481 112.04C179.855 111.972 179.226 111.94 178.596 111.945C178.762 111.899 178.932 111.874 179.103 111.869C179.569 111.835 180.036 111.843 180.501 111.893C182.045 112.054 183.518 112.64 184.759 113.589C185.999 114.537 186.962 115.812 187.542 117.276C187.717 117.714 187.854 118.167 187.951 118.63C187.995 118.799 188.019 118.973 188.021 119.149Z" fill="#7C4236"/>
<path d="M142.866 74.1768C142.251 74.5924 130.747 79.4768 129.626 80.0626C129.626 80.0626 117.335 84.8124 118.792 98.112C119.602 105.494 120.934 111.522 120.934 111.522C120.934 111.522 126.183 108.3 129.891 106.753C134.665 104.774 140.468 103.887 140.468 103.887L137.196 92.0797L142.866 74.1768Z" fill="#E0E0E0"/>
<path d="M136.951 92.4951C137.006 92.4951 137.855 95.1471 138.851 98.4522C139.848 101.757 140.612 104.457 140.557 104.473C140.503 104.488 139.654 101.825 138.657 98.5155C137.66 95.2065 136.912 92.5109 136.951 92.4951Z" fill="#263238"/>
<path d="M135.28 88.7236C134.938 88.2823 134.571 87.8607 134.182 87.4609L133.886 87.1838L133.544 86.9107C133.294 86.7092 133.034 86.5216 132.765 86.3487C132.146 85.9505 131.494 85.6075 130.818 85.3235C129.583 84.7864 128.264 84.4768 126.923 84.4092C126.37 84.4063 125.817 84.4527 125.272 84.5477C125.409 84.4815 125.552 84.4324 125.7 84.4012C126.102 84.3095 126.512 84.263 126.923 84.2627C128.284 84.2902 129.626 84.586 130.876 85.1335C131.566 85.4224 132.228 85.7749 132.854 86.1864C133.131 86.3922 133.407 86.5822 133.633 86.7762L133.976 87.0651L134.268 87.358C134.437 87.5223 134.593 87.6996 134.735 87.8884C134.852 88.0236 134.956 88.1693 135.047 88.3238C135.139 88.4482 135.217 88.5822 135.28 88.7236Z" fill="#263238"/>
<path d="M123.594 110.121C123.562 110.053 123.539 109.981 123.527 109.907C123.488 109.741 123.438 109.535 123.375 109.282C123.247 108.736 123.076 107.948 122.873 106.966C122.484 105.011 121.97 102.292 121.533 99.2715C121.097 96.2514 120.813 93.5004 120.669 91.5055C120.595 90.508 120.548 89.7005 120.529 89.1306C120.529 88.8693 120.529 88.6556 120.509 88.4854C120.501 88.4104 120.501 88.3347 120.509 88.2598C120.53 88.3331 120.542 88.409 120.544 88.4854C120.544 88.6516 120.575 88.8812 120.599 89.1266C120.649 89.7085 120.72 90.508 120.801 91.4817C120.984 93.4608 121.288 96.2316 121.724 99.2319C122.16 102.232 122.639 104.963 123.009 106.927C123.189 107.888 123.336 108.676 123.446 109.25C123.492 109.507 123.531 109.717 123.558 109.883C123.58 109.961 123.592 110.041 123.594 110.121Z" fill="#263238"/>
<path d="M124.844 109.254C124.815 109.18 124.796 109.103 124.785 109.025C124.75 108.855 124.711 108.629 124.661 108.368C124.555 107.77 124.411 106.947 124.24 105.945C123.897 103.895 123.461 101.061 122.986 97.926C122.511 94.7911 122.141 91.9412 121.903 89.879C121.787 88.8459 121.693 88.0067 121.646 87.4288L121.592 86.7599C121.583 86.6823 121.583 86.604 121.592 86.5264C121.617 86.6006 121.632 86.6777 121.639 86.7559C121.662 86.9301 121.693 87.1518 121.728 87.4209C121.806 88.0226 121.915 88.8498 122.048 89.8592C122.324 91.9174 122.729 94.7594 123.189 97.8943C123.648 101.029 124.076 103.832 124.384 105.922C124.532 106.931 124.653 107.754 124.742 108.356C124.777 108.625 124.805 108.847 124.828 109.021C124.84 109.098 124.846 109.176 124.844 109.254Z" fill="#263238"/>
<g opacity="0.3">
<path d="M140.386 104.912C142.538 109.106 143.623 113.78 143.544 118.509C147.258 118.87 150.782 120.346 153.669 122.748C151.952 121.56 147.707 120.092 142.722 120.167C142.972 112.298 142.014 110.173 140.386 104.912Z" fill="black"/>
</g>
<path d="M163.518 111.926C163.463 111.926 163.475 111.629 163.545 111.288C163.615 110.948 163.713 110.683 163.767 110.695C163.822 110.707 163.81 110.992 163.744 111.332C163.678 111.672 163.572 111.938 163.518 111.926Z" fill="#263238"/>
<path d="M159.682 110.236C159.682 110.204 159.854 110.196 160.107 110.133C160.432 110.047 160.721 109.855 160.928 109.587C161.032 109.449 161.114 109.295 161.17 109.131L161.232 108.945L161.337 109.096C161.545 109.344 161.712 109.625 161.832 109.927C161.797 109.955 161.532 109.658 161.185 109.211L161.353 109.179C161.3 109.373 161.21 109.554 161.088 109.713C160.855 110.021 160.512 110.223 160.134 110.275C159.85 110.307 159.682 110.259 159.682 110.236Z" fill="#263238"/>
<path d="M160.78 107.897C160.752 107.805 160.733 107.711 160.722 107.616C160.673 107.366 160.554 107.137 160.379 106.955C160.257 106.824 160.099 106.734 159.926 106.697C159.753 106.661 159.572 106.679 159.409 106.749C159.213 106.848 159.048 107.001 158.933 107.19C158.818 107.38 158.758 107.599 158.759 107.821C158.744 108.044 158.79 108.265 158.891 108.463C158.992 108.661 159.144 108.826 159.331 108.942C159.489 109.023 159.668 109.054 159.843 109.03C160.018 109.006 160.182 108.928 160.313 108.807C160.498 108.639 160.633 108.42 160.702 108.178C160.72 108.082 160.746 107.988 160.78 107.897C160.805 107.994 160.805 108.096 160.78 108.194C160.728 108.47 160.592 108.723 160.391 108.918C160.25 109.056 160.075 109.152 159.884 109.195C159.662 109.242 159.43 109.212 159.226 109.108C159.008 108.974 158.83 108.784 158.709 108.556C158.588 108.328 158.529 108.072 158.538 107.813C158.548 107.555 158.626 107.303 158.763 107.086C158.9 106.868 159.093 106.691 159.32 106.575C159.531 106.487 159.766 106.474 159.986 106.539C160.171 106.599 160.337 106.706 160.469 106.852C160.65 107.06 160.761 107.322 160.784 107.6C160.809 107.697 160.807 107.8 160.78 107.897Z" fill="#263238"/>
<path d="M55.5604 178.55C55.5604 178.55 53.5315 174.892 56.421 159.756C58.08 151.072 65.4246 139.874 65.4246 139.874C65.4246 139.874 100.586 140.761 100.617 141.331C100.649 141.901 111.377 152.98 112.935 164.502C114.493 176.024 114.189 178.55 114.189 178.55H55.5604Z" fill="#263238"/>
<path d="M83.319 165.139C83.2645 165.139 82.9997 160.579 82.7271 154.954C82.4545 149.33 82.2832 144.762 82.3377 144.758C82.3922 144.754 82.6609 149.314 82.9296 154.942C83.1983 160.571 83.3774 165.135 83.319 165.139Z" fill="#455A64"/>
<path d="M86.4811 146.19C85.8424 146.158 85.2155 146.819 85.0363 147.377C84.9003 147.791 84.9095 148.239 85.0624 148.647C85.2152 149.054 85.5023 149.395 85.8747 149.611C86.247 149.827 86.6816 149.905 87.1044 149.832C87.5273 149.76 87.9121 149.54 88.1934 149.211C88.4747 148.882 88.6351 148.464 88.6472 148.028C88.6594 147.592 88.5225 147.166 88.2599 146.821C87.9973 146.477 87.6253 146.235 87.2072 146.138C86.7891 146.041 86.3508 146.094 85.967 146.289" fill="#455A64"/>
<path d="M74.4868 77.5046L76.7962 71.5673L90.5742 70.8271L96.2014 71.5673L96.8206 73.21L100.641 141.901C100.641 141.901 87.2952 144.636 80.6204 143.686C73.9455 142.736 66.1063 139.64 66.1063 139.64V100.577L74.4868 77.5046Z" fill="#E0E0E0"/>
<path d="M95.2238 80.2936C95.1993 80.3393 95.1677 80.3807 95.1303 80.4163L94.8304 80.7567C94.5656 81.0536 94.1684 81.4771 93.6621 81.9996C92.2416 83.4307 90.7342 84.7699 89.1487 86.0092L89.0864 86.0646L89.0279 86.0013C87.5388 84.3407 86.1573 82.5835 84.8922 80.7409L84.4833 80.1353H84.6508L81.3367 84.6674C81.208 84.8484 81.0531 85.0085 80.8772 85.1424C80.6949 85.2832 80.466 85.3471 80.2385 85.3205C80.0257 85.2753 79.8322 85.1631 79.6855 84.9999C79.5479 84.8566 79.4179 84.706 79.2961 84.5486L77.9915 82.8822L76.1145 80.4757L75.6121 79.8146C75.5507 79.7406 75.4959 79.6611 75.4485 79.5771C75.5217 79.6402 75.5871 79.7119 75.6433 79.7909C75.7757 79.9492 75.9548 80.159 76.1729 80.4242L78.1006 82.7991L79.4246 84.4457C79.6622 84.7347 79.8997 85.087 80.258 85.1463C80.6163 85.2057 80.9395 84.8891 81.1848 84.5566L84.4794 80.0165L84.5612 79.9017L84.643 80.0205L85.0519 80.6221C86.3124 82.4571 87.6832 84.2113 89.1564 85.8746H89.0318C90.6173 84.6413 92.1345 83.3199 93.5765 81.9164C94.1061 81.4058 94.5111 80.9942 94.7876 80.729C94.92 80.5984 95.0251 80.4955 95.1069 80.4084C95.1406 80.365 95.1799 80.3264 95.2238 80.2936Z" fill="#263238"/>
<g opacity="0.3">
<path d="M79.4832 84.6542C79.4832 84.6542 81.2279 86.8391 81.7185 86.2929C82.2092 85.7467 84.7989 81.6697 85.1105 81.4995C85.422 81.3293 88.5452 87.041 89.7836 86.6452C91.022 86.2494 95.3875 81.8004 95.3875 81.8004L95.4732 80.0469L89.0982 85.9446L84.5731 80.0865L80.7644 85.1213C80.7644 85.1213 79.9466 85.7586 79.4832 84.6542Z" fill="black"/>
</g>
<path d="M68.5285 38.0176C68.5285 38.0176 64.9263 51.7129 64.6147 61.4066L64.5096 64.6325C64.5096 64.6325 72.4656 71.3614 79.1326 71.7573L84.7249 57.7848L68.5285 38.0176Z" fill="#263238"/>
<path d="M103.85 46.4159C102.331 39.7344 101.747 31.9605 96.2791 27.6065C92.2252 24.3727 87.6026 23.4702 82.4544 23.6919C79.9192 23.7987 77.0569 24.9862 74.8449 26.2568C71.8191 27.9984 70.5379 31.5331 69.0736 34.7432C66.149 41.1752 66.5189 49.8833 68.5011 52.3017L94.9395 66.4919C100.22 63.7013 103.526 62.5891 104.371 55.4366C104.713 52.4217 104.536 49.3694 103.85 46.4159Z" fill="#263238"/>
<path d="M96.0026 32.9157L79.3662 27.9244C74.0038 27.1328 70.164 33.7232 69.611 39.2013C68.9996 45.2851 68.4856 52.7384 69.0191 57.318C70.0939 66.5248 76.9518 67.9655 76.9518 67.9655L76.9011 71.6625L84.4794 79.8481L96.0611 71.9792L98.7092 36.2921C98.7564 35.4869 98.5045 34.6931 98.0032 34.0678C97.502 33.4425 96.788 33.0313 96.0026 32.9157Z" fill="#FFBF9D"/>
<path d="M72.6643 47.5332C72.6531 47.8378 72.7577 48.1351 72.9564 48.3636C73.155 48.592 73.4325 48.734 73.7313 48.7602C73.8777 48.7783 74.0261 48.7664 74.1679 48.7251C74.3096 48.6839 74.4418 48.6141 74.5565 48.52C74.6713 48.4259 74.7663 48.3093 74.8359 48.1772C74.9055 48.0451 74.9484 47.9001 74.9619 47.7509C74.973 47.4462 74.8684 47.1489 74.6698 46.9205C74.4711 46.6921 74.1937 46.55 73.8948 46.5238C73.7485 46.5057 73.6 46.5177 73.4583 46.5589C73.3165 46.6002 73.1843 46.6699 73.0696 46.7641C72.9548 46.8582 72.8598 46.9747 72.7902 47.1069C72.7206 47.239 72.6778 47.3839 72.6643 47.5332Z" fill="#263238"/>
<path d="M70.713 44.7179C70.8493 44.8763 71.7489 44.2548 72.9951 44.3221C74.2412 44.3894 75.1213 45.0425 75.2615 44.8921C75.3316 44.8288 75.1953 44.5477 74.8098 44.235C74.2876 43.8353 73.6563 43.6099 73.0029 43.5898C72.3565 43.5613 71.7181 43.7429 71.1803 44.1084C70.787 44.3736 70.6468 44.6467 70.713 44.7179Z" fill="#263238"/>
<path d="M83.576 47.5332C83.5649 47.8378 83.6695 48.1351 83.8681 48.3636C84.0668 48.592 84.3442 48.734 84.643 48.7602C84.7895 48.7789 84.9382 48.7674 85.0801 48.7263C85.2221 48.6853 85.3545 48.6155 85.4694 48.5213C85.5842 48.4271 85.6792 48.3103 85.7487 48.1779C85.8181 48.0456 85.8606 47.9003 85.8736 47.7509C85.8847 47.4462 85.7801 47.1489 85.5815 46.9205C85.3829 46.6921 85.1054 46.55 84.8066 46.5238C84.6602 46.5057 84.5118 46.5177 84.37 46.5589C84.2283 46.6002 84.0961 46.6699 83.9813 46.7641C83.8666 46.8582 83.7716 46.9747 83.702 47.1069C83.6323 47.239 83.5895 47.3839 83.576 47.5332Z" fill="#263238"/>
<path d="M82.9374 44.8854C83.0737 45.0477 83.9733 44.4223 85.2156 44.4896C86.4579 44.5569 87.3458 45.21 87.486 45.0596C87.5561 44.9923 87.4198 44.7112 87.0342 44.4025C86.5109 44.0015 85.8784 43.7748 85.2234 43.7534C84.5774 43.7278 83.9399 43.9092 83.4008 44.2719C83.0114 44.5252 82.8673 44.7944 82.9374 44.8854Z" fill="#263238"/>
<path d="M78.0968 53.0544C78.0968 52.9832 77.3374 52.817 76.0913 52.6032C75.7758 52.5597 75.4799 52.4805 75.4331 52.2588C75.4199 51.9251 75.5068 51.5952 75.6824 51.3128L76.7144 48.8944C78.1552 45.4507 79.2106 42.6127 79.0704 42.5613C78.9302 42.5098 77.6568 45.2449 76.2198 48.6925L75.2267 51.1268C75.0104 51.5072 74.9345 51.9534 75.0126 52.3855C75.053 52.5013 75.1195 52.606 75.2067 52.6912C75.2939 52.7764 75.3994 52.8398 75.5149 52.8763C75.6892 52.9323 75.8698 52.9656 76.0523 52.9753C77.3063 53.0901 78.089 53.1257 78.0968 53.0544Z" fill="#263238"/>
<path d="M76.9128 67.9641C81.1487 68.2055 85.3672 67.2462 89.0981 65.1934C89.0981 65.1934 85.8697 71.479 76.8934 70.2599L76.9128 67.9641Z" fill="#FF9A6C"/>
<path d="M82.1275 55.8609C81.9736 55.6013 81.7591 55.3842 81.503 55.2289C81.247 55.0735 80.9572 54.9847 80.6593 54.9703C80.2427 54.9239 79.8214 54.9911 79.4388 55.1651C79.0562 55.339 78.7261 55.6133 78.4824 55.9599C78.3086 56.2868 78.2601 56.6675 78.3461 57.0286C78.4201 57.2107 78.3461 57.1196 78.4941 57.2502C78.9414 57.7544 79.5028 58.1402 80.1297 58.3744C80.469 58.4745 80.83 58.4688 81.166 58.358C81.5021 58.2472 81.7977 58.0364 82.0145 57.7529C82.2016 57.4782 82.3111 57.1565 82.331 56.823C82.3509 56.4894 82.2805 56.1567 82.1275 55.8609Z" fill="#FF9A6C"/>
<path d="M81.9405 54.1312C81.7418 54.1074 81.6756 55.4809 80.4801 56.3992C79.2845 57.3175 77.8553 57.1038 77.8359 57.2938C77.8125 57.3769 78.1435 57.5748 78.7471 57.6183C79.5364 57.6655 80.3167 57.4287 80.9513 56.9494C81.562 56.4892 81.9715 55.8045 82.0923 55.0416C82.1702 54.4716 82.0417 54.1272 81.9405 54.1312Z" fill="#263238"/>
<path d="M82.4661 40.2455C82.5557 40.5978 83.8057 40.5582 85.2427 40.8788C86.6797 41.1994 87.813 41.7179 88.0349 41.4329C88.1362 41.2944 87.9609 40.95 87.5209 40.574C86.9271 40.1061 86.2364 39.7814 85.5011 39.6243C84.7658 39.4673 84.005 39.4821 83.2761 39.6676C82.7231 39.8338 82.431 40.0753 82.4661 40.2455Z" fill="#263238"/>
<path d="M70.8184 41.3216C71.0988 41.5709 71.9867 41.1355 73.155 40.9535C74.3232 40.7714 75.2851 40.8347 75.4682 40.5062C75.5422 40.3478 75.3513 40.0866 74.8918 39.8768C74.2724 39.6321 73.5981 39.5676 72.9447 39.6908C72.2753 39.7875 71.6478 40.0789 71.1377 40.5299C70.7794 40.8822 70.6899 41.1949 70.8184 41.3216Z" fill="#263238"/>
<path d="M79.3155 26.9385C79.3155 27.0058 79.2882 27.0691 79.2726 27.1364H79.3038L79.3155 26.9385Z" fill="#263238"/>
<path d="M92.4549 71.2289C92.2523 71.2869 92.0399 71.3009 91.8315 71.2702C91.6232 71.2394 91.4235 71.1645 91.2455 71.0504C91.0674 70.9362 90.9149 70.7852 90.7979 70.6073C90.6809 70.4294 90.602 70.2285 90.5662 70.0177C90.2802 68.1751 90.2645 66.2997 90.5195 64.4524C90.8115 61.9113 92.5095 59.2514 92.7197 56.6983C93.1092 51.8337 92.7003 49.1065 92.1668 45.0256C89.912 44.7406 87.809 43.3671 86.3253 41.5859C84.5184 39.4485 83.428 36.7965 82.3648 34.192C82.4306 36.7684 83.2871 39.2595 84.8143 41.3168C84.3077 41.3962 83.7897 41.3538 83.3021 41.193C82.8145 41.0321 82.3707 40.7573 82.0065 40.3906C81.2851 39.6499 80.724 38.7641 80.3593 37.79C79.3857 35.4706 78.8443 32.9877 78.7626 30.4674C78.4239 34.0735 78.8216 37.7119 79.9309 41.1545C79.3 40.9566 78.6224 41.1347 77.9837 41.2297C77.3451 41.3247 76.5818 41.3089 76.1184 40.8339C75.8382 40.4832 75.6614 40.0592 75.6082 39.6108C74.9884 36.546 74.8883 33.3962 75.3123 30.2972C74.4585 31.9392 73.7659 33.6628 73.2444 35.4428C72.7275 37.24 72.714 39.1481 73.2054 40.9526C73.1328 41.0286 73.046 41.089 72.95 41.1303C72.854 41.1716 72.7508 41.1928 72.6466 41.1928C72.5424 41.1928 72.4392 41.1716 72.3432 41.1303C72.2472 41.089 72.1604 41.0286 72.0878 40.9526C71.8033 40.6364 71.6318 40.2321 71.601 39.8047C71.3634 38.265 71.6283 36.6976 71.897 35.1657C70.9974 36.7886 70.6975 38.6727 70.199 40.4618C69.7006 42.2509 68.9061 44.0954 67.3757 45.1166C67.117 42.7759 67.1931 40.4094 67.6016 38.0908C67.9014 36.1711 68.7971 34.2672 69.6266 32.5177C70.5054 30.5796 71.7445 28.8323 73.2755 27.372C75.9314 24.9971 77.0413 26.0263 78.7275 26.9248L78.9262 27.0118C78.9262 26.9683 78.9262 26.9248 78.9262 26.8852L79.0002 26.5171C83.4375 25.5085 88.0597 25.7286 92.3848 27.1543C95.5781 28.2112 95.8897 35.2014 96.6686 31.8804C97.1398 29.8697 99.7022 31.7063 99.7334 31.7617C103.499 38.6687 107.495 49.625 107.678 66.9382L92.4549 71.2289Z" fill="#263238"/>
<g opacity="0.3">
<path d="M70.2731 116.373C67.8587 132.47 65.4455 148.566 63.0336 164.663L63.5944 169.896C64.2292 170.632 65.4948 170.387 66.1413 169.658C66.7877 168.93 66.9786 167.913 67.1382 166.947C69.8954 150.247 71.383 133.263 70.2731 116.373Z" fill="black"/>
</g>
<path d="M70.0472 75.702L61.8692 77.3249C60.1257 77.6932 58.5116 78.5313 57.1961 79.7513C55.8807 80.9714 54.9122 82.5285 54.3922 84.2597C54.1343 85.1156 53.948 85.9922 53.8353 86.88C53.1226 92.4927 49.7463 107.668 49.7463 107.668C49.7463 107.668 42.2186 111.306 41.8915 114.425C41.5644 117.544 44.4968 123.204 44.4968 123.204C44.4968 123.204 47.7485 131.889 52.0634 133.702C56.7988 135.681 60.0934 129.7 60.0934 129.7C60.1246 130.246 60.144 130.551 60.144 130.551L47.7485 159.05C50.9029 164.769 56.8261 171.467 62.8428 172.923C62.8428 172.923 69.8253 128.635 70.2186 118.961C70.6119 109.287 76.722 71.6924 76.722 71.6924L70.0472 75.702Z" fill="#407BFF"/>
<path d="M41.3658 82.2211C41.3658 82.2211 40.0573 81.6907 39.6912 82.803C39.4537 83.5234 38.9747 85.4273 38.6631 86.6741C38.5741 87.0354 38.5627 87.412 38.6299 87.7781C38.6971 88.1443 38.8413 88.4913 39.0526 88.7957L40.0495 90.2127C39.703 91.1098 39.6484 92.0961 39.8937 93.027C39.8937 93.027 38.3555 94.6103 38.5502 96.0115C38.5502 96.0115 36.5797 97.286 37.082 99.4076C37.5844 101.529 43.4219 107.957 43.4219 107.957L47.1527 109.145L51.9543 105.444C51.9543 105.444 53.0409 99.5066 52.8461 96.9496C52.6125 93.878 51.4831 93.5732 51.4831 93.5732L46.4595 88.768L44.6681 86.1793C44.6681 86.1793 42.9819 86.4485 43.2857 88.6611L41.7825 87.5805L41.393 85.7518C41.393 85.7518 42.499 83.464 41.3658 82.2211Z" fill="#FFBF9D"/>
<path d="M37.2574 71.7052C37.5611 71.8793 43.4065 89.141 43.4065 89.141L44.824 89.8614L38.5347 71.3252L37.2574 71.7052Z" fill="#263238"/>
<path d="M42.7404 92.4579C42.8034 92.486 42.8635 92.5204 42.9196 92.5608L43.4102 92.8814L45.2055 94.0689C45.5949 94.3143 45.9844 94.5874 46.4634 94.8605C46.6892 94.9991 46.9268 95.1337 47.176 95.2564C47.4186 95.3948 47.6816 95.4924 47.9549 95.5453C48.0866 95.5635 48.2206 95.5472 48.3443 95.4978C48.4649 95.4371 48.5602 95.3347 48.613 95.2089C48.7245 94.9188 48.7813 94.6099 48.7805 94.2985C48.7985 94.142 48.7985 93.9839 48.7805 93.8275C48.7356 93.6767 48.6658 93.5348 48.5741 93.4079C48.3818 93.1304 48.1612 92.8743 47.9159 92.644C46.9653 91.7547 45.9426 90.9484 44.8589 90.2334C43.993 89.6227 43.0816 89.0814 42.1329 88.6145C41.954 88.5421 41.7583 88.5242 41.5695 88.5628C41.3808 88.6015 41.2071 88.6951 41.0698 88.8322C40.8403 89.0337 40.6398 89.2669 40.474 89.5249C40.1897 89.9484 40.0845 90.2097 40.0612 90.2017C40.0761 90.1343 40.0997 90.0691 40.1313 90.0078C40.2115 89.8261 40.3038 89.6502 40.4077 89.4814C40.5665 89.2075 40.7647 88.9593 40.9958 88.7451C41.1425 88.6056 41.3182 88.5015 41.5098 88.4403C41.7317 88.3704 41.971 88.3845 42.1835 88.4799C43.153 88.9263 44.0833 89.456 44.9641 90.0632C46.0704 90.7748 47.1129 91.5841 48.0795 92.4817C48.3319 92.722 48.5602 92.9872 48.761 93.2733C48.8665 93.4204 48.9455 93.5852 48.9947 93.7602C49.022 93.9342 49.0285 94.111 49.0141 94.2866C49.0129 94.6258 48.9481 94.9616 48.8233 95.2762C48.752 95.4472 48.6238 95.5873 48.4611 95.672C48.3027 95.7349 48.1307 95.754 47.9627 95.7274C47.6656 95.6726 47.3798 95.5669 47.1176 95.4147C46.8645 95.2762 46.6269 95.1337 46.3972 94.9912C45.9415 94.7101 45.5287 94.4291 45.151 94.1758C44.3994 93.6652 43.7997 93.2337 43.3869 92.9329L42.9196 92.5806C42.7911 92.5133 42.7365 92.4658 42.7404 92.4579Z" fill="#FF9A6C"/>
<path d="M40.0963 95.636C40.2079 95.5998 40.3227 95.5746 40.439 95.5608L41.4165 95.3946L42.9742 96.5424C43.6129 97.2233 44.3761 98.0268 45.2563 98.8659C45.4782 99.0757 45.708 99.2894 45.9494 99.4913C46.1723 99.7068 46.4378 99.8714 46.7283 99.9742C46.8744 100.008 47.0273 99.9963 47.1665 99.9397C47.3056 99.8831 47.4245 99.7847 47.5072 99.6575C47.6995 99.387 47.8251 99.0734 47.8732 98.7432C47.8846 98.5825 47.8435 98.4226 47.7564 98.288C47.6771 98.1323 47.5887 97.9817 47.4916 97.8368C47.3008 97.5439 47.1021 97.2628 46.8841 96.9937C46.4635 96.4554 46.0312 95.9566 45.6145 95.4856C44.8803 94.6506 44.0919 93.8664 43.2546 93.1384C42.9412 92.8575 42.5679 92.6542 42.1642 92.5447C41.8597 92.4688 41.5418 92.4688 41.2373 92.5447C40.9757 92.6171 40.7262 92.7292 40.4974 92.8771C40.5432 92.8201 40.5986 92.7719 40.661 92.7347C40.8313 92.6178 41.0176 92.5271 41.214 92.4655C41.5296 92.3673 41.8646 92.3524 42.1876 92.422C42.6185 92.5186 43.0196 92.7211 43.3558 93.0117C44.213 93.7296 45.0173 94.5101 45.7625 95.3471C46.187 95.8141 46.6231 96.3129 47.0515 96.8591C47.2618 97.1283 47.4721 97.4093 47.6707 97.7101C47.7681 97.8645 47.8654 98.0149 47.9511 98.1851C48.0586 98.3584 48.1065 98.563 48.0874 98.767C48.037 99.1285 47.9036 99.4729 47.698 99.7723C47.5853 99.9238 47.4365 100.044 47.2657 100.121C47.0919 100.195 46.899 100.208 46.7166 100.16C46.3952 100.049 46.1015 99.8681 45.856 99.6298C45.6106 99.424 45.3809 99.2063 45.1589 98.9965C44.2788 98.1415 43.5233 97.3301 42.8963 96.6216L41.3659 95.4341H41.4009L40.4195 95.5529C40.3143 95.5898 40.2062 95.6176 40.0963 95.636Z" fill="#FF9A6C"/>
<path d="M46.2142 99.6898C46.1996 99.8073 46.1681 99.922 46.1207 100.03C46.0807 100.166 46.0313 100.298 45.9727 100.426C45.9222 100.512 45.8545 100.586 45.774 100.644C45.6935 100.702 45.6021 100.743 45.5054 100.763C45.028 100.835 44.5412 100.812 44.0723 100.695C43.5181 100.514 42.9852 100.271 42.4835 99.9709C41.8448 99.6107 41.2607 99.2465 40.7622 98.914H40.8751L40.7622 99.0249C40.6439 99.1666 40.4844 99.2665 40.3065 99.3098C40.1632 99.3566 40.0159 99.3897 39.8665 99.4088C39.6275 99.4389 39.3869 99.4535 39.1461 99.4523C38.9373 99.4737 38.7264 99.4508 38.5269 99.3851C38.5798 99.3777 38.6335 99.3777 38.6865 99.3851L39.1461 99.3613C39.3408 99.3613 39.5783 99.3217 39.8431 99.2742C39.9831 99.2489 40.1211 99.2131 40.2559 99.1674C40.3955 99.1295 40.5204 99.0494 40.6142 98.9378L40.7271 98.819L40.7739 98.7676L40.8401 98.8072C41.3424 99.1238 41.9305 99.48 42.5613 99.8363C43.0477 100.128 43.5618 100.369 44.0957 100.557C44.5372 100.676 44.996 100.715 45.4509 100.671C45.5293 100.657 45.6041 100.627 45.6709 100.582C45.7378 100.538 45.7954 100.481 45.8403 100.414C45.9143 100.288 45.9611 100.149 46.0117 100.05C46.0588 99.9192 46.1273 99.7975 46.2142 99.6898Z" fill="#FF9A6C"/>
<path d="M52.1217 103.861L43.7646 108.041L44.154 115.997C44.154 115.997 50.1356 116.789 55.4475 109.929L52.1217 103.861Z" fill="#FFBF9D"/>
<path d="M47.7292 159.047C47.7445 158.998 47.7627 158.949 47.7837 158.901L47.9589 158.477L48.6443 156.859L51.2224 150.854C53.4343 145.744 56.5225 138.619 60.0351 130.513V130.556C59.9728 128.375 59.8911 126.099 59.7859 123.78C59.5445 118.547 59.2641 113.564 59.0771 109.032C58.8902 104.5 58.7734 100.407 58.7383 96.975C58.7033 93.5432 58.7383 90.7606 58.7383 88.8409L58.789 86.6322C58.789 86.3868 58.789 86.1968 58.789 86.0583C58.789 85.9197 58.789 85.8604 58.789 85.8604C58.7924 85.9263 58.7924 85.9923 58.789 86.0583C58.789 86.1968 58.789 86.3868 58.789 86.6322C58.789 87.1468 58.789 87.8909 58.789 88.8448C58.789 90.7646 58.789 93.5393 58.8357 96.971C58.8824 100.403 59.0148 104.492 59.2251 109.02C59.4354 113.548 59.6924 118.539 59.9495 123.772C60.0546 126.091 60.1325 128.367 60.1987 130.552V130.572V130.596L51.3275 150.905C50.2254 153.443 49.3297 155.477 48.7066 156.902L47.9901 158.485C47.9122 158.663 47.846 158.798 47.8032 158.901C47.7817 158.951 47.757 159 47.7292 159.047Z" fill="#263238"/>
<path d="M69.7552 114.152C69.7384 114.12 69.7266 114.085 69.7201 114.049L69.6461 113.74C69.5799 113.455 69.4904 113.056 69.3735 112.553C69.1632 111.516 68.8595 110.008 68.5947 108.132C68.3299 106.255 68.0417 104.011 67.8158 101.514C67.5899 99.0159 67.4264 96.261 67.294 93.3675C67.2472 92.2909 67.2005 91.2301 67.1538 90.201C67.1304 89.6825 67.1109 89.1718 67.0876 88.6692L67.0525 87.9171V87.545V87.355C67.0525 87.3234 67.0525 87.2877 67.0525 87.2521V87.1848C67.0593 87.1702 67.0685 87.1568 67.0798 87.1453C67.094 87.1313 67.1114 87.1211 67.1304 87.1156C67.1494 87.1101 67.1695 87.1094 67.1888 87.1136C67.2589 87.1532 67.2395 87.1571 67.2589 87.1769L67.1187 87.1453L69.3073 85.5936V85.7559L66.9318 84.6239L66.8656 84.5922L66.8851 84.5249C67.2433 83.1514 67.6639 81.9323 68.0534 80.8517C68.4428 79.7711 68.7816 78.8409 69.0737 78.081C69.3657 77.321 69.6033 76.7233 69.7669 76.3196C69.8486 76.1296 69.9109 75.9752 69.9577 75.8604C69.9789 75.8073 70.0036 75.7558 70.0317 75.7061C70.0242 75.7622 70.0084 75.8169 69.9849 75.8683L69.8136 76.3394L69.1905 78.1324C68.914 78.9003 68.5791 79.8384 68.2091 80.9032C67.8392 81.9679 67.4303 83.2068 67.0837 84.5685L67.037 84.4695L69.4203 85.5897L69.5643 85.657L69.4358 85.752L67.255 87.3115L67.1148 87.2798C67.1148 87.2798 67.1849 87.2284 67.1771 87.2284C67.1891 87.24 67.2039 87.2482 67.22 87.2521H67.2511V87.3352V87.5134V87.8815C67.2511 88.1308 67.2745 88.3802 67.2901 88.6296C67.3134 89.1362 67.3329 89.6468 67.3563 90.1654C67.403 91.1984 67.4536 92.2592 67.5004 93.3319C67.6328 96.2214 67.8002 98.9723 68.0066 101.47C68.213 103.968 68.4701 106.22 68.731 108.084C68.9919 109.948 69.2684 111.468 69.4553 112.509C69.5566 113.021 69.6344 113.417 69.689 113.697L69.7435 114.01C69.7513 114.128 69.7552 114.152 69.7552 114.152Z" fill="#263238"/>
<path d="M59.1276 110.591C59.0926 110.591 59.077 110.234 58.8862 109.7C58.6443 109.005 58.1959 108.403 57.603 107.977C57.01 107.552 56.3018 107.324 55.576 107.325C55.0191 107.325 54.6803 107.432 54.6725 107.396C54.9512 107.253 55.2597 107.18 55.5721 107.183C56.3357 107.137 57.092 107.355 57.7183 107.801C58.3447 108.247 58.8043 108.896 59.0225 109.641C59.1345 109.944 59.1706 110.27 59.1276 110.591Z" fill="#263238"/>
<path d="M56.2108 108.635C56.1284 108.838 56.0308 109.034 55.9187 109.221C55.8041 109.45 55.674 109.671 55.5293 109.882C55.3579 110.127 55.1827 110.424 54.9412 110.713C54.8244 110.86 54.6998 111.014 54.5752 111.176C54.4506 111.339 54.2909 111.485 54.1429 111.651C53.8224 111.997 53.4844 112.326 53.1304 112.637C51.4967 114.062 49.5617 115.085 47.4759 115.625C47.0218 115.744 46.5616 115.837 46.0973 115.903C45.8831 115.934 45.6728 115.974 45.4703 115.99L44.8862 116.029C44.5502 116.049 44.2135 116.049 43.8775 116.029C43.6249 116.032 43.3724 116.016 43.1221 115.982C42.907 115.967 42.6934 115.936 42.4834 115.887C42.4834 115.835 43.4024 115.982 44.8745 115.887L45.4508 115.835C45.6534 115.815 45.8598 115.772 46.0739 115.74C46.5023 115.681 46.954 115.558 47.4252 115.447C49.4774 114.892 51.3841 113.884 53.0097 112.494C53.3632 112.193 53.7011 111.873 54.0222 111.537C54.1702 111.374 54.3259 111.232 54.4544 111.074C54.583 110.915 54.7115 110.769 54.8439 110.626C55.759 109.455 56.1679 108.612 56.2108 108.635Z" fill="#263238"/>
<path d="M47.1097 100.034C47.1721 100.034 47.1448 100.846 47.4135 101.792C47.6822 102.738 48.1184 103.418 48.0639 103.454C47.6716 102.988 47.3833 102.441 47.2186 101.85C47.0539 101.26 47.0168 100.64 47.1097 100.034Z" fill="#FF9A6C"/>
<path d="M47.3826 95.5488C47.4371 95.5686 47.3592 95.9051 47.3047 96.3405C47.2501 96.7759 47.2385 97.1004 47.1801 97.1044C47.1216 97.1084 47.0438 96.7561 47.1022 96.3128C47.1606 95.8694 47.3203 95.5488 47.3826 95.5488Z" fill="#FF9A6C"/>
<path d="M108.133 135.396L116.066 81.1335L101.424 75.6791C101.424 75.6791 97.9927 72.473 96.1663 70.8105L95.5237 79.2019C95.5237 79.2019 93.5259 113.508 96.6453 130.777C99.7646 148.047 99.3207 147.469 101.603 158.71C103.262 166.888 103.55 174.032 106.034 174.753C108.519 175.473 117.184 162.597 117.184 162.597L108.133 135.396Z" fill="#407BFF"/>
<path d="M116.05 81.1328C116.05 81.1328 120.49 83.3454 121.152 89.6469C121.74 95.1884 122.71 129.229 122.581 131.964C122.453 134.699 120.132 142.465 115.961 142.734C109.36 143.162 107.545 137.984 107.545 137.984L109.302 120.604L116.05 81.1328Z" fill="#407BFF"/>
<path d="M99.2583 112.327V112.224C99.2583 112.145 99.2894 112.05 99.3128 111.927C99.3673 111.654 99.4413 111.274 99.5348 110.795C99.71 109.806 99.9787 108.377 100.228 106.599C100.75 103.037 101.194 98.1012 101.451 92.627C101.513 91.3366 101.572 90.074 101.626 88.8548C101.653 88.2453 101.681 87.6436 101.708 87.0578C101.708 86.7649 101.739 86.472 101.751 86.187C101.751 86.0445 101.751 85.902 101.77 85.7595V85.5497C101.772 85.5181 101.772 85.4864 101.77 85.4547C101.771 85.4442 101.771 85.4336 101.77 85.4231C101.778 85.4307 101.787 85.4364 101.797 85.4398C101.807 85.4433 101.818 85.4443 101.829 85.4429C101.852 85.4429 101.891 85.4152 101.883 85.4191L101.747 85.4468L99.5659 83.8873L99.4413 83.7963L99.5776 83.7329L101.965 82.6167L101.922 82.7078C101.708 81.7343 101.546 80.7499 101.435 79.7589C101.326 78.8841 101.217 78.1321 101.1 77.5265C100.983 76.9209 100.855 76.4498 100.761 76.1371C100.715 75.9907 100.676 75.8759 100.649 75.7809C100.632 75.7417 100.62 75.7005 100.614 75.6582C100.637 75.6936 100.655 75.7322 100.668 75.773C100.699 75.8522 100.75 75.9669 100.804 76.1213C100.962 76.5746 101.092 77.0373 101.194 77.5067C101.322 78.1162 101.443 78.8683 101.583 79.7391C101.723 80.6099 101.836 81.6034 102.093 82.6682V82.7315L102.035 82.7592L99.6594 83.8952V83.7408L101.848 85.2925L101.712 85.3202V85.2925C101.731 85.2719 101.758 85.2592 101.786 85.2568C101.812 85.2549 101.839 85.2634 101.86 85.2806L101.879 85.3043C101.881 85.3161 101.881 85.3282 101.879 85.34C101.881 85.3637 101.881 85.3875 101.879 85.4112C101.879 85.4547 101.879 85.4904 101.879 85.526V85.7437V86.1751C101.879 86.4641 101.848 86.753 101.836 87.0459C101.809 87.6357 101.786 88.2334 101.758 88.843C101.704 90.0647 101.647 91.3221 101.587 92.6151C101.4 97.2975 100.971 101.967 100.302 106.603C100.037 108.381 99.7451 109.806 99.5465 110.791C99.4335 111.266 99.3479 111.646 99.2855 111.919L99.2155 112.208C99.2366 112.245 99.2511 112.285 99.2583 112.327Z" fill="#263238"/>
<g opacity="0.3">
<path d="M77.7266 140.297C77.7266 140.297 76.7257 141.62 78.926 142.023C81.1263 142.427 106.034 140.559 106.034 140.559L110.77 143.353L110.15 141.335L106.186 137.052L77.7266 140.297Z" fill="black"/>
</g>
<path d="M107.662 98.1863L76.2977 99.8131C75.9416 99.8313 75.6047 99.9829 75.3523 100.239C75.0998 100.495 74.9496 100.837 74.9308 101.199L72.8474 139.011C72.8361 139.217 72.8677 139.423 72.94 139.616C73.0123 139.808 73.1237 139.983 73.267 140.129C73.4103 140.275 73.5822 140.389 73.7716 140.463C73.961 140.537 74.1635 140.57 74.3661 140.559L104.796 138.94C105.145 138.922 105.476 138.775 105.727 138.528C105.978 138.28 106.131 137.948 106.159 137.594L109.173 99.7696C109.19 99.5615 109.162 99.3523 109.093 99.1559C109.023 98.9595 108.913 98.7804 108.77 98.6306C108.627 98.4808 108.454 98.3637 108.263 98.2871C108.072 98.2104 107.867 98.1761 107.662 98.1863Z" fill="#263238"/>
<path d="M114.244 89.8975C114.233 90.0119 114.216 90.1255 114.193 90.2379C114.146 90.4793 114.084 90.7999 114.01 91.2037L113.321 94.766C112.748 97.7624 112 101.891 111.284 106.51C110.567 111.129 110.022 115.289 109.66 118.317C109.481 119.821 109.337 121.041 109.235 121.907C109.185 122.303 109.146 122.644 109.119 122.885C109.109 122.998 109.09 123.111 109.064 123.222C109.054 123.108 109.054 122.994 109.064 122.881C109.088 122.636 109.111 122.311 109.146 121.9C109.22 121.048 109.341 119.821 109.504 118.302C109.831 115.266 110.357 111.082 111.062 106.474C111.767 101.867 112.553 97.7268 113.161 94.7383C113.465 93.2421 113.722 92.0349 113.913 91.2037C114.006 90.8078 114.076 90.4833 114.131 90.2458C114.159 90.1266 114.196 90.0101 114.244 89.8975Z" fill="#263238"/>
<path d="M108.301 122.949C108.301 122.949 110.108 123.056 111.705 125.772L114.762 127.751C114.762 127.751 117.437 132.022 114.762 136.012C112.086 140.001 108.858 136.609 108.858 136.609C108.858 136.609 105.626 138.236 104.726 137.955C103.826 137.674 97.7163 134.325 96.805 133.557C96.5402 133.328 94.5697 131.028 94.5697 131.028C94.5697 131.028 91.8437 130.434 91.5243 129.797C91.205 129.16 91.1894 127.703 93.0314 127.846C93.0314 127.846 91.2401 127.296 91.0337 126.377C90.8273 125.459 91.0337 124.264 94.2075 124.723C97.3814 125.182 103.464 126.9 104.169 126.726C104.243 126.683 104.303 126.62 104.342 126.544C104.382 126.468 104.399 126.383 104.391 126.297C104.384 126.211 104.352 126.13 104.301 126.062C104.249 125.994 104.179 125.943 104.099 125.914C103.873 125.807 96.6999 122.973 95.551 122.653C94.3088 122.308 94.1296 119.486 96.6999 120.159C99.2701 120.832 107.643 122.878 107.643 122.878L108.301 122.949Z" fill="#FFBF9D"/>
<path d="M103.577 133.758C103.126 133.656 102.683 133.523 102.249 133.362C101.435 133.089 100.302 132.725 99.0558 132.353C97.8096 131.981 96.6608 131.676 95.8313 131.458C95.3772 131.36 94.9307 131.227 94.4956 131.063C94.6202 131.062 94.7445 131.076 94.8656 131.106C95.1031 131.146 95.4458 131.213 95.8664 131.3C96.7037 131.482 97.8564 131.767 99.1142 132.139C100.372 132.511 101.494 132.903 102.296 133.208C102.685 133.362 103.02 133.489 103.242 133.604C103.36 133.64 103.473 133.692 103.577 133.758Z" fill="#FF9A6C"/>
<path d="M104.605 130.38C104.449 130.385 104.292 130.374 104.138 130.349C103.838 130.313 103.402 130.258 102.868 130.174C101.801 130.012 100.329 129.755 98.717 129.383C97.1047 129.011 95.6599 128.658 94.6202 128.358C94.0983 128.211 93.6816 128.084 93.3935 127.989C93.2407 127.948 93.0921 127.893 92.9495 127.823C93.1068 127.834 93.2623 127.863 93.4129 127.91L94.6552 128.219C95.7028 128.48 97.1515 128.833 98.7598 129.181C100.368 129.529 101.832 129.814 102.892 130.012L104.149 130.25C104.306 130.272 104.46 130.316 104.605 130.38Z" fill="#FF9A6C"/>
<path d="M113.301 129.653C113.318 129.765 113.318 129.878 113.301 129.99C113.287 130.292 113.248 130.593 113.184 130.888C112.772 132.881 111.63 134.641 109.991 135.812C109.745 135.989 109.484 136.144 109.212 136.275C109.021 136.37 108.912 136.418 108.908 136.402C108.904 136.386 109.298 136.153 109.898 135.694C110.666 135.093 111.33 134.366 111.864 133.544C112.396 132.719 112.79 131.811 113.032 130.857C113.231 130.124 113.262 129.649 113.301 129.653Z" fill="#FF9A6C"/>
<path d="M114.314 137.052C114.282 137.025 114.703 136.613 115.178 135.802C115.802 134.749 116.149 133.551 116.187 132.323C116.224 131.095 115.951 129.877 115.392 128.788C114.972 127.948 114.575 127.509 114.613 127.485C114.721 127.57 114.817 127.67 114.898 127.782C115.137 128.074 115.35 128.388 115.532 128.72C116.14 129.821 116.44 131.07 116.401 132.332C116.362 133.594 115.985 134.821 115.311 135.881C115.11 136.199 114.882 136.498 114.629 136.775C114.537 136.882 114.43 136.975 114.314 137.052Z" fill="#263238"/>
<path d="M121.374 123.478C121.351 123.513 120.86 123.129 119.976 122.686C119.458 122.433 118.92 122.224 118.368 122.061C117.695 121.868 117.007 121.738 116.311 121.673C115.609 121.626 114.904 121.646 114.205 121.732C113.636 121.808 113.074 121.934 112.526 122.108C111.588 122.409 111.046 122.714 111.031 122.674C111.144 122.584 111.267 122.509 111.397 122.448C111.543 122.362 111.696 122.287 111.853 122.223C112.057 122.127 112.266 122.043 112.479 121.97C113.032 121.773 113.602 121.631 114.181 121.546C114.892 121.446 115.611 121.42 116.327 121.467C117.042 121.528 117.749 121.66 118.438 121.863C118.997 122.036 119.54 122.263 120.058 122.54C120.257 122.644 120.45 122.759 120.638 122.884C120.784 122.972 120.925 123.07 121.059 123.177C121.176 123.263 121.282 123.364 121.374 123.478Z" fill="#263238"/>
<g opacity="0.3">
<path d="M100.878 76.3643C100.878 76.3643 103.523 82.634 103.153 83.1565C102.783 83.679 101.392 84.0511 101.392 84.0511C101.392 84.0511 103.671 85.0485 103.667 85.9391C103.667 87.7085 101.225 98.1818 101.225 98.1818L101.829 85.389L99.6439 83.8334L102.023 82.7092L100.878 76.3643Z" fill="black"/>
</g>
<path d="M107.534 99.5304C107.476 99.5404 107.417 99.547 107.358 99.5502L106.84 99.5897L104.851 99.7243L97.537 100.176L86.6836 100.817L80.2775 101.189L78.5952 101.284L77.7462 101.335C77.606 101.335 77.4503 101.335 77.3257 101.359C77.2019 101.377 77.0858 101.431 76.9907 101.513C76.8952 101.597 76.825 101.707 76.7882 101.83C76.7602 101.96 76.7445 102.093 76.7415 102.226L76.6831 103.109L76.5663 104.894C75.9159 114.469 75.3279 123.133 74.9034 129.435C74.6814 132.565 74.514 135.103 74.3777 136.864C74.3115 137.735 74.257 138.412 74.2219 138.883C74.2024 139.108 74.1869 139.279 74.1791 139.409C74.1713 139.54 74.1557 139.587 74.1557 139.587C74.1557 139.587 74.1557 139.528 74.1557 139.409C74.1557 139.29 74.1557 139.104 74.183 138.883C74.2102 138.408 74.2492 137.731 74.2959 136.86C74.4049 135.095 74.5646 132.558 74.7593 129.427C75.1721 123.141 75.7368 114.473 76.3638 104.886C76.4027 104.289 76.4417 103.696 76.4806 103.105L76.539 102.222C76.5412 102.066 76.5595 101.911 76.5935 101.759C76.6446 101.605 76.7362 101.468 76.8583 101.363C76.984 101.256 77.1362 101.186 77.2984 101.161C77.4581 101.161 77.5866 101.161 77.7346 101.133L78.5835 101.086L80.2658 100.991L86.6758 100.631L97.5292 100.033L104.847 99.6372L106.837 99.5422L107.355 99.5225L107.534 99.5304Z" fill="#455A64"/>
</svg>
