<svg width="500" height="500" viewBox="0 0 500 500" fill="none" xmlns="http://www.w3.org/2000/svg">
<path d="M93.26 230.25H61.95V263.58H93.26V230.25Z" fill="#E6E6E6"/>
<path d="M61.95 230.25H53.93V263.58H61.95V230.25Z" fill="#F0F0F0"/>
<path d="M101.47 225.11H77.95V263.58H101.47V225.11Z" fill="#E6E6E6"/>
<path d="M77.96 225.11H71.16V263.58H77.96V225.11Z" fill="#F0F0F0"/>
<path d="M104.71 230.25H84.88V263.58H104.71V230.25Z" fill="#F0F0F0"/>
<path d="M84.88 230.25H80.35V263.58H84.88V230.25Z" fill="#F5F5F5"/>
<path d="M127.12 235.89H101.11V263.58H127.12V235.89Z" fill="#E6E6E6"/>
<path d="M101.11 235.89H94.45V263.58H101.11V235.89Z" fill="#F5F5F5"/>
<path d="M133.94 231.62H114.4V263.58H133.94V231.62Z" fill="#E6E6E6"/>
<path d="M114.41 231.62H108.76V263.58H114.41V231.62Z" fill="#F0F0F0"/>
<path d="M139.14 235.89H120.16V263.58H139.14V235.89Z" fill="#F0F0F0"/>
<path d="M120.15 235.89H116.39V263.58H120.15V235.89Z" fill="#F5F5F5"/>
<path d="M212.07 230.43H180.76V263.76H212.07V230.43Z" fill="#E6E6E6"/>
<path d="M180.76 230.43H172.74V263.76H180.76V230.43Z" fill="#F0F0F0"/>
<path d="M220.28 225.29H196.76V263.76H220.28V225.29Z" fill="#E6E6E6"/>
<path d="M196.77 225.29H189.97V263.76H196.77V225.29Z" fill="#F0F0F0"/>
<path d="M223.52 230.43H203.69V263.76H223.52V230.43Z" fill="#F0F0F0"/>
<path d="M203.69 230.43H199.16V263.76H203.69V230.43Z" fill="#F5F5F5"/>
<path d="M258.01 263.74H54.01V273.39H258.01V263.74Z" fill="#E0E0E0"/>
<path d="M245.93 236.07H219.92V263.76H245.93V236.07Z" fill="#E6E6E6"/>
<path d="M219.92 236.07H213.26V263.76H219.92V236.07Z" fill="#F5F5F5"/>
<path d="M252.75 231.8H233.21V263.76H252.75V231.8Z" fill="#E6E6E6"/>
<path d="M233.22 231.8H227.57V263.76H233.22V231.8Z" fill="#F0F0F0"/>
<path d="M257.95 236.07H238.97V263.76H257.95V236.07Z" fill="#F0F0F0"/>
<path d="M238.96 236.07H235.2V263.76H238.96V236.07Z" fill="#F5F5F5"/>
<path d="M278.84 382.28C278.089 382.28 277.37 381.982 276.839 381.451C276.308 380.92 276.01 380.2 276.01 379.45V278.8H281.68V379.45C281.677 380.201 281.377 380.921 280.845 381.452C280.312 381.982 279.591 382.28 278.84 382.28Z" fill="#F0F0F0"/>
<path d="M392.27 271.78H379.27V270.62C379.269 270.079 379.379 269.544 379.591 269.047C379.803 268.549 380.114 268.1 380.504 267.726C380.895 267.352 381.358 267.062 381.864 266.871C382.37 266.681 382.91 266.596 383.45 266.62L388.55 266.9C389.569 266.961 390.526 267.41 391.225 268.153C391.924 268.897 392.312 269.88 392.31 270.9L392.27 271.78Z" fill="#F0F0F0"/>
<path d="M370 244.43C369.977 243.936 369.764 243.471 369.407 243.13C369.049 242.789 368.574 242.599 368.08 242.6H354.89C354.395 242.599 353.919 242.788 353.559 243.129C353.2 243.47 352.986 243.935 352.96 244.43L356.09 271.89H375.76L370 244.43Z" fill="#E0E0E0"/>
<path d="M405.78 202.21H400.87L395.35 254.07H400.26C400.662 254.059 401.047 253.905 401.346 253.636C401.645 253.366 401.838 252.999 401.89 252.6L407.09 203.69C407.116 203.504 407.101 203.315 407.047 203.135C406.993 202.955 406.901 202.789 406.776 202.648C406.651 202.508 406.498 202.396 406.326 202.32C406.154 202.244 405.968 202.207 405.78 202.21Z" fill="#E0E0E0"/>
<path d="M398.18 254.07H324.6C324.412 254.075 324.226 254.038 324.054 253.964C323.881 253.89 323.727 253.779 323.602 253.639C323.476 253.499 323.382 253.334 323.327 253.155C323.271 252.975 323.255 252.786 323.28 252.6L328.49 203.69C328.536 203.288 328.727 202.916 329.027 202.643C329.326 202.371 329.715 202.217 330.12 202.21H403.7C403.888 202.207 404.075 202.245 404.247 202.32C404.419 202.396 404.574 202.508 404.699 202.648C404.824 202.788 404.918 202.954 404.973 203.134C405.028 203.314 405.044 203.504 405.02 203.69L399.81 252.6C399.76 253 399.567 253.368 399.268 253.638C398.969 253.908 398.583 254.061 398.18 254.07Z" fill="#F5F5F5"/>
<path d="M396.81 249.28H327.42C327.256 249.285 327.094 249.254 326.944 249.189C326.793 249.124 326.659 249.028 326.549 248.906C326.44 248.784 326.358 248.64 326.31 248.484C326.262 248.328 326.248 248.163 326.27 248L330.81 205.32C330.853 204.972 331.021 204.651 331.281 204.416C331.542 204.181 331.879 204.047 332.23 204.04H401.62C401.784 204.036 401.946 204.067 402.096 204.132C402.247 204.197 402.381 204.293 402.491 204.415C402.6 204.537 402.682 204.681 402.73 204.837C402.778 204.993 402.792 205.158 402.77 205.32L398.23 248C398.187 248.349 398.019 248.67 397.759 248.905C397.498 249.14 397.161 249.273 396.81 249.28Z" fill="#EBEBEB"/>
<path d="M376.6 269.76H352.2C351.67 269.76 351.24 270.19 351.24 270.72V270.93C351.24 271.46 351.67 271.89 352.2 271.89H376.6C377.13 271.89 377.56 271.46 377.56 270.93V270.72C377.56 270.19 377.13 269.76 376.6 269.76Z" fill="#E0E0E0"/>
<path d="M327.16 249.28L347.78 231.36C349.78 229.66 352.25 229.66 353.38 231.36L365.33 249.28H327.16Z" fill="#E6E6E6"/>
<path d="M347.78 231.36L327.16 249.28H346.93C344.93 248.28 340.32 247.75 340.87 245.47C341.59 242.47 350.78 243.54 351.47 240.72C352.16 237.9 345.59 238.79 346.42 235.37C346.85 233.58 348.55 231.63 350.07 230.18C349.221 230.379 348.435 230.784 347.78 231.36Z" fill="#F5F5F5"/>
<path d="M357.5 249.28L366.64 240.28C367.51 239.42 368.64 239.42 369.13 240.28L374.42 249.28H357.5Z" fill="#E6E6E6"/>
<path d="M366.64 240.24L357.5 249.24H366.27C365.39 248.74 363.34 248.47 363.58 247.32C363.9 245.82 367.97 246.32 368.28 244.92C368.59 243.52 365.67 243.92 366.04 242.23C366.354 241.236 366.911 240.336 367.66 239.61C367.268 239.722 366.915 239.94 366.64 240.24Z" fill="#F5F5F5"/>
<path d="M373.15 249.28L385.95 240.28C387.17 239.42 388.72 239.42 389.43 240.28L396.85 249.28H373.15Z" fill="#F0F0F0"/>
<path d="M386 240.24L373.2 249.24H385.47C384.25 248.74 381.37 248.47 381.71 247.32C382.15 245.82 387.86 246.32 388.29 244.92C388.72 243.52 384.64 243.92 385.15 242.23C385.656 241.168 386.44 240.262 387.42 239.61C386.906 239.713 386.421 239.928 386 240.24Z" fill="#FAFAFA"/>
<path d="M389.2 222.2C388.658 224.475 387.388 226.511 385.583 227.998C383.778 229.485 381.537 230.343 379.2 230.44C374.65 230.44 371.75 226.76 372.71 222.2C373.254 219.926 374.524 217.891 376.329 216.404C378.134 214.917 380.374 214.059 382.71 213.96C387.26 214 390.16 217.65 389.2 222.2Z" fill="#F0F0F0"/>
<path opacity="0.8" d="M389.2 222.2C388.658 224.475 387.388 226.511 385.583 227.998C383.778 229.485 381.537 230.343 379.2 230.44C374.65 230.44 371.75 226.76 372.71 222.2C373.254 219.926 374.524 217.891 376.329 216.404C378.134 214.917 380.374 214.059 382.71 213.96C387.26 214 390.16 217.65 389.2 222.2Z" fill="#FAFAFA"/>
<path d="M318.92 270.05H317.09C317.044 270.05 316.999 270.041 316.956 270.024C316.914 270.006 316.875 269.98 316.842 269.948C316.81 269.915 316.784 269.877 316.767 269.834C316.749 269.792 316.74 269.746 316.74 269.7V267.76C316.739 267.714 316.747 267.668 316.764 267.625C316.781 267.582 316.807 267.543 316.839 267.51C316.872 267.477 316.911 267.451 316.954 267.434C316.998 267.417 317.044 267.409 317.09 267.41H318.4C318.478 267.408 318.554 267.433 318.616 267.48C318.678 267.527 318.722 267.595 318.74 267.67L319.26 269.61C319.274 269.662 319.275 269.717 319.265 269.769C319.254 269.822 319.232 269.872 319.199 269.914C319.166 269.957 319.124 269.991 319.075 270.015C319.027 270.038 318.974 270.051 318.92 270.05Z" fill="#F5F5F5"/>
<path d="M321.46 270.05H319.62C319.574 270.05 319.529 270.041 319.486 270.024C319.444 270.006 319.405 269.98 319.372 269.948C319.34 269.915 319.314 269.877 319.297 269.834C319.279 269.792 319.27 269.746 319.27 269.7V267.76C319.27 267.667 319.307 267.578 319.372 267.513C319.438 267.447 319.527 267.41 319.62 267.41H320.94C321.018 267.408 321.094 267.433 321.156 267.48C321.218 267.527 321.262 267.595 321.28 267.67L321.8 269.61C321.814 269.662 321.815 269.717 321.805 269.769C321.794 269.822 321.772 269.872 321.739 269.914C321.706 269.957 321.664 269.991 321.615 270.015C321.567 270.038 321.514 270.051 321.46 270.05Z" fill="#F5F5F5"/>
<path d="M324 270.05H322.17C322.124 270.05 322.079 270.041 322.036 270.024C321.994 270.006 321.955 269.98 321.923 269.948C321.89 269.915 321.864 269.877 321.847 269.834C321.829 269.792 321.82 269.746 321.82 269.7V267.76C321.819 267.714 321.827 267.668 321.844 267.625C321.861 267.582 321.887 267.543 321.919 267.51C321.952 267.477 321.991 267.451 322.034 267.434C322.078 267.417 322.124 267.409 322.17 267.41H323.49C323.566 267.41 323.64 267.436 323.7 267.483C323.76 267.53 323.802 267.596 323.82 267.67L324.34 269.61C324.354 269.662 324.356 269.717 324.345 269.769C324.334 269.822 324.312 269.872 324.279 269.914C324.246 269.957 324.204 269.991 324.155 270.015C324.107 270.038 324.054 270.051 324 270.05Z" fill="#F5F5F5"/>
<path d="M326.53 270.05H324.69C324.644 270.05 324.599 270.041 324.556 270.024C324.514 270.006 324.475 269.98 324.443 269.948C324.41 269.915 324.384 269.877 324.367 269.834C324.349 269.792 324.34 269.746 324.34 269.7V267.76C324.34 267.667 324.377 267.578 324.443 267.513C324.508 267.447 324.597 267.41 324.69 267.41H326C326.078 267.408 326.154 267.433 326.216 267.48C326.278 267.527 326.322 267.595 326.34 267.67L326.86 269.61C326.874 269.661 326.875 269.715 326.865 269.767C326.855 269.819 326.834 269.868 326.802 269.91C326.77 269.953 326.729 269.987 326.682 270.012C326.635 270.036 326.583 270.049 326.53 270.05Z" fill="#F5F5F5"/>
<path d="M329.07 270.05H327.23C327.184 270.05 327.139 270.041 327.096 270.024C327.054 270.006 327.015 269.98 326.983 269.948C326.95 269.915 326.924 269.877 326.907 269.834C326.889 269.792 326.88 269.746 326.88 269.7V267.76C326.88 267.667 326.917 267.578 326.983 267.513C327.048 267.447 327.137 267.41 327.23 267.41H328.55C328.628 267.408 328.704 267.433 328.766 267.48C328.828 267.527 328.872 267.595 328.89 267.67L329.4 269.61C329.414 269.661 329.415 269.715 329.405 269.767C329.395 269.819 329.374 269.868 329.342 269.91C329.31 269.953 329.269 269.987 329.222 270.012C329.175 270.036 329.123 270.049 329.07 270.05Z" fill="#F5F5F5"/>
<path d="M331.6 270.05H329.77C329.724 270.05 329.679 270.041 329.636 270.024C329.594 270.006 329.555 269.98 329.523 269.948C329.49 269.915 329.464 269.877 329.447 269.834C329.429 269.792 329.42 269.746 329.42 269.7V267.76C329.419 267.714 329.427 267.668 329.444 267.625C329.461 267.582 329.487 267.543 329.519 267.51C329.552 267.477 329.591 267.451 329.634 267.434C329.678 267.417 329.724 267.409 329.77 267.41H331.08C331.158 267.408 331.234 267.433 331.296 267.48C331.358 267.527 331.402 267.595 331.42 267.67L331.94 269.61C331.954 269.662 331.955 269.717 331.945 269.769C331.934 269.822 331.912 269.872 331.879 269.914C331.846 269.957 331.804 269.991 331.755 270.015C331.707 270.038 331.654 270.051 331.6 270.05Z" fill="#F5F5F5"/>
<path d="M334.14 270.05H332.3C332.254 270.05 332.209 270.041 332.166 270.024C332.124 270.006 332.085 269.98 332.053 269.948C332.02 269.915 331.994 269.877 331.977 269.834C331.959 269.792 331.95 269.746 331.95 269.7V267.76C331.95 267.667 331.987 267.578 332.053 267.513C332.118 267.447 332.207 267.41 332.3 267.41H333.62C333.698 267.408 333.774 267.433 333.836 267.48C333.898 267.527 333.942 267.595 333.96 267.67L334.48 269.61C334.492 269.662 334.492 269.716 334.481 269.768C334.469 269.82 334.446 269.868 334.414 269.911C334.381 269.953 334.34 269.987 334.293 270.011C334.245 270.035 334.193 270.049 334.14 270.05Z" fill="#F5F5F5"/>
<path d="M336.67 270.05H334.84C334.794 270.05 334.749 270.041 334.706 270.024C334.664 270.006 334.625 269.98 334.592 269.948C334.56 269.915 334.534 269.877 334.517 269.834C334.499 269.792 334.49 269.746 334.49 269.7V267.76C334.489 267.714 334.497 267.668 334.514 267.625C334.531 267.582 334.557 267.543 334.589 267.51C334.622 267.477 334.661 267.451 334.704 267.434C334.748 267.417 334.794 267.409 334.84 267.41H336.16C336.236 267.41 336.31 267.436 336.37 267.483C336.43 267.53 336.472 267.596 336.49 267.67L337.01 269.61C337.024 269.662 337.025 269.717 337.015 269.769C337.004 269.822 336.982 269.872 336.949 269.914C336.916 269.957 336.874 269.991 336.825 270.015C336.777 270.038 336.724 270.051 336.67 270.05Z" fill="#F5F5F5"/>
<path d="M339.21 270.05H337.37C337.324 270.05 337.279 270.041 337.236 270.024C337.194 270.006 337.155 269.98 337.122 269.948C337.09 269.915 337.064 269.877 337.047 269.834C337.029 269.792 337.02 269.746 337.02 269.7V267.76C337.02 267.667 337.057 267.578 337.122 267.513C337.188 267.447 337.277 267.41 337.37 267.41H338.69C338.768 267.408 338.844 267.433 338.906 267.48C338.968 267.527 339.012 267.595 339.03 267.67L339.55 269.61C339.564 269.662 339.565 269.717 339.555 269.769C339.544 269.822 339.522 269.872 339.489 269.914C339.456 269.957 339.414 269.991 339.365 270.015C339.317 270.038 339.264 270.051 339.21 270.05Z" fill="#F5F5F5"/>
<path d="M341.74 270.05H339.91C339.864 270.05 339.819 270.041 339.776 270.024C339.734 270.006 339.695 269.98 339.663 269.948C339.63 269.915 339.604 269.877 339.587 269.834C339.569 269.792 339.56 269.746 339.56 269.7V267.76C339.56 267.714 339.569 267.669 339.587 267.626C339.604 267.584 339.63 267.545 339.663 267.513C339.695 267.48 339.734 267.454 339.776 267.437C339.819 267.419 339.864 267.41 339.91 267.41H341.23C341.307 267.41 341.383 267.435 341.444 267.482C341.506 267.529 341.55 267.595 341.57 267.67L342.08 269.61C342.094 269.662 342.095 269.717 342.085 269.769C342.074 269.822 342.052 269.872 342.019 269.914C341.986 269.957 341.944 269.991 341.895 270.015C341.847 270.038 341.794 270.05 341.74 270.05Z" fill="#F5F5F5"/>
<path d="M344.28 270.05H342.45C342.404 270.05 342.359 270.041 342.316 270.024C342.274 270.006 342.235 269.98 342.203 269.948C342.17 269.915 342.144 269.877 342.127 269.834C342.109 269.792 342.1 269.746 342.1 269.7V267.76C342.099 267.714 342.107 267.668 342.124 267.625C342.141 267.582 342.167 267.543 342.199 267.51C342.232 267.477 342.271 267.451 342.314 267.434C342.358 267.417 342.404 267.409 342.45 267.41H343.76C343.838 267.408 343.914 267.433 343.976 267.48C344.038 267.527 344.082 267.595 344.1 267.67L344.62 269.61C344.634 269.662 344.636 269.717 344.625 269.769C344.614 269.822 344.592 269.872 344.559 269.914C344.526 269.957 344.484 269.991 344.435 270.015C344.387 270.038 344.334 270.051 344.28 270.05Z" fill="#F5F5F5"/>
<path d="M346.82 270.05H345C344.954 270.05 344.909 270.041 344.866 270.024C344.824 270.006 344.785 269.98 344.753 269.948C344.72 269.915 344.694 269.877 344.677 269.834C344.659 269.792 344.65 269.746 344.65 269.7V267.76C344.65 267.667 344.687 267.578 344.753 267.513C344.818 267.447 344.907 267.41 345 267.41H346.32C346.398 267.408 346.474 267.433 346.536 267.48C346.598 267.527 346.642 267.595 346.66 267.67L347.18 269.61C347.192 269.664 347.192 269.719 347.18 269.773C347.167 269.826 347.142 269.876 347.108 269.918C347.073 269.961 347.029 269.995 346.979 270.018C346.929 270.04 346.875 270.052 346.82 270.05Z" fill="#F5F5F5"/>
<path d="M349.35 270.05H347.52C347.474 270.05 347.429 270.041 347.386 270.024C347.344 270.006 347.305 269.98 347.273 269.948C347.24 269.915 347.214 269.877 347.197 269.834C347.179 269.792 347.17 269.746 347.17 269.7V267.76C347.169 267.714 347.177 267.668 347.194 267.625C347.211 267.582 347.237 267.543 347.269 267.51C347.302 267.477 347.341 267.451 347.384 267.434C347.428 267.417 347.474 267.409 347.52 267.41H348.84C348.916 267.41 348.99 267.436 349.05 267.483C349.11 267.53 349.152 267.596 349.17 267.67L349.69 269.61C349.704 269.662 349.705 269.717 349.695 269.769C349.684 269.822 349.662 269.872 349.629 269.914C349.596 269.957 349.554 269.991 349.505 270.015C349.457 270.038 349.404 270.051 349.35 270.05Z" fill="#F5F5F5"/>
<path d="M351.89 270.05H350.05C350.004 270.05 349.959 270.041 349.916 270.024C349.874 270.006 349.835 269.98 349.803 269.948C349.77 269.915 349.744 269.877 349.727 269.834C349.709 269.792 349.7 269.746 349.7 269.7V267.76C349.7 267.714 349.709 267.669 349.727 267.626C349.744 267.584 349.77 267.545 349.803 267.513C349.835 267.48 349.874 267.455 349.916 267.437C349.959 267.419 350.004 267.41 350.05 267.41H351.37C351.448 267.408 351.524 267.433 351.586 267.48C351.648 267.527 351.692 267.595 351.71 267.67L352.23 269.61C352.244 269.662 352.245 269.717 352.235 269.769C352.224 269.822 352.202 269.872 352.169 269.914C352.136 269.957 352.094 269.991 352.045 270.015C351.997 270.038 351.944 270.051 351.89 270.05Z" fill="#F5F5F5"/>
<path d="M354.42 270.05H352.59C352.544 270.05 352.499 270.041 352.456 270.024C352.414 270.006 352.375 269.98 352.342 269.948C352.31 269.915 352.284 269.877 352.267 269.834C352.249 269.792 352.24 269.746 352.24 269.7V267.76C352.24 267.667 352.277 267.578 352.342 267.513C352.408 267.447 352.497 267.41 352.59 267.41H353.91C353.987 267.41 354.063 267.435 354.124 267.482C354.186 267.529 354.23 267.595 354.25 267.67L354.76 269.61C354.774 269.662 354.775 269.717 354.765 269.769C354.754 269.822 354.732 269.872 354.699 269.914C354.666 269.957 354.624 269.991 354.575 270.015C354.527 270.038 354.474 270.05 354.42 270.05Z" fill="#F5F5F5"/>
<path d="M356.27 268.73H315.24V271.79H356.27V268.73Z" fill="#EBEBEB"/>
<path d="M447.1 271.38H397.94V278.8H447.1V271.38Z" fill="#E6E6E6"/>
<path d="M309.51 382.28C308.759 382.28 308.038 381.982 307.505 381.452C306.973 380.921 306.673 380.201 306.67 379.45V278.8H312.34V379.45C312.34 380.2 312.042 380.92 311.511 381.451C310.98 381.982 310.261 382.28 309.51 382.28Z" fill="#E6E6E6"/>
<path d="M441 382.28C440.249 382.28 439.528 381.982 438.995 381.452C438.463 380.921 438.163 380.201 438.16 379.45V278.8H443.83V379.45C443.83 380.2 443.532 380.92 443.001 381.451C442.47 381.982 441.751 382.28 441 382.28Z" fill="#E6E6E6"/>
<path d="M411.97 271.38H272.73V278.8H411.97V271.38Z" fill="#F0F0F0"/>
<path d="M405.85 382.28C405.099 382.28 404.38 381.982 403.849 381.451C403.318 380.92 403.02 380.2 403.02 379.45V278.8H408.69V379.45C408.687 380.201 408.387 380.921 407.855 381.452C407.322 381.982 406.601 382.28 405.85 382.28Z" fill="#F0F0F0"/>
<path d="M384.723 126.19C386.533 115.041 378.962 104.537 367.814 102.727C356.666 100.918 346.161 108.488 344.352 119.636C342.542 130.785 350.113 141.289 361.261 143.099C372.409 144.909 382.914 137.338 384.723 126.19Z" fill="#E0E0E0"/>
<path opacity="0.8" d="M364.27 139.32C373.333 139.32 380.68 131.973 380.68 122.91C380.68 113.847 373.333 106.5 364.27 106.5C355.207 106.5 347.86 113.847 347.86 122.91C347.86 131.973 355.207 139.32 364.27 139.32Z" fill="white"/>
<path d="M365.89 124.27C365.89 124.599 365.793 124.92 365.61 125.193C365.428 125.466 365.169 125.678 364.865 125.804C364.562 125.93 364.228 125.963 363.906 125.898C363.584 125.834 363.288 125.676 363.056 125.444C362.824 125.212 362.666 124.916 362.602 124.594C362.538 124.272 362.571 123.938 362.696 123.635C362.822 123.332 363.035 123.073 363.308 122.89C363.581 122.708 363.902 122.61 364.23 122.61C364.448 122.61 364.664 122.653 364.865 122.737C365.067 122.82 365.25 122.942 365.404 123.097C365.558 123.251 365.68 123.434 365.764 123.635C365.847 123.836 365.89 124.052 365.89 124.27Z" fill="#E0E0E0"/>
<path d="M364.04 124.88L356.98 118.24L357.66 117.51L364.06 123.53L375.53 113.4L376.19 114.15L364.04 124.88Z" fill="#E0E0E0"/>
<path d="M230.34 103.08H66.51V202.91H230.34V103.08Z" fill="#EBEBEB"/>
<path d="M231.56 103.04H230.36V202.87H231.56V103.04Z" fill="#E0E0E0"/>
<path d="M72.46 107.42H71.47V197.25H72.46V107.42Z" fill="#E0E0E0"/>
<path d="M225 107.42H71.37V197.25H225V107.42Z" fill="white"/>
<path d="M175.37 137.35H162.71V155.53H175.37V137.35Z" fill="#F5F5F5"/>
<path d="M91.43 166.16H78.77V184.34H91.43V166.16Z" fill="#F5F5F5"/>
<path d="M90.19 128.24H77.53V140.9H90.19V128.24Z" fill="#F5F5F5"/>
<path d="M153.17 171.96H140.51V184.62H153.17V171.96Z" fill="#F5F5F5"/>
<path d="M215.35 138.92H182.93V184.48H215.35V138.92Z" fill="#F5F5F5"/>
<path d="M210.66 145.51H187.37V146.01H210.66V145.51Z" fill="#E0E0E0"/>
<path d="M199.26 146H198.76V179.74H199.26V146Z" fill="#E0E0E0"/>
<path d="M209.95 146H209.45V179.74H209.95V146Z" fill="#E0E0E0"/>
<path d="M189.76 146H189.26V179.74H189.76V146Z" fill="#E0E0E0"/>
<path d="M188.09 146H187.59V179.74H188.09V146Z" fill="#E0E0E0"/>
<path d="M209.46 147.78H187.84V148.28H209.46V147.78Z" fill="#E0E0E0"/>
<path d="M130.18 125.17V129.45H140.16V125.17H130.18Z" fill="#F5F5F5"/>
<path d="M132.13 157.37V160.7H142.11V157.37H132.13Z" fill="#F5F5F5"/>
<path d="M133.75 123.77H101.33V169.33H133.75V123.77Z" fill="#F0F0F0"/>
<path d="M129.89 164.74V168.07H139.87V164.74H129.89Z" fill="#F5F5F5"/>
<path d="M131.55 134.29V137.62H141.53V134.29H131.55Z" fill="#F5F5F5"/>
<path d="M129.37 142.56V145.89H139.35V142.56H129.37Z" fill="#F5F5F5"/>
<path d="M127.25 129.37H105.15V133.29H127.25V129.37Z" fill="#E6E6E6"/>
<path d="M127.61 146.12H105.51L105.15 144.34H127.25L127.61 146.12Z" fill="#E6E6E6"/>
<path d="M112.99 137.21H105.15V141.13H112.99V137.21Z" fill="#E6E6E6"/>
<path d="M449.9 398.49H416.78V398.74H449.9V398.49Z" fill="#EBEBEB"/>
<path d="M331.22 401.21H322.53V401.46H331.22V401.21Z" fill="#EBEBEB"/>
<path d="M415.78 389.21H396.59V389.46H415.78V389.21Z" fill="#EBEBEB"/>
<path d="M95.65 390.89H52.46V391.14H95.65V390.89Z" fill="#EBEBEB"/>
<path d="M110.89 390.89H104.56V391.14H110.89V390.89Z" fill="#EBEBEB"/>
<path d="M225.15 395.11H131.47V395.36H225.15V395.11Z" fill="#EBEBEB"/>
<path d="M238.4 337.8H45.3C43.7856 337.8 42.3332 337.198 41.2624 336.128C40.1916 335.057 39.59 333.604 39.59 332.09V60.66C39.6032 59.1543 40.2106 57.7147 41.28 56.6547C42.3494 55.5947 43.7942 54.9999 45.3 55H238.4C239.15 55 239.892 55.1477 240.585 55.4346C241.278 55.7216 241.907 56.1422 242.438 56.6724C242.968 57.2026 243.388 57.8321 243.675 58.5249C243.962 59.2176 244.11 59.9602 244.11 60.71V332.09C244.11 332.84 243.962 333.582 243.675 334.275C243.388 334.968 242.968 335.597 242.438 336.128C241.907 336.658 241.278 337.078 240.585 337.365C239.892 337.652 239.15 337.8 238.4 337.8ZM45.3 55.2C43.8527 55.2026 42.4655 55.7787 41.4421 56.8021C40.4187 57.8255 39.8426 59.2127 39.84 60.66V332.09C39.8426 333.537 40.4187 334.924 41.4421 335.948C42.4655 336.971 43.8527 337.547 45.3 337.55H238.4C239.847 337.547 241.235 336.971 242.258 335.948C243.281 334.924 243.857 333.537 243.86 332.09V60.66C243.857 59.2127 243.281 57.8255 242.258 56.8021C241.235 55.7787 239.847 55.2026 238.4 55.2H45.3Z" fill="#EBEBEB"/>
<path d="M454.7 337.8H261.6C260.086 337.8 258.633 337.198 257.562 336.128C256.492 335.057 255.89 333.604 255.89 332.09V60.66C255.903 59.1543 256.511 57.7147 257.58 56.6547C258.649 55.5947 260.094 54.9999 261.6 55H454.7C456.214 55 457.667 55.6016 458.738 56.6724C459.808 57.7433 460.41 59.1956 460.41 60.71V332.09C460.41 333.604 459.808 335.057 458.738 336.128C457.667 337.198 456.214 337.8 454.7 337.8ZM261.6 55.2C260.153 55.2026 258.766 55.7787 257.742 56.8021C256.719 57.8255 256.143 59.2127 256.14 60.66V332.09C256.143 333.537 256.719 334.924 257.742 335.948C258.766 336.971 260.153 337.547 261.6 337.55H454.7C456.147 337.547 457.535 336.971 458.558 335.948C459.581 334.924 460.157 333.537 460.16 332.09V60.66C460.157 59.2127 459.581 57.8255 458.558 56.8021C457.535 55.7787 456.147 55.2026 454.7 55.2H261.6Z" fill="#EBEBEB"/>
<path d="M500 382.4H0V382.65H500V382.4Z" fill="#EBEBEB"/>
<path d="M250 423.78C357.082 423.78 443.89 418.711 443.89 412.46C443.89 406.208 357.082 401.14 250 401.14C142.918 401.14 56.11 406.208 56.11 412.46C56.11 418.711 142.918 423.78 250 423.78Z" fill="#E0E0E0"/>
<path d="M313.49 375.269C313.49 375.269 310.34 339.929 293.93 305.989C293.93 305.989 318.16 328.609 319.01 375.269H313.49Z" fill="#407BFF"/>
<path d="M325.8 376.54C325.8 376.54 328.54 336.75 334.73 316.85C334.73 316.85 338.12 341.54 329.28 375.42L325.8 376.54Z" fill="#407BFF"/>
<path opacity="0.3" d="M325.8 376.54C325.8 376.54 328.54 336.75 334.73 316.85C334.73 316.85 338.12 341.54 329.28 375.42L325.8 376.54Z" fill="black"/>
<path d="M323.26 377.719C323.26 377.719 319.01 324.169 330.91 300.159C330.91 300.159 332.19 348.829 329.21 377.719H323.26Z" fill="#407BFF"/>
<path opacity="0.2" d="M323.26 377.719C323.26 377.719 319.01 324.169 330.91 300.159C330.91 300.159 332.19 348.829 329.21 377.719H323.26Z" fill="black"/>
<path d="M333.31 378C333.31 378 336.45 342.66 352.87 308.72C352.87 308.72 328.63 331.34 327.78 378H333.31Z" fill="#407BFF"/>
<path d="M317.31 380.74C317.31 380.74 304.12 319.22 306.47 286.64C306.47 286.64 324.11 322.91 323.26 377.72L317.31 380.74Z" fill="#407BFF"/>
<path opacity="0.1" d="M317.31 380.74C317.31 380.74 304.12 319.22 306.47 286.64C306.47 286.64 324.11 322.91 323.26 377.72L317.31 380.74Z" fill="white"/>
<path d="M329.54 412H317.25C315.252 411.997 313.327 411.251 311.848 409.907C310.37 408.564 309.444 406.718 309.25 404.73L306.11 372.3H340.7L337.56 404.73C337.377 406.726 336.451 408.581 334.966 409.927C333.481 411.274 331.545 412.013 329.54 412Z" fill="#407BFF"/>
<path opacity="0.3" d="M328.47 412H318.33C316.036 411.998 313.825 411.144 312.126 409.602C310.428 408.061 309.363 405.943 309.14 403.66L306.14 372.3H340.73L337.73 403.66C337.505 405.955 336.431 408.083 334.718 409.626C333.004 411.169 330.776 412.016 328.47 412Z" fill="white"/>
<path d="M255.41 195.08L257.35 186.65L255.11 181.82C254.837 181.352 254.731 180.805 254.81 180.27C255.093 178.622 255.46 176.99 255.91 175.38C256.009 175.079 256.221 174.829 256.5 174.682C256.78 174.534 257.106 174.501 257.41 174.59L261.83 175.84C262.76 175.99 263.65 182.55 263.65 182.55C263.761 182.986 263.74 183.445 263.59 183.87L262.27 188L261.48 198.22L255.41 195.08Z" fill="#FFC3BD"/>
<path d="M236.24 186.35C242.668 190.708 248.025 196.466 251.91 203.19C252.47 201.26 255.14 193.12 254.67 190.83C254.52 190.359 254.482 189.859 254.56 189.37C254.69 188.9 255.26 188.51 255.68 188.76C258.96 188.4 261.68 188.99 264.92 189.42C264.03 196.81 262.55 220.53 250.4 215.71C241.35 212.13 234.77 203.71 231.28 194.6C230.668 193.176 230.355 191.641 230.36 190.09C230.373 189.316 230.559 188.555 230.905 187.863C231.251 187.171 231.748 186.565 232.36 186.09C233.6 185.19 235 185.49 236.24 186.35Z" fill="#407BFF"/>
<path opacity="0.7" d="M236.24 186.35C242.668 190.708 248.025 196.466 251.91 203.19C252.47 201.26 255.14 193.12 254.67 190.83C254.52 190.359 254.482 189.859 254.56 189.37C254.69 188.9 255.26 188.51 255.68 188.76C258.96 188.4 261.68 188.99 264.92 189.42C264.03 196.81 262.55 220.53 250.4 215.71C241.35 212.13 234.77 203.71 231.28 194.6C230.668 193.176 230.355 191.641 230.36 190.09C230.373 189.316 230.559 188.555 230.905 187.863C231.251 187.171 231.748 186.565 232.36 186.09C233.6 185.19 235 185.49 236.24 186.35Z" fill="black"/>
<path d="M224.07 261C224.903 274.573 224.836 288.186 223.87 301.75C223.87 301.75 221.31 280.1 219.99 271.44L224.07 261Z" fill="black"/>
<path d="M216.15 182.55C217.4 178.27 216.94 172.19 216.37 168.4L225.82 177.22C225.285 178.854 225.135 180.589 225.38 182.29C225.449 182.684 225.645 183.044 225.937 183.316C226.23 183.589 226.603 183.759 227 183.8L230.95 184.91L231.49 187.91L229.15 188.59L226.07 191.92L218.32 188.92L210 185.33C211.227 184.897 212.504 184.621 213.8 184.51C214.32 184.396 214.805 184.158 215.214 183.817C215.623 183.476 215.944 183.042 216.15 182.55Z" fill="#FFC3BD"/>
<path opacity="0.2" d="M220.23 172.7L225.68 177.7C225.414 178.678 225.273 179.686 225.26 180.7C224 180.416 222.828 179.828 221.847 178.988C220.866 178.148 220.105 177.081 219.63 175.88C219.14 174.39 219.66 172.85 220.23 172.7Z" fill="black"/>
<path d="M214.79 161.56C215.38 168.56 215.38 172.64 219 176.13C224.43 181.4 233 177.97 234.46 170.98C235.8 164.64 234.59 154.33 227.69 151.73C226.173 151.145 224.531 150.958 222.921 151.187C221.311 151.416 219.786 152.054 218.493 153.04C217.199 154.025 216.18 155.326 215.531 156.818C214.883 158.309 214.628 159.942 214.79 161.56Z" fill="#FFC3BD"/>
<path d="M224.51 161.92C224.58 162.48 224.93 162.92 225.3 162.86C225.67 162.8 225.91 162.32 225.84 161.75C225.77 161.18 225.42 160.75 225.05 160.82C224.68 160.89 224.44 161.36 224.51 161.92Z" fill="#263238"/>
<path d="M231.32 161.09C231.39 161.65 231.74 162.09 232.11 162.03C232.48 161.97 232.72 161.49 232.65 160.93C232.58 160.37 232.23 159.93 231.86 159.99C231.49 160.05 231.25 160.52 231.32 161.09Z" fill="#263238"/>
<path d="M223.73 161C223.674 161.01 223.616 161.01 223.56 161C223.48 160.961 223.417 160.892 223.385 160.809C223.354 160.725 223.355 160.632 223.39 160.55C223.608 160.067 223.935 159.641 224.347 159.308C224.758 158.975 225.242 158.742 225.76 158.63C225.848 158.621 225.937 158.646 226.007 158.7C226.078 158.754 226.125 158.832 226.14 158.92C226.152 159.007 226.129 159.095 226.077 159.166C226.024 159.237 225.947 159.285 225.86 159.3C225.45 159.391 225.068 159.578 224.744 159.845C224.421 160.113 224.166 160.454 224 160.84C223.973 160.887 223.933 160.927 223.886 160.955C223.839 160.983 223.785 160.998 223.73 161Z" fill="#263238"/>
<path d="M233.88 159.82C233.826 159.829 233.77 159.824 233.718 159.807C233.665 159.789 233.618 159.759 233.58 159.72C233.31 159.404 232.968 159.157 232.584 158.999C232.2 158.841 231.784 158.776 231.37 158.81C231.282 158.824 231.193 158.803 231.121 158.752C231.048 158.7 231 158.622 230.985 158.535C230.97 158.447 230.991 158.357 231.043 158.285C231.094 158.213 231.172 158.164 231.26 158.15C231.788 158.096 232.322 158.17 232.816 158.365C233.31 158.56 233.75 158.87 234.1 159.27C234.16 159.331 234.193 159.414 234.193 159.5C234.193 159.586 234.16 159.668 234.1 159.73C234.072 159.76 234.038 159.784 234 159.799C233.962 159.815 233.921 159.822 233.88 159.82Z" fill="#263238"/>
<path d="M217.11 159.83C217.774 161.566 217.813 163.479 217.22 165.24C216.906 165.095 216.566 165.014 216.22 165C215.998 164.979 215.775 165.016 215.572 165.107C215.368 165.198 215.192 165.341 215.06 165.52C214.961 165.754 214.91 166.006 214.91 166.26C214.91 166.514 214.961 166.766 215.06 167C215.673 169.2 216.34 171.38 217.06 173.54C213.456 170.093 211.171 165.494 210.6 160.54C212.61 160.27 215.05 160.08 217.11 159.83Z" fill="#263238"/>
<path d="M211.54 168.161C212.513 169.625 214.027 170.643 215.75 170.991C218.04 171.431 218.99 169.341 218.2 167.281C217.49 165.431 215.44 162.961 213.2 163.441C210.96 163.921 210.36 166.341 211.54 168.161Z" fill="#FFC3BD"/>
<path d="M229.78 162.851C230.735 164.403 231.903 165.813 233.25 167.041C232.928 167.393 232.533 167.671 232.092 167.856C231.652 168.04 231.177 168.127 230.7 168.111L229.78 162.851Z" fill="#ED893E"/>
<path d="M252.28 387.33L258.71 385.01L262.38 400.52L255.94 402.85L252.28 387.33Z" fill="#FFC3BD"/>
<path d="M205.3 389.83L212.13 390.22L210.87 406.01L204.04 405.62L205.3 389.83Z" fill="#FFC3BD"/>
<path d="M212.92 405.75C214.53 407.36 218.35 409.18 223.6 410.64C224.75 410.96 224.22 413.77 221.35 413.64C218.48 413.51 212.23 412.9 210.16 412.78C206.79 412.59 204.8 412.68 202.16 412.52C202.084 412.531 202.006 412.531 201.93 412.52C201.802 412.485 201.682 412.426 201.578 412.344C201.473 412.263 201.386 412.162 201.321 412.046C201.256 411.931 201.214 411.804 201.198 411.672C201.183 411.541 201.194 411.407 201.23 411.28L202.93 405.28C202.967 405.149 203.047 405.035 203.158 404.956C203.27 404.878 203.404 404.84 203.54 404.85L211.86 405.32C212.253 405.333 212.629 405.486 212.92 405.75Z" fill="#263238"/>
<path d="M264 399.47C269.36 400.38 270.33 399.95 275.71 399.03C276.87 398.83 277.21 401.75 274.61 402.8C270.3 404.54 270.16 404.53 266.52 406.02C263.38 407.27 259.83 408.88 257.35 409.93C257.276 409.961 257.199 409.981 257.12 409.99C256.86 410.031 256.595 409.968 256.382 409.814C256.169 409.661 256.024 409.429 255.98 409.17L255 403C254.98 402.865 255.006 402.727 255.073 402.607C255.14 402.488 255.244 402.394 255.37 402.34L262.29 399.55C262.842 399.369 263.433 399.341 264 399.47Z" fill="#263238"/>
<path opacity="0.2" d="M252.27 387.341L254.16 395.341L260.6 393.011L258.71 385.021L252.27 387.341Z" fill="black"/>
<path opacity="0.2" d="M204.65 397.97L211.48 398.37L212.13 390.22L205.3 389.83L204.65 397.97Z" fill="black"/>
<path d="M262.37 390.43L251.64 394.76C251.64 394.76 238 343.82 234.29 326.07C230.58 308.32 217.58 247.07 217.58 247.07L241.58 247.26C241.58 247.26 249.3 301.68 251.71 322.41C254.26 344 262.37 390.43 262.37 390.43Z" fill="#F7841E"/>
<path opacity="0.2" d="M229.91 305.38L222.59 270.77L226.14 267.9C231 274.69 231.44 293.18 229.91 305.38Z" fill="black"/>
<path d="M205.08 247C205.08 247 204.72 305.87 203.79 330.22C202.94 351.78 202.31 396.22 202.31 396.22L214.82 396.94C214.82 396.94 219.82 348.51 221.82 326.65C223.57 306.65 231.59 247.17 231.59 247.17L205.08 247Z" fill="#F7841E"/>
<path d="M216.69 392.65L201.21 392.05L201.57 396.48L215.3 397.27L216.69 392.65Z" fill="#407BFF"/>
<path d="M262.51 385.63L248.7 391.23L251 395.34L263.12 390.44L262.51 385.63Z" fill="#407BFF"/>
<path d="M214 406.6C214.465 406.659 214.937 406.56 215.34 406.32C215.473 406.223 215.579 406.092 215.645 405.941C215.712 405.79 215.738 405.624 215.72 405.46C215.73 405.364 215.712 405.268 215.667 405.182C215.623 405.097 215.554 405.027 215.47 404.98C214.74 404.55 212.47 405.77 212.2 405.92C212.172 405.933 212.149 405.954 212.135 405.981C212.12 406.009 212.115 406.04 212.12 406.07C212.122 406.102 212.134 406.132 212.154 406.157C212.173 406.182 212.2 406.2 212.23 406.21C212.803 406.409 213.397 406.54 214 406.6ZM215.1 405.24C215.169 405.225 215.241 405.225 215.31 405.24C215.34 405.264 215.364 405.294 215.379 405.329C215.395 405.364 215.402 405.402 215.4 405.44C215.409 405.551 215.39 405.662 215.344 405.763C215.299 405.865 215.229 405.953 215.14 406.02C214.361 406.335 213.489 406.335 212.71 406.02C213.449 405.611 214.261 405.349 215.1 405.25V405.24Z" fill="#407BFF"/>
<path d="M212.3 406.25H212.37C213.1 405.92 214.56 404.5 214.45 403.71C214.436 403.589 214.378 403.477 214.288 403.394C214.199 403.311 214.082 403.264 213.96 403.26C213.839 403.236 213.714 403.238 213.593 403.265C213.472 403.293 213.359 403.346 213.26 403.42C212.44 404.03 212.15 406.02 212.14 406.07C212.138 406.099 212.143 406.128 212.156 406.154C212.168 406.18 212.187 406.203 212.21 406.22L212.3 406.25ZM213.83 403.57H213.91C214.11 403.57 214.13 403.71 214.13 403.76C214.19 404.2 213.26 405.29 212.52 405.76C212.62 404.988 212.943 404.261 213.45 403.67C213.561 403.593 213.696 403.558 213.83 403.57Z" fill="#407BFF"/>
<path d="M263.25 400.24C264.36 400.02 266.25 399.52 266.72 398.66C266.796 398.524 266.836 398.371 266.836 398.215C266.836 398.059 266.796 397.906 266.72 397.77C266.682 397.69 266.625 397.62 266.553 397.568C266.482 397.515 266.398 397.482 266.31 397.47C265.37 397.37 263.31 399.67 263.11 399.95C263.091 399.978 263.081 400.011 263.081 400.045C263.081 400.079 263.091 400.112 263.11 400.14C263.121 400.168 263.141 400.193 263.165 400.21C263.19 400.228 263.22 400.238 263.25 400.24ZM266.25 397.81C266.284 397.813 266.317 397.825 266.344 397.847C266.37 397.868 266.39 397.897 266.4 397.93C266.444 398.015 266.467 398.109 266.467 398.205C266.467 398.301 266.444 398.395 266.4 398.48C266.14 398.99 265.12 399.48 263.66 399.81C264.49 398.91 265.66 397.81 266.22 397.81H266.25Z" fill="#407BFF"/>
<path d="M263.25 400.24C263.271 400.241 263.292 400.237 263.311 400.228C263.33 400.22 263.347 400.206 263.36 400.19C264 399.53 264.95 397.55 264.55 396.87C264.45 396.72 264.25 396.56 263.82 396.68C263.664 396.726 263.519 396.802 263.394 396.906C263.269 397.009 263.165 397.136 263.09 397.28C262.793 398.203 262.793 399.196 263.09 400.12C263.099 400.147 263.115 400.171 263.136 400.19C263.157 400.209 263.182 400.223 263.21 400.23L263.25 400.24ZM264.1 396.96C264.133 396.956 264.166 396.962 264.196 396.976C264.226 396.99 264.252 397.012 264.27 397.04C264.51 397.45 263.92 398.94 263.33 399.72C263.106 398.973 263.124 398.176 263.38 397.44C263.431 397.332 263.504 397.237 263.596 397.161C263.687 397.085 263.795 397.03 263.91 397C263.973 396.989 264.037 396.989 264.1 397V396.96Z" fill="#407BFF"/>
<path d="M209.37 185C209.37 185 209.64 184.89 210.2 184.73L211.38 184.58L213.16 184.11C213.76 184.5 222.41 190.11 225.16 191.19L226.01 191.32C227.431 189.015 228.202 186.368 228.24 183.66H229.24C229.564 183.944 229.957 184.137 230.38 184.22L231.2 184.31L233.78 186.12C233.78 186.12 239.46 197.61 241.58 226.49L242.58 248.35L201.46 249.52L209.37 185Z" fill="#407BFF"/>
<g opacity="0.4">
<path d="M227.24 189C227.244 189.03 227.244 189.06 227.24 189.09V189.01V189Z" fill="black"/>
</g>
<path d="M227.24 189C227.244 189.03 227.244 189.06 227.24 189.09V189.01V189Z" fill="#407BFF"/>
<path d="M228.3 183.64C228.3 183.64 234.19 185.93 236.78 201.64C239.37 217.35 238.7 220.37 239.57 242.64C239.79 248.31 239.77 253.94 244.02 253.24C244.02 253.24 244.27 254.33 243.18 229.69C242.09 205.05 243.64 183.66 228.3 183.64Z" fill="#407BFF"/>
<g opacity="0.6">
<path d="M228.3 183.64C228.3 183.64 234.19 185.93 236.78 201.64C239.37 217.35 238.7 220.37 239.57 242.64C239.79 248.31 239.77 253.94 244.02 253.24C244.02 253.24 244.27 254.33 243.18 229.69C242.09 205.05 243.64 183.66 228.3 183.64Z" fill="black"/>
</g>
<path d="M210.83 184.14C210.83 184.14 217.93 187.82 219.41 212.38C220.89 236.94 225.46 253.49 217.2 254.5C208.94 255.51 199.75 251.12 199.75 251.12C199.75 251.12 198.98 253.37 200.2 242.03C201.2 232.56 200.7 240.26 201.3 231.29C201.99 220.92 195.53 192.6 199.07 189.65C202.61 186.7 210.83 184.14 210.83 184.14Z" fill="#407BFF"/>
<g opacity="0.6">
<path d="M210.83 184.14C210.83 184.14 217.93 187.82 219.41 212.38C220.89 236.94 225.46 253.49 217.2 254.5C208.94 255.51 199.75 251.12 199.75 251.12C199.75 251.12 198.98 253.37 200.2 242.03C201.2 232.56 200.7 240.26 201.3 231.29C201.99 220.92 195.53 192.6 199.07 189.65C202.61 186.7 210.83 184.14 210.83 184.14Z" fill="black"/>
</g>
<g opacity="0.3">
<path d="M213.285 238.122L208.218 237.54C207.356 237.441 206.569 237.004 206.03 236.325C205.491 235.646 205.243 234.78 205.342 233.919L205.427 233.184L216.991 234.511L216.906 235.246C216.807 236.108 216.37 236.895 215.691 237.434C215.012 237.974 214.146 238.221 213.285 238.122Z" fill="black"/>
</g>
<path d="M230.93 210.191L240.23 208.691L243.1 204.931C243.43 204.498 243.9 204.194 244.43 204.071L247.68 203.281C248.037 203.198 248.409 203.198 248.766 203.281C249.123 203.365 249.456 203.528 249.74 203.761L250.92 204.761C251.33 205.092 251.613 205.555 251.72 206.071L252.06 207.601C252.159 208.052 252.124 208.523 251.958 208.955C251.793 209.386 251.505 209.76 251.13 210.031L246.46 213.391C246.096 213.658 245.661 213.811 245.21 213.831L241.12 214.061L230.31 217.001L230.93 210.191Z" fill="#FFC3BD"/>
<path d="M228.48 170.6C227.85 170.476 227.252 170.226 226.721 169.865C226.19 169.504 225.737 169.04 225.39 168.5C225.37 168.461 225.366 168.416 225.377 168.373C225.388 168.331 225.414 168.294 225.45 168.27C225.49 168.251 225.536 168.248 225.578 168.261C225.621 168.274 225.657 168.302 225.68 168.34C226.064 168.917 226.576 169.397 227.176 169.744C227.776 170.091 228.448 170.295 229.14 170.34C229.183 170.34 229.225 170.356 229.257 170.386C229.288 170.416 229.307 170.456 229.31 170.5C229.31 170.545 229.292 170.588 229.26 170.62C229.228 170.652 229.185 170.67 229.14 170.67C228.9 170.68 228.69 170.64 228.48 170.6Z" fill="#263238"/>
<path d="M213.19 184.08L226.48 195.94L227 195C228.772 191.486 229.246 187.459 228.34 183.63C228.341 185.463 228.002 187.28 227.34 188.99L225.7 185.31C225.669 186.323 225.524 187.329 225.27 188.31L224.38 187.42L221.9 189.42C218.21 187.34 213.62 184.37 213.19 184.08Z" fill="#407BFF"/>
<path opacity="0.2" d="M213.19 184.08L226.48 195.94L227 195C228.772 191.486 229.246 187.459 228.34 183.63C228.341 185.463 228.002 187.28 227.34 188.99L225.7 185.31C225.669 186.323 225.524 187.329 225.27 188.31L224.38 187.42L221.9 189.42C218.21 187.34 213.62 184.37 213.19 184.08Z" fill="white"/>
<path d="M225.18 188.27C227.14 189.3 228.984 190.537 230.68 191.96C230.5 190.58 230.32 189.21 230.15 187.84C230.041 186.371 229.686 184.931 229.1 183.58C228.799 182.905 228.332 182.318 227.743 181.872C227.154 181.426 226.461 181.136 225.73 181.03C225.61 181.03 225.36 180.79 225.24 180.79C225.776 183.257 225.755 185.812 225.18 188.27Z" fill="#407BFF"/>
<path opacity="0.6" d="M225.18 188.27C227.14 189.3 228.984 190.537 230.68 191.96C230.5 190.58 230.32 189.21 230.15 187.84C230.041 186.371 229.686 184.931 229.1 183.58C228.799 182.905 228.332 182.318 227.743 181.872C227.154 181.426 226.461 181.136 225.73 181.03C225.61 181.03 225.36 180.79 225.24 180.79C225.776 183.257 225.755 185.812 225.18 188.27Z" fill="white"/>
<path d="M225.18 188.27L220.51 193.17C220.51 193.17 213.08 185.17 213.16 182.9L216.69 179.9L225.18 188.27Z" fill="#407BFF"/>
<path opacity="0.6" d="M225.18 188.27L220.51 193.17C220.51 193.17 213.08 185.17 213.16 182.9L216.69 179.9L225.18 188.27Z" fill="white"/>
<path d="M222.79 190.77L225.13 193.24C225.276 193.4 225.456 193.526 225.657 193.607C225.857 193.688 226.074 193.724 226.29 193.71L227.94 193.48C228.07 193.45 228.187 193.379 228.275 193.279C228.363 193.178 228.417 193.053 228.43 192.92L227.74 189.78L225.17 188.28L222.79 190.77Z" fill="white"/>
<path d="M226.17 223C226.17 223 229.27 230.95 230.44 230C231.61 229.05 234.14 223.76 234.14 223.65C233.539 213.294 231.471 203.075 228 193.3L226.11 193.54C226.718 203.35 226.738 213.187 226.17 223Z" fill="white"/>
<path d="M235.48 208.58C236.61 209.34 238.61 215.91 235.29 216.87C231.95 218.23 217.23 223.47 209.92 222.29C208 221.99 206.14 221.35 205.05 219.74C200.013 212.395 196.961 203.872 196.19 195C196 192.81 196.33 190 199.86 189.39C201.222 189.55 202.534 189.996 203.712 190.699C204.889 191.402 205.904 192.346 206.69 193.47C210.6 199.98 210.88 205.2 213.98 212.04L235.48 208.58Z" fill="#407BFF"/>
<g opacity="0.6">
<path d="M235.48 208.58C236.61 209.34 238.61 215.91 235.29 216.87C231.95 218.23 217.23 223.47 209.92 222.29C208 221.99 206.14 221.35 205.05 219.74C200.013 212.395 196.961 203.872 196.19 195C196 192.81 196.33 190 199.86 189.39C201.222 189.55 202.534 189.996 203.712 190.699C204.889 191.402 205.904 192.346 206.69 193.47C210.6 199.98 210.88 205.2 213.98 212.04L235.48 208.58Z" fill="black"/>
</g>
<path d="M233 165.32C232.325 165.312 231.673 165.077 231.149 164.652C230.624 164.227 230.258 163.639 230.11 162.98L229.36 159.54L236.36 158.82V162.34C236.348 163.068 236.071 163.767 235.582 164.306C235.092 164.845 234.423 165.188 233.7 165.27H233.35L233 165.32ZM230.62 160.46L231.12 162.76C231.219 163.225 231.486 163.636 231.87 163.915C232.254 164.194 232.728 164.32 233.2 164.27H233.55C234.023 164.221 234.461 163.999 234.78 163.646C235.1 163.294 235.278 162.836 235.28 162.36V160L230.62 160.46Z" fill="#407BFF"/>
<path d="M226.06 166C225.384 165.994 224.729 165.76 224.203 165.335C223.676 164.91 223.309 164.32 223.16 163.66L222.42 160.22L229.42 159.5V163.02C229.408 163.748 229.131 164.447 228.642 164.986C228.152 165.525 227.483 165.868 226.76 165.95H226.41L226.06 166ZM223.68 161.13L224.18 163.44C224.281 163.903 224.548 164.313 224.932 164.592C225.316 164.87 225.788 164.998 226.26 164.95H226.61C227.081 164.901 227.518 164.68 227.837 164.33C228.156 163.979 228.335 163.524 228.34 163.05V160.69L223.68 161.13Z" fill="#407BFF"/>
<path d="M230.464 159.418L228.106 159.663L228.214 160.697L230.571 160.452L230.464 159.418Z" fill="#407BFF"/>
<path d="M214.57 163.49L214.28 162.5L220.79 160.56L223.29 160.17L223.44 161.19L221.02 161.56L214.57 163.49Z" fill="#407BFF"/>
<path d="M234.29 158C235.53 157.9 236.29 156.15 235.76 155C235.23 153.85 234.56 153.17 234.1 152.11C233.484 150.543 232.689 149.053 231.73 147.67C230.767 146.281 229.354 145.267 227.73 144.8C226.1 144.41 224.89 145.5 223.47 146.41C222.035 147.185 220.462 147.671 218.84 147.84C217.217 148.004 215.65 148.523 214.25 149.36C213.564 149.796 213.028 150.431 212.711 151.179C212.395 151.928 212.315 152.755 212.48 153.55C223.37 150.62 220.32 159.25 234.29 158Z" fill="#263238"/>
<path d="M257.93 177C257.93 175.74 257.93 174.48 258 173.23C258 172.78 258 172.23 257.62 172.02C257.24 171.81 256.5 172.02 256.28 172.55C256.06 173.08 255.57 177.23 255.5 177.86C256.08 178.53 257.92 177.87 257.93 177Z" fill="#FFC3BD"/>
<path d="M210 160.521C209.364 159.585 209.037 158.472 209.068 157.341C209.098 156.209 209.483 155.116 210.168 154.215C210.853 153.314 211.804 152.651 212.887 152.32C213.969 151.99 215.128 152.007 216.2 152.371C218.34 153.101 220.59 152.111 222.83 151.811C221.3 153.441 221.39 159.111 221.04 159.481C220.663 159.823 220.206 160.064 219.71 160.181C216.72 161.121 213 161.001 210 160.521Z" fill="#263238"/>
<path d="M179.17 84.74C178.825 84.7814 178.477 84.7051 178.181 84.5236C177.885 84.3421 177.659 84.0659 177.54 83.74L171.48 68.82C171.403 68.6309 171.364 68.4285 171.366 68.2244C171.367 68.0203 171.409 67.8184 171.488 67.6304C171.568 67.4423 171.683 67.2718 171.828 67.1284C171.974 66.9851 172.146 66.8718 172.335 66.795C172.524 66.7181 172.726 66.6793 172.931 66.6807C173.135 66.6821 173.337 66.7237 173.525 66.8031C173.713 66.8825 173.883 66.9981 174.027 67.1434C174.17 67.2887 174.283 67.4609 174.36 67.65L180.42 82.57C180.566 82.9484 180.559 83.3689 180.401 83.7423C180.242 84.1157 179.944 84.4126 179.57 84.57C179.446 84.6461 179.311 84.7034 179.17 84.74Z" fill="#407BFF"/>
<path d="M228.51 126C228.238 126.033 227.963 125.995 227.71 125.89L212.53 119.48C212.173 119.304 211.897 118.999 211.758 118.626C211.618 118.253 211.627 117.841 211.782 117.474C211.936 117.108 212.225 116.814 212.589 116.653C212.953 116.493 213.365 116.477 213.74 116.61L228.92 123C229.243 123.129 229.515 123.363 229.69 123.663C229.865 123.964 229.935 124.315 229.888 124.66C229.841 125.005 229.679 125.325 229.43 125.568C229.18 125.81 228.856 125.963 228.51 126Z" fill="#407BFF"/>
<path d="M164.36 98.9105C164.088 98.9432 163.813 98.9054 163.56 98.8005L149 92.6605C148.621 92.5 148.321 92.1954 148.166 91.8138C148.011 91.4322 148.015 91.0047 148.175 90.6254C148.335 90.2462 148.64 89.9462 149.022 89.7915C149.403 89.6368 149.831 89.64 150.21 89.8005L164.73 95.9304C165.053 96.0594 165.325 96.293 165.5 96.5939C165.675 96.8947 165.745 97.2457 165.698 97.5907C165.651 97.9358 165.489 98.2552 165.24 98.4979C164.99 98.7407 164.666 98.893 164.32 98.9304L164.36 98.9105Z" fill="#407BFF"/>
<path d="M213.36 99.5599C212.964 99.6573 212.546 99.595 212.196 99.3863C211.846 99.1776 211.592 98.8394 211.489 98.4449C211.387 98.0504 211.444 97.6313 211.648 97.2785C211.852 96.9257 212.187 96.6675 212.58 96.5599L228 90.3399C228.189 90.263 228.391 90.2242 228.596 90.2256C228.8 90.227 229.002 90.2686 229.19 90.348C229.378 90.4274 229.548 90.543 229.691 90.6883C229.835 90.8337 229.948 91.0058 230.025 91.1949C230.102 91.384 230.141 91.5864 230.139 91.7905C230.138 91.9946 230.096 92.1964 230.017 92.3845C229.937 92.5725 229.822 92.7431 229.677 92.8864C229.531 93.0297 229.359 93.1431 229.17 93.2199L213.79 99.4599C213.653 99.5157 213.508 99.5495 213.36 99.5599Z" fill="#407BFF"/>
<path d="M149.61 125.45C149.232 125.5 148.849 125.409 148.533 125.196C148.218 124.982 147.991 124.66 147.896 124.291C147.801 123.922 147.845 123.531 148.019 123.192C148.193 122.852 148.485 122.589 148.84 122.45L163.3 116.58C163.489 116.503 163.691 116.464 163.896 116.466C164.1 116.467 164.302 116.509 164.49 116.588C164.678 116.668 164.848 116.783 164.992 116.929C165.135 117.074 165.248 117.246 165.325 117.435C165.402 117.624 165.441 117.827 165.439 118.031C165.438 118.235 165.396 118.437 165.317 118.625C165.237 118.813 165.122 118.983 164.977 119.127C164.831 119.27 164.659 119.383 164.47 119.46L150 125.34C149.876 125.395 149.745 125.433 149.61 125.45Z" fill="#407BFF"/>
<path d="M199.39 85.2004C199.118 85.2375 198.842 85.1995 198.59 85.0904C198.218 84.9314 197.924 84.6326 197.77 84.2584C197.617 83.8842 197.617 83.4646 197.77 83.0904L204.17 67.9404C204.225 67.7243 204.325 67.5225 204.465 67.3487C204.604 67.175 204.78 67.0334 204.979 66.9336C205.178 66.8338 205.396 66.7782 205.619 66.7705C205.842 66.7627 206.064 66.8031 206.269 66.8889C206.475 66.9747 206.66 67.1038 206.811 67.2674C206.962 67.4311 207.077 67.6255 207.146 67.8372C207.215 68.049 207.238 68.2733 207.213 68.4947C207.188 68.7162 207.115 68.9296 207 69.1204L200.6 84.2704C200.497 84.5177 200.332 84.7338 200.119 84.897C199.907 85.0602 199.655 85.1648 199.39 85.2004Z" fill="#407BFF"/>
<path d="M172.56 148.73C172.287 148.76 172.012 148.718 171.76 148.61C171.388 148.451 171.093 148.152 170.938 147.779C170.783 147.405 170.78 146.985 170.93 146.61L177.07 132C177.246 131.643 177.551 131.366 177.924 131.227C178.297 131.088 178.709 131.097 179.076 131.251C179.442 131.406 179.736 131.695 179.897 132.059C180.057 132.423 180.073 132.835 179.94 133.21L173.8 147.75C173.698 148.008 173.529 148.234 173.311 148.406C173.094 148.578 172.835 148.69 172.56 148.73Z" fill="#407BFF"/>
<path d="M207.22 100.52C205.145 95.6679 201.243 91.8284 196.359 89.8322C191.474 87.8361 186 87.844 181.121 89.8542C176.242 91.8644 172.351 95.7151 170.29 100.573C168.229 105.431 168.165 110.905 170.11 115.81C173.17 123.24 181.11 125.81 187.32 130.18C189.23 131.53 191.91 138.4 191.91 138.4L207.65 131.92C207.65 131.92 204.72 125.15 205.12 122.85C206.44 115.43 210.28 108 207.22 100.52Z" fill="#DCE521"/>
<path opacity="0.5" d="M207.22 100.52C205.145 95.6679 201.243 91.8284 196.359 89.8322C191.474 87.8361 186 87.844 181.121 89.8542C176.242 91.8644 172.351 95.7151 170.29 100.573C168.229 105.431 168.165 110.905 170.11 115.81C173.17 123.24 181.11 125.81 187.32 130.18C189.23 131.53 191.91 138.4 191.91 138.4L207.65 131.92C207.65 131.92 204.72 125.15 205.12 122.85C206.44 115.43 210.28 108 207.22 100.52Z" fill="white"/>
<path d="M205.43 139.34L198.71 142.11C197.512 142.6 196.169 142.594 194.975 142.096C193.782 141.597 192.834 140.646 192.34 139.45L208.08 133C208.564 134.193 208.556 135.528 208.06 136.715C207.564 137.903 206.618 138.846 205.43 139.34Z" fill="#263238"/>
<path d="M204 145.46C203.023 145.854 201.931 145.848 200.959 145.442C199.987 145.035 199.215 144.262 198.81 143.29L206.17 140.29C206.558 141.264 206.548 142.352 206.142 143.319C205.737 144.286 204.967 145.055 204 145.46Z" fill="#263238"/>
<path opacity="0.5" d="M204 145.46C203.023 145.854 201.931 145.848 200.959 145.442C199.987 145.035 199.215 144.262 198.81 143.29L206.17 140.29C206.558 141.264 206.548 142.352 206.142 143.319C205.737 144.286 204.967 145.055 204 145.46Z" fill="white"/>
<g opacity="0.7">
<path d="M205.43 139.34L198.71 142.11C197.512 142.6 196.169 142.594 194.975 142.096C193.782 141.597 192.834 140.646 192.34 139.45L208.08 133C208.564 134.193 208.556 135.528 208.06 136.715C207.564 137.903 206.618 138.846 205.43 139.34Z" fill="white"/>
</g>
<path opacity="0.3" d="M203.62 98.0001C208.37 109.7 206.43 125.94 197.39 129.62C188.35 133.3 174.99 121.43 170.88 111.29C168.34 105.05 173.62 97.0101 182.66 93.2901C191.7 89.5701 201.09 91.7401 203.62 98.0001Z" fill="white"/>
<path opacity="0.4" d="M202.48 111.72C203.328 113.805 203.538 116.095 203.084 118.3C202.63 120.505 201.532 122.525 199.93 124.106C198.327 125.687 196.292 126.757 194.081 127.181C191.87 127.605 189.583 127.364 187.51 126.488C185.436 125.612 183.669 124.141 182.431 122.261C181.194 120.38 180.542 118.175 180.558 115.924C180.574 113.673 181.257 111.477 182.522 109.614C183.786 107.752 185.574 106.306 187.66 105.46C189.044 104.897 190.525 104.612 192.02 104.622C193.514 104.632 194.991 104.937 196.367 105.518C197.744 106.1 198.992 106.946 200.041 108.011C201.09 109.075 201.919 110.335 202.48 111.72Z" fill="white"/>
<path opacity="0.4" d="M200.35 115.69C202.01 119.78 199.2 122.37 195.11 124.03C191.02 125.69 187.2 125.79 185.54 121.7C183.88 117.61 186.71 115.08 190.8 113.42C194.89 111.76 198.68 111.6 200.35 115.69Z" fill="white"/>
<path d="M188 117.134L187.066 117.592L196.385 136.589L197.319 136.131L188 117.134Z" fill="#407BFF"/>
<path d="M196.56 113.732L195.571 114.055L202.135 134.171L203.123 133.848L196.56 113.732Z" fill="#407BFF"/>
<path d="M195 123.45L189.14 120.97L189.54 120.02L194.45 122.09L196.49 117.27L197.44 117.67L195 123.45Z" fill="#407BFF"/>
<path d="M195 177.93C194.607 177.93 194.231 177.774 193.953 177.496C193.676 177.219 193.52 176.842 193.52 176.45V167.26C193.52 166.862 193.678 166.48 193.959 166.199C194.241 165.918 194.622 165.76 195.02 165.76C195.418 165.76 195.799 165.918 196.081 166.199C196.362 166.48 196.52 166.862 196.52 167.26V176.45C196.519 176.647 196.478 176.842 196.401 177.024C196.324 177.205 196.211 177.37 196.069 177.508C195.928 177.645 195.761 177.754 195.577 177.826C195.393 177.898 195.197 177.934 195 177.93Z" fill="#407BFF"/>
<path d="M199.61 173.34H190.42C190.022 173.34 189.641 173.182 189.359 172.901C189.078 172.619 188.92 172.238 188.92 171.84C188.92 171.442 189.078 171.06 189.359 170.779C189.641 170.498 190.022 170.34 190.42 170.34H199.61C200.008 170.34 200.389 170.498 200.671 170.779C200.952 171.06 201.11 171.442 201.11 171.84C201.11 172.238 200.952 172.619 200.671 172.901C200.389 173.182 200.008 173.34 199.61 173.34Z" fill="#407BFF"/>
<g opacity="0.5">
<path d="M195 177.93C194.607 177.93 194.231 177.774 193.953 177.496C193.676 177.219 193.52 176.842 193.52 176.45V167.26C193.52 166.862 193.678 166.48 193.959 166.199C194.241 165.918 194.622 165.76 195.02 165.76C195.418 165.76 195.799 165.918 196.081 166.199C196.362 166.48 196.52 166.862 196.52 167.26V176.45C196.519 176.647 196.478 176.842 196.401 177.024C196.324 177.205 196.211 177.37 196.069 177.508C195.928 177.645 195.761 177.754 195.577 177.826C195.393 177.898 195.197 177.934 195 177.93Z" fill="white"/>
<path d="M199.61 173.34H190.42C190.022 173.34 189.641 173.182 189.359 172.901C189.078 172.619 188.92 172.238 188.92 171.84C188.92 171.442 189.078 171.06 189.359 170.779C189.641 170.498 190.022 170.34 190.42 170.34H199.61C200.008 170.34 200.389 170.498 200.671 170.779C200.952 171.06 201.11 171.442 201.11 171.84C201.11 172.238 200.952 172.619 200.671 172.901C200.389 173.182 200.008 173.34 199.61 173.34Z" fill="white"/>
</g>
<path d="M251.66 155.08C251.045 155.08 250.455 154.836 250.019 154.401C249.584 153.966 249.34 153.376 249.34 152.76V138.44C249.379 137.853 249.639 137.302 250.069 136.899C250.499 136.496 251.066 136.272 251.655 136.272C252.244 136.272 252.811 136.496 253.241 136.899C253.671 137.302 253.931 137.853 253.97 138.44V152.76C253.971 153.064 253.913 153.366 253.797 153.647C253.682 153.929 253.512 154.185 253.297 154.4C253.082 154.616 252.827 154.787 252.546 154.903C252.265 155.02 251.964 155.08 251.66 155.08Z" fill="#407BFF"/>
<path d="M258.82 147.92H244.5C244.183 147.941 243.865 147.897 243.567 147.79C243.268 147.683 242.994 147.516 242.762 147.299C242.53 147.082 242.346 146.819 242.219 146.528C242.093 146.237 242.028 145.923 242.028 145.605C242.028 145.288 242.093 144.974 242.219 144.682C242.346 144.391 242.53 144.129 242.762 143.912C242.994 143.695 243.268 143.528 243.567 143.421C243.865 143.314 244.183 143.269 244.5 143.29H258.82C259.408 143.329 259.959 143.59 260.361 144.019C260.764 144.449 260.988 145.016 260.988 145.605C260.988 146.194 260.764 146.761 260.361 147.191C259.959 147.621 259.408 147.882 258.82 147.92Z" fill="#407BFF"/>
<g opacity="0.5">
<path d="M251.66 155.08C251.045 155.08 250.455 154.836 250.02 154.401C249.584 153.966 249.34 153.376 249.34 152.76V138.44C249.379 137.853 249.639 137.302 250.069 136.899C250.499 136.496 251.066 136.272 251.655 136.272C252.244 136.272 252.811 136.496 253.241 136.899C253.671 137.302 253.931 137.853 253.97 138.44V152.76C253.971 153.064 253.913 153.366 253.797 153.647C253.682 153.929 253.512 154.185 253.297 154.4C253.082 154.616 252.827 154.787 252.546 154.903C252.265 155.02 251.964 155.08 251.66 155.08Z" fill="white"/>
<path d="M258.82 147.92H244.5C244.183 147.941 243.865 147.897 243.567 147.79C243.268 147.683 242.994 147.516 242.762 147.299C242.53 147.082 242.346 146.819 242.219 146.528C242.093 146.237 242.028 145.923 242.028 145.605C242.028 145.288 242.093 144.974 242.219 144.682C242.346 144.391 242.53 144.129 242.762 143.912C242.994 143.695 243.268 143.528 243.567 143.421C243.865 143.314 244.183 143.269 244.5 143.29H258.82C259.408 143.329 259.959 143.59 260.361 144.019C260.764 144.449 260.988 145.016 260.988 145.605C260.988 146.194 260.764 146.761 260.361 147.191C259.959 147.621 259.408 147.882 258.82 147.92Z" fill="white"/>
</g>
</svg>
