<svg width="319" height="572" viewBox="0 0 319 572" fill="none" xmlns="http://www.w3.org/2000/svg">
<path d="M142.173 555.174C145.404 556.222 237.292 555.029 240.755 552.758C242.094 551.914 242.706 538.522 242.968 522.307V521.827C242.968 518.479 243.084 515.044 243.084 511.551C243.084 511.07 243.084 510.59 243.084 510.095L238.631 462.41L177.159 463.036L183.227 510.27V512.133L183.606 521.914V522.919C183.606 522.919 148.678 539.119 145.084 542.016C141.489 544.913 138.942 554.155 142.173 555.174Z" fill="#D3766A"/>
<path d="M142.173 555.174C145.404 556.222 237.292 555.028 240.755 552.757C242.094 551.913 242.706 538.522 242.968 522.307V521.826C242.968 518.478 243.084 515.043 243.084 511.55C243.084 511.069 243.084 510.589 243.084 510.094L183.227 510.269V512.132L183.606 521.914V522.918C183.606 522.918 148.678 539.119 145.084 542.015C141.489 544.912 138.942 554.155 142.173 555.174Z" fill="#EBEBEB"/>
<path d="M141.56 555.42C144.835 556.468 237.974 555.216 241.496 552.931C242.849 552.072 243.461 538.492 243.723 522.058L183.677 522.684C183.677 522.684 148.211 539.118 144.631 542.043C141.051 544.969 138.3 554.372 141.56 555.42Z" fill="#455A64"/>
<path d="M198.084 555.304C219.841 554.809 239.91 553.979 241.496 552.931C242.835 552.058 243.461 538.492 243.723 522.058L230.159 522.204L198.084 555.304Z" fill="#37474F"/>
<path d="M142.855 551.666C158.456 551.083 221.442 550.21 236.941 550.778C237.072 550.778 237.072 550.865 236.941 550.865C221.471 551.797 158.456 552.19 142.841 551.928C142.521 551.928 142.521 551.68 142.855 551.666Z" fill="#263238"/>
<path d="M150.567 538.609C152.304 538.539 154.038 538.831 155.656 539.468C157.275 540.104 158.743 541.071 159.968 542.306C162.186 544.502 163.474 547.468 163.562 550.588C163.562 550.69 163.388 550.69 163.373 550.588C162.791 547.508 161.23 544.698 158.923 542.576C156.615 540.454 153.684 539.134 150.567 538.813C150.54 538.813 150.514 538.802 150.495 538.783C150.475 538.764 150.465 538.738 150.465 538.711C150.465 538.684 150.475 538.658 150.495 538.639C150.514 538.62 150.54 538.609 150.567 538.609Z" fill="#263238"/>
<path d="M177.636 524.315C183.879 524.155 191.156 526.266 195.1 531.316C195.245 531.52 194.969 531.724 194.78 531.637C189.276 528.845 183.49 526.65 177.52 525.087C177.427 525.061 177.348 525.002 177.295 524.922C177.243 524.841 177.222 524.744 177.237 524.649C177.251 524.554 177.299 524.468 177.373 524.406C177.447 524.345 177.54 524.312 177.636 524.315Z" fill="#263238"/>
<path d="M172.837 526.265C179.081 526.09 186.357 528.201 190.301 533.266C190.447 533.455 190.17 533.674 189.981 533.586C184.477 530.795 178.691 528.599 172.721 527.036C172.629 527.011 172.549 526.952 172.497 526.871C172.444 526.791 172.423 526.694 172.438 526.599C172.452 526.504 172.501 526.418 172.574 526.356C172.648 526.295 172.741 526.262 172.837 526.265Z" fill="#263238"/>
<path d="M168.031 528.216C174.289 528.041 181.551 530.151 185.494 535.217C185.64 535.406 185.363 535.624 185.174 535.523C179.654 532.726 173.847 530.535 167.856 528.987C167.754 528.964 167.665 528.901 167.609 528.812C167.553 528.724 167.535 528.616 167.558 528.514C167.581 528.412 167.644 528.323 167.732 528.267C167.821 528.211 167.928 528.192 168.031 528.216Z" fill="#263238"/>
<path d="M163.234 530.152C169.492 529.991 176.768 532.102 180.698 537.153C180.858 537.357 180.567 537.56 180.392 537.473C174.888 534.682 169.102 532.486 163.132 530.923C163.041 530.897 162.962 530.84 162.91 530.761C162.858 530.682 162.836 530.587 162.848 530.493C162.861 530.399 162.907 530.313 162.977 530.25C163.048 530.188 163.139 530.152 163.234 530.152Z" fill="#263238"/>
<path d="M232.782 535.989C239.782 535.916 239.913 546.819 232.883 546.891C225.854 546.964 225.752 536.062 232.782 535.989Z" fill="#263238"/>
<path d="M179.648 522.102H245.82C245.82 522.102 232.504 367.49 233.014 364.798C233.683 361.333 237.583 345.686 242.793 325.25C244.423 318.845 246.184 311.989 248.003 304.871C252.937 285.643 258.38 264.625 263.124 246.328C270.226 218.919 275.785 197.639 275.785 197.639H219.698C219.698 197.639 213.163 218.366 204.926 245.324C191.494 289.151 173.55 349.47 171.789 364.143C168.922 387.81 179.648 522.102 179.648 522.102Z" fill="#172932"/>
<path d="M182.574 510.806C192.688 510.603 189.777 510.515 199.892 510.413C204.84 510.413 237.351 510.093 241.965 510.85C241.992 510.85 242.017 510.861 242.037 510.88C242.056 510.899 242.066 510.925 242.066 510.952C242.066 510.979 242.056 511.005 242.037 511.024C242.017 511.043 241.992 511.054 241.965 511.054C237.351 511.825 204.84 511.549 199.892 511.491C189.777 511.403 192.688 511.316 182.574 511.098C182.535 511.098 182.498 511.082 182.471 511.055C182.443 511.028 182.428 510.991 182.428 510.952C182.428 510.913 182.443 510.876 182.471 510.849C182.498 510.822 182.535 510.806 182.574 510.806Z" fill="#37474F"/>
<path d="M220.569 355.351C222.737 345.773 225.983 336.428 228.806 327.011C234.54 307.923 240.308 288.85 246.11 269.792C249.02 260.263 251.931 250.733 254.841 241.204C256.297 236.386 257.752 231.583 259.309 226.779C260.866 221.976 262.453 217.42 263.792 212.675C264.33 210.753 264.621 211.816 263.923 214.261C262.54 219.196 261.157 224.145 259.717 229.065C256.864 238.769 253.997 248.516 251.116 258.307C245.363 277.715 239.575 297.094 233.754 316.443C230.843 326.147 227.933 335.851 225.022 345.555C223.538 350.173 222.342 354.878 221.442 359.645C220.659 364.626 220.464 369.683 220.86 374.71C221.486 384.899 222.665 394.957 223.596 405.059C224.527 415.161 225.473 425.306 226.405 435.437C228.268 455.582 230.116 475.732 231.949 495.887C232.182 498.449 232.401 500.996 232.604 503.558C232.604 504.417 231.367 504.344 231.28 503.558C229.097 483.631 227.438 463.632 225.561 443.676C223.683 423.72 221.835 403.967 219.987 384.113C219.521 379.121 218.983 374.128 218.983 369.121C218.993 364.486 219.525 359.867 220.569 355.351Z" fill="#37474F"/>
<path d="M226.073 197.638C229.973 227.769 237.395 284.26 242.809 325.249C255.456 275.585 275.801 197.638 275.801 197.638H226.073Z" fill="#37474F"/>
<path d="M212.285 556.062C215.502 557.124 307.404 556.266 310.868 554.009C312.207 553.165 312.861 539.774 313.196 523.559V523.049C313.196 519.701 313.327 516.266 313.342 512.773C313.342 512.293 313.342 511.812 313.342 511.317C313.56 487.926 311.886 463.647 311.886 463.647L251.811 464.025L253.485 511.274L253.572 513.093L253.907 522.875V523.879C253.907 523.879 218.878 539.89 215.312 542.801C211.747 545.713 209.055 555.028 212.285 556.062Z" fill="#D3766A"/>
<path d="M212.287 556.06C215.504 557.123 307.406 556.264 310.87 554.008C312.209 553.164 312.863 539.773 313.198 523.557V523.048C313.198 519.7 313.329 516.265 313.344 512.771C313.344 512.291 313.344 511.811 313.344 511.316H253.473L253.574 513.092L253.909 522.873V523.878C253.909 523.878 218.88 539.889 215.314 542.8C211.749 545.711 209.057 555.027 212.287 556.06Z" fill="#EBEBEB"/>
<path d="M211.211 556.382C214.485 557.43 307.625 556.193 311.146 553.908C312.485 553.034 313.097 539.454 313.373 523.035L253.313 523.661C253.313 523.661 217.861 540.08 214.267 543.02C210.672 545.96 207.936 555.305 211.211 556.382Z" fill="#455A64"/>
<path d="M212.491 552.64C228.107 552.043 291.078 551.184 306.591 551.738C306.722 551.738 306.722 551.839 306.591 551.839C291.136 552.756 228.121 553.164 212.506 552.902C212.171 552.887 212.171 552.655 212.491 552.64Z" fill="#263238"/>
<path d="M220.248 539.584C221.982 539.516 223.712 539.808 225.327 540.442C226.943 541.076 228.41 542.038 229.635 543.267C231.855 545.469 233.146 548.438 233.244 551.564C233.244 551.651 233.07 551.666 233.055 551.564C232.476 548.481 230.916 545.667 228.608 543.543C226.3 541.418 223.368 540.096 220.248 539.774C220.233 539.78 220.216 539.782 220.2 539.78C220.183 539.778 220.167 539.773 220.153 539.763C220.14 539.754 220.128 539.741 220.12 539.727C220.113 539.712 220.109 539.696 220.109 539.679C220.109 539.662 220.113 539.646 220.12 539.631C220.128 539.617 220.14 539.604 220.153 539.595C220.167 539.585 220.183 539.579 220.2 539.578C220.216 539.576 220.233 539.578 220.248 539.584Z" fill="#263238"/>
<path d="M247.273 525.291C253.531 525.116 260.807 527.227 264.737 532.292C264.897 532.481 264.606 532.7 264.431 532.612C258.93 529.815 253.143 527.619 247.171 526.062C247.08 526.037 247.001 525.979 246.949 525.9C246.897 525.821 246.875 525.726 246.888 525.632C246.9 525.538 246.946 525.452 247.017 525.39C247.087 525.327 247.178 525.292 247.273 525.291Z" fill="#263238"/>
<path d="M242.488 527.24C248.732 527.066 256.008 529.176 259.952 534.242C260.112 534.431 259.836 534.649 259.646 534.547C254.145 531.755 248.358 529.564 242.387 528.012C242.295 527.986 242.217 527.929 242.164 527.85C242.112 527.771 242.09 527.676 242.103 527.582C242.115 527.488 242.161 527.402 242.232 527.339C242.303 527.276 242.394 527.241 242.488 527.24Z" fill="#263238"/>
<path d="M237.712 529.177C243.956 529.017 251.232 531.128 255.176 536.179C255.322 536.383 255.045 536.586 254.856 536.499C249.352 533.708 243.566 531.512 237.596 529.949C237.504 529.923 237.424 529.864 237.372 529.784C237.319 529.703 237.298 529.606 237.313 529.512C237.327 529.417 237.376 529.33 237.449 529.269C237.523 529.207 237.616 529.175 237.712 529.177Z" fill="#263238"/>
<path d="M232.882 531.127C239.126 530.952 246.402 533.063 250.346 538.129C250.491 538.318 250.215 538.536 250.026 538.449C244.525 535.651 238.738 533.455 232.766 531.899C232.673 531.873 232.594 531.814 232.541 531.734C232.489 531.653 232.468 531.556 232.483 531.461C232.497 531.366 232.546 531.28 232.619 531.218C232.693 531.157 232.786 531.124 232.882 531.127Z" fill="#263238"/>
<path d="M221.5 197.639C221.5 197.639 222.795 224.48 228.936 245.673C229.431 247.434 229.97 249.167 230.537 250.826C236.171 253.094 241.583 255.876 246.706 259.137C246.706 259.137 247.361 280.724 248.001 304.814C248.714 331.742 249.456 361.77 249.311 368.146C248.743 391.974 252.294 523.02 252.294 523.02L318.467 523.282C318.467 523.282 306.504 376.938 306.577 368.219C306.708 354.187 303.375 292.164 300.756 246.925C299.184 219.065 297.845 197.581 297.845 197.581L221.5 197.639Z" fill="#172932"/>
<path d="M254.566 511.303C264.666 511.128 261.769 511.041 271.869 510.982C276.817 510.982 309.329 510.808 313.957 511.594C313.984 511.594 314.01 511.604 314.029 511.624C314.048 511.643 314.059 511.669 314.059 511.696C314.059 511.723 314.048 511.749 314.029 511.768C314.01 511.787 313.984 511.797 313.957 511.797C309.343 512.554 276.832 512.132 271.884 512.06C261.769 511.914 264.68 511.856 254.58 511.594C254.561 511.595 254.542 511.592 254.524 511.585C254.506 511.579 254.489 511.569 254.475 511.556C254.461 511.543 254.45 511.528 254.441 511.511C254.433 511.493 254.428 511.475 254.427 511.455C254.427 511.436 254.429 511.417 254.436 511.399C254.442 511.381 254.452 511.365 254.465 511.35C254.478 511.336 254.493 511.325 254.511 511.316C254.528 511.308 254.547 511.304 254.566 511.303Z" fill="#37474F"/>
<path d="M292.375 207.232C293.598 244.145 294.893 281.073 296.537 317.987C298.182 354.9 300.423 392.032 303.523 428.975C305.255 449.615 306.885 478.654 309.111 499.25C309.111 499.381 308.922 499.44 308.893 499.25C304.076 462.628 301.398 417.33 299.026 380.475C296.654 343.62 295.053 306.706 293.802 269.851C293.088 248.978 292.535 228.09 291.924 207.261C291.91 206.911 292.375 206.926 292.375 207.232Z" fill="#37474F"/>
<path d="M227.785 249.283C234.369 252.027 240.7 255.344 246.704 259.195C246.753 259.222 246.79 259.267 246.808 259.32C246.825 259.374 246.821 259.432 246.797 259.482C246.772 259.533 246.73 259.572 246.677 259.592C246.624 259.612 246.566 259.61 246.515 259.588C240.126 256.474 233.606 253.49 227.407 250.04C227.306 249.99 227.23 249.902 227.194 249.795C227.159 249.689 227.167 249.573 227.217 249.472C227.268 249.372 227.356 249.295 227.462 249.26C227.568 249.225 227.685 249.233 227.785 249.283Z" fill="#37474F"/>
<path d="M227.425 226.503C227.862 228.861 228.43 231.19 228.881 233.534C229.332 235.877 229.71 237.9 230.336 240.127C230.803 242.23 231.869 244.151 233.407 245.659C234.265 246.459 235.211 247.114 236.128 247.9C236.623 248.293 237.161 248.672 237.671 249.079L237.496 248.133C237.336 247.245 237.191 246.343 237.045 245.455C236.71 243.475 236.39 241.481 236.084 239.501C235.488 235.6 234.935 231.656 234.134 227.857C234.134 227.711 234.338 227.638 234.367 227.857C235.342 231.685 236.419 235.484 237.278 239.341C237.7 241.234 239.17 250.578 239.243 251.248C239.315 251.918 239.359 252.616 239.388 253.3C239.483 253.996 239.483 254.701 239.388 255.396C239.374 255.428 239.352 255.454 239.324 255.473C239.295 255.491 239.262 255.501 239.228 255.501C239.194 255.501 239.161 255.491 239.132 255.473C239.104 255.454 239.081 255.428 239.068 255.396C238.782 254.746 238.581 254.061 238.471 253.359C238.297 252.689 238.151 252.019 238.02 251.335C238.02 251.088 237.947 250.84 237.918 250.593C236.987 250.025 236.143 249.297 235.27 248.672C234.396 248.046 233.407 247.347 232.519 246.605C230.901 245.229 229.734 243.398 229.172 241.35C228.6 239.152 228.229 236.906 228.066 234.64C227.775 231.976 227.556 229.312 227.178 226.663C227.163 226.416 227.396 226.343 227.425 226.503Z" fill="#37474F"/>
<path d="M243.454 127.247C231.812 163.069 217.783 196.853 205.427 199.589C203.288 200.055 191.107 200.259 186.203 192.748C177.951 180.084 167.735 153.782 164.751 140.944C163.427 135.252 201.061 122.953 203.259 128.804C206.329 136.999 207.421 143.622 208.309 143.36C209.764 142.938 216.749 131.715 229.949 116.723C248.097 96.1554 247.34 115.369 243.454 127.247Z" fill="#EAB9B2"/>
<path d="M156.537 126.403C158.88 134.321 170.013 148.659 174.001 151.075C177.988 153.491 203.005 135.398 203.107 130.58C203.209 125.762 193.312 99.7074 186.4 94.8894C179.487 90.0714 154.121 118.193 156.537 126.403Z" fill="#EAB9B2"/>
<path d="M202.245 125.908C202.876 119.258 204.474 112.736 206.989 106.549C210.234 99.2706 215.881 88.8632 212.039 86.971C204.166 83.0846 190.078 109.067 190.078 109.067C190.078 109.067 185.713 121.541 193.178 126.082C194.561 126.886 196.137 127.295 197.736 127.265C199.335 127.234 200.894 126.764 202.245 125.908Z" fill="#EAB9B2"/>
<path d="M178.789 122.778L167.961 119.168L178.454 87.7861L192.148 92.3712L178.789 122.778Z" fill="#FFC727"/>
<path d="M192.148 92.3712L187.055 103.972L178.789 122.793L167.961 119.168L178.454 87.7861L192.148 92.3712Z" fill="#FFC727"/>
<path opacity="0.1" d="M192.148 92.3712L187.055 103.972L174.452 99.751L178.454 87.7861L192.148 92.3712Z" fill="black"/>
<path d="M191.897 97.4229L174.838 91.7173L179.172 78.7549L196.231 84.4606L191.897 97.4229Z" fill="#FFC727"/>
<path d="M209.219 83.5656L195.524 80.4652L202.539 59.4902L215.346 65.2398L209.219 83.5656Z" fill="#FFC727"/>
<path d="M197.107 53.0563L186.76 84.0019L163.65 79.2276L105.612 80.9598L130.454 6.65234L175.773 42.9691L197.107 53.0563Z" fill="#FFC727"/>
<path d="M104.352 80.7559C97.7277 78.5404 97.9474 60.0263 104.842 39.4034C111.737 18.7806 122.697 3.85847 129.321 6.07395C135.945 8.28944 135.725 26.8036 128.83 47.4264C121.935 68.0493 110.976 82.9714 104.352 80.7559Z" fill="#FFC727"/>
<path opacity="0.2" d="M126.25 45.8506C120.123 64.1619 110.766 77.5386 105.337 75.7192C99.9091 73.8997 100.477 57.5972 106.604 39.3296C112.73 21.0621 122.073 7.59797 127.502 9.46112C132.93 11.3243 132.362 27.5394 126.25 45.8506Z" fill="black"/>
<path d="M124.649 45.3124C123.834 47.7432 122.961 50.1013 122.044 52.3283C120.66 52.8615 119.152 52.9888 117.698 52.6954C116.244 52.402 114.904 51.7 113.835 50.6718C112.765 49.6435 112.011 48.3317 111.661 46.89C111.311 45.4483 111.379 43.9367 111.857 42.5323L113.021 39.0243C113.487 37.6285 114.338 36.3926 115.475 35.4587C116.612 34.5248 117.989 33.931 119.449 33.7455C120.908 33.56 122.391 33.7903 123.725 34.41C125.06 35.0297 126.192 36.0136 126.992 37.2485C126.342 39.8685 125.561 42.5565 124.649 45.3124Z" fill="#FFC727"/>
<path d="M198.19 89.7226L171.718 83.7256L185.267 43.1731L210.021 54.3083L198.19 89.7226Z" fill="#FFC727"/>
<path opacity="0.2" d="M198.19 89.7226L171.718 83.7256L185.267 43.1731L210.021 54.3083L198.19 89.7226Z" fill="black"/>
<path opacity="0.2" d="M132.235 12.9106C133.241 15.7106 133.734 18.6691 133.691 21.6441C133.715 24.6011 133.506 27.5555 133.065 30.4795C132.89 31.9351 132.585 33.3907 132.323 34.8463C132.061 36.3018 131.682 37.7574 131.319 39.213C130.955 40.6686 130.576 42.1242 130.14 43.4778C129.703 44.8315 129.281 46.389 128.801 47.7136C126.952 53.3245 124.59 58.7527 121.743 63.9288C120.296 66.4934 118.631 68.9284 116.766 71.2067C114.928 73.5291 112.622 75.4386 109.998 76.8106C112.52 75.3269 114.713 73.346 116.445 70.9883C118.228 68.6669 119.81 66.198 121.175 63.6085C123.925 58.384 126.214 52.9291 128.015 47.306C129.946 41.7718 131.406 36.0846 132.381 30.3048C132.895 27.4208 133.177 24.5004 133.225 21.5713C133.397 18.649 133.062 15.7189 132.235 12.9106Z" fill="black"/>
<path d="M105.381 2.18359C106.836 3.63918 108.102 5.22576 109.412 6.79778C110.722 8.36981 111.988 9.94185 113.254 11.5575C114.52 13.1732 115.728 14.7744 116.907 16.4337L118.682 18.9373C119.25 19.7816 119.846 20.6113 120.385 21.4846C119.672 20.7423 119.017 20.029 118.333 19.2139L116.354 16.8704C115.044 15.3129 113.778 13.7118 112.526 12.1107C111.275 10.5095 110.038 8.87927 108.859 7.2199C107.68 5.56054 106.487 3.84296 105.381 2.18359Z" fill="#263238"/>
<path d="M107.826 62.7792C105.527 63.0121 103.242 63.1577 100.943 63.2887C98.6432 63.4197 96.3584 63.4924 94.059 63.5652C91.7596 63.638 89.4602 63.6526 87.1608 63.5652H83.7118C82.5621 63.5652 81.4269 63.5652 80.2627 63.4197C81.4124 63.2887 82.5621 63.2159 83.7118 63.114L87.1463 62.9102C89.4457 62.7647 91.745 62.7064 94.0299 62.6337C96.3147 62.5609 98.6287 62.5463 100.928 62.6337C103.227 62.721 105.527 62.6337 107.826 62.7792Z" fill="#263238"/>
<path d="M67.163 48.6013C70.5247 48.8342 73.8865 49.169 77.2482 49.5183C80.61 49.8677 83.9572 50.2752 87.3189 50.6828C90.6807 51.0904 94.0133 51.5561 97.346 52.1384L102.367 52.8371C104.04 53.1136 105.699 53.3756 107.373 53.6959C105.685 53.5794 103.997 53.4193 102.309 53.2737L97.2732 52.7788C93.9115 52.4295 90.5643 52.0219 87.2171 51.5998C83.8699 51.1777 80.5081 50.7265 77.1755 50.1442C73.8428 49.562 70.4811 49.2127 67.163 48.6013Z" fill="#263238"/>
<path d="M86.6362 0C89.2121 2.27071 91.7298 4.59963 94.2329 6.94312C96.7361 9.28661 99.1955 11.6592 101.64 14.0464C104.085 16.4335 106.516 18.8498 108.917 21.3243L112.555 24.9923C113.719 26.2441 114.913 27.4814 116.062 28.7477C114.767 27.6269 113.516 26.4625 112.235 25.3126L108.466 21.8192C105.963 19.4757 103.518 17.1031 101.058 14.7014C98.5988 12.2997 96.183 9.89795 93.7818 7.42346C91.3805 4.94898 88.9502 2.53271 86.6362 0Z" fill="#263238"/>
<path d="M110.621 41.0184C106.823 39.8976 103.053 38.6894 99.2843 37.4667C95.515 36.244 91.7894 34.9486 88.0493 33.6822C84.3092 32.4159 80.5836 31.0767 76.8726 29.7085L71.3133 27.6416C69.4651 26.9283 67.6023 26.186 65.7686 25.4873C67.675 26.0404 69.5669 26.6518 71.4588 27.2194L77.1054 29.0389C80.8601 30.2616 84.6002 31.5571 88.3403 32.8234C92.0805 34.0898 95.8061 35.4289 99.5171 36.7972C103.228 38.1654 106.939 39.5337 110.621 41.0184Z" fill="#263238"/>
<path d="M195.597 104.438C194.491 108.674 190.14 104.947 190.14 104.947C190.14 104.947 195.117 111.832 192.279 115.748C189.441 119.663 184.435 114.831 184.071 114.496C184.333 114.86 188.728 121.308 185.526 124.962C182.325 128.615 177.828 123.157 177.551 122.793C177.697 123.215 179.414 128.833 176.3 131.046C170.973 134.845 166.2 120.58 161.368 118.426C161.368 118.426 156.77 126.199 156.58 126.403C156.391 126.606 151.763 112.924 155.038 106.563C155.501 105.631 156.268 104.885 157.213 104.448C158.158 104.011 159.223 103.91 160.233 104.161C160.233 104.161 158.196 99.9838 160.67 97.0435C161.936 95.5879 165.487 96.2138 165.487 96.2138C165.093 95.255 164.966 94.2073 165.12 93.182C165.273 92.1568 165.702 91.1924 166.36 90.3915C168.237 88.3973 171.512 89.4017 171.512 89.4017C171.512 89.4017 171.599 85.4571 174.175 84.0452C179.327 81.1049 197.969 95.3405 195.597 104.438Z" fill="#EAB9B2"/>
<path d="M165.383 96.0972C165.296 96.0972 165.383 95.9226 165.47 95.9662C173.784 99.6814 180.495 106.249 184.389 114.481C184.52 114.772 184.389 115.165 184.171 114.831C181.275 109.372 171.772 100.187 165.383 96.0972Z" fill="#263238"/>
<path d="M177.564 123.477C173.679 115.457 167.61 109.503 160.508 104.278C160.406 104.278 160.508 104.089 160.61 104.118C164.787 105.733 168.963 109.533 171.976 112.764C174.804 115.719 176.81 119.362 177.797 123.331C177.884 123.492 177.652 123.637 177.564 123.477Z" fill="#263238"/>
<path d="M190.283 104.962C190.443 105.224 189.876 105.166 190.021 105.442C190.662 106.607 193.863 113.928 191.709 115.806C189.978 117.262 186.761 115.995 185.728 115.02L183.123 112.56L184.709 115.719C185.444 117.141 185.936 118.676 186.165 120.26C186.313 120.984 186.305 121.731 186.142 122.451C185.979 123.171 185.664 123.849 185.219 124.438C184.802 124.983 184.21 125.369 183.542 125.531C182.875 125.693 182.172 125.62 181.551 125.326C180.185 124.658 179.009 123.657 178.131 122.414L175.614 118.979L176.865 123.026C177.214 124.15 177.42 125.314 177.477 126.49C177.569 127.606 177.331 128.725 176.793 129.707C176.532 130.136 176.158 130.485 175.71 130.714C175.263 130.943 174.761 131.043 174.26 131.002C173.154 130.742 172.144 130.171 171.35 129.357C169.605 127.618 167.999 125.744 166.547 123.753C165.776 122.778 165.005 121.803 164.19 120.842C163.405 119.836 162.412 119.012 161.279 118.426C162.298 119.125 163.173 120.015 163.855 121.046C164.583 122.05 165.31 123.084 165.965 124.117C167.311 126.248 168.856 128.246 170.578 130.085C171.489 131.1 172.679 131.824 173.998 132.167C174.737 132.279 175.491 132.172 176.169 131.858C176.847 131.545 177.418 131.04 177.811 130.405C178.52 129.212 178.85 127.831 178.757 126.446C178.729 125.134 178.523 123.832 178.146 122.574L176.88 123.186C177.876 124.71 179.257 125.945 180.882 126.767C181.792 127.191 182.819 127.288 183.793 127.043C184.742 126.759 185.587 126.202 186.223 125.442C186.785 124.69 187.181 123.828 187.387 122.913C187.592 121.997 187.602 121.049 187.416 120.129C187.141 118.396 186.585 116.72 185.772 115.166L184.753 115.922C186.107 117.131 189.541 118.965 192.524 116.985C196.09 113.826 191.273 106.272 190.283 104.962Z" fill="#263238"/>
<path d="M190.14 104.947C190.926 105.391 191.775 105.71 192.658 105.894C193.01 105.977 193.378 105.964 193.724 105.856C194.07 105.749 194.38 105.551 194.623 105.282C195.071 104.623 195.323 103.851 195.35 103.055C195.35 102.167 195.438 101.25 195.423 100.29C195.908 101.133 196.206 102.072 196.296 103.041C196.461 104.113 196.194 105.207 195.554 106.083C195.169 106.517 194.662 106.827 194.099 106.971C193.546 107.068 192.978 107.012 192.454 106.811C191.5 106.459 190.688 105.804 190.14 104.947Z" fill="#263238"/>
<path d="M160.243 152.429L203.117 127.364C203.117 127.364 207.948 142.21 208.501 142.21C209.054 142.21 219.969 124.743 233.911 111.891C248.26 98.6158 248.464 113.594 245.044 126.578C241.333 140.769 221.25 194.015 209.142 199.793C198.954 204.684 187.632 197.435 184.503 193.345C180.181 187.712 160.243 152.429 160.243 152.429Z" fill="#FFC1D8"/>
<path d="M167.103 156.985C168.558 155.936 181.918 148.353 184.872 146.795L193.735 142.05C196.806 140.42 199.833 138.615 203.02 137.232C203.047 137.217 203.079 137.213 203.109 137.221C203.139 137.229 203.164 137.249 203.18 137.276C203.195 137.303 203.199 137.335 203.191 137.365C203.183 137.395 203.163 137.421 203.136 137.436C200.226 139.387 197.126 140.988 194.113 142.691C191.101 144.394 188.176 146.082 185.192 147.756C182.209 149.43 168.762 156.635 167.19 157.217C167.045 157.246 167.001 157.057 167.103 156.985Z" fill="#263238"/>
<path d="M208.414 142.283C209.142 144.699 209.724 147.159 210.248 149.561C210.772 151.963 211.252 154.51 211.703 156.999C212.154 159.488 212.431 161.977 212.649 164.495C212.884 167.011 212.981 169.538 212.94 172.064C212.736 170.813 212.62 169.561 212.401 168.324C212.183 167.086 212.052 165.835 211.863 164.597L210.699 157.145L209.549 149.707L208.982 145.966C208.763 144.83 208.603 143.535 208.414 142.283Z" fill="#263238"/>
<path opacity="0.1" d="M195.813 200.463C200.181 201.94 204.949 201.695 209.143 199.778C221.251 193.956 241.334 140.755 245.045 126.563C247.68 116.475 248.16 105.195 241.524 106.869C232.559 125.078 209.434 172.486 195.813 200.463Z" fill="black"/>
<path d="M302.387 231.947C302.154 232.209 208.811 230.142 207.894 229.036C206.628 227.58 225.198 130.449 237.088 109.911C240.711 103.652 256.007 97.2767 264.651 109.649C280.048 131.73 303.202 231.001 302.387 231.947Z" fill="#FFC1D8"/>
<path d="M245.496 128.528L242.178 121.905L236.793 127.116L238.307 131.905L243.342 132.283L245.496 128.528Z" fill="#263238"/>
<path d="M243.342 132.283L247.213 188.119L237.462 206.154L229.284 187.814L238.306 131.905L243.342 132.283Z" fill="#263238"/>
<path d="M272.115 115.166C290.772 136.228 322.614 192.501 315.221 201.365C298.471 221.496 267.196 240.578 254.579 245.819C249.121 248.075 224.818 209.269 229.838 205.368C235.791 200.681 274.953 180.507 274.953 178.512C274.953 176.518 264.358 149.197 259.541 127.363C253.72 100.275 264.344 106.374 272.115 115.166Z" fill="#EAB9B2"/>
<path d="M249.994 201.598C249.994 201.598 232.69 198.381 221.266 196.824C214.906 195.95 203.802 195.368 198.869 196.911C191.432 199.109 161.758 213.243 164.946 220.52C167.856 227.1 191.869 211.787 191.869 211.787C191.869 211.787 166.314 225.164 171.334 232.442C176.355 239.72 201.124 218.73 201.124 218.73C201.124 218.73 175.176 233.068 181.536 239.749C186.353 244.785 209.842 227.071 209.842 227.071C209.842 227.071 187.634 239.53 192.378 244.945C197.603 250.913 220.32 235.906 220.32 235.906C234.626 247.551 246.064 248.206 254.461 246.095C256.47 245.615 249.994 201.598 249.994 201.598Z" fill="#EAB9B2"/>
<path d="M199.289 207.202C179.715 215.615 172.7 225.732 172.933 225.499C178.638 220.04 188.941 213.694 191.852 211.962C194.763 210.23 196.407 209.051 199.318 207.304C199.434 207.26 199.361 207.158 199.289 207.202Z" fill="#263238"/>
<path d="M206.918 216.954C198.851 219.971 191.389 224.408 184.885 230.055C184.637 230.287 184.797 230.317 185.074 230.142C188.727 227.842 203.222 219.079 206.903 217.042L206.918 216.954Z" fill="#263238"/>
<path d="M214.047 224.887C207.843 227.381 202.158 231.009 197.282 235.585C197.035 235.804 197.282 235.862 197.559 235.687C203.06 232.019 207.353 229.108 214.134 225.09C214.251 225.047 214.164 224.887 214.047 224.887Z" fill="#263238"/>
<path d="M241.086 196.853L269.624 241.292C269.624 241.292 317.271 208.061 317.547 196.664C317.955 180.653 282.111 124.598 271.749 113.783C261.635 103.23 254.984 104.788 257.734 120.319C260.237 134.452 272.739 176.868 272.666 177.479C272.593 178.091 241.086 196.853 241.086 196.853Z" fill="#FFC1D8"/>
<path d="M277.007 232.529C272.641 226.139 255.512 199.313 252.267 193.229C252.049 192.807 252.267 192.559 252.544 192.967C266.223 211.802 273.311 225.819 277.284 232.267C277.318 232.304 277.337 232.353 277.336 232.404C277.335 232.454 277.313 232.502 277.276 232.537C277.24 232.571 277.191 232.59 277.14 232.589C277.09 232.587 277.042 232.566 277.007 232.529Z" fill="#263238"/>
<path d="M260.431 132.254C260.431 132.065 260.053 132.123 260.082 132.254C260.475 134.19 261.144 137.029 261.974 140.362L261.712 139.823C261.089 138.455 260.535 137.056 260.053 135.631C260.053 135.471 259.776 135.559 259.82 135.704C260.3 137.16 260.781 138.615 261.348 140.071C261.703 141.031 262.116 141.97 262.585 142.88C266.122 156.781 271.652 176.679 271.593 177.174C271.477 178.003 246.009 193.185 240.843 196.533C240.654 196.649 241.658 197.988 241.774 198.163C241.788 198.197 241.814 198.224 241.847 198.239C241.88 198.255 241.918 198.257 241.953 198.246C241.987 198.235 242.017 198.212 242.035 198.18C242.053 198.149 242.059 198.111 242.051 198.076C241.931 197.686 241.78 197.306 241.6 196.94C246.533 194.248 272.569 178.586 273.005 177.756C273.442 176.926 262.265 138.179 260.431 132.254Z" fill="#263238"/>
<path d="M299.823 218.133C298.368 219.05 284.338 230.477 282.839 231.539C282.723 231.627 282.839 231.787 282.97 231.714C288.879 228.715 298.571 220.346 299.91 218.235L299.823 218.133Z" fill="#263238"/>
<path d="M242.792 121.323C247.943 121.847 256.53 112.284 259.091 105.632C259.266 105.181 258.014 100.785 256.748 95.4428C255.991 92.1532 255.293 88.4852 254.783 85.0791L234.133 93.1139C235.922 97.2016 237.203 101.494 237.945 105.894C237.991 106.378 237.991 106.865 237.945 107.35V107.597C237.902 110.202 237.8 120.828 242.792 121.323Z" fill="#EAB9B2"/>
<path d="M240.188 107.305C239.462 107.428 238.727 107.492 237.991 107.495C237.991 107.393 237.991 107.32 237.991 107.247C238.037 106.763 238.037 106.276 237.991 105.791C237.249 101.388 235.973 97.0917 234.193 92.9969L254.174 85.2241C253.883 90.2459 252.151 105.442 240.188 107.305Z" fill="#263238"/>
<path d="M259.134 63.3176C261.39 70.974 257.184 92.9969 251.712 97.8586C243.781 104.918 230.887 105.486 224.92 95.9809C219.099 86.7525 225.138 58.1357 231.236 53.769C240.215 47.1752 255.787 51.9495 259.134 63.3176Z" fill="#EAB9B2"/>
<path d="M240.518 77.146C240.518 77.146 240.62 77.2479 240.605 77.3061C240.285 78.7617 240.168 80.5229 241.42 81.2653C241.42 81.2653 241.42 81.3672 241.42 81.3526C239.79 80.7849 239.979 78.4997 240.518 77.146Z" fill="#263238"/>
<path d="M242.076 75.85C244.506 76.112 243.793 80.93 241.552 80.6825C239.311 80.4351 240.111 75.6317 242.076 75.85Z" fill="#263238"/>
<path d="M231.498 75.8503C231.498 75.8503 231.367 75.8503 231.367 75.9668C231.192 77.4224 230.741 79.1545 229.315 79.4456V79.533C231.003 79.5475 231.571 77.2914 231.498 75.8503Z" fill="#263238"/>
<path d="M230.435 74.0889C228.063 73.5504 227.161 78.3538 229.373 78.8487C231.585 79.3436 232.385 74.5402 230.435 74.0889Z" fill="#263238"/>
<path d="M244.364 73.9144C243.759 73.6386 243.171 73.3276 242.603 72.9829C241.935 72.7446 241.363 72.2949 240.973 71.7019C240.884 71.4887 240.87 71.2516 240.934 71.0294C240.997 70.8072 241.134 70.6132 241.322 70.4792C241.724 70.2691 242.174 70.1692 242.626 70.1896C243.079 70.2101 243.518 70.3502 243.898 70.5957C244.75 70.978 245.429 71.6626 245.805 72.5171C245.881 72.7167 245.897 72.9343 245.851 73.143C245.805 73.3517 245.699 73.5423 245.545 73.6911C245.392 73.8399 245.198 73.9404 244.988 73.9801C244.778 74.0198 244.561 73.9969 244.364 73.9144Z" fill="#263238"/>
<path d="M228.878 71.3815C229.546 71.3504 230.212 71.2823 230.872 71.1777C231.585 71.1925 232.284 70.9782 232.866 70.5664C233.02 70.3995 233.115 70.1865 233.136 69.9602C233.157 69.7339 233.103 69.507 232.982 69.3146C232.687 68.9683 232.305 68.7074 231.875 68.5589C231.445 68.4104 230.983 68.3798 230.537 68.4703C229.604 68.5057 228.719 68.8962 228.063 69.562C227.916 69.7168 227.818 69.912 227.782 70.1227C227.745 70.3335 227.773 70.5502 227.86 70.7453C227.948 70.9404 228.091 71.1051 228.272 71.2184C228.454 71.3317 228.665 71.3885 228.878 71.3815Z" fill="#263238"/>
<path d="M239.941 90.9736C239.533 91.2793 239.111 91.7014 238.558 91.6723C238.001 91.584 237.47 91.3754 237.001 91.061C237.173 91.3849 237.428 91.6571 237.74 91.849C238.052 92.041 238.41 92.1459 238.777 92.1527C239.092 92.115 239.389 91.9862 239.632 91.7819C239.875 91.5776 240.053 91.3068 240.145 91.0027C240.115 90.9736 239.999 90.9736 239.941 90.9736Z" fill="#263238"/>
<path d="M239.021 86.2434C238.556 86.7802 237.985 87.2151 237.344 87.5207C236.703 87.8263 236.005 87.996 235.295 88.0192C234.678 88.0437 234.061 87.9799 233.462 87.8299C233.342 87.8182 233.224 87.7888 233.112 87.7426L232.792 87.6407C232.713 87.6172 232.644 87.5662 232.599 87.4969C232.554 87.4276 232.535 87.3444 232.545 87.2623C232.545 87.2623 232.545 87.1749 232.545 87.1167V86.9857C232.676 85.8358 233.054 84.0745 233.054 84.0745C232.603 84.2201 230.318 84.8751 230.435 84.2783C231.349 79.0997 232.787 74.0275 234.728 69.1403C234.728 69.1055 234.742 69.0722 234.766 69.0476C234.791 69.0231 234.824 69.0093 234.859 69.0093C234.894 69.0093 234.927 69.0231 234.951 69.0476C234.976 69.0722 234.99 69.1055 234.99 69.1403C234.189 73.9291 232.559 78.5288 231.686 83.3176C232.498 83.0723 233.341 82.9449 234.189 82.9392C234.349 82.9392 233.418 86.2725 233.404 86.7965C234.331 87.028 235.296 87.0713 236.241 86.9238C237.186 86.7763 238.091 86.441 238.905 85.9377C239.021 86.025 239.167 86.1415 239.021 86.2434Z" fill="#263238"/>
<path d="M234.216 87.3497C234.725 88.2646 235.462 89.0319 236.355 89.5768C236.85 89.8568 237.42 89.9739 237.985 89.9116C239.237 89.7806 239.44 88.6889 239.339 87.7136C239.29 87.2174 239.183 86.7288 239.018 86.2581C237.574 87.1215 235.892 87.5038 234.216 87.3497Z" fill="#263238"/>
<path d="M236.355 89.5184C236.85 89.7984 237.42 89.9155 237.985 89.8532C239.237 89.7222 239.44 88.6305 239.339 87.6553C238.706 87.5978 238.072 87.7488 237.534 88.0851C236.995 88.4215 236.581 88.9249 236.355 89.5184Z" fill="#FF98B9"/>
<path d="M257.009 82.2404C257.009 82.2404 264.198 69.6933 263.325 62.5609C262.932 59.3441 258.479 57.2772 258.479 57.2772C258.785 55.9527 258.714 54.5689 258.274 53.2825C257.834 51.9962 257.043 50.8588 255.99 49.9993C252.09 46.4913 242.892 47.5248 242.892 47.5248C242.892 47.5248 236.693 38.9951 228.339 42.6486C219.986 46.3021 225.691 55.7488 225.691 55.7488C225.691 55.7488 222.678 60.232 230.377 63.5071C237.857 66.6948 252.919 63.0122 252.919 63.0122C252.343 68.239 252.549 73.5227 253.531 78.6888C253.731 79.5418 254.162 80.3236 254.775 80.9497C255.388 81.5757 256.16 82.022 257.009 82.2404Z" fill="#263238"/>
<path d="M241.394 47.6707C243.266 46.8532 245.288 46.432 247.331 46.4335C249.158 46.3633 250.984 46.6045 252.73 47.1467C254.299 47.5493 255.728 48.3718 256.864 49.5259C258 50.68 258.8 52.122 259.177 53.6969C259.319 54.5174 259.297 55.358 259.112 56.17C258.927 56.9819 258.584 57.7492 258.1 58.4275C258.1 58.4275 257.984 58.4275 258.1 58.4275C259.992 55.9384 258.872 52.183 256.805 50.2035C254.268 48.1095 251.055 47.0124 247.768 47.1176C245.661 47.1341 243.565 47.4079 241.525 47.9327C241.49 47.9501 241.45 47.953 241.413 47.9407C241.376 47.9284 241.345 47.902 241.328 47.8673C241.311 47.8325 241.308 47.7923 241.32 47.7554C241.332 47.7186 241.359 47.6881 241.394 47.6707Z" fill="#263238"/>
<path d="M222.271 46.8846C222.638 45.7486 223.279 44.7202 224.136 43.8902C224.994 43.0601 226.043 42.4539 227.19 42.1248C229.809 41.2647 232.639 41.2954 235.238 42.2122C237.844 43.1623 240.15 44.7902 241.918 46.9283C241.918 46.9283 241.918 47.0447 241.831 47.001C240.24 45.1197 238.172 43.7022 235.844 42.8978C233.516 42.0935 231.014 41.932 228.602 42.4305C227.478 42.6236 226.414 43.0699 225.488 43.7357C224.563 44.4015 223.801 45.2693 223.261 46.2733C222.85 47.2839 222.667 48.3726 222.725 49.4619C222.783 50.5513 223.08 51.6145 223.596 52.5759C224.925 54.8425 226.86 56.6926 229.184 57.9179C229.184 57.9179 229.184 58.0198 229.184 57.9179C226.991 56.9024 225.086 55.3566 223.639 53.4202C222.964 52.4887 222.493 51.4249 222.257 50.2986C222.021 49.1723 222.026 48.0089 222.271 46.8846Z" fill="#263238"/>
<path d="M228.455 63.9877C231.871 65.2753 235.524 65.8163 239.166 65.5743C242.955 65.3748 246.712 64.7697 250.372 63.7694C252.497 63.2017 254.607 62.5467 256.703 61.8625C256.703 61.8625 256.805 61.8625 256.703 61.9644C253.049 63.6362 249.23 64.9193 245.308 65.7926C241.657 66.5659 237.89 66.6203 234.218 65.9527C232.205 65.574 230.248 64.9381 228.397 64.0605C228.397 64.0605 228.412 63.9586 228.455 63.9877Z" fill="#263238"/>
<path d="M254.276 81.1776C254.276 81.1776 259.457 74.1908 262.644 76.0685C265.831 77.9462 261.786 88.1644 257.944 89.4599C257.464 89.663 256.947 89.7663 256.426 89.7635C255.905 89.7607 255.389 89.6518 254.912 89.4434C254.434 89.2351 254.003 88.9317 253.646 88.5516C253.289 88.1716 253.014 87.7229 252.836 87.2328L254.276 81.1776Z" fill="#EAB9B2"/>
<path d="M261.404 78.9653V79.0672C258.712 80.0716 257.242 82.5024 256.194 85.0351C256.356 84.7724 256.572 84.5479 256.829 84.3772C257.085 84.2065 257.376 84.0937 257.681 84.0466C257.985 83.9995 258.296 84.0193 258.593 84.1045C258.889 84.1897 259.163 84.3384 259.396 84.5402C259.469 84.5402 259.396 84.7003 259.396 84.6858C258.932 84.5211 258.428 84.504 257.954 84.6369C257.48 84.7698 257.058 85.0462 256.747 85.4281C256.24 86.0749 255.801 86.7724 255.438 87.5096C255.307 87.7425 254.885 87.6115 254.986 87.3349C254.972 83.8852 257.751 79.1982 261.404 78.9653Z" fill="#263238"/>
<path d="M237.917 106.199L242.821 118.979L258.829 103.143L263.195 108.368C263.195 108.368 247.362 133.681 247.274 132.531L242.21 121.497L234.54 128.994L235.501 109.896L237.917 106.199Z" fill="#FAFAFA"/>
<path d="M234.51 119.518C234.757 116.359 234.932 113.186 235.325 110.042C235.325 109.94 235.529 109.896 235.543 110.042C236.125 113.099 235.092 125.136 235.063 128.033C235.383 127.713 242.179 121.439 242.237 121.541C243.344 123.288 247.069 131.323 247.317 132.065C249.82 128.033 260.414 112.196 263.325 108.412C263.344 108.396 263.367 108.386 263.392 108.384C263.416 108.382 263.441 108.388 263.462 108.401C263.483 108.414 263.5 108.433 263.509 108.456C263.518 108.479 263.52 108.504 263.514 108.528C261.287 112.779 247.578 133.681 247.389 133.622C245.425 129.834 243.657 125.948 242.092 121.978C240.928 123.361 234.073 130.449 234.059 129.969C234.017 126.48 234.168 122.991 234.51 119.518Z" fill="#263238"/>
<path d="M1.06236 380.635H89.8359L87.0563 324.479H34.7381L1.06236 380.635ZM82.2247 373.357H13.9272L38.8857 331.728H80.1581L82.2247 373.357Z" fill="#373B3D"/>
<path opacity="0.5" d="M1.06236 380.635H89.8359L87.0563 324.479H34.7381L1.06236 380.635ZM82.2247 373.357H13.9272L38.8857 331.728H80.1581L82.2247 373.357Z" fill="black"/>
<path d="M5.90806 380.635H94.6816L91.902 324.479H39.5838L5.90806 380.635ZM87.0704 373.357H18.7729L43.7314 331.728H85.0184L87.0704 373.357Z" fill="#373B3D"/>
<path opacity="0.3" d="M5.90806 380.635H94.6816L91.902 324.479H39.5838L5.90806 380.635ZM87.0704 373.357H18.7729L43.7314 331.728H85.0184L87.0704 373.357Z" fill="black"/>
<path d="M114.097 390.663H101.945V382.031H114.097V390.663Z" fill="#A6A6A6"/>
<path d="M119.002 468.087H97.0273L97.0273 390.665H119.002L119.002 468.087Z" fill="#C7C7C7"/>
<path d="M97.0421 438.043H87.3789V433.967H97.0421V438.043Z" fill="#A6A6A6"/>
<path d="M87.3947 440.198H67.748V431.814H87.3947V440.198Z" fill="#C7C7C7"/>
<path d="M121.853 493.631H93.5332V468.085H121.853V493.631Z" fill="#C7C7C7"/>
<path d="M110.892 552.48H104.983L101.68 479.265H114.195L110.892 552.48Z" fill="#A6A6A6"/>
<path d="M30.5194 539.817L25.2803 535.799L93.5195 475.48V493.631L30.5194 539.817Z" fill="#A6A6A6"/>
<path d="M184.836 539.818L190.09 535.8L121.836 475.481V493.632L184.836 539.818Z" fill="#A6A6A6"/>
<path d="M119.002 468.071H97.0273V461.376H119.002V468.071Z" fill="#A6A6A6"/>
<path d="M30.2894 566.017C22.3645 566.017 15.9401 559.592 15.9401 551.665C15.9401 543.739 22.3645 537.313 30.2894 537.313C38.2143 537.313 44.6387 543.739 44.6387 551.665C44.6387 559.592 38.2143 566.017 30.2894 566.017Z" fill="#263238"/>
<path d="M37.0351 551.666C37.0351 553.002 36.6391 554.308 35.8972 555.418C35.1552 556.529 34.1005 557.395 32.8666 557.906C31.6328 558.417 30.2751 558.551 28.9652 558.29C27.6553 558.03 26.4521 557.386 25.5077 556.442C24.5634 555.497 23.9202 554.294 23.6597 552.984C23.3991 551.674 23.5329 550.316 24.0439 549.081C24.555 547.847 25.4205 546.792 26.531 546.05C27.6415 545.308 28.947 544.912 30.2825 544.912C31.1699 544.91 32.0488 545.084 32.8689 545.422C33.6891 545.761 34.4342 546.259 35.0616 546.886C35.6891 547.514 36.1864 548.259 36.5251 549.079C36.8637 549.899 37.0371 550.779 37.0351 551.666Z" fill="white"/>
<path d="M185.145 566.017C177.22 566.017 170.796 559.592 170.796 551.665C170.796 543.739 177.22 537.313 185.145 537.313C193.07 537.313 199.494 543.739 199.494 551.665C199.494 559.592 193.07 566.017 185.145 566.017Z" fill="#263238"/>
<path d="M191.898 551.665C191.898 553.001 191.502 554.307 190.76 555.417C190.018 556.528 188.964 557.394 187.73 557.905C186.496 558.416 185.138 558.55 183.828 558.289C182.519 558.029 181.315 557.385 180.371 556.441C179.427 555.496 178.783 554.293 178.523 552.983C178.262 551.673 178.396 550.315 178.907 549.08C179.418 547.846 180.284 546.792 181.394 546.049C182.505 545.307 183.81 544.911 185.146 544.911C186.033 544.909 186.912 545.083 187.732 545.421C188.552 545.76 189.297 546.258 189.925 546.885C190.552 547.513 191.05 548.258 191.388 549.078C191.727 549.898 191.9 550.778 191.898 551.665Z" fill="white"/>
<path d="M112.278 571.578H103.27V547.969H112.278V571.578Z" fill="#263238"/>
<path d="M198.256 382.017H-0.000289917V366.952H74.2203L99.1642 215.979H190.688L198.256 382.017Z" fill="#373B3D"/>
<path opacity="0.1" d="M74.2185 366.952H184.734L178.142 215.979H99.1624L74.2185 366.952Z" fill="black"/>
<path opacity="0.3" d="M-0.000762939 366.952H115.492V382.032H-0.000762939V366.952Z" fill="white"/>
<path d="M107.187 380.635H195.961L193.196 324.479H140.805L107.187 380.635ZM188.335 373.357H120.038L144.996 331.727H186.283L188.335 373.357Z" fill="#373B3D"/>
<path opacity="0.5" d="M107.187 380.635H195.961L193.196 324.479H140.805L107.187 380.635ZM188.335 373.357H120.038L144.996 331.727H186.283L188.335 373.357Z" fill="black"/>
<path d="M112.029 380.635H200.803L198.038 324.479H145.647L112.029 380.635ZM193.177 373.357H124.879L149.838 331.727H191.14L193.177 373.357Z" fill="#373B3D"/>
<path opacity="0.3" d="M112.029 380.635H200.803L198.038 324.479H145.647L112.029 380.635ZM193.177 373.357H124.879L149.838 331.727H191.14L193.177 373.357Z" fill="black"/>
<path d="M83.046 254.816L203.539 277.893L195.55 319.623L75.0568 296.546L83.046 254.816Z" fill="#455A64"/>
<path d="M177.057 289.633L180.797 290.346L178.396 302.923C178.345 303.1 178.331 303.285 178.356 303.468C178.381 303.651 178.443 303.826 178.539 303.983C178.636 304.14 178.764 304.276 178.915 304.38C179.067 304.485 179.239 304.557 179.42 304.592C179.601 304.626 179.787 304.623 179.966 304.581C180.146 304.54 180.315 304.461 180.462 304.351C180.61 304.24 180.733 304.1 180.823 303.939C180.913 303.779 180.969 303.601 180.986 303.418L183.388 290.841L187.113 291.555C187.284 291.586 187.46 291.584 187.63 291.547C187.8 291.511 187.961 291.441 188.105 291.343C188.248 291.244 188.37 291.118 188.465 290.972C188.56 290.826 188.624 290.663 188.656 290.492C188.692 290.322 188.693 290.146 188.659 289.975C188.625 289.804 188.558 289.642 188.46 289.498C188.362 289.354 188.236 289.231 188.09 289.137C187.943 289.042 187.78 288.979 187.608 288.949L177.567 287.028C177.396 286.992 177.22 286.991 177.05 287.025C176.879 287.058 176.717 287.126 176.573 287.224C176.429 287.322 176.306 287.448 176.212 287.594C176.117 287.74 176.053 287.904 176.024 288.076C175.959 288.419 176.031 288.774 176.224 289.065C176.417 289.355 176.716 289.56 177.057 289.633Z" fill="white"/>
<path d="M160.773 298.921C160.775 299.117 160.733 299.312 160.649 299.49C160.566 299.668 160.443 299.825 160.291 299.949C160.139 300.073 159.961 300.161 159.769 300.207C159.578 300.253 159.379 300.256 159.187 300.214C158.995 300.173 158.815 300.089 158.66 299.968C158.505 299.848 158.379 299.694 158.291 299.518C158.203 299.342 158.156 299.148 158.154 298.952C158.151 298.755 158.192 298.561 158.275 298.383L160.966 284.729C160.997 284.518 161.079 284.318 161.205 284.148C161.332 283.977 161.499 283.84 161.692 283.75C162.011 283.619 162.369 283.618 162.689 283.748C163.009 283.877 163.266 284.126 163.405 284.442L168.914 296.448L170.834 286.722C170.926 286.408 171.132 286.14 171.411 285.97C171.69 285.8 172.023 285.741 172.343 285.803C172.664 285.866 172.95 286.046 173.144 286.309C173.339 286.571 173.428 286.897 173.395 287.222L170.703 300.876C170.634 301.219 170.432 301.52 170.142 301.714C169.852 301.909 169.497 301.981 169.154 301.914C168.971 301.875 168.799 301.797 168.649 301.685C168.499 301.573 168.375 301.43 168.286 301.265C168.249 301.211 168.22 301.152 168.2 301.089L162.699 289.181L160.773 298.921Z" fill="white"/>
<path d="M143.174 293.041L148.894 294.147L149.461 297.422C149.515 297.683 149.645 297.923 149.833 298.112C150.022 298.301 150.262 298.43 150.523 298.485C150.678 298.506 150.835 298.506 150.989 298.485C151.339 298.421 151.65 298.221 151.854 297.93C152.059 297.638 152.14 297.278 152.081 296.927L149.534 282.08C149.475 281.818 149.341 281.578 149.148 281.39C148.955 281.203 148.711 281.076 148.447 281.025C148.183 280.974 147.909 281.001 147.66 281.103C147.411 281.205 147.198 281.378 147.045 281.6L139.187 294.467C139.008 294.771 138.955 295.133 139.04 295.476C139.124 295.818 139.339 296.115 139.638 296.301C139.772 296.38 139.92 296.435 140.074 296.461C140.334 296.516 140.604 296.488 140.847 296.381C141.09 296.274 141.293 296.093 141.428 295.865L143.174 293.041ZM144.629 290.639L147.54 285.952L148.472 291.367L144.629 290.639Z" fill="white"/>
<path d="M121.078 284.328C121.557 282.063 122.908 280.077 124.84 278.801C126.772 277.525 129.128 277.061 131.399 277.509C133.377 277.885 135.172 278.914 136.496 280.432C136.71 280.711 136.809 281.061 136.774 281.411C136.738 281.761 136.571 282.084 136.306 282.315C136.041 282.546 135.697 282.667 135.346 282.654C134.995 282.641 134.661 282.494 134.414 282.244C133.516 281.171 132.268 280.449 130.889 280.207C129.314 279.906 127.682 280.211 126.322 281.062C125.039 281.923 124.143 283.251 123.822 284.762C123.67 285.524 123.672 286.309 123.828 287.071C123.985 287.832 124.291 288.554 124.731 289.195C125.665 290.497 127.057 291.396 128.627 291.711C129.974 292.039 131.392 291.891 132.642 291.292C132.969 291.157 133.335 291.146 133.67 291.261C134.005 291.377 134.286 291.61 134.461 291.918C134.602 292.243 134.618 292.609 134.508 292.946C134.398 293.283 134.169 293.568 133.863 293.748C132.072 294.651 130.031 294.931 128.063 294.545C126.933 294.335 125.855 293.904 124.891 293.276C123.928 292.649 123.098 291.837 122.449 290.888C121.8 289.939 121.344 288.871 121.109 287.745C120.874 286.619 120.864 285.458 121.078 284.328Z" fill="white"/>
<path d="M109.209 285.074L114.929 286.165L115.496 289.455C115.551 289.714 115.681 289.952 115.87 290.139C116.059 290.325 116.298 290.452 116.559 290.503C116.712 290.532 116.87 290.532 117.024 290.503C117.374 290.442 117.686 290.246 117.893 289.958C118.1 289.669 118.185 289.311 118.13 288.96L115.583 274.098C115.529 273.832 115.396 273.589 115.201 273.399C115.007 273.21 114.76 273.083 114.492 273.036C114.219 272.972 113.933 272.994 113.673 273.098C113.412 273.202 113.19 273.384 113.037 273.618L105.193 286.485C105.009 286.791 104.954 287.156 105.039 287.502C105.123 287.848 105.34 288.147 105.644 288.334C105.772 288.416 105.916 288.47 106.066 288.494C106.327 288.548 106.599 288.519 106.844 288.413C107.089 288.306 107.295 288.126 107.434 287.897L109.209 285.074ZM110.665 282.672L113.575 277.97L114.521 283.4L110.665 282.672Z" fill="white"/>
<path d="M98.0176 286.634C98.0763 286.597 98.14 286.567 98.2067 286.547C98.2067 286.547 98.2067 286.547 98.2067 286.474C98.2613 286.444 98.3105 286.404 98.3523 286.358C98.3888 286.295 98.4384 286.24 98.4978 286.198L106.895 273.549C107.088 273.259 107.158 272.905 107.09 272.564C107.022 272.222 106.821 271.922 106.531 271.729C106.242 271.536 105.887 271.466 105.546 271.534C105.205 271.603 104.905 271.804 104.712 272.093L98.0321 282.108L95.6454 270.361C95.5607 270.031 95.3522 269.746 95.0631 269.566C94.774 269.386 94.4266 269.324 94.0932 269.393C93.7597 269.463 93.4657 269.658 93.2724 269.938C93.079 270.219 93.0012 270.563 93.055 270.9L96.2421 285.746C96.229 285.819 96.229 285.893 96.2421 285.965C96.2421 285.965 96.2421 286.081 96.3294 286.139C96.3225 286.163 96.3225 286.189 96.3294 286.212C96.3637 286.264 96.4027 286.313 96.4458 286.358L96.6059 286.518C96.6706 286.532 96.7306 286.562 96.7806 286.605H97.0134H97.2463H97.4937L97.7411 286.503L98.0176 286.634Z" fill="white"/>
<path d="M83.0576 254.814C89.849 252 96.5774 249.045 103.243 245.949C109.923 242.893 116.544 239.705 123.137 236.488C129.729 233.271 136.234 229.953 142.798 226.532C149.361 223.111 155.779 219.633 162.168 215.979C155.377 218.793 148.643 221.743 141.968 224.829C135.288 227.9 128.681 231.088 122.074 234.305C115.467 237.522 108.977 240.855 102.413 244.261C95.8497 247.667 89.4464 251.16 83.0576 254.814Z" fill="#263238"/>
<path d="M192.411 253.504C193.866 257.783 195.613 261.903 197.446 265.978C199.274 270.051 201.314 274.026 203.559 277.885C202.087 273.644 200.401 269.481 198.509 265.411C196.68 261.34 194.645 257.366 192.411 253.504Z" fill="#263238"/>
</svg>
