<svg width="515" height="459" viewBox="0 0 515 459" fill="none" xmlns="http://www.w3.org/2000/svg">
<path d="M182.63 10.772C184.121 4.48569 199.719 -1.48709 213.139 7.78566C219.088 11.8196 223.55 17.6977 225.84 24.5171C228.13 31.3365 228.12 38.72 225.814 45.5337C218.611 66.8864 256.203 66.095 264.912 102.096C271.786 130.467 265.419 170.649 227.051 168.469C168.494 165.139 173.549 107.83 170.984 77.712C168.419 47.5943 136.464 13.8182 182.63 10.772Z" fill="#263238"/>
<path d="M163.29 91.1814C163.036 95.5415 162.529 99.5284 161.963 103.665C161.396 107.801 160.606 111.847 159.726 115.909C158.846 119.97 157.847 124.032 156.58 128.033C155.355 132.095 153.902 136.083 152.226 139.979L150.913 142.965C150.72 143.398 150.362 144.055 150.093 144.608C149.825 145.16 149.467 145.668 149.154 146.206C147.927 148.12 146.562 149.942 145.068 151.656C142.29 154.84 139.301 157.833 136.121 160.615C129.957 166.071 123.398 171.062 116.498 175.547L112.531 170.231C115.335 167.514 118.198 164.706 120.956 161.899C123.715 159.092 126.444 156.24 129.038 153.343C131.595 150.535 134.008 147.599 136.27 144.548C137.304 143.12 138.241 141.623 139.074 140.069C139.238 139.725 139.446 139.367 139.581 139.038C139.715 138.71 139.864 138.441 140.028 137.948L141.042 135.32C143.601 128.105 145.595 120.701 147.007 113.176C147.767 109.383 148.319 105.531 148.885 101.694C149.452 97.856 149.884 93.899 150.213 90.2556L163.29 91.1814Z" fill="#FFB573"/>
<path d="M154.338 75.5018C149.044 76.8457 145.391 98.6762 145.391 98.6762L165.655 112.473C165.655 112.473 173.991 86.5962 169.905 80.7578C165.611 74.6656 162.062 73.5308 154.338 75.5018Z" fill="#3F3F3F"/>
<path opacity="0.2" d="M154.821 80.3701L150.75 102.38L158.951 107.949L154.821 80.3701Z" fill="black"/>
<path d="M114.941 168.408L101.297 170.589L109.081 179.219C109.081 179.219 117.118 177.383 118.535 172.231L114.941 168.408Z" fill="#FFB573"/>
<path d="M94.8438 172.307L102.628 180.744L109.084 179.221L101.3 170.59L94.8438 172.307Z" fill="#FFB573"/>
<path d="M183.004 442.889H170.15L169.285 413.085H182.139L183.004 442.889Z" fill="#FFB573"/>
<path d="M271.869 404.96L259.97 409.828L244.895 383.801L256.794 378.934L271.869 404.96Z" fill="#FFB573"/>
<path d="M257.738 408.037L270.144 400.66C270.357 400.528 270.61 400.477 270.857 400.518C271.105 400.56 271.328 400.69 271.486 400.884L278.733 409.843C278.9 410.076 279.017 410.341 279.076 410.621C279.136 410.901 279.137 411.19 279.08 411.471C279.022 411.751 278.908 412.017 278.743 412.25C278.578 412.484 278.367 412.682 278.122 412.83C273.753 415.323 271.516 416.309 266.058 419.564C262.703 421.565 254.8 428.404 250.163 431.166C245.525 433.929 242.558 429.479 244.198 427.911C249.667 422.962 253.809 416.72 256.247 409.754C256.535 409.029 257.061 408.424 257.738 408.037Z" fill="#263238"/>
<path d="M169.696 441.41H184.145C184.391 441.405 184.63 441.49 184.817 441.649C185.005 441.809 185.126 442.033 185.159 442.277L186.814 453.729C186.843 454.018 186.812 454.309 186.722 454.584C186.632 454.86 186.485 455.113 186.291 455.329C186.097 455.544 185.861 455.716 185.596 455.834C185.332 455.952 185.046 456.013 184.757 456.014C179.716 455.924 177.301 455.626 170.934 455.626C167.027 455.626 159.004 456.029 153.562 456.029C148.119 456.029 147.88 450.698 150.117 450.205C160.197 448.04 164.164 445.054 167.549 442.202C168.148 441.692 168.909 441.412 169.696 441.41Z" fill="#263238"/>
<g opacity="0.2">
<path d="M169.291 413.101L169.723 428.466H182.577L182.145 413.101H169.291Z" fill="black"/>
<path d="M256.805 378.937L244.891 383.805L252.674 397.229L264.574 392.361L256.805 378.937Z" fill="black"/>
</g>
<path d="M153.901 75.4889C153.901 75.4889 147.773 77.6391 160.045 153.135H212.235C211.355 131.857 211.34 118.792 221.495 75.0858C214.186 73.5511 206.776 72.553 199.322 72.0994C191.434 71.5313 183.515 71.5313 175.627 72.0994C165.443 73.1596 153.901 75.4889 153.901 75.4889Z" fill="#3F3F3F"/>
<path opacity="0.2" d="M217.628 92.4053C212.901 93.5849 208.532 98.7514 209.054 108.263C209.348 112.577 210.858 116.719 213.408 120.209C214.243 112.892 215.645 104.396 217.882 93.5252L217.628 92.4053Z" fill="black"/>
<path d="M178.812 93.0772C178.812 93.0772 185.597 97.273 187.372 103.53C194.738 98.1242 204.744 83.0877 205.146 74.0837C205.148 73.8217 205.098 73.5618 204.999 73.3191C204.901 73.0765 204.755 72.8558 204.571 72.6698C204.386 72.4838 204.167 72.3362 203.925 72.2354C203.684 72.1347 203.425 72.0828 203.163 72.0828C202.028 72.0535 200.892 72.1034 199.763 72.2321L178.812 93.0772Z" fill="#FAFAFA"/>
<path d="M178.815 93.078C178.815 93.078 172.03 97.2738 170.256 103.53C162.338 97.7218 166.737 78.5492 171.27 72.1732C172.866 72.0048 174.475 72.0048 176.071 72.1732L178.815 93.078Z" fill="#FAFAFA"/>
<path d="M197.436 45.4741C195.945 53.1044 194.453 67.0956 199.777 72.2024C194.831 80.9561 187.585 88.186 178.826 93.1071C168.254 84.6556 176.082 72.2024 176.082 72.2024C184.582 70.1716 184.358 63.8404 182.882 57.9124L197.436 45.4741Z" fill="#FFB573"/>
<path opacity="0.2" d="M191.47 50.5513L182.852 57.9127C183.224 59.2909 183.468 60.7005 183.582 62.1235C186.833 61.6457 191.948 58.8833 192.648 55.3444C192.962 53.672 191.769 51.3427 191.47 50.5513Z" fill="black"/>
<path d="M210.205 33.2003C206.685 45.4744 205.448 50.7454 197.754 55.7476C186.182 63.2136 171.897 56.2254 171.688 43.145C171.494 31.3637 177.295 13.2811 190.566 11.0264C193.488 10.5154 196.493 10.7616 199.293 11.7416C202.093 12.7216 204.597 14.4028 206.565 16.6252C208.533 18.8476 209.901 21.5374 210.538 24.4387C211.175 27.3399 211.06 30.3561 210.205 33.2003Z" fill="#FFB573"/>
<path d="M183.738 12.1169C184.32 16.268 207.015 29.6171 211.324 22.6589C215.634 15.7006 209.431 10.4594 199.768 9.13049C194.241 8.26163 188.583 9.31564 183.738 12.1169Z" fill="#263238"/>
<path d="M198.519 14.3716C195.73 18.0448 201.635 44.5043 210.09 42.0107C218.545 39.517 218.157 31.0506 212.282 23.2412C208.958 18.6712 204.05 15.5083 198.519 14.3716Z" fill="#263238"/>
<path d="M160.491 153.178C160.491 153.178 150.352 252.357 151.216 291.553C152.096 332.377 167.037 425.493 167.037 425.493H184.409C184.409 425.493 181.666 334.766 183.201 294.674C184.872 250.968 198.739 153.178 198.739 153.178H160.491Z" fill="#3F3F3F"/>
<path opacity="0.4" d="M160.491 153.178C160.491 153.178 150.352 252.357 151.216 291.553C152.096 332.377 167.037 425.493 167.037 425.493H184.409C184.409 425.493 181.666 334.766 183.201 294.674C184.872 250.968 198.739 153.178 198.739 153.178H160.491Z" fill="black"/>
<path d="M185.887 426.106H165.503L164.012 419.596L186.841 418.805L185.887 426.106Z" fill="#263238"/>
<path opacity="0.2" d="M183.005 177.846C170.181 203.663 180.425 250.773 184.958 268.304C187.285 241.979 191.206 209.8 194.263 186.178C192.31 172.799 188.91 165.93 183.005 177.846Z" fill="black"/>
<path d="M174.258 153.179C174.258 153.179 186.083 256.209 195.015 289.329C205.617 328.615 248.696 395.644 248.696 395.644L264.919 389.014C264.919 389.014 237.11 312.697 228.998 291.957C211.7 247.773 226.508 181.953 212.685 153.089L174.258 153.179Z" fill="#3F3F3F"/>
<path opacity="0.4" d="M174.258 153.179C174.258 153.179 186.083 256.209 195.015 289.329C205.617 328.615 248.696 395.644 248.696 395.644L264.919 389.014C264.919 389.014 237.11 312.697 228.998 291.957C211.7 247.773 226.508 181.953 212.685 153.089L174.258 153.179Z" fill="black"/>
<path d="M267.139 389.088L247.008 397.315L242.281 391.865L265.528 381.114L267.139 389.088Z" fill="#263238"/>
<path d="M29.8469 22.046C16.861 33.555 7.57477 48.6615 3.16266 65.4554C-1.24945 82.2493 -0.589304 99.9762 5.05962 116.394C10.7085 132.813 21.0925 147.185 34.8984 157.693C48.7043 168.202 65.312 174.374 82.6214 175.431C99.9307 176.488 117.164 172.381 132.143 163.63C147.121 154.878 159.172 141.876 166.77 126.266C174.369 110.657 177.175 93.1417 174.833 75.9355C172.491 58.7293 165.106 42.605 153.612 29.6016C138.198 12.1688 116.501 1.57974 93.2917 0.162877C70.0826 -1.25398 47.2617 6.61733 29.8469 22.046ZM136.867 143.144C125.935 152.829 112.382 159.051 97.9195 161.022C83.4573 162.993 68.7362 160.626 55.6176 154.219C42.499 147.813 31.5721 137.655 24.2188 125.029C16.8655 112.404 13.416 97.879 14.3064 83.2906C15.1969 68.7022 20.3873 54.7058 29.2214 43.0714C38.0555 31.4369 50.1364 22.687 63.9366 17.9279C77.7367 13.1689 92.6362 12.6146 106.751 16.335C120.866 20.0555 133.562 27.8836 143.234 38.8295C149.656 46.0975 154.585 54.561 157.741 63.7368C160.897 72.9126 162.216 82.6209 161.625 92.3074C161.034 101.994 158.543 111.469 154.295 120.192C150.047 128.914 144.125 136.714 136.867 143.144Z" fill="#263238"/>
<path opacity="0.3" d="M83.8413 155.403C70.4851 154.599 57.6673 149.845 47.0095 141.744C36.3517 133.643 28.3327 122.559 23.9671 109.893C19.6014 97.2277 19.0853 83.5501 22.4838 70.5908C25.8824 57.6314 33.0431 45.9726 43.0599 37.0893C53.0768 28.2059 65.4997 22.4972 78.7572 20.6852C92.0146 18.8733 105.511 21.0396 117.539 26.91C129.566 32.7805 139.585 42.0913 146.328 53.6647C153.07 65.2381 156.233 78.5539 155.416 91.9277C154.318 109.845 146.164 126.593 132.744 138.495C119.324 150.396 101.736 156.478 83.8413 155.403Z" fill="#B8B8B8"/>
<g opacity="0.5">
<path d="M92.0777 20.1943H90.8103L20.5475 82.4606L20.458 83.7299C19.5464 98.4113 23.4528 112.989 31.5819 125.241L131.832 36.291C120.685 26.7329 106.726 21.0809 92.0777 20.1943Z" fill="#FAFAFA"/>
<path d="M138.379 42.6519L37.0859 132.408C40.4688 136.32 44.2916 139.827 48.4783 142.86L147.282 55.2544C144.804 50.7274 141.817 46.4991 138.379 42.6519Z" fill="#FAFAFA"/>
</g>
<path d="M156.949 154.209L145.407 164.437C144.568 165.179 143.469 165.558 142.351 165.491C141.233 165.424 140.187 164.916 139.442 164.079C138.709 163.235 138.335 162.136 138.402 161.019C138.469 159.902 138.971 158.856 139.8 158.106L151.342 147.878C152.183 147.137 153.283 146.761 154.401 146.831C155.519 146.901 156.564 147.412 157.306 148.251C158.047 149.089 158.425 150.187 158.358 151.304C158.29 152.421 157.784 153.466 156.949 154.209Z" fill="#263238"/>
<path d="M152.703 152.312C161.396 159.972 169.717 167.976 177.933 176.084C186.149 184.192 194.171 192.509 202.104 200.782C210.037 209.054 217.821 217.595 225.545 226.166C232.792 235.125 242.663 241.755 244.14 255.821C244.255 256.946 244.102 258.082 243.692 259.136C243.282 260.189 242.627 261.13 241.782 261.88C240.937 262.63 239.925 263.168 238.831 263.449C237.737 263.73 236.592 263.746 235.491 263.496C221.713 260.315 216.36 249.699 208.367 241.396C200.832 232.686 193.406 223.896 186.089 215.027C178.773 206.157 171.59 197.143 164.542 187.985C157.504 178.846 150.585 169.604 144.039 160.032C143.199 158.86 142.822 157.418 142.981 155.984C143.14 154.55 143.823 153.225 144.9 152.266C145.976 151.307 147.369 150.781 148.81 150.79C150.251 150.798 151.638 151.341 152.703 152.312Z" fill="#263238"/>
<path d="M189.656 32.095C189.433 33.1104 188.717 33.8122 188.046 33.5882C187.375 33.3643 187.032 32.4982 187.256 31.4978C187.479 30.4973 188.195 29.7806 188.866 30.0046C189.537 30.2285 189.88 31.0797 189.656 32.095Z" fill="#263238"/>
<path d="M178.221 29.5568C177.998 30.5722 177.267 31.274 176.611 31.1247C175.955 30.9754 175.597 30.0346 175.821 29.0193C176.044 28.0039 176.76 27.3021 177.431 27.4514C178.102 27.6007 178.445 28.5414 178.221 29.5568Z" fill="#263238"/>
<path d="M177.707 27.5707L175.426 26.3313C175.426 26.3313 176.246 28.5114 177.707 27.5707Z" fill="#263238"/>
<path d="M181.337 32.1694C179.922 34.2771 178.227 36.1812 176.297 37.8287C176.73 38.3145 177.264 38.6998 177.862 38.9577C178.459 39.2156 179.106 39.3399 179.756 39.3219L181.337 32.1694Z" fill="#ED893E"/>
<path d="M184.388 44.5037C183.886 44.4683 183.388 44.3934 182.897 44.2797C182.859 44.2709 182.823 44.2547 182.791 44.2319C182.759 44.2091 182.732 44.1802 182.711 44.147C182.691 44.1137 182.677 44.0766 182.67 44.0379C182.664 43.9992 182.665 43.9596 182.674 43.9214C182.682 43.8832 182.699 43.847 182.721 43.8151C182.744 43.7831 182.773 43.756 182.806 43.7352C182.839 43.7144 182.876 43.7003 182.915 43.6939C182.954 43.6874 182.993 43.6886 183.032 43.6974C184.285 44.0021 185.592 44.0081 186.848 43.7151C188.104 43.422 189.274 42.8381 190.264 42.0101C190.289 41.9706 190.323 41.9372 190.362 41.9124C190.402 41.8877 190.447 41.8722 190.494 41.8671C190.54 41.862 190.587 41.8674 190.631 41.883C190.676 41.8986 190.716 41.9239 190.749 41.9571C190.782 41.9903 190.807 42.0305 190.823 42.0747C190.838 42.119 190.844 42.1662 190.839 42.2128C190.834 42.2595 190.818 42.3044 190.794 42.3442C190.769 42.3841 190.736 42.4179 190.696 42.4431C189.833 43.1875 188.831 43.753 187.749 44.1067C186.666 44.4605 185.524 44.5954 184.388 44.5037Z" fill="#263238"/>
<path d="M211.023 45.4448C210.336 46.4603 209.455 47.33 208.432 48.0039C207.408 48.6778 206.262 49.1427 205.058 49.3719C201.838 49.9692 200.585 47.0127 201.673 44.1308C202.687 41.5327 205.61 38.158 208.712 38.815C209.387 38.9831 210.01 39.3169 210.524 39.7864C211.039 40.2559 211.428 40.8463 211.657 41.5042C211.887 42.1621 211.949 42.8669 211.838 43.5549C211.727 44.2429 211.447 44.8924 211.023 45.4448Z" fill="#FFB573"/>
<path d="M194.461 27.6304C194.34 27.6673 194.21 27.6655 194.09 27.6254C193.97 27.5853 193.865 27.5088 193.79 27.4064C192.135 25.1218 188.497 25.1517 188.467 25.1517C188.305 25.1517 188.149 25.0872 188.035 24.9724C187.92 24.8576 187.856 24.7018 187.856 24.5395C187.854 24.4598 187.868 24.3805 187.897 24.3063C187.926 24.2321 187.969 24.1645 188.025 24.1074C188.081 24.0504 188.147 24.005 188.22 23.9741C188.294 23.9432 188.373 23.9272 188.452 23.9272C188.631 23.9272 192.747 23.9273 194.775 26.6897C194.869 26.8206 194.907 26.9835 194.882 27.1429C194.857 27.3023 194.77 27.4453 194.64 27.5408L194.461 27.6304Z" fill="#263238"/>
<path d="M175.83 21.1652C175.725 21.1576 175.623 21.1236 175.535 21.0661C175.446 21.0087 175.373 20.9298 175.323 20.8366C175.25 20.692 175.238 20.5244 175.288 20.3705C175.338 20.2166 175.448 20.0889 175.592 20.0154C176.444 19.5576 177.393 19.3093 178.36 19.2911C179.327 19.2729 180.285 19.4854 181.154 19.9109C181.291 19.9948 181.391 20.1284 181.433 20.2841C181.474 20.4398 181.455 20.6056 181.377 20.7471C181.296 20.8876 181.163 20.9902 181.006 21.0322C180.85 21.0742 180.683 21.0522 180.542 20.971C179.851 20.6442 179.091 20.486 178.327 20.5094C177.562 20.5327 176.814 20.737 176.143 21.1054C176.044 21.1468 175.938 21.1672 175.83 21.1652Z" fill="#263238"/>
<path d="M252.803 412.921H252.609C252.321 412.855 252.054 412.716 251.835 412.517C251.616 412.318 251.451 412.066 251.356 411.786C251.273 411.621 251.236 411.437 251.249 411.253C251.262 411.069 251.325 410.892 251.431 410.741C252.37 409.397 257.023 409.561 257.545 409.591C257.605 409.589 257.664 409.606 257.712 409.642C257.761 409.677 257.796 409.727 257.813 409.785C257.833 409.841 257.837 409.902 257.824 409.96C257.81 410.018 257.781 410.072 257.739 410.113C256.59 411.248 254.398 413.115 252.803 412.921ZM256.829 410.158C254.965 410.158 252.475 410.367 251.983 411.069C251.942 411.14 251.921 411.219 251.921 411.301C251.921 411.382 251.942 411.462 251.983 411.532C252.044 411.72 252.151 411.889 252.294 412.025C252.437 412.161 252.612 412.258 252.803 412.308C253.653 412.503 255.129 411.681 256.829 410.158Z" fill="#3F3F3F"/>
<path d="M257.081 410.157C255.485 409.963 252.607 408.873 252.219 407.619C252.14 407.39 252.14 407.141 252.222 406.913C252.303 406.685 252.46 406.491 252.667 406.365C252.849 406.22 253.061 406.116 253.288 406.062C253.515 406.008 253.751 406.004 253.979 406.051C255.813 406.409 257.722 409.59 257.811 409.724C257.834 409.771 257.845 409.822 257.845 409.874C257.845 409.925 257.834 409.976 257.811 410.023C257.783 410.069 257.744 410.107 257.697 410.133C257.65 410.159 257.597 410.173 257.543 410.172C257.389 410.182 257.234 410.177 257.081 410.157ZM253.785 406.633C253.519 406.603 253.251 406.678 253.04 406.843C252.726 407.081 252.741 407.276 252.801 407.41C253.099 408.261 255.41 409.321 256.961 409.53C256.275 408.5 254.963 406.857 253.875 406.648L253.785 406.633Z" fill="#3F3F3F"/>
<path d="M164.884 443.65C163.785 443.754 162.684 443.474 161.768 442.859C161.559 442.675 161.399 442.443 161.303 442.182C161.207 441.921 161.177 441.641 161.216 441.365C161.223 441.198 161.273 441.036 161.362 440.895C161.451 440.753 161.575 440.637 161.723 440.559C163.304 439.678 168.433 442.306 169 442.605C169.055 442.634 169.101 442.68 169.13 442.736C169.159 442.792 169.171 442.856 169.164 442.918C169.158 442.981 169.131 443.04 169.088 443.086C169.045 443.132 168.987 443.163 168.925 443.172C167.597 443.461 166.243 443.621 164.884 443.65ZM162.588 440.992C162.393 440.981 162.199 441.017 162.021 441.097C161.962 441.13 161.913 441.178 161.876 441.235C161.84 441.292 161.818 441.358 161.812 441.425C161.79 441.606 161.81 441.79 161.873 441.961C161.935 442.133 162.037 442.287 162.17 442.411C162.946 443.112 165.063 443.232 167.911 442.754C166.248 441.871 164.449 441.275 162.588 440.992Z" fill="#3F3F3F"/>
<path d="M168.867 443.202H168.748C167.256 442.515 164.185 439.737 164.423 438.274C164.423 437.931 164.722 437.498 165.557 437.408C165.859 437.376 166.165 437.407 166.456 437.499C166.746 437.592 167.013 437.744 167.242 437.946C168.867 439.289 169.165 442.754 169.165 442.903C169.173 442.955 169.167 443.007 169.145 443.055C169.124 443.103 169.09 443.143 169.046 443.172C168.991 443.201 168.928 443.212 168.867 443.202ZM165.81 437.975H165.616C165.064 437.975 165.035 438.259 165.02 438.334C164.871 439.2 166.928 441.395 168.494 442.336C168.374 440.873 167.8 439.484 166.854 438.364C166.569 438.104 166.195 437.965 165.81 437.975Z" fill="#3F3F3F"/>
<path d="M189.149 30.1249L186.867 28.8706C186.867 28.8706 187.687 31.0507 189.149 30.1249Z" fill="#263238"/>
<path d="M213.466 150.103L214.793 154.777C214.972 155.15 214.555 155.523 213.943 155.523H160.158C159.695 155.523 159.308 155.284 159.278 154.986L158.801 150.312C158.801 149.984 159.174 149.715 159.695 149.715H212.557C212.729 149.688 212.906 149.711 213.067 149.779C213.227 149.848 213.366 149.96 213.466 150.103Z" fill="#3F3F3F"/>
<path opacity="0.2" d="M213.466 150.103L214.793 154.777C214.972 155.15 214.555 155.523 213.943 155.523H160.158C159.695 155.523 159.308 155.284 159.278 154.986L158.801 150.312C158.801 149.984 159.174 149.715 159.695 149.715H212.557C212.729 149.688 212.906 149.711 213.067 149.779C213.227 149.848 213.366 149.96 213.466 150.103Z" fill="black"/>
<path d="M206.183 156.016H207.6C207.883 156.016 208.092 155.881 208.077 155.702L207.406 149.625C207.406 149.445 207.138 149.296 206.869 149.296H205.378C205.095 149.296 204.871 149.445 204.901 149.625L205.557 155.702C205.647 155.881 205.9 156.016 206.183 156.016Z" fill="#3F3F3F"/>
<path opacity="0.4" d="M206.183 156.016H207.6C207.883 156.016 208.092 155.881 208.077 155.702L207.406 149.625C207.406 149.445 207.138 149.296 206.869 149.296H205.378C205.095 149.296 204.871 149.445 204.901 149.625L205.557 155.702C205.647 155.881 205.9 156.016 206.183 156.016Z" fill="white"/>
<path d="M164.201 156.016H165.617C165.901 156.016 166.109 155.881 166.095 155.702L165.438 149.625C165.438 149.446 165.17 149.296 164.887 149.296H163.47C163.187 149.296 162.978 149.446 162.993 149.625L163.649 155.702C163.679 155.881 163.917 156.016 164.201 156.016Z" fill="#3F3F3F"/>
<path opacity="0.4" d="M164.201 156.016H165.617C165.901 156.016 166.109 155.881 166.095 155.702L165.438 149.625C165.438 149.446 165.17 149.296 164.887 149.296H163.47C163.187 149.296 162.978 149.446 162.993 149.625L163.649 155.702C163.679 155.881 163.917 156.016 164.201 156.016Z" fill="white"/>
<path d="M185.103 156.016H186.594C186.877 156.016 187.086 155.881 187.071 155.702L186.415 149.625C186.415 149.446 186.147 149.296 185.863 149.296H184.447C184.163 149.296 183.955 149.446 183.97 149.625L184.626 155.702C184.581 155.881 184.819 156.016 185.103 156.016Z" fill="#3F3F3F"/>
<path opacity="0.4" d="M185.103 156.016H186.594C186.877 156.016 187.086 155.881 187.071 155.702L186.415 149.625C186.415 149.446 186.147 149.296 185.863 149.296H184.447C184.163 149.296 183.955 149.446 183.97 149.625L184.626 155.702C184.581 155.881 184.819 156.016 185.103 156.016Z" fill="white"/>
<path d="M181.319 163.602L168.645 157.928L172.253 170.515C172.253 170.515 180.305 172.337 183.809 168.291L181.319 163.602Z" fill="#FFB573"/>
<path d="M228.018 90.6284C228.599 95.0333 229.062 99.4681 229.584 103.873L230.926 117.163C231.403 121.642 231.761 126.017 232.178 130.452L232.73 137.097L232.879 138.769C232.879 138.933 232.879 139.62 232.879 140.098C232.879 140.576 232.879 141.128 232.879 141.591C232.657 143.489 232.053 145.323 231.105 146.982C229.569 149.536 227.542 151.76 225.14 153.522C223.126 155.042 220.992 156.396 218.758 157.568C214.581 159.73 210.238 161.552 205.77 163.019C201.401 164.512 197.017 165.751 192.618 166.856C188.219 167.961 183.82 168.872 179.272 169.574L177.781 163.228C181.882 161.869 186.072 160.48 190.143 158.912C194.214 157.344 198.285 155.806 202.191 154.03C206.037 152.344 209.763 150.399 213.345 148.206C214.996 147.207 216.563 146.074 218.027 144.816C219.176 143.885 220.133 142.739 220.846 141.442C221.001 141.158 221.083 140.84 221.084 140.516C221.084 140.516 221.084 140.516 221.084 140.397C221.084 140.277 221.084 140.397 221.084 140.068L220.846 138.426L219.891 131.811C219.31 127.331 218.654 122.986 218.117 118.566L216.432 105.321C215.955 100.842 215.403 96.4817 214.941 92.0469L228.018 90.6284Z" fill="#FFB573"/>
<path d="M221.936 75.1294C227.155 76.7122 233.447 94.75 233.447 94.75L215.151 113.609C215.151 113.609 205.757 94.1975 207.949 87.4483C210.245 80.4004 215.971 73.3077 221.936 75.1294Z" fill="#3F3F3F"/>
<path d="M158.164 160.54L161.743 170.903L172.255 170.515L168.647 157.927L158.164 160.54Z" fill="#FFB573"/>
<path d="M335.434 123.598C338.863 99.05 321.745 79.1458 297.23 79.1458H476.347C500.876 79.1458 517.98 99.05 514.565 123.598H335.434Z" fill="#263238"/>
<path opacity="0.7" d="M335.434 123.598C338.863 99.05 321.745 79.1458 297.23 79.1458H476.347C500.876 79.1458 517.98 99.05 514.565 123.598H335.434Z" fill="#3F3F3F"/>
<path d="M297.224 79.1458H476.341C451.826 79.1458 429.176 99.05 425.761 123.598L385.261 414.532C381.847 439.096 359.196 459 334.682 459H244.348C219.834 459 202.73 439.096 206.145 414.532L246.63 123.598C250.059 99.05 272.695 79.1458 297.224 79.1458Z" fill="#F0F0F0"/>
<path d="M296.465 414.532C293.05 439.095 310.153 459 334.683 459H155.551C131.037 459 113.933 439.095 117.348 414.532H296.465Z" fill="#263238"/>
<path opacity="0.7" d="M296.465 414.532C293.05 439.095 310.153 459 334.683 459H155.551C131.037 459 113.933 439.095 117.348 414.532H296.465Z" fill="#3F3F3F"/>
<path opacity="0.4" d="M325.188 169.649H394.541C395.552 169.601 396.516 169.212 397.277 168.545C398.038 167.877 398.551 166.972 398.732 165.975C398.811 165.518 398.788 165.048 398.665 164.6C398.542 164.153 398.321 163.738 398.019 163.385C397.717 163.033 397.341 162.752 396.917 162.562C396.494 162.372 396.034 162.278 395.57 162.287H326.217C325.2 162.319 324.225 162.705 323.461 163.378C322.696 164.051 322.189 164.969 322.027 165.975C321.947 166.432 321.97 166.901 322.093 167.348C322.217 167.795 322.437 168.21 322.74 168.561C323.042 168.912 323.419 169.192 323.842 169.38C324.265 169.568 324.725 169.66 325.188 169.649Z" fill="#A8ADAF"/>
<path opacity="0.4" d="M323.278 183.341H374.26C375.276 183.309 376.248 182.926 377.013 182.256C377.777 181.586 378.285 180.671 378.45 179.668C378.53 179.211 378.507 178.742 378.384 178.295C378.261 177.848 378.04 177.433 377.738 177.082C377.435 176.731 377.059 176.451 376.635 176.263C376.212 176.075 375.752 175.983 375.289 175.994H324.307C323.291 176.023 322.317 176.405 321.552 177.076C320.787 177.746 320.279 178.663 320.117 179.668C320.037 180.125 320.06 180.593 320.183 181.041C320.306 181.488 320.527 181.902 320.83 182.253C321.132 182.604 321.508 182.884 321.932 183.072C322.355 183.26 322.815 183.352 323.278 183.341Z" fill="#A8ADAF"/>
<path opacity="0.4" d="M294.514 185.505C304.107 176.544 305.572 162.505 297.786 154.147C290 145.789 275.912 146.278 266.319 155.239C256.726 164.2 255.261 178.24 263.047 186.598C270.833 194.955 284.921 194.467 294.514 185.505Z" fill="white"/>
<path d="M260.649 170.454C260.17 173.64 260.54 176.896 261.723 179.891C263.01 183.043 265.227 185.726 268.079 187.58C270.93 189.435 274.279 190.373 277.678 190.269C281.419 190.18 285.083 189.191 288.361 187.384C291.639 185.578 294.434 183.008 296.511 179.891C298.454 177.073 299.72 173.843 300.209 170.454C301.7 159.524 294.11 150.655 283.18 150.655C277.71 150.812 272.466 152.875 268.353 156.49C264.24 160.105 261.515 165.043 260.649 170.454Z" fill="white"/>
<path opacity="0.4" d="M266.035 177.921C267.021 180.337 268.72 182.393 270.906 183.816C273.091 185.238 275.658 185.958 278.263 185.88C281.134 185.813 283.948 185.055 286.466 183.67C288.983 182.285 291.131 180.313 292.727 177.921C289.011 175.235 284.53 173.816 279.948 173.874C275.027 173.916 270.213 175.316 266.035 177.921Z" fill="#263238"/>
<path opacity="0.4" d="M274.337 165.527C274.185 166.371 274.224 167.237 274.45 168.064C274.675 168.891 275.082 169.657 275.641 170.306C276.199 170.955 276.895 171.472 277.678 171.818C278.461 172.164 279.311 172.331 280.167 172.306C282.038 172.252 283.831 171.545 285.236 170.307C286.641 169.069 287.57 167.378 287.861 165.527C288.012 164.685 287.974 163.821 287.749 162.996C287.525 162.171 287.119 161.407 286.562 160.759C286.005 160.111 285.31 159.595 284.529 159.25C283.748 158.905 282.899 158.738 282.046 158.763C280.175 158.815 278.382 159.52 276.975 160.755C275.567 161.989 274.634 163.677 274.337 165.527Z" fill="#263238"/>
<path opacity="0.4" d="M316.856 229.481H340.252C341.268 229.449 342.24 229.066 343.005 228.396C343.769 227.726 344.277 226.811 344.442 225.808C344.522 225.351 344.499 224.882 344.376 224.435C344.253 223.987 344.032 223.573 343.73 223.222C343.427 222.871 343.051 222.591 342.627 222.403C342.204 222.215 341.744 222.123 341.281 222.134H317.87C316.856 222.163 315.883 222.546 315.121 223.217C314.359 223.888 313.854 224.804 313.695 225.808C313.615 226.264 313.638 226.733 313.761 227.18C313.885 227.628 314.105 228.042 314.408 228.393C314.71 228.744 315.087 229.024 315.51 229.212C315.933 229.4 316.393 229.492 316.856 229.481Z" fill="#A8ADAF"/>
<path opacity="0.4" d="M354.38 229.481H387.811C388.826 229.449 389.799 229.066 390.563 228.396C391.328 227.726 391.836 226.811 392.001 225.808C392.084 225.35 392.063 224.88 391.941 224.432C391.819 223.984 391.598 223.568 391.295 223.216C390.992 222.864 390.614 222.584 390.19 222.397C389.765 222.21 389.304 222.12 388.84 222.134H355.409C354.392 222.163 353.418 222.545 352.653 223.216C351.888 223.886 351.381 224.803 351.218 225.808C351.139 226.264 351.162 226.733 351.285 227.18C351.408 227.628 351.629 228.042 351.931 228.393C352.234 228.744 352.61 229.024 353.033 229.212C353.457 229.4 353.917 229.492 354.38 229.481Z" fill="#A8ADAF"/>
<path opacity="0.4" d="M314.96 243.189H372.265C373.283 243.157 374.257 242.771 375.022 242.098C375.786 241.425 376.293 240.507 376.455 239.5C376.535 239.043 376.512 238.575 376.389 238.127C376.266 237.68 376.045 237.266 375.742 236.915C375.44 236.563 375.064 236.284 374.64 236.096C374.217 235.908 373.757 235.816 373.294 235.827H315.974C314.962 235.862 313.992 236.247 313.231 236.917C312.47 237.586 311.964 238.499 311.799 239.5C311.717 239.958 311.738 240.429 311.86 240.878C311.982 241.327 312.203 241.743 312.505 242.096C312.808 242.449 313.185 242.73 313.61 242.919C314.035 243.108 314.496 243.2 314.96 243.189Z" fill="#A8ADAF"/>
<path opacity="0.4" d="M286.194 245.345C295.787 236.384 297.252 222.344 289.466 213.986C281.68 205.628 267.592 206.117 257.999 215.078C248.406 224.039 246.941 238.079 254.727 246.437C262.513 254.795 276.601 254.306 286.194 245.345Z" fill="white"/>
<path d="M252.313 230.182C251.838 233.369 252.213 236.625 253.402 239.619C254.677 242.767 256.88 245.451 259.718 247.313C262.555 249.175 265.891 250.127 269.283 250.042C273.024 249.955 276.689 248.967 279.967 247.161C283.246 245.354 286.041 242.783 288.116 239.664C290.072 236.852 291.343 233.62 291.829 230.227C293.32 219.297 285.73 210.427 274.8 210.427C269.344 210.593 264.116 212.655 260.012 216.26C255.909 219.864 253.187 224.787 252.313 230.182Z" fill="white"/>
<path opacity="0.4" d="M257.695 237.797C258.684 240.214 260.386 242.271 262.574 243.693C264.761 245.115 267.331 245.835 269.938 245.756C272.807 245.687 275.618 244.928 278.132 243.542C280.647 242.157 282.792 240.187 284.387 237.797C280.672 235.109 276.191 233.69 271.608 233.75C266.688 233.797 261.875 235.197 257.695 237.797Z" fill="#263238"/>
<path opacity="0.4" d="M266.02 225.36C265.869 226.202 265.908 227.067 266.132 227.893C266.357 228.718 266.763 229.484 267.319 230.133C267.876 230.782 268.57 231.299 269.352 231.646C270.133 231.993 270.981 232.161 271.836 232.139C273.708 232.085 275.503 231.379 276.911 230.141C278.318 228.903 279.25 227.212 279.545 225.36C279.696 224.518 279.658 223.653 279.433 222.828C279.208 222.003 278.802 221.239 278.245 220.591C277.688 219.943 276.994 219.428 276.212 219.082C275.431 218.737 274.583 218.571 273.729 218.595C271.859 218.648 270.065 219.352 268.658 220.587C267.251 221.822 266.318 223.51 266.02 225.36Z" fill="#263238"/>
<path opacity="0.4" d="M308.53 289.328H349.283C350.3 289.296 351.275 288.911 352.04 288.238C352.804 287.565 353.311 286.646 353.473 285.64C353.553 285.183 353.53 284.714 353.407 284.267C353.284 283.82 353.063 283.406 352.76 283.054C352.458 282.703 352.082 282.423 351.658 282.235C351.235 282.047 350.775 281.955 350.312 281.967H309.544C308.529 281.998 307.556 282.382 306.792 283.052C306.027 283.722 305.519 284.636 305.354 285.64C305.272 286.099 305.293 286.571 305.416 287.021C305.539 287.471 305.76 287.888 306.065 288.242C306.369 288.595 306.748 288.876 307.175 289.064C307.601 289.252 308.064 289.342 308.53 289.328Z" fill="#A8ADAF"/>
<path opacity="0.4" d="M306.558 303.021H370.096C371.108 302.972 372.074 302.581 372.835 301.911C373.597 301.241 374.108 300.331 374.286 299.332C374.363 298.875 374.338 298.405 374.213 297.958C374.088 297.511 373.865 297.097 373.562 296.746C373.258 296.395 372.881 296.116 372.457 295.928C372.033 295.74 371.573 295.648 371.11 295.659H307.587C306.572 295.69 305.599 296.074 304.835 296.744C304.07 297.414 303.562 298.329 303.397 299.332C303.315 299.79 303.336 300.261 303.458 300.71C303.58 301.159 303.8 301.575 304.103 301.928C304.406 302.281 304.783 302.562 305.208 302.751C305.632 302.94 306.094 303.032 306.558 303.021Z" fill="#A8ADAF"/>
<path opacity="0.2" d="M237.061 361.315H334.343C335.768 361.268 337.133 360.727 338.204 359.785C339.276 358.843 339.988 357.558 340.218 356.148C340.332 355.504 340.3 354.842 340.126 354.212C339.951 353.581 339.638 352.997 339.209 352.504C338.78 352.01 338.247 351.618 337.647 351.357C337.048 351.097 336.398 350.974 335.745 350.997H238.492C237.069 351.038 235.705 351.575 234.635 352.516C233.566 353.456 232.857 354.741 232.632 356.148C232.516 356.79 232.545 357.45 232.716 358.079C232.887 358.708 233.196 359.291 233.62 359.786C234.044 360.281 234.573 360.674 235.168 360.939C235.763 361.203 236.41 361.332 237.061 361.315Z" fill="#A8ADAF"/>
<path opacity="0.2" d="M234.391 380.518H305.877C307.301 380.473 308.665 379.933 309.735 378.99C310.804 378.047 311.512 376.76 311.737 375.351C311.851 374.707 311.819 374.045 311.645 373.414C311.47 372.784 311.157 372.2 310.728 371.706C310.299 371.212 309.765 370.821 309.166 370.56C308.567 370.299 307.916 370.176 307.263 370.2H235.823C234.399 370.243 233.034 370.781 231.962 371.72C230.891 372.66 230.178 373.944 229.947 375.351C229.848 375.992 229.889 376.646 230.067 377.27C230.245 377.893 230.556 378.47 230.978 378.961C231.401 379.453 231.925 379.846 232.514 380.115C233.103 380.384 233.744 380.521 234.391 380.518Z" fill="#A8ADAF"/>
<path opacity="0.2" d="M270.879 126.271H386.876C387.604 126.239 388.299 125.955 388.843 125.468C389.386 124.981 389.745 124.32 389.858 123.598C389.915 123.267 389.899 122.927 389.809 122.603C389.719 122.279 389.559 121.979 389.339 121.724C389.119 121.47 388.846 121.268 388.538 121.132C388.231 120.997 387.897 120.931 387.561 120.941H271.625C270.9 120.978 270.21 121.262 269.667 121.745C269.125 122.228 268.764 122.882 268.643 123.598C268.586 123.926 268.602 124.261 268.688 124.581C268.774 124.902 268.929 125.2 269.142 125.454C269.355 125.708 269.621 125.913 269.921 126.055C270.221 126.196 270.548 126.27 270.879 126.271Z" fill="#A8ADAF"/>
<path opacity="0.4" d="M277.866 305.182C287.459 296.221 288.924 282.181 281.138 273.823C273.352 265.465 259.264 265.954 249.671 274.915C240.077 283.876 238.613 297.916 246.398 306.274C254.184 314.632 268.273 314.143 277.866 305.182Z" fill="white"/>
<path d="M243.926 290.074C243.447 293.259 243.818 296.515 245 299.511C246.291 302.659 248.51 305.337 251.36 307.189C254.211 309.04 257.558 309.977 260.955 309.874C264.694 309.785 268.357 308.798 271.634 306.994C274.912 305.19 277.709 302.624 279.788 299.511C281.729 296.692 282.994 293.462 283.486 290.074C284.977 279.129 277.387 270.259 266.457 270.259C260.985 270.417 255.739 272.483 251.625 276.1C247.512 279.718 244.789 284.66 243.926 290.074Z" fill="white"/>
<path opacity="0.4" d="M249.371 297.645C250.36 300.062 252.062 302.12 254.249 303.542C256.437 304.964 259.006 305.684 261.613 305.604C264.483 305.535 267.293 304.776 269.808 303.391C272.323 302.006 274.468 300.035 276.063 297.645C272.35 294.952 267.867 293.533 263.283 293.599C258.362 293.634 253.546 295.034 249.371 297.645Z" fill="#263238"/>
<path opacity="0.4" d="M257.678 285.207C257.529 286.049 257.57 286.914 257.796 287.739C258.023 288.564 258.43 289.328 258.988 289.976C259.547 290.623 260.242 291.138 261.024 291.483C261.805 291.829 262.654 291.995 263.508 291.971C265.377 291.918 267.168 291.213 268.573 289.978C269.978 288.743 270.908 287.055 271.202 285.207C271.353 284.365 271.315 283.499 271.09 282.674C270.865 281.848 270.46 281.083 269.903 280.434C269.346 279.785 268.652 279.268 267.871 278.921C267.09 278.574 266.241 278.405 265.387 278.428C263.514 278.481 261.719 279.188 260.312 280.425C258.904 281.663 257.972 283.354 257.678 285.207Z" fill="#263238"/>
</svg>
