<svg width="565" height="390" viewBox="0 0 565 390" fill="none" xmlns="http://www.w3.org/2000/svg">
<path d="M287.048 390C440.557 390 565.001 379.315 565.001 366.134C565.001 352.953 440.557 342.268 287.048 342.268C133.539 342.268 9.0957 352.953 9.0957 366.134C9.0957 379.315 133.539 390 287.048 390Z" fill="#DEDEDE"/>
<path d="M143.025 220.157L145.991 237.6L166.084 344.006H169.326L154.719 237.6L152.553 220.157H143.025Z" fill="#DBDBDB"/>
<path d="M152.553 220.157H143.025L145.991 237.6H154.719L152.553 220.157Z" fill="#A6A6A6"/>
<path d="M79.9512 344.006H83.1928L103.272 237.6L106.239 220.157H96.7105L94.5582 237.6L79.9512 344.006Z" fill="#DBDBDB"/>
<path d="M96.709 220.157L94.5566 237.6H103.271L106.237 220.157H96.709Z" fill="#A6A6A6"/>
<path d="M19.6992 344.006H22.9408L43.0205 237.599L45.9865 220.157H36.4717L34.3062 237.599L19.6992 344.006Z" fill="#DBDBDB"/>
<path d="M34.3066 237.599H43.021L45.987 220.157H36.4721L34.3066 237.599Z" fill="#A6A6A6"/>
<path d="M24.8301 228.344H172.029V213.141H116.921L98.4031 107.456H30.4471L24.8301 228.344Z" fill="#DBDBDB"/>
<path d="M24.8301 228.344H32.862L38.0853 107.456H30.4471L24.8301 228.344Z" fill="#A6A6A6"/>
<path d="M177.568 362.645C174.642 363.006 94.7559 344.727 92.1573 342.255C91.8423 341.985 95.622 326.936 95.622 326.936C96.9344 320.745 117.67 270.206 117.67 270.206L169.904 282.847L147.777 329.691C147.777 329.691 157.725 336.295 166.282 342.564C170.059 345.178 173.67 348.015 177.096 351.06C179.668 354.098 180.482 362.311 177.568 362.645Z" fill="#EB9481"/>
<path d="M177.555 362.645C174.642 363.006 94.7559 344.727 92.1573 342.255C91.8423 341.985 95.622 326.936 95.622 326.936C96.042 324.903 98.5618 318.067 101.777 309.803L151.753 321.234L147.816 329.691C147.816 329.691 157.777 336.308 166.334 342.564C170.12 345.171 173.737 348.009 177.161 351.06C179.668 354.111 180.482 362.311 177.555 362.645Z" fill="#EBEBEB"/>
<path d="M177.791 362.865C174.772 363.174 94.2306 345.474 91.6058 342.886C90.5952 341.934 97.7347 316.484 97.7741 316.33L149.312 327.503L149.102 328.366C149.102 328.366 174.996 347.842 177.581 350.97C180.166 354.098 180.809 362.569 177.791 362.865Z" fill="#455A64"/>
<path d="M177.58 359.556C164.076 356.248 109.335 344.109 95.7127 341.869C95.5946 341.869 95.5815 341.933 95.7127 341.959C109.02 345.524 163.957 357.2 177.554 359.775C177.816 359.878 177.869 359.685 177.58 359.556Z" fill="#263238"/>
<path d="M153.25 328.108C148.131 325.958 141.438 325.327 136.477 328.108C136.293 328.211 136.477 328.481 136.635 328.468C142.109 327.97 147.622 328.052 153.079 328.713C153.145 328.701 153.206 328.672 153.256 328.628C153.305 328.584 153.341 328.527 153.359 328.463C153.377 328.4 153.376 328.333 153.357 328.27C153.337 328.207 153.3 328.151 153.25 328.108Z" fill="#263238"/>
<path d="M156.57 331.236C151.452 329.086 144.758 328.455 139.797 331.236C139.614 331.339 139.797 331.609 139.955 331.596C145.429 331.098 150.943 331.18 156.399 331.841C156.465 331.829 156.527 331.8 156.576 331.756C156.626 331.712 156.662 331.654 156.679 331.591C156.697 331.528 156.697 331.461 156.677 331.398C156.658 331.335 156.621 331.279 156.57 331.236Z" fill="#263238"/>
<path d="M159.904 334.364C154.786 332.215 148.092 331.571 143.131 334.364C142.948 334.48 143.131 334.738 143.289 334.725C148.764 334.238 154.277 334.324 159.733 334.982C159.802 334.973 159.867 334.944 159.919 334.899C159.972 334.854 160.009 334.795 160.027 334.729C160.046 334.663 160.044 334.593 160.022 334.528C160 334.464 159.959 334.407 159.904 334.364Z" fill="#263238"/>
<path d="M162.802 318.221C161.345 314.939 157.146 315.351 154.495 316.689C149.991 319.082 146.208 322.594 143.523 326.872C143.51 326.89 143.501 326.912 143.498 326.934C143.494 326.957 143.497 326.98 143.504 327.001C143.512 327.023 143.525 327.042 143.542 327.058C143.559 327.073 143.579 327.085 143.602 327.091C143.536 327.49 143.799 327.992 144.297 327.927C149.074 327.297 154.258 327.206 158.734 325.147C161.293 323.963 164.167 321.337 162.802 318.221ZM151.332 325.52C148.996 325.881 146.647 326.138 144.324 326.589C146.406 324.543 148.597 322.605 150.886 320.783C152.005 319.917 153.18 319.121 154.403 318.402C156.319 317.333 163.301 315.711 161.044 321.246C159.81 324.297 154.127 325.082 151.332 325.52Z" fill="#263238"/>
<path d="M130.254 322.521C134.191 325.327 139.323 326.383 143.903 327.825C144.007 327.847 144.116 327.845 144.219 327.819C144.322 327.793 144.418 327.744 144.499 327.675C144.579 327.606 144.642 327.52 144.682 327.423C144.722 327.326 144.739 327.221 144.73 327.117C144.753 327.116 144.776 327.11 144.796 327.099C144.817 327.088 144.834 327.073 144.847 327.054C144.86 327.035 144.868 327.013 144.87 326.99C144.873 326.968 144.87 326.945 144.861 326.924C143.018 322.236 139.949 318.107 135.963 314.952C133.614 313.15 129.559 312.004 127.511 314.952C125.464 317.9 127.931 320.938 130.254 322.521ZM128.706 318.26C127.511 312.416 134.073 315.261 135.753 316.651C136.842 317.581 137.863 318.583 138.811 319.651C140.714 321.851 142.501 324.146 144.166 326.525C141.961 325.662 139.704 324.993 137.459 324.22C134.756 323.268 129.362 321.478 128.706 318.26Z" fill="#263238"/>
<path d="M151.859 327.928L96.1344 315.699C96.1344 315.699 142.068 211.133 138.026 205.843C135.992 203.191 84.3753 202.418 67.9572 188.773C46.6307 171.06 60.9359 143.976 60.9359 143.976L118.576 142.302C118.576 142.302 117.881 154.12 120.138 155.896C121.621 157.08 190.299 162.744 197.845 185.504C207.058 213.283 151.859 327.928 151.859 327.928Z" fill="#263238"/>
<path d="M153.447 318.041C151.977 317.436 137.593 313.433 134.365 312.635C127.881 311 121.385 309.404 114.862 307.898C111.463 307.112 104.179 305.413 103.746 305.452C103.708 305.462 103.673 305.485 103.649 305.516C103.625 305.548 103.611 305.586 103.611 305.626C103.611 305.665 103.625 305.703 103.649 305.735C103.673 305.766 103.708 305.789 103.746 305.799C110.098 307.743 116.529 309.442 122.947 311.154C129.364 312.867 151.439 318.157 153.355 318.376C153.513 318.363 153.657 318.132 153.447 318.041Z" fill="#37474F"/>
<path d="M147.883 201.221C146.569 200.429 145.067 199.986 143.526 199.934L118.59 195.827C110.808 194.54 102.986 193.407 95.2297 191.965C88.8121 190.755 82.2894 189.12 76.738 185.709C71.2468 182.334 67.19 177.12 65.3201 171.034C63.5611 164.985 63.0612 158.65 63.8502 152.407C64.0077 150.888 64.2833 149.369 64.5721 147.876C64.5721 147.852 64.5624 147.829 64.5452 147.812C64.5279 147.795 64.5046 147.786 64.4802 147.786C64.4558 147.786 64.4325 147.795 64.4152 147.812C64.398 147.829 64.3883 147.852 64.3883 147.876C62.2885 159.462 62.0916 172.888 70.9503 182.118C75.2681 186.623 81.187 189.262 87.2372 190.974C94.1528 192.698 101.164 194.031 108.236 194.965L133.171 199.058C137.108 199.702 141.242 200.217 145.219 201.028C146.017 201.135 146.767 201.461 147.384 201.967C147.673 202.376 147.856 202.847 147.918 203.34C147.98 203.834 147.918 204.335 147.739 204.799C147.332 206.73 146.807 208.661 146.243 210.515C141.702 225.705 111.044 298.243 110.139 299.916C110.047 300.084 110.335 300.225 110.427 300.058C118.065 286.722 140.271 230.699 145.324 216.321C146.654 212.663 147.745 208.927 148.592 205.134C148.933 203.718 149.104 202.173 147.883 201.221Z" fill="#37474F"/>
<path d="M286.366 363.482C283.571 364.409 203.619 363.302 200.574 361.397C199.393 360.29 198.448 350.262 197.727 337.788L183.973 284.289L235.406 283.877L250.472 337.003C250.472 337.003 261.575 341.534 271.234 346.014C275.471 347.834 279.591 349.906 283.571 352.219C286.681 354.703 289.161 362.581 286.366 363.482Z" fill="#EB9481"/>
<path d="M288.006 363.546C285.118 364.486 202.582 364.087 199.445 362.118C198.251 361.397 197.608 349.605 197.24 335.355V334.905L250.484 334.57V335.458C250.484 335.458 281.982 349.451 285.223 351.974C288.465 354.497 290.893 362.62 288.006 363.546Z" fill="#455A64"/>
<path d="M287.113 360.406C273.202 360.006 217.058 359.672 203.264 360.315C203.159 360.315 203.159 360.393 203.264 360.406C217.044 361.088 273.202 360.972 287.113 360.624C287.376 360.624 287.376 360.406 287.113 360.406Z" fill="#263238"/>
<path d="M256.417 334.75C250.944 333.721 244.251 334.519 240.038 338.316C239.881 338.458 240.038 338.689 240.274 338.625C245.517 337.004 250.918 335.93 256.39 335.42C256.481 335.423 256.569 335.391 256.636 335.331C256.702 335.27 256.741 335.187 256.745 335.098C256.748 335.009 256.716 334.923 256.654 334.857C256.593 334.792 256.507 334.754 256.417 334.75Z" fill="#263238"/>
<path d="M260.353 337.093C254.88 336.076 248.187 336.861 243.987 340.659C243.817 340.813 243.987 341.032 244.21 340.981C249.451 339.354 254.854 338.279 260.327 337.775C260.408 337.763 260.483 337.723 260.538 337.663C260.593 337.603 260.624 337.526 260.627 337.445C260.631 337.364 260.605 337.285 260.555 337.22C260.505 337.156 260.433 337.111 260.353 337.093Z" fill="#263238"/>
<path d="M264.29 339.449C258.818 338.419 252.125 339.217 247.925 343.015C247.754 343.169 247.925 343.388 248.148 343.337C253.387 341.705 258.791 340.63 264.264 340.131C264.346 340.119 264.42 340.079 264.475 340.019C264.53 339.959 264.562 339.882 264.565 339.801C264.568 339.72 264.542 339.641 264.492 339.577C264.442 339.512 264.371 339.467 264.29 339.449Z" fill="#263238"/>
<path d="M263.596 323.088C261.456 320.178 257.44 321.453 255.144 323.332C251.267 326.611 248.338 330.833 246.652 335.574C246.644 335.595 246.641 335.618 246.643 335.641C246.646 335.664 246.654 335.685 246.667 335.704C246.68 335.723 246.697 335.739 246.717 335.75C246.738 335.761 246.761 335.767 246.784 335.767C246.777 335.872 246.797 335.977 246.84 336.073C246.884 336.169 246.95 336.253 247.034 336.318C247.117 336.384 247.216 336.429 247.321 336.449C247.426 336.47 247.534 336.466 247.637 336.437C252.165 334.828 257.217 333.643 261.102 330.708C263.372 328.996 265.617 325.842 263.596 323.088ZM253.989 332.613C251.784 333.463 249.553 334.197 247.427 335.124C249.094 332.742 250.642 330.296 252.545 328.082C253.444 327.001 254.417 325.982 255.459 325.031C257.099 323.577 263.556 320.526 262.572 326.396C261.968 329.64 256.627 331.597 253.989 332.613Z" fill="#263238"/>
<path d="M232.741 334.106C237.255 336.012 242.439 335.947 247.177 336.424C247.676 336.424 247.925 335.96 247.846 335.561C247.863 335.548 247.876 335.531 247.885 335.512C247.895 335.493 247.899 335.473 247.899 335.452C247.899 335.431 247.895 335.41 247.885 335.391C247.876 335.372 247.863 335.356 247.846 335.342C245.027 331.15 241.129 327.761 236.547 325.52C233.856 324.233 229.644 323.976 228.305 327.31C226.966 330.644 230.116 332.999 232.741 334.106ZM230.3 330.245C227.859 324.787 234.893 326.19 236.862 327.207C238.111 327.877 239.312 328.63 240.458 329.459C242.859 331.159 244.972 333.141 247.19 335.059C244.841 334.686 242.492 334.506 240.143 334.209C237.308 333.888 231.638 333.283 230.3 330.27V330.245Z" fill="#263238"/>
<path d="M255.509 335.098H195.493C195.493 335.098 169.796 235.128 165.308 229.426C159.245 221.843 74.4242 222.011 56.2344 197.244C39.895 175.012 53.6883 143.538 53.6883 143.538L117.812 141.659C116.366 148.407 114.373 155.032 111.854 161.47C111.854 161.47 189.285 175.476 210.992 198.647C225.586 214.39 255.509 335.098 255.509 335.098Z" fill="#263238"/>
<path d="M123.064 157.157C121.198 157.562 119.375 158.135 117.617 158.869C115.78 159.551 113.956 160.337 112.184 161.186C108.698 162.882 105.307 164.76 102.026 166.812C101.921 166.876 102.026 167.018 102.131 166.966C105.596 165.19 109.192 163.606 112.788 162.087L118.037 159.899C119.827 159.232 121.58 158.471 123.287 157.62C123.497 157.453 123.379 157.106 123.064 157.157Z" fill="#37474F"/>
<path d="M119.273 141.62C118.538 144.491 117.882 147.387 117.055 150.232C116.661 151.519 116.281 152.871 115.742 154.094C115.322 155.162 114.666 156.385 113.406 156.668C111.95 156.939 111.543 155.716 111.661 154.544C111.779 153.373 112.133 151.905 112.396 150.618C112.698 149.125 113.013 147.631 113.288 146.138C113.42 145.392 113.564 144.645 113.695 143.898C113.695 143.705 113.879 142.276 113.984 141.864C113.984 141.864 113.984 141.929 114.063 141.929C114.083 141.929 114.103 141.921 114.118 141.906C114.133 141.892 114.141 141.872 114.141 141.852C114.141 141.736 114.141 141.723 114.141 141.633C114.122 141.62 114.099 141.613 114.076 141.613C114.052 141.613 114.029 141.62 114.01 141.633C113.721 141.774 113.708 142.148 113.616 142.431C113.38 143.152 113.144 143.886 112.921 144.619C112.514 145.984 112.12 147.361 111.766 148.739C111.412 150.116 111.07 151.506 110.716 152.896C110.352 153.921 110.253 155.018 110.427 156.089C110.558 156.598 110.854 157.052 111.271 157.382C111.687 157.711 112.202 157.899 112.737 157.917C112.737 158.02 112.619 158.11 112.58 158.2C112.448 158.483 112.356 158.792 112.251 159.075C112.146 159.359 112.041 159.668 111.95 159.976C111.911 160.12 111.884 160.266 111.871 160.414C111.871 160.582 111.871 160.749 111.871 160.916C111.865 160.971 111.879 161.026 111.909 161.073C111.939 161.119 111.985 161.154 112.038 161.172C112.091 161.19 112.149 161.19 112.202 161.171C112.255 161.153 112.3 161.117 112.33 161.071C112.409 160.929 112.514 160.813 112.606 160.672C112.689 160.519 112.759 160.36 112.816 160.195C112.908 159.899 113 159.616 113.065 159.32C113.131 159.024 113.236 158.741 113.288 158.445C113.302 158.269 113.302 158.093 113.288 157.917C113.902 157.869 114.489 157.65 114.981 157.286C115.807 156.611 116.417 155.717 116.74 154.712C117.173 153.514 117.514 152.279 117.869 151.056C118.758 148.028 119.381 144.932 119.732 141.8C119.824 141.401 119.352 141.285 119.273 141.62Z" fill="#37474F"/>
<path d="M249.303 324.594C247.704 324.411 246.096 324.312 244.486 324.297C242.806 324.22 241.113 324.156 239.42 324.104C236.1 324.014 232.766 323.95 229.446 323.937C222.753 323.937 216.046 323.937 209.353 324.014C205.862 324.079 198.368 324.169 197.962 324.297C197.916 324.297 197.873 324.315 197.841 324.346C197.809 324.378 197.791 324.42 197.791 324.465C197.791 324.509 197.809 324.552 197.841 324.583C197.873 324.615 197.916 324.632 197.962 324.632C204.602 324.98 211.256 325.083 217.923 325.211C224.59 325.34 231.218 325.43 237.859 325.314C239.709 325.314 241.546 325.224 243.384 325.173C245.329 325.188 247.274 325.106 249.211 324.928C249.447 324.902 249.526 324.619 249.303 324.594Z" fill="#37474F"/>
<path d="M172.254 230.249C171.698 228.443 170.852 226.735 169.747 225.19C168.41 223.881 166.689 223.012 164.826 222.706C148.827 218.406 132.317 216.476 116.044 213.463C108.019 212.049 100.09 210.153 92.3024 207.786C84.394 205.485 76.8369 202.151 69.8342 197.874C66.4124 195.723 63.5785 192.785 61.5792 189.314C59.7089 185.975 58.3806 182.37 57.642 178.63C55.8833 170.1 55.8833 161.311 57.642 152.781C58.0757 150.655 58.6277 148.553 59.2956 146.486C59.2956 146.358 59.125 146.306 59.0856 146.486C56.0749 154.708 54.8414 163.453 55.4634 172.167C56.054 179.75 57.9176 187.718 62.9047 193.717C65.4795 196.639 68.5971 199.055 72.0915 200.835C75.7474 202.807 79.5258 204.553 83.4043 206.061C90.9748 208.945 98.7693 211.226 106.713 212.884C122.947 216.411 139.522 218.188 155.744 221.728C157.739 222.165 159.681 222.629 161.728 223.131C163.778 223.455 165.765 224.084 167.621 224.997C169.537 226.169 170.246 228.512 170.941 230.468C171.768 232.631 197.859 319.29 198.502 321.414C198.526 321.483 198.578 321.54 198.644 321.573C198.711 321.606 198.788 321.612 198.859 321.591C198.931 321.569 198.99 321.521 199.027 321.457C199.063 321.393 199.072 321.318 199.053 321.247C196.887 312.352 173.947 234.497 172.254 230.249Z" fill="#37474F"/>
<path d="M167.515 232.553C166.899 230.661 166.374 228.691 164.576 227.481C162.778 226.271 137.094 222.963 134.207 222.525C134.076 222.525 134.023 222.706 134.207 222.731C136.687 223.13 160.455 227.301 162.528 227.996C163.43 228.248 164.235 228.76 164.838 229.464C165.458 230.433 165.902 231.5 166.151 232.618C166.886 234.87 167.607 237.123 168.342 239.376C169.799 243.907 171.269 248.387 172.66 252.97C174.235 258.119 176.033 263.525 177.398 268.739C177.503 269.138 178.08 268.945 178.002 268.558C176.19 258.775 168.277 234.909 167.515 232.553Z" fill="#37474F"/>
<path d="M112.223 161.625C124.081 163.022 135.801 165.377 147.264 168.666C158.814 171.841 170.113 175.838 181.071 180.625C187.213 183.328 193.171 186.353 199.064 189.533C199.182 189.597 199.064 189.765 198.959 189.7C188.323 184.311 177.336 179.616 166.07 175.643C154.893 171.644 143.454 168.388 131.83 165.898C125.268 164.508 118.706 163.427 112.144 162.345C111.658 162.32 111.777 161.573 112.223 161.625Z" fill="#37474F"/>
<path d="M110.15 88.4551C116.226 101.727 140.02 144.477 154.601 147C164.168 148.648 202.372 143.512 208.606 134.347C211.323 130.369 205.365 103.452 200.299 104.739C195.233 106.026 164.654 111.176 160.835 110.274C157.016 109.373 127.421 78.543 116.502 71.0125C97.7479 58.0496 106.869 81.2978 110.15 88.4551Z" fill="#EB9481"/>
<path d="M188.684 103.298L191.138 143.886C191.138 143.886 160.953 150.502 147.829 146.087C131.804 140.732 108.207 92.2142 104.966 84.233C99.7162 71.1414 101.029 63.1989 108.549 65.1041C111.449 65.825 115.268 68.052 119.953 72.0683C124.862 76.2519 153.026 103.426 161.95 108.55C166.767 111.42 188.684 103.298 188.684 103.298Z" fill="#FFC727"/>
<path opacity="0.6" d="M188.684 103.298L191.138 143.886C191.138 143.886 160.953 150.502 147.829 146.087C131.804 140.732 108.207 92.2142 104.966 84.233C99.7162 71.1414 101.029 63.1989 108.549 65.1041C111.449 65.825 115.268 68.052 119.953 72.0683C124.862 76.2519 153.026 103.426 161.95 108.55C166.767 111.42 188.684 103.298 188.684 103.298Z" fill="#00722D"/>
<path d="M183.317 142.47C182.766 136.484 181.44 111.897 181.519 106.567C181.519 106.207 181.768 106.117 181.808 106.503C183.894 124.396 183.317 136.535 183.553 142.431C183.553 142.585 183.33 142.624 183.317 142.47Z" fill="#263238"/>
<path opacity="0.6" d="M178.276 146.125C168.433 147.528 155.283 148.623 147.71 146.125C131.699 140.77 108.102 92.2526 104.86 84.2715C99.6107 71.1799 100.923 63.2374 108.443 65.1554C108.678 65.2078 108.91 65.2723 109.139 65.3485L178.276 146.125Z" fill="black"/>
<path d="M130.269 155.742C128.458 157.479 50.6457 165.422 50.2126 164.907C49.1889 163.53 63.7303 91.9055 94.8341 67.2284C100.32 62.8774 109.48 64.6538 113.628 67.3185C115.701 68.6057 121.502 78.904 123.077 88.0565C124.652 97.209 131.411 154.647 130.269 155.742Z" fill="#EBEBEB"/>
<path d="M96.9602 65.4387C96.9602 65.4387 105.451 108.717 105.727 110.493C106.003 112.27 104.769 160.44 104.769 160.44L47.0234 167.443C47.0234 167.443 53.5854 143.512 53.9004 142.366C54.2154 141.221 66.4863 101.521 79.6365 83.7181C91.6975 67.3439 96.9602 65.4387 96.9602 65.4387Z" fill="#FFC727"/>
<path opacity="0.6" d="M96.9602 65.4387C96.9602 65.4387 105.451 108.717 105.727 110.493C106.003 112.27 104.769 160.44 104.769 160.44L47.0234 167.443C47.0234 167.443 53.5854 143.512 53.9004 142.366C54.2154 141.221 66.4863 101.521 79.6365 83.7181C91.6975 67.3439 96.9602 65.4387 96.9602 65.4387Z" fill="#00722D"/>
<path d="M114.912 67.9619C114.912 67.9619 120.739 106.349 120.91 108.769C121.08 111.189 125.49 157.878 125.49 157.878L132.616 155.304C132.616 155.304 128.679 124.911 128.167 122.272C127.655 119.633 124.388 91.3775 123.141 86.0868C121.159 77.6422 114.912 67.9619 114.912 67.9619Z" fill="#FFC727"/>
<path opacity="0.6" d="M114.912 67.9619C114.912 67.9619 120.739 106.349 120.91 108.769C121.08 111.189 125.49 157.878 125.49 157.878L132.616 155.304C132.616 155.304 128.679 124.911 128.167 122.272C127.655 119.633 124.388 91.3775 123.141 86.0868C121.159 77.6422 114.912 67.9619 114.912 67.9619Z" fill="black"/>
<path d="M185.572 143.216L137.617 148.018L153.733 85.43L201.675 80.6414L185.572 143.216Z" fill="#EBEBEB"/>
<path d="M203.735 91.6863C206.439 96.7067 212.922 102.834 213.631 107.005C213.841 108.024 213.71 109.083 213.255 110.023C212.801 110.963 212.049 111.733 211.111 112.218C211.111 112.218 215.455 114.136 215.442 118.024C215.442 120.019 212.174 121.77 212.174 121.77C213.139 122.255 213.948 122.993 214.511 123.902C215.074 124.811 215.369 125.856 215.363 126.919C215.18 129.661 211.938 131 211.938 131C211.938 131 214.458 134.115 213.355 136.857C211.124 142.431 187.002 143.396 182.921 134.836C181.018 130.845 186.858 130.974 186.858 130.974C186.858 130.974 178.393 128.85 178.065 123.971C177.737 119.092 185.388 119.659 185.388 119.659C185.388 119.659 177.212 117.535 177.396 112.45C177.579 107.159 185.139 109 185.139 109C185.139 109 179.627 105.653 180.677 101.791C182.396 95.355 192.882 102.924 198.132 101.482L200.691 92.7933L203.735 91.6863Z" fill="#EB9481"/>
<path d="M208.88 98.9339C206.754 93.9522 212.883 87.4514 211.505 82.4053C209.694 75.5698 202.069 82.6499 200.717 92.7035L201.084 100.71L208.88 98.9339Z" fill="#EB9481"/>
<path d="M211.468 131.27C211.485 131.27 211.502 131.277 211.514 131.289C211.526 131.301 211.533 131.317 211.533 131.334C211.533 131.352 211.526 131.368 211.514 131.38C211.502 131.392 211.485 131.399 211.468 131.399C203.301 133.734 194.603 133.573 186.532 130.935C186.283 130.845 186.322 130.408 186.611 130.446C194.811 131.91 203.185 132.188 211.468 131.27Z" fill="#263238"/>
<path d="M212.307 121.809C212.399 121.809 212.425 121.95 212.307 121.976C204.197 124.216 193.698 124.01 185.167 119.826C184.878 119.685 184.76 119.26 185.167 119.402C191.02 121.77 204.564 122.774 212.307 121.809Z" fill="#263238"/>
<path d="M184.746 108.446C193.093 112.141 201.807 112.862 210.849 112.308C210.967 112.308 210.967 112.463 210.849 112.488C206.492 113.93 200.691 113.686 196.19 113.106C192.001 112.658 188.005 111.14 184.601 108.704C184.418 108.627 184.509 108.356 184.746 108.446Z" fill="#263238"/>
<path d="M79.2295 81.5039C56.0394 107.185 30.0539 150.36 41.4849 159.397C51.9841 167.649 89.6106 159.268 113.26 149.91C117.761 148.121 107.302 108.717 102.301 110.069C93.6659 112.411 79.9907 118.114 79.4395 118.281C78.1271 118.642 84.3741 103.323 92.0254 84.735C100.569 64.0098 92.4978 66.8032 79.2295 81.5039Z" fill="#EB9481"/>
<path d="M152.751 108.948C152.662 109.939 152.322 110.892 151.763 111.721C151.204 112.55 150.443 113.23 149.549 113.699C151.137 114.9 152.246 116.607 152.686 118.526C153.303 121.937 148.119 124.383 148.119 124.383C149.503 125.962 150.372 127.913 150.612 129.983C150.862 133.304 145.993 136.496 145.993 136.496C146.448 138.637 146.103 140.866 145.021 142.778C141.911 147.76 111.91 151.583 107.854 151.931L100.623 110.854C100.623 110.854 126.149 98.3413 132.974 99.1394C138.722 99.8217 153.25 102.898 152.751 108.948Z" fill="#EB9481"/>
<path d="M149.455 113.57C143.523 111.408 137.079 110.648 130.859 109.979C130.835 109.987 130.815 110.001 130.801 110.021C130.787 110.041 130.779 110.064 130.779 110.088C130.779 110.112 130.787 110.136 130.801 110.155C130.815 110.175 130.835 110.19 130.859 110.198C137.066 110.79 143.248 113.017 149.416 113.853C149.454 113.859 149.493 113.849 149.524 113.826C149.555 113.803 149.575 113.769 149.58 113.731C149.585 113.694 149.575 113.656 149.552 113.625C149.528 113.595 149.494 113.575 149.455 113.57Z" fill="#263238"/>
<path d="M148 123.907C146.605 123.54 145.166 123.358 143.721 123.367C142.199 123.277 140.663 123.212 139.141 123.174C136.083 123.096 133.025 123.084 129.954 123.174C129.81 123.174 129.784 123.38 129.954 123.38C132.999 123.457 136.057 123.586 139.141 123.804C140.663 123.907 142.186 124.023 143.708 124.152C145.137 124.362 146.585 124.418 148.026 124.319C148.068 124.302 148.104 124.271 148.129 124.233C148.153 124.194 148.164 124.149 148.161 124.104C148.159 124.059 148.141 124.016 148.112 123.981C148.084 123.945 148.044 123.92 148 123.907Z" fill="#263238"/>
<path d="M145.861 136.497C144.575 136.176 143.243 136.08 141.923 136.214H137.737C134.941 136.214 132.159 136.124 129.377 135.982C129.233 135.982 129.219 136.188 129.377 136.201C132.212 136.355 135.033 136.549 137.868 136.677L142.028 136.858C143.294 137.018 144.578 136.957 145.821 136.677C145.821 136.677 145.913 136.51 145.861 136.497Z" fill="#263238"/>
<path d="M90.6617 70.1635C73.7974 80.3716 30.3964 140.462 38.3758 156.99C46.3552 173.519 100.78 155.317 100.78 155.317L95.9638 110.43C95.9638 110.43 81.6587 118.321 81.1862 117.613C80.7137 116.905 89.0606 96.3983 92.4466 88.0052C95.8326 79.6122 99.6385 64.7698 90.6617 70.1635Z" fill="#FFC727"/>
<path opacity="0.6" d="M90.6617 70.1635C73.7974 80.3716 30.3964 140.462 38.3758 156.99C46.3552 173.519 100.78 155.317 100.78 155.317L95.9638 110.43C95.9638 110.43 81.6587 118.321 81.1862 117.613C80.7137 116.905 89.0606 96.3983 92.4466 88.0052C95.8326 79.6122 99.6385 64.7698 90.6617 70.1635Z" fill="#00722D"/>
<path d="M93.8875 152.78C92.8769 146.846 89.6615 122.439 89.3203 117.11C89.3203 116.749 89.5303 116.646 89.609 117.02C93.0606 134.72 93.4412 146.859 94.1237 152.729C94.1893 152.87 93.9137 152.922 93.8875 152.78Z" fill="#263238"/>
<path d="M95.634 110.468C94.0491 111.048 92.5095 111.74 91.0275 112.54C89.7151 113.21 88.4027 113.828 87.0115 114.548C84.1111 116.029 81.237 117.573 78.3891 119.131C75.5412 120.689 72.6933 122.285 69.8847 123.92C67.0762 125.555 64.3727 127.344 61.5641 128.979C61.4329 129.056 61.5641 129.236 61.6954 129.159C64.5433 127.576 67.5093 126.173 70.3966 124.654L78.9009 120.122C81.7226 118.642 84.5705 117.174 87.3921 115.681L91.5393 113.467C93.0564 112.733 94.5209 111.899 95.9227 110.97C95.957 110.92 95.9765 110.862 95.979 110.802C95.9815 110.743 95.967 110.683 95.937 110.631C95.9069 110.579 95.8627 110.536 95.8092 110.507C95.7556 110.478 95.695 110.465 95.634 110.468Z" fill="#263238"/>
<path d="M90.8308 97.5826C89.9515 98.6768 89.0853 99.7838 88.206 100.929C88.0485 101.148 87.9172 101.367 87.7597 101.573C87.9829 100.994 88.206 100.402 88.4422 99.8096C89.3113 97.7752 90.0649 95.6952 90.6995 93.5791C90.6995 93.489 90.5814 93.4375 90.5289 93.5791C89.4633 95.6311 88.5083 97.7366 87.6679 99.8868C86.7754 101.959 85.8699 104.019 85.0431 106.104C84.2163 108.19 83.3107 110.262 82.497 112.361C81.6187 114.401 80.8907 116.5 80.3184 118.642C80.3175 118.667 80.3244 118.691 80.3381 118.711C80.3518 118.731 80.3717 118.747 80.395 118.755C80.4182 118.764 80.4437 118.765 80.4676 118.759C80.4916 118.752 80.5128 118.739 80.5284 118.72C81.6854 116.691 82.6814 114.578 83.5076 112.399C84.3869 110.327 85.2137 108.215 86.1324 106.13C86.4867 105.255 86.8279 104.379 87.156 103.556C87.3135 103.362 87.4579 103.156 87.6023 102.963C88.0091 102.423 88.3897 101.856 88.7703 101.277C89.5315 100.106 90.2533 98.8956 90.962 97.6856C90.9226 97.5826 90.857 97.544 90.8308 97.5826Z" fill="#263238"/>
<path d="M100.886 154.325C100.886 154.029 100.689 153.965 100.637 154.325C100.584 154.686 100.637 154.827 100.558 155.008C98.7075 155.497 91.9355 157.518 90.2819 158.007C86.804 159.011 83.313 159.899 79.7827 160.672C76.2523 161.444 72.6695 162.101 69.0866 162.654C65.5038 163.208 61.9078 163.774 58.2987 164.006C58.1544 164.006 58.1675 164.225 58.2987 164.225C61.9734 164.031 65.635 163.928 69.2966 163.517C72.9582 163.105 76.4492 162.525 79.9795 161.804C83.5099 161.084 87.1452 160.157 90.6625 159.114C92.4211 158.586 94.1666 158.007 95.912 157.415C97.6026 156.931 99.2384 156.28 100.794 155.471C100.854 155.438 100.902 155.389 100.935 155.329C100.967 155.27 100.982 155.203 100.978 155.136L100.886 154.325Z" fill="#263238"/>
<path d="M111.252 79.4571C106.764 80.4097 99.2045 73.6 96.2648 68.1291C96.0679 67.7557 97.9053 52.9134 97.9446 49.927C97.9446 49.3219 116.935 54.78 116.935 54.78C115.784 58.4858 115.101 62.3162 114.901 66.1853C114.901 66.623 115.583 78.5174 111.252 79.4571Z" fill="#EB9481"/>
<path d="M116.948 54.78C116.948 54.8701 116.803 55.2305 116.646 55.8098C116.37 56.8139 115.937 58.3843 115.583 60.2895C115.191 62.2285 114.967 64.1964 114.913 66.1724C114.913 66.314 114.913 66.4556 114.913 66.5843V66.6487C114.913 66.8933 114.913 67.2151 114.913 67.6012C114.295 67.6742 113.672 67.7 113.05 67.6785C102.682 67.2794 99.4008 54.7285 98.5215 49.9141L98.8496 49.9784C99.3483 50.0556 100.004 50.2101 100.805 50.3903L101.409 50.5448C102.721 50.8538 104.178 51.2528 105.753 51.6519L107.315 52.0767L110.635 52.9907L111.947 53.364C112.42 53.4798 112.879 53.6214 113.26 53.7373L113.877 53.9046L114.178 53.9947L115.74 54.4453L116.501 54.6512L116.816 54.7542L116.948 54.78Z" fill="#263238"/>
<path d="M96.8158 27.6445C94.191 34.0809 96.0808 53.3901 100.504 58.0886C106.921 64.834 118.234 66.3658 124.297 58.6293C130.164 51.1373 127.237 25.9453 122.224 21.6329C114.861 15.2867 100.753 18.1573 96.8158 27.6445Z" fill="#EB9481"/>
<path d="M114.889 40.4016C114.889 40.4016 114.784 40.4788 114.797 40.5303C114.994 41.8176 115.007 43.3495 113.865 43.9159C113.865 43.9159 113.865 44.006 113.865 43.9931C115.322 43.6198 115.296 41.5988 114.889 40.4016Z" fill="#263238"/>
<path d="M113.536 39.178C111.384 39.2682 111.725 43.4904 113.72 43.4132C115.715 43.336 115.334 39.1008 113.536 39.178Z" fill="#263238"/>
<path d="M122.617 40.0022C122.617 40.0022 122.722 40.0022 122.722 40.1052C122.788 41.3925 123.089 42.9115 124.336 43.2461V43.3234C122.84 43.2333 122.459 41.2509 122.617 40.0022Z" fill="#263238"/>
<path d="M123.696 38.5476C125.822 38.2129 126.32 42.4094 124.365 42.7183C122.409 43.0273 121.911 38.8179 123.696 38.5476Z" fill="#263238"/>
<path d="M111.673 37.389C112.25 37.1959 112.749 36.9256 113.3 36.681C113.902 36.5048 114.431 36.1439 114.809 35.6512C114.892 35.4719 114.914 35.271 114.872 35.0785C114.829 34.8859 114.724 34.712 114.573 34.5827C114.226 34.3798 113.829 34.2727 113.425 34.2727C113.02 34.2727 112.624 34.3798 112.276 34.5827C111.507 34.8699 110.872 35.4242 110.491 36.1403C110.428 36.3059 110.413 36.4854 110.448 36.6588C110.483 36.8323 110.566 36.9927 110.689 37.1223C110.812 37.2519 110.968 37.3455 111.142 37.3926C111.316 37.4397 111.5 37.4384 111.673 37.389Z" fill="#A6A6A6"/>
<path d="M125.176 36.2943C124.589 36.2236 124.006 36.1204 123.431 35.9854C122.803 35.9642 122.199 35.7427 121.711 35.3546C121.593 35.1958 121.529 35.0042 121.529 34.8075C121.529 34.6108 121.593 34.4192 121.711 34.2604C121.995 33.9782 122.349 33.7747 122.739 33.6707C123.129 33.5667 123.539 33.5658 123.929 33.6683C124.752 33.7531 125.511 34.1393 126.056 34.7496C126.171 34.8991 126.24 35.0785 126.253 35.2658C126.267 35.4531 126.224 35.6401 126.131 35.8041C126.038 35.968 125.898 36.1017 125.728 36.1888C125.559 36.2758 125.367 36.3125 125.176 36.2943Z" fill="#A6A6A6"/>
<path d="M114.652 52.6305C114.994 52.9137 115.348 53.2999 115.834 53.3128C116.329 53.2611 116.807 53.1075 117.238 52.8622C117.238 52.8622 117.33 52.8622 117.238 52.9266C117.068 53.1972 116.828 53.4185 116.542 53.5679C116.256 53.7172 115.934 53.7891 115.611 53.7762C115.333 53.7267 115.076 53.5975 114.873 53.4051C114.67 53.2127 114.529 52.9656 114.469 52.6949C114.508 52.6177 114.6 52.5919 114.652 52.6305Z" fill="#263238"/>
<path d="M115.728 48.601C116.107 49.0918 116.587 49.4997 117.136 49.7989C117.685 50.0981 118.292 50.2819 118.917 50.3388C119.461 50.4159 120.013 50.4159 120.557 50.3388C120.665 50.3301 120.771 50.3085 120.872 50.2744C120.968 50.2849 121.065 50.2849 121.161 50.2744C121.229 50.2549 121.289 50.2143 121.332 50.1586C121.374 50.1029 121.397 50.0351 121.397 49.9655C121.405 49.9229 121.405 49.8794 121.397 49.8367V49.7209C121.397 48.7168 121.122 47.1463 121.122 47.1463C121.516 47.3008 123.497 47.9831 123.419 47.4682C122.925 42.9385 121.962 38.47 120.544 34.132C120.544 34.1012 120.532 34.0718 120.51 34.0501C120.488 34.0283 120.458 34.0161 120.426 34.0161C120.395 34.0161 120.365 34.0283 120.343 34.0501C120.321 34.0718 120.308 34.1012 120.308 34.132C120.741 38.3285 121.922 42.4092 122.421 46.6057C121.717 46.3466 120.979 46.1862 120.229 46.1294C120.085 46.1294 120.715 49.0644 120.702 49.5278C119.867 49.6749 119.01 49.6561 118.183 49.4725C117.356 49.289 116.574 48.9445 115.885 48.4594C115.741 48.4079 115.636 48.5109 115.728 48.601Z" fill="#263238"/>
<path d="M119.914 49.8241C119.408 50.5871 118.713 51.2116 117.893 51.6392C117.436 51.8511 116.923 51.9228 116.423 51.8451C115.347 51.652 115.242 50.6994 115.36 49.8627C115.437 49.4208 115.564 48.9889 115.741 48.5754C116.958 49.4224 118.422 49.8605 119.914 49.8241Z" fill="#263238"/>
<path d="M117.893 51.6391C117.436 51.851 116.923 51.9228 116.423 51.845C115.347 51.6519 115.242 50.6994 115.36 49.8626C115.925 49.8352 116.482 49.9958 116.942 50.3183C117.402 50.6408 117.737 51.1062 117.893 51.6391Z" fill="#FF9ABB"/>
<g opacity="0.2">
<path d="M117.354 31.4158C118.083 31.4736 118.816 31.4736 119.545 31.4158C120.28 31.4158 121.002 31.1712 121.75 31.1326C123.155 31.1237 124.55 31.359 125.871 31.8277C125.989 31.8277 125.976 31.9436 125.871 31.9049C124.46 31.4671 122.971 31.3267 121.501 31.493C120.314 31.7326 119.099 31.8063 117.892 31.7119C115.164 31.2505 112.357 31.647 109.873 32.8446C112.168 31.6531 114.771 31.1558 117.354 31.4158Z" fill="black"/>
<path d="M117.236 29.4977C117.925 29.5643 118.618 29.5858 119.31 29.562C120.006 29.562 120.622 29.3174 121.397 29.2788C122.739 29.2764 124.071 29.5029 125.334 29.9482C125.439 29.9482 125.426 30.0512 125.334 30.0255C123.995 29.6091 122.581 29.4775 121.187 29.6393C120.06 29.858 118.907 29.923 117.761 29.8324C115.18 29.3954 112.524 29.774 110.176 30.9137C112.337 29.7738 114.792 29.2815 117.236 29.4977Z" fill="black"/>
</g>
<path d="M125.255 29.3693C118.509 34.0163 109.113 27.2067 109.113 27.2067C108.546 28.6666 107.515 29.9085 106.172 30.7479C104.83 31.5874 103.246 31.9797 101.658 31.8666C101.658 31.8666 100.451 43.1689 97.406 43.1689C92.7864 43.1689 91.1853 27.8245 92.6158 24.7866C94.0463 21.7486 97.9573 20.9247 97.9573 20.9247C98.3657 19.0868 99.4734 17.4709 101.055 16.4064C104.191 13.9992 115.123 17.0758 115.123 17.0758C115.736 15.643 116.679 14.3695 117.879 13.3555C118.168 13.1034 118.505 12.9113 118.871 12.7906C119.238 12.6699 119.625 12.6231 120.01 12.6532C120.395 12.6833 120.77 12.7895 121.112 12.9655C121.454 13.1416 121.756 13.3837 122 13.6774C121.432 14.5173 121.064 15.4721 120.924 16.4707C120.412 19.779 123.168 19.7533 123.103 16.7539C123.123 15.632 122.732 14.5403 122 13.6774C123.313 11.7078 125.557 11.1028 126.909 12.0811C129.376 13.9734 130.938 25.5203 125.255 29.3693Z" fill="#666666"/>
<path d="M112.223 48.4209C111.064 48.3709 109.943 48.0028 108.987 47.3584C108.031 46.7141 107.279 45.8194 106.816 44.7763C106.353 43.7331 106.198 42.5834 106.368 41.4581C106.538 40.3327 107.028 39.2769 107.78 38.4108C108.532 37.5447 109.517 36.9032 110.623 36.5592C111.728 36.2153 112.91 36.1827 114.034 36.4652C115.157 36.7478 116.177 37.3341 116.978 38.1574C117.778 38.9807 118.327 40.0079 118.562 41.1221C118.758 42.0283 118.739 42.9665 118.507 43.8645C118.275 44.7625 117.836 45.5963 117.224 46.3015C116.611 47.0067 115.842 47.5645 114.975 47.932C114.108 48.2995 113.166 48.4667 112.223 48.4209ZM112.735 37.0929C112.295 37.0775 111.854 37.112 111.422 37.1959C110.084 37.4658 108.901 38.2263 108.114 39.3224C107.328 40.4184 106.997 41.7675 107.189 43.0945C107.382 44.4215 108.083 45.6265 109.15 46.4639C110.217 47.3013 111.569 47.7081 112.931 47.6012C114.294 47.4943 115.563 46.8818 116.481 45.8887C117.398 44.8955 117.895 43.5965 117.87 42.2563C117.845 40.9162 117.3 39.6359 116.346 38.6765C115.391 37.717 114.1 37.1507 112.735 37.0929Z" fill="#455A64"/>
<path d="M126.384 47.3526C124.021 47.2367 121.987 44.778 121.751 41.6113C121.611 40.1025 121.96 38.5888 122.748 37.286C123.052 36.7112 123.501 36.2224 124.052 35.8664C124.604 35.5103 125.239 35.2989 125.897 35.2524C126.555 35.206 127.215 35.3259 127.813 35.6008C128.41 35.8757 128.926 36.2964 129.31 36.8226C130.278 38.0005 130.846 39.4449 130.938 40.9548C131.174 44.3017 129.31 47.1595 126.777 47.3912L126.384 47.3526ZM126.279 36.0374C126.174 36.025 126.068 36.025 125.964 36.0374C125.437 36.096 124.933 36.2788 124.494 36.5703C124.055 36.8617 123.695 37.253 123.444 37.7108C122.755 38.8793 122.452 40.2285 122.578 41.5727C122.788 44.469 124.651 46.7218 126.738 46.5545C128.825 46.3871 130.334 43.9799 130.124 41.0449C130.051 39.7012 129.551 38.4137 128.693 37.3633C128.409 36.9879 128.047 36.6758 127.63 36.4473C127.214 36.2188 126.754 36.0791 126.279 36.0374Z" fill="#455A64"/>
<path d="M118.404 41.8428L117.826 41.2506C118.705 40.4139 120.805 39.2296 122.42 40.6971L121.868 41.3021C120.438 39.9762 118.482 41.7655 118.404 41.8428Z" fill="#455A64"/>
<path d="M91.0014 45.3316L90.2402 45.0227C90.3977 44.6751 91.7757 41.6114 93.6 41.1609C95.4242 40.7103 106.448 41.0064 106.921 41.0064V41.8174C103.719 41.753 95.1092 41.6371 93.7968 41.9461C92.4844 42.255 91.3689 44.4949 91.0014 45.3316Z" fill="#455A64"/>
<path d="M99.8362 43.529C99.8362 43.529 95.899 37.0927 92.8805 38.3799C89.862 39.6672 92.6311 48.897 95.9121 50.3387C96.3195 50.5519 96.7666 50.6821 97.2265 50.7215C97.6865 50.7609 98.1498 50.7087 98.5886 50.5681C99.0275 50.4274 99.4328 50.2011 99.7803 49.9029C100.128 49.6047 100.41 49.2406 100.611 48.8326L99.8362 43.529Z" fill="#EB9481"/>
<path d="M93.7188 41.0449C93.7188 41.0449 93.7188 41.1093 93.7188 41.1222C96.0154 42.2035 97.1179 44.4305 97.8397 46.6961C97.7163 46.4568 97.5418 46.2465 97.3281 46.0793C97.1143 45.9122 96.8664 45.7922 96.6012 45.7274C96.3359 45.6627 96.0596 45.6547 95.7909 45.7042C95.5222 45.7536 95.2676 45.8592 95.0443 46.0138C95.0443 46.0138 95.0443 46.1554 95.0443 46.1425C95.4672 46.039 95.9124 46.0664 96.3189 46.2208C96.7254 46.3752 97.0732 46.6491 97.3147 47.005C97.71 47.6045 98.0399 48.243 98.299 48.9102C98.3909 49.129 98.7846 49.0389 98.719 48.7943C98.9815 45.8078 96.921 41.5985 93.7188 41.0449Z" fill="#263238"/>
<path d="M115.005 67.7563L110.451 78.9298L96.3688 64.7698L92.4316 69.2881C92.4316 69.2881 106.212 91.6481 106.304 90.6312L110.976 81.0538L117.722 87.7219L117.17 70.9873L115.005 67.7563Z" fill="#EBEBEB"/>
<path d="M117.813 79.4573C117.629 76.6896 117.524 73.9091 117.209 71.1543C117.209 71.0642 117.052 71.0127 117.025 71.1543C116.461 73.819 117.222 84.3746 117.209 86.9106C116.933 86.6145 110.962 81.0406 110.91 81.1307C109.899 82.6497 106.46 89.6267 106.224 90.2575C104.046 86.7046 95.7251 73.8061 93.1003 70.4463C93.0215 70.3433 92.8641 70.4463 92.9297 70.5364C94.8458 74.2953 105.896 91.6735 106.054 91.622C107.877 88.3357 109.524 84.9585 110.988 81.504C111.999 82.7913 118.023 89.0217 118.036 88.6098C118.128 85.5572 118.053 82.502 117.813 79.4573Z" fill="#263238"/>
<path d="M387.458 161.637H295.223V364.061H387.458V161.637Z" fill="#A65711"/>
<path opacity="0.3" d="M387.458 161.637H295.223V364.061H387.458V161.637Z" fill="black"/>
<path d="M126.712 161.637H34.4766V364.061H126.712V161.637Z" fill="#A65711"/>
<path d="M387.46 161.637H126.713V189.751H387.46V161.637Z" fill="#A65711"/>
<path opacity="0.2" d="M387.46 161.637H126.713V189.751H387.46V161.637Z" fill="black"/>
<path opacity="0.1" d="M127.303 175.694L159.824 175.449L192.332 175.372L257.374 175.205L322.417 175.372L354.938 175.449L387.459 175.694L354.938 175.926L322.417 176.016L257.374 176.17L192.332 176.016L159.824 175.926L127.303 175.694Z" fill="black"/>
<path d="M139.115 161.637H126.713V364.061H139.115V161.637Z" fill="#A65711"/>
<path opacity="0.2" d="M139.115 161.637H126.713V364.061H139.115V161.637Z" fill="black"/>
<path d="M387.459 161.637H375.057V364.061H387.459V161.637Z" fill="#A65711"/>
<path opacity="0.2" d="M387.459 161.637H375.057V364.061H387.459V161.637Z" fill="black"/>
<path d="M249.265 158.316H173.775V161.637H249.265V158.316Z" fill="#455A64"/>
<path d="M249.263 158.315H211.27V161.636H249.263V158.315Z" fill="#263238"/>
<path d="M215.365 161.637H288.925L298.545 112.63H224.985L215.365 161.637Z" fill="#455A64"/>
<path d="M252.48 137.126C252.416 137.685 252.475 138.251 252.652 138.786C252.829 139.321 253.121 139.812 253.507 140.228C253.894 140.643 254.366 140.973 254.893 141.195C255.419 141.418 255.988 141.527 256.562 141.516C257.781 141.497 258.95 141.039 259.847 140.23C260.745 139.421 261.308 138.316 261.43 137.126C261.492 136.568 261.432 136.003 261.254 135.469C261.076 134.935 260.784 134.444 260.398 134.029C260.012 133.614 259.541 133.285 259.015 133.062C258.49 132.839 257.922 132.728 257.349 132.737C256.13 132.756 254.961 133.214 254.063 134.023C253.165 134.832 252.602 135.937 252.48 137.126Z" fill="#263238"/>
<path d="M437.578 220.156L434.612 237.599L414.52 344.005H411.291L425.898 237.599L428.05 220.156H437.578Z" fill="#DBDBDB"/>
<path d="M428.051 220.156H437.579L434.613 237.599H425.898L428.051 220.156Z" fill="#A6A6A6"/>
<path d="M500.655 344.005H497.426L477.333 237.599L474.367 220.156H483.895L486.048 237.599L500.655 344.005Z" fill="#DBDBDB"/>
<path d="M483.895 220.156L486.048 237.599H477.333L474.367 220.156H483.895Z" fill="#A6A6A6"/>
<path d="M560.905 344.006H557.676L537.583 237.599L534.617 220.156H544.145L546.298 237.599L560.905 344.006Z" fill="#DBDBDB"/>
<path d="M546.298 237.599H537.583L534.617 220.156H544.145L546.298 237.599Z" fill="#A6A6A6"/>
<path d="M555.775 228.344H408.59V213.141H463.684L482.202 107.455H550.158L555.775 228.344Z" fill="#DBDBDB"/>
<path d="M555.773 228.344H547.754L542.518 107.455H550.156L555.773 228.344Z" fill="#A6A6A6"/>
<path d="M319.32 329.201C322.037 330.759 405.728 347.931 409.337 346.605C410.716 346.103 413.97 334.299 417.501 319.92C418.262 316.805 419.023 313.6 419.784 310.33C424.745 289.141 429.509 266.563 429.509 266.563L373.562 254.977L365.372 299.053L363.574 308.734C363.574 308.734 328.533 316.226 324.727 318.092C320.921 319.959 316.59 327.644 319.32 329.201Z" fill="#D3766A"/>
<path d="M416.135 325.404C413.156 337.196 410.531 346.168 409.337 346.606C405.727 347.893 322.023 330.76 319.306 329.202C316.589 327.644 320.933 319.934 324.713 318.054C327.062 316.908 341.302 313.613 351.867 311.257C342.68 313.42 325.422 319.56 361.053 322.083C390.464 324.182 409.888 325.134 416.135 325.404Z" fill="#263238"/>
<path d="M394.846 371.141C397.878 371.965 483.275 367.64 486.425 365.464C487.62 364.64 484.339 331.017 483.446 327.773C480.414 316.818 465.991 283.825 465.991 283.825L408.849 286.554L432.315 340.247C432.315 340.247 400.384 356.247 397.182 359.002C393.98 361.757 391.814 370.369 394.846 371.141Z" fill="#D3766A"/>
<path d="M486.425 365.503C483.275 367.692 397.891 372.017 394.846 371.193C391.801 370.369 394.006 361.809 397.182 359.054C398.678 357.767 406.369 353.622 414.243 349.554C404.427 354.973 388.888 367.061 485.559 345.512C486.412 355.102 487.068 365.065 486.425 365.503Z" fill="#263238"/>
<path d="M527.283 205.534C510.222 224.135 453.08 209.395 449.668 216.849C446.65 223.375 485.68 328.185 485.68 328.185L423.236 334.789C423.236 334.789 369.323 219.037 388.589 185.594C398.996 167.572 444.865 174.729 472.583 171.433C480.929 170.442 484.854 153.553 484.854 153.553H534.305C534.305 153.553 546.772 184.281 527.283 205.534Z" fill="#37474F"/>
<path d="M405.99 175.23L458.486 214.582C475.902 214.222 514.014 220.143 527.374 205.571C546.837 184.318 534.356 153.578 534.356 153.578H484.852C484.852 153.578 480.915 170.467 472.581 171.458C453.158 173.737 424.797 170.892 405.99 175.23Z" fill="#263238"/>
<path d="M420.886 321.131C422.605 320.603 438.8 318.826 442.37 318.453C449.522 317.693 472.017 315.621 476.099 315.634C476.119 315.641 476.136 315.654 476.148 315.672C476.16 315.689 476.167 315.709 476.167 315.73C476.167 315.751 476.16 315.772 476.148 315.789C476.136 315.806 476.119 315.82 476.099 315.827C472.555 316.548 458.184 318.196 454.615 318.556C447.462 319.277 422.881 321.62 420.886 321.427C420.853 321.417 420.825 321.398 420.805 321.371C420.784 321.344 420.773 321.312 420.773 321.279C420.773 321.245 420.784 321.213 420.805 321.186C420.825 321.16 420.853 321.14 420.886 321.131Z" fill="#263238"/>
<path d="M442.135 210.708C446.151 208.751 476.585 209.716 498.424 207.708C505.537 207.065 512.676 205.571 518.11 201.001C522.851 196.815 526.233 191.354 527.834 185.297C529.934 177.972 529.724 170.339 529.357 162.847C529.278 161.006 529.147 159.152 529.029 157.311C529.029 157.208 529.212 157.183 529.226 157.311C530.879 170.738 532.152 185.734 523.254 197.371C519.308 202.493 513.688 206.128 507.335 207.67C494.211 211.068 444.642 210.244 442.896 211.531C440.809 213.102 472.832 308.695 473.462 310.523C473.58 310.858 472.963 311.089 472.819 310.755C469.656 303.353 438.631 212.42 442.135 210.708Z" fill="#263238"/>
<path d="M386.396 188.824C389.336 181.499 396.055 176.929 405.938 175.179C406.095 175.179 406.082 175.398 405.938 175.436C397.315 177.908 391.16 181.306 387.761 188.451C386.186 191.785 385.359 196.457 384.952 202.739C382.905 234.033 410.754 305.091 411.318 306.327C411.324 306.338 411.328 306.35 411.329 306.362C411.331 306.374 411.33 306.387 411.326 306.399C411.322 306.411 411.316 306.422 411.308 306.432C411.3 306.441 411.29 306.449 411.279 306.455C411.268 306.461 411.255 306.465 411.243 306.466C411.23 306.467 411.217 306.466 411.205 306.463C411.193 306.459 411.182 306.453 411.172 306.445C411.162 306.437 411.154 306.428 411.148 306.417C407.211 299.942 374.243 219.088 386.396 188.824Z" fill="#263238"/>
<path d="M363.824 296.208L411.071 306.069C411.071 306.069 373.772 196.869 391.293 182.774C396.149 178.912 406.74 177.509 419.326 182.838C438.106 190.793 459.852 207.026 480.352 212.96C499.552 218.521 522.349 213.411 530.223 204.94C546.707 187.15 534.305 153.527 534.305 153.527L466.296 151.016C466.296 151.016 467.32 151.827 464.065 154.659C464.065 154.659 424.103 145.764 406.727 156.178C375.413 174.947 363.824 296.208 363.824 296.208Z" fill="#37474F"/>
<path d="M504.971 157.453C504.971 157.423 504.984 157.393 505.006 157.371C505.028 157.35 505.058 157.337 505.089 157.337C505.121 157.337 505.151 157.35 505.173 157.371C505.195 157.393 505.207 157.423 505.207 157.453C505.154 159.959 505.352 162.464 505.798 164.932C506.328 167.273 507.515 169.422 509.223 171.137C512.951 174.844 518.292 176.106 523.187 177.573C523.437 177.651 523.397 178.101 523.109 178.05C517.688 177.239 511.979 175.887 508.016 171.897C506.19 170.06 504.97 167.728 504.512 165.203C504.013 162.622 504.17 159.96 504.971 157.453Z" fill="#263238"/>
<path d="M392.487 180.689C399.758 176.222 411.123 179.62 416.57 181.667C416.594 181.676 416.614 181.693 416.625 181.716C416.636 181.739 416.638 181.765 416.629 181.789C416.62 181.813 416.602 181.833 416.579 181.844C416.555 181.854 416.529 181.856 416.504 181.847C411.504 180.084 399.049 177.406 392.395 182.027C377.014 192.725 397.645 265.829 411.097 306.07C411.307 306.7 410.808 306.533 410.52 305.928C408.289 301.165 390.834 250.318 386.345 216.681C385.65 211.519 382.014 187.151 392.487 180.689Z" fill="#263238"/>
<path d="M369.203 283.876C370.634 283.876 382.891 286.451 385.582 287.082C390.989 288.279 403.509 291.459 406.423 292.553C406.501 292.553 406.423 292.733 406.423 292.733C403.614 292.475 397.092 291.059 394.401 290.454C389.007 289.167 370.529 284.868 369.177 284.16C369.006 284.095 369.072 283.876 369.203 283.876Z" fill="#263238"/>
<path d="M394.807 178.796C399.689 176.222 405.516 175.745 410.95 176.402C416.68 177.252 422.243 178.958 427.447 181.461C438.51 186.43 449.035 192.48 460.112 197.423C471.189 202.366 482.882 206.164 495.022 206.524C505.39 206.846 518.527 205.057 525.207 195.904C535.483 181.744 529.499 157.479 529.38 155.908C529.38 155.793 529.538 155.793 529.564 155.908C537.544 185.799 527.281 197.41 520.377 202.25C514.892 206.112 506.991 207.103 501.768 207.528C489.694 208.532 477.593 205.636 466.412 201.259C454.941 196.78 444.18 190.755 433.195 185.233C422.696 179.955 410.884 174.497 398.889 177.509C397.524 177.842 396.186 178.272 394.886 178.796C394.886 178.796 394.728 178.835 394.807 178.796Z" fill="#263238"/>
<path d="M466.57 74.4496C466.386 89.4463 466.465 104.868 468.631 119.736C470.324 131.321 475.731 140.667 488.172 142.997C499.721 145.147 515.995 144.284 525.326 136.406C529.683 132.75 531.035 127.794 530.484 122.323C529.736 114.728 521.717 73.2781 519.302 60.341C517.845 52.4628 516.402 44.4817 513.528 36.9383C507.491 21.0919 499.393 21.581 498.264 21.2978C497.267 20.7314 490.915 18.2856 482.201 21.4266C479.92 22.2461 477.841 23.5269 476.098 25.1857C474.354 26.8446 472.986 28.8444 472.082 31.0554C466.294 44.1728 466.741 60.4054 466.57 74.4496Z" fill="#263238"/>
<path d="M500.89 23.4221C510.838 27.4641 513.62 37.8138 516.402 47.0694C520.261 59.9422 523.909 72.8922 526.902 86.0095C528.345 92.3043 529.644 98.6377 530.747 105.01C531.797 111.099 533.372 117.586 533.175 123.791C532.925 134.089 523.594 139.123 514.408 140.976C514.362 140.987 514.314 140.989 514.268 140.982C514.221 140.975 514.177 140.959 514.137 140.936C514.096 140.912 514.061 140.88 514.034 140.843C514.006 140.806 513.986 140.764 513.974 140.719C513.963 140.674 513.961 140.628 513.968 140.582C513.975 140.536 513.992 140.493 514.016 140.453C514.04 140.414 514.072 140.379 514.11 140.352C514.148 140.325 514.191 140.305 514.237 140.294C519.487 139.007 524.736 137.385 528.529 133.381C533.332 128.232 532.466 121.796 531.587 115.501C530.091 104.662 527.965 93.9263 525.458 83.3191C522.951 72.712 520.038 62.079 516.967 51.562C514.04 41.5598 511.651 28.3137 500.837 23.6152C500.824 23.6118 500.812 23.6059 500.802 23.598C500.791 23.59 500.782 23.58 500.775 23.5687C500.769 23.5573 500.764 23.5448 500.763 23.5318C500.761 23.5188 500.762 23.5056 500.765 23.4929C500.769 23.4802 500.775 23.4683 500.783 23.4579C500.791 23.4475 500.801 23.4387 500.813 23.4321C500.824 23.4256 500.837 23.4213 500.85 23.4196C500.863 23.4178 500.877 23.4187 500.89 23.4221Z" fill="#263238"/>
<path d="M468.092 42.1777C469.588 34.2739 473.341 26.473 481.688 23.8469C470.979 27.7088 468.853 39.4487 467.842 49.2192C466.775 59.5174 466.101 69.8371 465.821 80.1782C465.532 90.1289 465.467 100.144 466.11 110.069C466.792 120.792 469.22 130.755 476.084 139.329C476.107 139.365 476.116 139.409 476.109 139.451C476.102 139.493 476.08 139.532 476.047 139.56C476.014 139.588 475.972 139.603 475.928 139.603C475.884 139.603 475.842 139.588 475.808 139.56C469.128 132.686 466.622 122.916 465.664 113.712C464.668 101.516 464.493 89.2687 465.139 77.0501C465.598 65.529 465.926 53.5573 468.092 42.1777Z" fill="#263238"/>
<path d="M491.295 89.0987C476.255 107.249 455.663 124.396 447.041 124.113C440.085 123.894 398.482 99.384 395.516 95.6638C392.983 92.4585 412.577 67.7041 416.633 69.4033C423.444 72.2611 447.645 91.905 449.705 91.596C451.765 91.2871 468.722 84.0526 485.599 76.2645C501.742 68.8112 501.755 76.4962 491.295 89.0987Z" fill="#D3766A"/>
<path d="M400.121 99.0623C396.788 97.2086 382.233 87.4768 378.795 83.808C375.357 80.1393 366.262 69.0945 368.821 66.2367C371.38 63.379 374.307 66.4169 374.307 66.4169C374.307 66.4169 371.222 61.1391 374.057 58.4873C376.892 55.8355 381.302 60.7143 381.302 60.7143C381.302 60.7143 378.533 55.0631 381.551 52.6302C384.57 50.1972 388.113 55.8098 388.113 55.8098C388.113 55.8098 385.344 50.7636 388.691 49.7724C392.733 48.601 396.775 58.4744 400.856 62.1947C401.788 63.0314 420.936 77.9638 420.936 77.9638L400.121 99.0623Z" fill="#D3766A"/>
<path d="M387.855 55.3333C390.847 62.5935 393.432 65.2711 399.811 69.7765C399.929 69.8666 399.811 70.0597 399.692 69.9825C393.039 66.1207 389.298 63.2372 387.487 55.462C387.395 55.0758 387.71 54.9986 387.855 55.3333Z" fill="#263238"/>
<path d="M381.069 60.135C384.848 67.4082 387.631 70.3303 393.956 75.5824C394.048 75.6596 393.956 75.8141 393.838 75.7497C387.197 71.1541 383.523 68.1934 380.714 60.4311C380.596 60.0321 380.898 59.8003 381.069 60.135Z" fill="#263238"/>
<path d="M374.635 66.6744C378.809 73.4583 381.722 76.7924 388.521 81.0662C388.538 81.0748 388.554 81.0868 388.567 81.1016C388.579 81.1164 388.589 81.1336 388.595 81.1521C388.6 81.1707 388.602 81.1902 388.6 81.2094C388.598 81.2286 388.591 81.2472 388.581 81.264C388.571 81.2807 388.558 81.2953 388.542 81.3068C388.526 81.3183 388.508 81.3266 388.489 81.3309C388.47 81.3353 388.45 81.3358 388.431 81.3323C388.411 81.3288 388.393 81.3215 388.376 81.3108C381.014 77.6163 377.352 73.497 374.439 66.816C374.242 66.3654 374.373 66.2496 374.635 66.6744Z" fill="#263238"/>
<path d="M427.331 77.925C427.331 77.925 424.116 68.6309 421.78 64.8591C419.444 61.0874 405.48 50.1584 402.895 52.9775C399.574 56.6334 406.372 64.4987 410.218 67.9228C410.218 67.9228 402.501 76.3545 406.136 83.0355C409.771 89.7165 427.331 77.925 427.331 77.925Z" fill="#D3766A"/>
<path d="M402.316 54.2784C401.726 59.7493 407.067 63.933 410.545 67.5245C410.599 67.576 410.64 67.6396 410.664 67.7097C410.688 67.7799 410.694 67.8546 410.683 67.9277C410.671 68.0008 410.642 68.0701 410.597 68.1298C410.553 68.1896 410.494 68.238 410.427 68.2711C407.435 72.0171 404.324 78.1445 405.834 82.946C405.846 82.9751 405.846 83.0076 405.833 83.0366C405.821 83.0656 405.798 83.0886 405.768 83.1005C405.738 83.1125 405.705 83.1124 405.676 83.1003C405.646 83.0883 405.623 83.0652 405.611 83.0362C403.288 78.1059 405.847 71.824 409.39 67.9235C405.755 64.2934 400.597 59.878 402.264 54.2655C402.277 54.2398 402.316 54.2398 402.316 54.2784Z" fill="#263238"/>
<path d="M430.649 77.1401L404.795 108.537C404.795 108.537 439.14 126.636 448.104 124.988C457.068 123.341 468.118 115.72 490.376 90.6951C508.002 70.8839 494.064 70.7166 483.066 76.1232C474.09 80.5385 451.293 90.6308 449.482 89.8455C447.671 89.0603 430.649 77.1401 430.649 77.1401Z" fill="#FFC727"/>
<path d="M404.795 108.537C404.795 108.537 435.859 124.911 446.582 125.104C447.082 125.105 447.582 125.071 448.078 125.001C457.015 123.34 468.092 115.72 490.363 90.6949C498.159 81.9285 499.773 77.0111 498.238 74.7069C496.243 71.8234 489.208 73.0978 483.066 76.1229C474.103 80.5383 451.293 90.6305 449.482 89.8453C447.671 89.06 430.689 77.1398 430.689 77.1398L404.795 108.537Z" fill="#FFC727"/>
<path d="M436.149 83.2804C432.645 88.1463 428.918 92.8577 425.085 97.4404C423.209 99.7189 421.332 101.985 419.363 104.186C417.395 106.387 415.137 108.64 413.103 110.944C413.011 111.047 412.841 110.944 412.933 110.815C414.875 108.46 416.66 105.962 418.55 103.568C420.44 101.174 422.264 99.0109 424.14 96.7324C427.96 92.1111 431.818 87.4898 435.795 82.9843C435.814 82.9615 435.839 82.9427 435.866 82.9291C435.893 82.9154 435.923 82.9072 435.953 82.9048C435.984 82.9024 436.014 82.9059 436.043 82.9151C436.072 82.9244 436.099 82.9391 436.123 82.9586C436.146 82.978 436.165 83.0017 436.179 83.0284C436.193 83.0551 436.201 83.0842 436.204 83.1141C436.206 83.144 436.203 83.1741 436.193 83.2026C436.184 83.2311 436.169 83.2576 436.149 83.2804Z" fill="#263238"/>
<path d="M467.134 133.986L466.307 151.017C466.307 151.017 486.754 153.218 537.321 153.218C537.321 153.218 526.651 100.285 509.537 80.577C500.98 70.7165 490.455 71.0254 483.499 77.4232C481.741 78.9293 465.441 105.782 462.973 115.707C460.716 124.447 467.134 133.986 467.134 133.986Z" fill="#FFC727"/>
<path d="M486.862 82.9329L482.662 95.664C481.271 99.955 479.959 104.246 478.725 108.537C477.57 112.836 476.1 117.162 476.993 121.41C477.752 125.748 479.409 129.888 481.862 133.574L481.967 133.742V133.922C481.809 136.908 481.547 139.895 481.35 142.933C481.153 145.971 480.851 148.906 480.549 151.944C480.549 148.94 480.549 145.937 480.549 142.933C480.628 139.934 480.641 136.934 480.772 133.922L480.864 134.27C478.262 130.456 476.476 126.164 475.615 121.654C475.229 119.364 475.291 117.022 475.798 114.754C476.271 112.54 476.874 110.365 477.517 108.202C478.83 103.89 480.326 99.6546 481.862 95.4323C483.397 91.2101 485.116 87.0779 486.862 82.9329Z" fill="#263238"/>
<path d="M477.056 99.7832C477.028 99.9252 477.028 100.071 477.058 100.213C477.087 100.355 477.145 100.49 477.228 100.61C477.311 100.729 477.418 100.832 477.541 100.911C477.665 100.99 477.803 101.044 477.949 101.07C478.087 101.083 478.226 101.068 478.359 101.026C478.491 100.985 478.613 100.917 478.718 100.828C478.824 100.74 478.91 100.631 478.971 100.509C479.033 100.387 479.069 100.254 479.077 100.118C479.128 99.8317 479.063 99.5374 478.896 99.2973C478.73 99.0571 478.475 98.8898 478.185 98.8306C478.046 98.8183 477.907 98.8333 477.775 98.8749C477.643 98.9164 477.52 98.9836 477.415 99.0725C477.31 99.1613 477.224 99.27 477.162 99.3921C477.1 99.5142 477.064 99.6472 477.056 99.7832Z" fill="#263238"/>
<path d="M473.028 112.244C472.981 112.53 473.048 112.823 473.214 113.062C473.38 113.301 473.633 113.469 473.921 113.531C474.06 113.546 474.201 113.532 474.335 113.491C474.469 113.45 474.593 113.384 474.699 113.294C474.806 113.205 474.893 113.096 474.956 112.973C475.018 112.85 475.055 112.716 475.063 112.579C475.117 112.292 475.053 111.996 474.886 111.755C474.719 111.514 474.462 111.348 474.17 111.292C474.031 111.279 473.891 111.294 473.758 111.336C473.625 111.377 473.502 111.444 473.396 111.533C473.289 111.621 473.202 111.73 473.139 111.852C473.076 111.974 473.038 112.108 473.028 112.244Z" fill="#263238"/>
<path d="M473.027 124.769C472.973 125.056 473.036 125.352 473.203 125.593C473.37 125.834 473.627 126.001 473.919 126.057C474.058 126.071 474.199 126.057 474.333 126.016C474.467 125.976 474.591 125.909 474.697 125.82C474.804 125.731 474.891 125.622 474.954 125.498C475.016 125.375 475.053 125.241 475.061 125.104C475.089 124.962 475.089 124.816 475.059 124.674C475.03 124.532 474.972 124.397 474.889 124.278C474.806 124.158 474.699 124.056 474.576 123.976C474.452 123.897 474.314 123.843 474.168 123.817C474.029 123.801 473.887 123.813 473.752 123.853C473.618 123.893 473.493 123.96 473.386 124.049C473.279 124.139 473.192 124.249 473.13 124.373C473.068 124.497 473.033 124.632 473.027 124.769Z" fill="#263238"/>
<path d="M477.057 134.951C477.026 135.093 477.025 135.24 477.054 135.383C477.083 135.525 477.141 135.661 477.224 135.781C477.307 135.901 477.414 136.003 477.539 136.082C477.664 136.161 477.803 136.214 477.949 136.238C478.088 136.253 478.228 136.239 478.361 136.198C478.494 136.157 478.617 136.09 478.723 136.001C478.828 135.912 478.914 135.802 478.975 135.679C479.036 135.556 479.071 135.422 479.078 135.286C479.106 135.144 479.106 134.998 479.076 134.856C479.047 134.714 478.989 134.579 478.906 134.459C478.823 134.34 478.716 134.237 478.593 134.158C478.469 134.079 478.33 134.025 478.185 133.999C478.047 133.986 477.908 134.001 477.775 134.043C477.643 134.084 477.521 134.152 477.415 134.24C477.31 134.329 477.224 134.438 477.162 134.56C477.101 134.682 477.065 134.815 477.057 134.951Z" fill="#263238"/>
<path d="M476.203 146.292C476.174 146.435 476.175 146.581 476.204 146.723C476.234 146.864 476.292 146.999 476.375 147.119C476.458 147.239 476.564 147.341 476.688 147.42C476.811 147.499 476.95 147.553 477.095 147.58C477.233 147.592 477.373 147.577 477.505 147.535C477.637 147.494 477.76 147.427 477.865 147.338C477.97 147.249 478.056 147.14 478.118 147.018C478.18 146.896 478.215 146.763 478.224 146.627C478.252 146.485 478.252 146.339 478.222 146.197C478.193 146.055 478.135 145.92 478.052 145.801C477.969 145.681 477.862 145.579 477.739 145.499C477.615 145.42 477.476 145.366 477.331 145.34C477.192 145.324 477.051 145.336 476.917 145.376C476.784 145.416 476.66 145.483 476.554 145.573C476.447 145.662 476.361 145.773 476.301 145.897C476.241 146.02 476.207 146.155 476.203 146.292Z" fill="#263238"/>
<path d="M473.381 93.4111C471.661 96.256 470.06 99.1653 468.485 102.087C468.879 100.71 469.339 99.3455 469.798 97.9938C469.798 97.8909 469.667 97.8265 469.614 97.9295C468.815 99.5594 468.258 101.293 467.961 103.079C467.449 104.031 466.937 104.971 466.438 105.923C465.467 107.842 464.47 109.785 463.695 111.729C462.919 113.732 462.476 115.844 462.383 117.985C462.383 118.088 462.567 118.114 462.58 117.985C462.946 115.821 463.636 113.722 464.627 111.755C465.506 109.785 466.491 107.893 467.449 105.923C469.509 101.791 471.543 97.6463 473.473 93.4626L473.381 93.4111Z" fill="#263238"/>
<path d="M510.757 83.2937C521.834 102.101 541.389 140.771 534.84 151.519C528.291 162.268 491.452 169.039 478.853 171.279C474.693 172 459.718 142.959 463.839 141.208C470.834 138.17 504.091 132.197 505.154 130.048C505.81 128.657 499.3 103.311 498.526 88.417C497.528 69.0435 507.319 77.4494 510.757 83.2937Z" fill="#D3766A"/>
<path d="M467.475 139.998C467.475 139.998 454.351 141.787 445.899 143.345C441.162 144.22 433.169 146.421 429.993 148.623C425.229 151.918 407.459 168.678 411.515 172.991C415.176 176.853 428.576 160.594 428.576 160.594C428.576 160.594 413.575 175.874 418.864 179.775C424.153 183.675 436.805 163.298 436.805 163.298C436.805 163.298 421.751 179.324 427.854 182.504C432.474 184.911 444.994 167.056 444.994 167.056C444.994 167.056 432.146 180.933 436.791 183.598C441.91 186.559 454.522 170.802 454.522 170.802C467.475 175.643 475.678 172.746 481.255 170.017C482.66 169.361 467.475 139.998 467.475 139.998Z" fill="#D3766A"/>
<path d="M433.419 154.982C431.595 156.72 429.731 158.457 428.064 160.35C426.397 162.242 424.796 164.212 423.326 166.207C421.334 168.819 419.656 171.648 418.326 174.639C421.082 169.489 426.949 162.667 428.615 160.774C430.282 158.882 431.844 156.913 433.497 155.046C433.537 154.995 433.471 154.943 433.419 154.982Z" fill="#263238"/>
<path d="M440.48 160.762C438.236 163.079 435.926 165.293 433.8 167.7C431.674 170.107 429.863 172.553 427.921 175.076C427.763 175.282 427.921 175.295 428.078 175.076C430.139 172.617 432.225 170.506 434.312 168.073C436.399 165.64 438.367 163.13 440.533 160.787C440.572 160.775 440.507 160.723 440.48 160.762Z" fill="#263238"/>
<path d="M447.436 164.649C443.917 168.114 440.768 171.923 438.039 176.016C437.908 176.222 438.105 176.222 438.262 176.016C441.307 172.154 443.682 169.154 447.554 164.778C447.62 164.713 447.515 164.585 447.436 164.649Z" fill="#263238"/>
<path d="M466.295 139.431L492.858 171.613C492.858 171.613 531.311 162.963 536.784 150.103C542.257 137.243 523.66 101.083 513.463 86.1124C503.265 71.1413 496.716 71.5147 497.911 88.6869C498.987 104.044 504.788 128.747 504.184 129.584C503.58 130.421 466.295 139.431 466.295 139.431Z" fill="#FFC727"/>
<path d="M476.334 138.788C480.468 143.139 484.405 147.696 488.237 152.304C490.114 154.57 491.99 156.848 493.788 159.178C495.586 161.508 497.371 164.147 499.248 166.567C499.34 166.683 499.169 166.812 499.091 166.709C497.135 164.366 495.009 162.139 493.014 159.835C491.019 157.53 489.208 155.329 487.331 153.076C483.486 148.455 479.667 143.808 475.992 139.071C475.954 139.026 475.935 138.969 475.94 138.911C475.945 138.853 475.973 138.799 476.019 138.762C476.064 138.724 476.122 138.706 476.182 138.711C476.241 138.716 476.295 138.743 476.334 138.788Z" fill="#263238"/>
<path d="M466.217 139.431C469.183 139.2 504.447 130.33 504.486 130.317C504.525 130.304 502.78 119.337 502.399 117.264C501.651 113.042 500.811 108.82 499.88 104.623C499.88 104.533 499.683 104.533 499.696 104.623C499.906 107.198 500.195 109.772 500.536 112.27C500.142 111.175 499.722 110.068 499.223 109C499.223 108.897 499.026 109 499.053 109C499.643 111.163 500.365 113.299 500.982 115.436C501.074 115.99 501.126 116.556 501.218 117.123C501.573 119.247 501.953 121.371 502.373 123.469C502.57 124.512 503.384 128.541 503.581 129.622C498.895 130.523 468.881 138.131 466.151 139.161C466.072 139.212 466.112 139.431 466.217 139.431Z" fill="#263238"/>
<path d="M536.731 150.283C536.261 151.293 535.637 152.227 534.88 153.051C534.775 153.141 534.88 153.167 535.038 153.051C535.902 152.348 536.514 151.391 536.783 150.322C536.783 150.283 536.757 150.219 536.731 150.283Z" fill="#263238"/>
<path d="M498.974 75.6725C498.764 76.9598 493.146 85.8034 487.162 85.9708C485.206 85.9708 484.432 75.5309 484.432 75.5309L484.196 74.7714L480.889 64.0999L493.238 54.9602L495.036 53.7373C495.036 53.7373 495.745 56.7109 496.598 60.4312C496.598 60.5985 496.677 60.7658 496.716 60.9589C496.756 61.152 496.821 61.358 496.861 61.564L497.254 63.2374C497.346 63.6751 497.438 64.087 497.517 64.5247C497.596 64.9624 497.7 65.4258 497.792 65.812C498.414 69.0687 498.809 72.3632 498.974 75.6725Z" fill="#D3766A"/>
<path d="M496.559 60.4441C495.675 63.5733 494.108 66.4765 491.967 68.9527C489.825 71.4288 487.16 73.4187 484.157 74.7844L480.85 64.1128L493.199 54.9732L494.997 53.7502C494.997 53.7502 495.706 56.7239 496.559 60.4441Z" fill="#263238"/>
<path d="M464.825 46.2582C462.331 65.6704 473.906 69.3134 478.172 69.8412C482.043 70.3175 495.299 71.4374 499.826 52.3857C504.354 33.334 495.889 26.0608 487.122 24.5161C478.355 22.9714 467.305 26.8332 464.825 46.2582Z" fill="#D3766A"/>
<path d="M468.881 41.1347C469.353 41.1347 469.8 41.0575 470.272 41.0189C470.762 41.0423 471.247 40.9066 471.65 40.6327C471.762 40.5229 471.833 40.3796 471.852 40.2256C471.871 40.0717 471.837 39.9159 471.755 39.7831C471.557 39.5429 471.296 39.3599 471 39.2534C470.705 39.1468 470.385 39.1208 470.075 39.1781C469.43 39.1931 468.814 39.4406 468.343 39.8732C468.241 39.9782 468.172 40.1101 468.145 40.2527C468.119 40.3954 468.135 40.5426 468.192 40.6764C468.249 40.8102 468.344 40.9248 468.467 41.0062C468.589 41.0876 468.733 41.1323 468.881 41.1347Z" fill="#263238"/>
<path d="M482.003 42.8853C481.556 42.7686 481.117 42.6223 480.691 42.4476C480.186 42.3666 479.724 42.1218 479.378 41.7525C479.298 41.6183 479.266 41.4617 479.288 41.3077C479.309 41.1537 479.383 41.0112 479.496 40.9029C479.745 40.715 480.042 40.5976 480.355 40.5635C480.667 40.5295 480.983 40.5801 481.268 40.7098C481.893 40.8684 482.433 41.2552 482.777 41.7911C482.844 41.9125 482.875 42.0497 482.867 42.1875C482.86 42.3252 482.813 42.4582 482.733 42.5715C482.653 42.6848 482.542 42.7742 482.413 42.8296C482.284 42.8849 482.142 42.9043 482.003 42.8853Z" fill="#263238"/>
<path d="M478.395 47.4553C478.395 47.4553 478.487 47.5325 478.487 47.584C478.238 48.8713 478.198 50.4547 479.353 51.0726C479.353 51.0726 479.353 51.1627 479.353 51.1498C477.87 50.725 477.949 48.6654 478.395 47.4553Z" fill="#263238"/>
<path d="M479.813 46.2453C482.005 46.3869 481.546 50.6993 479.498 50.5577C477.451 50.4161 477.963 46.1165 479.813 46.2453Z" fill="#263238"/>
<path d="M480.651 46.5542C481.005 46.8374 481.333 47.3137 481.793 47.4038C482.252 47.4939 482.764 47.1077 483.171 46.7087H483.236C483.157 47.5454 482.738 48.3564 481.832 48.3821C480.926 48.4079 480.52 47.6097 480.362 46.7601C480.336 46.6572 480.506 46.4512 480.651 46.5542Z" fill="#263238"/>
<path d="M470.848 46.3225C470.848 46.3225 470.73 46.3225 470.73 46.4255C470.638 47.7128 470.31 49.2833 469.023 49.6051V49.6823C470.611 49.6179 471.031 47.5969 470.848 46.3225Z" fill="#263238"/>
<path d="M469.825 44.8035C467.659 44.4302 467.042 48.6654 469.063 49.0644C471.084 49.4635 471.649 45.1254 469.825 44.8035Z" fill="#263238"/>
<path d="M468.88 44.9712C468.499 45.1514 468.092 45.5119 467.686 45.4861C467.279 45.4604 466.911 44.9326 466.675 44.4563C466.675 44.4563 466.609 44.4563 466.596 44.4563C466.452 45.2673 466.596 46.1555 467.397 46.4258C468.197 46.6962 468.709 46.0396 469.05 45.2544C469.116 45.1385 469.024 44.894 468.88 44.9712Z" fill="#263238"/>
<path d="M477.109 58.0882C476.754 58.3843 476.413 58.7962 475.914 58.8091C475.407 58.7727 474.915 58.6277 474.471 58.3843C474.471 58.3843 474.379 58.3843 474.405 58.4486C474.581 58.7248 474.83 58.9487 475.126 59.0962C475.422 59.2436 475.754 59.309 476.085 59.2854C476.367 59.2299 476.625 59.094 476.829 58.8948C477.032 58.6955 477.17 58.4417 477.227 58.1654C477.229 58.151 477.227 58.1363 477.221 58.123C477.215 58.1098 477.205 58.0984 477.192 58.0904C477.18 58.0823 477.166 58.0778 477.151 58.0774C477.136 58.077 477.121 58.0808 477.109 58.0882Z" fill="#263238"/>
<path d="M472.019 52.6175C471.759 53.5718 471.549 54.5385 471.389 55.5139C471.389 55.604 471.599 55.6683 471.927 55.7327C472.731 55.9729 473.586 55.9932 474.4 55.7913C475.214 55.5893 475.956 55.1729 476.547 54.587C476.626 54.4969 476.547 54.3939 476.416 54.4326C475.103 55.1091 473.601 55.3485 472.137 55.1148C472.137 54.8445 473.135 51.7936 472.99 51.7679C472.239 51.7487 471.489 51.8267 470.759 51.9996C471.717 47.8932 473.384 43.9799 474.25 39.8735C474.25 39.7318 474.066 39.6546 474.014 39.7833C472.134 43.921 470.683 48.2336 469.683 52.6561C469.539 53.1839 471.612 52.7333 472.019 52.6175Z" fill="#263238"/>
<path d="M472.16 55.5011C472.609 56.301 473.26 56.9747 474.05 57.4577C474.484 57.7112 474.991 57.8196 475.494 57.7667C476.596 57.6637 476.806 56.7111 476.701 55.8615C476.658 55.4237 476.566 54.9919 476.425 54.5742C475.141 55.3227 473.646 55.6476 472.16 55.5011Z" fill="#263238"/>
<path d="M474.051 57.4572C474.485 57.7107 474.992 57.8191 475.494 57.7661C476.597 57.6632 476.807 56.7106 476.702 55.861C476.142 55.7977 475.576 55.9205 475.095 56.2099C474.615 56.4993 474.247 56.9385 474.051 57.4572Z" fill="#FF9ABB"/>
<path d="M499.197 51.3301C495.47 51.8837 494.328 43.5292 494.328 43.5292C494.328 43.5292 478.382 41.2379 476.742 28.5839C474.858 33.7945 470.999 38.0919 465.967 40.5814C465.967 40.5814 466.203 26.6659 477.372 23.7052C477.372 23.7052 491.204 18.4144 499.302 29.0988C507.399 39.7833 501.69 50.9697 499.197 51.3301Z" fill="#263238"/>
<path d="M476.661 27.657C476.514 29.6162 476.8 31.5835 477.5 33.424C478.173 35.3042 479.237 37.027 480.624 38.483C480.967 38.8457 481.331 39.1895 481.713 39.5128L482.278 40.002C482.474 40.1564 482.684 40.2981 482.894 40.4397C483.314 40.71 483.721 41.0061 484.141 41.2635L485.454 41.9458L486.123 42.2676L486.832 42.5122L488.236 43.0013C489.207 43.2459 490.178 43.439 491.149 43.6192C490.231 43.2459 489.286 42.9756 488.393 42.6023L487.081 41.9973L486.425 41.7012L485.795 41.3408L484.548 40.607C484.154 40.3495 483.774 40.0535 483.393 39.7703L482.816 39.3455L482.291 38.8692C481.927 38.5618 481.585 38.2306 481.267 37.878C479.956 36.4983 478.896 34.9093 478.13 33.1794C477.739 32.3088 477.419 31.4092 477.172 30.489C476.917 29.5616 476.746 28.6139 476.661 27.657Z" fill="#263238"/>
<path d="M496.492 51.7162C496.492 51.7162 501.072 45.7819 503.842 47.4038C506.611 49.0258 502.988 57.7021 499.616 58.8477C499.194 59.016 498.743 59.0986 498.288 59.0906C497.833 59.0826 497.385 58.9841 496.97 58.8012C496.556 58.6183 496.183 58.3546 495.875 58.0263C495.567 57.698 495.331 57.3118 495.18 56.8911L496.492 51.7162Z" fill="#D3766A"/>
<path d="M502.739 49.8884C502.739 49.8884 502.805 49.9528 502.739 49.9657C500.377 50.8024 499.077 52.8749 498.133 55.0375C498.275 54.8138 498.465 54.6232 498.69 54.4789C498.915 54.3347 499.17 54.2403 499.436 54.2023C499.702 54.1643 499.973 54.1837 500.231 54.259C500.489 54.3343 500.726 54.4638 500.928 54.6385C500.994 54.6385 500.928 54.7672 500.862 54.7543C500.458 54.6157 500.019 54.6018 499.607 54.7146C499.194 54.8273 498.826 55.0613 498.552 55.3851C498.101 55.9287 497.714 56.5203 497.398 57.1487C497.279 57.3546 496.899 57.2259 496.991 56.9942C497.096 54.0335 499.55 50.0558 502.739 49.8884Z" fill="#263238"/>
<path d="M484.039 74.4367L487.018 83.4476L498.829 73.1494L501.73 76.9083C501.73 76.9083 489.669 93.7587 489.656 92.9606L486.506 85.1726L480.85 90.0642L482.162 76.934L484.039 74.4367Z" fill="#FFC727"/>
<path d="M481.164 83.4858C481.453 81.3232 481.689 79.1348 482.083 77.0494C482.083 76.9722 482.227 76.9465 482.24 77.0494C482.542 79.1735 481.361 87.4249 481.23 89.4202C481.466 89.2142 486.48 85.1464 486.48 85.2108C487.201 86.4981 489.511 92.1363 489.656 92.6384C491.572 89.9608 499.604 79.4438 501.808 76.9336C501.874 76.9336 501.992 76.9336 501.94 77.0237C500.22 79.8686 489.826 93.7583 489.695 93.7583C488.448 91.0762 487.348 88.3304 486.401 85.5326C484.545 87.399 482.563 89.1408 480.469 90.7461C480.564 88.3153 480.796 85.8915 481.164 83.4858Z" fill="#263238"/>
<path d="M50.8805 249.983C51.1947 244.661 51.9585 239.373 53.1641 234.175C54.1229 229.387 56.0848 224.845 58.9255 220.839C60.2479 219.011 61.9281 217.459 63.8682 216.275C65.8082 215.09 67.9692 214.296 70.2252 213.939C74.648 213.398 78.7952 215.329 82.0368 218.071C86.1315 221.457 89.2813 225.937 92.221 230.275C95.4507 235.139 98.3867 240.186 101.014 245.387C101.033 245.421 101.038 245.462 101.027 245.499C101.016 245.537 100.99 245.568 100.955 245.587C100.92 245.606 100.879 245.61 100.841 245.599C100.803 245.588 100.771 245.563 100.752 245.529C98.47 241.119 95.8371 236.892 92.8772 232.888C90.1832 229.05 87.1485 225.453 83.8085 222.139C80.7769 219.23 76.9185 216.514 72.5219 216.372C70.3648 216.393 68.2426 216.909 66.3242 217.876C64.4057 218.844 62.7441 220.237 61.4715 221.946C58.5318 225.653 57.0225 230.275 55.907 234.819C54.7447 239.772 53.9854 244.808 53.6365 249.88C52.7703 260.294 52.5341 270.785 52.3241 281.225C52.2366 287.104 52.1929 292.999 52.1929 298.912C52.1929 301.912 52.1929 304.898 52.1929 307.923C52.305 310.816 52.1866 313.712 51.8385 316.587C51.7336 317.166 50.7624 317.114 50.6705 316.587C50.3116 313.864 50.1755 311.118 50.2637 308.374C50.2637 305.542 50.2287 302.701 50.1587 299.852C50.1062 294.343 50.0843 288.824 50.0931 283.298C50.0274 272.163 50.1587 261.041 50.8805 249.983Z" fill="#263238"/>
<path d="M66.1063 242.13C66.6706 239.182 67.6812 235.346 69.4004 233.119C72.4714 229.013 75.7918 230.802 72.7208 235.346C70.4543 238.715 68.9795 242.536 68.403 246.533C68.403 246.533 73.5738 253.78 79.8077 257.346C79.5452 254.565 78.7447 250.279 79.2959 246.147C80.4902 237.2 86.0154 237.702 84.6505 244.859C83.6338 249.584 83.1933 254.411 83.3381 259.238C85.4232 260.562 87.6612 261.638 90.005 262.444C89.6507 261.401 89.2701 260.165 88.8501 258.582C86.6322 250.562 92.0786 248.065 92.2624 252.57C92.6083 256.419 93.3157 260.228 94.3753 263.95C97.3676 264.941 99.848 265.61 101.37 266.138C105.298 267.566 108.809 269.917 111.594 272.986C114.44 270.474 116.801 267.478 118.563 264.143C116.66 262.534 113.641 260.139 109.468 257.256C101.594 251.824 104.35 244.962 110.57 249.223C115.059 252.3 118.537 258.002 120.111 260.925C122.238 255.83 123.442 250.411 123.668 244.911C117.513 239.247 102.276 231.343 106.869 231.343C111.003 231.343 120.243 237.29 123.642 239.582C123.55 238.02 123.375 236.465 123.117 234.922C117.316 231.188 98.47 225.396 101.475 223.722C104.77 221.894 117.92 227.867 121.896 229.76C121.152 227.224 119.977 224.83 118.418 222.68C110.4 212.15 95.9502 208.519 89.6376 210.541C85.1754 211.957 86.4878 223.053 85.5298 222.68C67.668 215.561 59.518 220.53 66.1063 242.13ZM110.045 240.92C111.358 239.414 117.198 243.842 115.492 246.262C113.786 248.683 108.405 242.851 110.045 240.92ZM79.309 231.446C80.8576 232.411 78.5741 238.024 76.1855 236.325C74.1513 234.87 77.7473 230.468 79.309 231.446Z" fill="#3D8504"/>
<path opacity="0.2" d="M66.1063 242.13C66.6706 239.182 67.6812 235.346 69.4004 233.119C72.4714 229.013 75.7918 230.802 72.7208 235.346C70.4543 238.715 68.9795 242.536 68.403 246.533C68.403 246.533 73.5738 253.78 79.8077 257.346C79.5452 254.565 78.7447 250.279 79.2959 246.147C80.4902 237.2 86.0154 237.702 84.6505 244.859C83.6338 249.584 83.1933 254.411 83.3381 259.238C85.4232 260.562 87.6612 261.638 90.005 262.444C89.6507 261.401 89.2701 260.165 88.8501 258.582C86.6322 250.562 92.0786 248.065 92.2624 252.57C92.6083 256.419 93.3157 260.228 94.3753 263.95C97.3676 264.941 99.848 265.61 101.37 266.138C105.298 267.566 108.809 269.917 111.594 272.986C114.44 270.474 116.801 267.478 118.563 264.143C116.66 262.534 113.641 260.139 109.468 257.256C101.594 251.824 104.35 244.962 110.57 249.223C115.059 252.3 118.537 258.002 120.111 260.925C122.238 255.83 123.442 250.411 123.668 244.911C117.513 239.247 102.276 231.343 106.869 231.343C111.003 231.343 120.243 237.29 123.642 239.582C123.55 238.02 123.375 236.465 123.117 234.922C117.316 231.188 98.47 225.396 101.475 223.722C104.77 221.894 117.92 227.867 121.896 229.76C121.152 227.224 119.977 224.83 118.418 222.68C110.4 212.15 95.9502 208.519 89.6376 210.541C85.1754 211.957 86.4878 223.053 85.5298 222.68C67.668 215.561 59.518 220.53 66.1063 242.13ZM110.045 240.92C111.358 239.414 117.198 243.842 115.492 246.262C113.786 248.683 108.405 242.851 110.045 240.92ZM79.309 231.446C80.8576 232.411 78.5741 238.024 76.1855 236.325C74.1513 234.87 77.7473 230.468 79.309 231.446Z" fill="black"/>
<path d="M81.6586 233.171C82.4592 231.6 83.3122 230.043 84.2834 228.524C85.1336 227.031 86.1268 225.622 87.2494 224.314L86.4751 223.387C86.3701 223.272 86.5539 223.091 86.672 223.22L87.5382 224.237C87.598 224.267 87.6447 224.317 87.6694 224.379C88.7718 225.666 89.8217 227.03 90.8192 228.395C92.5983 228.782 94.3515 229.277 96.0687 229.875C97.8274 230.455 99.5728 231.047 101.318 231.755C101.502 231.832 101.41 232.115 101.24 232.038C99.5466 231.304 97.8274 230.596 96.0687 230.017C94.3101 229.438 92.7221 229.039 91.0423 228.575C91.5803 229.335 92.1184 230.094 92.6434 230.866C95.7997 231.854 98.8715 233.085 101.83 234.548C104.941 236.003 107.933 237.689 110.912 239.375C110.937 239.4 110.953 239.432 110.958 239.466C110.962 239.5 110.955 239.535 110.936 239.565C110.918 239.595 110.89 239.617 110.857 239.63C110.824 239.642 110.788 239.643 110.754 239.633C107.828 237.953 104.814 236.423 101.725 235.05C98.8379 233.763 95.8588 232.63 92.9452 231.368C100.268 242.581 104.652 255.505 110.518 267.477C110.61 267.644 110.335 267.786 110.256 267.618C108.471 263.422 106.397 259.328 104.455 255.196C102.696 251.489 100.99 247.768 99.2054 244.061C98.6979 242.98 98.173 241.898 97.6305 240.817C97.9586 246.803 97.8274 252.879 98.8248 258.839C98.8318 258.862 98.8332 258.886 98.8289 258.91C98.8246 258.934 98.8148 258.956 98.8001 258.975C98.7855 258.995 98.7664 259.01 98.7445 259.021C98.7226 259.032 98.6984 259.038 98.6739 259.038C98.6493 259.038 98.6251 259.032 98.6032 259.021C98.5813 259.01 98.5622 258.995 98.5476 258.975C98.5329 258.956 98.5231 258.934 98.5188 258.91C98.5145 258.886 98.5159 258.862 98.5229 258.839C98.103 252.403 96.9481 246.159 97.0005 239.723C97.0005 239.723 97.0005 239.723 97.0005 239.646C95.6882 237.2 94.3758 234.78 93.0634 232.437C90.6354 238.037 88.0894 243.726 86.9607 249.738C86.9607 249.918 86.6195 249.841 86.672 249.648C88.3125 243.623 89.848 237.586 92.8009 232.012C91.2496 229.476 89.531 227.042 87.6563 224.726C86.8426 226.219 85.7927 227.622 84.874 229.038C83.9553 230.454 83.076 231.832 82.2492 233.261C80.4466 236.288 78.9141 239.462 77.6689 242.748C77.6689 242.941 77.3015 242.838 77.3802 242.671C78.6401 239.465 80.0575 236.26 81.6586 233.171Z" fill="#263238"/>
<path d="M23.952 246.79C28.6504 242.169 34.1099 236.106 41.3675 236.119C48.3757 236.119 53.5334 241.667 56.4994 247.37C59.5967 253.342 60.7122 260.101 61.5784 266.679C62.6057 274.555 63.2277 282.478 63.442 290.416C63.5733 294.819 63.547 299.234 63.442 303.636C63.4452 308.106 63.0986 312.568 62.4052 316.985C62.274 317.693 61.0928 317.719 61.0928 316.985C60.8828 313.265 61.0928 309.545 61.0928 305.825C61.0928 302.105 61.0928 298.513 60.9222 294.857C60.6466 287.468 60.0954 280.079 59.2161 272.729C58.4418 266.292 57.825 259.715 55.8695 253.523C54.0978 247.923 50.7905 241.525 45.016 239.067C37.1416 235.72 29.4247 241.847 24.2538 247.022C24.057 247.112 23.8207 246.919 23.952 246.79Z" fill="#263238"/>
<path d="M0 257.114C0 258.054 0.091869 258.994 0.157489 259.895C2.41835 258.245 5.06057 257.17 7.84814 256.767C14.5151 256.072 14.0952 261.053 9.633 261.259C6.48418 261.293 3.36906 261.899 0.446216 263.049C1.53551 271.686 3.96344 278.625 4.31779 278.728C10.2589 278.403 16.17 277.676 22.0089 276.552C20.3553 273.089 16.5887 268.481 18.5048 268.108C20.4209 267.734 22.5339 271.841 23.5969 276.243C27.9531 275.423 32.2362 274.265 36.4059 272.78C33.4793 270.296 28.9515 267.194 30.6839 265.868C32.4162 264.542 36.0122 268.919 38.1645 272.085C40.1278 271.299 41.9874 270.283 43.7029 269.06C39.7657 263.358 30.1195 262.199 31.3794 258.093C32.6393 253.986 41.6424 259.676 45.6846 267.297C50.4355 262.469 51.8266 255.634 51.3279 249.79C47.1938 249.313 39.2276 250.176 39.805 247.215C40.3825 244.254 46.1308 244.859 50.8423 246.559C50.408 244.243 49.4678 242.047 48.0863 240.122C43.716 234.638 30.4083 241.615 30.4083 241.615C30.4083 241.615 31.8388 228.498 26.7598 226.232C23.8331 224.945 18.6754 224.945 13.4914 227.932C16.405 228.163 19.9091 229.065 21.3658 231.047C23.1769 233.621 20.329 234.909 18.5179 233.776C17.2055 232.952 14.8695 230.352 10.5648 230.017C8.73282 231.512 7.11685 233.244 5.76143 235.166C5.27584 235.836 4.8165 236.556 4.35716 237.329C6.81495 236.248 9.48563 235.714 12.1785 235.762C14.8714 235.811 17.52 236.443 19.9353 237.612C25.7099 240.418 22.4814 246.301 17.5205 244.048C12.5597 241.796 7.83501 239.517 2.5723 240.817C0.719182 245.471 -0.142828 250.448 0.0393728 255.441C2.61291 253.601 5.50874 252.24 8.58308 251.425C14.3183 249.944 16.0506 253.304 9.75112 253.935C6.31267 254.327 2.99336 255.409 0 257.114ZM6.96883 248.103C6.57512 246.288 10.6435 245.76 11.326 247.241C11.8903 248.477 7.36255 249.906 6.96883 248.078V248.103ZM41.7736 258.196C42.1542 257.204 44.884 258.337 44.6347 259.573C44.3197 261.208 41.4062 259.148 41.7736 258.17V258.196ZM22.5601 264.632C24.5418 263.86 27.6391 268.687 25.4868 269.781C23.3344 270.875 20.9459 265.211 22.5601 264.568V264.632Z" fill="#3D8504"/>
<path opacity="0.2" d="M0 257.114C0 258.054 0.091869 258.994 0.157489 259.895C2.41835 258.245 5.06057 257.17 7.84814 256.767C14.5151 256.072 14.0952 261.053 9.633 261.259C6.48418 261.293 3.36906 261.899 0.446216 263.049C1.53551 271.686 3.96344 278.625 4.31779 278.728C10.2589 278.403 16.17 277.676 22.0089 276.552C20.3553 273.089 16.5887 268.481 18.5048 268.108C20.4209 267.734 22.5339 271.841 23.5969 276.243C27.9531 275.423 32.2362 274.265 36.4059 272.78C33.4793 270.296 28.9515 267.194 30.6839 265.868C32.4162 264.542 36.0122 268.919 38.1645 272.085C40.1278 271.299 41.9874 270.283 43.7029 269.06C39.7657 263.358 30.1195 262.199 31.3794 258.093C32.6393 253.986 41.6424 259.676 45.6846 267.297C50.4355 262.469 51.8266 255.634 51.3279 249.79C47.1938 249.313 39.2276 250.176 39.805 247.215C40.3825 244.254 46.1308 244.859 50.8423 246.559C50.408 244.243 49.4678 242.047 48.0863 240.122C43.716 234.638 30.4083 241.615 30.4083 241.615C30.4083 241.615 31.8388 228.498 26.7598 226.232C23.8331 224.945 18.6754 224.945 13.4914 227.932C16.405 228.163 19.9091 229.065 21.3658 231.047C23.1769 233.621 20.329 234.909 18.5179 233.776C17.2055 232.952 14.8695 230.352 10.5648 230.017C8.73282 231.512 7.11685 233.244 5.76143 235.166C5.27584 235.836 4.8165 236.556 4.35716 237.329C6.81495 236.248 9.48563 235.714 12.1785 235.762C14.8714 235.811 17.52 236.443 19.9353 237.612C25.7099 240.418 22.4814 246.301 17.5205 244.048C12.5597 241.796 7.83501 239.517 2.5723 240.817C0.719182 245.471 -0.142828 250.448 0.0393728 255.441C2.61291 253.601 5.50874 252.24 8.58308 251.425C14.3183 249.944 16.0506 253.304 9.75112 253.935C6.31267 254.327 2.99336 255.409 0 257.114ZM6.96883 248.103C6.57512 246.288 10.6435 245.76 11.326 247.241C11.8903 248.477 7.36255 249.906 6.96883 248.078V248.103ZM41.7736 258.196C42.1542 257.204 44.884 258.337 44.6347 259.573C44.3197 261.208 41.4062 259.148 41.7736 258.17V258.196ZM22.5601 264.632C24.5418 263.86 27.6391 268.687 25.4868 269.781C23.3344 270.875 20.9459 265.211 22.5601 264.568V264.632Z" fill="black"/>
<path d="M5.14385 277.736C8.12299 272.831 11.0759 267.914 14.2256 263.1C15.6824 260.86 17.2179 258.659 18.8059 256.509C18.5697 256.509 18.3203 256.38 18.0972 256.341L16.9029 256.11C15.9843 255.955 15.0525 255.827 14.1338 255.736C13.2151 255.646 12.3883 255.608 11.509 255.595C10.5703 255.538 9.62824 255.586 8.70044 255.736C8.58233 255.736 8.5692 255.582 8.70044 255.595C9.63225 255.595 10.5903 255.505 11.5352 255.492C12.4802 255.479 13.3463 255.492 14.2519 255.492C15.1574 255.492 15.958 255.621 16.7979 255.749L18.1891 255.994C18.4647 255.994 18.7534 256.084 19.029 256.161C20.6433 253.986 22.3231 251.836 24.0686 249.725C18.8959 247.241 13.3833 245.507 7.70302 244.576C7.61115 244.576 7.70302 244.408 7.70302 244.421C13.4664 245.208 19.0684 246.876 24.3049 249.364L27.2577 246.043C28.347 244.756 29.502 243.469 30.4731 242.181C30.5387 242.091 30.67 242.181 30.6044 242.271C29.2552 243.721 27.989 245.242 26.8115 246.828C28.9432 248.29 30.9732 249.89 32.8879 251.617C34.8828 253.333 36.8208 255.118 38.7019 256.972C38.7806 257.037 38.7019 257.152 38.5969 257.088C36.7333 255.26 34.804 253.535 32.7829 251.939C30.7619 250.343 28.6358 248.772 26.6147 247.15C26.1553 247.742 25.696 248.347 25.2235 248.94L24.528 249.841V249.905L22.205 252.892C23.1119 254.177 23.8857 255.549 24.5148 256.985C25.1842 258.362 25.8272 259.791 26.2997 261.233C27.3727 264.224 28.2064 267.293 28.7933 270.411C28.7933 270.514 28.6751 270.553 28.6489 270.411C28.0139 267.336 27.1048 264.32 25.9322 261.4C25.3548 259.907 24.6855 258.44 24.003 256.985C23.3206 255.53 22.6906 254.411 22.0475 253.046C21.3782 253.921 20.7351 254.797 20.0527 255.621L19.5015 256.393C19.5199 256.412 19.5302 256.437 19.5302 256.464C19.5302 256.49 19.5199 256.515 19.5015 256.535C17.4541 259.354 15.4987 262.237 13.5957 265.146C13.7121 265.344 13.8005 265.556 13.8582 265.777C13.9763 266.138 14.0944 266.485 14.1994 266.846C14.4094 267.566 14.58 268.3 14.7244 269.034C14.8687 269.768 14.9475 270.424 15.0131 271.119C15.0276 271.912 15.089 272.703 15.1968 273.488C15.1968 273.617 15.0262 273.617 15.0525 273.488C15.1072 272.746 15.0497 272 14.8818 271.274C14.7768 270.512 14.6322 269.756 14.4487 269.008C14.2913 268.339 14.1075 267.721 13.9107 267.013C13.8057 266.678 13.6876 266.344 13.5826 266.022C13.4776 265.7 13.4251 265.661 13.3726 265.481C12.4801 266.846 11.6008 268.223 10.7478 269.6L5.60318 277.839C5.27508 278.006 5.05198 277.878 5.14385 277.736Z" fill="#263238"/>
<path d="M51.2363 315.389C51.3151 312.609 51.7613 309.815 52.0763 307.048C52.3912 304.28 52.7062 301.499 53.0081 298.719C53.3858 293.324 54.1134 287.958 55.1866 282.654C56.1448 278.09 58.4656 273.909 61.8536 270.643C63.6214 268.919 65.9364 267.838 68.4156 267.58C70.9015 267.515 73.3404 268.252 75.3582 269.678C77.6492 271.337 79.6221 273.381 81.1852 275.715C82.8841 278.017 84.4063 280.439 85.7393 282.963C85.7393 283.053 85.6343 283.117 85.5818 283.027C83.0579 278.819 79.7132 275.14 75.7388 272.201C73.9724 270.763 71.8133 269.868 69.5312 269.626C68.4133 269.613 67.3037 269.817 66.2673 270.228C65.2308 270.639 64.2881 271.249 63.4941 272.021C60.3283 275.014 58.1208 278.848 57.1421 283.053C55.9842 287.941 55.1599 292.899 54.6748 297.895C54.2811 300.83 53.9005 303.778 53.5068 306.713C53.1131 309.648 52.8637 312.634 52.1944 315.518C52.1528 315.619 52.0781 315.703 51.9821 315.758C51.8861 315.812 51.7742 315.834 51.6643 315.819C51.5543 315.805 51.4525 315.754 51.375 315.676C51.2975 315.598 51.2487 315.497 51.2363 315.389Z" fill="#263238"/>
<path d="M65.1746 293.814C66.0479 294.979 67.0864 296.015 68.2587 296.891C67.7863 294.188 67.2219 289.373 68.6262 286.799C70.7916 282.821 73.3508 284.803 72.0647 288.266C70.7702 291.39 70.0632 294.717 69.978 298.088C72.9242 299.905 76.0838 301.366 79.3879 302.439C79.0333 300.881 78.927 299.279 79.0729 297.689C79.506 293.428 82.8263 293.518 81.9733 297.947C81.6544 299.645 81.5006 301.369 81.5139 303.096C86.3088 304.543 91.2096 305.627 96.1734 306.34C98.7062 303.112 100.753 299.544 102.25 295.745C98.7064 294.87 91.5538 294.677 91.7506 292.192C91.9475 288.858 98.8901 291.433 102.932 293.853C103.865 290.94 104.282 287.893 104.166 284.842C100.985 283.964 97.7147 283.433 94.4148 283.259C87.1441 282.641 87.4985 278.599 92.7743 278.689C96.7115 278.753 101.581 281.096 103.917 282.306C102.394 272.6 94.8479 266.382 88.7978 266.138C78.6135 265.739 82.2358 278.161 82.2358 278.161C82.2358 278.161 75.3457 273.398 68.8362 273.527C62.3267 273.656 58.2189 284.314 65.1746 293.814ZM92.3543 275.883C92.1312 274.479 96.6721 274.145 96.9084 275.883C97.1708 277.929 92.5906 277.273 92.3543 275.883ZM99.6644 290.455C99.5725 289.541 101.528 289.373 101.974 290.532C102.263 291.253 99.7431 291.33 99.6644 290.429V290.455ZM75.2276 291.33C76.7631 291.536 77.6292 296.917 74.9913 296.814C72.9834 296.672 73.9283 291.098 75.2276 291.33Z" fill="#3D8504"/>
<path opacity="0.2" d="M65.1746 293.814C66.0479 294.979 67.0864 296.015 68.2587 296.891C67.7863 294.188 67.2219 289.373 68.6262 286.799C70.7916 282.821 73.3508 284.803 72.0647 288.266C70.7702 291.39 70.0632 294.717 69.978 298.088C72.9242 299.905 76.0838 301.366 79.3879 302.439C79.0333 300.881 78.927 299.279 79.0729 297.689C79.506 293.428 82.8263 293.518 81.9733 297.947C81.6544 299.645 81.5006 301.369 81.5139 303.096C86.3088 304.543 91.2096 305.627 96.1734 306.34C98.7062 303.112 100.753 299.544 102.25 295.745C98.7064 294.87 91.5538 294.677 91.7506 292.192C91.9475 288.858 98.8901 291.433 102.932 293.853C103.865 290.94 104.282 287.893 104.166 284.842C100.985 283.964 97.7147 283.433 94.4148 283.259C87.1441 282.641 87.4985 278.599 92.7743 278.689C96.7115 278.753 101.581 281.096 103.917 282.306C102.394 272.6 94.8479 266.382 88.7978 266.138C78.6135 265.739 82.2358 278.161 82.2358 278.161C82.2358 278.161 75.3457 273.398 68.8362 273.527C62.3267 273.656 58.2189 284.314 65.1746 293.814ZM92.3543 275.883C92.1312 274.479 96.6721 274.145 96.9084 275.883C97.1708 277.929 92.5906 277.273 92.3543 275.883ZM99.6644 290.455C99.5725 289.541 101.528 289.373 101.974 290.532C102.263 291.253 99.7431 291.33 99.6644 290.429V290.455ZM75.2276 291.33C76.7631 291.536 77.6292 296.917 74.9913 296.814C72.9834 296.672 73.9283 291.098 75.2276 291.33Z" fill="black"/>
<path d="M77.3533 297.252C77.6026 296.582 77.8258 295.9 78.0357 295.218C77.8389 295.913 77.6683 296.608 77.537 297.303C77.5301 297.327 77.5137 297.347 77.4916 297.359C77.4694 297.371 77.4433 297.374 77.4189 297.368C77.3945 297.361 77.3739 297.345 77.3616 297.323C77.3493 297.301 77.3463 297.276 77.3533 297.252Z" fill="#263238"/>
<path d="M80.0307 288.601C80.5163 287.224 81.0413 285.859 81.5925 284.508C81.8812 283.787 82.183 283.066 82.5111 282.358C82.7463 281.727 83.0499 281.123 83.4167 280.556C83.0987 279.997 82.8224 279.416 82.5899 278.818C82.5899 278.818 82.5899 278.715 82.6818 278.818C83.4283 279.765 84.0912 280.773 84.6635 281.83C84.9522 282.306 85.2147 282.783 85.5034 283.259C86.0774 283.307 86.6474 283.393 87.2095 283.516C87.8132 283.619 88.4301 283.748 89.0338 283.877L90.8449 284.289C91.4486 284.43 92.0392 284.623 92.656 284.726C92.7872 284.726 92.7347 284.958 92.656 284.907C92.0365 284.692 91.4 284.529 90.753 284.417L88.9419 284.057C88.3513 283.98 87.7607 283.902 87.1702 283.851C86.5796 283.8 86.2777 283.787 85.8578 283.735C86.1071 284.16 86.3565 284.572 86.5927 285.022L86.6977 285.228C87.1934 285.213 87.6886 285.27 88.1676 285.396C88.6925 285.486 89.2175 285.576 89.7293 285.692C90.7924 285.924 91.8554 286.168 92.9053 286.464C95.097 287.056 97.2756 287.751 99.4673 288.447C99.5854 288.447 99.4673 288.665 99.3886 288.627C97.2355 287.915 95.0451 287.318 92.8266 286.837L89.6112 286.181L88.0495 285.859C87.6371 285.795 87.2294 285.705 86.8289 285.589C87.9576 287.623 89.0075 289.682 89.9787 291.793C92.0917 296.363 93.9159 301.088 95.6745 305.786C95.6745 305.902 95.5301 305.979 95.4908 305.863C93.7408 301.191 91.7164 296.622 89.4275 292.18L88.1938 289.747C88.1938 289.914 88.1151 290.081 88.0888 290.249C87.9838 290.802 87.8789 291.356 87.787 291.909C87.5901 293.029 87.4064 294.136 87.2358 295.256C86.7513 297.541 86.4746 299.862 86.409 302.195C86.409 302.336 86.199 302.323 86.2121 302.195C86.3958 301.088 86.3959 299.929 86.4746 298.809C86.5533 297.689 86.6321 296.479 86.7633 295.308C86.8946 294.136 87.052 293.068 87.2358 291.961C87.3276 291.407 87.4326 290.841 87.5376 290.287C87.5679 289.869 87.6745 289.459 87.8526 289.077C87.262 287.906 86.6714 286.734 86.0677 285.563C85.464 284.392 84.926 283.375 84.3485 282.281L83.5742 280.89C83.3913 281.469 83.1631 282.033 82.8917 282.577C82.6424 283.207 82.3799 283.864 82.1174 284.456C81.5269 285.846 80.9888 287.262 80.4376 288.665C79.6764 290.661 78.8233 292.707 78.1934 294.78C78.8102 292.695 79.3351 290.622 80.0307 288.601Z" fill="#263238"/>
<path d="M34.2285 309.983L34.9372 324.838L36.7877 363.135H77.0652L78.9025 324.838L79.6244 309.983H34.2285Z" fill="#37474F"/>
<path d="M34.2285 309.983L34.9372 324.838H78.9025L79.6244 309.983H34.2285Z" fill="#263238"/>
<path d="M31.3645 315.995H82.4824V303.984H31.3645V315.995Z" fill="#37474F"/>
<path d="M73.8102 363.134H66.7363V369.429H73.8102V363.134Z" fill="#37474F"/>
<path d="M73.8102 363.134H66.7363V366.275H73.8102V363.134Z" fill="#263238"/>
<path d="M47.1017 363.134H40.041V369.429H47.1017V363.134Z" fill="#37474F"/>
<path d="M47.1017 363.134H40.041V366.275H47.1017V363.134Z" fill="#263238"/>
<path d="M449.638 29.0218C451.391 26.4629 452.336 23.454 452.355 20.3713C452.355 9.4294 440.11 0.560059 425.005 0.560059C409.899 0.560059 397.654 9.4294 397.654 20.3713C397.654 31.3131 409.886 40.1954 425.005 40.1954C431.719 40.3 438.304 38.3863 443.877 34.7115L453.3 37.0673L449.638 29.0218Z" fill="#FFFEFD"/>
<path d="M449.64 29.0215C451.257 26.577 452.165 23.7467 452.265 20.8344C452.288 17.9539 451.483 15.1252 449.942 12.6731C446.694 7.85557 441.797 4.33552 436.136 2.7482C430.553 1.02223 424.626 0.651154 418.865 1.66687C413.097 2.54252 407.74 5.12499 403.509 9.06872C401.464 11.0379 399.933 13.4623 399.047 16.1359C398.179 18.8059 398.138 21.6686 398.929 24.3616C399.773 27.0489 401.268 29.4958 403.286 31.4931C405.321 33.5138 407.691 35.1809 410.295 36.4234C412.914 37.6723 415.696 38.5604 418.563 39.0623C421.432 39.605 424.358 39.8081 427.277 39.6673C433.149 39.4641 438.851 37.683 443.761 34.5182L443.879 34.441H444.01L453.407 36.9254L453.223 37.1442L449.64 29.0215ZM449.64 29.0215L453.446 37.0026L453.577 37.2858L453.262 37.2086L443.8 34.9945H444.049C439.093 38.3593 433.283 40.311 427.264 40.6328C421.241 41.0694 415.204 39.9835 409.73 37.479C406.988 36.1921 404.492 34.4501 402.355 32.3298C400.173 30.2021 398.56 27.5804 397.656 24.6963C396.776 21.777 396.803 18.6665 397.735 15.7626C398.69 12.8971 400.343 10.3034 402.551 8.20625C406.975 4.10066 412.578 1.427 418.602 0.546947C424.542 -0.490199 430.652 -0.0475681 436.372 1.83422C439.223 2.76051 441.911 4.11541 444.338 5.85053C446.786 7.55971 448.842 9.75209 450.375 12.2869C451.904 14.8326 452.648 17.7579 452.517 20.7094C452.387 23.6609 451.387 26.5122 449.64 28.9185V29.0215Z" fill="#263238"/>
<path d="M415.164 20.3708C415.164 20.9208 414.997 21.4584 414.686 21.9156C414.374 22.3729 413.932 22.7293 413.414 22.9397C412.896 23.1502 412.326 23.2052 411.776 23.0979C411.226 22.9906 410.721 22.7258 410.324 22.337C409.928 21.9481 409.658 21.4527 409.549 20.9133C409.439 20.3739 409.495 19.8149 409.71 19.3068C409.924 18.7987 410.288 18.3644 410.754 18.0589C411.22 17.7534 411.768 17.5903 412.329 17.5903C413.081 17.5903 413.802 17.8833 414.333 18.4047C414.865 18.9262 415.164 19.6334 415.164 20.3708Z" fill="#263238"/>
<path d="M427.841 20.3708C427.841 20.9208 427.675 21.4584 427.364 21.9156C427.052 22.3729 426.609 22.7293 426.091 22.9397C425.573 23.1502 425.003 23.2052 424.454 23.0979C423.904 22.9906 423.399 22.7258 423.002 22.337C422.606 21.9481 422.336 21.4527 422.226 20.9133C422.117 20.3739 422.173 19.8149 422.388 19.3068C422.602 18.7987 422.966 18.3644 423.432 18.0589C423.898 17.7534 424.446 17.5903 425.007 17.5903C425.758 17.5903 426.48 17.8833 427.011 18.4047C427.543 18.9262 427.841 19.6334 427.841 20.3708Z" fill="#263238"/>
<path d="M440.519 20.3711C440.519 20.921 440.353 21.4586 440.041 21.9159C439.73 22.3731 439.287 22.7295 438.769 22.94C438.251 23.1504 437.681 23.2055 437.131 23.0982C436.581 22.9909 436.076 22.7261 435.68 22.3372C435.283 21.9484 435.013 21.4529 434.904 20.9135C434.795 20.3742 434.851 19.8151 435.065 19.307C435.28 18.799 435.643 18.3647 436.109 18.0592C436.576 17.7536 437.124 17.5906 437.684 17.5906C438.057 17.5906 438.425 17.6625 438.769 17.8022C439.113 17.942 439.426 18.1468 439.689 18.405C439.952 18.6632 440.161 18.9697 440.303 19.307C440.446 19.6444 440.519 20.0059 440.519 20.3711Z" fill="#263238"/>
</svg>
