<svg width="504" height="486" viewBox="0 0 504 486" fill="none" xmlns="http://www.w3.org/2000/svg">
<line x1="68.4316" y1="475.135" x2="434.567" y2="475.135" stroke="#E3E3E3" stroke-width="1.585"/>
<path d="M372.338 1.6543C372.338 1.6543 389.712 1.89229 382.28 36.2097C374.849 70.5271 375.803 77.0098 375.803 90.6098C375.7 95.0484 376.851 99.4264 379.123 103.244C381.396 107.062 384.699 110.165 388.655 112.2H365.088L347.76 32.0844V1.6543H372.338Z" fill="#E0E0E0"/>
<path d="M377.453 271.762H139.525L141.65 39.5985L365.75 27.9138L377.453 271.762Z" fill="#E0E0E0"/>
<path d="M369.282 265.767H131.354L133.478 33.6036L364.498 29.1042L369.282 265.767Z" fill="#EBEBEB"/>
<path d="M364.352 259.296H126.912V27.132L364.499 26.5767L364.352 259.296Z" fill="#FAFAFA"/>
<path d="M364.353 259.296C364.353 257.131 364.353 166.169 364.239 26.5765L364.501 26.8371L127.289 27.4265H126.914L127.209 27.1318C127.209 112.064 127.209 191.703 127.209 259.296L126.959 259.046L364.444 259.296L126.959 259.556H126.709V259.296C126.709 191.703 126.709 112.064 126.709 27.1318V26.8371H127.368L364.592 26.3271H364.842V26.5765C364.512 166.169 364.353 257.131 364.353 259.296Z" fill="#263238"/>
<path d="M364.499 25.9531C352.227 11.707 366.465 1.16702 371.317 0.94035L145.195 0.815682C142.417 0.813066 139.673 1.41646 137.154 2.58354C134.635 3.75063 132.402 5.45317 130.613 7.57179C128.823 9.6904 127.52 12.1738 126.794 14.8479C126.069 17.522 125.938 20.322 126.412 23.0517C126.639 24.2459 126.947 25.4235 127.333 26.5764" fill="#F5F5F5"/>
<path d="M370.49 112.2H370.808H371.717H375.262L388.659 112.121V112.472C386.63 111.845 384.764 110.781 383.193 109.355C381.461 107.713 380.078 105.739 379.125 103.553C378.063 101.171 377.244 98.6872 376.682 96.1407C376.375 94.8147 376.103 93.466 375.853 92.0834C375.707 91.3829 375.597 90.6756 375.523 89.964C375.424 89.2428 375.371 88.516 375.364 87.788C375.287 84.7626 375.386 81.7354 375.66 78.7213C375.887 75.6387 376.239 72.4767 376.614 69.2467C377.387 62.798 378.353 56.0773 379.5 49.1866C379.978 46.2513 380.568 43.3386 381.057 40.4939C381.546 37.6493 381.909 34.8273 382.273 32.0166C382.636 29.2059 382.932 26.4859 383.261 23.7999C383.409 22.4626 383.591 21.1366 383.625 19.8332C383.656 18.5413 383.584 17.249 383.409 15.9686C383.079 13.4688 382.346 11.0386 381.239 8.77189C380.249 6.64752 378.746 4.8016 376.864 3.39989C375.056 2.17004 372.843 1.67918 370.683 2.02855C368.678 2.27639 366.778 3.05952 365.183 4.29522C363.772 5.46501 362.613 6.90667 361.774 8.53389C361.014 9.9895 360.456 11.5412 360.115 13.1466C359.56 15.7367 359.876 18.4371 361.013 20.8306C361.708 22.3526 362.544 23.8059 363.513 25.1713L364.285 26.2253C364.456 26.4633 364.535 26.5993 364.535 26.5993C364.535 26.5993 364.422 26.4973 364.229 26.2706L363.422 25.2393C362.398 23.8975 361.522 22.4498 360.808 20.9212C359.608 18.4914 359.249 15.7337 359.786 13.0786C360.122 11.4394 360.68 9.85332 361.445 8.36389C362.303 6.67499 363.497 5.17864 364.956 3.96655C366.602 2.67696 368.563 1.84769 370.637 1.56388C372.914 1.19036 375.249 1.7014 377.16 2.99188C379.117 4.43917 380.679 6.35226 381.705 8.55656C382.824 10.8593 383.561 13.3281 383.886 15.8666C384.069 17.1768 384.149 18.4993 384.125 19.8219C384.125 21.1706 383.909 22.4966 383.761 23.8453C383.466 26.5313 383.148 29.2739 382.784 32.0733C382.421 34.8726 382.046 37.7399 381.58 40.5733C381.114 43.4066 380.5 46.3193 380.034 49.266C378.898 56.1453 377.909 62.866 377.125 69.292C376.75 72.5107 376.398 75.6613 376.16 78.744C375.883 81.72 375.773 84.7091 375.83 87.6974C375.839 88.4098 375.888 89.1212 375.978 89.828C376.035 90.5307 376.182 91.2334 376.296 91.9247C376.546 93.296 376.807 94.6447 377.114 95.9594C377.651 98.477 378.443 100.934 379.478 103.292C380.402 105.423 381.742 107.349 383.421 108.959C384.938 110.358 386.746 111.407 388.716 112.03L389.852 112.393H388.716L375.319 112.313H371.774H370.864L370.49 112.2Z" fill="#263238"/>
<path d="M224.054 8.03532C224.145 8.10332 223.463 8.99866 222.792 10.6533C222.407 11.6154 222.122 12.6141 221.94 13.634C221.739 14.889 221.678 16.1623 221.758 17.4307C221.868 18.6949 222.123 19.9423 222.52 21.148C222.85 22.1353 223.285 23.085 223.815 23.9814C224.736 25.5 225.542 26.248 225.463 26.3727C225.383 26.4973 225.213 26.214 224.849 25.8627C224.324 25.3623 223.859 24.8033 223.463 24.1967C222.863 23.3035 222.374 22.3406 222.008 21.3293C221.092 18.8389 220.884 16.1444 221.406 13.5433C221.617 12.4876 221.953 11.4605 222.406 10.4833C222.712 9.82219 223.093 9.1985 223.542 8.62466C223.826 8.22799 224.02 8.01265 224.054 8.03532Z" fill="#263238"/>
<path d="M218.406 -0.000244141C217.286 1.11704 216.281 2.34338 215.406 3.66043C213.324 6.8776 212.556 10.7678 213.26 14.5321C213.963 18.2964 216.085 21.6492 219.19 23.9018C220.477 24.815 221.851 25.6008 223.292 26.2478C222.863 26.1857 222.443 26.0715 222.042 25.9078C220.933 25.4929 219.883 24.9367 218.917 24.2531C217.286 23.141 215.891 21.718 214.813 20.0662C213.735 18.4143 212.995 16.5661 212.636 14.628C212.277 12.6899 212.306 10.7001 212.721 8.7731C213.136 6.84611 213.929 5.01997 215.054 3.39976C215.691 2.41651 216.455 1.52107 217.326 0.736426C217.65 0.442278 218.014 0.194359 218.406 -0.000244141Z" fill="#263238"/>
<path d="M346.191 181.242H345.452H343.27L334.873 181.299L303.966 181.446L202.143 181.537H157.941V181.254C157.941 152.24 158.021 127.284 158.055 109.559C158.055 100.719 158.112 93.6923 158.135 88.8417C158.135 86.4503 158.135 84.5916 158.135 83.311C158.135 82.699 158.135 82.2343 158.135 81.8943C158.135 81.5543 158.135 81.407 158.135 81.407C158.135 81.407 158.135 81.5656 158.135 81.8943C158.135 82.223 158.135 82.699 158.135 83.311C158.135 84.5916 158.135 86.4503 158.135 88.8417C158.135 93.6923 158.135 100.719 158.214 109.559C158.214 127.284 158.282 152.24 158.328 181.254L158.044 180.97H201.961L303.784 181.061L334.646 181.152L343.043 181.208H345.225L346.191 181.242Z" fill="#263238"/>
<path d="M192.532 156.57H173.545V175.508H192.532V156.57Z" fill="#FF725E"/>
<path d="M220.362 143.038H201.375V175.508H220.362V143.038Z" fill="#FF725E"/>
<path d="M248.302 127.659H229.314V175.508H248.302V127.659Z" fill="#FF725E"/>
<path d="M275.392 110.545H256.404V175.508H275.392V110.545Z" fill="#FF725E"/>
<path d="M303.107 88.6379H284.119V175.508H303.107V88.6379Z" fill="#FF725E"/>
<path d="M330.616 71.9209H311.629V174.612H330.616V71.9209Z" fill="#FF725E"/>
<path d="M173.545 137.134C173.616 137.059 173.696 136.995 173.784 136.941L174.522 136.431L177.42 134.504L188.294 127.353L225.962 102.793L226.405 102.51V103.031C226.405 105.717 226.405 108.585 226.405 111.509L225.951 111.271L240.791 101.343L293.174 66.4361L309.082 55.9074L313.422 53.0741L314.559 52.3487L314.956 52.1221C314.844 52.2236 314.722 52.3147 314.593 52.3941L313.456 53.1761L309.173 56.1001L293.424 66.8668L241.154 101.921L226.303 111.837L225.848 112.143V103.077L226.292 103.315L188.499 127.693L177.533 134.708L174.59 136.556L173.829 137.032L173.545 137.134Z" fill="#263238"/>
<path d="M314.981 60.1683C314.818 59.4012 314.75 58.6173 314.776 57.8337C314.776 56.383 314.697 54.3657 314.685 52.167L314.981 52.4617H314.254C311.822 52.4617 309.617 52.4617 308.027 52.371C307.162 52.3966 306.297 52.3282 305.447 52.167C306.296 51.9974 307.161 51.9252 308.027 51.9516C309.617 51.9516 311.822 51.8723 314.254 51.8723H315.276V52.133C315.276 54.3997 315.276 56.4057 315.185 57.7997C315.215 58.5946 315.146 59.3901 314.981 60.1683Z" fill="#263238"/>
<path d="M214.666 196.509C214.666 196.679 208.803 196.803 201.564 196.803C194.326 196.803 188.463 196.679 188.463 196.509C188.463 196.339 194.326 196.214 201.564 196.214C208.803 196.214 214.666 196.35 214.666 196.509Z" fill="#263238"/>
<path d="M201.215 205.462C200.821 203.441 200.821 201.363 201.215 199.342C201.609 201.363 201.609 203.441 201.215 205.462Z" fill="#263238"/>
<path d="M233.325 208.534C233.325 208.692 217.565 208.828 198.1 208.828C178.635 208.828 162.875 208.692 162.875 208.534C162.875 208.375 178.624 208.239 198.1 208.239C217.576 208.239 233.325 208.364 233.325 208.534Z" fill="#263238"/>
<path d="M163.431 217.238C163.036 214.426 163.036 211.572 163.431 208.76C163.825 211.572 163.825 214.426 163.431 217.238Z" fill="#263238"/>
<path d="M188.463 216.297C188.069 213.88 188.069 211.415 188.463 208.998C188.857 211.415 188.857 213.88 188.463 216.297Z" fill="#263238"/>
<path d="M214.2 216.762C213.806 214.109 213.806 211.413 214.2 208.76C214.594 211.413 214.594 214.109 214.2 216.762Z" fill="#263238"/>
<path d="M233.793 216.762C233.4 214.029 233.4 211.255 233.793 208.522C234.187 211.255 234.187 214.029 233.793 216.762Z" fill="#263238"/>
<path d="M172.161 219.595C169.338 219.887 166.498 219.985 163.662 219.89C160.825 219.985 157.985 219.887 155.162 219.595C157.985 219.297 160.825 219.198 163.662 219.3C166.498 219.198 169.338 219.297 172.161 219.595Z" fill="#263238"/>
<path d="M193.896 219.595C189.576 219.988 185.229 219.988 180.908 219.595C185.229 219.202 189.576 219.202 193.896 219.595Z" fill="#263238"/>
<path d="M221.521 220.298C216.885 220.691 212.225 220.691 207.59 220.298C212.225 219.905 216.885 219.905 221.521 220.298Z" fill="#263238"/>
<path d="M243.948 219.119C238.998 219.512 234.024 219.512 229.074 219.119C234.024 218.726 238.998 218.726 243.948 219.119Z" fill="#263238"/>
<path d="M163.672 227.8C163.278 226.177 163.278 224.483 163.672 222.859C164.066 224.483 164.066 226.177 163.672 227.8Z" fill="#263238"/>
<path d="M179.83 227.8C179.83 227.959 172.955 228.095 164.49 228.095C156.025 228.095 149.139 227.959 149.139 227.8C149.139 227.641 156.013 227.505 164.49 227.505C172.967 227.505 179.83 227.664 179.83 227.8Z" fill="#263238"/>
<path d="M179.831 234.895C179.437 232.558 179.437 230.172 179.831 227.834C180.225 230.172 180.225 232.558 179.831 234.895Z" fill="#263238"/>
<path d="M149.137 235.371C148.743 232.874 148.743 230.331 149.137 227.834C149.531 230.331 149.531 232.874 149.137 235.371Z" fill="#263238"/>
<path d="M214.825 227.8C214.431 226.177 214.431 224.483 214.825 222.859C215.219 224.483 215.219 226.177 214.825 227.8Z" fill="#263238"/>
<path d="M252.144 227.8C252.144 227.959 240.531 228.095 226.214 228.095C211.896 228.095 200.295 227.959 200.295 227.8C200.295 227.641 211.896 227.505 226.214 227.505C240.531 227.505 252.144 227.664 252.144 227.8Z" fill="#263238"/>
<path d="M230.983 234.895C230.589 232.558 230.589 230.172 230.983 227.834C231.377 230.172 231.377 232.558 230.983 234.895Z" fill="#263238"/>
<path d="M253.202 234.895C252.808 232.558 252.808 230.172 253.202 227.834C253.596 230.172 253.596 232.558 253.202 234.895Z" fill="#263238"/>
<path d="M200.297 235.371C199.903 232.874 199.903 230.331 200.297 227.834C200.691 230.331 200.691 232.874 200.297 235.371Z" fill="#263238"/>
<path d="M155.184 239.711C151.163 240.104 147.114 240.104 143.094 239.711C147.114 239.318 151.163 239.318 155.184 239.711Z" fill="#263238"/>
<path d="M185.251 238.85C180.9 239.243 176.523 239.243 172.172 238.85C176.523 238.457 180.9 238.457 185.251 238.85Z" fill="#263238"/>
<path d="M206.964 238.85C203.137 239.243 199.28 239.243 195.453 238.85C199.28 238.457 203.137 238.457 206.964 238.85Z" fill="#263238"/>
<path d="M236.247 238.85C232.09 239.243 227.905 239.243 223.748 238.85C227.905 238.456 232.09 238.456 236.247 238.85Z" fill="#263238"/>
<path d="M259.656 238.068C255.438 238.461 251.192 238.461 246.975 238.068C251.192 237.675 255.438 237.675 259.656 238.068Z" fill="#263238"/>
<path d="M346.014 242.658H265.871V193.154H346.014V242.658ZM265.917 242.601H346.014V193.211H265.928L265.917 242.601Z" fill="#263238"/>
<path d="M326.697 228.933C321.141 226.836 314.755 232.639 309.301 230.27C306.142 228.899 304.699 225.318 303.142 222.246C301.585 219.175 298.915 215.911 295.484 216.274C292.052 216.636 289.211 220.637 285.859 219.674C283.746 219.062 282.7 216.727 282.166 214.596C281.632 212.466 281.269 210.12 279.655 208.624C278.041 207.128 274.701 207.49 274.439 209.757V235.971H337.083C337.083 235.971 328.584 229.658 326.697 228.933Z" fill="#FF725E"/>
<path d="M338.718 235.926C338.718 235.983 323.537 236.028 304.811 236.028C286.085 236.028 270.904 236.028 270.904 235.926C270.904 235.824 286.085 235.824 304.811 235.824C323.537 235.824 338.718 235.87 338.718 235.926Z" fill="#E0E0E0"/>
<path d="M338.718 224.479C338.718 224.536 323.537 224.581 304.811 224.581C286.085 224.581 270.904 224.581 270.904 224.479C270.904 224.377 286.085 224.377 304.811 224.377C323.537 224.377 338.718 224.4 338.718 224.479Z" fill="#263238"/>
<path d="M338.718 213.067C338.718 213.067 323.537 213.158 304.811 213.158C286.085 213.158 270.904 213.158 270.904 213.067C270.904 212.976 286.085 212.965 304.811 212.965C323.537 212.965 338.718 212.976 338.718 213.067Z" fill="#263238"/>
<path d="M338.718 202.142C338.718 202.142 323.537 202.244 304.811 202.244C286.085 202.244 270.904 202.244 270.904 202.142C270.904 202.04 286.085 202.04 304.811 202.04C323.537 202.04 338.718 202.085 338.718 202.142Z" fill="#263238"/>
<path d="M158.287 43.3954C158.287 43.3954 158.287 43.3954 158.4 43.3954H158.718C159.138 43.3932 159.556 43.4311 159.968 43.5087C160.627 43.6247 161.263 43.8427 161.855 44.1547C162.643 44.5753 163.33 45.1633 163.866 45.8774C164.53 46.7449 164.984 47.7532 165.195 48.824C165.374 50.0713 165.213 51.3435 164.729 52.5074C164.48 53.1391 164.172 53.7462 163.809 54.3207C163.431 54.9134 163.086 55.5263 162.775 56.1567C162.114 57.4851 161.647 58.901 161.389 60.3614V60.4634H161.286L158.321 60.3954L155.207 60.3161H155.116V60.2027C155.039 58.7354 154.598 57.31 153.832 56.0547C153.503 55.4201 153.128 54.8307 152.776 54.2301C152.417 53.6634 152.091 53.0769 151.798 52.4734C151.289 51.3183 151.173 50.0284 151.469 48.8014C151.686 47.744 152.124 46.744 152.753 45.866C153.278 45.165 153.959 44.5948 154.741 44.2C155.333 43.9012 155.964 43.6876 156.616 43.5654C157.024 43.4773 157.438 43.4242 157.855 43.4067H158.173C158.253 43.4067 158.287 43.4067 158.287 43.4067H158.173H157.855C157.445 43.4388 157.039 43.5032 156.639 43.5994C155.999 43.7365 155.38 43.9576 154.798 44.2567C154.025 44.657 153.353 45.2266 152.832 45.9227C152.23 46.7914 151.816 47.7756 151.617 48.8127C151.332 49.9991 151.448 51.246 151.946 52.36C152.239 52.9556 152.566 53.5345 152.923 54.0941C153.276 54.6834 153.651 55.284 153.991 55.9187C154.78 57.2068 155.229 58.6726 155.298 60.1801L155.196 60.0554L158.309 60.1347L161.275 60.2141L161.161 60.3047C161.429 58.8256 161.904 57.3912 162.57 56.0434C162.888 55.4086 163.241 54.7919 163.627 54.1961C163.986 53.633 164.29 53.0372 164.536 52.4167C165.023 51.2855 165.188 50.0426 165.013 48.824C164.814 47.7825 164.383 46.7989 163.752 45.9454C163.231 45.2334 162.565 44.6387 161.798 44.2C161.221 43.888 160.6 43.6627 159.957 43.5314C159.548 43.4515 159.134 43.4023 158.718 43.384H158.389L158.287 43.3954Z" fill="#263238"/>
<path d="M159.149 60.0665C159.152 60.0325 159.152 59.9984 159.149 59.9645V59.6925C159.149 59.4431 159.081 59.0805 159.024 58.5591C158.933 57.6185 158.786 56.2925 158.717 54.5811C158.717 54.1618 158.717 53.7198 158.717 53.2665C158.717 52.8131 158.717 52.3258 158.717 51.8271C158.752 51.3111 158.887 50.8067 159.115 50.3424C159.363 49.8335 159.787 49.4311 160.308 49.2091C160.587 49.1099 160.89 49.0935 161.178 49.1619C161.466 49.2303 161.729 49.3805 161.933 49.5944C162.039 49.704 162.122 49.8337 162.177 49.9758C162.231 50.118 162.257 50.2696 162.251 50.4218C162.23 50.7339 162.111 51.0313 161.91 51.2718C161.704 51.5093 161.448 51.6988 161.16 51.8271C160.872 51.9481 160.571 52.0356 160.263 52.0878C158.998 52.2918 157.709 52.2918 156.445 52.0878C156.136 52.036 155.837 51.9366 155.559 51.7931C155.276 51.6571 155.024 51.4642 154.82 51.2264C154.613 50.9954 154.472 50.7138 154.411 50.4104C154.361 50.1076 154.413 49.7969 154.559 49.5264C154.698 49.2557 154.933 49.0459 155.218 48.9371C155.358 48.891 155.505 48.8743 155.652 48.8879C155.799 48.9016 155.941 48.9453 156.07 49.0164C156.322 49.146 156.535 49.3419 156.683 49.5831C156.826 49.8158 156.922 50.0735 156.968 50.3424C157.042 50.8489 157.072 51.3608 157.058 51.8724C157.058 52.8584 157.058 53.7878 157.058 54.6264C157.058 56.3038 157.058 57.6638 157.058 58.6045V60.0665C157.061 60.0363 157.061 60.006 157.058 59.9758V59.6925C157.058 59.4431 157.058 59.0653 157.058 58.5591C157.058 57.6185 157.058 56.2925 156.99 54.5811C156.99 53.7425 156.99 52.8245 156.99 51.8271C157.005 51.3192 156.974 50.811 156.899 50.3084C156.855 50.0518 156.762 49.8058 156.627 49.5831C156.482 49.3553 156.278 49.1712 156.036 49.0504C155.918 48.9835 155.787 48.9427 155.651 48.931C155.516 48.9192 155.38 48.9368 155.252 48.9824C154.991 49.0835 154.776 49.2773 154.65 49.5264C154.513 49.7753 154.465 50.0629 154.513 50.3424C154.574 50.6315 154.706 50.9006 154.9 51.1244C155.318 51.5698 155.874 51.8613 156.479 51.9518C157.101 52.0656 157.733 52.1225 158.365 52.1218C158.997 52.1356 159.629 52.0863 160.251 51.9744C160.557 51.933 160.855 51.8491 161.138 51.7251C161.412 51.6056 161.656 51.4277 161.854 51.2038C162.04 50.9791 162.152 50.7016 162.172 50.4104C162.179 50.2686 162.157 50.1267 162.106 49.994C162.055 49.8613 161.977 49.7406 161.876 49.6398C161.684 49.4396 161.439 49.299 161.169 49.2346C160.899 49.1703 160.616 49.1851 160.354 49.2771C159.857 49.4823 159.453 49.8611 159.217 50.3424C158.987 50.7938 158.851 51.2875 158.82 51.7931C158.82 52.2804 158.82 52.7564 158.763 53.2211C158.706 53.6858 158.763 54.1165 158.763 54.5358C158.82 56.2131 158.956 57.5731 159.036 58.5025C159.036 58.9671 159.115 59.3298 159.149 59.6358V59.9078V60.0665Z" fill="#263238"/>
<path d="M155.193 60.0667C155.193 60.0667 155.193 60.4406 155.193 61.064C155.193 61.6873 155.193 62.6507 155.193 63.6593L157.125 66.062H157.022H159.363H159.272L160.488 64.6907L161.102 64.0107V64.1013C161.102 62.73 161.102 61.438 161.17 60.2593L161.295 60.384L156.92 60.248H155.659H155.193C155.329 60.2296 155.466 60.2296 155.602 60.248H156.84H161.386V60.3726C161.386 61.506 161.386 62.8433 161.386 64.2147L160.772 64.906L159.556 66.266H159.499H157.147L155.113 63.7613C155.113 62.73 155.17 61.846 155.193 61.098C155.164 60.7548 155.164 60.4098 155.193 60.0667Z" fill="#263238"/>
<path d="M161.092 63.7157L160.865 63.6137C160.674 63.5129 160.477 63.4258 160.274 63.353C159.605 63.0879 158.892 62.9496 158.172 62.945C157.455 62.9369 156.742 63.0598 156.07 63.3077C155.864 63.3781 155.663 63.4613 155.468 63.557L155.24 63.659C155.301 63.6039 155.37 63.5581 155.445 63.523L156.047 63.2397C156.725 62.978 157.445 62.8435 158.172 62.843C158.902 62.8547 159.623 63.0047 160.297 63.285C160.499 63.3716 160.697 63.47 160.888 63.5797C160.962 63.6148 161.031 63.6606 161.092 63.7157Z" fill="#263238"/>
<path d="M161.126 62.7862L160.91 62.6729L160.308 62.4122C159.635 62.1579 158.924 62.0199 158.205 62.0042C157.488 62.0049 156.777 62.1315 156.103 62.3782C155.897 62.4486 155.696 62.5318 155.501 62.6275L155.285 62.7182L155.49 62.5935C155.678 62.4815 155.875 62.3867 156.081 62.3102C156.76 62.0421 157.486 61.9074 158.217 61.9135C158.943 61.9264 159.66 62.0764 160.33 62.3555C160.535 62.4374 160.733 62.536 160.921 62.6502C160.996 62.6853 161.065 62.7311 161.126 62.7862Z" fill="#263238"/>
<path d="M161.1 61.8914C161.025 61.8656 160.952 61.8314 160.884 61.7894C160.69 61.6891 160.489 61.6021 160.282 61.5288C158.928 61.0147 157.432 61.0147 156.078 61.5288C155.828 61.6194 155.623 61.7101 155.476 61.7781L155.26 61.8801L155.464 61.7441C155.601 61.6761 155.805 61.5741 156.055 61.4721C156.734 61.2006 157.46 61.0658 158.191 61.0754C158.921 61.0796 159.643 61.2259 160.316 61.5061C160.566 61.6194 160.771 61.7214 160.907 61.8008L161.1 61.8914Z" fill="#263238"/>
<path d="M182.803 86.292C182.803 86.292 180.531 107.202 183.451 118.649L211.461 117.425C211.461 117.425 205.461 96.8093 209.188 87.6747L182.803 86.292Z" fill="#EBEBEB"/>
<path d="M182.922 85.623C182.922 85.623 183.115 108.199 184.263 115.09L212.67 113.752C212.67 113.752 210.17 91.5617 211.136 85.6344L182.922 85.623Z" fill="#FF725E"/>
<path d="M206.827 95.1094C206.827 95.2114 202.578 95.5514 197.317 95.8687C192.056 96.1861 187.795 96.3561 187.783 96.2427C187.772 96.1294 192.033 95.8007 197.294 95.4834C202.555 95.1661 206.827 94.9961 206.827 95.1094Z" fill="white"/>
<path d="M206.837 99.8804C206.837 99.9937 202.587 100.334 197.326 100.64C192.065 100.946 187.793 101.127 187.793 101.025C187.793 100.923 192.043 100.583 197.304 100.266C202.565 99.9484 206.826 99.733 206.837 99.8804Z" fill="white"/>
<path d="M202.006 104.584C201.49 104.72 200.96 104.796 200.426 104.811C199.449 104.902 198.097 105.004 196.597 105.094C195.097 105.185 193.734 105.242 192.756 105.264C192.225 105.335 191.686 105.335 191.154 105.264C191.669 105.123 192.2 105.047 192.734 105.038C193.722 104.947 195.074 104.845 196.574 104.754C198.074 104.664 199.426 104.596 200.415 104.573C200.944 104.509 201.478 104.513 202.006 104.584Z" fill="white"/>
<path d="M247.631 48.9714C247.631 49.1414 231.03 49.2661 210.554 49.2661C190.078 49.2661 173.477 49.1414 173.477 48.9714C173.477 48.8014 190.078 48.6768 210.554 48.6768C231.03 48.6768 247.631 48.8128 247.631 48.9714Z" fill="#263238"/>
<path d="M200.713 55.7143C200.713 55.8843 194.486 56.009 186.805 56.009C179.123 56.009 172.896 55.8843 172.896 55.7143C172.896 55.5443 179.123 55.4197 186.805 55.4197C194.486 55.4197 200.713 55.533 200.713 55.7143Z" fill="#263238"/>
<path d="M215.488 55.7146C211.924 56.1073 208.326 56.1073 204.762 55.7146C208.326 55.322 211.924 55.322 215.488 55.7146Z" fill="#263238"/>
<path d="M370.491 126.82C370.479 126.734 370.479 126.646 370.491 126.559C370.491 126.355 370.491 126.106 370.422 125.8C370.366 125.086 370.286 124.111 370.184 122.887C370.013 120.292 369.763 116.643 369.457 112.155C368.888 103.031 368.104 90.5308 367.241 76.7154C366.377 62.9001 365.741 50.388 365.207 41.2647C364.98 36.7313 364.798 33.116 364.661 30.5207C364.661 29.2967 364.571 28.322 364.548 27.5967C364.548 27.2907 364.548 27.0413 364.548 26.8373C364.531 26.7513 364.531 26.6627 364.548 26.5767C364.552 26.6635 364.552 26.7505 364.548 26.8373L364.616 27.5967C364.673 28.3107 364.752 29.2853 364.843 30.5093C365.025 33.1047 365.275 36.754 365.582 41.242C366.15 50.3087 366.934 62.8661 367.786 76.6814C368.638 90.4968 369.298 103.009 369.82 112.121C370.059 116.654 370.241 120.281 370.377 122.876C370.377 124.1 370.468 125.075 370.491 125.8C370.491 126.106 370.491 126.355 370.491 126.559C370.507 126.646 370.507 126.734 370.491 126.82Z" fill="#263238"/>
<path d="M364.497 0.940578H363.838H361.906H354.464H327.136L236.926 0.951909L143.579 0.657244C138.939 1.79625 134.784 4.38065 131.716 8.03525C129.423 10.7768 127.838 14.038 127.103 17.5326C126.631 19.7244 126.482 21.9732 126.66 24.2079C126.728 24.9673 126.796 25.5453 126.864 25.9306C126.901 26.1255 126.928 26.3222 126.944 26.52C126.753 25.7758 126.62 25.0179 126.546 24.2533C126.317 22.005 126.432 19.7351 126.887 17.5213C127.583 13.9822 129.144 10.6693 131.432 7.87658C134.525 4.13553 138.738 1.48207 143.454 0.305908L236.812 0.41924L326.977 0.702574L354.316 0.86124L361.747 0.929242H363.679L364.497 0.940578Z" fill="#263238"/>
<path d="M390.663 438.249L388.811 461.516C388.811 461.516 365.767 468.906 365.631 473.212L410.719 473.802L412.048 438.204L390.663 438.249Z" fill="#FF725E"/>
<path d="M402.701 459.147C403.139 459.267 403.518 459.544 403.766 459.924C404.013 460.304 404.111 460.762 404.042 461.21C403.936 461.649 403.667 462.031 403.29 462.279C402.912 462.527 402.454 462.623 402.008 462.547C401.535 462.431 401.122 462.142 400.853 461.737C400.584 461.332 400.477 460.84 400.554 460.36C400.711 459.914 401.037 459.547 401.46 459.336C401.884 459.124 402.374 459.085 402.826 459.227" fill="#EBEBEB"/>
<path d="M410.716 473.801L410.625 470.197L367.923 470.458C367.923 470.458 365.48 471.909 365.548 473.314L410.716 473.801Z" fill="#EBEBEB"/>
<path d="M388.057 461.267C388.057 461.482 389.193 461.55 390.329 462.23C391.466 462.91 392.045 463.805 392.238 463.715C392.431 463.624 392.079 462.355 390.727 461.561C389.375 460.768 388.057 461.108 388.057 461.267Z" fill="#263238"/>
<path d="M383.396 463.409C383.396 463.625 384.317 463.965 385.09 464.871C385.862 465.778 386.112 466.753 386.339 466.741C386.567 466.73 386.658 465.472 385.669 464.361C384.68 463.251 383.396 463.194 383.396 463.409Z" fill="#263238"/>
<path d="M380.874 469.132C381.079 469.132 381.352 468.067 380.749 466.865C380.147 465.664 379.102 465.233 379.022 465.426C378.943 465.619 379.59 466.231 380.068 467.217C380.545 468.203 380.659 469.121 380.874 469.132Z" fill="#263238"/>
<path d="M388.307 455.996C388.409 456.189 389.443 455.86 390.659 455.906C391.875 455.951 392.932 456.314 393 456.121C393.068 455.928 392.147 455.169 390.727 455.135C389.307 455.101 388.193 455.826 388.307 455.996Z" fill="#263238"/>
<path d="M388.057 451.316C388.807 451.5 389.594 451.473 390.329 451.237C391.144 451.072 391.934 450.805 392.681 450.443C393.122 450.232 393.547 449.989 393.954 449.718C394.203 449.565 394.428 449.378 394.624 449.163C394.744 448.998 394.809 448.8 394.809 448.596C394.809 448.392 394.744 448.194 394.624 448.029C394.51 447.879 394.362 447.758 394.193 447.675C394.023 447.592 393.836 447.551 393.647 447.553C393.361 447.561 393.078 447.611 392.806 447.701C392.326 447.833 391.858 448.008 391.409 448.222C390.657 448.584 389.97 449.066 389.375 449.65C388.352 450.647 388.023 451.475 388.102 451.52C388.182 451.565 388.693 450.885 389.727 450.047C390.338 449.57 391.006 449.171 391.715 448.857C392.131 448.679 392.561 448.535 393 448.426C393.465 448.279 393.874 448.267 394.011 448.426C394.147 448.585 394.011 448.539 394.011 448.687C393.864 448.837 393.7 448.971 393.522 449.083C393.158 449.344 392.779 449.583 392.386 449.797C391.697 450.168 390.974 450.472 390.227 450.704C389.49 450.858 388.765 451.063 388.057 451.316Z" fill="#263238"/>
<path d="M388.386 451.622C388.793 450.965 388.976 450.194 388.908 449.424C388.925 448.589 388.799 447.757 388.533 446.964C388.366 446.497 388.156 446.046 387.908 445.616C387.785 445.313 387.583 445.049 387.323 444.85C387.064 444.651 386.756 444.524 386.431 444.482C386.23 444.491 386.036 444.558 385.873 444.674C385.709 444.791 385.584 444.953 385.511 445.14C385.405 445.405 385.336 445.683 385.306 445.967C385.226 446.47 385.226 446.983 385.306 447.486C385.462 448.314 385.817 449.091 386.34 449.752C387.261 450.886 388.181 451.124 388.204 451.056C388.227 450.988 387.488 450.534 386.784 449.435C386.371 448.802 386.104 448.086 385.999 447.338C385.943 446.906 385.943 446.468 385.999 446.035C385.999 445.559 386.227 445.162 386.409 445.208C386.59 445.253 387.022 445.548 387.227 445.922C387.455 446.306 387.653 446.708 387.818 447.123C388.091 447.852 388.263 448.614 388.329 449.39C388.477 450.761 388.261 451.588 388.386 451.622Z" fill="#263238"/>
<path d="M488.151 434.373L493.355 461.573L503.695 481.882C503.871 482.228 503.974 482.607 503.997 482.994C504.02 483.381 503.963 483.769 503.83 484.133C503.697 484.498 503.49 484.831 503.223 485.113C502.955 485.394 502.632 485.618 502.275 485.77C501.858 485.949 501.403 486.026 500.95 485.992C500.497 485.958 500.059 485.816 499.673 485.577C494.684 482.506 476.379 471.127 476.106 469.11C475.799 466.843 468.697 440.776 468.697 440.776L488.151 434.373Z" fill="#FF725E"/>
<path d="M502.279 485.747L475.713 467.263L475.963 468.396C476.174 469.389 476.734 470.273 477.542 470.889C479.701 472.544 485.758 476.964 499.598 485.566C499.996 485.813 500.449 485.958 500.917 485.987C501.385 486.017 501.853 485.931 502.279 485.736V485.747Z" fill="#EBEBEB"/>
<path d="M479.418 459.295C479.805 459.465 480.115 459.773 480.287 460.158C480.459 460.543 480.482 460.979 480.35 461.38C480.192 461.772 479.889 462.088 479.504 462.263C479.119 462.438 478.682 462.459 478.282 462.321C477.862 462.135 477.528 461.799 477.347 461.379C477.166 460.958 477.151 460.485 477.305 460.054C477.515 459.663 477.869 459.368 478.293 459.23C478.716 459.093 479.176 459.124 479.577 459.317" fill="#EBEBEB"/>
<path d="M493.527 475.264C493.996 474.278 494.648 473.39 495.448 472.646C496.363 472.046 497.379 471.616 498.448 471.376C498.448 471.308 498.061 471.172 497.414 471.218C496.558 471.304 495.745 471.635 495.073 472.17C494.393 472.695 493.883 473.409 493.607 474.221C493.414 474.867 493.459 475.252 493.527 475.264Z" fill="#263238"/>
<path d="M496.245 478.471C496.392 478.561 497.074 477.496 498.392 476.794C499.23 476.44 500.088 476.133 500.96 475.876C500.486 475.71 499.98 475.658 499.482 475.725C498.984 475.792 498.51 475.976 498.097 476.261C496.597 477.066 496.086 478.425 496.245 478.471Z" fill="#263238"/>
<path d="M488.928 471.388C489.907 470.375 490.959 469.436 492.075 468.577C493.301 467.883 494.577 467.28 495.893 466.775C494.412 466.8 492.969 467.248 491.734 468.066C490.5 468.883 489.526 470.036 488.928 471.388Z" fill="#263238"/>
<path d="M486.652 463.261C486.755 463.409 488.118 462.468 490.061 461.969C492.004 461.471 493.641 461.618 493.663 461.437C492.438 461.085 491.141 461.069 489.907 461.39C488.673 461.711 487.549 462.358 486.652 463.261Z" fill="#263238"/>
<path d="M484.928 455.329C486.022 454.689 487.2 454.204 488.428 453.889C489.693 453.764 490.969 453.806 492.223 454.014C492.223 453.957 491.882 453.674 491.177 453.447C490.251 453.172 489.272 453.118 488.321 453.289C487.37 453.461 486.472 453.852 485.7 454.433C485.121 454.886 484.871 455.272 484.928 455.329Z" fill="#263238"/>
<path d="M488.052 452.393C488.052 452.393 488.052 452.008 487.87 451.362C487.585 450.441 487.113 449.588 486.484 448.857C486.07 448.281 485.48 447.856 484.802 447.644C484.573 447.595 484.335 447.618 484.119 447.709C483.903 447.8 483.721 447.956 483.598 448.154C483.38 448.556 483.319 449.025 483.427 449.469C483.685 450.366 484.248 451.145 485.02 451.672C485.791 452.2 486.723 452.442 487.654 452.359C488.573 452.256 489.44 451.883 490.146 451.288C490.852 450.692 491.365 449.902 491.62 449.016C491.691 448.792 491.713 448.557 491.686 448.324C491.658 448.092 491.582 447.868 491.461 447.667C491.309 447.487 491.105 447.359 490.877 447.3C490.649 447.241 490.408 447.255 490.188 447.338C489.558 447.629 489.013 448.078 488.609 448.642C487.999 449.388 487.526 450.236 487.211 451.146C487.068 451.467 486.994 451.815 486.995 452.166C487.483 450.998 488.137 449.906 488.938 448.925C489.305 448.435 489.789 448.045 490.347 447.792C490.467 447.746 490.599 447.738 490.723 447.771C490.848 447.803 490.959 447.874 491.041 447.973C491.113 448.107 491.157 448.255 491.171 448.407C491.184 448.559 491.167 448.712 491.12 448.857C490.88 449.604 490.432 450.268 489.829 450.772C489.225 451.275 488.491 451.598 487.711 451.702C486.926 451.77 486.141 451.571 485.485 451.137C484.828 450.702 484.339 450.058 484.098 449.31C484.008 449.002 484.032 448.673 484.166 448.381C484.233 448.271 484.332 448.184 484.45 448.131C484.567 448.079 484.698 448.063 484.825 448.086C485.398 448.267 485.902 448.619 486.268 449.095C487.06 450.076 487.665 451.194 488.052 452.393Z" fill="#263238"/>
<path d="M390.33 224.4C390.046 224.4 386.592 452.37 386.592 452.37L414.215 451.418L423.771 339.331L426.044 257.051L444.872 333.2L468.314 452.642L495.892 445.74L460.78 222.949L427.737 216.58L390.33 224.4Z" fill="#263238"/>
<path d="M450.383 83.5829C453.69 77.0775 454.724 65.3815 450.94 58.9102C447.156 52.4388 439.475 47.7581 432.271 45.6275C431.087 45.1817 429.796 45.1027 428.567 45.4008C427.962 45.5712 427.444 45.9646 427.12 46.5012C426.795 47.0378 426.686 47.6776 426.817 48.2908C425.455 47.182 423.919 46.3051 422.272 45.6955C421.449 45.4011 420.567 45.3113 419.702 45.4337C418.836 45.5561 418.014 45.8872 417.306 46.3981C416.971 46.6685 416.693 47.0021 416.487 47.38C416.282 47.7578 416.153 48.1724 416.109 48.5999C416.065 49.0275 416.105 49.4595 416.229 49.8713C416.352 50.2831 416.556 50.6665 416.829 50.9995C415.828 50.5702 414.725 50.4368 413.65 50.6154C412.575 50.794 411.575 51.2769 410.768 52.0067C409.961 52.7364 409.381 53.6822 409.098 54.7314C408.815 55.7806 408.84 56.8888 409.17 57.9242C410.016 60.0616 411.261 62.0193 412.84 63.6928C414.272 65.2115 414.408 66.6848 413.977 68.7362" fill="#263238"/>
<path d="M423.147 137.201C423.351 134.073 423.863 105.808 423.851 105.683C423.84 105.558 413.329 104.38 412.875 93.9416C412.659 88.8982 413.057 78.4829 413.522 69.0649C413.762 64.1843 415.835 59.5724 419.327 56.1456C422.82 52.7188 427.477 50.728 432.374 50.5688H433.385C444.293 50.8635 450.134 60.2702 449.532 71.1389L448.043 131.625" fill="#FFBE9D"/>
<path d="M423.852 105.683C428.688 105.52 433.377 103.979 437.362 101.24C437.362 101.24 434.215 107.768 423.727 107.156L423.852 105.683Z" fill="#EB996E"/>
<path d="M415.33 76.1144C415.342 76.5024 415.503 76.8709 415.78 77.1432C416.058 77.4156 416.43 77.5707 416.819 77.5764C417.009 77.5855 417.2 77.5564 417.38 77.4909C417.559 77.4254 417.723 77.3247 417.863 77.1948C418.003 77.0649 418.115 76.9084 418.193 76.7345C418.272 76.5606 418.314 76.3729 418.319 76.1824C418.317 75.9889 418.277 75.7976 418.202 75.6194C418.126 75.4412 418.016 75.2797 417.878 75.1439C417.74 75.0081 417.576 74.9009 417.396 74.8282C417.216 74.7555 417.024 74.7189 416.83 74.7204C416.639 74.7113 416.448 74.7403 416.269 74.8059C416.09 74.8714 415.925 74.9721 415.785 75.102C415.646 75.2319 415.533 75.3884 415.455 75.5623C415.377 75.7362 415.334 75.9239 415.33 76.1144Z" fill="#263238"/>
<path d="M415.931 74.1081C416.125 74.2895 417.227 73.4168 418.84 73.3715C420.454 73.3261 421.647 74.0968 421.817 73.8928C421.988 73.6888 421.704 73.4621 421.17 73.0995C420.461 72.6412 419.628 72.4117 418.783 72.4421C417.958 72.4743 417.163 72.7637 416.511 73.2695C415.988 73.6661 415.84 74.0175 415.931 74.1081Z" fill="#263238"/>
<path d="M431.395 76.3408C431.403 76.7297 431.564 77.0998 431.842 77.3728C432.12 77.6457 432.493 77.7999 432.883 77.8028C433.074 77.8135 433.266 77.7856 433.446 77.7206C433.626 77.6556 433.791 77.555 433.931 77.4248C434.071 77.2946 434.183 77.1375 434.261 76.9629C434.339 76.7883 434.38 76.5998 434.383 76.4088C434.374 76.0199 434.214 75.6497 433.936 75.3768C433.658 75.1039 433.284 74.9496 432.894 74.9468C432.511 74.9345 432.137 75.0742 431.856 75.3354C431.575 75.5966 431.409 75.958 431.395 76.3408Z" fill="#263238"/>
<path d="M431.749 73.9157C431.942 74.097 433.056 73.2243 434.658 73.179C436.26 73.1337 437.476 73.9043 437.635 73.7003C437.794 73.4963 437.521 73.2697 436.998 72.907C436.285 72.4505 435.448 72.2212 434.601 72.2497C433.776 72.2841 432.982 72.5732 432.328 73.077C431.817 73.4737 431.658 73.825 431.749 73.9157Z" fill="#263238"/>
<path d="M426.281 85.9968C425.428 85.7472 424.545 85.6138 423.656 85.6001C423.247 85.6001 422.849 85.4981 422.769 85.2261C422.726 84.8036 422.809 84.3777 423.008 84.0021L424.144 80.8514C425.701 76.3181 426.803 72.6574 426.621 72.6008C426.44 72.5441 425.042 76.1368 423.485 80.6248C423.122 81.7581 422.758 82.7894 422.429 83.7981C422.18 84.301 422.12 84.8755 422.258 85.4188C422.324 85.5602 422.42 85.6855 422.54 85.7854C422.66 85.8853 422.8 85.9575 422.951 85.9968C423.182 86.05 423.419 86.0729 423.656 86.0648C424.53 86.1533 425.412 86.1305 426.281 85.9968Z" fill="#263238"/>
<path d="M431.055 86.9603C430.793 86.9603 430.839 88.6943 429.384 89.975C427.93 91.2557 426.066 91.1083 426.055 91.369C426.044 91.6297 426.487 91.6863 427.271 91.6863C428.305 91.6887 429.307 91.3275 430.1 90.6663C430.837 90.0192 431.297 89.1145 431.384 88.139C431.384 87.3683 431.168 86.9377 431.055 86.9603Z" fill="#263238"/>
<path d="M431.132 67.6366C431.313 68.0673 432.904 67.8066 434.802 67.9766C436.699 68.1466 438.211 68.6113 438.472 68.2146C438.586 68.022 438.302 67.6253 437.677 67.2173C436.84 66.7196 435.898 66.4246 434.927 66.356C433.96 66.2701 432.987 66.4138 432.086 66.7753C431.404 67.0813 431.063 67.4326 431.132 67.6366Z" fill="#263238"/>
<path d="M416.375 69.4391C416.67 69.8018 417.772 69.4391 419.102 69.3258C420.431 69.2124 421.568 69.4958 421.817 69.1105C421.92 68.9178 421.738 68.5551 421.227 68.2264C420.543 67.8173 419.749 67.6311 418.954 67.6938C418.171 67.7301 417.42 68.0117 416.806 68.4984C416.386 68.8838 416.25 69.2691 416.375 69.4391Z" fill="#263238"/>
<path d="M448.951 78.8684C449.133 78.7891 456.076 76.5224 456.076 83.6738C456.076 90.8251 448.883 89.3404 448.86 89.1364C448.838 88.9324 448.951 78.8684 448.951 78.8684Z" fill="#FFBE9D"/>
<path d="M451.053 86.4279C451.053 86.4279 451.178 86.5186 451.394 86.6093C451.541 86.6704 451.7 86.7018 451.86 86.7018C452.02 86.7018 452.178 86.6704 452.326 86.6093C452.789 86.3164 453.165 85.906 453.417 85.42C453.669 84.9341 453.786 84.3901 453.757 83.8439C453.769 83.2325 453.649 82.6256 453.405 82.0646C453.338 81.8428 453.218 81.6405 453.056 81.4748C452.894 81.309 452.694 81.1848 452.473 81.1126C452.33 81.072 452.176 81.084 452.041 81.1463C451.905 81.2087 451.797 81.3173 451.735 81.4526C451.632 81.6452 451.735 81.7926 451.644 81.8039C451.553 81.8152 451.496 81.6792 451.553 81.3846C451.591 81.2109 451.688 81.0553 451.826 80.9426C452.024 80.7946 452.273 80.7296 452.519 80.7612C452.817 80.8187 453.095 80.9538 453.325 81.1528C453.554 81.3518 453.727 81.6077 453.825 81.8946C454.13 82.5103 454.279 83.1915 454.257 83.8779C454.291 84.5158 454.135 85.1494 453.81 85.6996C453.484 86.2499 453.004 86.6924 452.428 86.9719C452.236 87.0261 452.034 87.0369 451.838 87.0036C451.641 86.9703 451.455 86.8936 451.292 86.7793C451.064 86.5979 451.03 86.4393 451.053 86.4279Z" fill="#EB996E"/>
<path d="M408.956 55.5329C408.115 64.7922 419.558 68.6569 424.58 63.4662C426.853 61.0749 428.921 58.0829 432.08 57.0062C433.16 56.6828 434.293 56.5763 435.415 56.6931C436.536 56.8098 437.623 57.1474 438.613 57.6862C441.568 59.2162 443.306 62.6276 443.772 65.9142C444.408 70.4476 443.67 74.5276 444.908 78.7322C445.014 79.356 445.326 79.9265 445.795 80.3529C446.275 80.5841 446.822 80.6393 447.339 80.5088C447.857 80.3782 448.311 80.0703 448.624 79.6389C449.672 78.2762 450.296 76.637 450.419 74.9242C451.05 71.077 450.903 67.1428 449.988 63.3529C449.065 59.5467 447.042 56.0945 444.17 53.4249C440.445 50.2081 435.613 48.5585 430.693 48.8235C425.795 49.1266 421.116 50.9583 417.319 54.0595C415.497 55.4133 414.041 57.1968 413.081 59.2502" fill="#263238"/>
<path d="M416.531 50.4668C416.206 50.3897 415.868 50.3897 415.543 50.4668C414.648 50.6783 413.83 51.1334 413.179 51.7814C412.197 52.7452 411.569 54.0107 411.395 55.3741C411.26 57.0605 411.749 58.7379 412.77 60.0888C413.76 61.4294 415.1 62.4724 416.645 63.1034C417.891 63.6042 419.212 63.8953 420.554 63.9648C421.448 64.0212 422.346 63.9946 423.235 63.8854C423.565 63.8707 423.891 63.8057 424.201 63.6928C424.201 63.5908 422.804 63.7834 420.588 63.5794C419.301 63.4547 418.041 63.1376 416.849 62.6388C415.4 62.0223 414.144 61.0279 413.213 59.7601C412.297 58.5463 411.839 57.0498 411.918 55.5328C412.043 54.2606 412.587 53.0654 413.463 52.1328C414.051 51.4983 414.789 51.0227 415.611 50.7501C416.19 50.5348 416.543 50.5234 416.531 50.4668Z" fill="#455A64"/>
<path d="M421.327 47.2025C421.327 47.2025 421.066 47.1231 420.645 47.3158C420.356 47.4734 420.104 47.6918 419.908 47.956C419.712 48.2202 419.576 48.5238 419.509 48.8458C419.366 49.7918 419.559 50.758 420.054 51.5771C420.572 52.5756 421.23 53.4954 422.009 54.3085C423.424 55.7924 425.184 56.9056 427.133 57.5498C427.918 57.8686 428.764 58.0117 429.611 57.9691C429.611 57.8671 428.679 57.7538 427.27 57.1871C425.436 56.4655 423.78 55.3558 422.418 53.9345C421.669 53.1548 421.024 52.2826 420.497 51.3391C420.036 50.6179 419.821 49.7671 419.884 48.9138C419.979 48.3515 420.283 47.8456 420.736 47.4971C421.088 47.2705 421.338 47.2478 421.327 47.2025Z" fill="#455A64"/>
<path d="M358.957 139.728L309.653 135.07L301.858 133.2C301.858 133.2 284.041 130.027 282.371 129.494C280.439 128.893 279.678 129.675 279.508 130.401C279.235 131.534 280.36 132.747 281.996 133.313C282.564 133.517 291.643 136.26 291.643 136.26C290.626 136.52 289.627 136.85 288.655 137.246C286.541 138.051 284.587 140.895 283.689 144.148C282.791 147.401 282.826 148.387 284.075 148.795C284.314 148.862 284.565 148.875 284.809 148.832C285.053 148.789 285.284 148.691 285.484 148.545C286.184 148.115 286.698 147.44 286.928 146.653C288.45 141.462 291.643 140.929 291.643 140.929L292.666 141.179C292.666 141.179 289.439 143.615 289.609 146.403C289.64 146.797 289.744 147.181 289.916 147.537C289.673 148.249 289.626 149.013 289.779 149.75C289.932 150.486 290.28 151.169 290.786 151.726C291.293 152.284 291.94 152.696 292.66 152.919C293.38 153.143 294.147 153.171 294.882 152.999C295.586 152.852 296.325 152.41 296.404 151.696C296.41 151.301 296.317 150.912 296.132 150.563C296.051 150.38 295.986 150.19 295.938 149.996L298.893 150.279C298.893 150.279 305.563 150.574 308.449 151.027L354.889 163.007C356.418 163.403 358.011 163.49 359.575 163.265C361.138 163.039 362.641 162.505 363.995 161.694C365.35 160.882 366.528 159.81 367.462 158.539C368.396 157.268 369.066 155.824 369.434 154.291C369.828 152.638 369.862 150.919 369.533 149.252C369.204 147.584 368.52 146.007 367.526 144.626C366.533 143.245 365.254 142.093 363.775 141.248C362.297 140.403 360.654 139.885 358.957 139.728Z" fill="#FFBE9D"/>
<path d="M308.609 136.363C308.523 136.869 308.28 137.336 307.916 137.7C307.552 138.063 307.083 138.305 306.576 138.391C305.564 138.641 304.519 138.55 303.496 138.72C300.462 139.253 298.201 142.12 295.133 142.505C294.713 142.505 294.167 142.505 293.997 142.086C293.826 141.667 294.167 141.338 294.463 141.066L301.837 134.017" fill="#FFBE9D"/>
<path d="M301.87 134.017C301.554 134.21 301.261 134.438 300.995 134.697C300.461 135.161 299.7 135.83 298.723 136.714L295.45 139.74C295.144 140.035 294.837 140.329 294.507 140.624C294.178 140.919 293.746 141.202 293.678 141.905C293.679 142.078 293.732 142.246 293.832 142.388C293.931 142.53 294.072 142.638 294.235 142.698C294.499 142.798 294.783 142.833 295.064 142.8C295.564 142.734 296.055 142.616 296.53 142.449C298.189 141.67 299.791 140.776 301.325 139.774C301.999 139.397 302.727 139.125 303.484 138.969C304.188 138.833 304.882 138.822 305.529 138.754C306.056 138.75 306.576 138.629 307.051 138.402C307.526 138.175 307.946 137.846 308.279 137.439C308.41 137.284 308.504 137.102 308.555 136.906C308.606 136.71 308.613 136.505 308.574 136.306C308.469 136.644 308.308 136.962 308.097 137.247C307.76 137.591 307.354 137.862 306.906 138.041C306.458 138.221 305.978 138.305 305.495 138.289C304.796 138.304 304.098 138.353 303.404 138.437C302.611 138.59 301.845 138.861 301.132 139.241C299.599 140.201 298.009 141.068 296.371 141.837C295.945 141.994 295.503 142.104 295.053 142.165C294.632 142.165 294.257 142.075 294.291 141.848C294.325 141.621 294.621 141.27 294.939 140.975C295.257 140.681 295.564 140.363 295.871 140.08L299.052 136.952C299.95 136.057 300.677 135.32 301.166 134.81C301.654 134.3 301.904 134.051 301.87 134.017Z" fill="#EB996E"/>
<path d="M292.746 141.066C292.106 140.935 291.445 140.955 290.814 141.122C290.152 141.341 289.579 141.766 289.178 142.335C288.678 143.049 288.295 143.836 288.041 144.67C287.783 145.528 287.44 146.36 287.019 147.152C286.65 147.808 286.118 148.359 285.473 148.75C285.249 148.879 284.998 148.954 284.74 148.97C284.482 148.985 284.223 148.941 283.985 148.84C283.655 148.682 283.53 148.523 283.542 148.512C283.553 148.5 283.712 148.602 284.03 148.704C284.251 148.771 284.483 148.788 284.711 148.754C284.939 148.721 285.156 148.638 285.348 148.512C285.931 148.123 286.404 147.592 286.723 146.97C287.114 146.191 287.437 145.379 287.689 144.545C287.947 143.675 288.351 142.855 288.882 142.12C289.337 141.506 289.985 141.063 290.723 140.862C291.211 140.735 291.724 140.735 292.212 140.862C292.404 140.883 292.588 140.953 292.746 141.066Z" fill="#EB996E"/>
<path d="M281.404 133.087C282.02 133.214 282.625 133.392 283.211 133.62L287.529 135.014L291.87 136.34C292.483 136.493 293.083 136.694 293.665 136.94C293.032 136.903 292.406 136.789 291.801 136.6C290.665 136.328 289.12 135.909 287.415 135.376C285.711 134.844 284.2 134.3 283.12 133.869C282.522 133.671 281.946 133.408 281.404 133.087Z" fill="#EB996E"/>
<path d="M294.145 143.74C294.145 143.74 294.02 143.922 293.782 144.205C293.604 144.382 293.467 144.595 293.38 144.83C293.294 145.065 293.26 145.316 293.282 145.565C293.311 145.725 293.382 145.874 293.488 145.998C293.593 146.121 293.73 146.214 293.884 146.268C294.272 146.412 294.676 146.508 295.088 146.551C295.601 146.598 296.079 146.832 296.429 147.208C296.6 147.434 296.715 147.695 296.766 147.973C296.818 148.25 296.803 148.536 296.725 148.806C296.64 149.071 296.503 149.316 296.321 149.526C296.14 149.736 295.917 149.908 295.668 150.03C295.215 150.269 294.699 150.364 294.191 150.302C293.399 150.167 292.632 149.91 291.918 149.543C291.417 149.318 290.96 149.007 290.566 148.625C290.412 148.488 290.298 148.312 290.236 148.115C290.236 148.115 290.384 148.274 290.668 148.523C291.079 148.847 291.535 149.11 292.02 149.305C292.744 149.627 293.509 149.848 294.293 149.962C294.736 150.013 295.184 149.917 295.567 149.69C295.951 149.463 296.25 149.117 296.418 148.704C296.481 148.491 296.495 148.265 296.457 148.045C296.42 147.825 296.333 147.616 296.202 147.435C295.901 147.123 295.498 146.93 295.066 146.891C294.629 146.83 294.202 146.716 293.793 146.551C293.6 146.471 293.432 146.342 293.305 146.177C293.177 146.012 293.095 145.817 293.066 145.61C293.082 145.228 293.194 144.857 293.393 144.53C293.591 144.203 293.87 143.931 294.202 143.74H294.145Z" fill="#EB996E"/>
<path d="M295.438 149.793C295.438 149.793 295.643 149.793 295.927 150.008C296.126 150.167 296.285 150.372 296.39 150.604C296.494 150.837 296.542 151.091 296.529 151.345C296.499 151.723 296.369 152.086 296.154 152.398C295.939 152.711 295.645 152.961 295.302 153.125C294.468 153.515 293.515 153.568 292.643 153.272C291.773 153.002 291.01 152.467 290.461 151.742C290.024 151.156 289.753 150.463 289.677 149.736C289.62 149.25 289.654 148.758 289.78 148.285C289.871 147.957 289.962 147.787 289.984 147.798C289.889 148.425 289.889 149.063 289.984 149.691C290.09 150.365 290.368 151.001 290.791 151.538C291.307 152.188 292.008 152.666 292.802 152.909C293.581 153.178 294.432 153.145 295.188 152.819C295.489 152.685 295.75 152.477 295.949 152.216C296.148 151.954 296.277 151.647 296.325 151.323C296.341 151.102 296.311 150.88 296.237 150.671C296.162 150.462 296.045 150.271 295.893 150.11C295.609 149.883 295.427 149.827 295.438 149.793Z" fill="#EB996E"/>
<path d="M303.425 145.452C303.444 145.148 303.542 144.855 303.71 144.602C304.101 143.916 304.708 143.378 305.437 143.072V143.4C305.047 143.23 304.668 143.037 304.3 142.822C302.97 142.13 301.863 141.077 301.107 139.785C302.138 140.816 303.282 141.728 304.516 142.505C304.891 142.72 305.266 142.913 305.653 143.072L306.039 143.253L305.641 143.4C304.97 143.671 304.391 144.127 303.971 144.715C303.585 145.157 303.482 145.474 303.425 145.452Z" fill="#EB996E"/>
<path d="M287.961 140.828C288.029 140.76 288.575 141.315 288.666 142.211C288.756 143.106 288.359 143.763 288.268 143.707C288.177 143.65 288.381 143.038 288.268 142.256C288.154 141.474 287.87 140.896 287.961 140.828Z" fill="#EB996E"/>
<path d="M359.834 163.755L391.969 156.399C391.969 156.399 390.332 215.106 390.332 215.662C390.332 216.217 387.685 217.135 387.912 221.408L390.185 226.474L460.635 227.414L462.544 170.362L468.975 126.162L454.203 117.039L448.999 109.933L428.682 131.307L423.626 113.061L423.774 107.632L418.751 113.072L391.651 120.869L355.846 137.518L331.643 135.671L325.359 156.796L359.834 163.755Z" fill="#5EAFFF"/>
<path d="M425.872 124.757C425.214 125.113 424.7 125.685 424.417 126.377C424.108 127.164 423.957 128.003 423.974 128.848C424.022 130.001 423.86 131.153 423.497 132.248L423.247 132.826L422.997 132.248C422.319 130.562 421.787 128.822 421.406 127.046C420.554 123.374 419.997 120.008 419.633 117.582C419.384 116.27 419.243 114.94 419.213 113.604C419.576 114.885 419.857 116.187 420.054 117.503C420.52 119.917 421.19 123.26 421.985 126.91C422.355 128.649 422.857 130.358 423.485 132.021H422.997C423.349 131.004 423.525 129.935 423.519 128.859C423.537 127.967 423.738 127.087 424.11 126.275C424.352 125.741 424.748 125.292 425.247 124.983C425.428 124.847 425.645 124.768 425.872 124.757Z" fill="#263238"/>
<path d="M451.954 115.804C451.768 116.159 451.539 116.491 451.272 116.79C450.795 117.391 450.136 118.263 449.227 119.329C447.477 121.459 445.045 124.372 442.318 127.579L437.978 132.6L437.637 132.985L437.523 132.498C436.898 130.027 436.387 127.965 436.069 126.491C435.932 125.755 435.523 125.358 435.125 125.358C434.932 125.341 434.739 125.393 434.58 125.505C434.58 125.505 434.66 125.211 435.125 125.188C435.265 125.184 435.404 125.209 435.533 125.262C435.662 125.314 435.779 125.394 435.875 125.494C436.117 125.758 436.289 126.077 436.375 126.423C436.796 127.874 437.375 129.937 438.034 132.385L437.569 132.283L441.864 127.194C444.591 123.998 447.079 121.119 448.909 119.057C449.818 118.025 450.568 117.198 451.09 116.631C451.613 116.065 451.92 115.77 451.954 115.804Z" fill="#263238"/>
<path d="M421.983 209.666C421.932 209.417 421.909 209.162 421.915 208.907C421.915 208.34 421.915 207.626 421.915 206.72C421.915 204.827 421.915 202.084 421.915 198.707C421.983 191.907 422.313 182.58 423.051 172.266C423.79 161.953 424.915 152.66 425.847 145.95C426.301 142.55 426.722 139.887 426.983 138.017L427.358 135.864C427.392 135.613 427.449 135.367 427.528 135.127C427.554 135.379 427.554 135.634 427.528 135.886C427.46 136.442 427.369 137.156 427.267 138.051C427.017 140 426.676 142.698 426.256 145.984C425.438 152.705 424.426 161.998 423.642 172.3C422.858 182.602 422.506 191.941 422.302 198.696C422.222 202.028 422.165 204.748 422.108 206.72C422.108 207.615 422.108 208.329 422.051 208.896C422.046 209.154 422.024 209.411 421.983 209.666Z" fill="#263238"/>
<path d="M416.248 223.414C415.751 221.782 415.57 220.07 415.714 218.37C415.679 216.674 415.878 214.981 416.305 213.338C416.465 215.016 416.465 216.704 416.305 218.382C416.225 221.147 416.464 223.391 416.248 223.414Z" fill="#263238"/>
<path d="M445.109 206.924C444.523 207.19 443.919 207.417 443.302 207.604C442.166 208.012 440.393 208.544 438.257 209.168C432.671 210.762 427.004 212.063 421.281 213.066C415.552 214.099 409.771 214.825 403.964 215.242C401.748 215.39 399.941 215.48 398.691 215.503C398.049 215.557 397.403 215.557 396.76 215.503C397.394 215.387 398.036 215.319 398.68 215.299L403.93 214.846C408.361 214.438 414.475 213.712 421.156 212.579C427.837 211.446 433.826 209.961 438.121 208.828L443.211 207.434C443.828 207.208 444.463 207.037 445.109 206.924Z" fill="#263238"/>
<path d="M391.615 168.741C391.456 168.741 391.353 160.411 391.387 150.121C391.422 139.83 391.581 131.5 391.751 131.511C391.921 131.523 392.012 139.841 391.978 150.132C391.944 160.423 391.785 168.741 391.615 168.741Z" fill="#263238"/>
<path d="M467.665 125.301C467.665 125.301 476.54 132.894 477.13 137.201C477.574 140.521 486.312 171.745 490.243 185.73C491.472 190.084 491.208 194.723 489.493 198.911L478.13 226.904L459.779 216.07L468.961 189.822L461.359 167.54L467.665 125.301Z" fill="#5EAFFF"/>
<path d="M478.155 226.904C478.035 226.863 477.92 226.806 477.815 226.734L476.837 226.202L473.122 224.082L459.645 216.274L459.475 216.172L459.543 216.002C462.111 208.601 465.224 199.602 468.633 189.72V189.912C467.565 187.034 466.44 184.03 465.293 180.959C462.6 173.74 460.043 166.849 457.702 160.559C455.373 155.697 453.362 150.994 452.805 146.483C452.525 144.375 452.587 142.236 452.987 140.148C453.355 138.373 453.974 136.659 454.827 135.059C456.037 132.802 457.646 130.782 459.577 129.098C460.084 128.647 460.615 128.223 461.168 127.828C461.352 127.684 461.55 127.559 461.759 127.454C461.596 127.623 461.418 127.775 461.225 127.908C460.861 128.191 460.338 128.622 459.691 129.222C457.84 130.944 456.302 132.973 455.146 135.218C454.32 136.793 453.731 138.481 453.396 140.227C453.022 142.273 452.979 144.367 453.271 146.426C453.85 150.835 455.861 155.493 458.214 160.332L465.849 180.732C466.986 183.804 468.122 186.807 469.19 189.697V189.788V189.89C465.713 199.75 462.554 208.737 459.952 216.126L459.85 215.854L473.179 223.788L476.837 226.054L477.781 226.644C478.053 226.814 478.167 226.893 478.155 226.904Z" fill="#263238"/>
<g opacity="0.3">
<path d="M430.85 129.403C431.463 129.383 432.065 129.569 432.559 129.931C433.054 130.292 433.412 130.809 433.577 131.398C433.804 132.622 433.634 133.891 433.952 135.093C434.27 136.294 435.373 137.473 436.588 137.212C437.31 136.976 437.925 136.495 438.327 135.852C440.713 132.63 442.626 129.085 444.008 125.323C444.008 125.403 437.713 132.531 437.713 132.531C437.472 130.729 436.998 128.966 436.304 127.284C436.088 126.74 435.85 125.822 435.327 125.573C434.475 125.187 433.339 126.434 432.77 127.182C432.189 127.95 431.53 128.656 430.805 129.29" fill="black"/>
</g>
<g opacity="0.3">
<path d="M420.592 122.943C420.706 126.924 421.474 130.86 422.864 134.594C422.985 134.978 423.195 135.327 423.478 135.614C423.625 135.76 423.815 135.854 424.02 135.882C424.224 135.911 424.433 135.873 424.614 135.773C425.07 135.006 425.451 134.198 425.751 133.359C426.33 131.738 428.694 131.591 428.694 131.591C428.298 129.76 427.781 127.958 427.148 126.196C427.031 125.907 426.827 125.662 426.565 125.493C426.302 125.325 425.994 125.242 425.682 125.255C425.274 125.394 424.909 125.637 424.626 125.962C424.342 126.286 424.15 126.68 424.069 127.102C423.717 130.015 423.762 131.341 423.33 132.361C422.194 129.267 421.33 125.561 420.603 122.83" fill="black"/>
</g>
<g opacity="0.3">
<path d="M438.055 208.794C438.323 208.602 438.551 208.36 438.724 208.08C438.897 207.8 439.013 207.488 439.064 207.163C439.115 206.838 439.1 206.506 439.02 206.186C438.94 205.867 438.798 205.567 438.6 205.303C438.178 204.787 437.627 204.39 437.003 204.154C436.379 203.917 435.703 203.848 435.043 203.954C433.73 204.182 432.496 204.736 431.453 205.564C430.373 206.346 429.385 207.241 428.248 207.932C425.465 209.632 422.078 210.029 418.806 210.074C415.538 209.937 412.264 210.085 409.022 210.516C405.818 211.128 402.614 212.783 401.068 215.65C401.023 215.65 428.964 213.633 438.055 208.794Z" fill="black"/>
</g>
<path d="M456.236 249.73C453.251 247.814 450.747 245.239 448.918 242.204C448.935 242.165 448.944 242.123 448.944 242.08C448.944 242.037 448.935 241.995 448.918 241.955C448.848 241.865 448.747 241.804 448.634 241.785C447.848 240.582 447.135 239.333 446.498 238.045C448.77 236.572 451.759 234.328 448.521 233.874C444.532 233.308 441.703 231.37 441.271 230.316C441.204 230.064 441.217 229.798 441.308 229.554C441.399 229.31 441.563 229.1 441.779 228.953C441.995 228.806 442.251 228.73 442.512 228.734C442.773 228.739 443.026 228.824 443.237 228.978C444.451 229.592 445.743 230.038 447.077 230.304C448.145 230.553 449.248 230.622 450.339 230.508C451.009 230.429 453.384 228.808 455.929 227.618C456.283 227.453 456.679 227.397 457.065 227.46L458.031 227.392C458.547 227.36 459.045 227.195 459.478 226.913C459.91 226.631 460.261 226.241 460.497 225.782L464.19 218.71L475.326 225.284L466.508 237.478C463.309 241.745 459.88 245.835 456.236 249.73Z" fill="#FFBE9D"/>
<path d="M458.574 251C457.658 250.741 456.791 250.335 456.006 249.798C454.041 248.609 452.264 247.135 450.734 245.423C449.205 243.729 447.935 241.819 446.961 239.757C446.52 238.913 446.209 238.008 446.041 237.071C448.589 242.95 452.973 247.852 458.54 251.045L458.574 251Z" fill="#455A64"/>
<path d="M423.497 258.15C423.497 258.15 423.384 258.15 423.179 258.059C422.898 257.922 422.634 257.751 422.395 257.549C421.543 256.768 420.915 255.775 420.577 254.671C420.076 253.077 419.663 251.458 419.338 249.82C418.929 247.984 418.509 245.967 418.088 243.836C417.248 239.586 416.611 235.71 416.202 232.899C415.998 231.494 415.85 230.349 415.77 229.567C415.696 229.16 415.669 228.745 415.691 228.332C415.842 228.695 415.945 229.076 415.998 229.465L416.611 232.775C417.134 235.563 417.827 239.416 418.668 243.666C419.088 245.785 419.497 247.791 419.872 249.65C420.247 251.509 420.543 253.152 421.009 254.478C421.299 255.536 421.837 256.511 422.577 257.323C423.111 257.923 423.52 258.105 423.497 258.15Z" fill="#455A64"/>
<path d="M422.545 232.707C422.545 232.707 422.738 232.639 423.045 232.707C423.496 232.873 423.868 233.2 424.09 233.625C424.269 233.946 424.353 234.311 424.333 234.678C424.313 235.045 424.19 235.399 423.977 235.699C423.716 236.071 423.349 236.357 422.923 236.518C422.498 236.68 422.033 236.71 421.59 236.606C421.158 236.474 420.772 236.224 420.477 235.883C420.181 235.542 419.988 235.125 419.92 234.679C419.875 234.321 419.916 233.957 420.041 233.618C420.165 233.279 420.369 232.974 420.636 232.73C421.579 231.925 422.431 232.163 422.386 232.208C421.844 232.363 421.345 232.643 420.931 233.024C420.736 233.23 420.592 233.479 420.511 233.751C420.43 234.023 420.414 234.31 420.465 234.588C420.527 234.922 420.679 235.233 420.906 235.487C421.132 235.741 421.424 235.928 421.749 236.028C422.079 236.099 422.423 236.077 422.74 235.962C423.058 235.848 423.337 235.647 423.545 235.382C423.71 235.158 423.813 234.894 423.843 234.617C423.873 234.34 423.829 234.061 423.715 233.806C423.283 232.888 422.499 232.786 422.545 232.707Z" fill="#455A64"/>
<path d="M398.386 228.151C398.658 228.991 398.758 229.878 398.682 230.758C398.603 232.9 398.032 234.996 397.014 236.884C395.995 238.772 394.556 240.402 392.807 241.649C392.107 242.18 391.307 242.565 390.455 242.782C390.455 242.692 391.307 242.25 392.557 241.264C394.168 239.969 395.5 238.365 396.476 236.547C397.452 234.728 398.052 232.732 398.239 230.678C398.409 229.16 398.284 228.162 398.386 228.151Z" fill="#455A64"/>
<path d="M354.289 148.636C354.343 146.736 354.537 144.842 354.869 142.97C355.007 141.086 355.281 139.215 355.687 137.371C355.864 139.262 355.784 141.168 355.448 143.038C355.313 144.947 354.923 146.83 354.289 148.636Z" fill="#263238"/>
<path d="M331.639 135.694C331.63 135.829 331.603 135.962 331.559 136.09C331.491 136.396 331.389 136.77 331.264 137.224C330.969 138.266 330.571 139.717 330.059 141.53L325.56 156.887L325.378 156.57C331.798 158.156 339.536 159.448 347.797 160.967C351.91 161.738 355.876 162.565 359.535 163.472H359.41L382.454 158.27L389.169 156.819L390.965 156.445C391.172 156.386 391.386 156.356 391.601 156.354C391.402 156.434 391.197 156.499 390.987 156.547L389.215 157L382.579 158.666L359.58 164.072H359.444C355.797 163.177 351.842 162.361 347.729 161.602C339.491 160.083 331.73 158.757 325.298 157.068L325.037 157.012L325.117 156.751C327.026 150.461 328.628 145.214 329.775 141.462C330.332 139.672 330.787 138.244 331.116 137.201C331.26 136.748 331.385 136.37 331.491 136.068C331.53 135.939 331.579 135.814 331.639 135.694Z" fill="#263238"/>
<path d="M13.7819 397.495L10.498 458.139L32.5307 463.443L36.9168 404.204L13.7819 397.495Z" fill="#AA6550"/>
<path d="M9.84937 457.63L6.09961 474.086H31.4389L32.5297 463.365L9.84937 457.63Z" fill="#FF725E"/>
<path d="M31.9614 471.694C30.7404 471.885 29.5032 471.954 28.2685 471.898C25.9959 471.898 22.837 471.898 19.36 471.74L10.4628 471.366C9.22962 471.368 7.99831 471.269 6.78125 471.071C8.00155 470.873 9.23945 470.805 10.4742 470.867C12.7468 470.867 15.9057 470.867 19.3827 471.037L28.2799 471.411C29.5131 471.395 30.7453 471.49 31.9614 471.694Z" fill="#263238"/>
<path d="M21.2263 460.837C21.4195 460.837 21.4081 463.228 21.2263 466.163C21.0445 469.099 20.715 471.456 20.5218 471.445C20.3287 471.433 20.3287 469.042 20.5218 466.118C20.715 463.194 21.0332 460.814 21.2263 460.837Z" fill="#263238"/>
<g opacity="0.6">
<path d="M6.0957 474.085H31.435L31.685 471.694L6.55021 471.071L6.0957 473.802" fill="white"/>
</g>
<path d="M97.4121 426.984L102.764 467.161L122.251 465.812L118.161 428.968L97.4121 426.984Z" fill="#AA6550"/>
<path d="M122.456 461.449C122.456 461.449 144.364 468.827 144.727 472.782L102.844 474.029L102.469 463.115L104.014 463.421C110.22 464.648 116.653 463.96 122.456 461.449Z" fill="#FF725E"/>
<g opacity="0.6">
<path d="M107.393 465.019C106.991 465.15 106.651 465.426 106.441 465.792C106.231 466.159 106.166 466.59 106.257 467.003C106.374 467.406 106.642 467.749 107.006 467.96C107.37 468.171 107.802 468.234 108.211 468.136C108.626 467.987 108.971 467.69 109.18 467.304C109.39 466.917 109.449 466.467 109.348 466.039C109.181 465.631 108.861 465.303 108.456 465.125C108.051 464.948 107.592 464.934 107.177 465.087" fill="white"/>
</g>
<g opacity="0.6">
<path d="M102.842 474.028V470.628L142.998 470.73C142.998 470.73 144.885 471.49 144.714 472.804L102.842 474.028Z" fill="white"/>
</g>
<path d="M123.124 461.267C123.124 461.471 122.113 461.585 121.124 462.276C120.136 462.967 119.625 463.829 119.431 463.761C119.238 463.693 119.511 462.491 120.727 461.687C121.943 460.882 123.17 461.029 123.124 461.267Z" fill="#263238"/>
<path d="M127.58 462.9C127.58 463.092 126.751 463.466 126.081 464.35C125.41 465.234 125.24 466.152 125.035 466.152C124.831 466.152 124.672 465.019 125.524 463.886C126.376 462.752 127.569 462.707 127.58 462.9Z" fill="#263238"/>
<path d="M130.231 468.068C130.049 468.068 129.731 467.104 130.231 465.971C130.731 464.838 131.674 464.362 131.765 464.532C131.856 464.702 131.277 465.314 130.89 466.243C130.504 467.172 130.436 468.068 130.231 468.068Z" fill="#263238"/>
<path d="M122.672 461.109C121.99 461.323 121.262 461.343 120.57 461.166C119.813 461.053 119.072 460.847 118.365 460.554C117.941 460.386 117.531 460.185 117.138 459.953C116.9 459.827 116.682 459.666 116.491 459.477C116.351 459.338 116.263 459.156 116.24 458.96C116.217 458.765 116.262 458.568 116.366 458.4C116.464 458.254 116.596 458.133 116.75 458.047C116.903 457.96 117.075 457.91 117.252 457.902C117.516 457.888 117.782 457.918 118.036 457.992C118.488 458.083 118.93 458.22 119.354 458.4C120.067 458.698 120.73 459.103 121.32 459.602C122.32 460.474 122.672 461.234 122.604 461.268C122.536 461.302 122.024 460.712 121.013 459.998C120.424 459.589 119.787 459.254 119.115 459.001C118.72 458.858 118.313 458.748 117.9 458.672C117.456 458.57 117.07 458.57 116.968 458.774C116.866 458.978 116.968 458.876 116.968 459.012C117.104 459.15 117.261 459.264 117.434 459.352C117.802 459.572 118.181 459.773 118.57 459.953C119.227 460.255 119.912 460.495 120.615 460.667C121.309 460.773 121.996 460.921 122.672 461.109Z" fill="#263238"/>
<path d="M122.412 461.415C122.004 460.826 121.794 460.124 121.809 459.409C121.753 458.646 121.826 457.88 122.025 457.142C122.142 456.697 122.31 456.268 122.525 455.861C122.623 455.574 122.795 455.317 123.025 455.118C123.254 454.919 123.533 454.784 123.832 454.728C124.017 454.727 124.199 454.779 124.356 454.877C124.513 454.976 124.639 455.116 124.718 455.283C124.833 455.524 124.913 455.78 124.957 456.043C125.03 456.512 125.03 456.99 124.957 457.459C124.861 458.245 124.577 458.995 124.127 459.647C123.332 460.78 122.491 461.018 122.468 460.95C122.446 460.882 123.105 460.429 123.696 459.375C124.04 458.766 124.246 458.089 124.298 457.391C124.331 456.986 124.308 456.578 124.23 456.179C124.15 455.737 123.968 455.385 123.809 455.442C123.65 455.499 123.253 455.782 123.093 456.145C122.9 456.509 122.736 456.888 122.605 457.278C122.393 457.961 122.278 458.671 122.264 459.386C122.287 460.621 122.525 461.381 122.412 461.415Z" fill="#263238"/>
<path d="M30.1197 223.562C30.1197 223.562 14.6093 249.334 14.6093 264.736L10.8027 452.416L35.233 458.23L53.8682 274.811C53.8682 274.811 99.0016 458.706 100.456 458.706C101.911 458.706 124.125 454.728 124.125 454.728L90.4227 224.401L30.1197 223.562Z" fill="#263238"/>
<path d="M39.6906 269.733C39.7084 269.892 39.7084 270.051 39.6906 270.209C39.6906 270.549 39.577 271.014 39.4974 271.592C39.2929 272.839 39.0088 274.618 38.6452 276.885C37.8953 281.475 36.8499 288.116 35.6 296.344C33.1229 312.755 30.0208 335.535 27.4187 360.82C24.8166 386.104 23.2371 409.009 22.3394 425.624C21.8849 433.931 21.5554 440.652 21.3622 445.298C21.26 447.565 21.1691 449.39 21.1123 450.648C21.1123 451.237 21.0441 451.69 21.0327 452.042C21.0299 452.202 21.0108 452.361 20.9759 452.518C20.9638 452.359 20.9638 452.2 20.9759 452.042C20.9759 451.69 20.9759 451.226 20.9759 450.648C20.9759 449.378 21.0441 447.588 21.1009 445.287C21.2145 440.64 21.4645 433.954 21.8622 425.601C22.6462 408.975 24.1348 386.025 26.7482 360.752C29.3617 335.478 32.5206 312.709 35.1341 296.276C36.4408 288.059 37.5544 281.418 38.3952 276.839C38.8043 274.573 39.1338 272.805 39.3611 271.569C39.4747 270.991 39.5543 270.538 39.6224 270.198C39.6342 270.042 39.6569 269.886 39.6906 269.733Z" fill="#455A64"/>
<path d="M78.355 272.874C78.5368 272.874 85.9908 314.036 95.0016 364.866C104.012 415.696 111.171 456.95 110.989 456.984C110.807 457.018 103.353 415.832 94.3426 364.98C85.3318 314.127 78.1731 272.908 78.355 272.874Z" fill="#455A64"/>
<path d="M53.005 274.494C53.005 274.494 52.8914 274.346 52.7437 274.029C52.596 273.712 52.3801 273.247 52.1187 272.635C51.4149 270.907 50.8117 269.14 50.312 267.342C48.6774 261.383 48.0854 255.187 48.5621 249.028C48.6871 247.214 48.9371 245.469 49.2098 243.792C49.4825 242.114 49.9484 240.516 50.3461 239.009C51.1983 236.006 52.096 233.342 52.8687 231.076C53.6414 228.809 54.3004 227.052 54.7776 225.828L55.3458 224.412C55.4073 224.247 55.4833 224.087 55.573 223.936C55.5613 224.115 55.5191 224.291 55.448 224.457L54.9935 225.908C54.5504 227.245 53.9709 229.036 53.2664 231.2C52.5619 233.365 51.6983 236.119 50.8688 239.134C50.4597 240.63 50.0393 242.216 49.7325 243.86C49.4257 245.503 49.2325 247.26 49.1076 249.039C48.6495 255.128 49.1751 261.25 50.6643 267.172C51.2438 269.439 51.8687 271.241 52.2892 272.488C52.5683 273.141 52.8074 273.811 53.005 274.494Z" fill="#455A64"/>
<path d="M59.9244 242.976V243.327C59.9244 243.599 59.9244 243.928 59.9812 244.325C59.9812 245.243 60.0721 246.489 60.1402 248.031C60.2539 251.249 60.413 255.726 60.5948 261.087L60.4357 260.86L69.8442 264.679H69.5828L77.2187 260.044L77.7187 259.738L77.5709 259.965C78.1505 253.777 78.7073 247.951 79.1618 242.965L79.4118 243.248L65.3445 243.101L61.3334 243.033H60.2652H59.8789C60.3275 242.978 60.7793 242.955 61.2311 242.965L65.174 242.897L79.4004 242.772H79.6845V243.055C79.2413 248.076 78.73 253.901 78.1732 260.055V260.203L78.0482 260.282L77.5482 260.577L69.8896 265.201L69.7646 265.28L69.6396 265.223L60.2539 261.336L60.1062 261.279V261.109C60.0266 255.681 59.9584 251.147 59.913 247.883C59.913 246.365 59.913 245.141 59.913 244.234C59.8846 243.815 59.8884 243.394 59.9244 242.976Z" fill="#455A64"/>
<path d="M24.5605 238.001C24.5605 238.001 24.5605 238.466 24.3901 239.27C24.2196 240.075 24.0833 241.276 23.8674 242.67C23.3788 245.651 22.7311 249.788 21.913 254.74L21.8107 254.491L28.9125 259.738H28.6625L37.2984 257.347L37.7415 257.222L37.537 257.426C39.1846 251.76 40.7413 246.535 42.0821 241.979L42.2753 242.308L29.5148 239.27L25.8786 238.375C25.0378 238.16 24.5719 238.035 24.5605 238.012C24.9775 238.063 25.3911 238.139 25.7991 238.239L29.4011 238.987L42.3889 241.798L42.6503 241.866L42.5821 242.126L38.071 257.585V257.744H37.9119L37.4688 257.868L28.833 260.248H28.6966L28.583 260.169L21.5039 255.001L21.3789 254.899V254.752C22.2993 249.754 23.0606 245.572 23.6515 242.568C23.9242 241.174 24.1401 240.052 24.2992 239.168C24.3562 238.773 24.4435 238.383 24.5605 238.001Z" fill="#455A64"/>
<path d="M73.9019 270.867C70.4901 271.909 67.0228 272.76 63.5162 273.417C60.0474 274.265 56.5349 274.923 52.9941 275.389C56.4096 274.347 59.8807 273.496 63.3912 272.839C66.856 271.991 70.3648 271.333 73.9019 270.867Z" fill="#455A64"/>
<path d="M43.5319 271.672C42.6495 271.789 41.7554 271.789 40.873 271.672C38.7305 271.5 36.6036 271.17 34.5098 270.686C32.416 270.214 30.3611 269.585 28.3624 268.804C27.5129 268.543 26.7054 268.161 25.9648 267.671C26.829 267.859 27.6764 268.117 28.4988 268.442C30.0555 268.94 32.2144 269.575 34.6461 270.13C37.0778 270.686 39.2935 271.06 40.9184 271.264C41.8 271.322 42.6746 271.459 43.5319 271.672Z" fill="#455A64"/>
<path d="M40.8225 76.1489C41.6633 78.5743 38.7771 80.6823 36.2773 81.2149C33.7775 81.7476 30.7322 82.1443 29.5845 84.4449C28.5846 86.4396 29.5845 88.9783 28.6869 91.007C26.9597 94.8716 19.9829 94.0669 18.6193 98.079C17.6194 100.867 20.2556 103.666 19.892 106.534C19.6079 109.016 17.324 110.716 15.3468 112.2C13.3697 113.685 11.2334 115.782 11.5402 118.275C11.9038 121.142 15.4263 123.126 15.0968 126.004C14.7673 128.883 10.9607 130.152 10.4039 132.952C9.75625 136.261 13.9151 138.392 15.2559 141.497C16.2786 143.866 15.6422 146.926 17.3694 148.852C19.0966 150.779 22.2782 150.428 24.8689 149.884L50.7423 144.41C48.9924 140.341 50.6287 135.558 53.1285 131.886C55.6283 128.214 58.9349 125.086 61.0825 121.233C63.2301 117.38 63.9233 112.166 61.0825 108.698" fill="#263238"/>
<path d="M86.3109 96.7758C86.1315 95.3961 85.8466 94.0322 85.4587 92.6958C85.2578 92.0636 84.9024 91.4911 84.4246 91.0298C83.9133 90.5425 83.2883 90.8485 82.8338 91.5398C82.0741 93.1794 81.6806 94.964 81.6806 96.7702C81.6806 98.5763 82.0741 100.361 82.8338 102.001C83.2542 102.703 83.9701 103.009 84.4246 102.522C84.9003 102.054 85.2552 101.479 85.4587 100.844C85.8459 99.5118 86.1308 98.1517 86.3109 96.7758C86.4084 97.1452 86.4391 97.529 86.4018 97.9092C86.3833 98.9581 86.2188 99.9994 85.9132 101.003C85.7051 101.738 85.3142 102.409 84.7769 102.953C84.5979 103.124 84.3755 103.245 84.1334 103.301C83.8913 103.356 83.6385 103.346 83.402 103.27C82.9321 103.097 82.5327 102.774 82.2657 102.352C81.4136 100.616 80.9707 98.7086 80.9707 96.7758C80.9707 94.843 81.4136 92.9358 82.2657 91.1998C82.5327 90.7773 82.9321 90.4546 83.402 90.2818C83.6385 90.2059 83.8913 90.1952 84.1334 90.2511C84.3755 90.307 84.5979 90.4273 84.7769 90.5992C85.3142 91.1431 85.7051 91.8136 85.9132 92.5485C86.2178 93.5487 86.3822 94.5861 86.4018 95.6312C86.4386 96.0151 86.4078 96.4025 86.3109 96.7758Z" fill="#263238"/>
<path d="M44.111 120.53C39.4295 112.597 38.0887 102.136 36.9069 93.0584C36.3502 88.7744 35.373 82.6884 38.3841 80.0138C41.6226 77.1464 41.9294 72.7264 45.645 70.5164C49.3607 68.3064 54.3945 68.1251 57.8942 70.6524" fill="#263238"/>
<path d="M57.0764 148.467C58.7746 148.598 60.4819 148.386 62.0961 147.843C63.7103 147.301 65.1983 146.44 66.4711 145.311C67.744 144.182 68.7756 142.809 69.5042 141.274C70.2329 139.738 70.6436 138.072 70.7119 136.374C71.0073 129.483 71.2573 122.525 71.2573 122.525C71.2573 122.525 81.7225 121.573 82.518 111.191C83.3134 100.81 83.0293 77.01 83.0293 77.01C77.2958 74.1144 70.8913 72.7979 64.4772 73.1964C58.0631 73.5948 51.8718 75.6939 46.543 79.2767L47.077 115.634L47.0202 135.195C47.1679 141.78 50.5768 147.945 57.0764 148.467Z" fill="#CE9D8E"/>
<path d="M72.2638 98.6002C70.4911 96.3902 67.5822 95.5062 65.196 97.0475C64.0207 97.8549 63.171 99.0524 62.7985 100.427C62.426 101.801 62.5548 103.262 63.1621 104.55C63.6973 105.505 64.4248 106.34 65.2989 107.001C66.173 107.662 67.1748 108.136 68.2413 108.392C69.1945 108.604 70.0368 109.157 70.6086 109.946C71.1803 110.736 71.4418 111.707 71.3434 112.676C71.0366 115.26 66.7073 116.224 64.7415 118.343C61.6962 121.675 55.0376 123.069 50.5492 123.579C46.0609 124.089 46.6631 124.134 44.1065 120.508C42.3894 118.053 41.5127 115.112 41.6066 112.121C41.4778 104.497 41.3453 96.8775 41.2089 89.2615C41.0371 86.5181 41.2204 83.7641 41.7543 81.0675C42.2843 78.3309 43.8407 75.899 46.1063 74.2675C48.6289 72.6128 51.7878 72.4881 54.6967 71.5701C58.2874 70.4368 61.344 68.0568 64.696 66.3568C68.0481 64.6568 72.1842 63.6368 75.5476 65.3368C77.9566 66.5608 79.5701 68.9635 81.9222 70.3121C85.2629 72.2161 89.8763 71.7968 91.433 76.7155C91.9786 78.43 91.9546 80.2743 91.3648 81.9742C89.0922 88.6495 80.7632 91.3128 74.7977 88.4115C74.6841 89.5448 75.7863 92.0608 74.5818 95.6422C74.1955 96.7755 74.0591 98.5208 72.3092 98.5435" fill="#263238"/>
<path d="M70.3889 105.049C70.3889 105.049 70.3889 105.241 70.2526 105.491C70.1153 105.662 69.943 105.802 69.747 105.902C69.5511 106.002 69.336 106.059 69.1163 106.069C68.3889 106.025 67.7061 105.704 67.2091 105.173C66.7121 104.641 66.4389 103.939 66.446 103.213C66.4196 102.816 66.4733 102.418 66.6041 102.042C66.7349 101.666 66.94 101.32 67.2073 101.025C67.6395 100.555 68.2073 100.231 68.8322 100.096C69.9003 99.8806 70.5139 100.277 70.4685 100.334C70.423 100.391 69.8322 100.334 68.9799 100.595C68.4409 100.762 67.9716 101.101 67.6434 101.559C67.3152 102.018 67.1462 102.57 67.1619 103.133C67.1609 103.69 67.3526 104.229 67.7046 104.661C68.0566 105.093 68.5472 105.39 69.0936 105.502C69.9685 105.604 70.3208 104.981 70.3889 105.049Z" fill="#995037"/>
<path d="M86.3336 96.3333C84.0639 97.0458 81.7317 97.5429 79.3682 97.8179C77.0382 98.3037 74.6687 98.5768 72.2891 98.6339C72.2891 98.4413 75.3798 97.7839 79.2545 97.1493C81.5835 96.6573 83.9535 96.3841 86.3336 96.3333Z" fill="#263238"/>
<path d="M44.8945 130.617C45.2284 131.242 45.773 131.729 46.4321 131.993C47.0912 132.256 47.8224 132.279 48.4966 132.057C49.832 131.567 51.0261 130.758 51.9736 129.699C52.9094 128.647 54.0759 127.825 55.3825 127.297C58.1437 126.458 61.5298 128.294 63.8479 126.583C65.9614 125.03 65.6887 121.505 67.7681 119.896C68.9044 119.046 70.4043 118.933 71.5292 118.105C73.6314 116.564 73.2791 113.107 71.5292 111.181C69.7793 109.254 67.109 108.483 64.5978 107.781L42.3379 117.244L44.8945 130.617Z" fill="#263238"/>
<path d="M71.3823 90.4966C71.3823 90.4966 71.3255 90.5532 71.2005 90.6326C71.0119 90.7564 70.8144 90.8663 70.6097 90.9612C69.833 91.3387 69.0177 91.6313 68.178 91.8339C66.8474 92.1485 65.4953 92.3644 64.1328 92.4799C62.3462 92.6056 60.5698 92.8479 58.8149 93.2053C56.7107 93.5954 54.7871 94.648 53.3267 96.2086C51.8268 97.9426 51.2586 100.436 50.0996 102.861C49.5162 104.141 48.6265 105.258 47.5089 106.114C46.3269 106.95 45.0189 107.593 43.6341 108.018C40.8956 108.925 37.8845 109.48 35.6119 111.418C34.4894 112.322 33.7541 113.619 33.5552 115.045C33.43 116.481 33.43 117.926 33.5552 119.363C33.6791 120.829 33.3919 122.3 32.7257 123.613C32.003 124.83 30.9622 125.829 29.7145 126.503C27.4419 127.874 24.9535 128.599 23.0104 129.835C22.0634 130.394 21.2461 131.147 20.6128 132.045C20.07 132.891 19.7568 133.863 19.7038 134.867C19.7014 136.64 19.9423 138.406 20.4197 140.114C20.7505 141.447 20.8769 142.823 20.7946 144.194C20.7438 145.067 20.491 145.917 20.0561 146.676C19.9031 146.941 19.7116 147.181 19.4879 147.39C20.129 146.439 20.4911 145.328 20.5333 144.183C20.5697 142.841 20.4089 141.5 20.0561 140.205C19.5297 138.465 19.2505 136.661 19.2266 134.844C19.2661 133.752 19.5913 132.689 20.1697 131.761C20.834 130.793 21.6979 129.978 22.7036 129.37C24.7262 128.055 27.1806 127.307 29.3964 125.97C30.592 125.363 31.5702 124.403 32.1968 123.22C32.8234 122.037 33.0677 120.69 32.8961 119.363C32.7654 117.888 32.7654 116.406 32.8961 114.931C33.1197 113.35 33.9308 111.91 35.1687 110.897C37.6458 108.823 40.7593 108.29 43.4182 107.395C44.7393 106.995 45.9893 106.39 47.1225 105.604C48.1648 104.807 48.9957 103.768 49.5428 102.578C50.6791 100.311 51.27 97.7046 52.8949 95.8459C54.4447 94.2104 56.4874 93.124 58.7127 92.7519C60.4904 92.4097 62.2903 92.1939 64.0987 92.1059C65.4495 92.0199 66.7932 91.8457 68.1212 91.5846C69.2416 91.3303 70.334 90.9658 71.3823 90.4966Z" fill="#455A64"/>
<path d="M65.3452 94.2031C65.3452 94.2711 64.5384 94.2031 63.1748 94.5091C61.2501 94.975 59.5114 96.01 58.1865 97.4784C57.2719 98.4759 56.5925 99.6646 56.198 100.958C55.8232 102.473 55.6852 104.036 55.7889 105.593C55.9324 107.396 55.6684 109.209 55.0163 110.897C54.5829 111.788 53.9103 112.541 53.0732 113.073C52.2681 113.586 51.4333 114.052 50.5734 114.467C49.7401 114.834 48.9902 115.367 48.369 116.031C47.8249 116.708 47.5176 117.544 47.494 118.411C47.369 120.134 47.744 122.049 46.9032 123.704C46.0941 125.142 44.8922 126.321 43.4375 127.104C42.1307 127.874 40.8581 128.452 39.79 129.098C38.8057 129.634 37.9339 130.354 37.2219 131.218C36.6784 131.879 36.2902 132.654 36.0857 133.484C35.9326 134.19 35.9326 134.921 36.0857 135.626C35.9694 135.469 35.8916 135.287 35.8584 135.094C35.7178 134.553 35.6946 133.989 35.7902 133.439C35.9542 132.565 36.3156 131.739 36.847 131.025C37.5706 130.111 38.4612 129.342 39.4718 128.758C40.6081 128.067 41.8239 127.466 43.0738 126.696C44.422 125.946 45.5292 124.83 46.2668 123.477C47.0054 122.049 46.6645 120.281 46.7668 118.411C46.7937 117.404 47.1487 116.433 47.7781 115.646C48.4602 114.907 49.288 114.316 50.2097 113.912C51.9483 113.062 53.7095 112.291 54.4254 110.67C55.0368 109.075 55.2889 107.365 55.164 105.661C55.0837 104.043 55.2523 102.423 55.6639 100.856C56.0965 99.4958 56.8394 98.2543 57.8343 97.2291C59.2446 95.7282 61.0935 94.709 63.118 94.3164C63.661 94.2153 64.2139 94.1772 64.7656 94.2031C64.9577 94.1738 65.1531 94.1738 65.3452 94.2031Z" fill="#455A64"/>
<path d="M73.8356 132.17L71.1426 126.65L47.7464 125.766L44.0762 132.94H73.4607" fill="#FF725E"/>
<path d="M154.262 182.093C154.091 181.254 160.443 148.297 162.216 139.253C162.267 138.977 162.257 138.692 162.187 138.42C162.116 138.148 161.986 137.895 161.806 137.678C161.626 137.462 161.4 137.288 161.145 137.168C160.89 137.049 160.611 136.987 160.329 136.986H113.469C113.035 136.983 112.613 137.127 112.272 137.395C111.931 137.663 111.692 138.038 111.594 138.46L102.004 178.795L78.3574 180.552L79.1869 182.104L154.262 182.093Z" fill="#455A64"/>
<path d="M152.203 179.169L159.782 139.219L113.728 139.491L103.615 179.226L152.203 179.169Z" fill="#EBEBEB"/>
<path d="M103.58 179.249L113.693 139.503L159.781 139.219L152.191 179.192L103.58 179.249ZM113.75 139.582L103.648 179.249L152.179 179.192L159.747 139.299L113.75 139.582Z" fill="#263238"/>
<path d="M152.16 179.441C152.16 179.6 138.684 179.736 122.071 179.736C105.458 179.736 91.9707 179.6 91.9707 179.441C91.9707 179.283 105.436 179.147 122.071 179.147C138.706 179.147 152.16 179.283 152.16 179.441Z" fill="#263238"/>
<path d="M148.974 169.354C148.778 169.385 148.579 169.385 148.383 169.354L146.656 169.411L140.304 169.501C134.94 169.501 127.543 169.592 119.362 169.592H112.271L112.362 169.241C113.999 162.951 115.419 157.454 116.464 153.374C116.976 151.47 117.396 149.974 117.714 148.75C117.847 148.19 118.022 147.641 118.237 147.107C118.174 147.681 118.063 148.25 117.907 148.807C117.635 149.94 117.271 151.538 116.771 153.465C115.783 157.499 114.43 163.007 112.874 169.331L112.601 168.98H119.316C127.498 168.98 134.895 168.98 140.258 169.071L146.61 169.161H148.337C148.559 169.187 148.775 169.253 148.974 169.354Z" fill="#455A64"/>
<path d="M115.623 167.836L116.475 163.982H122.407L121.645 167.836H115.623Z" fill="#FF725E"/>
<path d="M123.682 167.836L125.466 160.254H131.397L129.715 167.836H123.682Z" fill="#FF725E"/>
<path d="M131.738 167.836L132.602 163.982H138.533L137.772 167.836H131.738Z" fill="#FF725E"/>
<path d="M139.797 167.835L143.194 153.102H149.126L145.831 167.835H139.797Z" fill="#FF725E"/>
<path d="M120.276 172.143C119.51 172.424 118.688 172.518 117.878 172.415C116.56 172.415 115.492 172.267 115.492 172.097C117.062 171.704 118.706 171.704 120.276 172.097V172.143Z" fill="#455A64"/>
<path d="M128.083 172.131C127.32 172.407 126.502 172.5 125.696 172.403C124.883 172.485 124.062 172.376 123.299 172.085C124.065 171.807 124.887 171.714 125.696 171.813C126.506 171.726 127.324 171.835 128.083 172.131Z" fill="#455A64"/>
<path d="M135.899 172.12C135.132 172.396 134.311 172.489 133.501 172.392C132.692 172.475 131.875 172.366 131.115 172.075C131.881 171.795 132.703 171.702 133.513 171.803C134.322 171.715 135.141 171.824 135.899 172.12Z" fill="#455A64"/>
<path d="M143.75 172.108C142.176 172.501 140.529 172.501 138.955 172.108C140.529 171.715 142.176 171.715 143.75 172.108Z" fill="#455A64"/>
<path d="M132.218 145.475C130.022 145.766 127.806 145.865 125.593 145.77C123.377 145.865 121.156 145.766 118.957 145.475C121.156 145.183 123.377 145.085 125.593 145.18C127.806 145.085 130.022 145.184 132.218 145.475Z" fill="#455A64"/>
<path d="M125.251 143.831C123.311 144.239 121.306 144.239 119.365 143.831C121.307 143.438 123.309 143.438 125.251 143.831Z" fill="#455A64"/>
<path d="M112.549 206.381L139.66 186.808L138.649 185.176C137.167 182.77 134.942 180.909 132.309 179.872L128.07 180.631L102.936 184.45L112.549 206.381Z" fill="#FF725E"/>
<path d="M16.153 201.881L38.6856 192.951L33.6519 174.353L15.3008 180.575L16.153 201.881Z" fill="#FF725E"/>
<path d="M111.604 206.902C117.218 204.125 118.661 197.45 115.922 191.829L92.617 142.075C92.0804 140.846 91.277 139.75 90.2649 138.868C87.6469 136.542 84.5899 134.761 81.2729 133.628C77.956 132.495 74.4458 132.034 70.9479 132.272L46.6086 131.637C46.6086 131.637 27.4848 131.637 20.3148 146.665C19.7921 147.799 8.67916 169.751 1.35008 184.235C0.550594 185.813 0.0950287 187.542 0.0133437 189.307C-0.0683414 191.073 0.225711 192.836 0.876156 194.481C1.5266 196.125 2.5187 197.613 3.78721 198.848C5.05572 200.082 6.5719 201.035 8.23602 201.643C11.2201 202.753 14.5163 202.685 17.4517 201.453C20.387 200.221 22.7401 197.917 24.0305 195.013L31.9845 177.311L36.9387 202.663L29.7233 223.562L90.0717 224.389L85.4356 196.43L83.9698 176.506L96.2531 201.734C96.9061 203.092 97.824 204.307 98.9532 205.307C100.082 206.308 101.4 207.073 102.829 207.56C104.259 208.046 105.771 208.244 107.278 208.14C108.784 208.037 110.255 207.635 111.604 206.959V206.902Z" fill="#FFA033"/>
<g opacity="0.2">
<path d="M39.0203 202.176C43.5655 205.576 50.3264 204.443 55.951 203.525C61.6586 202.7 66.8904 199.89 70.7228 195.591C72.507 193.719 73.4894 191.227 73.4613 188.644C73.234 186.094 70.9728 183.635 68.4275 183.941C65.5186 184.292 64.1096 187.556 62.7461 190.129C60.4376 194.164 56.9356 197.389 52.7192 199.363C48.5027 201.337 43.7778 201.963 39.1908 201.156C39.1908 201.156 38.2136 201.575 39.0203 202.176Z" fill="black"/>
</g>
<g opacity="0.2">
<path d="M76.2871 163.008C77.7075 174.455 77.0711 173.593 79.4687 184.881C80.605 190.423 82.0708 196.215 85.9115 200.408L84.0139 176.506L76.2871 163.008Z" fill="black"/>
</g>
<path d="M29.7662 223.562L28.0391 218.541L32.5388 215.549L87.8989 210.993L91.7964 218.315L90.1147 224.389L29.7662 223.562Z" fill="#FF725E"/>
<path d="M41.2009 128.826C40.0454 129.274 39.0059 129.976 38.1598 130.88C37.3137 131.784 36.6827 132.866 36.3136 134.046C35.9446 135.227 35.8471 136.475 36.0282 137.698C36.2094 138.921 36.6647 140.088 37.3602 141.112C37.939 141.74 38.3082 142.532 38.417 143.378C38.3034 145.418 35.0081 145.475 33.9627 147.232C33.6882 147.858 33.6262 148.557 33.7861 149.222C33.9461 149.887 34.3193 150.481 34.849 150.915C35.9182 151.766 37.0587 152.525 38.2579 153.182C38.8526 153.522 39.3543 154.003 39.7189 154.582C40.0835 155.161 40.2998 155.82 40.3487 156.502C41.485 156.502 42.1895 155.074 42.019 153.941C41.7065 152.829 41.2277 151.771 40.5987 150.802C40.2877 150.317 40.1103 149.759 40.0843 149.184C40.0584 148.609 40.1848 148.037 40.4509 147.526C41.2009 146.45 42.7235 146.393 43.9734 145.928C45.1429 145.421 46.0684 144.479 46.5541 143.303C47.0398 142.127 47.0475 140.809 46.5755 139.627C45.8256 137.972 44.0984 136.295 44.9393 134.686C45.4052 133.79 46.4846 133.45 47.3709 132.952C48.2899 132.447 49.0687 131.723 49.6375 130.844C50.2062 129.965 50.547 128.959 50.6293 127.916C50.7115 126.873 50.5326 125.826 50.1087 124.869C49.6847 123.913 49.029 123.076 48.2004 122.434" fill="#263238"/>
<path d="M31.825 179.735C31.5157 180.716 31.1044 181.662 30.5978 182.557C29.7569 184.269 28.5297 186.592 27.0525 189.097C25.5754 191.601 24.1095 193.777 23.0073 195.341C22.4632 196.212 21.8311 197.025 21.1211 197.767C21.5533 196.834 22.0706 195.942 22.6665 195.103C23.6664 193.494 25.064 191.273 26.5412 188.791C28.0184 186.309 29.291 184.019 30.2228 182.365C30.6739 181.441 31.2103 180.56 31.825 179.735Z" fill="#263238"/>
<path d="M26.5181 189.267C26.6945 190.666 26.5622 192.087 26.1304 193.43C25.6986 194.773 24.9777 196.006 24.0183 197.042C23.8706 196.94 24.8932 195.387 25.5637 193.245C26.2341 191.103 26.3363 189.267 26.5181 189.267Z" fill="#263238"/>
<path d="M114.938 190.038C114.79 190.106 110.063 180.246 104.393 168.029C98.7231 155.811 94.2347 145.838 94.3825 145.77C94.5302 145.702 99.2571 155.551 104.927 167.779C110.597 180.008 115.086 189.97 114.938 190.038Z" fill="#263238"/>
<path d="M86.1864 139.219C86.1864 139.31 85.1637 139.684 83.6638 140.613C81.7029 141.82 80.0314 143.441 78.767 145.362C77.5026 147.283 76.6762 149.457 76.3461 151.731C76.0847 153.477 76.1643 154.587 76.062 154.599C75.8197 153.643 75.7733 152.648 75.9256 151.675C76.1525 149.304 76.9563 147.024 78.2672 145.033C79.5781 143.042 81.3565 141.4 83.4479 140.251C84.2808 139.724 85.2126 139.373 86.1864 139.219Z" fill="#263238"/>
<path d="M36.9397 202.867C36.7806 202.867 34.0648 191.375 30.8719 177.106C27.6789 162.838 25.1904 151.255 25.3836 151.221C25.5767 151.187 28.2584 162.713 31.4514 176.982C34.6443 191.25 37.076 202.867 36.9397 202.867Z" fill="#263238"/>
<path d="M139.661 186.808L150.66 182.082H136.002L139.206 186.23" fill="#AA6550"/>
<path d="M117.046 188.032C116.077 187.284 115.183 186.446 114.376 185.527C113.436 184.745 112.569 183.88 111.785 182.943C112.939 183.425 113.965 184.165 114.785 185.108C115.747 185.903 116.519 186.902 117.046 188.032Z" fill="#263238"/>
<path d="M96.7661 202.607C96.4078 202.127 96.0959 201.615 95.8343 201.077C95.2662 200.079 94.4821 198.617 93.5617 196.804C91.6528 193.166 89.1075 188.1 86.3349 182.501C83.5624 176.902 81.0057 171.836 79.1081 168.198C78.2104 166.453 77.4491 165.002 76.8355 163.892C76.5396 163.376 76.285 162.838 76.0742 162.282C76.4392 162.752 76.7624 163.253 77.0401 163.778C77.6309 164.764 78.4604 166.204 79.449 168.006C81.4375 171.598 84.051 176.63 86.8235 182.241C89.5961 187.851 92.0505 192.837 93.9026 196.611L96.0388 200.975C96.3266 201.497 96.5698 202.043 96.7661 202.607Z" fill="#263238"/>
<path d="M75.0051 187.205C75.0051 187.205 75.0051 187.352 75.0051 187.601C74.9623 187.982 74.8978 188.361 74.812 188.735C74.4965 190.11 73.9877 191.434 73.3007 192.667C70.9368 196.69 67.357 199.864 63.0741 201.734C58.8378 203.519 54.3487 204.635 49.7681 205.043C48.0296 205.236 46.6092 205.349 45.632 205.417C45.1262 205.477 44.6152 205.477 44.1094 205.417C44.6013 205.289 45.103 205.202 45.6093 205.157L49.7113 204.59C54.2215 204.081 58.6365 202.937 62.8241 201.19C66.9775 199.365 70.4879 196.341 72.903 192.509C73.8377 190.842 74.5447 189.058 75.0051 187.205Z" fill="#263238"/>
<path d="M62.8713 216.467C62.8713 216.626 55.3945 217.283 46.1451 217.929C36.8957 218.575 29.3961 218.972 29.3848 218.802C29.3734 218.632 36.8616 217.986 46.111 217.34C55.3604 216.694 62.8599 216.24 62.8713 216.467Z" fill="#263238"/>
<path d="M72.5177 211.934C73.7331 215.612 74.1438 219.508 73.7222 223.358C73.5518 223.358 73.4836 220.785 73.1427 217.691C72.8018 214.597 72.3587 211.934 72.5177 211.934Z" fill="#263238"/>
<path d="M76.4022 208.329C76.6823 209.055 76.8509 209.82 76.9022 210.596C77.3782 214.34 77.1118 218.141 76.1181 221.782C75.9652 222.55 75.689 223.289 75.3 223.969C75.1182 223.969 76.1863 220.569 76.4363 216.183C76.6863 211.797 76.2204 208.352 76.4022 208.329Z" fill="#263238"/>
<path d="M73.9028 132.601C69.8727 132.68 65.8413 132.555 61.824 132.227C55.1653 131.853 49.7793 131.411 49.7793 131.252C49.7793 131.093 55.1994 131.252 61.8581 131.637C68.5167 132.023 73.9028 132.408 73.9028 132.601Z" fill="#263238"/>
</svg>
