<?xml version="1.0" encoding="UTF-8"?>
<svg version="1.1" xmlns="http://www.w3.org/2000/svg" width="23" height="32">
<path d="M0 0 C7.59 0 15.18 0 23 0 C23 10.56 23 21.12 23 32 C15.41 32 7.82 32 0 32 C0 21.44 0 10.88 0 0 Z " fill="#565E66" transform="translate(0,0)"/>
<path d="M0 0 C0.78375 0.00451172 1.5675 0.00902344 2.375 0.01367188 C4.29170014 0.02535907 6.20836048 0.04329092 8.125 0.0625 C8.125 3.6925 8.125 7.3225 8.125 11.0625 C0.535 11.0625 -7.055 11.0625 -14.875 11.0625 C-14.875 7.7625 -14.875 4.4625 -14.875 1.0625 C-9.85891475 0.0448597 -5.08891694 -0.05606434 0 0 Z " fill="#6F7174" transform="translate(14.875,20.9375)"/>
<path d="M0 0 C7.59 0 15.18 0 23 0 C23 2.97 23 5.94 23 9 C15.41 9.33 7.82 9.66 0 10 C0 6.7 0 3.4 0 0 Z " fill="#5E5D5E" transform="translate(0,12)"/>
<path d="M0 0 C7.59 0 15.18 0 23 0 C23 0.99 23 1.98 23 3 C15.41 3.33 7.82 3.66 0 4 C0 2.68 0 1.36 0 0 Z " fill="#3B4148" transform="translate(0,18)"/>
<path d="M0 0 C7.59 0 15.18 0 23 0 C23 0.99 23 1.98 23 3 C15.41 3 7.82 3 0 3 C0 2.01 0 1.02 0 0 Z " fill="#8F8782" transform="translate(0,9)"/>
<path d="M0 0 C0.78375 0.00451172 1.5675 0.00902344 2.375 0.01367188 C4.29170014 0.02535907 6.20836048 0.04329092 8.125 0.0625 C8.125 1.0525 8.125 2.0425 8.125 3.0625 C0.535 3.0625 -7.055 3.0625 -14.875 3.0625 C-14.875 2.4025 -14.875 1.7425 -14.875 1.0625 C-9.85891475 0.0448597 -5.08891694 -0.05606434 0 0 Z " fill="#8A817B" transform="translate(14.875,20.9375)"/>
</svg>
